<svg width="24" height="24" viewBox="0 0 24 24" fill="none" xmlns="http://www.w3.org/2000/svg">
<path d="M4.45325 1.99999C3.10654 1.99999 2 3.10653 2 4.45324V8.54573C2 9.89244 3.10654 11.007 4.45325 11.007H8.55213C9.89884 11.007 11.0054 9.89244 11.0054 8.54573V4.45324C11.0054 3.10653 9.89884 1.99999 8.55213 1.99999H4.45325ZM15.0979 1.99999C13.7512 1.99999 12.6446 3.10653 12.6446 4.45324V8.54573C12.6446 9.89244 13.7512 11.007 15.0979 11.007H19.1967C20.5435 11.007 21.65 9.89244 21.65 8.54573V4.45324C21.65 3.10653 20.5435 1.99999 19.1967 1.99999H15.0979ZM4.45325 3.63763H8.55213C9.01992 3.63763 9.36775 3.98546 9.36775 4.45324V8.54573C9.36775 9.01352 9.01992 9.36774 8.55213 9.36774H4.45325C3.98546 9.36774 3.63763 9.01352 3.63763 8.54573V4.45324C3.63763 3.98546 3.98546 3.63763 4.45325 3.63763ZM15.0979 3.63763H19.1967C19.6645 3.63763 20.0124 3.98546 20.0124 4.45324V8.54573C20.0124 9.01352 19.6645 9.36774 19.1967 9.36774H15.0979C14.6301 9.36774 14.2822 9.01352 14.2822 8.54573V4.45324C14.2822 3.98546 14.6301 3.63763 15.0979 3.63763ZM4.45325 12.6446C3.10654 12.6446 2 13.7511 2 15.0979V19.1967C2 20.5435 3.10654 21.65 4.45325 21.65H8.55213C9.89884 21.65 11.0054 20.5435 11.0054 19.1967V15.0979C11.0054 13.7511 9.89884 12.6446 8.55213 12.6446H4.45325ZM15.0979 12.6446C13.7512 12.6446 12.6446 13.7511 12.6446 15.0979V19.1967C12.6446 20.5435 13.7512 21.65 15.0979 21.65H19.1967C20.5435 21.65 21.65 20.5435 21.65 19.1967V15.0979C21.65 13.7511 20.5435 12.6446 19.1967 12.6446H15.0979ZM4.45325 14.2822H8.55213C9.01992 14.2822 9.36775 14.6301 9.36775 15.0979V19.1967C9.36775 19.6645 9.01992 20.0124 8.55213 20.0124H4.45325C3.98546 20.0124 3.63763 19.6645 3.63763 19.1967V15.0979C3.63763 14.6301 3.98546 14.2822 4.45325 14.2822ZM15.0979 14.2822H19.1967C19.6645 14.2822 20.0124 14.6301 20.0124 15.0979V19.1967C20.0124 19.6645 19.6645 20.0124 19.1967 20.0124H15.0979C14.6301 20.0124 14.2822 19.6645 14.2822 19.1967V15.0979C14.2822 14.6301 14.6301 14.2822 15.0979 14.2822Z" fill="#767676" stroke="#767676" stroke-width="0.3"/>
</svg>
