<svg width="24" height="24" viewBox="0 0 24 24" fill="none" xmlns="http://www.w3.org/2000/svg">
<path d="M15.2595 3.66642H15.0595V3.86642V6.4768V6.6768H15.2595H18.5728C19.2397 6.6768 19.8002 7.23841 19.8002 7.91C19.8002 8.5816 19.2397 9.14321 18.5729 9.14321H14.968H14.8172L14.7757 9.28812C14.6564 9.70431 14.4962 10.1099 14.3105 10.5106L14.492 10.5947L14.3105 10.5106C13.762 11.6945 12.861 12.6887 11.794 13.442C10.706 14.2102 9.40004 14.6275 8.07059 14.7291C7.9204 14.7406 7.76901 14.7477 7.61651 14.7517L7.15843 14.764L7.47888 15.0915L12.9642 20.6985L12.9645 20.6988C13.4353 21.178 13.4393 21.9685 12.9655 22.4444L13.0977 22.5761L12.9655 22.4444C12.4954 22.9164 11.6981 22.9204 11.2314 22.4453L11.2304 22.4444L11.2299 22.4439L11.2288 22.4428L3.56381 14.6172L3.56359 14.617C3.32854 14.3778 3.2 14.0647 3.2 13.7283V13.515C3.2 12.8434 3.76048 12.2818 4.4273 12.2818H6.43599C6.57122 12.2818 6.70707 12.2831 6.84427 12.2844L6.84962 12.2844C7.31143 12.2888 7.7889 12.2933 8.26165 12.246L8.26169 12.2465L8.27516 12.2442C8.70581 12.1712 9.12754 12.0554 9.53517 11.8978L9.53532 11.8982L9.54695 11.8928C9.93611 11.713 10.3062 11.4956 10.6531 11.2434L10.6533 11.2437L10.6629 11.2358C10.9915 10.9641 11.2928 10.6616 11.5633 10.3317L11.5636 10.3319L11.5709 10.3218C11.774 10.0402 11.9545 9.74323 12.1108 9.43327L12.2571 9.14321H11.9322H4.4273C3.76048 9.14321 3.2 8.5816 3.2 7.91C3.2 7.2384 3.76048 6.6768 4.4273 6.6768H12.4056H12.6069L12.6056 6.47558C12.6052 6.4037 12.6049 6.33214 12.6049 6.26079V3.86642V3.66642H12.4049H4.42727C3.76046 3.66642 3.2 3.10481 3.2 2.43321C3.2 1.76161 3.76048 1.2 4.4273 1.2H18.5728C19.2396 1.2 19.8001 1.76161 19.8001 2.43321C19.8001 3.10481 19.2396 3.66642 18.5728 3.66642H15.2595Z" fill="#767676" stroke="white" stroke-width="0.4"/>
</svg>
