<svg width="15" height="14" viewBox="0 0 15 14" fill="none" xmlns="http://www.w3.org/2000/svg">
<path d="M4.79766 11.2C4.02766 11.2 3.39766 11.83 3.39766 12.6C3.39766 13.37 4.02766 14 4.79766 14C5.56766 14 6.19766 13.37 6.19766 12.6C6.19766 11.83 5.56766 11.2 4.79766 11.2ZM0.597656 0V1.4H1.99766L4.51766 6.72L3.53766 8.4C3.46766 8.61 3.39766 8.89 3.39766 9.1C3.39766 9.87 4.02766 10.5 4.79766 10.5H13.1977V9.1H5.07766C5.00766 9.1 4.93766 9.03 4.93766 8.96V8.88997L5.56766 7.69997H10.7477C11.3077 7.69997 11.7277 7.41997 11.9377 6.99997L14.4577 2.45C14.5977 2.31 14.5977 2.24 14.5977 2.1C14.5977 1.68 14.3177 1.4 13.8977 1.4H3.53766L2.90766 0H0.597656ZM11.7977 11.2C11.0277 11.2 10.3977 11.83 10.3977 12.6C10.3977 13.37 11.0277 14 11.7977 14C12.5677 14 13.1977 13.37 13.1977 12.6C13.1977 11.83 12.5677 11.2 11.7977 11.2Z" fill="#A2A2A2"/>
</svg>
