<svg width="20" height="20" viewBox="0 0 20 20" fill="none" xmlns="http://www.w3.org/2000/svg">
<path d="M18.97 17.1741L11.7032 9.99984L18.9473 2.82554C19.3788 2.35325 19.3788 1.65606 18.9473 1.25124C18.7202 1.02634 18.425 0.913893 18.1071 0.913893C17.8119 0.913893 17.5394 1.04883 17.335 1.25124L10.0909 8.42554L2.61965 1.00385C2.39256 0.778954 2.09734 0.666504 1.77942 0.666504C1.48421 0.666504 1.2117 0.801444 1.00732 1.00385C0.80294 1.22875 0.666687 1.52112 0.689396 1.81349C0.689396 2.10586 0.825649 2.37574 1.03003 2.57815L8.50124 9.99984L1.00732 17.4215C0.780231 17.6464 0.666687 17.9388 0.666687 18.2537C0.666687 18.546 0.80294 18.8159 1.00732 19.0183C1.16628 19.1533 1.41608 19.3332 1.80213 19.3332C2.21089 19.3332 2.46069 19.1533 2.61965 19.0183L10.1136 11.5966L17.3577 18.7709C17.5166 18.9284 17.7664 19.0858 18.1752 19.0858C18.584 19.0858 18.8338 18.9059 18.9927 18.7709C19.2198 18.546 19.3334 18.2537 19.3334 17.9388C19.3106 17.6464 19.1971 17.3765 18.97 17.1741Z" fill="#999999" fill-opacity="0.79"/>
</svg>
