<svg width="129" height="26" viewBox="0 0 129 26" fill="none" xmlns="http://www.w3.org/2000/svg">
<path d="M1.536 16.06C1.384 16.06 1.264 16.016 1.176 15.928C1.088 15.832 1.044 15.708 1.044 15.556V8.02C1.044 7.876 1.088 7.76 1.176 7.672C1.272 7.584 1.396 7.54 1.548 7.54H4.392C5.28 7.54 5.968 7.756 6.456 8.188C6.952 8.62 7.2 9.232 7.2 10.024C7.2 10.816 6.952 11.432 6.456 11.872C5.96 12.312 5.272 12.532 4.392 12.532H2.028V15.556C2.028 15.708 1.984 15.832 1.896 15.928C1.808 16.016 1.688 16.06 1.536 16.06ZM4.296 11.716C5.584 11.716 6.228 11.152 6.228 10.024C6.228 8.912 5.584 8.356 4.296 8.356H2.028V11.716H4.296ZM11.2309 16.084C10.6789 16.084 10.1909 15.96 9.76688 15.712C9.35088 15.464 9.02688 15.112 8.79488 14.656C8.57088 14.192 8.45888 13.656 8.45888 13.048C8.45888 12.44 8.57088 11.908 8.79488 11.452C9.02688 10.988 9.35088 10.632 9.76688 10.384C10.1909 10.136 10.6789 10.012 11.2309 10.012C11.7829 10.012 12.2709 10.136 12.6949 10.384C13.1189 10.632 13.4429 10.988 13.6669 11.452C13.8989 11.908 14.0149 12.44 14.0149 13.048C14.0149 13.656 13.8989 14.192 13.6669 14.656C13.4429 15.112 13.1189 15.464 12.6949 15.712C12.2709 15.96 11.7829 16.084 11.2309 16.084ZM11.2309 15.28C11.8069 15.28 12.2469 15.092 12.5509 14.716C12.8629 14.332 13.0189 13.776 13.0189 13.048C13.0189 12.336 12.8629 11.788 12.5509 11.404C12.2389 11.012 11.7989 10.816 11.2309 10.816C10.6629 10.816 10.2229 11.012 9.91088 11.404C9.59888 11.788 9.44288 12.336 9.44288 13.048C9.44288 13.768 9.59488 14.32 9.89888 14.704C10.2109 15.088 10.6549 15.28 11.2309 15.28ZM23.7448 10.348C23.8248 10.156 23.9568 10.06 24.1408 10.06C24.2608 10.06 24.3688 10.1 24.4648 10.18C24.5608 10.26 24.6088 10.36 24.6088 10.48C24.6088 10.536 24.5968 10.596 24.5728 10.66L22.5808 15.7C22.5328 15.804 22.4608 15.888 22.3648 15.952C22.2768 16.008 22.1768 16.036 22.0648 16.036C21.9608 16.036 21.8608 16.008 21.7648 15.952C21.6768 15.888 21.6088 15.804 21.5608 15.7L19.9048 11.488L18.2608 15.7C18.2208 15.804 18.1528 15.888 18.0568 15.952C17.9608 16.008 17.8568 16.036 17.7448 16.036C17.6408 16.036 17.5408 16.008 17.4448 15.952C17.3488 15.888 17.2768 15.804 17.2288 15.7L15.2368 10.672C15.2128 10.608 15.2008 10.552 15.2008 10.504C15.2008 10.376 15.2528 10.268 15.3568 10.18C15.4688 10.092 15.5888 10.048 15.7168 10.048C15.9088 10.048 16.0448 10.144 16.1248 10.336L17.7688 14.764L19.4608 10.372C19.5088 10.268 19.5728 10.188 19.6528 10.132C19.7408 10.076 19.8328 10.048 19.9288 10.048C20.0328 10.048 20.1248 10.076 20.2048 10.132C20.2928 10.188 20.3568 10.268 20.3968 10.372L22.0888 14.752L23.7448 10.348ZM30.6681 14.644C30.7561 14.644 30.8321 14.68 30.8961 14.752C30.9601 14.824 30.9921 14.916 30.9921 15.028C30.9921 15.228 30.8521 15.412 30.5721 15.58C30.2841 15.748 29.9801 15.876 29.6601 15.964C29.3401 16.044 29.0281 16.084 28.7241 16.084C27.8201 16.084 27.1041 15.816 26.5761 15.28C26.0561 14.744 25.7961 14.004 25.7961 13.06C25.7961 12.46 25.9121 11.932 26.1441 11.476C26.3761 11.012 26.7001 10.652 27.1161 10.396C27.5401 10.14 28.0201 10.012 28.5561 10.012C29.3161 10.012 29.9201 10.26 30.3681 10.756C30.8161 11.252 31.0401 11.924 31.0401 12.772C31.0401 12.932 31.0081 13.048 30.9441 13.12C30.8801 13.192 30.7761 13.228 30.6321 13.228H26.7681C26.8401 14.604 27.4921 15.292 28.7241 15.292C29.0361 15.292 29.3041 15.252 29.5281 15.172C29.7521 15.084 29.9921 14.968 30.2481 14.824C30.4561 14.704 30.5961 14.644 30.6681 14.644ZM28.5681 10.768C28.0561 10.768 27.6441 10.928 27.3321 11.248C27.0281 11.568 26.8481 12.02 26.7921 12.604H30.1881C30.1721 12.012 30.0241 11.56 29.7441 11.248C29.4641 10.928 29.0721 10.768 28.5681 10.768ZM35.7242 10.036C36.0602 10.012 36.2282 10.148 36.2282 10.444C36.2282 10.572 36.1922 10.676 36.1202 10.756C36.0482 10.828 35.9242 10.872 35.7482 10.888L35.3882 10.924C34.8522 10.972 34.4522 11.164 34.1882 11.5C33.9322 11.828 33.8042 12.216 33.8042 12.664V15.58C33.8042 15.74 33.7602 15.86 33.6722 15.94C33.5842 16.02 33.4682 16.06 33.3242 16.06C33.1802 16.06 33.0602 16.02 32.9642 15.94C32.8762 15.852 32.8322 15.732 32.8322 15.58V10.516C32.8322 10.364 32.8802 10.248 32.9762 10.168C33.0722 10.08 33.1882 10.036 33.3242 10.036C33.4522 10.036 33.5602 10.08 33.6482 10.168C33.7362 10.248 33.7802 10.36 33.7802 10.504V11.176C33.9482 10.824 34.1842 10.556 34.4882 10.372C34.8002 10.188 35.1562 10.08 35.5562 10.048L35.7242 10.036ZM41.8295 14.644C41.9175 14.644 41.9935 14.68 42.0575 14.752C42.1215 14.824 42.1535 14.916 42.1535 15.028C42.1535 15.228 42.0135 15.412 41.7335 15.58C41.4455 15.748 41.1415 15.876 40.8215 15.964C40.5015 16.044 40.1895 16.084 39.8855 16.084C38.9815 16.084 38.2655 15.816 37.7375 15.28C37.2175 14.744 36.9575 14.004 36.9575 13.06C36.9575 12.46 37.0735 11.932 37.3055 11.476C37.5375 11.012 37.8615 10.652 38.2775 10.396C38.7015 10.14 39.1815 10.012 39.7175 10.012C40.4775 10.012 41.0815 10.26 41.5295 10.756C41.9775 11.252 42.2015 11.924 42.2015 12.772C42.2015 12.932 42.1695 13.048 42.1055 13.12C42.0415 13.192 41.9375 13.228 41.7935 13.228H37.9295C38.0015 14.604 38.6535 15.292 39.8855 15.292C40.1975 15.292 40.4655 15.252 40.6895 15.172C40.9135 15.084 41.1535 14.968 41.4095 14.824C41.6175 14.704 41.7575 14.644 41.8295 14.644ZM39.7295 10.768C39.2175 10.768 38.8055 10.928 38.4935 11.248C38.1895 11.568 38.0095 12.02 37.9535 12.604H41.3495C41.3335 12.012 41.1855 11.56 40.9055 11.248C40.6255 10.928 40.2335 10.768 39.7295 10.768ZM48.6856 7.48C48.8376 7.48 48.9576 7.524 49.0456 7.612C49.1336 7.7 49.1776 7.812 49.1776 7.948V15.58C49.1776 15.724 49.1336 15.84 49.0456 15.928C48.9576 16.016 48.8376 16.06 48.6856 16.06C48.5336 16.06 48.4136 16.016 48.3256 15.928C48.2456 15.84 48.2056 15.724 48.2056 15.58V14.932C48.0296 15.3 47.7696 15.584 47.4256 15.784C47.0896 15.984 46.6936 16.084 46.2376 16.084C45.7256 16.084 45.2736 15.956 44.8816 15.7C44.4896 15.444 44.1856 15.088 43.9696 14.632C43.7536 14.168 43.6456 13.632 43.6456 13.024C43.6456 12.424 43.7536 11.896 43.9696 11.44C44.1856 10.984 44.4896 10.632 44.8816 10.384C45.2736 10.136 45.7256 10.012 46.2376 10.012C46.6936 10.012 47.0896 10.112 47.4256 10.312C47.7696 10.512 48.0296 10.796 48.2056 11.164V7.948C48.2056 7.804 48.2456 7.692 48.3256 7.612C48.4136 7.524 48.5336 7.48 48.6856 7.48ZM46.4296 15.28C46.9976 15.28 47.4336 15.088 47.7376 14.704C48.0496 14.312 48.2056 13.76 48.2056 13.048C48.2056 12.336 48.0496 11.788 47.7376 11.404C47.4336 11.02 46.9976 10.828 46.4296 10.828C45.8616 10.828 45.4176 11.02 45.0976 11.404C44.7856 11.788 44.6296 12.328 44.6296 13.024C44.6296 13.736 44.7856 14.292 45.0976 14.692C45.4176 15.084 45.8616 15.28 46.4296 15.28ZM59.7357 11.656C60.2237 11.784 60.5997 12.024 60.8637 12.376C61.1357 12.728 61.2717 13.168 61.2717 13.696C61.2717 14.44 61.0277 15.012 60.5397 15.412C60.0517 15.804 59.3597 16 58.4637 16H55.4397C55.2877 16 55.1637 15.956 55.0677 15.868C54.9797 15.78 54.9357 15.664 54.9357 15.52V8.02C54.9357 7.876 54.9797 7.76 55.0677 7.672C55.1637 7.584 55.2877 7.54 55.4397 7.54H58.3317C59.2037 7.54 59.8797 7.732 60.3597 8.116C60.8397 8.5 61.0797 9.044 61.0797 9.748C61.0797 10.204 60.9597 10.596 60.7197 10.924C60.4877 11.252 60.1597 11.496 59.7357 11.656ZM55.9077 11.296H58.1877C58.8197 11.296 59.2957 11.168 59.6157 10.912C59.9437 10.656 60.1077 10.284 60.1077 9.796C60.1077 8.836 59.4677 8.356 58.1877 8.356H55.9077V11.296ZM58.3677 15.184C59.0317 15.184 59.5197 15.064 59.8317 14.824C60.1517 14.576 60.3117 14.192 60.3117 13.672C60.3117 12.632 59.6637 12.112 58.3677 12.112H55.9077V15.184H58.3677ZM67.4497 10.336C67.5377 10.144 67.6777 10.048 67.8697 10.048C67.9897 10.048 68.0977 10.088 68.1937 10.168C68.2897 10.248 68.3377 10.348 68.3377 10.468C68.3377 10.54 68.3217 10.604 68.2897 10.66L64.9177 17.932C64.8777 18.02 64.8177 18.088 64.7377 18.136C64.6657 18.184 64.5897 18.208 64.5097 18.208C64.3897 18.208 64.2817 18.168 64.1857 18.088C64.0977 18.016 64.0537 17.92 64.0537 17.8C64.0537 17.736 64.0697 17.672 64.1017 17.608L64.9417 15.796L62.5657 10.66C62.5337 10.604 62.5177 10.544 62.5177 10.48C62.5177 10.36 62.5697 10.256 62.6737 10.168C62.7857 10.08 62.9057 10.036 63.0337 10.036C63.1137 10.036 63.1897 10.06 63.2617 10.108C63.3417 10.156 63.4017 10.224 63.4417 10.312L65.4457 14.812L67.4497 10.336Z" fill="#666666"/>
<path fill-rule="evenodd" clip-rule="evenodd" d="M110.308 9.1202C109.119 12.7805 105.191 14.785 101.536 13.5973C101.259 13.5071 100.991 13.4011 100.733 13.2806C100.739 13.2319 100.745 13.1828 100.752 13.1334C100.848 12.3948 100.953 11.5827 101.231 10.8218C101.557 11.0336 101.915 11.2065 102.303 11.3324C104.689 12.1076 107.252 10.7992 108.028 8.41007C108.805 6.0209 107.5 3.45566 105.114 2.68043C102.728 1.90521 100.164 3.21355 99.3881 5.60272C99.0615 6.60788 99.1033 7.64429 99.439 8.5654C98.7703 9.28936 98.3126 10.1402 97.9998 10.9882C96.7818 9.25582 96.3656 6.99006 97.0709 4.81916C98.2603 1.15882 102.188 -0.845631 105.843 0.342034C109.498 1.52976 111.497 5.45986 110.308 9.1202Z" fill="#1D7DEA"/>
<path fill-rule="evenodd" clip-rule="evenodd" d="M97.8295 17.5206C97.6867 17.5206 97.5742 17.4024 97.5869 17.2602C97.6975 16.0213 98.2985 10.6768 100.599 8.12523C102.417 6.10941 102.9 5.88194 103.025 5.93012C103.094 5.95667 103.046 6.0566 103.006 6.11941C102.738 6.54766 101.623 8.38919 100.784 10.763C99.9734 13.0544 100.201 16.2855 100.292 17.2431C100.306 17.3909 100.19 17.5208 100.042 17.5208L97.8295 17.5206Z" fill="#1D7DEA"/>
<path fill-rule="evenodd" clip-rule="evenodd" d="M79.4772 14.523C79.4639 14.6824 79.4572 14.8053 79.4572 14.8916C79.4572 15.0975 79.4688 15.31 79.4921 15.5292C79.5153 15.7484 79.5617 15.9493 79.6314 16.132C79.701 16.3146 79.7988 16.464 79.9249 16.5803C80.0509 16.6965 80.22 16.7546 80.4323 16.7546C80.7109 16.7546 80.9563 16.7065 81.1685 16.6102C81.3808 16.5139 81.5731 16.3263 81.7456 16.0473L83.7653 10.8966H83.9145C83.8614 11.3747 83.82 11.848 83.7901 12.3162C83.7603 12.7845 83.7454 13.2278 83.7454 13.6463C83.7454 14.0913 83.7669 14.5031 83.81 14.8817C83.8531 15.2603 83.9245 15.589 84.0239 15.868C84.1234 16.1469 84.2544 16.3644 84.417 16.5205C84.5794 16.6766 84.78 16.7546 85.0189 16.7546C85.503 16.7546 85.9375 16.6899 86.3222 16.5604C86.7069 16.4309 87.0601 16.2648 87.3818 16.0622C87.5216 15.9742 87.6582 15.8818 87.7917 15.785C87.854 15.8691 87.9207 15.9482 87.9917 16.0224C88.2238 16.2648 88.4908 16.4508 88.7926 16.5803C89.0944 16.7098 89.4045 16.7746 89.7228 16.7746C90.0876 16.7746 90.464 16.6766 90.8521 16.4807C91.2401 16.2847 91.6132 16.0274 91.9713 15.7086L91.7027 16.6351C91.2251 17.0269 90.7526 17.4388 90.2849 17.8705C89.8173 18.3022 89.3696 18.7406 88.9418 19.1855C88.514 19.6305 88.1177 20.0772 87.7529 20.5255C87.3881 20.9738 87.073 21.4055 86.8077 21.8207C86.5424 22.2358 86.3335 22.631 86.1809 23.0063C86.0284 23.3815 85.9521 23.7186 85.9521 24.0175C85.9521 24.4492 86.025 24.7946 86.171 25.0536C86.3169 25.3126 86.501 25.5118 86.7232 25.6514C86.9453 25.7908 87.1874 25.8838 87.4494 25.9303C87.7114 25.9768 87.9552 26.0001 88.1807 26.0001C88.7511 26.0001 89.2718 25.9021 89.7427 25.7061C90.2137 25.5102 90.6398 25.2362 91.0212 24.8842C91.4026 24.5322 91.7442 24.1104 92.046 23.6189C92.3478 23.1274 92.6164 22.5878 92.8518 22C93.0873 21.4122 93.2913 20.7813 93.4637 20.1071C93.6361 19.433 93.7854 18.7406 93.9114 18.0299L94.2298 15.8181C94.4022 14.689 94.5714 13.633 94.7372 12.65C94.8036 12.2316 94.8732 11.8115 94.9462 11.3897C95.0191 10.968 95.0904 10.5678 95.16 10.1892C95.2297 9.81064 95.2944 9.47188 95.3541 9.17302C95.4138 8.8741 95.4635 8.63836 95.5033 8.46567C95.5232 8.38594 95.5331 8.31621 95.5331 8.25643C95.5331 8.06385 95.4635 7.92267 95.3242 7.83299C95.1849 7.74338 95.0125 7.69854 94.8068 7.69854C94.6344 7.69854 94.452 7.72843 94.2596 7.78822C94.0673 7.84794 93.8833 7.93761 93.7075 8.05718C93.5317 8.17675 93.3758 8.32449 93.2399 8.5005C93.1039 8.67652 93.0094 8.87743 92.9563 9.10329L92.2599 12.0323C92.2333 12.2448 92.1753 12.5105 92.0858 12.8293C91.9962 13.1481 91.8785 13.457 91.7326 13.7559C91.5867 14.0547 91.4142 14.3104 91.2152 14.523C91.0162 14.7355 90.794 14.8418 90.5486 14.8418C90.396 14.8418 90.27 14.8036 90.1706 14.7273C90.0711 14.6509 89.9914 14.5512 89.9318 14.4283C89.8721 14.3055 89.8306 14.166 89.8074 14.0099C89.7842 13.8538 89.7726 13.6928 89.7726 13.5267C89.7726 13.2079 89.7991 12.8393 89.8522 12.4209C89.9052 12.0024 89.9766 11.5757 90.0661 11.1407C90.1556 10.7056 90.2584 10.2805 90.3745 9.86542C90.4906 9.45033 90.6083 9.09002 90.7277 8.78448C90.7675 8.68486 90.7957 8.59185 90.8122 8.50551C90.8289 8.41917 90.8371 8.33943 90.8371 8.26643C90.8371 8.02062 90.7543 7.83966 90.5884 7.72343C90.4226 7.60719 90.2236 7.54908 89.9914 7.54908C89.7195 7.54908 89.4409 7.62714 89.1557 7.78321C88.8705 7.93928 88.6517 8.16675 88.499 8.46567C88.2934 8.8841 88.1111 9.29753 87.9518 9.70602C87.7927 10.1145 87.66 10.5379 87.5539 10.9763C87.4478 11.4146 87.3665 11.8762 87.3101 12.3611C87.2538 12.846 87.2256 13.3773 87.2256 13.9551C87.2256 13.9686 87.2257 13.9821 87.2258 13.9955C87.1934 14.0159 87.1608 14.0357 87.1281 14.0547C86.9689 14.1478 86.813 14.2241 86.6605 14.2839C86.5079 14.3437 86.362 14.3736 86.2227 14.3736C86.0901 14.3736 85.9773 14.2607 85.8845 14.0348C85.7916 13.809 85.7451 13.5167 85.7451 13.1581C85.7451 12.6998 85.7683 12.2664 85.8148 11.858C85.8612 11.4495 85.9143 11.046 85.974 10.6475C86.0337 10.249 86.0867 9.84381 86.1332 9.43205C86.1796 9.02022 86.2028 8.58518 86.2028 8.12691C86.2028 7.82805 86.095 7.59725 85.8795 7.43451C85.6639 7.27177 85.4003 7.19043 85.0885 7.19043C84.8099 7.19043 84.5744 7.28177 84.3821 7.4644C84.1897 7.64703 83.9974 7.87122 83.805 8.13686C83.6061 8.40922 83.3922 8.7247 83.1633 9.08334C82.9345 9.44199 82.719 9.78402 82.5166 10.1095C82.3144 10.4349 82.1435 10.7122 82.0043 10.9414C81.865 11.1706 81.7887 11.2951 81.7754 11.315L81.666 11.1954C81.666 11.1822 81.6693 11.1556 81.6759 11.1157C81.6825 11.0759 81.7024 10.9796 81.7356 10.8268C81.782 10.6077 81.8318 10.3934 81.8849 10.1842C81.9379 9.97499 81.9893 9.7608 82.0391 9.54161C82.0888 9.32242 82.1303 9.09662 82.1634 8.86415C82.1966 8.63169 82.2132 8.38594 82.2132 8.12691C82.2132 7.82805 82.1137 7.59725 81.9147 7.43451C81.7157 7.27177 81.4769 7.19043 81.1983 7.19043C80.8999 7.19043 80.6429 7.28011 80.4273 7.4594C80.2118 7.63875 80.0078 7.86455 79.8154 8.13686C79.6165 8.40922 79.4075 8.72303 79.1886 9.07834C78.9698 9.43372 78.7658 9.77408 78.5768 10.0996C78.3877 10.425 78.2286 10.704 78.0992 10.9364C77.9698 11.1689 77.8986 11.2951 77.8853 11.315L77.7758 11.1954C77.8422 10.777 77.9052 10.3719 77.9649 9.97999C77.9914 9.81392 78.0163 9.6429 78.0395 9.46688C78.0627 9.29092 78.0843 9.11984 78.1042 8.95383C78.1241 8.78776 78.139 8.63169 78.1489 8.48556C78.1589 8.33943 78.1639 8.20992 78.1639 8.09702C78.1639 7.89111 78.1572 7.72843 78.1439 7.60886C78.1307 7.48929 78.0892 7.39801 78.0196 7.33489C77.95 7.27177 77.8438 7.23193 77.7012 7.21532C77.5586 7.19871 77.3613 7.19043 77.1093 7.19043C76.9434 7.19043 76.8074 7.20204 76.7013 7.22532C76.5952 7.24855 76.504 7.29505 76.4277 7.36478C76.3515 7.43451 76.2835 7.53246 76.2238 7.6587C76.1641 7.78488 76.1011 7.95423 76.0347 8.16675C75.9684 8.37266 75.8955 8.63836 75.8159 8.96378C75.7363 9.28926 75.6583 9.6479 75.582 10.0398C75.5058 10.4317 75.4328 10.8417 75.3632 11.2702C75.2936 11.6986 75.2322 12.1187 75.1791 12.5304C75.1261 12.9422 75.0829 13.3341 75.0498 13.706C75.0166 14.078 75 14.4001 75 14.6724C75 14.9381 75.0149 15.1955 75.0448 15.4445C75.0747 15.6936 75.1343 15.9161 75.2239 16.1121C75.3134 16.308 75.4411 16.464 75.6069 16.5803C75.7728 16.6965 75.9916 16.7546 76.2636 16.7546C76.4758 16.7546 76.6698 16.7065 76.8456 16.6102C77.0214 16.5139 77.1756 16.3296 77.3083 16.0572C77.7659 15.134 78.139 14.3653 78.4275 13.7509C78.716 13.1365 78.9531 12.6367 79.1389 12.2515C79.3246 11.8662 79.4688 11.574 79.5717 11.3747C79.6745 11.1755 79.7657 11.0261 79.8453 10.9264H79.9945C79.8884 11.5375 79.7988 12.1087 79.7259 12.64C79.6927 12.8658 79.6596 13.0934 79.6264 13.3225C79.5932 13.5516 79.5634 13.7692 79.5368 13.9751C79.5103 14.1809 79.4904 14.3636 79.4772 14.523ZM88.3001 24.0872C88.5787 24.0872 88.8423 24.0059 89.091 23.8431C89.3398 23.6804 89.5686 23.4662 89.7776 23.2005C89.9865 22.9349 90.1772 22.6327 90.3496 22.2939C90.5221 21.9552 90.6746 21.6081 90.8073 21.2528C90.94 20.8975 91.0527 20.5505 91.1456 20.2117C91.2384 19.8729 91.3114 19.5707 91.3645 19.3051C91.1057 19.4778 90.8421 19.6837 90.5735 19.9228C90.3049 20.1619 90.0429 20.4193 89.7875 20.6949C89.5321 20.9706 89.29 21.2545 89.0612 21.5467C88.8324 21.8389 88.6317 22.1196 88.4593 22.3885C88.2868 22.6576 88.1508 22.9083 88.0513 23.1407C87.9518 23.3732 87.9021 23.5658 87.9021 23.7186C87.9021 23.9643 88.0348 24.0872 88.3001 24.0872Z" fill="#1D7DEA"/>
<path d="M106.953 17.6298C106.841 17.6298 106.754 17.5986 106.692 17.5365C106.63 17.4743 106.599 17.3935 106.599 17.294C106.599 17.2194 106.617 17.1448 106.655 17.0702L113.705 5.03978C113.892 4.72888 114.14 4.57349 114.451 4.57349H116.615C116.938 4.57349 117.125 4.72888 117.174 5.03978L119.114 17.0702C119.126 17.1075 119.133 17.151 119.133 17.2008C119.133 17.3127 119.102 17.406 119.039 17.4806C118.952 17.58 118.84 17.6298 118.704 17.6298H117.118C116.807 17.6298 116.633 17.4867 116.596 17.2008L116.186 14.9999H110.646L109.284 17.2754C109.123 17.5116 108.918 17.6298 108.669 17.6298H106.953ZM115.999 12.8549L115.104 7.09148L111.747 12.8549H115.999ZM119.953 17.6298C119.816 17.6298 119.716 17.5862 119.654 17.4992C119.604 17.437 119.58 17.3624 119.58 17.2754C119.58 17.2505 119.586 17.2194 119.598 17.1821L121.799 6.86766H118.348C118.212 6.86766 118.106 6.82412 118.031 6.7371C117.969 6.65002 117.951 6.54434 117.975 6.42002L118.274 5.03978C118.299 4.90298 118.361 4.79107 118.46 4.70405C118.56 4.61697 118.678 4.57349 118.815 4.57349H128.327C128.464 4.57349 128.57 4.61697 128.644 4.70405C128.694 4.76618 128.719 4.84079 128.719 4.92787C128.719 4.96518 128.713 5.00248 128.7 5.03978L128.402 6.42002C128.377 6.55676 128.309 6.66867 128.197 6.75575C128.097 6.83036 127.985 6.86766 127.861 6.86766H124.41L122.209 17.1821C122.185 17.3189 122.122 17.4308 122.023 17.5179C121.923 17.5925 121.805 17.6298 121.669 17.6298H119.953Z" fill="#1D7DEA"/>
</svg>
