<svg width="30" height="41" viewBox="0 0 30 41" fill="none" xmlns="http://www.w3.org/2000/svg">
<path d="M10.8388 27.0492V27.4242H10.4638H5.5811C2.70651 27.4242 0.375898 29.7549 0.375898 32.6294V40.6247H28.9219V32.6294C28.9219 29.7548 26.5912 27.4242 23.7167 27.4242H18.834H18.459V27.0492V20.449H10.8388V27.0492Z" fill="#FEC9A3" stroke="black" stroke-width="0.75"/>
<path d="M21.5539 14.8166C22.5026 14.8166 23.2715 14.0477 23.2715 13.099C23.2715 12.1503 22.5026 11.3814 21.5539 11.3814H21.2313V14.8166H21.5539Z" fill="#F7BB8F" stroke="black" stroke-width="0.75"/>
<path d="M7.67257 27.0493H21.623V36.1171H7.67257V27.0493Z" fill="#C7C7C7"/>
<path d="M13.4865 32.7223L13.4826 32.732L13.478 32.7413L12.2638 35.1696H17.0349L15.8208 32.7413L15.8162 32.732L15.8123 32.7223L14.6494 29.815L13.4865 32.7223Z" fill="#4398D1" stroke="black" stroke-width="0.5"/>
<path d="M13.283 28.4754C13.2744 28.5247 13.2661 28.5705 13.2585 28.611L14.6502 29.5388L16.051 28.6049L15.8334 27.2992H13.4704L13.4644 27.3385C13.4414 27.4902 13.4102 27.6935 13.3778 27.899C13.3454 28.1043 13.3115 28.313 13.283 28.4754Z" fill="#4398D1" stroke="black" stroke-width="0.5"/>
<path d="M9.07105 27.4243L11.1939 30.6085L13.8475 27.4243H9.07105ZM15.4487 27.4243L18.1023 30.6085L20.2251 27.4243H15.4487Z" fill="#E0E0E0" stroke="black" stroke-width="0.75"/>
<path d="M8.06445 14.8166V11.3814H7.7419C6.7938 11.3814 6.02431 12.1503 6.02431 13.099C6.02431 14.0477 6.79324 14.8166 7.7419 14.8166H8.06445Z" fill="#F7BB8F" stroke="black" stroke-width="0.75"/>
<path d="M0.375898 32.6295V40.6247H28.9219V32.6295C28.9219 29.7549 26.5912 27.4243 23.7167 27.4243H21.1231L14.9572 36.3305L14.6489 36.7759L14.3406 36.3305L8.17468 27.4243H5.5811C2.70658 27.4243 0.375898 29.7549 0.375898 32.6295Z" fill="#75462E" stroke="black" stroke-width="0.75"/>
<path d="M23 35H24V41H23V35Z" fill="black"/>
<path d="M8.1023 26.6411C7.88536 26.7836 7.82442 27.0759 7.96598 27.2935L7.98308 27.3182L7.98378 27.3192L14.2607 36.386C14.2607 36.386 14.2607 36.386 14.2608 36.3861C14.3493 36.5138 14.4944 36.5897 14.6491 36.5897C14.8039 36.5897 14.949 36.5138 15.0375 36.3861C15.0375 36.386 15.0375 36.386 15.0375 36.386L21.3136 27.3205C21.4554 27.1032 21.395 26.8116 21.177 26.6682L21.3007 26.4802L21.1771 26.6683C20.9668 26.5301 20.6853 26.5807 20.5368 26.783L14.8341 35.0197L14.6491 35.2869L14.4641 35.0197L8.7598 26.7806L8.75975 26.7806L8.75695 26.7763C8.61313 26.5582 8.31995 26.4979 8.10235 26.641L8.1023 26.6411Z" fill="#3B2317" stroke="black" stroke-width="0.45"/>
<path d="M21.9467 16.3364H21.9467C21.9952 20.3771 18.8193 23.7223 14.7817 23.8844C10.754 23.9578 7.42852 20.7532 7.3525 16.7251C7.35179 16.6775 7.35119 16.6313 7.35119 16.5864V8.91364C7.35119 4.88328 10.6186 1.61585 14.649 1.61584L21.9467 16.3364ZM21.9467 16.3364V16.3319M21.9467 16.3364V16.3319M21.9467 16.3319V8.91372M21.9467 16.3319V8.91372M21.9467 8.91372C21.9467 4.88335 18.68 1.616 14.649 1.61584L21.9467 8.91372Z" fill="#FEC9A3" stroke="black" stroke-width="0.75"/>
<path d="M18.833 19.1267H21.3635C21.2359 17.4557 19.8397 16.1391 18.1354 16.1391H15.6049C15.7325 17.8101 17.1293 19.1267 18.833 19.1267Z" fill="#707070" stroke="black" stroke-width="0.5"/>
<path d="M9.32754 19.127H11.8581C13.5618 19.127 14.9585 17.8104 15.0862 16.1393H12.5556C10.852 16.1393 9.45521 17.4559 9.32754 19.127Z" fill="#707070" stroke="black" stroke-width="0.5"/>
<path d="M18.8335 13.0995C18.063 13.0995 17.4385 12.4749 17.4385 11.7045C17.4385 10.934 18.063 10.3094 18.8335 10.3094C19.6039 10.3094 20.2285 10.934 20.2285 11.7045C20.2285 12.4749 19.6039 13.0995 18.8335 13.0995Z" fill="black"/>
<path d="M11.1597 13.0987C10.3892 13.0987 9.76462 12.4741 9.76462 11.7036C9.76462 10.9332 10.3892 10.3086 11.1597 10.3086C11.9301 10.3086 12.5547 10.9332 12.5547 11.7036C12.5547 12.4741 11.9301 13.0987 11.1597 13.0987Z" fill="black"/>
<path d="M10.4455 1.74459L10.3791 1.78315L10.3028 1.7925C8.77204 1.98022 7.83259 2.62734 7.25471 3.46657C6.66646 4.32085 6.42628 5.41355 6.38253 6.52429C6.33893 7.63125 6.49174 8.72184 6.65789 9.54091C6.7252 9.87273 6.79429 10.158 6.85245 10.3793C8.27697 9.22996 9.03882 7.51949 9.4429 6.00551C9.66256 5.18253 9.77264 4.43167 9.82767 3.88669C9.85515 3.61454 9.86881 3.39464 9.8756 3.24386C9.87899 3.1685 9.88066 3.11048 9.88149 3.07192L9.88219 3.02895L9.88227 3.01893L9.88228 3.01687V3.01681V3.01664L9.88228 3.01659V1.88976L10.5575 2.79214C12.2841 5.0995 15.6081 6.47077 18.5812 7.26088C20.0555 7.6527 21.4195 7.89557 22.4153 8.04042C22.9128 8.1128 23.3176 8.16059 23.5973 8.19022C23.5981 8.1903 23.5988 8.19038 23.5995 8.19046C23.3109 4.69358 21.1305 1.74485 18.104 0.736342C15.5281 0.0193401 12.8018 0.376509 10.4455 1.74459Z" fill="#707070" stroke="black" stroke-width="0.75"/>
<path d="M9.76566 8.21619H20.2285V9.61122H9.76566V8.21619Z" fill="black"/>
<path d="M13.9499 16.5865H16.7399C17.125 16.5865 17.4375 16.2741 17.4375 15.889C17.4375 15.7948 17.418 15.7014 17.381 15.6142L15.2884 10.7315L14.0063 11.2812L15.6818 15.1915H13.9499V16.5865Z" fill="black"/>
<path d="M5 35H6V41H5V35Z" fill="black"/>
</svg>
