<?xml version="1.0" encoding="UTF-8" standalone="no"?>
<svg width="119px" height="34px" viewBox="0 0 119 34" version="1.1" xmlns="http://www.w3.org/2000/svg" xmlns:xlink="http://www.w3.org/1999/xlink">
    <!-- Generator: Sketch 3.7.2 (28276) - http://www.bohemiancoding.com/sketch -->
    <title>Logo</title>
    <desc>Created with Sketch.</desc>
    <defs>
        <path d="M0.0041433734,0.00307397626 L33.385024,0.00307397626 L33.385024,33.7778292 L0.0041433734,33.7778292 L14.9999997,18.4999993" id="path-1"></path>
    </defs>
    <g id="Page-1" stroke="none" stroke-width="1" fill="none" fill-rule="evenodd">
        <g id="Artboard-5" transform="translate(-90.000000, -38.000000)">
            <g id="Logo" transform="translate(90.000000, 38.000000)">
                <g id="Group" transform="translate(45.716729, 2.152918)" fill="#21CE3E">
                    <polyline id="Fill-10" points="16.1956017 26.6500134 0 26.6500134 0 25.2763092 8.43161457 11.0583568 0 11.0583568 0 6.23104949 16.1956017 6.23104949 16.1956017 7.72369176 7.74339618 21.8205822 16.1956017 21.8205822 16.1956017 26.6500134"></polyline>
                    <path d="M31.5116546,11.815525 C30.6998906,11.201568 29.7557132,10.895879 28.6711568,10.895879 C27.5918609,10.895879 26.6442267,11.201568 25.8327632,11.815525 C25.0238549,12.4306957 24.6162444,13.2816186 24.6162444,14.3716313 L32.7253177,14.3716313 C32.7253177,13.2816186 32.3211641,12.4306957 31.5116546,11.815525 L31.5116546,11.815525 Z M18.5383097,16.4186098 C18.5383097,13.4204302 19.4838397,10.9638436 21.3741482,9.0550698 C23.2673124,7.14568921 25.6983961,6.18872332 28.6711568,6.18872332 C31.643617,6.18872332 34.0108237,7.14568921 35.7673662,9.0550698 C37.5243596,10.9638436 38.4021049,13.4204302 38.4021049,16.4186098 L38.4021049,18.4649816 L24.4154452,18.4649816 C24.5489106,19.5528704 25.0238549,20.4074342 25.8327632,21.0254873 C26.6442267,21.6350449 27.5918609,21.9436163 28.6711568,21.9436163 C30.5632689,21.9436163 32.2535296,21.3971688 33.7407367,20.3063976 L36.9817808,23.5809868 C35.495175,25.6273585 32.7253177,26.6500134 28.6711568,26.6500134 C25.6983961,26.6500134 23.2673124,25.6938061 21.3741482,23.7836669 C19.4838397,21.8756517 18.5383097,19.4196719 18.5383097,16.4186098 L18.5383097,16.4186098 Z" id="Fill-11"></path>
                    <path d="M53.1727233,6.76171954 C54.2243642,7.22579035 55.210024,7.91484221 56.1303038,8.82735804 L52.96486,12.4306957 C52.0487885,11.3255123 50.9000545,10.7719346 49.5191088,10.7719346 C48.1552971,10.7719346 47.2420814,11.0290774 46.7865256,11.5397222 C46.3281141,12.050367 46.3281141,12.5159549 46.7865256,12.9320863 C47.2420814,13.3460939 48.1552971,13.6906199 49.5191088,13.9641471 C51.5386743,14.1554492 53.182643,14.7340586 54.4655939,15.7052849 C55.7500477,16.6728703 56.3907717,18.3568147 56.3907717,20.7575733 C56.3907717,22.6936543 55.632965,24.1934268 54.1215598,25.2591664 C52.6086517,26.3227821 50.8474499,26.8520868 48.8307401,26.8520868 C46.9141293,26.8520868 45.3147994,26.5770425 44.0368083,26.0277125 C42.7637772,25.4732245 41.6653932,24.7341095 40.7430093,23.8065747 L43.884255,20.2276618 C44.8060378,21.329811 46.2301193,21.9695582 48.1610085,22.1449311 C49.7178038,22.1449311 50.7190947,21.8927946 51.173899,21.3792674 C51.6279518,20.871505 51.6933318,20.3566125 51.3754497,19.8486984 C51.0589204,19.3351712 49.9866885,18.98928 48.1610085,18.8123899 C46.5119296,18.6210878 45.0011257,18.1110498 43.6273943,17.2768147 C42.2622299,16.4480409 41.5738613,14.8787868 41.5738613,12.5733 C41.5738613,10.4582051 42.3572188,8.84814185 43.9168699,7.73355269 C45.4793766,6.62351473 47.082464,6.06705454 48.7307914,6.06705454 C50.635228,6.06705454 52.1140182,6.29977263 53.1727233,6.76171954" id="Fill-12"></path>
                    <path d="M69.2746888,26.6500134 C66.9776716,26.6500134 65.1527431,26.0017707 63.802308,24.7048301 C62.4527748,23.4119855 61.7743258,21.7403293 61.7743258,19.6897098 L61.7743258,10.832769 L58.7324276,10.832769 L58.7324276,6.21163103 L61.7743258,6.21163103 L61.7743258,0.666599261 L67.4738081,0.0527939333 L67.4738081,6.21163103 L70.5136021,6.21163103 L70.5136021,10.832769 L67.4738081,10.832769 L67.4738081,18.8753482 C67.4738081,19.9639955 67.6973025,20.7333002 68.1500026,21.1765872 C68.6005985,21.6213913 69.1888681,21.8419728 69.9005331,21.8419728 C70.117715,21.8419728 70.6285807,21.7509488 71.4226095,21.5776998 L72.6218439,25.6866759 C71.648208,26.3283952 70.534193,26.6500134 69.2746888,26.6500134" id="Fill-14"></path>
                </g>
                <g id="Group">
                    <path d="M31.0761292,25.4581125 C32.5412951,22.9456958 33.385024,20.0187814 33.385024,16.8906612 C33.385024,12.9177565 32.0257903,9.26845761 29.7566719,6.38436924 L18.3467884,25.4581125 L31.0761292,25.4581125" id="Fill-1" fill="#21CE3E"></path>
                    <path d="M27.9152877,4.38956824 C24.9510493,1.66378965 21.0136706,0.00307397626 16.6930299,0.00307397626 C11.7196698,0.00307397626 7.25718756,2.20536838 4.19917083,5.69600815 L19.5960845,5.69600815 L5.54017363,29.4533734 C8.49640149,32.140867 12.4051218,33.7778292 16.6930299,33.7778292 C21.6656995,33.7778292 26.1280436,31.5755348 29.1858532,28.0848951 L13.7403239,28.0848951 L27.9152877,4.38956824" id="Fill-2" fill="#21CE3E"></path>
                    <path d="M2.30889483,8.32314004 C0.844074218,10.8351376 0,13.7627506 0,16.8906612 C0,20.8971002 1.38216031,24.5758114 3.68656648,27.4713574 L15.0157233,8.32314004 L2.30889483,8.32314004" id="Fill-4" fill="#21CE3E"></path>
                    <path d="M5.54017363,29.4533734 L19.5960845,5.69600815 L4.19917083,5.69600815 C3.48941096,6.50607076 2.85582012,7.38508824 2.30889483,8.32314004 L15.0157233,8.32314004 L3.68656648,27.4713574 C4.25123922,28.1812363 4.87067354,28.8445165 5.54017363,29.4533734" id="Fill-6" fill="#FFFFFF"></path>
                    <mask id="mask-2" fill="white">
                        <use xlink:href="#path-1"></use>
                    </mask>
                    <g id="Clip-8"></g>
                    <path d="M27.9152877,4.38956824 L13.7403239,28.0848951 L29.1858532,28.0848951 C29.8958893,27.2748325 30.5290658,26.3954657 31.0761292,25.4581125 L18.3467884,25.4581125 L29.7566719,6.38436924 C29.1952448,5.67127661 28.5816803,5.00170869 27.9152877,4.38956824" id="Fill-7" fill="#FFFFFF" mask="url(#mask-2)"></path>
                </g>
            </g>
        </g>
    </g>
</svg>