<svg width="14" height="18" viewBox="0 0 14 18" fill="none" xmlns="http://www.w3.org/2000/svg">
<path d="M10.6629 3.29576C10.3466 3.29576 10.0902 3.05873 10.0902 2.76635V0H0.496302C0.222191 0 0 0.205412 0 0.458824V17.5412C0 17.7946 0.222191 18 0.496302 18H13.1589C13.433 18 13.6552 17.7946 13.6552 17.5412V3.29576H10.6629Z" fill="#DA3019"/>
<path d="M6.82818 3.77344L6.17383 5.11214H7.48254L6.82818 3.77344Z" fill="black"/>
<path d="M11.2363 0.749023V2.23738H12.8459L11.2363 0.749023Z" fill="white"/>
<path d="M6.73654 10.2802C6.65749 9.64901 6.57844 9.11087 6.49939 8.66574C6.42752 8.21397 6.35925 7.82531 6.29458 7.49977C6.2299 7.17423 6.16881 6.89519 6.11132 6.66266C6.05383 6.42349 6.00353 6.20093 5.96041 5.99497C5.91729 5.78237 5.88495 5.56977 5.86339 5.35718C5.84183 5.13793 5.83105 4.88547 5.83105 4.59979C5.83105 4.34069 5.86699 4.10816 5.93885 3.90221C6.0179 3.69625 6.11851 3.52351 6.24068 3.384C6.36285 3.23784 6.49939 3.12821 6.6503 3.05513C6.8084 2.97541 6.9701 2.93555 7.13538 2.93555C7.29348 2.93555 7.45158 2.97541 7.60968 3.05513C7.76778 3.12821 7.90433 3.23784 8.01931 3.384C8.14148 3.52351 8.23849 3.69625 8.31036 3.90221C8.38941 4.10816 8.42893 4.34069 8.42893 4.59979C8.42893 4.88547 8.41815 5.13793 8.39659 5.35718C8.37503 5.56977 8.34269 5.78237 8.29958 5.99497C8.25646 6.20093 8.20615 6.42349 8.14866 6.66266C8.09836 6.89519 8.04087 7.17423 7.97619 7.49977C7.91151 7.82531 7.83965 8.21397 7.7606 8.66574C7.68873 9.11087 7.61687 9.64901 7.54501 10.2802H6.73654ZM6.04665 12.064C6.04665 12.2035 6.07539 12.3364 6.13288 12.4626C6.19037 12.5822 6.26583 12.6885 6.35925 12.7815C6.45986 12.8679 6.57485 12.9343 6.7042 12.9808C6.84074 13.034 6.98447 13.0605 7.13538 13.0605C7.2863 13.0605 7.43002 13.034 7.56657 12.9808C7.70311 12.9343 7.81809 12.8679 7.91151 12.7815C8.01212 12.6885 8.09117 12.5822 8.14866 12.4626C8.20615 12.3364 8.2349 12.2035 8.2349 12.064C8.2349 11.9245 8.20615 11.7949 8.14866 11.6753C8.09117 11.5491 8.01212 11.4395 7.91151 11.3465C7.81809 11.2535 7.70311 11.1804 7.56657 11.1272C7.43002 11.0741 7.2863 11.0475 7.13538 11.0475C6.98447 11.0475 6.84074 11.0741 6.7042 11.1272C6.57485 11.1804 6.45986 11.2535 6.35925 11.3465C6.26583 11.4395 6.19037 11.5491 6.13288 11.6753C6.07539 11.7949 6.04665 11.9245 6.04665 12.064Z" fill="white"/>
<rect x="1.77002" y="14.7656" width="10.2675" height="0.457031" rx="0.228516" fill="white"/>
<rect x="1.77002" y="16.207" width="10.2675" height="0.457031" rx="0.228516" fill="white"/>
</svg>
