<svg width="11" height="18" viewBox="0 0 11 18" fill="none" xmlns="http://www.w3.org/2000/svg">
<path d="M8.08992 9.39959L1.10464 2.49755C0.978772 2.37623 0.908203 2.21265 0.908203 2.04222C0.908203 1.8718 0.978772 1.70822 1.10464 1.5869C1.16653 1.52713 1.24031 1.47967 1.32167 1.44727C1.40304 1.41488 1.49037 1.39819 1.57857 1.39819C1.66678 1.39819 1.75411 1.41488 1.83548 1.44727C1.91684 1.47967 1.99062 1.52713 2.05251 1.5869L9.71177 8.94286C9.83763 9.06419 9.9082 9.22776 9.9082 9.39819C9.9082 9.56862 9.83763 9.7322 9.71177 9.85352L2.05251 17.2095C1.99062 17.2693 1.91684 17.3167 1.83548 17.3491C1.75411 17.3815 1.66678 17.3982 1.57857 17.3982C1.49037 17.3982 1.40304 17.3815 1.32167 17.3491C1.24031 17.3167 1.16653 17.2693 1.10464 17.2095C0.978772 17.0882 0.908203 16.9246 0.908203 16.7542C0.908203 16.5837 0.978772 16.4202 1.10464 16.2988L8.08992 9.39959Z" fill="#999999" stroke="#999999"/>
</svg>
