<svg width="80" height="80" viewBox="0 0 80 80" fill="none" xmlns="http://www.w3.org/2000/svg">
<path d="M19.3103 9.27637H68.9655C74.5074 9.27637 79 13.769 79 19.3108V68.966C79 74.5079 74.5074 79.0005 68.9655 79.0005H11.0345C5.49259 79.0005 1 74.5079 1 68.966V19.3108C1 13.769 5.49259 9.27637 11.0345 9.27637H19.3103Z" fill="white" stroke="#DD0C0C" stroke-width="2"/>
<path d="M80 19.3108V22.0695H0V19.3108C0 13.2167 4.94031 8.27637 11.0345 8.27637H68.9655C75.0597 8.27637 80 13.2167 80 19.3108Z" fill="#DD0C0C"/>
<path d="M19.3105 4.13793C19.3105 1.85262 17.4579 0 15.1726 0C12.8873 0 11.0347 1.85262 11.0347 4.13793V12.4138C11.0347 14.6991 12.8873 16.5517 15.1726 16.5517C17.4579 16.5517 19.3105 14.6991 19.3105 12.4138V4.13793Z" fill="#95A5A5"/>
<path d="M35.8628 4.13793C35.8628 1.85262 34.0102 0 31.7248 0C29.4395 0 27.5869 1.85262 27.5869 4.13793V12.4138C27.5869 14.6991 29.4395 16.5517 31.7248 16.5517C34.0102 16.5517 35.8628 14.6991 35.8628 12.4138V4.13793Z" fill="#95A5A5"/>
<path d="M52.414 4.13793C52.414 1.85262 50.5614 0 48.2761 0C45.9908 0 44.1382 1.85262 44.1382 4.13793V12.4138C44.1382 14.6991 45.9908 16.5517 48.2761 16.5517C50.5614 16.5517 52.414 14.6991 52.414 12.4138V4.13793Z" fill="#95A5A5"/>
<path d="M68.9658 4.13793C68.9658 1.85262 67.1132 0 64.8279 0C62.5426 0 60.6899 1.85262 60.6899 4.13793V12.4138C60.6899 14.6991 62.5426 16.5517 64.8279 16.5517C67.1132 16.5517 68.9658 14.6991 68.9658 12.4138V4.13793Z" fill="#95A5A5"/>
<path d="M28.0167 60.377H51.9834C52.3727 60.3769 52.7552 60.2758 53.0938 60.0837C53.4323 59.8915 53.7152 59.6148 53.9147 59.2806C54.1143 58.9464 54.2238 58.5661 54.2324 58.177C54.2411 57.7878 54.1486 57.4031 53.9641 57.0603L41.9815 34.8064C41.1314 33.2286 38.8687 33.2286 38.0186 34.8064L26.036 57.0603C25.8515 57.4031 25.759 57.7878 25.7676 58.177C25.7763 58.5661 25.8858 58.9464 26.0854 59.2806C26.2849 59.6148 26.5678 59.8915 26.9063 60.0837C27.2448 60.2758 27.6274 60.3769 28.0167 60.377V60.377Z" stroke="#DD0C0C" stroke-width="1.5" stroke-linecap="round" stroke-linejoin="round"/>
<path d="M39.5965 42.7387L40.0001 51.3168L40.4029 42.7422C40.4054 42.6874 40.3967 42.6326 40.3773 42.5813C40.3579 42.53 40.3283 42.4831 40.2902 42.4436C40.2521 42.4042 40.2063 42.3729 40.1557 42.3517C40.1051 42.3305 40.0507 42.3198 39.9958 42.3203V42.3203C39.9419 42.3209 39.8887 42.3322 39.8392 42.3536C39.7897 42.3751 39.7451 42.4062 39.7079 42.4452C39.6706 42.4842 39.6416 42.5303 39.6225 42.5807C39.6033 42.6311 39.5945 42.6848 39.5965 42.7387V42.7387Z" stroke="#DD0C0C" stroke-width="1.5" stroke-linecap="round" stroke-linejoin="round"/>
<path d="M40 56.9316C39.7219 56.9316 39.45 56.8492 39.2187 56.6946C38.9875 56.5401 38.8072 56.3205 38.7008 56.0635C38.5944 55.8066 38.5665 55.5238 38.6208 55.251C38.675 54.9783 38.809 54.7277 39.0056 54.531C39.2023 54.3344 39.4529 54.2004 39.7257 54.1462C39.9984 54.0919 40.2812 54.1197 40.5381 54.2262C40.7951 54.3326 41.0147 54.5129 41.1693 54.7441C41.3238 54.9754 41.4062 55.2473 41.4062 55.5254C41.4062 55.8984 41.2581 56.256 40.9944 56.5198C40.7306 56.7835 40.373 56.9316 40 56.9316Z" fill="#DD0C0C"/>
</svg>
