<svg width="32" height="32" viewBox="0 0 32 32" fill="none" xmlns="http://www.w3.org/2000/svg">
<path d="M15.5 10.5C15.5 14.366 12.366 17.5 8.5 17.5C4.63401 17.5 1.5 14.366 1.5 10.5C1.5 6.63401 4.63401 3.5 8.5 3.5C12.366 3.5 15.5 6.63401 15.5 10.5Z" stroke="#E42121"/>
<path d="M8 6H9V10H8V6Z" fill="#E42121"/>
<path d="M11 12.2173L10.2174 13L8 10.7827L8.78263 10L11 12.2173Z" fill="#E42121"/>
<path d="M8 11C8.55228 11 9 10.5523 9 10C9 9.44772 8.55228 9 8 9C7.44772 9 7 9.44772 7 10C7 10.5523 7.44772 11 8 11Z" fill="#E42121"/>
<path d="M8.5 11C8.77614 11 9 10.7761 9 10.5C9 10.2239 8.77614 10 8.5 10C8.22386 10 8 10.2239 8 10.5C8 10.7761 8.22386 11 8.5 11Z" fill="#E42121"/>
<path d="M3.677 27.5895L3.67704 27.5895L3.68037 27.5839L16.4235 6.12657C16.951 5.26806 18.145 5.32173 18.5638 6.10414L18.569 6.11395L18.5747 6.12352L31.3196 27.5839L31.3196 27.5839L31.323 27.5895C31.8217 28.4048 31.1927 29.5 30.2449 29.5H4.75508C3.80726 29.5 3.17833 28.4048 3.677 27.5895Z" fill="white" stroke="#E42121"/>
<path d="M16 25.6458C16 25.4653 16 25.2847 16.0968 25.1042C16.1935 24.9236 16.2903 24.8333 16.3871 24.6528C16.4839 24.4722 16.6774 24.4722 16.871 24.3819C17.0645 24.2917 17.2581 24.2917 17.4516 24.2917C17.6452 24.2917 17.9355 24.2917 18.129 24.3819C18.3226 24.4722 18.5161 24.5625 18.6129 24.6528C18.7097 24.7431 18.8065 24.9236 18.9032 25.1042C19 25.2847 19 25.4653 19 25.6458C19 25.8264 19 26.0069 18.9032 26.1875C18.8065 26.3681 18.7097 26.4583 18.6129 26.6389C18.5161 26.8194 18.3226 26.8194 18.129 26.9097C17.9355 27 17.7419 27 17.4516 27C17.1613 27 16.9677 27 16.871 26.9097C16.7742 26.8194 16.4839 26.7292 16.3871 26.6389C16.2903 26.5486 16.1935 26.3681 16.0968 26.1875C16 26.0069 16 25.8264 16 25.6458ZM18.7097 22.8472H16.4839L16.0968 14H19L18.7097 22.8472Z" fill="#DB1C28"/>
</svg>
