<svg width="11" height="18" viewBox="0 0 11 18" fill="none" xmlns="http://www.w3.org/2000/svg">
<path d="M3.9776 3.84099L1.92062 5.89797C1.48128 6.33731 0.768971 6.33731 0.329632 5.89797C-0.109708 5.45863 -0.109708 4.74632 0.329632 4.30698L4.30711 0.329505C4.52678 0.109835 4.81469 0 5.1026 0C5.39052 0 5.67843 0.109835 5.8981 0.329505L9.87557 4.30698C10.3149 4.74632 10.3149 5.45863 9.87557 5.89797C9.43623 6.33731 8.72392 6.33731 8.28458 5.89797L6.2276 3.84099L6.2276 16.875C6.2276 17.4963 5.72392 18 5.1026 18C4.48128 18 3.9776 17.4963 3.9776 16.875L3.9776 3.84099Z" fill="#93DF41"/>
</svg>
