<svg width="261" height="174" viewBox="0 0 261 174" fill="none" xmlns="http://www.w3.org/2000/svg">
<path opacity="0.81" d="M17.9672 83.6732C14.0731 80.6387 13.3771 75.0254 16.4117 71.1313C19.4462 67.2372 27.1684 63.8372 31.059 66.8718C34.9531 69.9064 30.4082 76.1669 29.6322 81.0424C28.5499 87.8388 21.8579 86.7078 17.9672 83.6732Z" fill="#ECF1F7"/>
<path opacity="0.47" d="M238.14 108.287C241.536 109.338 243.44 112.943 242.392 116.34C241.341 119.736 237.009 124.003 233.609 122.952C230.212 121.901 231.674 116.521 230.95 113.041C229.944 108.183 234.743 107.236 238.14 108.287Z" fill="#ECF1F7"/>
<path opacity="0.47" d="M232.029 31.9361C230.543 36.7455 225.442 39.439 220.632 37.953C215.823 36.4671 209.789 30.3318 211.275 25.5225C212.76 20.7131 220.375 22.7837 225.302 21.7606C232.175 20.3373 233.515 27.1268 232.029 31.9361Z" fill="#ECF1F7"/>
<path d="M216.407 135.25C218.273 125.718 215.339 117.599 214.626 108.255C213.95 99.4126 216.988 91.9654 218.687 83.5369C220.197 76.0375 219.72 67.5463 217.865 60.1826C215.332 50.1289 209.468 40.8268 200.998 35.1718C187.802 26.357 170.169 27.4427 155.552 33.5675C149.431 36.1323 143.498 39.5392 136.945 40.4162C127.389 41.6933 118.101 37.4338 108.802 34.8899C96.1419 31.4273 82.2359 31.2011 70.2716 36.7517C56.7031 43.0436 47.0322 57.1898 48.1214 72.7454C48.6156 79.7924 51.2082 86.7419 50.2651 93.7472C49.3116 100.85 45.2365 106.804 43.0754 113.496C39.8703 123.407 39.7903 138.35 45.8107 147.555H211.782C213.985 143.786 215.558 139.596 216.407 135.25Z" fill="#ECF1F7"/>
<path opacity="0.47" d="M237.632 74.2874C236.63 63.7847 231.754 53.2716 223.294 45.7653C210.115 34.069 190.158 31.1458 172.657 33.8776C165.328 35.0225 158.058 37.0409 150.555 36.4215C139.614 35.5132 129.982 29.204 120.022 24.5825C106.467 18.2907 90.922 14.9186 76.5009 17.6852C60.1484 20.8206 46.726 32.597 45.1043 48.2013C44.3701 55.2726 51.7163 67.7171 49.3847 74.4196C47.0183 81.2195 29.7784 102.054 30.1786 117.888C30.5962 134.296 34.8627 138.939 40.81 147.555H45.8073H211.779H222.515C226.256 138.831 229.496 132.222 225.222 121.027C221.972 112.508 230.846 105.479 234.288 97.5407C237.35 90.4728 238.366 81.9782 237.632 74.2874Z" fill="#ECF1F7"/>
<path opacity="0.58" d="M242.611 96.0374C243.494 96.0374 244.209 95.3223 244.209 94.4401C244.209 93.5579 243.494 92.8428 242.611 92.8428C241.729 92.8428 241.014 93.5579 241.014 94.4401C241.014 95.3223 241.729 96.0374 242.611 96.0374Z" fill="#3E479B"/>
<path opacity="0.58" d="M122.176 14.6785C123.058 14.6785 123.773 13.9634 123.773 13.0812C123.773 12.199 123.058 11.4839 122.176 11.4839C121.294 11.4839 120.578 12.199 120.578 13.0812C120.578 13.9634 121.294 14.6785 122.176 14.6785Z" fill="#3E479B"/>
<path opacity="0.58" d="M232.485 138.849C232.485 139.534 231.928 140.091 231.243 140.091C230.557 140.091 230 139.534 230 138.849C230 138.163 230.557 137.606 231.243 137.606C231.928 137.606 232.485 138.16 232.485 138.849Z" fill="#EF929C"/>
<path opacity="0.58" d="M38.3325 40.6151C39.2147 40.6151 39.9298 39.8999 39.9298 39.0177C39.9298 38.1356 39.2147 37.4204 38.3325 37.4204C37.4503 37.4204 36.7352 38.1356 36.7352 39.0177C36.7352 39.8999 37.4503 40.6151 38.3325 40.6151Z" fill="#EF929C"/>
<path opacity="0.58" d="M26.253 100.301C26.9392 100.301 27.4954 99.7444 27.4954 99.0583C27.4954 98.3721 26.9392 97.8159 26.253 97.8159C25.5669 97.8159 25.0107 98.3721 25.0107 99.0583C25.0107 99.7444 25.5669 100.301 26.253 100.301Z" fill="#3E479B"/>
<path opacity="0.58" d="M28.5605 46.8342C28.5605 47.13 28.3204 47.3666 28.028 47.3666C27.7357 47.3666 27.4956 47.1265 27.4956 46.8342C27.4956 46.5384 27.7357 46.3018 28.028 46.3018C28.3204 46.3018 28.5605 46.5384 28.5605 46.8342Z" fill="#3E479B"/>
<path opacity="0.58" d="M165.147 16.888C164.924 17.925 163.905 18.5862 162.868 18.3635C161.831 18.1408 161.17 17.1212 161.392 16.0841C161.615 15.0471 162.635 14.3859 163.672 14.6086C164.709 14.8313 165.37 15.851 165.147 16.888Z" fill="#EF929C"/>
<path opacity="0.58" d="M19.8426 109.262C19.6199 110.299 18.6003 110.96 17.5632 110.737C16.5262 110.514 15.865 109.495 16.0877 108.458C16.3104 107.421 17.3301 106.759 18.3671 106.982C19.4042 107.201 20.0654 108.224 19.8426 109.262Z" fill="#EF929C"/>
<path opacity="0.58" d="M148.415 28.5467C148.342 28.8912 148.001 29.1139 147.656 29.0374C147.312 28.9643 147.089 28.6232 147.166 28.2787C147.239 27.9342 147.58 27.7115 147.924 27.788C148.269 27.8611 148.488 28.2022 148.415 28.5467Z" fill="#3E479B"/>
<path opacity="0.47" d="M230.588 113.546H197.087C196.22 113.546 195.521 112.846 195.521 111.98V75.4639C195.521 74.5974 196.22 73.8979 197.087 73.8979H230.588C231.455 73.8979 232.154 74.5974 232.154 75.4639V111.98C232.154 112.846 231.451 113.546 230.588 113.546Z" fill="white"/>
<path d="M223.938 81.3311H203.733C203.357 81.3311 203.054 81.0284 203.054 80.6525V77.8407C203.054 77.4649 203.357 77.1621 203.733 77.1621H223.938C224.314 77.1621 224.617 77.4649 224.617 77.8407V80.6525C224.617 81.0284 224.314 81.3311 223.938 81.3311Z" fill="white"/>
<path d="M223.938 84.5608H203.733C203.357 84.5608 203.054 84.258 203.054 83.8822V83.8578C203.054 83.482 203.357 83.1792 203.733 83.1792H223.938C224.314 83.1792 224.617 83.482 224.617 83.8578V83.8822C224.617 84.258 224.314 84.5608 223.938 84.5608Z" fill="white"/>
<path d="M223.938 87.7482H203.733C203.357 87.7482 203.054 87.4455 203.054 87.0697V87.0453C203.054 86.6695 203.357 86.3667 203.733 86.3667H223.938C224.314 86.3667 224.617 86.6695 224.617 87.0453V87.0697C224.617 87.442 224.314 87.7482 223.938 87.7482Z" fill="white"/>
<path d="M204.446 92.4465C204.446 93.407 203.667 94.1865 202.706 94.1865C201.746 94.1865 200.966 93.407 200.966 92.4465C200.966 91.4861 201.746 90.7065 202.706 90.7065C203.667 90.7065 204.446 91.4861 204.446 92.4465Z" fill="white"/>
<path d="M204.446 100.328C204.446 101.289 203.667 102.068 202.706 102.068C201.746 102.068 200.966 101.289 200.966 100.328C200.966 99.3679 201.746 98.5884 202.706 98.5884C203.667 98.5884 204.446 99.3679 204.446 100.328Z" fill="white"/>
<path d="M204.446 107.981C204.446 108.941 203.667 109.721 202.706 109.721C201.746 109.721 200.966 108.941 200.966 107.981C200.966 107.02 201.746 106.241 202.706 106.241C203.667 106.241 204.446 107.02 204.446 107.981Z" fill="white"/>
<path d="M222.069 91.7708H205.431C205.334 91.7708 205.257 91.6943 205.257 91.5968C205.257 91.4994 205.334 91.4229 205.431 91.4229H222.069C222.167 91.4229 222.243 91.4994 222.243 91.5968C222.243 91.6943 222.167 91.7708 222.069 91.7708Z" fill="white"/>
<path d="M213.749 93.5423H205.428C205.331 93.5423 205.254 93.4658 205.254 93.3683C205.254 93.2709 205.331 93.1943 205.428 93.1943H213.749C213.846 93.1943 213.923 93.2709 213.923 93.3683C213.923 93.4623 213.846 93.5423 213.749 93.5423Z" fill="white"/>
<path d="M222.069 99.9144H205.431C205.334 99.9144 205.257 99.8378 205.257 99.7404C205.257 99.643 205.334 99.5664 205.431 99.5664H222.069C222.167 99.5664 222.243 99.643 222.243 99.7404C222.243 99.8344 222.167 99.9144 222.069 99.9144Z" fill="white"/>
<path d="M213.749 101.682H205.428C205.331 101.682 205.254 101.606 205.254 101.508C205.254 101.411 205.331 101.334 205.428 101.334H213.749C213.846 101.334 213.923 101.411 213.923 101.508C213.923 101.606 213.846 101.682 213.749 101.682Z" fill="white"/>
<path d="M222.069 107.348H205.431C205.334 107.348 205.257 107.271 205.257 107.174C205.257 107.076 205.334 107 205.431 107H222.069C222.167 107 222.243 107.076 222.243 107.174C222.243 107.271 222.167 107.348 222.069 107.348Z" fill="white"/>
<path d="M213.749 109.119H205.428C205.331 109.119 205.254 109.042 205.254 108.945C205.254 108.848 205.331 108.771 205.428 108.771H213.749C213.846 108.771 213.923 108.848 213.923 108.945C213.923 109.039 213.846 109.119 213.749 109.119Z" fill="white"/>
<path opacity="0.53" d="M156.106 23.8379H199.717C200.121 23.8379 200.448 24.165 200.448 24.5687V38.9098C200.448 39.3135 200.121 39.6406 199.717 39.6406H168.304L161.107 46.8372V39.6406H156.106C155.702 39.6406 155.375 39.3135 155.375 38.9098V24.5687C155.372 24.165 155.699 23.8379 156.106 23.8379Z" fill="#4C65BA"/>
<path d="M162.377 28.6338H193.363C193.558 28.6338 193.714 28.5364 193.714 28.4146C193.714 28.2928 193.558 28.1953 193.363 28.1953H162.377C162.182 28.1953 162.025 28.2928 162.025 28.4146C162.025 28.5364 162.182 28.6338 162.377 28.6338Z" fill="white"/>
<path d="M162.377 35.9522H193.363C193.558 35.9522 193.714 35.8547 193.714 35.7329C193.714 35.6111 193.558 35.5137 193.363 35.5137H162.377C162.182 35.5137 162.025 35.6111 162.025 35.7329C162.025 35.8547 162.182 35.9522 162.377 35.9522Z" fill="white"/>
<path d="M177.167 32.145H193.366C193.561 32.145 193.718 32.0476 193.718 31.9258C193.718 31.804 193.561 31.7065 193.366 31.7065H177.167C176.972 31.7065 176.815 31.804 176.815 31.9258C176.812 32.0441 176.972 32.145 177.167 32.145Z" fill="white"/>
<path d="M167.071 32.145H174.115C174.31 32.145 174.466 32.0476 174.466 31.9258C174.466 31.804 174.31 31.7065 174.115 31.7065H167.071C166.876 31.7065 166.72 31.804 166.72 31.9258C166.72 32.0441 166.876 32.145 167.071 32.145Z" fill="white"/>
<path opacity="0.47" d="M185.289 69.2413H207.335C208.32 69.2413 209.124 68.4374 209.124 67.4526V60.4508C209.124 59.466 208.32 58.6621 207.335 58.6621H185.289C184.304 58.6621 183.501 59.466 183.501 60.4508V67.4526C183.501 68.4374 184.304 69.2413 185.289 69.2413Z" fill="#599AF2"/>
<path d="M189.562 60.8997H215.868C216.661 60.8997 217.312 60.249 217.312 59.4555V51.3959C217.312 50.6024 216.661 49.9517 215.868 49.9517H189.562C188.769 49.9517 188.118 50.6024 188.118 51.3959V59.4555C188.118 60.249 188.769 60.8997 189.562 60.8997Z" fill="white"/>
<path opacity="0.74" d="M189.562 60.8997H215.868C216.661 60.8997 217.312 60.249 217.312 59.4555V51.3959C217.312 50.6024 216.661 49.9517 215.868 49.9517H189.562C188.769 49.9517 188.118 50.6024 188.118 51.3959V59.4555C188.118 60.249 188.769 60.8997 189.562 60.8997Z" fill="#EF929C"/>
<path d="M208.049 56.6923C207.342 56.6923 206.765 56.1181 206.765 55.4081C206.765 54.7017 207.339 54.124 208.049 54.124C208.755 54.124 209.333 54.6982 209.333 55.4081C209.329 56.1181 208.755 56.6923 208.049 56.6923ZM208.049 54.4755C207.534 54.4755 207.113 54.8931 207.113 55.4116C207.113 55.9301 207.534 56.3477 208.049 56.3477C208.564 56.3477 208.985 55.9301 208.985 55.4116C208.985 54.8931 208.564 54.4755 208.049 54.4755Z" fill="white"/>
<path d="M202.815 56.6923C202.108 56.6923 201.531 56.1181 201.531 55.4081C201.531 54.7017 202.105 54.124 202.815 54.124C203.521 54.124 204.099 54.6982 204.099 55.4081C204.099 56.1181 203.521 56.6923 202.815 56.6923ZM202.815 54.4755C202.3 54.4755 201.879 54.8931 201.879 55.4116C201.879 55.9301 202.3 56.3477 202.815 56.3477C203.33 56.3477 203.751 55.9301 203.751 55.4116C203.751 54.8931 203.33 54.4755 202.815 54.4755Z" fill="white"/>
<path d="M197.936 56.6923C197.229 56.6923 196.651 56.1181 196.651 55.4081C196.651 54.7017 197.226 54.124 197.936 54.124C198.642 54.124 199.22 54.6982 199.22 55.4081C199.22 56.1181 198.646 56.6923 197.936 56.6923ZM197.936 54.4755C197.421 54.4755 196.999 54.8931 196.999 55.4116C196.999 55.9301 197.421 56.3477 197.936 56.3477C198.451 56.3477 198.872 55.9301 198.872 55.4116C198.872 54.8931 198.451 54.4755 197.936 54.4755Z" fill="white"/>
<path d="M197.96 146.292H198.029L198.015 146.967L190.673 147.075L190.683 146.577C190.683 146.501 190.732 146.435 190.798 146.41C190.815 146.403 190.833 146.396 190.854 146.396L197.96 146.292Z" fill="#373449"/>
<path d="M195.384 143.825L197.608 143.797C197.664 143.797 197.712 143.814 197.754 143.846C197.772 143.856 197.785 143.87 197.799 143.887C197.838 143.933 197.862 143.992 197.865 144.058L197.876 144.315L197.911 145.151L197.959 146.289L190.853 146.393C190.832 146.393 190.815 146.4 190.798 146.407C190.954 145.892 191.361 145.485 191.873 145.37L193.498 145.241C193.881 145.043 194.215 144.872 194.598 144.674L195.259 143.86C195.273 143.853 195.287 143.849 195.301 143.846C195.311 143.842 195.322 143.835 195.332 143.832C195.346 143.828 195.363 143.825 195.384 143.825Z" fill="#373449"/>
<path d="M211.044 119.04L205.87 104.167L205.8 103.613H191.643V111.402C191.643 112.4 191.689 113.399 191.779 114.394L194.476 144.326H198.37L199.352 110.302L199.574 110.271L205.097 121.316L200.946 130.66C200.89 130.785 200.928 130.931 201.036 131.018L203.639 133.044C203.848 133.207 204.154 133.145 204.286 132.915L210.839 121.372C211.236 120.662 211.312 119.813 211.044 119.04Z" fill="#373449"/>
<path d="M200.02 132.601L199.971 132.553L199.505 133.043L204.645 138.288L204.989 137.926C205.042 137.87 205.056 137.79 205.028 137.727C205.021 137.71 205.01 137.693 204.996 137.679L200.02 132.601Z" fill="#373449"/>
<path d="M203.587 132.664L202.028 131.081C201.989 131.043 201.941 131.018 201.889 131.011C201.868 131.008 201.85 131.008 201.829 131.008C201.77 131.011 201.711 131.039 201.662 131.084L201.471 131.262L200.859 131.829L200.023 132.605L205 137.682C205.014 137.696 205.024 137.714 205.031 137.731C205.282 137.254 205.278 136.68 205 136.238L203.935 135.003C203.803 134.592 203.688 134.234 203.552 133.823L203.656 132.779C203.653 132.765 203.646 132.751 203.639 132.741C203.636 132.73 203.632 132.72 203.625 132.71C203.611 132.692 203.601 132.678 203.587 132.664Z" fill="#373449"/>
<path d="M209.342 89.1026C209.12 88.7163 206.705 91.0618 206.155 93.3516C206.134 93.4421 206.2 93.2716 206.155 93.3516L208.222 96.2748L202.612 102.553L204.028 103.614C204.028 103.614 212.172 98.3037 212.673 96.3549C213.035 94.9733 210.379 90.8982 209.342 89.1026Z" fill="#F9DCD2"/>
<path d="M179.39 88.4344C179.265 88.1212 178.962 87.6897 178.277 87.1364L177.038 86.0471C176.947 85.9671 176.815 85.9601 176.721 86.0297L176.686 86.0576C176.589 86.1306 176.565 86.2698 176.631 86.3777L177.188 87.2756C177.292 87.4461 177.17 87.6549 176.972 87.641L175.674 87.547C175.66 87.547 175.649 87.5435 175.635 87.54L173.993 87.1677C173.868 87.1398 173.746 87.2094 173.708 87.3278L173.69 87.3834C173.652 87.5157 173.732 87.6549 173.868 87.6966L175.569 88.2082L173.471 87.888C173.332 87.8672 173.21 87.9611 173.196 88.0968L173.192 88.1247C173.182 88.2499 173.266 88.3683 173.391 88.3961L175.503 88.9077L173.655 88.7163C173.492 88.6989 173.363 88.8415 173.398 89.0016L173.412 89.0677C173.433 89.1687 173.516 89.2487 173.617 89.2696L175.427 89.6245L174.139 89.6837C174.031 89.6872 173.944 89.7603 173.92 89.8612C173.885 90.0073 173.993 90.157 174.146 90.1709L175.552 90.324C175.562 90.324 175.569 90.3275 175.576 90.3275C175.764 90.3693 178.016 90.853 178.889 90.8947C178.9 90.8947 178.91 90.8947 178.921 90.8947L188.097 91.7821C188.125 91.7787 188.15 91.7717 188.174 91.7682C187.721 90.4041 187.443 88.9981 187.332 87.5748L179.39 88.4344Z" fill="#F9DCD2"/>
<path d="M209.457 89.1477C208.497 87.9923 207.536 86.9518 206.955 86.3985C205.41 84.9299 202.581 85.1248 202.581 85.1248L194.876 85.7303C193.992 85.7999 193.112 85.9182 192.242 86.0887C190.544 86.4159 189.019 86.7151 187.304 87.0771C187.311 87.2441 187.325 87.4111 187.339 87.5782C187.45 89.0015 187.728 90.4074 188.181 91.7716C188.198 91.8273 188.215 91.8829 188.236 91.9421C190.199 91.7403 191.692 91.5767 191.692 91.5767L191.647 107.508L205.807 104.32L205.167 92.6485L206.169 93.2889C207.108 91.7994 208.239 90.4422 209.457 89.1477Z" fill="#EF929C"/>
<path d="M206.249 82.351C205.633 80.2421 204.359 79.6297 203.517 79.4661C204.039 78.5996 204.439 77.6113 204.537 76.529C204.812 73.4527 199.724 68.3579 196.749 72.0885C195.771 72.1094 194.622 72.5444 193.481 73.9225C191.334 76.5151 191.988 78.5961 192.684 79.7132C193.015 80.2456 193.512 80.6493 194.1 80.8685L198.621 82.5633C199.55 82.9113 200.594 82.7129 201.332 82.0517C201.614 81.7977 201.923 81.4984 202.23 81.1643C203.75 81.8151 203.013 83.2628 203.013 83.2628C201.499 86.5235 203.357 88.1557 204.756 89.1161C205.362 89.5303 206.197 89.1927 206.329 88.4723C206.6 86.9725 206.872 84.4912 206.249 82.351Z" fill="#373449"/>
<path d="M201.687 77.6562L201.464 77.6422C201.464 77.6422 201.457 77.6492 201.45 77.6527L200.469 79.2187C199.167 78.5644 198.701 76.894 198.558 75.415C197.497 76.1215 195.781 76.9288 193.477 76.9358L193.088 80.729C192.875 82.8031 194.758 84.376 196.418 84.477L196.394 85.7402C196.154 87.167 196.94 88.4894 198.137 88.6599C199.251 88.82 200.323 87.9152 200.591 86.5928L201.043 80.4297C201.067 80.4262 201.092 80.4193 201.116 80.4123L201.516 80.4367C202.028 80.468 202.47 80.0782 202.501 79.5667L202.557 78.6375C202.588 78.126 202.198 77.6875 201.687 77.6562Z" fill="#F9DCD2"/>
<path opacity="0.37" d="M199.407 84.498L196.418 84.5503L196.397 85.6151L199.407 84.498Z" fill="#EF929C"/>
<path d="M194.779 78.1857C194.709 78.2171 194.622 78.1997 194.539 78.1892C194.452 78.1753 194.368 78.1649 194.292 78.1614C194.215 78.1544 194.132 78.1544 194.045 78.1544C193.958 78.1509 193.871 78.1579 193.804 78.1127C193.742 78.0744 193.721 77.9735 193.804 77.8551C193.884 77.7403 194.079 77.6255 194.326 77.6429C194.574 77.6637 194.751 77.8064 194.814 77.9282C194.88 78.057 194.848 78.1544 194.779 78.1857Z" fill="#373449"/>
<path d="M197.747 78.3669C197.678 78.3982 197.591 78.3808 197.507 78.3704C197.42 78.3565 197.336 78.346 197.26 78.3425C197.183 78.3356 197.1 78.3356 197.013 78.3356C196.926 78.3321 196.839 78.3391 196.773 78.2938C196.71 78.2555 196.689 78.1546 196.773 78.0363C196.853 77.9215 197.048 77.8066 197.295 77.824C197.542 77.8449 197.719 77.9876 197.782 78.1094C197.848 78.2416 197.813 78.3356 197.747 78.3669Z" fill="#373449"/>
<path d="M194.11 79.4037C194.006 79.3933 193.926 79.2993 193.936 79.1949L193.975 78.8121C193.985 78.7077 194.079 78.6277 194.184 78.6381C194.288 78.6486 194.368 78.7425 194.358 78.8469L194.319 79.2297C194.309 79.3376 194.215 79.4142 194.11 79.4037Z" fill="#373449"/>
<path d="M196.985 79.6825C196.881 79.6721 196.801 79.5781 196.811 79.4737L196.849 79.0909C196.86 78.9865 196.954 78.9065 197.058 78.9169C197.163 78.9274 197.243 79.0213 197.232 79.1257L197.194 79.5085C197.183 79.6164 197.089 79.693 196.985 79.6825Z" fill="#373449"/>
<path d="M195.705 80.4023C195.705 80.4023 195.701 80.4023 195.698 80.4023L195.392 80.3849C195.204 80.3745 195.037 80.2666 194.946 80.0996C194.856 79.9325 194.859 79.7342 194.953 79.5706L194.967 79.5462L194.995 79.5358C195.27 79.4175 195.465 79.16 195.503 78.8607L195.517 78.7493C195.524 78.7006 195.562 78.6658 195.614 78.6728C195.663 78.6797 195.694 78.7215 195.691 78.7702L195.677 78.8816C195.635 79.2296 195.412 79.5358 195.096 79.682C195.044 79.7898 195.047 79.9116 195.103 80.016C195.165 80.1309 195.277 80.2005 195.406 80.2109L195.712 80.2283C195.761 80.2318 195.795 80.2736 195.792 80.3188C195.788 80.3675 195.75 80.4023 195.705 80.4023Z" fill="#EF929C"/>
<path d="M196.835 82.0279L196.073 81.9826C195.903 81.9722 195.771 81.8225 195.781 81.652L195.826 80.9038L197.594 81.0117L197.573 81.3806C197.549 81.7599 197.218 82.0487 196.835 82.0279Z" fill="white"/>
<path opacity="0.47" d="M84.4006 128.005H50.8986C50.0321 128.005 49.3326 127.305 49.3326 126.439V89.9229C49.3326 89.0564 50.0321 88.3569 50.8986 88.3569H84.4006C85.2671 88.3569 85.9666 89.0564 85.9666 89.9229V126.439C85.9666 127.305 85.2671 128.005 84.4006 128.005Z" fill="white"/>
<path d="M77.7501 95.7901H57.5452C57.1693 95.7901 56.8666 95.4874 56.8666 95.1115V92.2997C56.8666 91.9239 57.1693 91.6211 57.5452 91.6211H77.7501C78.1259 91.6211 78.4287 91.9239 78.4287 92.2997V95.1115C78.4321 95.4874 78.1259 95.7901 77.7501 95.7901Z" fill="white"/>
<path d="M77.7501 99.0198H57.5452C57.1693 99.0198 56.8666 98.717 56.8666 98.3411V98.3168C56.8666 97.9409 57.1693 97.6382 57.5452 97.6382H77.7501C78.1259 97.6382 78.4287 97.9409 78.4287 98.3168V98.3411C78.4321 98.717 78.1259 99.0198 77.7501 99.0198Z" fill="white"/>
<path d="M77.7501 102.207H57.5452C57.1693 102.207 56.8666 101.904 56.8666 101.529V101.504C56.8666 101.128 57.1693 100.826 57.5452 100.826H77.7501C78.1259 100.826 78.4287 101.128 78.4287 101.504V101.529C78.4321 101.904 78.1259 102.207 77.7501 102.207Z" fill="white"/>
<path d="M58.2586 106.906C58.2586 107.866 57.479 108.646 56.5186 108.646C55.5581 108.646 54.7786 107.866 54.7786 106.906C54.7786 105.945 55.5581 105.166 56.5186 105.166C57.479 105.166 58.2586 105.945 58.2586 106.906Z" fill="white"/>
<path d="M58.2586 114.791C58.2586 115.751 57.479 116.531 56.5186 116.531C55.5581 116.531 54.7786 115.751 54.7786 114.791C54.7786 113.83 55.5581 113.051 56.5186 113.051C57.479 113.051 58.2586 113.83 58.2586 114.791Z" fill="white"/>
<path d="M58.2586 122.44C58.2586 123.4 57.479 124.18 56.5186 124.18C55.5581 124.18 54.7786 123.4 54.7786 122.44C54.7786 121.479 55.5581 120.7 56.5186 120.7C57.479 120.703 58.2586 121.479 58.2586 122.44Z" fill="white"/>
<path d="M75.8813 106.23H59.2434C59.146 106.23 59.0694 106.153 59.0694 106.056C59.0694 105.958 59.146 105.882 59.2434 105.882H75.8813C75.9787 105.882 76.0553 105.958 76.0553 106.056C76.0553 106.153 75.9787 106.23 75.8813 106.23Z" fill="white"/>
<path d="M67.5641 108.001H59.2434C59.146 108.001 59.0694 107.925 59.0694 107.827C59.0694 107.73 59.146 107.653 59.2434 107.653H67.5641C67.6615 107.653 67.7381 107.73 67.7381 107.827C67.7381 107.921 67.658 108.001 67.5641 108.001Z" fill="white"/>
<path d="M75.8813 114.373H59.2434C59.146 114.373 59.0694 114.297 59.0694 114.199C59.0694 114.102 59.146 114.025 59.2434 114.025H75.8813C75.9787 114.025 76.0553 114.102 76.0553 114.199C76.0553 114.297 75.9787 114.373 75.8813 114.373Z" fill="white"/>
<path d="M67.5641 116.145H59.2434C59.146 116.145 59.0694 116.068 59.0694 115.971C59.0694 115.873 59.146 115.797 59.2434 115.797H67.5641C67.6615 115.797 67.7381 115.873 67.7381 115.971C67.7381 116.068 67.658 116.145 67.5641 116.145Z" fill="white"/>
<path d="M75.8813 121.806H59.2434C59.146 121.806 59.0694 121.73 59.0694 121.632C59.0694 121.535 59.146 121.458 59.2434 121.458H75.8813C75.9787 121.458 76.0553 121.535 76.0553 121.632C76.0553 121.73 75.9787 121.806 75.8813 121.806Z" fill="white"/>
<path d="M67.5641 123.578H59.2434C59.146 123.578 59.0694 123.501 59.0694 123.404C59.0694 123.307 59.146 123.23 59.2434 123.23H67.5641C67.6615 123.23 67.7381 123.307 67.7381 123.404C67.7381 123.501 67.658 123.578 67.5641 123.578Z" fill="white"/>
<path opacity="0.79" d="M70.1917 69.2764H41.332C41.0641 69.2764 40.8483 69.4921 40.8483 69.7601V79.25C40.8483 79.518 41.0641 79.7338 41.332 79.7338H62.1216L66.8857 84.4979V79.7338H70.1952C70.4631 79.7338 70.6789 79.518 70.6789 79.25V69.7601C70.6789 69.4921 70.4597 69.2764 70.1917 69.2764Z" fill="#3E479B"/>
<path d="M66.0437 72.45H45.536C45.4073 72.45 45.3029 72.3839 45.3029 72.3039C45.3029 72.2238 45.4073 72.1577 45.536 72.1577H66.0437C66.1724 72.1577 66.2768 72.2238 66.2768 72.3039C66.2768 72.3874 66.1724 72.45 66.0437 72.45Z" fill="white"/>
<path d="M66.0437 77.2943H45.536C45.4073 77.2943 45.3029 77.2282 45.3029 77.1481C45.3029 77.0681 45.4073 77.002 45.536 77.002H66.0437C66.1724 77.002 66.2768 77.0681 66.2768 77.1481C66.2768 77.2282 66.1724 77.2943 66.0437 77.2943Z" fill="white"/>
<path d="M56.2544 74.7747H45.536C45.4073 74.7747 45.3029 74.7086 45.3029 74.6286C45.3029 74.5485 45.4073 74.4824 45.536 74.4824H56.2544C56.3832 74.4824 56.4876 74.5485 56.4876 74.6286C56.4876 74.7086 56.3832 74.7747 56.2544 74.7747Z" fill="white"/>
<path d="M62.9358 74.7747H58.2761C58.1473 74.7747 58.0429 74.7086 58.0429 74.6286C58.0429 74.5485 58.1473 74.4824 58.2761 74.4824H62.9358C63.0645 74.4824 63.1689 74.5485 63.1689 74.6286C63.1689 74.7086 63.0645 74.7747 62.9358 74.7747Z" fill="white"/>
<path opacity="0.47" d="M98.0453 62.8732H59.7792C58.074 62.8732 56.675 61.4777 56.675 59.769V47.6169C56.675 45.9117 58.0705 44.5127 59.7792 44.5127H98.0453C99.7505 44.5127 101.149 45.9082 101.149 47.6169V59.769C101.149 61.4777 99.754 62.8732 98.0453 62.8732Z" fill="#599AF2"/>
<path d="M90.6262 48.3964H44.9651C43.587 48.3964 42.456 47.2688 42.456 45.8873V31.9012C42.456 30.5231 43.5835 29.3921 44.9651 29.3921H90.6262C92.0042 29.3921 93.1352 30.5196 93.1352 31.9012V45.8873C93.1318 47.2688 92.0042 48.3964 90.6262 48.3964Z" fill="white"/>
<path opacity="0.74" d="M90.6262 48.3964H44.9651C43.587 48.3964 42.456 47.2688 42.456 45.8873V31.9012C42.456 30.5231 43.5835 29.3921 44.9651 29.3921H90.6262C92.0042 29.3921 93.1352 30.5196 93.1352 31.9012V45.8873C93.1318 47.2688 92.0042 48.3964 90.6262 48.3964Z" fill="#EF929C"/>
<path d="M58.5439 40.9703C57.3885 40.9703 56.4454 40.0272 56.4454 38.8719C56.4454 37.7165 57.3885 36.7734 58.5439 36.7734C59.6992 36.7734 60.6423 37.7165 60.6423 38.8719C60.6423 40.0272 59.6992 40.9703 58.5439 40.9703ZM58.5439 37.1214C57.5799 37.1214 56.7934 37.9079 56.7934 38.8719C56.7934 39.8358 57.5799 40.6223 58.5439 40.6223C59.5078 40.6223 60.2943 39.8358 60.2943 38.8719C60.2943 37.9079 59.5078 37.1214 58.5439 37.1214Z" fill="white"/>
<path d="M67.6269 40.9703C66.4716 40.9703 65.5285 40.0272 65.5285 38.8719C65.5285 37.7165 66.4681 36.7734 67.6269 36.7734C68.7823 36.7734 69.7254 37.7165 69.7254 38.8719C69.7254 40.0272 68.7823 40.9703 67.6269 40.9703ZM67.6269 37.1214C66.663 37.1214 65.8765 37.9079 65.8765 38.8719C65.8765 39.8358 66.663 40.6223 67.6269 40.6223C68.5909 40.6223 69.3774 39.8358 69.3774 38.8719C69.3774 37.9079 68.5909 37.1214 67.6269 37.1214Z" fill="white"/>
<path d="M76.0937 40.9703C74.9384 40.9703 73.9953 40.0272 73.9953 38.8719C73.9953 37.7165 74.9384 36.7734 76.0937 36.7734C77.2491 36.7734 78.1922 37.7165 78.1922 38.8719C78.1922 40.0272 77.2491 40.9703 76.0937 40.9703ZM76.0937 37.1214C75.1298 37.1214 74.3433 37.9079 74.3433 38.8719C74.3433 39.8358 75.1298 40.6223 76.0937 40.6223C77.0577 40.6223 77.8442 39.8358 77.8442 38.8719C77.8442 37.9079 77.0577 37.1214 76.0937 37.1214Z" fill="white"/>
<path d="M141.796 127.232H119.005V143.919H141.796V127.232Z" fill="#3E479B"/>
<path d="M184.092 121.943H76.706C75.1191 121.943 73.8315 120.655 73.8315 119.068V55.478C73.8315 53.8911 75.1191 52.6035 76.706 52.6035H184.092C185.679 52.6035 186.966 53.8911 186.966 55.478V119.068C186.97 120.655 185.682 121.943 184.092 121.943Z" fill="#3E479B"/>
<path d="M183.605 128.861H77.1931C75.3348 128.861 73.8279 127.086 73.8279 124.897V114.617H186.966V124.897C186.97 127.086 185.463 128.861 183.605 128.861Z" fill="#4C65BA"/>
<path d="M181.468 114.367H79.3298C78.9887 114.367 78.7138 114.092 78.7138 113.751V58.0081C78.7138 57.667 78.9887 57.3921 79.3298 57.3921H181.464C181.805 57.3921 182.08 57.667 182.08 58.0081V113.751C182.084 114.088 181.809 114.367 181.468 114.367Z" fill="white"/>
<path opacity="0.81" d="M174.313 110.549H86.488C86.1469 110.549 85.872 110.274 85.872 109.933V62.0759C85.872 61.7349 86.1469 61.46 86.488 61.46H174.313C174.654 61.46 174.929 61.7349 174.929 62.0759V109.929C174.929 110.27 174.654 110.549 174.313 110.549Z" fill="#ECF1F7"/>
<path d="M130.399 125.983C128.116 125.983 126.258 124.125 126.258 121.842C126.258 119.559 128.116 117.701 130.399 117.701C132.682 117.701 134.54 119.559 134.54 121.842C134.54 124.125 132.682 125.983 130.399 125.983ZM130.399 118.049C128.307 118.049 126.606 119.75 126.606 121.842C126.606 123.933 128.307 125.635 130.399 125.635C132.49 125.635 134.192 123.933 134.192 121.842C134.192 119.75 132.49 118.049 130.399 118.049Z" fill="white"/>
<path d="M154.612 146.769H106.185V146.063C106.185 143.755 108.053 141.887 110.361 141.887H150.44C152.747 141.887 154.616 143.755 154.616 146.063V146.769H154.612Z" fill="#4C65BA"/>
<path opacity="0.9" d="M130.399 77.4125C132.07 77.4125 133.424 76.0585 133.424 74.3884C133.424 72.7182 132.07 71.3643 130.399 71.3643C128.729 71.3643 127.375 72.7182 127.375 74.3884C127.375 76.0585 128.729 77.4125 130.399 77.4125Z" fill="white"/>
<path opacity="0.15" d="M130.399 100.394C132.07 100.394 133.424 99.0405 133.424 97.3703C133.424 95.7001 132.07 94.3462 130.399 94.3462C128.729 94.3462 127.375 95.7001 127.375 97.3703C127.375 99.0405 128.729 100.394 130.399 100.394Z" fill="white"/>
<path opacity="0.5" d="M141.89 88.9037C143.56 88.9037 144.914 87.5498 144.914 85.8796C144.914 84.2094 143.56 82.8555 141.89 82.8555C140.22 82.8555 138.866 84.2094 138.866 85.8796C138.866 87.5498 140.22 88.9037 141.89 88.9037Z" fill="white"/>
<path d="M118.908 88.9037C120.578 88.9037 121.932 87.5498 121.932 85.8796C121.932 84.2094 120.578 82.8555 118.908 82.8555C117.238 82.8555 115.884 84.2094 115.884 85.8796C115.884 87.5498 117.238 88.9037 118.908 88.9037Z" fill="white"/>
<path opacity="0.7" d="M140.662 79.8936C139.482 81.0734 137.568 81.0734 136.385 79.8936C135.205 78.7139 135.205 76.7999 136.385 75.6167C137.565 74.437 139.479 74.437 140.662 75.6167C141.845 76.7964 141.845 78.7104 140.662 79.8936Z" fill="white"/>
<path opacity="0.1" d="M122.273 97.0292C123.944 97.0292 125.297 95.6753 125.297 94.0051C125.297 92.3349 123.944 90.981 122.273 90.981C120.603 90.981 119.249 92.3349 119.249 94.0051C119.249 95.6753 120.603 97.0292 122.273 97.0292Z" fill="white"/>
<path opacity="0.3" d="M136.385 96.1422C135.205 94.9625 135.205 93.0485 136.385 91.8653C137.565 90.6855 139.479 90.6855 140.662 91.8653C141.842 93.045 141.842 94.9625 140.662 96.1422C139.482 97.3219 137.568 97.3219 136.385 96.1422Z" fill="white"/>
<path d="M120.136 79.8936C118.957 78.7139 118.957 76.7999 120.136 75.6167C121.316 74.437 123.234 74.437 124.413 75.6167C125.593 76.7964 125.593 78.7104 124.413 79.8936C123.23 81.0734 121.316 81.0734 120.136 79.8936Z" fill="white"/>
<path opacity="0.47" d="M181.468 63.2211H79.3298C78.9887 63.2211 78.7138 62.9462 78.7138 62.6051V58.0081C78.7138 57.667 78.9887 57.3921 79.3298 57.3921H181.464C181.805 57.3921 182.08 57.667 182.08 58.0081V62.6051C182.084 62.9462 181.809 63.2211 181.468 63.2211Z" fill="#599AF2"/>
<path d="M172.173 60.2141C172.173 60.5064 171.936 60.7465 171.64 60.7465C171.348 60.7465 171.108 60.5099 171.108 60.2141C171.108 59.9183 171.344 59.6816 171.64 59.6816C171.933 59.6816 172.173 59.9183 172.173 60.2141Z" fill="#ECF1F7"/>
<path d="M177.835 60.2141C177.835 60.5064 177.598 60.7465 177.303 60.7465C177.007 60.7465 176.77 60.5099 176.77 60.2141C176.77 59.9183 177.007 59.6816 177.303 59.6816C177.598 59.6816 177.835 59.9183 177.835 60.2141Z" fill="#ECF1F7"/>
<path d="M174.473 60.7465C174.767 60.7465 175.006 60.5081 175.006 60.2141C175.006 59.92 174.767 59.6816 174.473 59.6816C174.179 59.6816 173.941 59.92 173.941 60.2141C173.941 60.5081 174.179 60.7465 174.473 60.7465Z" fill="#ECF1F7"/>
<path d="M81.9992 119.305L82.5456 117.732C82.7892 117.036 83.4434 116.566 84.1846 116.566H97.7949C98.7519 116.566 99.528 117.342 99.528 118.299V120.467V124.041V145.387C99.528 146.344 98.7519 147.12 97.7949 147.12H56.7309C55.7739 147.12 54.9979 146.344 54.9979 145.387V122.2C54.9979 121.243 55.7739 120.467 56.7309 120.467H80.3636C81.0979 120.467 81.7556 120.001 81.9992 119.305Z" fill="#599AF2"/>
<path opacity="0.12" d="M83.005 120.902L83.5201 119.419C83.7497 118.762 84.3692 118.323 85.0652 118.323H97.8959C98.7973 118.323 99.5316 119.054 99.5316 119.959V122.002V125.37V145.488C99.5316 146.389 98.8007 147.124 97.8959 147.124H59.1879C58.2866 147.124 57.5523 146.393 57.5523 145.488V123.634C57.5523 122.732 58.2831 121.998 59.1879 121.998H81.4634C82.1559 121.998 82.7753 121.56 83.005 120.902Z" fill="white"/>
<path opacity="0.21" d="M150.222 115.842C163.623 115.842 174.488 104.978 174.488 91.5761C174.488 78.1743 163.623 67.3101 150.222 67.3101C136.82 67.3101 125.956 78.1743 125.956 91.5761C125.956 104.978 136.82 115.842 150.222 115.842Z" fill="white"/>
<path opacity="0.81" d="M152.763 82.1738C155.59 81.5362 157.365 78.7274 156.727 75.9001C156.09 73.0728 153.281 71.2977 150.453 71.9353C147.626 72.5729 145.851 75.3818 146.489 78.2091C147.126 81.0364 149.935 82.8115 152.763 82.1738Z" fill="#ECF1F7"/>
<path opacity="0.58" d="M150.222 116.538C136.458 116.538 125.26 105.34 125.26 91.5763C125.26 77.8129 136.458 66.6143 150.222 66.6143C163.985 66.6143 175.184 77.8129 175.184 91.5763C175.184 105.34 163.985 116.538 150.222 116.538ZM150.222 68.0063C137.224 68.0063 126.652 78.5785 126.652 91.5763C126.652 104.574 137.224 115.146 150.222 115.146C163.216 115.146 173.792 104.574 173.792 91.5763C173.788 78.5785 163.216 68.0063 150.222 68.0063Z" fill="#3E479B"/>
<path d="M189.055 126.018L173.067 110.358C172.754 110.048 172.392 109.818 172.01 109.658C176.085 104.751 178.538 98.4525 178.538 91.576C178.538 75.9369 165.86 63.2593 150.221 63.2593C134.582 63.2593 121.905 75.9369 121.905 91.576C121.905 107.215 134.582 119.893 150.221 119.893C156.767 119.893 162.788 117.666 167.583 113.939C167.75 114.384 168.011 114.798 168.373 115.153L184.36 130.813C185.014 131.453 185.86 131.77 186.709 131.77C187.579 131.77 188.449 131.432 189.107 130.761C190.401 129.438 190.38 127.316 189.055 126.018ZM125.955 91.576C125.955 78.1746 136.82 67.31 150.221 67.31C163.623 67.31 174.487 78.1746 174.487 91.576C174.487 104.978 163.623 115.842 150.221 115.842C136.82 115.842 125.955 104.978 125.955 91.576Z" fill="#3E479B"/>
<path d="M206.152 139.517L182.888 116.253C182.307 115.672 173.722 124.215 174.324 124.817L197.588 148.081C199.954 150.447 203.786 150.447 206.152 148.081C208.518 145.718 208.518 141.883 206.152 139.517ZM204.398 143.46C204.398 144.636 203.445 145.586 202.272 145.586C201.096 145.586 200.146 144.632 200.146 143.46C200.146 142.283 201.099 141.333 202.272 141.333C203.445 141.333 204.398 142.287 204.398 143.46Z" fill="#599AF2"/>
<g opacity="0.1">
<path opacity="0.1" d="M203.445 145.234C203.107 145.457 202.703 145.589 202.268 145.589C201.092 145.589 200.142 144.636 200.142 143.463C200.142 143.004 200.292 142.576 200.539 142.228C195.228 136.74 187.391 128.673 182.662 123.815C180.219 121.306 178.608 119.653 178.604 119.656C176.304 121.908 174 124.497 174.324 124.821L197.588 148.084C199.954 150.451 203.786 150.451 206.152 148.084C206.166 148.07 205.125 146.978 203.445 145.234Z" fill="white"/>
</g>
<path d="M184.165 117.728L175.768 126.126C175.385 126.509 174.762 126.509 174.379 126.126L172.865 124.612C172.483 124.229 172.483 123.606 172.865 123.223L181.263 114.826C181.646 114.443 182.268 114.443 182.651 114.826L184.165 116.34C184.548 116.723 184.548 117.346 184.165 117.728Z" fill="white"/>
</svg>
