<svg width="32" height="32" viewBox="0 0 32 32" fill="none" xmlns="http://www.w3.org/2000/svg">
<path d="M20.75 2.45811V2.45808C20.75 2.20297 20.5573 2.01935 20.3472 2.01935H17.9859C17.6491 2.01935 17.3241 1.8941 17.07 1.66594L20.75 2.45811ZM20.75 2.45811V4.31125C20.75 4.56635 20.5572 4.75 20.3472 4.75H11.6528C11.4428 4.75 11.25 4.56634 11.25 4.31125V2.45811C11.25 2.203 11.4428 2.01935 11.6528 2.01935H14.0142C14.3509 2.01935 14.676 1.8941 14.9301 1.66594L20.75 2.45811ZM16 1.25C16.4063 1.25 16.7795 1.4052 17.07 1.66593L14.9301 1.66593C15.2205 1.4052 15.5937 1.25 16 1.25Z" fill="#ADADAD" stroke="black" stroke-width="0.5"/>
<path d="M7.05232 4.25H23.9477C24.9328 4.25 25.75 5.08793 25.75 6.14513V27.8549C25.75 28.9121 24.9328 29.75 23.9477 29.75H7.05232C6.06723 29.75 5.25 28.912 5.25 27.8548V6.14513C5.25 5.08793 6.06722 4.25 7.05232 4.25Z" fill="#2EA2DB" stroke="black" stroke-width="0.5"/>
<path d="M23 6H8C7.44772 6 7 6.44772 7 7V27C7 27.5523 7.44772 28 8 28H23C23.5523 28 24 27.5523 24 27V7C24 6.44772 23.5523 6 23 6Z" fill="white"/>
<path d="M12 10L10.0455 11.8L9 10.7545" stroke="#93D830" stroke-width="0.4" stroke-linecap="round" stroke-linejoin="round"/>
<path d="M12 13.7998L10.0455 15.5998L9 14.5544" stroke="#93D830" stroke-width="0.4" stroke-linecap="round" stroke-linejoin="round"/>
<path d="M12 17.5996L10.0455 19.3996L9 18.3542" stroke="#93D830" stroke-width="0.4" stroke-linecap="round" stroke-linejoin="round"/>
<path d="M11.3 23.6994L9 21.3994" stroke="#F16051" stroke-width="0.4" stroke-linecap="round" stroke-linejoin="round"/>
<path d="M11.3 21.3994L9 23.6994" stroke="#F16051" stroke-width="0.4" stroke-linecap="round" stroke-linejoin="round"/>
<rect width="8" height="1" rx="0.5" transform="matrix(1 0 0 -1 14 11)" fill="#ADADAD"/>
<rect width="8" height="1" rx="0.5" transform="matrix(1 0 0 -1 14 15)" fill="#ADADAD"/>
<rect width="8" height="1" rx="0.5" transform="matrix(1 0 0 -1 14 19)" fill="#ADADAD"/>
<rect width="8" height="1" rx="0.5" transform="matrix(1 0 0 -1 14 24)" fill="#ADADAD"/>
<path d="M21.5196 13.8603L17.9316 10.9513L21.5196 8.04232V9.05779C21.5196 9.16853 21.5624 9.27556 21.6398 9.3551C21.7172 9.4348 21.8233 9.48036 21.9347 9.48036H27.1179V9.48078L27.1291 9.47995C27.5667 9.44726 27.9809 9.27973 28.3198 9.00417V11.0275C28.3194 11.3986 28.1758 11.7535 27.9218 12.0147C27.668 12.2758 27.3247 12.4218 26.9675 12.4222H21.9347C21.8233 12.4222 21.7172 12.4678 21.6398 12.5475C21.5624 12.627 21.5196 12.7341 21.5196 12.8448V13.8603ZM28.3216 7.08994L28.3216 7.09176C28.322 7.11736 28.3246 7.14285 28.3295 7.16793C28.3244 7.19392 28.3218 7.22035 28.3216 7.24689L28.3216 7.24747C28.3207 7.5991 28.1912 7.93684 27.9599 8.19379C27.7301 8.44911 27.4167 8.60604 27.0815 8.63521H26.0637V5.69516H26.9694C27.3265 5.69561 27.6698 5.84166 27.9236 6.10267C28.1776 6.36385 28.3212 6.71883 28.3216 7.08994Z" fill="#F16051" stroke="black" stroke-width="0.3"/>
</svg>
