<svg width="24" height="24" viewBox="0 0 24 24" fill="none" xmlns="http://www.w3.org/2000/svg">
<path d="M11.1566 5.6875H5.59035C5.16857 5.6875 4.76405 5.85505 4.4658 6.1533C4.16755 6.45155 4 6.85607 4 7.27785V18.4103C4 18.8321 4.16755 19.2366 4.4658 19.5349C4.76405 19.8331 5.16857 20.0007 5.59035 20.0007H16.7228C17.1446 20.0007 17.5491 19.8331 17.8474 19.5349C18.1456 19.2366 18.3132 18.8321 18.3132 18.4103V12.8441" stroke="#666666" stroke-width="1.5" stroke-linecap="round" stroke-linejoin="round"/>
<path d="M17.1203 4.49406C17.4367 4.17772 17.8657 4 18.3131 4C18.7605 4 19.1895 4.17772 19.5059 4.49406C19.8222 4.8104 19.9999 5.23945 19.9999 5.68682C19.9999 6.1342 19.8222 6.56325 19.5059 6.87959L11.9517 14.4338L8.771 15.2289L9.56617 12.0482L17.1203 4.49406Z" stroke="#666666" stroke-width="1.5" stroke-linecap="round" stroke-linejoin="round"/>
</svg>
