<svg width="72" height="61" viewBox="0 0 72 61" fill="none" xmlns="http://www.w3.org/2000/svg">
<path d="M44.2891 42.0494L25.3597 23.2535L7.11381 41.4899L6.00281 40.3789L25.3565 21.0347L44.2702 39.8179L62.0399 21.5972L63.1651 22.6925L44.2891 42.0494Z" fill="#E04F5F"/>
<path d="M6.55757 47.4912C10.1792 47.4912 13.1151 44.5553 13.1151 40.9337C13.1151 37.312 10.1792 34.3761 6.55757 34.3761C2.93593 34.3761 0 37.312 0 40.9337C0 44.5553 2.93593 47.4912 6.55757 47.4912Z" fill="#FFD07D"/>
<path d="M6.5575 43.8188C8.15093 43.8188 9.44265 42.527 9.44265 40.9336C9.44265 39.3402 8.15093 38.0485 6.5575 38.0485C4.96408 38.0485 3.67236 39.3402 3.67236 40.9336C3.67236 42.527 4.96408 43.8188 6.5575 43.8188Z" fill="black"/>
<path d="M44.2812 47.4912C47.9029 47.4912 50.8388 44.5553 50.8388 40.9337C50.8388 37.312 47.9029 34.3761 44.2812 34.3761C40.6596 34.3761 37.7236 37.312 37.7236 40.9337C37.7236 44.5553 40.6596 47.4912 44.2812 47.4912Z" fill="#FFD07D"/>
<path d="M44.2813 43.8188C45.8747 43.8188 47.1664 42.527 47.1664 40.9336C47.1664 39.3402 45.8747 38.0485 44.2813 38.0485C42.6878 38.0485 41.3961 39.3402 41.3961 40.9336C41.3961 42.527 42.6878 43.8188 44.2813 43.8188Z" fill="black"/>
<path d="M25.3581 31.2883C30.4083 31.2883 34.5023 27.1943 34.5023 22.1441C34.5023 17.094 30.4083 13 25.3581 13C20.308 13 16.214 17.094 16.214 22.1441C16.214 27.1943 20.308 31.2883 25.3581 31.2883Z" fill="#FFD07D"/>
<path d="M25.3581 26.1685C27.5807 26.1685 29.3825 24.3667 29.3825 22.1441C29.3825 19.9214 27.5807 18.1196 25.3581 18.1196C23.1354 18.1196 21.3336 19.9214 21.3336 22.1441C21.3336 24.3667 23.1354 26.1685 25.3581 26.1685Z" fill="black"/>
<path d="M62.6041 31.2883C67.6543 31.2883 71.7482 27.1943 71.7482 22.1441C71.7482 17.094 67.6543 13 62.6041 13C57.5539 13 53.46 17.094 53.46 22.1441C53.46 27.1943 57.5539 31.2883 62.6041 31.2883Z" fill="#FFD07D"/>
<path d="M62.6041 26.1685C64.8268 26.1685 66.6286 24.3667 66.6286 22.1441C66.6286 19.9214 64.8268 18.1196 62.6041 18.1196C60.3815 18.1196 58.5797 19.9214 58.5797 22.1441C58.5797 24.3667 60.3815 26.1685 62.6041 26.1685Z" fill="black"/>
</svg>
