<svg width="12" height="16" viewBox="0 0 12 16" fill="none" xmlns="http://www.w3.org/2000/svg">
<path d="M8.76235 2.92957C8.50246 2.92957 8.29177 2.71887 8.29177 2.45898V0H0.407843C0.182588 0 0 0.182588 0 0.407843V15.5922C0 15.8174 0.182588 16 0.407843 16H10.8135C11.0387 16 11.2213 15.8174 11.2213 15.5922V2.92957H8.76235Z" fill="#DA3019"/>
<path d="M5.61097 3.35416L5.07324 4.54412H6.14869L5.61097 3.35416Z" fill="black"/>
<path d="M9.2334 0.665375V1.98836H10.5561L9.2334 0.665375Z" fill="white"/>
<path d="M5.53706 9.13758C5.4721 8.57656 5.40714 8.09821 5.34218 7.70254C5.28313 7.30097 5.22702 6.9555 5.17387 6.66613C5.12072 6.37676 5.07053 6.12872 5.02328 5.92203C4.97604 5.70943 4.9347 5.5116 4.89927 5.32853C4.86383 5.13955 4.83726 4.95057 4.81954 4.7616C4.80183 4.56672 4.79297 4.34231 4.79297 4.08837C4.79297 3.85805 4.8225 3.65136 4.88155 3.46829C4.94651 3.28522 5.02919 3.13168 5.12958 3.00766C5.22998 2.87774 5.34218 2.7803 5.4662 2.71534C5.59612 2.64447 5.72899 2.60904 5.86482 2.60904C5.99474 2.60904 6.12466 2.64447 6.25458 2.71534C6.3845 2.7803 6.49671 2.87774 6.5912 3.00766C6.69159 3.13168 6.77132 3.28522 6.83037 3.46829C6.89533 3.65136 6.92781 3.85805 6.92781 4.08837C6.92781 4.34231 6.91895 4.56672 6.90124 4.7616C6.88352 4.95057 6.85695 5.13955 6.82151 5.32853C6.78608 5.5116 6.74474 5.70943 6.6975 5.92203C6.65616 6.12872 6.60891 6.37676 6.55576 6.66613C6.50261 6.9555 6.44356 7.30097 6.3786 7.70254C6.31954 8.09821 6.26049 8.57656 6.20143 9.13758H5.53706ZM4.97013 10.7232C4.97013 10.8472 4.99376 10.9653 5.041 11.0775C5.08824 11.1838 5.15025 11.2783 5.22702 11.361C5.3097 11.4378 5.40419 11.4968 5.51049 11.5382C5.62269 11.5854 5.7408 11.609 5.86482 11.609C5.98883 11.609 6.10695 11.5854 6.21915 11.5382C6.33135 11.4968 6.42584 11.4378 6.50261 11.361C6.58529 11.2783 6.65025 11.1838 6.6975 11.0775C6.74474 10.9653 6.76836 10.8472 6.76836 10.7232C6.76836 10.5992 6.74474 10.484 6.6975 10.3777C6.65025 10.2655 6.58529 10.1681 6.50261 10.0854C6.42584 10.0027 6.33135 9.93778 6.21915 9.89053C6.10695 9.84329 5.98883 9.81967 5.86482 9.81967C5.7408 9.81967 5.62269 9.84329 5.51049 9.89053C5.40419 9.93778 5.3097 10.0027 5.22702 10.0854C5.15025 10.1681 5.08824 10.2655 5.041 10.3777C4.99376 10.484 4.97013 10.5992 4.97013 10.7232Z" fill="white"/>
<rect x="1.4541" y="13.125" width="8.4375" height="0.40625" rx="0.203125" fill="white"/>
<rect x="1.4541" y="14.4062" width="8.4375" height="0.40625" rx="0.203125" fill="white"/>
</svg>
