<svg xmlns="http://www.w3.org/2000/svg" xmlns:xlink="http://www.w3.org/1999/xlink" width="191" height="167" fill="none"><style><![CDATA[.B{fill:#423f63}.C{fill:#423a64}.D{fill:#f3a988}.E{fill:#e76e52}.F{fill:#1d7dea}.G{fill:#f58a28}.H{fill:#6d6d6d}.I{fill:#0096fb}.J{stroke-miterlimit:10}]]></style><g clip-path="url(#A)"><path d="M142.233 127.014c26.933 0 48.767-21.834 48.767-48.767S169.166 29.48 142.233 29.48 93.467 51.314 93.467 78.247s21.833 48.767 48.766 48.767z" fill-opacity=".3" class="F"/><path opacity=".5" d="M72.668 145.48c26.933 0 48.767-21.834 48.767-48.767S99.6 47.948 72.668 47.948 23.902 69.78 23.902 96.714s21.834 48.767 48.767 48.767z" fill="#ffcc05"/><path d="M125.303 127.587s9.752-.395 11.144-8.75.328-11.886 5.897-15.51 8.24-.12 12.247-9.795-9.08-16.872-4.33-21.56c5.502-5.43 8.417-6.104 8.89-16.66.906-20.26-33.846-17.677-33.846-17.677v89.95z" fill="#fff"/><path d="M29.572 160.715h132.256s.048-8.11-14.786-6.288-17.6-24.677-32.873-16.294c-26.527 14.56-23.116-9.558-35.695-15.296-42.132-19.214-48.902 37.878-48.902 37.878z" class="G"/><path opacity=".5" d="M63.668 8.918H40.663s-.646-.732 1.763-1.243S45.808 9.15 48.04 4.33c.964-2.08 3.305-2.982 5.454-2.55s3.117 4.355 4.6 3.796.665-3.56 4.013-3.8 2.852 3.512 3.98 4.587 1.527-1.474 2.737-.94.896 2.096 2.057 2.096 3.493.438 4.273.992-11.486.405-11.486.405zm76.648 11.096h-23s-.646-.732 1.763-1.243 3.382 1.474 5.613-3.344c.964-2.08 3.305-2.982 5.454-2.55s3.117 4.355 4.6 3.797.665-3.56 4.013-3.8 2.852 3.512 3.98 4.587 1.527-1.474 2.736-.94.896 2.096 2.058 2.096 3.493.438 4.273.992-11.48.405-11.48.405z" fill="#d6ece1"/><path d="M72.206 43.934s-9.75.395-11.144 8.75 5.57 13.1 0 16.713-14.14-1.084-18.15 8.6 3.662 14.237.737 20.23-11.28 5.266-8.215 15.38 36.77 7.925 36.77 7.925V43.934z" fill="#605575"/><path d="M124.022 160.85H65.398a7.26 7.26 0 0 1-7.236-7.237v-116a7.26 7.26 0 0 1 7.236-7.236h58.624a7.26 7.26 0 0 1 7.236 7.236v115.985c0 3.985-3.257 7.242-7.236 7.242z" class="C"/><path d="M124.807 43.664H64.613v98.772h60.194V43.664z" fill="#fff"/><path d="M106.085 38.312H83.33c-.665 0-1.21-.544-1.21-1.21s.544-1.21 1.21-1.21h22.755c.665 0 1.21.544 1.21 1.21s-.544 1.21-1.21 1.21z" fill="#e6e7e8"/><path d="M94.7 156.72c3.06 0 5.54-2.48 5.54-5.54a5.54 5.54 0 1 0-11.082 0 5.54 5.54 0 0 0 5.541 5.541z" fill="#605575"/><path d="M134.67 118.905s-6.817 15.528-5.627 24.552c1.03 7.8 10.715 20.828 10.715 20.828-2.87 1.02-5.126 1.093-4.2 1.305s7.63 0 7.63 0-9.77-18.34-8.185-23.28c1.83-5.704 5.42-14.12 5.42-14.12s-.92 14.488 1.392 17.9 13.086 18.206 11.53 18.63c-2.673.723-6.065 1.065-2.73 1.253 2.87.164 5.8-.385 5.8-.385s-9.14-15.254-10.06-22.514 4.943-19.628 4.943-19.628-6.696-6.225-16.636-4.54z" class="C"/><path d="M130.473 125.68s-4.355 13.774-3.43 18.563 11.12 19.282 11.12 19.282l5.083-.762s-6.38-15.2-6.764-18.158c-.57-4.385 2.64-12.96 2.64-12.96s-1.296 10.45.78 14.588 11.53 17.287 11.53 17.287h5s-8.58-19.16-8.6-20.443c-.125-5.15 2.125-15.44 2.125-15.44s-17.195-.25-19.474-1.956z" class="F"/><path d="M128.86 127.202s5.285.973 21.18 1.74c0 0 6.765-28.17 4.356-29.885s-14.353-2.08-16.448-.62c-2.1 1.46-9.087 28.768-9.087 28.768z" fill="#ffcb24"/><path d="M132.342 114.84s.8 2.076 4.582 1.22c3.777-.858 10.262 5.343 15.186 3.396l.708-3.526-19.975-4.365-.5 3.276z" class="G"/><g class="D"><path d="M147.88 97.692l-4.086.303s1.205-4.962 1.012-7.314c-.13-1.638 4.775-3.47 4.775-3.47l-1.7 10.48z"/><path d="M145.654 83.224s-4.514 6.38-1.363 9.038c1.994 1.686 7.077-4.192 7.135-6.095s-5.05-4.635-5.772-2.944z"/></g><path d="M147 88.288c.165 0 .298-.134.298-.3s-.133-.3-.298-.3a.3.3 0 0 0-.299.299.3.3 0 0 0 .299.299zm-2.405-.9c.165 0 .298-.134.298-.3s-.133-.3-.298-.3a.3.3 0 0 0-.299.299.3.3 0 0 0 .299.299z" class="C"/><path d="M144.748 92.532s2.424.448 4.153-1.518c0 0-.072 2.052-1.3 3.377-1.224 1.3-3.334 1.228-3.334 1.228s.53-2.28.5-3.088zm2.54-2.482a.55.55 0 0 0 .55-.549.55.55 0 0 0-.55-.549.55.55 0 0 0-.549.549.55.55 0 0 0 .549.549z" class="E"/><path d="M147.085 86.886c-.12.246.26.13.583.3s.463.535.583.3-.043-.573-.36-.732-.685-.1-.805.154zm-2.553-1.234c-.12.246.26.13.583.3s.462.535.583.3-.044-.573-.362-.732-.684-.092-.804.154z" class="C"/><use xlink:href="#B" class="E"/><path d="M144.83 88.9c-.02 0-.03-.005-.038-.01-.015-.01-.03-.03-.034-.048-.024-.116.41-.742.776-1.243.02-.03.057-.034.082-.014s.033.058.014.082l-.728 1.09c.145-.072.453-.28.718-.472.03-.02.063-.014.082.014s.015.063-.014.082c-.602.448-.8.52-.858.52z" class="B"/><g class="C"><path d="M143.857 89.502s.57-.838 1.508-.255.26 2.014 2.394 1.508 2.925-4.63 3.267-4.8-5.594-.8-5.367-2.5c.284-2.154 2.712-3.204 5.348-2.134 2.307.94-.603 1.103 1.22 3.35 1.835 2.264.02 3.15-1.422 4.148s-2.37 5.497-5.877 4.673c-3.84-.9-1.788-5.3-1.62-5.097.164.183-.044 1.6.55 1.108z"/><path d="M149.123 85.195s.535.038.737.78-.458 3.04.723 2.592 1.6-2.443.992-2.9c-.602-.458-2.173-1.445-2.452-.472z"/></g><path d="M150.265 89.155s1.56-1.22 1.676-.207-1.768 2.15-2.168 1.56.492-1.354.492-1.354z" class="D"/><g class="B"><path d="M150.125 90.186c-.048-.01-.067-.043-.058-.072.154-.573.39-.92.7-1.04a.7.7 0 0 1 .597.058c.03.02.04.058.02.082s-.058.034-.082.02c0 0-.232-.145-.487-.043-.265.1-.482.434-.62.96-.015.024-.04.038-.068.038z"/><path d="M150.424 89.94c-.015 0-.024-.005-.04-.014-.024-.02-.03-.058-.01-.087.41-.525.366-.694.366-.7-.015-.03 0-.063.03-.077s.067 0 .082.03.077.23-.38.82c-.01.024-.03.03-.048.03z"/></g><path d="M133.2 102.722s-2.664 5.174-1.576 7.983 5.67-3.758 6.047-5.28-2.814-4.038-4.47-2.703z" class="E"/><path d="M132.588 103.522s2.81 2.943 3.772 2.862 6.548-8.755 5.8-9.024-4.673.183-6.196 1.282-3.377 4.88-3.377 4.88z" fill="#ffcc07"/><path d="M138.77 111.563s6.47-16.55 4.553-18.877c-1.556-1.89-.747-5.358-1.74-4.543-1.72 1.416-.058 4.47.284 5.454s-6.253 14.868-9.284 15.846c-3.7 1.18 3.296 8.937 6.186 2.12z" class="D"/><path d="M133.23 110.406s-.728 2.453.36 3.35c0 0-2.052-1.118-2.052-3.262-.005.005 1.146-.482 1.69-.087z" class="E"/><path d="M129.264 110.898s.9-2.592 4.77-2.163 6.215 2.828 12.28 3.912c6.846 1.224 4.428-12.426 6.11-12.758s3.88-1.214 3.936 3.87-.226 14.902-7.756 13.813c-7.536-1.09-14.767-8.803-16.974-7-1.62 1.316-2.534.824-2.365.328z" class="D"/><g class="B"><path d="M132.203 110.06h-.005c-.034-.005-.058-.034-.053-.068s.1-.82.265-1.142c.014-.03.053-.043.082-.03s.043.053.03.082c-.155.31-.25 1.1-.25 1.104-.014.028-.038.053-.067.053z"/><path d="M129.408 111.062c-.02 0-.034-.01-.048-.024-.02-.024-.014-.063.01-.087.062-.048 1.527-1.18 2.823-1.407.03-.005.063.015.067.048s-.014.063-.048.068c-1.262.22-2.75 1.373-2.77 1.382-.01.015-.024.02-.034.02z"/><path d="M129.466 110.556c-.02 0-.034-.01-.048-.024-.02-.024-.015-.063.01-.087.078-.063 1.87-1.498 2.9-1.315.034.005.053.038.05.067s-.04.053-.068.048c-.988-.173-2.8 1.277-2.814 1.292s-.024.02-.038.02z"/></g><path d="M150.193 98.477s4.755-.602 6.44 2.25c.964 1.63.308 9.988.308 9.988l-6.855-1.58c-.54-.13-.694-9.8.106-10.658z" fill="#ffcc07"/><path d="M147.88 97.692s-.246 2.775-2.592 2.963c-2.16.174-1.368-3.194-1.368-3.194l3.96.23z" class="D"/><g fill="#fffaf0"><path d="M149.672 130.396h-.005c-2.298-.26-19.864-1.807-20.037-1.826-.034-.005-.058-.034-.053-.068s.034-.053.067-.053l20.043 1.826c.033.005.058.034.053.068-.01.03-.034.053-.068.053zm-9.28 1.494l-3.18-.216c-.034 0-.058-.03-.058-.063s.034-.053.063-.058l3.175.217c.034 0 .058.03.058.063s-.024.057-.058.057z"/><path d="M148.68 134.38c-.015 0-.03-.005-.04-.014-.024-.02-2.6-2.144-1.744-5.868.01-.034.04-.053.072-.044s.053.04.044.073c-.843 3.647 1.676 5.723 1.7 5.747s.028.058.01.087c-.01.01-.024.02-.043.02zm-20.27-1.15c-.024 0-.043-.015-.053-.034-.014-.03-.005-.067.024-.082.02-.01 2.052-1.074 4.322-5.43.014-.03.053-.038.082-.024s.038.053.024.082c-1.195 2.298-2.323 3.662-3.05 4.404-.795.8-1.3 1.07-1.325 1.08-.005 0-.014.005-.024.005zm10.706-1.533c-.034 0-.062-.03-.058-.063l.097-3.353c0-.034.03-.058.058-.058s.057.03.057.063l-.096 3.353c0 .034-.03.058-.058.058z"/><path d="M139.136 131.172a1.19 1.19 0 0 1-.901-.376c-.723-.77-.545-2.443-.54-2.515.005-.034.034-.058.067-.053s.058.034.053.067c0 .02-.178 1.7.506 2.42.227.24.525.356.882.332.04 0 .063.024.063.058s-.024.063-.058.063c-.02.005-.048.005-.072.005zm5.57-40.51c-.024 0-.048-.005-.072-.01-.217-.058-.333-.385-.347-.997 0-.034.024-.063.058-.063s.058.024.058.058c.02.713.168.858.26.882.22.063.592-.43.703-.602.02-.03.053-.038.082-.02s.04.053.02.082c-.043.077-.424.67-.76.67z"/></g><g class="B"><path d="M141.414 92.527c-.01 0-.014 0-.024-.005-.03-.014-.043-.048-.033-.077.226-.55 1.016-.78 1.05-.8s.067.01.072.043-.01.067-.043.072c-.01 0-.766.222-.973.718 0 .024-.024.04-.05.04z"/><path d="M142.036 91.94c-.02 0-.034-.01-.048-.024-.964-1.253-.37-3.3-.347-3.387.01-.034.043-.048.077-.038s.048.043.038.077c-.004.02-.602 2.077.328 3.276.02.024.015.063-.01.082-.014.01-.028.014-.038.014zm-.472.212c-.024 0-.044-.014-.058-.038-.723-1.706-.386-3.16-.386-3.175.01-.034.044-.053.073-.043s.053.038.043.072c-.005.014-.328 1.436.376 3.103.014.03 0 .067-.034.077zm4.096-8.64c-.03 0-.053-.02-.058-.048-.144-.756-.005-1.35.4-1.773 1.05-1.065 3.488-.65 3.6-.63.034.005.053.038.048.067s-.038.053-.067.048-2.477-.424-3.484.597c-.385.4-.5.954-.375 1.667.004.034-.015.063-.05.072z"/></g><path d="M147.837 84.713c-.03 0-.053-.02-.058-.048-.005-.01-.275-1.185.8-2.02.573-.453 1.282-.36 1.903-.28.535.067.997.125 1.253-.164.02-.024.057-.03.086-.005s.03.058.005.087c-.3.337-.814.275-1.358.207-.603-.077-1.282-.164-1.817.255-1.002.785-.75 1.9-.747 1.898.01.034-.01.063-.043.072zm-1.292-.54c-.03 0-.057-.02-.057-.053-.01-.072-.236-1.797.925-2.255.52-.207 1.15-.198 1.763-.193.747.01 1.46.02 1.927-.347.024-.02.063-.014.087.01s.014.063-.01.087c-.506.385-1.233.38-2.004.37-.597-.005-1.22-.014-1.715.183-1.075.424-.853 2.1-.853 2.125.005.034-.02.063-.053.067zm6.283 2c-.03 0-.053-.02-.058-.048-.197-.95-1.85-1.6-2.645-1.624h-.038a.96.96 0 0 0-.906.597c-.01.03-.043.048-.077.038s-.048-.043-.04-.077c0-.005.25-.675 1.022-.675h.043c.723.024 2.53.636 2.76 1.72.004.034-.015.063-.05.072zm-.993 1.652c-.028 0-.057-.005-.08-.014-.16-.058-.203-.3-.26-.64l-.125-.617c-.077-.308-.226-.525-.443-.64-.352-.193-.77-.053-.776-.053-.03.01-.067-.005-.077-.038s.005-.067.04-.077c.02-.005.472-.16.872.058.245.135.414.376.5.718l.13.626c.053.3.1.516.183.55.12.043.4-.17.64-.356.024-.02.062-.02.086.01s.02.063-.01.087c-.337.275-.54.4-.68.4zm-3.367-2.982c-.04 0-.063-.03-.058-.063s.067-1.002.742-1.426c.424-.265.988-.25 1.676.04.03.014.044.048.034.077a.06.06 0 0 1-.077.034c-.65-.275-1.175-.3-1.566-.048-.62.4-.684 1.32-.7 1.33-.004.03-.03.058-.062.058z" fill="#524f79"/><path d="M74.6 30.43s.265-11.987 2.68-13.943 16-2.635 16.588 1.657c.588 4.36-.236 12.242-.236 12.242l-19.03.043z" class="F"/><path d="M89.882 6.11s3.724-.76 1.61-4.235C89.555-1.3 87.854.544 86.852.4s-4.5-.337-5.333 2.553c-.723 2.48.992 4.534.356 4.722s-1.257 1.06-.674 2.062 2.236 1.03 1.918 1.277-.313.92 1.045 1.108c1.368.188 5.72-6.022 5.72-6.022z" class="C"/><g class="D"><path d="M83.812 15.427l4.033 2.12s.308-5.097 1.185-7.29c.607-1.522-3.54-4.722-3.54-4.722l-1.677 9.89z"/><path d="M90.417 2.886s2.433 7.424-1.354 9.038C86.66 12.95 83.537 5.835 84.038 4s6.186-2.94 6.38-1.113z"/><path d="M85.065 7.183S83.932 5.56 83.523 6.5s1.055 2.578 1.61 2.13-.068-1.436-.068-1.436z"/></g><use xlink:href="#C" class="C"/><path d="M88.543 12.05s-2.284-.188-3.358-2.573c-.24-.54-.328 2.01.665 3.392 1.046 1.455 2.255 2.274 2.255 2.274s.164-2.332.438-3.093z" class="E"/><path d="M84.9 8.2c-.034 0-.063-.03-.058-.063.02-.544-.092-.925-.313-1.103s-.477-.1-.477-.1c-.034.01-.067-.01-.072-.043s.01-.067.043-.072c.014-.005.318-.087.588.12.26.202.38.607.36 1.2-.01.04-.038.063-.072.063z" class="B"/><path d="M87.06 9.168a.55.55 0 0 0 .549-.549.55.55 0 0 0-.549-.549.55.55 0 0 0-.549.549.55.55 0 0 0 .549.549z" class="E"/><path d="M84.698 7.887c-.024 0-.048-.014-.058-.04-.265-.694-.145-.867-.12-.896s.063-.024.087 0a.06.06 0 0 1 .005.082c-.005.01-.087.17.145.77.01.03-.005.067-.034.077-.01.005-.014.005-.024.005z" class="B"/><path d="M87.334 6.24c.043.27-.3.048-.64.1s-.597.376-.64.1.207-.535.564-.593.675.116.718.4zm3.04-.487c.043.27-.3.048-.64.1s-.597.376-.64.1.207-.535.564-.593.674.116.718.4z" class="C"/><path d="M90.49 8.89a.55.55 0 0 0 .549-.549.55.55 0 0 0-.549-.549.55.55 0 0 0-.549.549.55.55 0 0 0 .549.549z" class="E"/><path d="M89.56 8.547c-.053 0-.188-.067-.694-.756-.02-.03-.014-.063.015-.082s.063-.014.082.014c.193.265.43.554.544.665-.034-.207-.202-.756-.376-1.253-.01-.034.005-.067.04-.077s.067.005.077.04c.202.593.434 1.315.376 1.42-.01.014-.03.034-.048.034zm-.458 1.286c-.37-.01-.593-.785-.617-.872-.01-.034.01-.067.043-.072s.068.01.072.043c.082.3.3.776.496.785.092.005.28-.096.506-.77.01-.03.043-.048.077-.04s.048.043.038.077c-.188.57-.4.848-.617.848z" class="B"/><path d="M89.902 7.222a.3.3 0 0 0 .299-.299.3.3 0 0 0-.299-.299.3.3 0 0 0-.299.299.3.3 0 0 0 .299.299zm-1.6-5.266s-1.055-.23-1.465.506.776 1.865-.8 2.982l-1.566 1.05s-1.233-.564-1.065-2.216 3.286-3.233 4.905-2.322z" class="C"/><path d="M83.812 15.427s2.226 2.843 4.033 2.12c1.05-.42.255-2.404.255-2.404l-4.288.284zm12.343-1.09l1.927-1.185s-3.715-3.816-3.122-7.13-4.76.42 1.195 8.316z" class="D"/><path d="M92.61 16.4s1.864.82 6.962 7.405c2.183 2.82-5.71-10.893-5.83-12.59l3.132-1.445s13.466 16.993 7.57 20.052c-4.87 2.53-11.41-4.982-11.41-4.982s.723-6.745-.424-8.44z" class="F"/><path d="M93.872 27.49s-5.675 1.734-9.886 1.012-9.058-3.17-9.058-3.17L74.6 30.43l19.026-.043c.005 0 .12-1.16.246-2.896z" fill="#252f5a"/><path d="M79.052 30.377s2.54-.23 4.76-.03 3.633 2.288 2.968 2.53-3.878-1.205-6.928-.64c.005 0-1.44-.347-.8-1.86z" class="D"/><path d="M77.934 23.805s-8.397 1.07-7.92 4.08 8.518.337 11.674 2.25c0 0 .496 1.498.014 2.22s-13.972 3.734-18.55 0 4.1-14.28 16.67-16.848c0 0-.723 6.08-1.89 8.296z" class="F"/><path d="M88.293 1.956s.882-.048 1.44.655c.76.964.646 3.898 1.455 2.92s.626-4.765-2.895-3.575z" class="C"/><g class="B"><path d="M93.872 8.74c-.02 0-.034-.01-.048-.024-.02-.024-.014-.063.01-.087s.636-.49 1.248-.54c.03-.005.063.024.063.053s-.024.063-.058.063c-.573.048-1.18.51-1.185.516-.005.014-.02.02-.03.02z"/><path d="M94.44 8.398c-.02 0-.04-.01-.053-.03-.713-1.238.13-3.3.164-3.397.014-.03.048-.043.077-.034s.043.048.034.077c-.01.02-.853 2.105-.173 3.29.014.03.005.067-.024.082 0 .01-.01.01-.024.01z"/><path d="M94.715 8.2c-.03 0-.053-.02-.058-.048-.323-1.373.202-2.958.212-2.973.01-.034.043-.048.077-.04s.048.043.038.077c-.005.014-.52 1.566-.207 2.905.01.034-.014.063-.043.072zm-7.93 24.74c-.024 0-.043-.01-.053-.034-.64-1.248-3.262-1.87-3.3-1.88s-.053-.04-.043-.072.043-.053.072-.043c.1.024 2.703.64 3.368 1.942.014.03.005.068-.024.082-.014.005-.024.005-.03.005z"/><path d="M83.234 31.442c-.048-.014-.067-.048-.058-.082.01-.024.198-.564.44-.968.014-.03.053-.04.082-.02s.038.053.02.082c-.236.395-.43.944-.43.95-.005.024-.03.04-.053.04z"/><path d="M86.944 32.67c-.024 0-.043-.014-.058-.038-.535-1.262-3.213-1.942-3.238-1.95-.034-.01-.053-.038-.043-.072s.038-.053.072-.043c.11.03 2.76.703 3.32 2.02.014.03 0 .067-.034.077 0 .01-.01.01-.02.01z"/></g><path d="M84.188 5.897c-.03 0-.058-.024-.058-.053s.02-.063.053-.067c.997-.125 1.06-1.084 1.123-2.1.043-.732.092-1.484.487-1.985.26-.332.578-.52.944-.56.742-.072 1.402.477 1.43.5s.03.058.01.087-.058.03-.087.01c-.005-.005-.66-.544-1.344-.472-.333.034-.622.207-.862.5-.37.472-.42 1.2-.462 1.922-.063 1.02-.125 2.077-1.224 2.2zm6.798-.53c-.01 0-.014 0-.024-.005-.03-.014-.048-.048-.034-.077s.988-2.558-.766-3.84c-.573-.42-1.012-.564-1.272-.42-.342.193-.3.838-.3.843.005.034-.02.063-.053.067s-.063-.02-.067-.053-.063-.727.347-.96c.303-.173.776-.03 1.402.424 1.83 1.335.82 3.955.8 3.98s-.03.04-.053.04zM84.043 10.7a.09.09 0 0 1-.034-.01c-.03-.02-.034-.058-.014-.082.12-.173.164-.318.135-.443-.058-.23-.37-.385-.675-.535-.328-.16-.66-.328-.727-.607-.04-.17.024-.352.193-.564.458-.578.4-.694.183-1.137-.212-.434-.56-1.15-.708-2.818-.082-.9.145-1.677.675-2.28C84.173.96 86.26.858 86.28.858c.038 0 .063.024.063.058s-.024.063-.058.063c-.02 0-2.052.1-3.122 1.32-.506.573-.723 1.3-.646 2.187.145 1.643.5 2.356.694 2.775.222.458.308.63-.198 1.267-.144.183-.198.332-.17.463.048.222.36.376.66.525.328.16.665.328.737.612.043.164-.01.337-.15.544-.01.01-.03.02-.048.02z" fill="#524f79"/><path d="M85.46 5.897c-.02 0-.04-.01-.048-.024-.02-.03-.01-.063.014-.082.053-.04.154-.063.29-.096.525-.13 1.498-.376 1.566-1.604.024-.448-.01-.814-.038-1.108-.04-.4-.067-.68.096-.862.145-.16.424-.226.954-.226.03-.005.063.024.063.058s-.03.058-.058.058h-.005c-.492 0-.752.058-.867.183-.125.14-.1.4-.067.766.03.3.067.665.043 1.123-.072 1.32-1.142 1.585-1.657 1.715-.116.03-.217.053-.25.077-.014.024-.024.024-.034.024z" class="B"/><path d="M68 93h53.7m-53.662 9.438h53.7" stroke="#6d6d6d" stroke-width=".2" class="J"/><path d="M83.236 62.032c.74 0 1.084-.368 1.084-.796 0-1.028-1.696-.6-1.696-1.284 0-.244.204-.444.68-.444.248 0 .524.072.768.228l.132-.32c-.232-.16-.572-.248-.9-.248-.736 0-1.072.368-1.072.8 0 1.04 1.696.608 1.696 1.292 0 .244-.208.432-.692.432-.36 0-.716-.136-.924-.324l-.148.312c.224.208.644.352 1.072.352zm1.804-2.56a.25.25 0 0 0 .26-.256c0-.136-.112-.244-.26-.244s-.26.112-.26.252.112.248.26.248zM84.848 62h.384v-2.12h-.384V62zm2.78-2.12v.328c-.18-.232-.468-.348-.784-.348-.612 0-1.076.412-1.076 1.024s.464 1.028 1.076 1.028c.304 0 .58-.108.764-.328v.168c0 .48-.228.712-.728.712-.312 0-.62-.108-.816-.276l-.184.296c.232.208.624.316 1.012.316.72 0 1.1-.34 1.1-1.088V59.88h-.364zm-.74 1.696c-.428 0-.732-.284-.732-.692s.304-.688.732-.688.728.276.728.688-.304.692-.728.692zm2.97-1.716c-.336 0-.608.124-.764.34v-.32h-.368V62h.384v-1.092c0-.46.264-.704.672-.704.364 0 .572.204.572.62V62h.384v-1.22c0-.624-.364-.92-.88-.92zm2.857-.388a.25.25 0 0 0 .26-.256c0-.136-.112-.244-.26-.244s-.26.112-.26.252.112.248.26.248zM92.524 62h.384v-2.12h-.384V62zm2.25-2.14c-.336 0-.608.124-.764.34v-.32h-.368V62h.384v-1.092c0-.46.264-.704.672-.704.364 0 .572.204.572.62V62h.384v-1.22c0-.624-.364-.92-.88-.92zm5.53.02l-.632 1.696-.628-1.696h-.324l-.64 1.688-.616-1.688h-.364l.788 2.12h.368l.62-1.608.612 1.608h.368l.792-2.12h-.344zm.926-.408a.25.25 0 0 0 .26-.256c0-.136-.112-.244-.26-.244s-.26.112-.26.252.112.248.26.248zM101.036 62h.384v-2.12h-.384V62zm2.19-.4c-.08.064-.188.1-.3.1-.212 0-.332-.128-.332-.356v-1.148h.608v-.316h-.608v-.464h-.384v.464h-.36v.316h.36v1.164c0 .428.244.664.672.664.172 0 .348-.048.464-.148l-.12-.276zm1.716-1.74c-.324 0-.588.116-.748.32v-1.148h-.384V62h.384v-1.092c0-.46.264-.704.672-.704.364 0 .572.204.572.62V62h.384v-1.22c0-.624-.364-.92-.88-.92z" fill="#2d2d2d"/><path d="M68.615 90.74v-.678h1.053v-.255h-1.053v-.645h1.182v-.26h-1.482V91h1.524v-.26h-1.224zm3.657-1.344c-.27 0-.492.114-.612.294-.105-.198-.31-.294-.552-.294s-.435.1-.55.252V89.4h-.276V91h.288v-.82c0-.345.19-.528.477-.528.26 0 .41.153.41.465V91h.288v-.82c0-.345.19-.528.477-.528.26 0 .41.153.41.465V91h.288v-.915c0-.468-.264-.7-.65-.7zm1.76 0c-.255 0-.492.072-.657.204l.12.216c.123-.105.315-.17.504-.17.285 0 .426.14.426.384v.057h-.456c-.474 0-.64.2-.64.465 0 .276.228.468.588.468.25 0 .426-.084.522-.228v.2h.273v-.96c0-.435-.246-.645-.68-.645zm-.066 1.4c-.22 0-.35-.1-.35-.258 0-.135.08-.246.366-.246h.444v.222c-.072.183-.243.282-.46.282zm1.424-1.692c.114 0 .195-.084.195-.192 0-.102-.084-.183-.195-.183s-.195.084-.195.19.084.186.195.186zM75.246 91h.288v-1.6h-.288V91zm.838 0h.288v-2.226h-.288V91zm1.287.3h.26l1-2.826h-.26l-1 2.826zm4.494-.3l-.003-2.1h-.246l-.864 1.476-.876-1.476h-.246V91h.288v-1.52l.76 1.266h.138l.76-1.275.003 1.53h.288zm1.27.018a.79.79 0 0 0 .825-.813c0-.474-.348-.8-.825-.8s-.828.336-.828.8.35.813.828.813zm0-.252c-.306 0-.537-.222-.537-.56s.23-.558.537-.558a.52.52 0 0 1 .534.558c0 .34-.228.56-.534.56zm2.066-1.37c-.225 0-.423.084-.555.255v-.876h-.288V91h.276v-.252c.13.18.333.27.567.27a.77.77 0 0 0 0-1.623zm-.024 1.37c-.303 0-.534-.222-.534-.56s.23-.558.534-.558.537.22.537.558-.23.56-.537.56zm1.37-1.662c.114 0 .195-.084.195-.192 0-.102-.084-.183-.195-.183s-.195.084-.195.19.084.186.195.186zM86.402 91h.288v-1.6h-.288V91zm.838 0h.288v-2.226h-.288V91zm2.275-.786c0-.49-.327-.82-.786-.82s-.798.34-.798.8.342.813.855.813c.264 0 .483-.1.627-.258l-.16-.186c-.117.13-.273.192-.46.192-.315 0-.54-.186-.576-.465h1.3l.006-.087zm-.786-.576c.28 0 .48.19.5.456h-1.02c.03-.27.234-.456.5-.456z" class="H"/><path d="M78.797 121.16v-.26h-1.482v2.1h.3v-.85h1.053v-.258h-1.053v-.732h1.182zm1.01 1.857a.79.79 0 0 0 .825-.813c0-.474-.348-.8-.825-.8s-.828.336-.828.8.35.813.828.813zm0-.252c-.306 0-.537-.222-.537-.56s.23-.558.537-.558a.52.52 0 0 1 .534.558c0 .34-.228.56-.534.56zm1.5-1.09v-.267h-.276v1.6h.288v-.792c0-.348.192-.537.5-.537l.066.003v-.28c-.28 0-.477.096-.58.282zm2.167-.267v.246c-.135-.174-.35-.26-.588-.26-.46 0-.807.31-.807.768s.348.77.807.77c.228 0 .435-.08.573-.246v.126c0 .36-.17.534-.546.534a.97.97 0 0 1-.612-.207l-.138.222c.174.156.468.237.76.237.54 0 .825-.255.825-.816V121.4h-.273zm-.555 1.272c-.32 0-.55-.213-.55-.52s.228-.516.55-.516.546.207.546.516-.228.52-.546.52zm2.06.336a.79.79 0 0 0 .825-.813c0-.474-.348-.8-.825-.8s-.828.336-.828.8.35.813.828.813zm0-.252c-.306 0-.537-.222-.537-.56s.23-.558.537-.558a.52.52 0 0 1 .534.558c0 .34-.228.56-.534.56zm2.027-.066c-.06.048-.14.075-.225.075-.16 0-.25-.096-.25-.267v-.86h.456v-.237h-.456v-.348h-.288v.348h-.27v.237h.27v.873a.45.45 0 0 0 .504.498c.13 0 .26-.036.348-.11l-.1-.207zm2.37-1.3l-.55 1.272-.555-1.272h-.3l.702 1.587-.05.11c-.078.183-.165.246-.303.246-.108 0-.207-.042-.285-.117l-.123.216c.1.096.255.147.408.147.243 0 .426-.105.567-.44l.77-1.75h-.282zm1.188 1.608a.79.79 0 0 0 .825-.813c0-.474-.348-.8-.825-.8s-.828.336-.828.8.35.813.828.813zm0-.252c-.306 0-.537-.222-.537-.56s.23-.558.537-.558a.52.52 0 0 1 .534.558c0 .34-.228.56-.534.56zm2.417-1.356v.822c0 .342-.192.528-.492.528-.273 0-.43-.156-.43-.468v-.882h-.288v.915a.62.62 0 0 0 .684.693c.225 0 .423-.093.54-.258v.24h.273v-1.6h-.288zm1.112.267v-.267h-.276v1.6h.288v-.792c0-.348.192-.537.5-.537l.066.003v-.28c-.28 0-.477.096-.58.282zm2.603-.282c-.234 0-.438.1-.567.267v-.252h-.276v2.172h.288v-.822c.132.17.33.258.555.258a.77.77 0 0 0 0-1.623zm-.024 1.37c-.303 0-.534-.222-.534-.56s.23-.558.534-.558.537.222.537.558-.23.56-.537.56zm1.8-1.37c-.255 0-.492.072-.657.204l.12.216c.123-.105.315-.17.504-.17.285 0 .426.14.426.384v.057H98.4c-.474 0-.64.2-.64.465 0 .276.228.468.588.468.25 0 .426-.084.522-.228v.2h.273v-.96c0-.435-.246-.645-.68-.645zm-.066 1.4c-.22 0-.35-.1-.35-.258 0-.135.08-.246.366-.246h.444v.222c-.072.183-.243.282-.46.282zm1.736.222c.423 0 .687-.183.687-.47 0-.618-1.008-.312-1.008-.687 0-.126.123-.22.375-.22a.83.83 0 0 1 .459.126l.123-.228c-.138-.1-.372-.144-.58-.144-.408 0-.663.192-.663.477 0 .633 1.005.324 1.005.68 0 .135-.11.216-.378.216-.207 0-.423-.07-.558-.165l-.12.228c.132.105.393.186.657.186zm1.503 0c.423 0 .687-.183.687-.47 0-.618-1.008-.312-1.008-.687 0-.126.123-.22.375-.22a.83.83 0 0 1 .459.126l.123-.228c-.138-.1-.372-.144-.58-.144-.408 0-.663.192-.663.477 0 .633 1.005.324 1.005.68 0 .135-.11.216-.378.216-.207 0-.423-.07-.558-.165l-.12.228c.132.105.393.186.657.186zm3.166-1.608l-.474 1.272-.47-1.272h-.243l-.48 1.266-.462-1.266h-.273l.59 1.6h.276l.465-1.206.46 1.206h.276l.594-1.6h-.258zm1.187 1.608a.79.79 0 0 0 .825-.813c0-.474-.348-.8-.825-.8s-.828.336-.828.8.35.813.828.813zm0-.252c-.306 0-.537-.222-.537-.56s.23-.558.537-.558a.52.52 0 0 1 .534.558c0 .34-.228.56-.534.56zm1.5-1.09v-.267h-.276v1.6h.288v-.792c0-.348.192-.537.5-.537l.066.003v-.28c-.28 0-.477.096-.58.282zm2.132-.903v.876c-.132-.17-.33-.255-.555-.255a.77.77 0 0 0 0 1.623c.234 0 .438-.1.567-.27V123h.276v-2.226h-.288zm-.53 1.992c-.306 0-.537-.222-.537-.56s.23-.558.537-.558.534.22.534.558-.23.56-.534.56zm1.775-.43h.3c0-.393.53-.426.53-.927 0-.333-.28-.534-.71-.534-.35 0-.612.123-.777.336l.22.156c.12-.153.294-.237.537-.237.27 0 .43.132.43.324 0 .345-.528.41-.528.882zm.153.68a.19.19 0 0 0 .192-.192c0-.108-.08-.192-.192-.192s-.195.084-.195.192a.19.19 0 0 0 .195.192z" class="I"/><path d="M76.82 128.9v1.566l-1.26-1.566h-.246v2.1h.3v-1.566l1.26 1.566h.246v-2.1h-.3zm2.324 1.314c0-.49-.327-.82-.786-.82s-.798.34-.798.8.342.813.855.813c.264 0 .483-.1.627-.258l-.16-.186c-.117.13-.273.192-.46.192-.315 0-.54-.186-.576-.465h1.3l.006-.087zm-.786-.576c.28 0 .48.19.5.456h-1.02c.03-.27.234-.456.5-.456zm3.305-.228l-.474 1.272-.47-1.272h-.243l-.48 1.266-.462-1.266h-.273l.59 1.6h.276l.465-1.206.46 1.206h.276l.594-1.6h-.258zm2.16 1.3c-.06.048-.14.075-.225.075-.16 0-.25-.096-.25-.267v-.86h.456v-.237h-.456v-.348h-.288v.348h-.27v.237h.27v.873a.45.45 0 0 0 .504.498c.13 0 .26-.036.348-.11l-.1-.207zm1.066.318a.79.79 0 0 0 .825-.813c0-.474-.348-.8-.825-.8s-.828.336-.828.8.35.813.828.813zm0-.252c-.306 0-.537-.222-.537-.56s.23-.558.537-.558a.52.52 0 0 1 .534.558c0 .34-.228.56-.534.56zm4.018-1.37c-.27 0-.492.114-.612.294-.105-.198-.31-.294-.552-.294s-.435.1-.55.252v-.237h-.276v1.6h.288v-.82c0-.345.19-.528.477-.528.26 0 .41.153.41.465V131h.288v-.82c0-.345.19-.528.477-.528.26 0 .41.153.41.465V131h.288v-.915c0-.468-.264-.7-.65-.7zm2.277.015l-.55 1.272-.555-1.272h-.3l.702 1.587-.05.11c-.078.183-.165.246-.303.246-.108 0-.207-.042-.285-.117l-.123.216c.1.096.255.147.408.147.243 0 .426-.105.567-.44l.77-1.75h-.282zm1.412-.5h-.82v2.1h.3v-.636h.52c.546 0 .876-.276.876-.732s-.33-.732-.876-.732zm-.01 1.203h-.5v-.942h.5c.384 0 .585.17.585.47s-.2.47-.585.47zm2.79.897h.315l-.954-2.1h-.297l-.95 2.1h.31l.23-.525h1.116l.23.525zm-1.242-.765l.453-1.03.453 1.03h-.906zm2.182.765h.297v-1.84h.72v-.26h-1.737v.26h.72V131zm1.745-.663h.3c0-.393.53-.426.53-.927 0-.333-.28-.534-.71-.534-.35 0-.612.123-.777.336l.22.156c.12-.153.294-.237.537-.237.27 0 .43.132.43.324 0 .345-.528.41-.528.882zm.153.68a.19.19 0 0 0 .192-.192c0-.108-.08-.192-.192-.192s-.195.084-.195.192a.19.19 0 0 0 .195.192z" class="H"/><path d="M101.948 131l-.498-.705a.66.66 0 0 0 .462-.663c0-.456-.33-.732-.876-.732h-.82v2.1h.3v-.64h.52l.132-.006.453.645h.327zm-.92-.894h-.5v-.945h.5c.384 0 .585.17.585.47s-.2.474-.585.474zm2.765.108c0-.49-.327-.82-.786-.82s-.798.34-.798.8.342.813.855.813c.264 0 .483-.1.627-.258l-.16-.186c-.117.13-.273.192-.46.192-.315 0-.54-.186-.576-.465h1.3l.006-.087zm-.786-.576c.28 0 .48.19.5.456h-1.02c.03-.27.234-.456.5-.456zm2.434-.228v.246c-.135-.174-.35-.26-.588-.26-.46 0-.807.31-.807.768s.348.77.807.77c.228 0 .435-.08.573-.246v.126c0 .36-.17.534-.546.534a.97.97 0 0 1-.612-.207l-.138.222c.174.156.468.237.76.237.54 0 .825-.255.825-.816V129.4h-.273zm-.555 1.272c-.32 0-.55-.213-.55-.52s.228-.516.55-.516.546.207.546.516-.228.52-.546.52zm1.522-1.578c.114 0 .195-.084.195-.192 0-.102-.084-.183-.195-.183s-.195.084-.195.19.084.186.195.186zm-.144 1.896h.288v-1.6h-.288v1.6zm1.294.018c.423 0 .687-.183.687-.47 0-.618-1.008-.312-1.008-.687 0-.126.123-.22.375-.22a.83.83 0 0 1 .459.126l.123-.228c-.138-.1-.372-.144-.58-.144-.408 0-.663.192-.663.477 0 .633 1.005.324 1.005.68 0 .135-.11.216-.378.216-.207 0-.423-.07-.558-.165l-.12.228c.132.105.393.186.657.186zm1.85-.318c-.06.048-.14.075-.225.075-.16 0-.25-.096-.25-.267v-.86h.456v-.237h-.456v-.348h-.288v.348h-.27v.237h.27v.873a.45.45 0 0 0 .504.498c.13 0 .26-.036.348-.11l-.1-.207zm1.823-.486c0-.49-.327-.82-.786-.82s-.798.34-.798.8.342.813.855.813c.264 0 .483-.1.627-.258l-.16-.186c-.117.13-.273.192-.46.192-.315 0-.54-.186-.576-.465h1.3l.006-.087zm-.786-.576c.28 0 .48.19.5.456h-1.02c.03-.27.234-.456.5-.456zm1.46.04v-.267h-.276v1.6h.288v-.792c0-.348.192-.537.5-.537l.066.003v-.28c-.28 0-.477.096-.58.282z" class="I"/><path d="M68.815 99.092h-.82v2.1h.3v-.636h.52c.546 0 .876-.276.876-.732s-.33-.732-.876-.732zm-.01 1.203h-.5v-.942h.5c.384 0 .585.17.585.47s-.2.47-.585.47zm1.848-.708c-.255 0-.492.072-.657.204l.12.216c.123-.105.315-.17.504-.17.285 0 .426.14.426.384v.057h-.456c-.474 0-.64.2-.64.465 0 .276.228.468.588.468.25 0 .426-.084.522-.228v.2h.273v-.96c0-.435-.246-.645-.68-.645zm-.066 1.4c-.22 0-.35-.1-.35-.258 0-.135.08-.246.366-.246h.444v.222c-.072.183-.243.282-.46.282zm1.736.222c.423 0 .687-.183.687-.47 0-.618-1.008-.312-1.008-.687 0-.126.123-.22.375-.22a.83.83 0 0 1 .459.126l.123-.228c-.138-.1-.372-.144-.58-.144-.408 0-.663.192-.663.477 0 .633 1.005.324 1.005.68 0 .135-.11.216-.378.216-.207 0-.423-.07-.558-.165l-.12.228c.132.105.393.186.657.186zm1.503 0c.423 0 .687-.183.687-.47 0-.618-1.008-.312-1.008-.687 0-.126.123-.22.375-.22a.83.83 0 0 1 .459.126l.123-.228c-.138-.1-.372-.144-.58-.144-.408 0-.663.192-.663.477 0 .633 1.005.324 1.005.68 0 .135-.11.216-.378.216-.207 0-.423-.07-.558-.165l-.12.228c.132.105.393.186.657.186zm3.166-1.608l-.474 1.272-.47-1.272h-.243l-.48 1.266-.462-1.266H74.6l.59 1.6h.276l.465-1.206.46 1.206h.276l.594-1.6h-.258zm1.187 1.608a.79.79 0 0 0 .825-.813c0-.474-.348-.8-.825-.8s-.828.336-.828.8.35.813.828.813zm0-.252c-.306 0-.537-.222-.537-.56s.23-.558.537-.558.534.22.534.558-.228.56-.534.56zm1.5-1.09v-.267h-.276v1.6h.288v-.792c0-.348.192-.537.5-.537l.066.003v-.28c-.28 0-.477.096-.58.282zm2.13-.903v.876c-.132-.17-.33-.255-.555-.255a.77.77 0 1 0 0 1.623c.234 0 .438-.1.567-.27v.252h.276v-2.226h-.288zm-.53 1.992c-.306 0-.537-.222-.537-.56s.23-.558.537-.558.534.22.534.558-.23.56-.534.56z" class="H"/><path d="M121.7 107.13H68v7.507h53.7v-7.507z" class="I"/><path d="M89.376 112h1.984v-.44h-1.464v-2.36h-.52v2.8zm3.287.028c.664 0 1.14-.456 1.14-1.096s-.476-1.092-1.14-1.092c-.656 0-1.136.452-1.136 1.092s.48 1.096 1.136 1.096zm0-.428c-.36 0-.632-.26-.632-.668s.272-.668.632-.668.636.26.636.668-.272.668-.636.668zm3.262-1.736v.284c-.176-.212-.44-.308-.74-.308-.612 0-1.08.408-1.08 1.028s.468 1.036 1.08 1.036c.288 0 .54-.092.716-.284v.112c0 .432-.208.648-.68.648-.296 0-.6-.1-.788-.256l-.224.376c.244.2.64.304 1.04.304.748 0 1.152-.352 1.152-1.128v-1.812h-.476zm-.664 1.616c-.38 0-.652-.248-.652-.612s.272-.604.652-.604.648.244.648.604-.272.612-.648.612zm2.05-1.968c.188 0 .32-.136.32-.312 0-.164-.136-.288-.32-.288s-.32.132-.32.3.136.3.32.3zM97.06 112h.5v-2.136h-.5V112zm2.368-2.16c-.312 0-.572.104-.736.3v-.276h-.476V112h.5v-1.08c0-.428.24-.644.596-.644.32 0 .508.184.508.564V112h.5v-1.224c0-.644-.38-.936-.892-.936z" fill="#fff"/><path d="M93.862 66.24H69.016v7.082h24.846V66.24zm26.86 0H95.876v7.082h24.846V66.24z" stroke="#231f20" stroke-width=".3" class="J"/><path d="M78.797 69.16v-.26h-1.482V71h.3v-.85h1.053v-.258h-1.053v-.732h1.182zm.904.234c-.255 0-.492.072-.657.204l.12.216c.123-.105.315-.17.504-.17.285 0 .426.14.426.384v.057h-.456c-.474 0-.64.2-.64.465 0 .276.228.468.588.468.25 0 .426-.084.522-.228v.2h.273v-.96c0-.435-.246-.645-.68-.645zm-.066 1.4c-.22 0-.35-.1-.35-.258 0-.135.08-.246.366-.246h.444v.222c-.072.183-.243.282-.46.282zm1.982.222c.285 0 .522-.12.648-.342l-.22-.138c-.102.156-.258.228-.432.228-.312 0-.546-.216-.546-.56 0-.34.234-.558.546-.558.174 0 .33.072.432.228l.22-.14c-.126-.222-.363-.34-.648-.34-.49 0-.84.336-.84.8s.35.813.84.813zm2.434-.804c0-.49-.327-.82-.786-.82s-.798.34-.798.8.342.813.855.813c.264 0 .483-.1.627-.258l-.16-.186c-.117.13-.273.192-.46.192-.315 0-.54-.186-.576-.465h1.3l.006-.087zm-.786-.576c.28 0 .48.19.5.456h-1.02c.03-.27.234-.456.5-.456zm2.03-.243c-.225 0-.423.084-.555.255v-.876h-.288V71h.276v-.252c.13.18.333.27.567.27a.77.77 0 0 0 .804-.813.77.77 0 0 0-.804-.81zm-.024 1.37c-.303 0-.534-.222-.534-.56s.23-.558.534-.558.537.22.537.558-.23.56-.537.56zm1.907.252a.79.79 0 0 0 .825-.813c0-.474-.348-.8-.825-.8s-.828.336-.828.8.35.813.828.813zm0-.252c-.306 0-.537-.222-.537-.56s.23-.558.537-.558a.52.52 0 0 1 .534.558c0 .34-.228.56-.534.56zm1.904.252a.79.79 0 0 0 .825-.813c0-.474-.348-.8-.825-.8s-.828.336-.828.8.35.813.828.813zm0-.252c-.306 0-.537-.222-.537-.56s.23-.558.537-.558a.52.52 0 0 1 .534.558c0 .34-.228.56-.534.56zM91.52 71h.354l-.735-.933.67-.657h-.348l-.867.792v-1.428h-.288V71h.288v-.435l.33-.306.597.74z" fill="#757575"/><g fill="#35589e"><path d="M75.554 68.236v3.088a.64.64 0 0 1-.641.641h-1.03l-.255-.255h-.255l-.255.255H71.83a.64.64 0 0 1-.641-.641v-3.088a.64.64 0 0 1 .641-.641h3.088a.64.64 0 0 1 .636.641z"/><path d="M75.554 68.236v3.088a.64.64 0 0 1-.641.641h-1.03l-.255-.255h-.13v-4.1h1.416c.356-.005.64.284.64.636z"/></g><g fill="#fff"><path d="M73.882 69.132v.51h.766l-.13.766h-.64v1.55h-.766v-1.55h-.51v-.766h.51v-.51c0-.284.154-.53.385-.665a.79.79 0 0 1 .385-.101h.766v.766h-.766z"/><path d="M73.882 69.132v.51h.766l-.13.766h-.64v1.55h-.385v-3.493c.11-.063.246-.1.385-.1h.766v.766h-.76z"/></g><path d="M107.77 70.622a.89.89 0 0 1-.492.135c-.483 0-.834-.345-.834-.807 0-.468.35-.807.837-.807a.83.83 0 0 1 .609.243l.186-.186c-.192-.213-.474-.324-.807-.324-.65 0-1.125.453-1.125 1.074s.474 1.074 1.12 1.074c.294 0 .585-.1.795-.267v-.82h-.288v.684zm1.5.396a.79.79 0 0 0 .825-.813c0-.474-.348-.8-.825-.8s-.828.336-.828.8.35.813.828.813zm0-.252c-.306 0-.537-.222-.537-.56s.23-.558.537-.558a.52.52 0 0 1 .534.558c0 .34-.228.56-.534.56zm1.905.252a.79.79 0 0 0 .825-.813c0-.474-.348-.8-.825-.8s-.828.336-.828.8.35.813.828.813zm0-.252c-.306 0-.537-.222-.537-.56s.23-.558.537-.558a.52.52 0 0 1 .534.558c0 .34-.228.56-.534.56zm2.47-1.356v.246c-.135-.174-.35-.26-.588-.26-.46 0-.807.31-.807.768s.348.77.807.77c.228 0 .435-.08.573-.246v.126c0 .36-.17.534-.546.534a.97.97 0 0 1-.612-.207l-.138.222c.174.156.468.237.76.237.54 0 .825-.255.825-.816V69.4h-.273zm-.555 1.272c-.32 0-.55-.213-.55-.52s.228-.516.55-.516.546.207.546.516-.228.52-.546.52zm1.378.318h.288v-2.226h-.288V71zm2.275-.786c0-.49-.327-.82-.786-.82s-.798.34-.798.8.342.813.855.813c.264 0 .483-.1.627-.258l-.16-.186c-.117.13-.273.192-.46.192-.315 0-.54-.186-.576-.465h1.3l.006-.087zm-.786-.576c.28 0 .48.19.5.456h-1.02c.03-.27.234-.456.5-.456z" fill="#757575"/><path d="M100.756 70.226l-.15.554-.545.01a2.11 2.11 0 0 1-.255-1.012c0-.352.087-.69.236-.983l.482.087.212.482a1.32 1.32 0 0 0-.067.414 1.35 1.35 0 0 0 .086.448z" fill="#fbbb00"/><path d="M104.037 69.382c.024.13.04.26.04.4 0 .154-.015.303-.048.443a2.16 2.16 0 0 1-.752 1.219l-.607-.03-.087-.54c.25-.145.443-.376.55-.65H102v-.843h2.047z" fill="#518ef8"/><path d="M103.276 71.444a2.12 2.12 0 0 1-1.335.467 2.13 2.13 0 0 1-1.879-1.123l.69-.564a1.27 1.27 0 0 0 1.186.824 1.26 1.26 0 0 0 .64-.173l.7.57z" fill="#28b446"/><path d="M103.305 68.14l-.69.564c-.193-.12-.424-.193-.67-.193a1.27 1.27 0 0 0-1.199.858l-.694-.57c.356-.684 1.07-1.15 1.893-1.15.516 0 .988.183 1.36.49z" fill="#f14336"/><g class="H"><path d="M93.263 77.93c.64 0 1.113-.456 1.113-1.074s-.474-1.074-1.113-1.074c-.645 0-1.12.46-1.12 1.074s.474 1.074 1.12 1.074zm0-.267a.79.79 0 0 1-.82-.807c0-.465.348-.807.82-.807.465 0 .813.342.813.807s-.348.807-.813.807zm3.302.243l-.498-.705a.66.66 0 0 0 .462-.663c0-.456-.33-.732-.876-.732h-.82v2.1h.3v-.64h.52l.132-.006.453.645h.327zm-.92-.894h-.5v-.945h.5c.384 0 .585.17.585.47s-.2.474-.585.474zm22.32 23.696c.014.01.03.015.043.015.02 0 .044-.01.053-.024.024-.03.02-.073-.01-.097a1.47 1.47 0 0 1-.164-.144l-.516-.516.535-.535a1.88 1.88 0 0 1 1.946-.458c.04.01.077-.01.087-.043s-.01-.077-.043-.087c-.737-.25-1.542-.058-2.1.492l-.63.63.616.617.174.15zm2.727-1.408c-.097-.096-.198-.178-.3-.255-.033-.02-.077-.014-.096.02s-.014.077.02.096c.102.067.198.15.3.236l.516.516-.535.535a1.9 1.9 0 0 1-1.985.443c-.038-.014-.077.005-.1.044s.004.077.043.1a1.97 1.97 0 0 0 .684.121c.535 0 1.06-.208 1.446-.598l.63-.63-.612-.617z"/><path d="M119.315 100.732c-.15 0-.3-.043-.424-.12a.07.07 0 0 0-.097.024c-.02.034-.01.077.025.096.15.092.322.145.5.145.52 0 .944-.424.944-.944 0-.188-.053-.37-.16-.525-.02-.034-.063-.043-.096-.02s-.04.068-.02.096a.83.83 0 0 1 .135.448.81.81 0 0 1-.809.799zm0-1.61c.144 0 .284.04.4.1a.07.07 0 0 0 .097-.024c.02-.034.01-.077-.024-.096a.94.94 0 0 0-.482-.13c-.52 0-.945.424-.945.944 0 .144.034.284.097.414.01.024.038.04.062.04.01 0 .02 0 .03-.005.034-.02.05-.058.034-.092-.053-.1-.082-.23-.082-.356 0-.443.362-.805.805-.805zm1.685-.925c-.03-.03-.072-.03-.1 0l-3.257 3.257c-.03.03-.03.072 0 .1.014.015.034.02.048.02s.034-.004.048-.02l3.257-3.257c.03-.03.03-.072.005-.1z"/></g><path d="M36.785 82.8s3.07-4.476 7.844-3.17c4.36 1.195 7.073 9.192 1.47 12.26-4.905 2.684-6.32 1.416-8.18 3.34s-2.02 3.464-5.984 3.86c-2.63.265-4.206-1.2-6.215.294s-8.007 4.085-11.49 1.002c-1.484-1.315-1.436-3.242 1.03-3.397 4.018-.25 2.77-3.835 6.037-4.885s3.45.38 5.232-.848 1.56-4.317 4.452-5.545 3.758.043 5.805-2.9z" class="G"/><g class="D"><path d="M41.588 97.764l4.418-.766s-.583-5.073-.106-7.386c.332-1.61-4.312-4.028-4.312-4.028v12.18z"/><path d="M45.982 82.11s3.695 6.885.246 9.14c-2.187 1.43-6.51-5.03-6.33-6.923s5.58-3.98 6.085-2.216z"/><path d="M41.463 87.276s-1.397-1.402-1.638-.414 1.49 2.35 1.956 1.816-.318-1.402-.318-1.402z"/></g><path d="M45.948 81.543s-2.63-.64-3.27 2.843c-.69 3.753-3.99 2.313-3.99 2.313s-1.643-6.653 7.26-5.155z" class="G"/><path d="M43.332 87.33a.3.3 0 0 0 .299-.299.3.3 0 0 0-.299-.299.3.3 0 0 0-.299.299.3.3 0 0 0 .299.299z" class="C"/><path d="M45.736 91.463s-2.284.217-3.758-1.946c-.332-.487.03 2.038 1.248 3.223 1.286 1.253 2.616 1.845 2.616 1.845s-.24-2.322-.106-3.122z" class="E"/><path d="M41.482 88.317c-.03 0-.058-.02-.058-.053-.077-.54-.25-.896-.5-1.03s-.487-.014-.487-.014c-.03.014-.068 0-.082-.03s0-.067.03-.082c.01-.005.3-.14.597.02s.482.53.564 1.118c.005.034-.02.063-.053.067z" class="B"/><path d="M43.674 88.895a.55.55 0 0 0 .549-.549.55.55 0 0 0-.549-.549.55.55 0 0 0-.549.549.55.55 0 0 0 .549.549z" class="E"/><path d="M41.212 88.037c-.02 0-.038-.01-.053-.03-.38-.64-.294-.83-.275-.862s.058-.034.082-.02.034.053.02.082c-.005.01-.058.178.275.737.02.03.01.067-.02.082-.005.01-.014.01-.03.01z" class="B"/><path d="M43.53 85.95c.1.26-.275.096-.612.212s-.525.472-.612.212.1-.564.453-.684c.332-.116.684 0 .77.26zm2.9-1c.092.26-.275.096-.612.212s-.525.472-.612.212.1-.564.453-.684c.332-.1.68 0 .77.26z" class="G"/><path d="M47.003 88.018a.55.55 0 0 0 .549-.549.55.55 0 0 0-.549-.549.55.55 0 0 0-.549.549.55.55 0 0 0 .549.549z" class="E"/><path d="M46.117 87.835c-.063 0-.226-.072-.805-.626-.024-.024-.024-.063 0-.087s.063-.024.087 0c.236.226.52.467.655.56-.072-.197-.332-.708-.588-1.17-.014-.03-.005-.067.024-.082s.067-.005.082.024c.303.544.655 1.22.617 1.33-.005.014-.024.04-.04.043s-.024.01-.034.01zm-.26 1.355c-.347 0-.674-.674-.713-.756-.014-.03 0-.067.03-.082s.068 0 .082.03c.13.28.424.718.622.684.092-.014.26-.14.366-.843.005-.034.034-.058.067-.053s.058.034.048.068c-.092.602-.246.915-.467.944-.01.005-.02.01-.034.01z" class="B"/><path d="M46.18 86.476a.3.3 0 0 0 .299-.299.3.3 0 0 0-.299-.299.3.3 0 0 0-.299.299.3.3 0 0 0 .299.299z" class="C"/><path d="M40.427 86.963a5.63 5.63 0 0 1-.612-.038c-.034-.005-.058-.034-.053-.067s.034-.058.067-.053c2.356.284 2.847-1.04 3.363-2.448.16-.424.318-.867.535-1.257.925-1.667 2-1.648 2.038-1.648s.058.03.058.063-.03.058-.058.058c-.058 0-1.065.024-1.927 1.585-.212.385-.37.82-.53 1.243-.462 1.262-.944 2.563-2.88 2.563zm-17.624 4.663c-.034 0-.058-.024-.058-.058s.024-.063.058-.063c3.512-.096 3.917-1.334 4.38-2.775.154-.472.308-.96.588-1.42 1.07-1.763 3.267-2.255 6.046-2.87l.42-.092c1.56-.347 1.98-1.094 2.472-1.96.443-.78.944-1.672 2.365-2.462 2.987-1.667 5.82-.27 5.85-.255s.043.053.03.082-.053.043-.082.024-2.8-1.383-5.733.255c-1.392.776-1.884 1.648-2.317 2.414-.5.9-.935 1.657-2.55 2.02l-.42.092c-2.756.612-4.93 1.094-5.97 2.82-.27.448-.43.93-.578 1.397-.463 1.42-.896 2.76-4.5 2.857zm-5.868 6.196c-.718 0-1.2-.188-1.204-.188-.03-.014-.048-.048-.034-.077s.048-.043.077-.034c.014.005 1.542.593 3.223-.386.598-.347.906-.906 1.233-1.493.597-1.084 1.224-2.202 3.7-2.076 3.82.198 4.726.077 7.516-1.85 1.325-.915 2.057-2.187 2.698-3.305.727-1.262 1.354-2.356 2.616-2.394 2.36-.068 3.257-1.7 4.047-3.14.9-1.657 1.696-3.088 4.312-1.893.03.014.043.048.03.082s-.048.043-.082.03c-2.515-1.147-3.276.236-4.158 1.84-.8 1.47-1.72 3.132-4.148 3.204-1.195.034-1.778 1.05-2.515 2.332-.65 1.132-1.383 2.4-2.732 3.344-2.823 1.95-3.734 2.072-7.593 1.874-2.4-.125-2.997.964-3.58 2.014-.318.578-.65 1.176-1.277 1.542-.78.453-1.532.578-2.12.578zm4.283 2.13c-.03 0-.053-.02-.058-.043-.01-.034.01-.063.043-.072.024-.005 2.62-.67 4.216-2.48.848-.96 2.158-.805 3.546-.64 1.33.16 2.833.332 4.153-.448 1.2-.703 1.74-1.788 2.226-2.74.63-1.238 1.166-2.313 2.847-2.255 2.862.087 3.204-1.08 3.204-1.1.01-.034.043-.048.072-.043a.06.06 0 0 1 .043.072c-.014.053-.376 1.267-3.324 1.18h-.1c-1.513 0-2.028 1.017-2.626 2.192-.5.968-1.05 2.067-2.27 2.8-1.354.8-2.88.62-4.225.463-1.416-.164-2.635-.308-3.44.602-1.62 1.84-4.25 2.515-4.273 2.52-.015-.01-.02-.005-.024-.005z" fill="#e25526"/><g class="D"><path d="M46 96.998S62.767 93.905 67.094 86.5s6.625-9.356 8.595-9.592c2.64-.313-.944 1.445-2.105 3.435-.954 1.633-4.88 13.33-11.245 16.843s-11.235 5.102-11.235 5.102-6.33-5.02-5.092-5.3zm-8.34.916s-9.958 8.985-20.616 6.3-15.87-2.736-16.92-1.633c-.78.824 2.1.1 4.095.627 1.498.385 13.302 5.082 20.53 5.314s17.634-5.608 17.634-5.608 3.618-9.087-4.722-5z"/><path d="M53.888 123.617s4.086 11.047 3.922 18.053c-.246 10.464-5.015 20.297-3.3 22.234 1.147 1.282 3.406 1.214 2.202 1.7s-5.618-.217-5.618-.217 1.123-14.56.684-19.517c-.37-4.196-5.608-16.795-5.608-16.795s-.954 10.185-6.38 13.687-23.347-5.434-24.3-4.182-.9 1.744-2.173 2 3.305-4.644 3.14-4.697 15.967 2.94 17.7.96 4.413-13.2 4.413-13.2 11.944-1.7 15.316-.005zM38.572 97.764s9.62-1.773 12.04-.708 1.06 12.724 1.06 12.724l-11.87 1.908s-3.705-12.57-1.23-13.924z"/></g><path d="M38.283 105.377s2.68-5.637 12.66-4.67c3.686.357 1.88 17.03 1.88 17.03l-13.46-3.724-1.08-8.638z" fill="#fffaef"/><path d="M50.992 164.77l4.818.477-.014-.452s2.038.66 2.245 1.06-7.034-.1-7.034-.1l-.014-.974zM16.57 135.927l-2.655 4.052.405.197s-1.527 1.503-1.975 1.5 3.358-6.182 3.358-6.182l.867.434z" class="C"/><path d="M39.7 96.93l2 6-.462.298-2.13-6.36s.255.125.602.072zm9.408-.63l2 5.988-.462.3-2.13-6.36s.255.125.602.072z" fill="#fffaef"/><g class="B"><path d="M73.94 79.22c-.024 0-.043-.014-.053-.034-.188-.42-1.15-.51-1.16-.51-.034-.005-.058-.034-.053-.067s.034-.063.067-.053c.043.005 1.04.1 1.258.583.014.03 0 .067-.03.082h-.03z"/><path d="M73.665 78.95c-.01 0-.02-.005-.03-.01-.03-.02-.04-.053-.02-.082.848-1.397 2.843-1.908 2.862-1.913.034-.01.067.01.072.043s-.01.063-.043.072c-.02.005-1.966.5-2.8 1.855a.06.06 0 0 1-.053.034zm-.615-.274c-.014 0-.034-.005-.043-.02-.024-.024-.02-.063.005-.087.067-.058 1.6-1.407 2.67-1.624.034-.005.063.014.072.048s-.014.063-.048.072c-1.026.207-2.602 1.58-2.616 1.595s-.024.014-.038.014z"/></g><path d="M75.207 78.527s-.862.69-.727.867 1.364-.69 1.542-.405-2.255 1.23-2.688 1.865.318-1.812 1.874-2.327z" class="D"/><g class="B"><path d="M3.47 102.756c-.03 0-.053-.02-.058-.048 0-.005-.106-.627-.217-.844-.014-.028-.005-.067.024-.08s.067-.005.082.024c.12.236.226.852.23.876.005.034-.02.063-.048.068z"/><path d="M.063 102.756c-.03 0-.058-.024-.058-.053-.005-.034.02-.063.053-.068.106-.014 2.63-.35 3.42-.245.034.004.058.033.053.067s-.034.058-.067.053c-.78-.1-3.363.24-3.392.246z"/><path d="M.472 102.414c-.03 0-.053-.02-.058-.044-.01-.033.01-.062.043-.072.014-.005 1.643-.434 2.9-.188.034.005.053.04.048.072s-.04.05-.072.05c-1.238-.246-2.838.183-2.857.187z"/></g><path d="M50.564 140.865s4.8.015 7.25-1.522v-1.397h-8.23l.978 2.92zm-16.222-4.278s3.43 2.563 8.335 3.213l1.185-2.177-8.557-2.95c0-.005-.776 1.667-.964 1.913z" class="E"/><path d="M31.336 133.166s6.38 4.08 11.577 4.977 15.432.3 16.29-.723c0 0-1.137-13.73-6.19-24.552 0 0-10.28.29-13.65 1.147 0 0-7.57 15.596-8.027 19.15z" class="F"/><g fill="#1f87c6"><path d="M86.346 52.366l.063-.492.275-1.416a1.09 1.09 0 0 1 .039-.116c.067-.193.125-.23.332-.23.318 0 .352.02.332.337-.02.3-.072.573-.106.858-.005.04 0 .082 0 .12.01.005.014.005.024.01l.058-.082.57-.925c.053-.087.13-.16.207-.23.1-.1.246-.1.385-.067.13.038.188.125.193.27.014.308-.092.597-.15.9-.01.043-.01.1-.014.135.01.005.024.005.034.01l.058-.087.68-1.03c.092-.135.217-.23.405-.212s.318.13.303.323l-.106 1.07-.034.646c0 .1.01.236.12.3s.222-.024.318-.082c.03-.02.043-.072.043-.1a3.77 3.77 0 0 1 .4-1.681.57.57 0 0 1 .472-.337c.24-.024.36.125.3.356l-.164.544c-.1.366-.17.732-.154 1.113a.64.64 0 0 0 .029.188c.063.202.26.25.42.106.14-.125.226-.294.275-.467l.24-.978.087-.357a.65.65 0 0 1 .626-.453c.164.01.23.087.202.246l-.54 3.214c-.1.593-.255 1.17-.564 1.696-.197.333-.448.607-.814.747a1.38 1.38 0 0 1-.776.053c-.308-.068-.487-.366-.434-.7.043-.25.164-.467.303-.675.352-.525.795-.964 1.262-1.383.072-.063.14-.135.222-.188.13-.087.13-.227.178-.38l-.173.13c-.24.164-.5.28-.795.17a.98.98 0 0 1-.308-.193c-.077-.072-.125-.072-.207-.015-.236.154-.5.246-.78.24-.12-.005-.217-.043-.265-.145-.058-.135-.13-.28-.135-.424l.005-1.132c0-.058.01-.12.01-.178 0-.01-.01-.014-.024-.043-.024.048-.048.077-.063.116l-.593 1.503a.42.42 0 0 1-.434.303c-.154 0-.246-.048-.284-.197a1.45 1.45 0 0 1-.053-.472l.15-1.127c.005-.03.005-.063.01-.092-.01-.005-.02-.01-.034-.014l-.082.1-.545 1.123-.23.467c-.082.17-.222.222-.395.202-.164-.014-.255-.12-.3-.27-.024-.082-.038-.17-.058-.25l-.005-.352zm5.38 1.74c-.01-.005-.014-.01-.024-.014l-.048.03a3.63 3.63 0 0 0-.973 1.122c-.04.072-.067.154-.087.23-.02.1.034.16.14.16.053 0 .12-.005.164-.034.12-.087.246-.178.337-.3.198-.246.308-.544.4-.843l.1-.36zm2.18-2.58a2.13 2.13 0 0 1-.347-.771c-.308-1.36.63-2.655 2.02-2.794 1.248-.12 2.38.838 2.486 2.076.096 1.2-.752 2.298-1.995 2.457a2.22 2.22 0 0 1-1.147-.149c-.082-.034-.116-.072-.092-.164l.106-.56c.01-.04.024-.072.043-.12l.096.048a1.51 1.51 0 0 0 1.754-.236 1.5 1.5 0 0 0-1.643-2.443 1.49 1.49 0 0 0-.891 1.445c.005.12.043.236.058.352.005.038.01.092-.014.12-.173.207-.303.434-.405.684 0 .02-.01.03-.03.053zm5.825-1.797h.275c.12 0 .16.034.183.154l.53 3.252a.76.76 0 0 1 .01.11c0 .087-.043.13-.13.13h-.428a.14.14 0 0 1-.15-.13l-.1-.5c-.014-.077-.043-.106-.125-.106h-1.36a.14.14 0 0 0-.135.077l-.313.52a.25.25 0 0 1-.246.14c-.125-.005-.246 0-.37 0-.17 0-.202-.063-.116-.212l.5-.867 1.392-2.375c.077-.135.17-.198.337-.198l.226.005zm-1.06 2.303c.034.01.043.015.053.015h1.04c.087 0 .087-.043.077-.1l-.178-1.123-.058-.347c-.01 0-.02 0-.03-.005l-.906 1.57z"/><path d="M101.474 50.37h-.906c-.144 0-.173-.038-.15-.173l.068-.313c.028-.116.072-.154.187-.154h2.62c.1 0 .145.043.126.15l-.073.342c-.03.116-.072.15-.188.15h-.8a.12.12 0 0 0-.144.116l-.58 2.688c-.038.178-.072.202-.26.202h-.342c-.144 0-.178-.043-.15-.183l.337-1.57.246-1.15a1.02 1.02 0 0 0 .014-.101zm-7.25 3.108h-.332c-.087 0-.116-.043-.1-.125.067-.68.193-1.344.44-2 .16-.424.385-.8.708-1.132l.42-.438c.034-.034.063-.096.13-.043s.02.096-.005.14c-.25.414-.448.853-.617 1.306-.14.376-.207.766-.217 1.16-.01.332.01.67.024 1.007.005.087-.024.125-.1.12l-.328-.005z"/></g></g><defs><clipPath id="A"><path fill="#fff" d="M0 0h191v166H0z"/></clipPath><path id="B" d="M143.958 88.716a.55.55 0 0 0 .549-.549.55.55 0 0 0-.549-.549.55.55 0 0 0-.549.549.55.55 0 0 0 .549.549z"/><path id="C" d="M86.948 7.564a.3.3 0 0 0 .299-.299.3.3 0 0 0-.299-.299.3.3 0 0 0-.299.299.3.3 0 0 0 .299.299z"/></defs></svg>