<svg width="24" height="25" viewBox="0 0 24 25" fill="none" xmlns="http://www.w3.org/2000/svg">
<path d="M11.9995 17.7028C11.6599 17.7028 11.3843 17.4243 11.3843 17.08V7.19701C11.3843 6.85321 11.6596 6.57471 11.9995 6.57471C12.3394 6.57471 12.615 6.85321 12.615 7.19701V17.08C12.615 17.424 12.3394 17.7028 11.9995 17.7028Z" fill="#1D7DEA"/>
<path d="M15.8733 11.7369C15.7154 11.7369 15.558 11.676 15.4376 11.5545L12.0006 8.07759L8.56215 11.5545C8.32231 11.7982 7.93226 11.7982 7.69188 11.5545C7.4515 11.3114 7.4515 10.9174 7.69188 10.6742L11.5652 6.75715C11.805 6.51454 12.1953 6.51454 12.4357 6.75715L16.3084 10.6742C16.5488 10.9174 16.5488 11.3114 16.3084 11.5545C16.1881 11.6762 16.0304 11.7369 15.8733 11.7369Z" fill="#1D7DEA"/>
<path d="M12 24.2767C5.38305 24.2767 0 18.8311 0 12.1385C0 5.44585 5.38305 0 12 0C18.6167 0 24 5.44531 24 12.1382C24 18.8311 18.6167 24.2767 12 24.2767ZM12 1.24515C6.06177 1.24515 1.23071 6.13185 1.23071 12.1385C1.23071 18.1448 6.06177 23.0315 12 23.0315C17.938 23.0315 22.769 18.1448 22.769 12.1385C22.769 6.13185 17.938 1.24515 12 1.24515Z" fill="#1D7DEA"/>
</svg>
