<svg width="145" height="418" viewBox="0 0 145 418" fill="none" xmlns="http://www.w3.org/2000/svg">
<path opacity="0.4" d="M-184.529 82.315C-184.529 82.315 -51.031 9.01091 6.48932 27.5414C64.0096 46.072 16.7538 98.7899 45.5522 156.435C73.8034 212.985 103.73 217.007 121.067 255.997C138.405 294.987 111.344 349.375 52.552 362.876C-6.24023 376.377 -101.678 371.25 -101.678 371.25C-107.633 372.958 -113.866 373.476 -120.021 372.775C-126.176 372.073 -132.133 370.166 -137.551 367.163C-148.494 361.097 -156.579 350.933 -160.028 338.907L-216.873 140.665C-220.321 128.638 -218.851 115.734 -212.785 104.791C-206.72 93.8486 -196.556 85.7636 -184.529 82.315Z" fill="#ECF0FC"/>
</svg>
