<svg width="168" height="188" viewBox="0 0 168 188" fill="none" xmlns="http://www.w3.org/2000/svg">
<path d="M114.28 184.557C114.28 186.46 102.631 188 88.2665 188C73.9016 188 62.2479 186.46 62.2479 184.557C62.2479 182.654 73.8966 181.114 88.2665 181.114C102.636 181.114 114.28 182.654 114.28 184.557Z" fill="#AFC1D0"/>
<path d="M35.5802 61.3461L32.9539 54.1479C32.8556 53.8728 32.8693 53.5697 32.9918 53.3048C33.1143 53.0398 33.3358 52.8344 33.608 52.7334C33.8801 52.6327 34.1808 52.6451 34.4439 52.7678C34.707 52.8905 34.911 53.1135 35.011 53.3878L37.6324 60.6313C36.9294 60.8105 36.2429 61.0496 35.5802 61.3461Z" fill="#EAB2AE"/>
<path d="M31.3562 63.4251L31.0516 63.566L28.6 56.7856C28.5017 56.5105 28.5154 56.2074 28.6379 55.9424C28.7604 55.6775 28.9819 55.4721 29.2541 55.3711C29.527 55.2734 29.8271 55.2878 30.0895 55.4112C30.352 55.5345 30.5559 55.757 30.6571 56.0305L33.0288 62.5744C32.4546 62.8663 31.9054 63.1583 31.3562 63.4251Z" fill="#EAB2AE"/>
<path d="M28.9096 64.5476L27.2719 60.0172C27.175 59.7421 27.1892 59.4396 27.3116 59.175C27.434 58.9103 27.6546 58.7048 27.9259 58.6028C28.1981 58.5021 28.4987 58.5144 28.7618 58.6371C29.0249 58.7598 29.2289 58.9829 29.329 59.2571L30.9018 63.6013C30.2477 63.9284 29.5736 64.2254 28.9096 64.5476Z" fill="#EAB2AE"/>
<path d="M33.2385 62.4737L30.2427 54.2033C30.1428 53.9289 30.1551 53.6258 30.2768 53.3606C30.3985 53.0953 30.6197 52.8897 30.8918 52.7888C31.1646 52.6898 31.4652 52.7035 31.7281 52.827C31.9909 52.9506 32.1946 53.1739 32.2948 53.4482L35.2157 61.5022C34.5566 61.8042 33.8926 62.1415 33.2385 62.4737Z" fill="#EAB2AE"/>
<path d="M38.571 66.4453L39.8642 64.7137C39.8642 64.7137 40.3086 60.0827 42.7053 60.5911C42.7606 60.6054 42.8084 60.6405 42.839 60.6891C42.8696 60.7377 42.8807 60.7963 42.87 60.8528C42.5547 62.4403 42.3726 64.0518 42.3258 65.6701C42.3258 67.8548 43.1297 70.1351 39.8642 71.9925L38.571 66.4453Z" fill="#EAB2AE"/>
<path d="M57.854 85.8604L53.9295 85.9208L39.8642 71.9824L34.6066 75.0027L49.6306 92.7415C49.95 93.1097 50.3438 93.4048 50.7855 93.6071C51.2273 93.8094 51.7068 93.9142 52.192 93.9144H57.854V85.8604Z" fill="#EAB2AE"/>
<path d="M39.8642 71.9824C40.1167 71.861 40.3574 71.7161 40.5832 71.5495C40.7902 71.3988 40.984 71.2304 41.1624 71.0462L37.5125 60.1884L28.7797 64.1449C29.9313 68.1419 31.9181 71.844 34.6066 75.0027L39.8642 71.9824Z" fill="#EAB2AE"/>
<path d="M92.1012 146.804C92.1012 146.804 89.4848 156.318 93.1697 156.871C96.8545 157.425 96.2903 148.087 96.2903 148.087C96.2903 148.087 94.0984 139.877 92.1012 146.804Z" fill="#522B1E"/>
<path d="M101.518 154.586C101.518 154.586 93.5292 154.672 93.9636 147.171C93.9731 147.024 94.019 146.882 94.0971 146.758C94.1752 146.633 94.283 146.531 94.4106 146.459C94.5383 146.387 94.6817 146.349 94.8278 146.348C94.9738 146.347 95.1179 146.382 95.2468 146.452C97.2839 147.569 101.358 150.333 101.518 154.586Z" fill="#0F5485"/>
<path d="M72.6035 125.753C72.6035 125.753 75.5144 149.15 75.8339 151.989C76.1535 154.828 76.6128 171.303 78.7299 178.461H82.225L86.7986 133.188L90.9029 134.97C90.9029 134.97 95.4565 153.881 101.503 154.601C107.55 155.321 101.848 123.639 101.848 123.639L72.6035 125.753Z" fill="#0F5485"/>
<path d="M101.857 123.624C101.638 120.1 99.4259 97.3424 99.4259 97.3424H113.022V85.8051H55.3525L55.9467 97.9716H69.2631C69.2631 97.9716 71.9393 115.695 72.6034 125.753" fill="#DDDDDD"/>
<path style="mix-blend-mode:multiply" d="M83.5531 87.8941L74.5607 93.104L75.2448 90.9193L83.5531 87.8941Z" fill="url(#paint0_linear)"/>
<path style="mix-blend-mode:multiply" d="M83.4483 87.6323L92.4457 92.8372L91.7617 90.6576L83.4483 87.6323Z" fill="url(#paint1_linear)"/>
<path d="M78.0658 77.0565L76.3482 85.8051H90.5533L88.1018 76.1101L78.0658 77.0565Z" fill="#EAB2AE"/>
<path d="M105.273 49.3306C105.273 49.3306 108.668 41.7498 112.388 44.5737C116.108 47.3977 117.571 60.5408 105.967 58.4367" fill="url(#paint2_radial)"/>
<g style="mix-blend-mode:screen" opacity="0.75">
<g style="mix-blend-mode:screen" opacity="0.75">
<path d="M105.273 49.3306C105.273 49.3306 108.668 41.7498 112.388 44.5737C116.108 47.3977 117.571 60.5408 105.967 58.4367" fill="white"/>
</g>
</g>
<g style="mix-blend-mode:multiply">
<path style="mix-blend-mode:multiply" d="M112.727 49.3658C112.523 46.547 109.697 46.8842 108.408 48.3239C107.779 49.0286 106.801 50.6948 107.445 51.8173C108.089 52.9398 109.587 51.7166 109.737 53.5791C109.836 54.8124 107.345 55.2302 109.023 56.4282C109.801 56.9869 111.369 55.7637 111.784 55.3409C113.411 53.6747 112.967 51.4297 112.702 49.1494" fill="url(#paint3_linear)"/>
</g>
<path d="M107.784 16.7573C107.784 16.7573 115.648 17.0291 115.628 36.6809C115.628 50.4481 106.776 54.6412 106.776 54.6412L97.3638 24.8214L107.784 16.7573Z" fill="url(#paint4_radial)"/>
<g style="mix-blend-mode:multiply" opacity="0.75">
<g style="mix-blend-mode:multiply" opacity="0.75">
<path d="M107.784 16.7573C107.784 16.7573 115.648 17.0291 115.628 36.6809C115.628 50.4481 106.776 54.6412 106.776 54.6412L97.3638 24.8214L107.784 16.7573Z" fill="#2B1B1B"/>
</g>
</g>
<path d="M110.061 44.0452C110.066 40.0863 109.25 36.17 107.667 32.5471C106.084 28.9242 103.768 25.6746 100.867 23.0062C97.966 20.3377 94.5444 18.3094 90.8212 17.051C87.098 15.7926 83.1552 15.3318 79.2452 15.6982C75.3351 16.0646 71.5441 17.25 68.1147 19.1787C64.6853 21.1073 61.6932 23.7367 59.3299 26.8984C56.9665 30.06 55.2841 33.6844 54.3903 37.5394C53.4965 41.3944 53.411 45.3951 54.1393 49.2853C52.0322 47.9614 48.9615 46.7332 47.149 49.2047C44.4977 52.7988 46.6497 63.3697 55.3875 61.1951C57.3847 69.2138 63.6959 79.241 82.6694 79.241C113.027 79.241 107.235 59.7152 108.598 53.1562C109.577 50.2204 110.071 47.1424 110.061 44.0452Z" fill="url(#paint5_radial)"/>
<g style="mix-blend-mode:screen" opacity="0.75">
<g style="mix-blend-mode:screen" opacity="0.75">
<path d="M110.061 44.0452C110.066 40.0863 109.25 36.17 107.667 32.5471C106.084 28.9242 103.768 25.6746 100.867 23.0062C97.966 20.3377 94.5444 18.3094 90.8212 17.051C87.098 15.7926 83.1552 15.3318 79.2452 15.6982C75.3351 16.0646 71.5441 17.25 68.1147 19.1787C64.6853 21.1073 61.6932 23.7367 59.3299 26.8984C56.9665 30.06 55.2841 33.6844 54.3903 37.5394C53.4965 41.3944 53.411 45.3951 54.1393 49.2853C52.0322 47.9614 48.9615 46.7332 47.149 49.2047C44.4977 52.7988 46.6497 63.3697 55.3875 61.1951C57.3847 69.2138 63.6959 79.241 82.6694 79.241C113.027 79.241 107.235 59.7152 108.598 53.1562C109.577 50.2204 110.071 47.1424 110.061 44.0452Z" fill="white"/>
</g>
</g>
<path d="M100.609 29.6991C100.939 30.439 101.937 32.216 102.891 32.7193C104.389 33.5147 104.888 32.3619 104.544 31.0481C104.219 29.8652 103.226 28.3702 101.932 28.0933C101.663 28.0079 101.372 28.0248 101.114 28.1408C100.855 28.2568 100.648 28.4638 100.531 28.723C100.414 28.9822 100.395 29.2757 100.477 29.5482C100.56 29.8206 100.738 30.0533 100.979 30.2025" fill="white"/>
<path d="M65.9428 48.6913C65.9428 48.6913 65.6981 40.3404 71.7696 40.4662C77.8411 40.592 77.4567 47.9262 77.4567 47.9262" stroke="#211915" stroke-width="3.03988" stroke-miterlimit="10"/>
<path d="M90.6083 48.0319C90.6083 48.0319 90.3736 39.681 96.4351 39.8118C102.497 39.9427 102.122 47.2668 102.122 47.2668" stroke="#211915" stroke-width="3.03988" stroke-miterlimit="10"/>
<path d="M76.2034 38.0148C73.284 37.3999 70.2701 37.3999 67.3508 38.0148C62.4177 39.0215 67.4806 34.8284 72.4736 35.211C77.4666 35.5935 76.2034 38.0148 76.2034 38.0148Z" fill="#372B2A"/>
<path d="M92.226 38.1759C94.9601 36.974 97.9112 36.3553 100.894 36.3587C105.932 36.3587 100.125 33.2629 95.3117 34.6623C90.4984 36.0617 92.226 38.1759 92.226 38.1759Z" fill="#372B2A"/>
<g style="mix-blend-mode:multiply">
<path style="mix-blend-mode:multiply" d="M48.4622 53.8056C47.6783 51.0925 50.8189 50.3475 52.7012 51.2133C53.625 51.6361 55.2627 52.8291 54.9731 54.1177C54.6835 55.4064 52.6413 54.8325 53.1456 56.6346C53.4752 57.8276 56.2812 57.289 54.9132 59.0357C54.279 59.8512 52.177 59.2924 51.5828 59.0357C49.2511 58.0893 48.9315 55.8191 48.4122 53.5791" fill="url(#paint6_linear)"/>
</g>
<path d="M70.0171 57.7873C70.0171 57.7873 86.2893 58.94 93.3744 57.7873C100.459 56.6346 98.6271 71.1518 84.0025 71.6099C69.378 72.068 63.3464 59.3981 70.0171 57.7873Z" fill="url(#paint7_linear)"/>
<mask id="mask0" mask-type="alpha" maskUnits="userSpaceOnUse" x="67" y="57" width="31" height="15">
<path d="M70.1026 57.4506C70.1026 57.4506 86.3141 58.6195 93.3728 57.4506C100.431 56.2818 98.6059 71.0023 84.0359 71.4667C69.4658 71.9312 63.4568 59.084 70.1026 57.4506Z" fill="url(#paint8_linear)"/>
</mask>
<g mask="url(#mask0)">
<path d="M66.507 70.8396C67.6254 68.0258 72.3139 65.5643 76.9025 64.7085C80.3676 64.0592 86.519 64.4417 88.8857 67.0543C89.2819 67.4545 89.5631 67.9555 89.6996 68.504C89.9442 69.7725 88.9506 70.9403 87.8821 71.6601C85.9398 72.9639 83.5931 73.4924 81.2913 73.8901C75.7091 74.8515 69.4878 75.068 64.9092 71.7054" fill="#BF2248"/>
<path d="M102.232 58.0188C99.1713 62.7203 89.9841 62.8109 85.076 63.2992C79.7984 63.8026 74.2961 63.8479 69.378 61.7891C67.2609 64.2053 64.0254 59.1414 67.3109 56.6849C70.5963 54.2284 75.3696 55.4969 79.1093 55.2704C83.6031 54.9986 88.1217 54.0724 92.6204 53.866C96.2154 53.6999 100.265 53.569 101.543 57.5608" fill="white"/>
</g>
<path d="M54.1343 49.2853C54.1343 49.2853 55.9268 55.3258 57.6993 55.1647C59.4718 55.0037 60.4804 49.3004 59.4668 42.2079C58.4532 35.1154 61.494 27.4691 61.494 27.4691C61.494 27.4691 106.711 31.7126 111.12 18.0309C113.341 11.1246 112.942 2.74339 107.784 0.689629C101.793 -1.69636 90.049 2.85917 79.0344 3.12092C64.2301 3.47329 50.5742 10.8527 51.8125 21.8565C51.8125 21.8565 46.9393 25.3348 46.0705 35.1858C44.7973 49.6578 54.1343 49.2853 54.1343 49.2853Z" fill="url(#paint9_radial)"/>
<g style="mix-blend-mode:multiply" opacity="0.75">
<g style="mix-blend-mode:multiply" opacity="0.75">
<path d="M54.1343 49.2853C54.1343 49.2853 55.9268 55.3258 57.6993 55.1647C59.4718 55.0037 60.4804 49.3004 59.4668 42.2079C58.4532 35.1154 61.494 27.4691 61.494 27.4691C61.494 27.4691 106.711 31.7126 111.12 18.0309C113.341 11.1246 112.942 2.74339 107.784 0.689629C101.793 -1.69636 90.049 2.85917 79.0344 3.12092C64.2301 3.47329 50.5742 10.8527 51.8125 21.8565C51.8125 21.8565 46.9393 25.3348 46.0705 35.1858C44.7973 49.6578 54.1343 49.2853 54.1343 49.2853Z" fill="#2B1B1B"/>
</g>
</g>
<g style="mix-blend-mode:overlay" opacity="0.81">
<path style="mix-blend-mode:overlay" opacity="0.81" d="M57.2449 21.0159C57.3248 16.6768 60.2158 12.7605 63.8656 10.445C67.5155 8.12949 71.8545 7.23852 76.1235 6.67978C80.3925 6.12103 84.7265 5.88445 88.8757 4.73172C88.0626 6.25542 86.8175 7.50022 85.2994 8.30717C83.7812 9.11411 82.059 9.44657 80.3526 9.26208C87.336 10.4971 94.5222 8.94855 100.395 4.94314C99.8953 8.88455 96.0356 11.346 92.5705 13.2387C93.891 13.9439 95.3504 14.3449 96.8432 14.4128C98.336 14.4807 99.8252 14.2138 101.203 13.6314C102.542 13.0575 103.99 12.1565 105.358 13.9384C106.067 16.0325 104.858 17.5426 103.535 18.7205C97.4587 24.1619 88.5112 24.8314 80.4375 23.8599C72.3638 22.8884 64.3699 20.5628 56.2563 21.0763" fill="url(#paint10_linear)"/>
</g>
<g style="mix-blend-mode:overlay" opacity="0.81">
<path style="mix-blend-mode:overlay" opacity="0.81" d="M51.6578 26.6386C50.0304 28.9916 48.8068 31.6036 48.0378 34.3654C47.5385 36.2278 47.2539 38.3923 48.3374 39.9729C48.3728 39.3085 48.5564 38.6606 48.8745 38.0775C49.1926 37.4945 49.6371 36.9913 50.1748 36.6054C50.0716 38.5651 50.649 40.4999 51.8076 42.077C51.5365 39.4148 52.0488 36.731 53.2805 34.3603C53.1507 37.8286 53.2006 41.7649 55.7171 44.1308C55.4616 39.6324 56.1419 35.1299 57.7143 30.9122C57.9896 30.3433 58.1118 29.7115 58.0688 29.0799C57.904 28.1135 56.9753 27.4893 56.0716 27.1117C54.6508 26.5128 53.1163 26.2377 51.5779 26.3063" fill="url(#paint11_linear)"/>
</g>
<g style="mix-blend-mode:overlay" opacity="0.81">
<path style="mix-blend-mode:overlay" opacity="0.81" d="M106.017 26.7795C109.367 30.4475 111.263 35.229 111.344 40.2145C112.588 37.4451 112.91 34.3445 112.263 31.3753L113.656 35.7395C114.839 32.518 113.841 28.939 112.842 25.6721C113.525 26.5537 113.852 27.6634 113.756 28.7779C113.796 27.4416 113.549 26.1123 113.032 24.8812C112.515 23.6501 111.74 22.5462 110.76 21.6451C108.956 23.1653 107.152 24.6754 105.348 26.1754" fill="url(#paint12_linear)"/>
</g>
<path d="M77.3019 80.9576L83.638 84.5215L89.4099 81.2848L90.5533 85.8051H76.3482L77.3019 80.9576Z" fill="url(#paint13_radial)"/>
<path d="M78.7299 178.461C78.7299 178.461 72.8431 185.624 80.9468 185.624C89.0505 185.624 82.24 178.461 82.24 178.461H78.7299Z" fill="#522B1E"/>
<path d="M83.5531 87.8941L75.2448 90.9194L77.3019 80.9576L83.638 84.5215L89.4099 81.2848L91.9264 90.7684L83.5531 87.8941Z" fill="white"/>
<g style="mix-blend-mode:overlay" opacity="0.22">
<g style="mix-blend-mode:overlay" opacity="0.22">
<path d="M58.2635 97.9716H59.9861L59.2371 85.8051H57.5195L58.2635 97.9716Z" fill="#B5B5B5"/>
</g>
<g style="mix-blend-mode:overlay" opacity="0.22">
<path d="M63.8956 85.8051H62.173L62.917 97.9716H64.6396L63.8956 85.8051Z" fill="#B5B5B5"/>
</g>
<g style="mix-blend-mode:overlay" opacity="0.22">
<path d="M68.5441 85.8051H66.8265L67.5705 97.9716H69.2631C69.2631 97.9716 69.2631 98.0874 69.3131 98.2887L68.5441 85.8051Z" fill="#B5B5B5"/>
</g>
<g style="mix-blend-mode:overlay" opacity="0.22">
<path d="M73.9216 125.657L75.6342 125.531L73.1976 85.8051H71.48L73.9216 125.657Z" fill="#B5B5B5"/>
</g>
<g style="mix-blend-mode:overlay" opacity="0.22">
<path d="M77.5665 81.1086L77.3019 80.9576L76.3033 85.8051H76.1335L78.5501 125.32L80.2677 125.194L77.5665 81.1086Z" fill="#B5B5B5"/>
</g>
<g style="mix-blend-mode:overlay" opacity="0.22">
<path d="M82.3847 83.8168L80.6022 82.815L83.1836 124.983L84.8962 124.857L82.3847 83.8168Z" fill="#B5B5B5"/>
</g>
<g style="mix-blend-mode:overlay" opacity="0.22">
<path d="M87.8172 124.645L89.5298 124.52L86.9683 82.654L85.3057 83.5902L87.8172 124.645Z" fill="#B5B5B5"/>
</g>
<g style="mix-blend-mode:overlay" opacity="0.22">
<path d="M91.8166 85.8051H90.6083L89.9392 83.2782L92.4507 124.308L94.1633 124.182L91.8166 85.8051Z" fill="#B5B5B5"/>
</g>
<g style="mix-blend-mode:overlay" opacity="0.22">
<path d="M96.47 85.8051H94.7474L97.0842 123.971L98.7968 123.845L96.47 85.8051Z" fill="#B5B5B5"/>
</g>
<g style="mix-blend-mode:overlay" opacity="0.22">
<path d="M99.4009 85.8051L100.105 97.3424H101.828L101.124 85.8051H99.4009Z" fill="#B5B5B5"/>
</g>
<g style="mix-blend-mode:overlay" opacity="0.22">
<path d="M101.718 123.634H101.863C101.803 122.682 101.603 120.337 101.363 117.427L101.718 123.634Z" fill="#B5B5B5"/>
</g>
<g style="mix-blend-mode:overlay" opacity="0.22">
<path d="M105.777 85.8051H104.054L104.758 97.3424H106.481L105.777 85.8051Z" fill="#B5B5B5"/>
</g>
<g style="mix-blend-mode:overlay" opacity="0.22">
<path d="M110.431 85.8051H108.708L109.412 97.3424H111.135L110.431 85.8051Z" fill="#B5B5B5"/>
</g>
</g>
<path style="mix-blend-mode:multiply" d="M88.8158 78.934L76.7626 83.5651L77.7013 78.934H88.8158Z" fill="url(#paint14_linear)"/>
<path d="M91.9264 90.7683L83.5531 87.8941L75.2448 90.9193" stroke="#34232F" stroke-width="0.785425" stroke-miterlimit="10"/>
<path d="M132.17 61.6079L134.776 54.4147C134.826 54.2785 134.848 54.1339 134.842 53.9891C134.836 53.8442 134.801 53.7021 134.74 53.5707C134.68 53.4393 134.594 53.3213 134.488 53.2234C134.382 53.1255 134.258 53.0497 134.122 53.0002C133.849 52.9025 133.549 52.9169 133.287 53.0403C133.024 53.1636 132.821 53.3861 132.719 53.6596L130.078 60.9082C130.793 61.0825 131.493 61.3166 132.17 61.6079Z" fill="#EAB2AE"/>
<path d="M136.394 63.6768L136.699 63.8177L139.15 57.0423C139.2 56.9062 139.222 56.7615 139.216 56.6167C139.21 56.4719 139.175 56.3297 139.114 56.1983C139.054 56.0669 138.968 55.9489 138.862 55.851C138.756 55.7531 138.631 55.6773 138.496 55.6278C138.224 55.5271 137.923 55.5395 137.66 55.6622C137.397 55.7849 137.193 56.0079 137.093 56.2822L134.722 62.8261C135.281 63.1331 135.845 63.4251 136.394 63.6768Z" fill="#EAB2AE"/>
<path d="M138.841 64.8094L140.478 60.279C140.567 60.0052 140.546 59.7076 140.42 59.4491C140.294 59.1907 140.073 58.9919 139.804 58.8947C139.532 58.7957 139.231 58.8094 138.968 58.9329C138.705 59.0565 138.502 59.2798 138.401 59.5541L136.809 63.8781C137.503 64.1902 138.177 64.4922 138.841 64.8094Z" fill="#EAB2AE"/>
<path d="M134.517 62.7405L137.513 54.465C137.611 54.19 137.597 53.8869 137.475 53.6219C137.352 53.3569 137.131 53.1515 136.859 53.0506C136.586 52.9499 136.286 52.9622 136.023 53.0849C135.76 53.2076 135.556 53.4307 135.456 53.7049L132.535 61.7589C133.194 62.066 133.863 62.4183 134.517 62.7405Z" fill="#EAB2AE"/>
<path d="M129.179 66.7071L127.886 64.9705C127.886 64.9705 127.447 60.3394 125.045 60.8478C124.989 60.8633 124.941 60.8993 124.911 60.9487C124.88 60.9982 124.869 61.0574 124.88 61.1146C125.197 62.7054 125.379 64.3203 125.425 65.942C125.425 68.1317 124.621 70.4069 127.886 72.2644L129.179 66.7071Z" fill="#EAB2AE"/>
<path d="M113.027 85.8605L116.946 85.9209L127.886 72.2492L133.144 75.2393L121.245 92.7416C120.927 93.1096 120.534 93.4047 120.093 93.607C119.652 93.8093 119.173 93.9141 118.689 93.9144H113.027V85.8605Z" fill="#EAB2AE"/>
<path d="M127.886 72.2492C127.632 72.1316 127.391 71.9864 127.167 71.8163C126.959 71.6671 126.765 71.4985 126.588 71.313C127.806 67.6954 129.023 64.0761 130.238 60.4552L138.976 64.4167C137.82 68.4056 135.832 72.0991 133.144 75.2493L127.886 72.2492Z" fill="#EAB2AE"/>
<path d="M85.8249 49.4212C86.3365 49.7756 86.9295 49.9922 87.5475 50.0504C88.3764 49.9749 88.2765 49.3659 87.7872 48.9229C87.5462 48.6906 87.2513 48.5228 86.9295 48.4349C86.6077 48.347 86.2692 48.3417 85.9448 48.4195C85.8165 48.4592 85.7065 48.5437 85.6344 48.6579C85.5624 48.772 85.533 48.9083 85.5517 49.0423C85.5703 49.1762 85.6357 49.2991 85.7361 49.3889C85.8365 49.4786 85.9654 49.5294 86.0996 49.532" fill="white"/>
<g style="mix-blend-mode:multiply" opacity="0.39">
<g style="mix-blend-mode:multiply" opacity="0.39">
<path d="M89.2901 50.4632C89.4399 51.47 88.8358 52.1948 87.5575 52.3458C86.6888 52.4465 84.9013 51.6008 84.2072 52.0388C82.924 52.8442 83.7678 53.9969 85.9847 53.9566C87.0389 53.9393 88.0708 53.648 88.9806 53.1109C90.0241 52.527 90.5983 50.9313 89.2052 50.4129" fill="#8F5841"/>
</g>
</g>
<path d="M86.2793 47.7802C87.1932 47.5955 88.1427 47.7625 88.9406 48.2484C89.3806 48.5196 89.7436 48.9007 89.9947 49.3549C90.2457 49.809 90.3762 50.3208 90.3736 50.8407C90.3948 51.368 90.2703 51.8908 90.0141 52.3509C89.7543 52.7902 89.3862 53.1544 88.9456 53.4079C88.1506 53.8789 87.2254 54.0768 86.3093 53.9717C87.0781 53.6572 87.7966 53.2298 88.4413 52.7032C88.7075 52.4634 88.9261 52.1747 89.0854 51.8525C89.1181 51.7753 89.1464 51.6963 89.1703 51.6159C89.203 51.5392 89.2233 51.4576 89.2302 51.3743C89.2302 51.2938 89.2601 51.2132 89.2701 51.1277V50.8407C89.2689 50.4937 89.1957 50.1508 89.0554 49.834C88.918 49.5023 88.7101 49.205 88.4463 48.9632C87.813 48.4217 87.0751 48.0189 86.2793 47.7802Z" fill="#592B16"/>
<path style="mix-blend-mode:multiply" d="M72.6035 125.753C72.6035 125.753 75.5144 149.15 75.8339 151.989C76.1535 154.828 76.6128 171.303 78.7299 178.461H80.3476L74.7255 125.753H72.6035Z" fill="url(#paint15_linear)"/>
<path style="mix-blend-mode:multiply" d="M96.3203 149.613C94.5727 145.319 91.2024 131.3 91.2024 131.3L86.8135 133.188L90.9178 134.97C90.9178 134.97 93.0448 143.794 96.3203 149.613Z" fill="url(#paint16_linear)"/>
<path style="mix-blend-mode:multiply" d="M85.046 91.2516L86.9583 89.0619L83.5531 87.8941L80.3476 89.0619L82.7942 91.322L80.9368 108.17L87.4427 114.054L92.1261 106.957L85.046 91.2516Z" fill="url(#paint17_linear)"/>
<path d="M85.046 91.2516L86.9583 89.0619L83.5531 87.8941L80.3476 89.0619L82.7942 91.322L81.5859 107.848L88.0868 113.732L92.1261 106.957L85.046 91.2516Z" fill="#34162B"/>
<path d="M168 91.8959C162.448 100.478 155.787 104.727 147.249 110.294C138.711 115.861 128.091 118.706 118.19 116.385C113.287 115.237 108.703 112.892 103.845 111.658C95.8559 109.645 87.3678 110.722 79.379 112.69C71.3901 114.658 63.5661 117.502 55.4674 119.053C36.3376 122.638 16.5687 118.928 0 108.643L0 92.0318C16.568 102.314 36.3348 106.022 55.4624 102.437C63.5611 100.886 71.3602 98.0421 79.374 96.0739C87.3878 94.1057 95.8509 93.0234 103.84 95.042C108.723 96.2702 113.282 98.6209 118.185 99.7686C128.086 102.089 138.706 99.2653 147.244 93.6728C155.782 88.0803 162.448 80.0364 168 71.479V91.8959Z" fill="url(#paint18_linear)"/>
<path d="M30.9218 32.1001L27.207 27.5849L23.9166 32.1001L30.9218 36.2379V32.1001Z" fill="#833841"/>
<path d="M154.858 48.8776L151.144 44.3623L147.853 48.8776L154.858 53.0203V48.8776Z" fill="#833841"/>
<path d="M12.4176 56.4936L18.1896 55.7184L16.1424 50.5085L8.9425 54.2939L12.4176 56.4936Z" fill="#4EADA7"/>
<path d="M142.166 83.9476L147.933 83.1775L145.886 77.9675L138.686 81.7529L142.166 83.9476Z" fill="#4EADA7"/>
<path d="M29.1193 86.1574L32.3148 85.7245L31.1814 82.8402L27.197 84.9393L29.1193 86.1574Z" fill="#24373D"/>
<path d="M131.826 32.1203L135.021 31.6874L133.888 28.8081L129.903 30.9021L131.826 32.1203Z" fill="#24373D"/>
<path d="M62.4888 105.058L63.1763 108.832L68.1417 107.913L68.3017 108.791L63.3364 109.711L64.0789 113.786L63.0639 113.974L61.3137 104.368L67.8976 103.149L68.0576 104.027L62.4888 105.058Z" fill="white"/>
<path d="M70.2989 102.555L71.319 102.374L73.0161 112.026L71.996 112.207L70.2989 102.555Z" fill="white"/>
<path d="M82.4436 99.3623L84.3541 108.999L83.5142 109.164L75.7677 102.566L77.318 110.385L76.299 110.586L74.3885 100.95L75.2284 100.784L82.9887 107.38L81.4384 99.5604L82.4436 99.3623Z" fill="white"/>
<path d="M86.3908 98.5953L87.4123 98.3979L89.3188 108.053L88.2973 108.25L86.3908 98.5953Z" fill="white"/>
<path d="M95.503 107.373C94.7774 107.432 94.0696 107.373 93.3797 107.195C92.699 107.016 92.1607 106.751 91.7648 106.4L92.1003 105.572C92.4845 105.896 92.9794 106.146 93.5848 106.321C94.1894 106.487 94.8034 106.545 95.4266 106.494C96.3011 106.423 96.9432 106.211 97.3529 105.859C97.7618 105.498 97.9441 105.062 97.8996 104.55C97.8657 104.16 97.7177 103.858 97.4556 103.646C97.2029 103.432 96.8992 103.279 96.5445 103.186C96.189 103.084 95.6978 102.984 95.0709 102.885C94.3198 102.759 93.7184 102.63 93.2667 102.499C92.8141 102.358 92.4143 102.123 92.0674 101.796C91.7297 101.468 91.5346 101.001 91.482 100.397C91.4392 99.904 91.5307 99.4471 91.7564 99.026C91.9813 98.5956 92.353 98.2375 92.8716 97.9517C93.3901 97.6659 94.0494 97.4903 94.8494 97.425C95.4075 97.3795 95.9586 97.4141 96.5025 97.5289C97.055 97.6336 97.5383 97.8049 97.9524 98.0426L97.6751 98.894C97.2424 98.6577 96.7878 98.4935 96.3114 98.4013C95.8341 98.2998 95.3722 98.2673 94.9257 98.3037C94.0699 98.3736 93.4379 98.5937 93.0298 98.9642C92.6302 99.3245 92.453 99.7651 92.4982 100.286C92.5322 100.676 92.6759 100.983 92.9295 101.206C93.1916 101.418 93.505 101.575 93.8698 101.677C94.2431 101.768 94.7385 101.863 95.3561 101.963C96.0877 102.081 96.6798 102.211 97.1324 102.352C97.5935 102.482 97.9928 102.712 98.3305 103.04C98.6674 103.359 98.8617 103.816 98.9134 104.411C98.9562 104.904 98.8605 105.366 98.6263 105.797C98.4006 106.218 98.0238 106.572 97.496 106.859C96.9673 107.136 96.303 107.307 95.503 107.373Z" fill="white"/>
<path d="M110.916 100.053L109.004 109.664L108.002 109.462L108.884 105.027L102.873 103.816L101.991 108.251L100.975 108.046L102.888 98.4346L103.903 98.6392L103.051 102.923L109.062 104.135L109.914 99.8507L110.916 100.053Z" fill="white"/>
<defs>
<linearGradient id="paint0_linear" x1="74.5607" y1="90.5016" x2="83.5531" y2="90.5016" gradientUnits="userSpaceOnUse">
<stop offset="0.01" stop-color="#293262" stop-opacity="0"/>
<stop offset="1" stop-color="#0F5485"/>
</linearGradient>
<linearGradient id="paint1_linear" x1="-1350.87" y1="1020.66" x2="-1513" y2="1020.66" gradientUnits="userSpaceOnUse">
<stop offset="0.01" stop-color="#293262" stop-opacity="0"/>
<stop offset="1" stop-color="#0F5485"/>
</linearGradient>
<radialGradient id="paint2_radial" cx="0" cy="0" r="1" gradientUnits="userSpaceOnUse" gradientTransform="translate(883.989 1734.93) rotate(-6.53549) scale(307.871 520.178)">
<stop stop-color="#FFCBAB"/>
<stop offset="1" stop-color="#D04F46"/>
</radialGradient>
<linearGradient id="paint3_linear" x1="113.717" y1="50.7047" x2="106.927" y2="52.5501" gradientUnits="userSpaceOnUse">
<stop stop-color="#FFBB9E" stop-opacity="0"/>
<stop offset="1" stop-color="#BF455A"/>
</linearGradient>
<radialGradient id="paint4_radial" cx="0" cy="0" r="1" gradientUnits="userSpaceOnUse" gradientTransform="translate(86.5888 14.3613) scale(54.6486 55.0943)">
<stop stop-color="#6F6B6E"/>
<stop offset="1" stop-color="#301F11"/>
</radialGradient>
<radialGradient id="paint5_radial" cx="0" cy="0" r="1" gradientUnits="userSpaceOnUse" gradientTransform="translate(12463 4392.54) scale(7637.96 7600.95)">
<stop stop-color="#FFCBAB"/>
<stop offset="1" stop-color="#D04F46"/>
</radialGradient>
<linearGradient id="paint6_linear" x1="56.1992" y1="54.0625" x2="48.3628" y2="56.8679" gradientUnits="userSpaceOnUse">
<stop stop-color="#FFBB9E" stop-opacity="0"/>
<stop offset="1" stop-color="#BF455A"/>
</linearGradient>
<linearGradient id="paint7_linear" x1="64.1353" y1="74.6" x2="85.9499" y2="60.4764" gradientUnits="userSpaceOnUse">
<stop stop-color="#CD6B67"/>
<stop offset="1" stop-color="#641827"/>
</linearGradient>
<linearGradient id="paint8_linear" x1="64.2427" y1="74.4986" x2="86.2008" y2="60.5307" gradientUnits="userSpaceOnUse">
<stop stop-color="#CD6B67"/>
<stop offset="1" stop-color="#641827"/>
</linearGradient>
<radialGradient id="paint9_radial" cx="0" cy="0" r="1" gradientUnits="userSpaceOnUse" gradientTransform="translate(11569.7 1573.92) scale(7272.93 6038.06)">
<stop stop-color="#6F6B6E"/>
<stop offset="1" stop-color="#301F11"/>
</radialGradient>
<linearGradient id="paint10_linear" x1="99.9552" y1="-7.47006" x2="79.2738" y2="19.2982" gradientUnits="userSpaceOnUse">
<stop stop-color="white"/>
<stop offset="0.16" stop-color="white" stop-opacity="0.76"/>
<stop offset="0.32" stop-color="white" stop-opacity="0.53"/>
<stop offset="0.49" stop-color="white" stop-opacity="0.34"/>
<stop offset="0.64" stop-color="white" stop-opacity="0.19"/>
<stop offset="0.78" stop-color="white" stop-opacity="0.09"/>
<stop offset="0.9" stop-color="white" stop-opacity="0.02"/>
<stop offset="0.99" stop-color="white" stop-opacity="0"/>
</linearGradient>
<linearGradient id="paint11_linear" x1="1127.99" y1="1486.96" x2="1290.03" y2="1023.14" gradientUnits="userSpaceOnUse">
<stop stop-color="white"/>
<stop offset="0.16" stop-color="white" stop-opacity="0.76"/>
<stop offset="0.32" stop-color="white" stop-opacity="0.53"/>
<stop offset="0.49" stop-color="white" stop-opacity="0.34"/>
<stop offset="0.64" stop-color="white" stop-opacity="0.19"/>
<stop offset="0.78" stop-color="white" stop-opacity="0.09"/>
<stop offset="0.9" stop-color="white" stop-opacity="0.02"/>
<stop offset="0.99" stop-color="white" stop-opacity="0"/>
</linearGradient>
<linearGradient id="paint12_linear" x1="2121.89" y1="1353.07" x2="1867.54" y2="1093.45" gradientUnits="userSpaceOnUse">
<stop stop-color="white"/>
<stop offset="0.16" stop-color="white" stop-opacity="0.76"/>
<stop offset="0.32" stop-color="white" stop-opacity="0.53"/>
<stop offset="0.49" stop-color="white" stop-opacity="0.34"/>
<stop offset="0.64" stop-color="white" stop-opacity="0.19"/>
<stop offset="0.78" stop-color="white" stop-opacity="0.09"/>
<stop offset="0.9" stop-color="white" stop-opacity="0.02"/>
<stop offset="0.99" stop-color="white" stop-opacity="0"/>
</linearGradient>
<radialGradient id="paint13_radial" cx="0" cy="0" r="1" gradientUnits="userSpaceOnUse" gradientTransform="translate(65.1189 79.6589) scale(47.7232 48.1126)">
<stop stop-color="#5C4B90"/>
<stop offset="1" stop-color="#2A1B51"/>
</radialGradient>
<linearGradient id="paint14_linear" x1="1929.81" y1="826.432" x2="2220.78" y2="826.432" gradientUnits="userSpaceOnUse">
<stop stop-color="#FFBB9E" stop-opacity="0"/>
<stop offset="1" stop-color="#BF455A"/>
</linearGradient>
<linearGradient id="paint15_linear" x1="78.5751" y1="166.551" x2="71.4929" y2="116.839" gradientUnits="userSpaceOnUse">
<stop stop-color="#1F2D14"/>
<stop offset="1" stop-color="#FFBB9E" stop-opacity="0"/>
</linearGradient>
<linearGradient id="paint16_linear" x1="1843.85" y1="5460.68" x2="1671.35" y2="4827.76" gradientUnits="userSpaceOnUse">
<stop stop-color="#1F2D14"/>
<stop offset="1" stop-color="#FFBB9E" stop-opacity="0"/>
</linearGradient>
<linearGradient id="paint17_linear" x1="2071.62" y1="4848.81" x2="2441.6" y2="6091.2" gradientUnits="userSpaceOnUse">
<stop stop-color="#1F2D14"/>
<stop offset="1" stop-color="#FFBB9E" stop-opacity="0"/>
</linearGradient>
<linearGradient id="paint18_linear" x1="18.2645" y1="105.522" x2="160.497" y2="93.3918" gradientUnits="userSpaceOnUse">
<stop stop-color="#FF817E"/>
<stop offset="0.21" stop-color="#9D1F3D"/>
<stop offset="0.52" stop-color="#FF8C86"/>
<stop offset="0.62" stop-color="#B42F44"/>
<stop offset="0.81" stop-color="#FA8B7E"/>
<stop offset="1" stop-color="#72012F"/>
</linearGradient>
</defs>
</svg>
