<svg width="22" height="20" viewBox="0 0 22 20" fill="none" xmlns="http://www.w3.org/2000/svg">
<path d="M19.5834 2.21832H16.2741V1.36984C16.2741 1.05763 16.0211 0.804932 15.7092 0.804932C15.3974 0.804932 15.1443 1.05763 15.1443 1.36984V2.21832H6.58151V1.36984C6.58151 1.05763 6.32843 0.804932 6.01661 0.804932C5.70478 0.804932 5.4517 1.05763 5.4517 1.36984V2.21832H2.14249C0.96109 2.21832 0 3.17941 0 4.36082V17.8579C0 19.0393 0.961467 20 2.14249 20H19.5834C20.7648 20 21.7258 19.0389 21.7258 17.8579V4.36082C21.7258 3.17979 20.7644 2.21832 19.5834 2.21832ZM20.596 17.8579C20.596 18.416 20.1419 18.8702 19.5834 18.8702H2.14249C1.58399 18.8702 1.12981 18.416 1.12981 17.8579V4.36082C1.12981 3.80231 1.58399 3.34813 2.14249 3.34813H5.4517V4.49978C5.4517 4.81199 5.70478 5.06469 6.01661 5.06469C6.32843 5.06469 6.58151 4.81199 6.58151 4.49978V3.34813H15.144V4.49978C15.144 4.81199 15.397 5.06469 15.7089 5.06469C16.0207 5.06469 16.2738 4.81199 16.2738 4.49978V3.34813H19.583C20.1415 3.34813 20.5957 3.80231 20.5957 4.36082V17.8579H20.596Z" fill="#C2C2C2"/>
<path d="M5.30977 7.56946H3.08932C2.77749 7.56946 2.52441 7.82216 2.52441 8.13436V10.3552C2.52441 10.6674 2.77749 10.9201 3.08932 10.9201H5.30977C5.6216 10.9201 5.87467 10.6674 5.87467 10.3552V8.13436C5.87467 7.82216 5.6216 7.56946 5.30977 7.56946ZM4.74486 9.79029H3.65422V8.69927H4.74486V9.79029Z" fill="#C2C2C2"/>
<path d="M9.55025 7.56946H7.3298C7.01797 7.56946 6.76489 7.82216 6.76489 8.13436V10.3552C6.76489 10.6674 7.01797 10.9201 7.3298 10.9201H9.55025C9.86208 10.9201 10.1152 10.6674 10.1152 10.3552V8.13436C10.1152 7.82216 9.86208 7.56946 9.55025 7.56946ZM8.98534 9.79029H7.8947V8.69927H8.98534V9.79029Z" fill="#C2C2C2"/>
<path d="M14.0936 7.56946H11.8728C11.5609 7.56946 11.3079 7.82216 11.3079 8.13436V10.3552C11.3079 10.6674 11.5609 10.9201 11.8728 10.9201H14.0936C14.4054 10.9201 14.6585 10.6674 14.6585 10.3552V8.13436C14.6585 7.82216 14.4058 7.56946 14.0936 7.56946ZM13.5287 9.79029H12.4377V8.69927H13.5287V9.79029Z" fill="#C2C2C2"/>
<path d="M18.6369 7.56946H16.4157C16.1039 7.56946 15.8508 7.82216 15.8508 8.13436V10.3552C15.8508 10.6674 16.1039 10.9201 16.4157 10.9201H18.6366C18.9484 10.9201 19.2015 10.6674 19.2015 10.3552V8.13436C19.2018 7.82216 18.9488 7.56946 18.6369 7.56946ZM18.072 9.79029H16.9806V8.69927H18.0717V9.79029H18.072Z" fill="#C2C2C2"/>
<path d="M5.30977 13.0212H3.08932C2.77749 13.0212 2.52441 13.2739 2.52441 13.5861V15.807C2.52441 16.1192 2.77749 16.3719 3.08932 16.3719H5.30977C5.6216 16.3719 5.87467 16.1192 5.87467 15.807V13.5861C5.87467 13.2739 5.6216 13.0212 5.30977 13.0212ZM4.74486 15.2424H3.65422V14.1514H4.74486V15.2424Z" fill="#C2C2C2"/>
<path d="M9.55025 13.0212H7.3298C7.01797 13.0212 6.76489 13.2739 6.76489 13.5861V15.807C6.76489 16.1192 7.01797 16.3719 7.3298 16.3719H9.55025C9.86208 16.3719 10.1152 16.1192 10.1152 15.807V13.5861C10.1152 13.2739 9.86208 13.0212 9.55025 13.0212ZM8.98534 15.2424H7.8947V14.1514H8.98534V15.2424Z" fill="#C2C2C2"/>
<path d="M14.0936 13.0212H11.8728C11.5609 13.0212 11.3079 13.2739 11.3079 13.5861V15.807C11.3079 16.1192 11.5609 16.3719 11.8728 16.3719H14.0936C14.4054 16.3719 14.6585 16.1192 14.6585 15.807V13.5861C14.6585 13.2739 14.4058 13.0212 14.0936 13.0212ZM13.5287 15.2424H12.4377V14.1514H13.5287V15.2424Z" fill="#C2C2C2"/>
</svg>
