<svg width="12" height="12" viewBox="0 0 12 12" fill="none" xmlns="http://www.w3.org/2000/svg">
<path d="M6.00008 0.166667C2.78008 0.166667 0.166748 2.78 0.166748 6C0.166748 9.22 2.78008 11.8333 6.00008 11.8333C9.22008 11.8333 11.8334 9.22 11.8334 6C11.8334 2.78 9.22008 0.166667 6.00008 0.166667ZM4.41925 8.5025L2.32508 6.40833C2.27108 6.35433 2.22824 6.29021 2.19901 6.21965C2.16978 6.14909 2.15474 6.07346 2.15474 5.99708C2.15474 5.92071 2.16978 5.84508 2.19901 5.77452C2.22824 5.70395 2.27108 5.63984 2.32508 5.58583C2.37909 5.53183 2.4432 5.48899 2.51376 5.45976C2.58433 5.43053 2.65996 5.41549 2.73633 5.41549C2.81271 5.41549 2.88834 5.43053 2.9589 5.45976C3.02946 5.48899 3.09358 5.53183 3.14758 5.58583L4.83342 7.26583L8.84675 3.2525C8.95582 3.14343 9.10375 3.08215 9.258 3.08215C9.41225 3.08215 9.56018 3.14343 9.66925 3.2525C9.77832 3.36157 9.83959 3.5095 9.83959 3.66375C9.83959 3.818 9.77832 3.96593 9.66925 4.075L5.24175 8.5025C5.18778 8.55658 5.12368 8.59948 5.05311 8.62875C4.98254 8.65803 4.9069 8.67309 4.8305 8.67309C4.7541 8.67309 4.67845 8.65803 4.60788 8.62875C4.53732 8.59948 4.47321 8.55658 4.41925 8.5025Z" fill="#30BE76"/>
</svg>
