<svg width="40" height="40" viewBox="0 0 40 40" fill="none" xmlns="http://www.w3.org/2000/svg">
<path d="M1.60361 27.7721C2.60932 30.1497 4.04873 32.2848 5.88194 34.1181C7.71508 35.9512 9.8502 37.3906 12.2279 38.3963C14.6903 39.4378 17.3053 39.9659 20.0001 39.9659C22.6948 39.9659 25.3097 39.4378 27.7722 38.3963C30.1499 37.3906 32.285 35.9512 34.1183 34.1181C35.9514 32.2848 37.3907 30.1497 38.3964 27.7721C39.438 25.3096 39.9661 22.6947 39.9661 19.9999C39.9661 17.3052 39.438 14.6903 38.3964 12.2277C37.3907 9.85005 35.9513 7.71493 34.1183 5.88179C32.285 4.04858 30.1499 2.60917 27.7722 1.60346C25.3097 0.56207 22.6948 0.0339661 20 0.0339661C17.3053 0.0339661 14.6903 0.56207 12.2278 1.6036C9.85013 2.60924 7.71508 4.04871 5.88187 5.88192C4.04866 7.71506 2.60925 9.85018 1.60355 12.2279C0.562086 14.6903 0.0339813 17.3052 0.0339813 20C0.0339813 22.6947 0.562086 25.3096 1.60361 27.7721ZM4.28526 13.3621C5.14416 11.3315 6.37402 9.50742 7.94073 7.94071C9.50744 6.374 11.3315 5.14414 13.3621 4.28524C15.4637 3.39637 17.697 2.94568 20 2.94568C22.3029 2.94568 24.5363 3.39637 26.6379 4.28531C28.6685 5.14414 30.4926 6.37407 32.0593 7.94078C33.626 9.50749 34.8558 11.3315 35.7147 13.3622C36.6036 15.4637 37.0543 17.6971 37.0543 20C37.0543 22.3029 36.6036 24.5362 35.7147 26.6379C34.8558 28.6684 33.626 30.4925 32.0593 32.0592C30.4926 33.626 28.6685 34.8558 26.6379 35.7147C24.5363 36.6036 22.3029 37.0543 20 37.0543C17.6971 37.0543 15.4637 36.6036 13.3621 35.7147C11.3315 34.8558 9.50744 33.626 7.94073 32.0592C6.37402 30.4925 5.14416 28.6684 4.28526 26.6378C3.39638 24.5362 2.94569 22.3029 2.94569 20C2.94569 17.697 3.39638 15.4637 4.28526 13.3621Z" fill="#CFCFCF"/>
<path d="M20 40C17.3006 40 14.6812 39.471 12.2146 38.4277C9.83287 37.4203 7.69415 35.9785 5.85795 34.1422C4.02168 32.3059 2.57983 30.1672 1.57235 27.7854C0.528988 25.3187 0 22.6993 0 20C0 17.3007 0.528988 14.6814 1.57228 12.2146C2.57969 9.83287 4.02161 7.69415 5.85788 5.85795C7.69415 4.02161 9.8328 2.57976 12.2146 1.57235C14.6813 0.528988 17.3007 0 20 0C22.6993 0 25.3187 0.528988 27.7854 1.57228C30.1671 2.57969 32.3059 4.02161 34.1422 5.85788C35.9784 7.69408 37.4202 9.83273 38.4277 12.2146C39.471 14.6812 40 17.3006 40 19.9999C40 22.6992 39.471 25.3187 38.4277 27.7853C37.4203 30.1671 35.9785 32.3059 34.1422 34.1421C32.3059 35.9784 30.1671 37.4202 27.7854 38.4276C25.3188 39.4709 22.6994 40 20 40ZM20 0.0679671C17.3099 0.0679671 14.6994 0.595188 12.2411 1.63488C9.8674 2.63882 7.73595 4.07585 5.90593 5.90593C4.07592 7.73595 2.63889 9.8674 1.63488 12.2411C0.595188 14.6994 0.0679671 17.3099 0.0679671 20C0.0679671 22.6901 0.595188 25.3006 1.63488 27.7589C2.63889 30.1326 4.07592 32.2641 5.90593 34.0941C7.73595 35.9241 9.8674 37.361 12.2411 38.3651C14.6992 39.4048 17.3098 39.932 20 39.932C22.6902 39.932 25.3007 39.4048 27.7589 38.3651C30.1325 37.3611 32.264 35.9241 34.0941 34.0941C35.9241 32.264 37.361 30.1325 38.3651 27.7589C39.4048 25.3007 39.932 22.6902 39.932 20C39.932 17.3098 39.4048 14.6993 38.3651 12.2411C37.3611 9.86733 35.9241 7.73588 34.0941 5.90593C32.264 4.07585 30.1325 2.63889 27.7589 1.63488C25.3006 0.595188 22.6901 0.0679671 20 0.0679671ZM20 37.0883C17.6924 37.0883 15.4547 36.6366 13.3489 35.7461C11.3143 34.8855 9.48664 33.6531 7.91681 32.0833C6.34704 30.5135 5.11473 28.6859 4.25406 26.651C3.36328 24.5453 2.91171 22.3076 2.91171 20C2.91171 17.6925 3.36335 15.4548 4.25399 13.3489C5.11459 11.3143 6.3469 9.48664 7.91674 7.91681C9.48658 6.34697 11.3142 5.11466 13.3489 4.25406C15.4547 3.36342 17.6924 2.91178 19.9999 2.91178C22.3075 2.91178 24.5452 3.36342 26.6511 4.25413C28.6858 5.11473 30.5134 6.34704 32.0832 7.91688C33.6531 9.48678 34.8854 11.3144 35.746 13.349C36.6366 15.4548 37.0882 17.6925 37.0882 20.0001C37.0882 22.3076 36.6366 24.5454 35.746 26.6512C34.8853 28.6859 33.653 30.5136 32.0832 32.0833C30.5134 33.6532 28.6858 34.8855 26.6511 35.7461C24.5453 36.6366 22.3076 37.0883 20 37.0883ZM20 2.97968C17.7016 2.97968 15.4728 3.42948 13.3754 4.31659C11.3488 5.17379 9.52838 6.40121 7.96479 7.96479C6.40121 9.52838 5.17372 11.3488 4.31659 13.3754C3.42948 15.4728 2.97968 17.7016 2.97968 20C2.97968 22.2984 3.42948 24.5272 4.31659 26.6246C5.17386 28.6513 6.40128 30.4718 7.96479 32.0352C9.52844 33.5989 11.3488 34.8262 13.3754 35.6834C15.4727 36.5705 17.7016 37.0203 20 37.0203C22.2984 37.0203 24.5272 36.5705 26.6248 35.6834C28.6513 34.8262 30.4717 33.5988 32.0352 32.0352C33.5987 30.4716 34.8261 28.6513 35.6834 26.6248C36.5705 24.5273 37.0203 22.2984 37.0203 20C37.0203 17.7016 36.5705 15.4728 35.6834 13.3754C34.8263 11.3489 33.5989 9.52851 32.0352 7.96486C30.4716 6.40128 28.6513 5.17386 26.6248 4.31666C24.5272 3.42948 22.2984 2.97968 20 2.97968Z" fill="#CFCFCF"/>
<path d="M28.3986 30.0781C27.9687 30.0781 27.5388 29.9141 27.2109 29.5858L10.4141 12.789C9.7578 12.1327 9.7578 11.0699 10.4141 10.414C11.07 9.75803 12.1332 9.75767 12.7891 10.414L29.5859 27.2108C30.2422 27.8671 30.2422 28.9299 29.5859 29.5858C29.2579 29.9141 28.8284 30.0781 28.3986 30.0781V30.0781Z" fill="#CFCFCF"/>
<path d="M11.6014 30.0781C11.1716 30.0781 10.7421 29.9141 10.4141 29.5858C9.7578 28.9299 9.7578 27.8667 10.4141 27.2108L27.211 10.4141C27.8673 9.7578 28.9301 9.7578 29.586 10.4141C30.242 11.07 30.2423 12.1332 29.586 12.7891L12.7891 29.5858C12.4612 29.9141 12.0313 30.0781 11.6014 30.0781V30.0781Z" fill="#CFCFCF"/>
</svg>
