<svg width="24" height="24" viewBox="0 0 24 24" fill="none" xmlns="http://www.w3.org/2000/svg">
<path d="M15.1894 6.97966H9.39236C9.07031 6.97966 8.81726 6.72661 8.81726 6.40455C8.81726 6.0825 9.07031 5.82945 9.39236 5.82945H15.1894C15.5114 5.82945 15.7645 6.0825 15.7645 6.40455C15.7645 6.72661 15.4884 6.97966 15.1894 6.97966Z" fill="white" stroke="white" stroke-width="0.1"/>
<path d="M15.1894 9.28009H9.39236C9.07031 9.28009 8.81726 9.02704 8.81726 8.70498C8.81726 8.38293 9.07031 8.12988 9.39236 8.12988H15.1894C15.5114 8.12988 15.7645 8.38293 15.7645 8.70498C15.7645 9.02704 15.4884 9.28009 15.1894 9.28009Z" fill="white" stroke="white" stroke-width="0.1"/>
<path d="M15.1894 11.5805H9.39236C9.07031 11.5805 8.81726 11.3275 8.81726 11.0054C8.81726 10.6834 9.07031 10.4303 9.39236 10.4303H15.1894C15.5114 10.4303 15.7645 10.6834 15.7645 11.0054C15.7645 11.3275 15.4884 11.5805 15.1894 11.5805Z" fill="white" stroke="white" stroke-width="0.1"/>
<path d="M19.3532 4.65629H18.5711V4.61028C18.5711 3.71313 17.858 3 16.9608 3H7.59815C6.70099 3 5.98787 3.71313 5.98787 4.61028V5.8295H5.41277C5.25174 5.8295 5.13672 5.96752 5.13672 6.10555C5.13672 6.24357 5.27474 6.3816 5.41277 6.3816H5.98787V7.02571H5.41277C5.25174 7.02571 5.13672 7.16374 5.13672 7.30176C5.13672 7.43978 5.27474 7.57781 5.41277 7.57781H5.98787V8.22192H5.41277C5.25174 8.22192 5.13672 8.35995 5.13672 8.49797C5.13672 8.659 5.27474 8.77402 5.41277 8.77402H5.98787V9.41813H5.41277C5.25174 9.41813 5.13672 9.55616 5.13672 9.69418C5.13672 9.83221 5.27474 9.97023 5.41277 9.97023H5.98787V10.6143H5.41277C5.25174 10.6143 5.13672 10.7524 5.13672 10.8904C5.13672 11.0284 5.27474 11.1664 5.41277 11.1664H5.98787V11.8106H5.41277C5.25174 11.8106 5.13672 11.9486 5.13672 12.0866C5.13672 12.2246 5.27474 12.3627 5.41277 12.3627H5.98787V13.0068H5.41277C5.25174 13.0068 5.13672 13.1448 5.13672 13.2828C5.13672 13.4208 5.27474 13.5589 5.41277 13.5589H5.98787V14.203H5.41277C5.25174 14.203 5.13672 14.341 5.13672 14.479C5.13672 14.6171 5.27474 14.7551 5.41277 14.7551H5.98787V15.3992H5.41277C5.25174 15.3992 5.13672 15.5372 5.13672 15.6752C5.13672 15.8363 5.27474 15.9743 5.41277 15.9743H5.98787V16.6184H5.41277C5.25174 16.6184 5.13672 16.7564 5.13672 16.8945C5.13672 17.0325 5.27474 17.1705 5.41277 17.1705H5.98787V18.3897C5.98787 19.2869 6.70099 20 7.59815 20H16.9608C17.858 20 18.5711 19.2869 18.5711 18.3897V18.2287H18.8931C19.1462 18.2287 19.3532 18.0217 19.3532 17.7686V16.7334C19.3532 16.4804 19.1462 16.2733 18.8931 16.2733H18.5711V15.7673H18.8931C19.1462 15.7673 19.3532 15.5602 19.3532 15.3072V14.0189C19.3532 13.7659 19.1462 13.5589 18.8931 13.5589H18.5711V13.2138H18.8931C19.1462 13.2138 19.3532 13.0068 19.3532 12.7537V11.1434C19.3532 10.8904 19.1462 10.6834 18.8931 10.6834H18.5711V10.3383H18.8931C19.1462 10.3383 19.3532 10.1313 19.3532 9.87821V8.58999C19.3532 8.33694 19.1462 8.12991 18.8931 8.12991H18.5711V7.62382H19.3532C19.6063 7.62382 19.8133 7.41678 19.8133 7.16373V5.09337C19.8133 4.86333 19.6063 4.65629 19.3532 4.65629ZM17.4209 18.6428C17.4209 18.8958 17.2139 19.1028 16.9608 19.1028H7.59815C7.34511 19.1028 7.13807 18.8958 7.13807 18.6428V4.61028C7.13807 4.35724 7.34511 4.1502 7.59815 4.1502H16.9608C17.2139 4.1502 17.4209 4.35724 17.4209 4.61028V18.6428ZM19.2382 7.07172H18.5711V5.23139H19.2382V7.07172Z" fill="white" stroke="white" stroke-width="0.1"/>
</svg>
