<svg width="52" height="48" viewBox="0 0 52 48" fill="none" xmlns="http://www.w3.org/2000/svg">
<path d="M45.988 48H7.25358C3.48908 48 0.436523 44.9474 0.436523 41.1829V5.16674C0.436523 2.3191 2.74481 0 5.60324 0H45.988C48.8356 0 51.1547 2.30831 51.1547 5.16674V42.8333C51.1547 45.6809 48.8356 48 45.988 48Z" fill="#06D2FF"/>
<path d="M25.4365 16.6875V33.75M25.4365 16.6875C25.4365 16.6875 19.749 11.8125 14.0615 15.875V33.75C19.749 29.6875 25.4365 33.75 25.4365 33.75C25.4365 33.75 31.124 29.6875 36.8115 33.75V15.875C31.124 11.8125 25.4365 16.6875 25.4365 16.6875Z" stroke="white" stroke-width="2" stroke-linecap="round" stroke-linejoin="round"/>
</svg>
