<svg width="24" height="24" viewBox="0 0 24 24" fill="none" xmlns="http://www.w3.org/2000/svg">
<path d="M14.7794 11.9963H7.89831C7.11747 11.9963 6.19023 11.7035 5.5558 11.4107C6.09263 10.9959 6.84906 10.459 7.6055 9.97103C6.97107 9.16579 6.58065 8.14094 6.58065 7.01849C6.50745 7.04289 6.45864 7.0917 6.38544 7.1161C1.92004 9.87342 1.92004 10.8983 1.92004 11.5083C1.92004 13.558 5.28739 14.8756 7.43469 15.022L7.16628 21.1964C7.14188 21.7088 7.55669 22.1237 8.06912 22.1237H14.5598C15.0722 22.1237 15.487 21.7088 15.4626 21.1964L15.3894 21.2199C15.6579 21.4395 15.9995 21.5615 16.3411 21.5615C16.6583 21.5615 16.9755 21.4639 17.2439 21.2687C18.83 20.1463 20.7089 18.4626 20.6845 16.8521C20.6845 14.5828 15.9507 11.9963 14.7794 11.9963ZM15.4626 18.7798C15.4138 18.8042 15.3894 18.853 15.3406 18.9018L15.2186 15.3393C15.9751 15.7541 16.9999 16.4617 17.4879 16.9497C17.1219 17.4378 16.2923 18.1942 15.4626 18.7798Z" fill="#CD2A00"/>
<path d="M11.3388 10.9959C13.5489 10.9959 15.3406 9.20427 15.3406 6.99415C15.3406 4.78403 13.5489 2.99237 11.3388 2.99237C9.12869 2.99237 7.33704 4.78403 7.33704 6.99415C7.33704 9.20427 9.12869 10.9959 11.3388 10.9959Z" fill="#CD2A00"/>
<path d="M18.6835 4.52964C17.9759 4.23682 16.829 4.50523 16.0238 5.01766C15.853 5.11526 15.9506 5.38367 16.1458 5.35927C16.6582 5.31047 17.1951 5.35927 17.7563 5.9693C18.2199 6.48172 18.8543 6.94534 19.3424 6.33532C19.8304 5.74969 19.5132 4.89565 18.6835 4.52964Z" fill="#CD2A00"/>
<path d="M15.853 4.2856C16.2435 3.74877 16.7071 3.28515 17.7319 3.23635C18.586 3.21195 19.562 2.96794 19.3912 2.0163C19.2204 1.06466 18.1467 0.674239 17.1219 1.18666C16.2679 1.62588 15.5846 2.94354 15.4382 4.11479C15.3894 4.3588 15.7066 4.48081 15.853 4.2856Z" fill="#CD2A00"/>
</svg>
