<svg width="11" height="15" viewBox="0 0 11 15" fill="none" xmlns="http://www.w3.org/2000/svg">
<path d="M6.22748 10.69L8.28446 8.81997C8.7238 8.42057 9.43611 8.42057 9.87545 8.81997C10.3148 9.21937 10.3148 9.86693 9.87545 10.2663L5.89797 13.8822C5.6783 14.0819 5.39039 14.1818 5.10248 14.1818C4.81456 14.1818 4.52665 14.0819 4.30698 13.8822L0.329505 10.2663C-0.109835 9.86693 -0.109835 9.21937 0.329505 8.81997C0.768845 8.42057 1.48116 8.42057 1.9205 8.81997L3.97748 10.69L3.97748 1.56813C3.97748 1.00329 4.48116 0.545399 5.10248 0.545399C5.7238 0.545399 6.22748 1.00329 6.22748 1.56813L6.22748 10.69Z" fill="#EE1C1C"/>
</svg>
