<svg width="20" height="15" viewBox="0 0 20 15" fill="none" xmlns="http://www.w3.org/2000/svg">
<path d="M19.0951 14.25V10.125C19.0951 9.91789 19.2723 9.75 19.4909 9.75C19.7095 9.75 19.8867 9.91789 19.8867 10.125V14.625C19.8867 14.8321 19.7095 15 19.4909 15H1.28255C1.06394 15 0.886719 14.8321 0.886719 14.625V10.125C0.886719 9.91789 1.06394 9.75 1.28255 9.75C1.50116 9.75 1.67839 9.91789 1.67839 10.125V14.25H19.0951ZM10.7826 10.5267L13.4374 8.01149C13.592 7.86504 13.8427 7.86504 13.9972 8.01149C14.1518 8.15793 14.1518 8.39537 13.9972 8.54182L10.6385 11.7238C10.4839 11.8702 10.2333 11.8702 10.0787 11.7238L6.71993 8.54182C6.56535 8.39537 6.56535 8.15793 6.71993 8.01149C6.87452 7.86504 7.12514 7.86504 7.27973 8.01149L9.99089 10.58V0.375C9.99089 0.167893 10.1681 0 10.3867 0C10.6053 0 10.7826 0.167893 10.7826 0.375V10.5267Z" fill="#5C5C5C"/>
</svg>
