<svg width="17" height="20" viewBox="0 0 17 20" fill="none" xmlns="http://www.w3.org/2000/svg">
<path d="M5.09154 15.0476L0.871155 16.4359L1.99219 12.1565L12.4564 1.08838C12.513 1.03179 12.5898 1 12.6698 1C12.7499 1 12.8267 1.03179 12.8833 1.08838L15.528 3.59423C15.5571 3.62111 15.5808 3.65348 15.5974 3.68949C15.6141 3.72549 15.6235 3.76443 15.6251 3.80408C15.6267 3.84373 15.6205 3.8833 15.6068 3.92054C15.5931 3.95779 15.5722 3.99197 15.5453 4.02113L5.09154 15.0476Z" stroke="#333333" stroke-linecap="round" stroke-linejoin="round"/>
<path d="M10.7904 2.84814L13.8793 5.76701" stroke="#333333" stroke-linecap="round" stroke-linejoin="round"/>
<path d="M1.28766 14.874L2.41217 15.9361" stroke="#333333" stroke-linecap="round" stroke-linejoin="round"/>
<path d="M0 19.0354H12.8382" stroke="#333333" stroke-linejoin="round"/>
</svg>
