<svg width="51" height="50" viewBox="0 0 51 50" fill="none" xmlns="http://www.w3.org/2000/svg">
<path d="M37.5989 35H15.0182C14.3505 35 13.8086 34.5521 13.8086 34.0003C13.8086 33.4479 14.3505 33 15.0182 33H37.5989C38.2666 33 38.8086 33.4479 38.8086 34.0003C38.8087 34.5522 38.2667 35 37.5989 35Z" fill="#333333"/>
<path d="M36.8086 17.9996C36.8086 19.657 35.4652 21 33.8082 21C32.1511 21 30.8086 19.657 30.8086 17.9996C30.8086 16.343 32.1511 15 33.8082 15C35.4652 15 36.8086 16.343 36.8086 17.9996Z" fill="#333333"/>
<path d="M20.8086 17.9996C20.8086 19.657 19.465 21 17.8086 21C16.1513 21 14.8086 19.657 14.8086 17.9996C14.8086 16.343 16.1513 15 17.8086 15C19.4659 15 20.8086 16.343 20.8086 17.9996Z" fill="#333333"/>
<path fill-rule="evenodd" clip-rule="evenodd" d="M0.808594 25.0005C0.808594 38.785 12.0231 50 25.8086 50C39.5933 50 50.8086 38.7849 50.8086 25.0004C50.8086 11.215 39.5933 0 25.8086 0C12.0239 0 0.809309 11.215 0.808594 25.0005ZM3.21649 25.0005C3.21649 12.5432 13.3515 2.4082 25.8086 2.4082C38.2665 2.4082 48.4007 12.5431 48.4007 25.0004C48.4007 37.4576 38.2665 47.5926 25.8086 47.5926C13.3515 47.5926 3.21649 37.4577 3.21649 25.0005Z" fill="#333333"/>
</svg>
