<svg width="97" height="67" viewBox="0 0 97 67" fill="none" xmlns="http://www.w3.org/2000/svg">
<path d="M33.6195 19.4706C31.815 11.1304 23.8169 5.55402 15.331 6.6208C6.8939 7.68758 0.797734 15.0096 0.944042 23.1559C0.944042 23.8832 0.748965 39.2545 0.700195 44.346C0.700195 45.0248 1.43174 45.4128 2.01697 45.0248L11.6733 38.2847C14.4531 39.303 17.4281 39.594 20.3542 39.1091C29.5229 37.5089 35.619 28.5867 33.6195 19.4706ZM18.501 30.3809C18.2572 30.6718 17.867 30.8173 17.4768 30.8173C16.6965 30.8173 16.0625 30.1869 16.0625 29.4111C16.0625 28.6352 16.6965 28.0049 17.4768 28.0049C18.3059 28.0049 18.9399 28.5867 18.9399 29.3626C18.8912 29.7505 18.7936 30.1384 18.501 30.3809ZM20.0616 22.38L19.5739 22.768C19.135 23.1559 18.6961 23.5438 18.6473 24.1742C18.5985 24.6591 18.5985 25.144 18.5985 25.6773C18.5985 25.7743 18.5985 25.8713 18.5498 25.9198C18.5498 25.9198 18.501 25.9683 18.3059 25.9683C18.2084 25.9683 18.0621 25.9683 17.9645 25.9683H17.3793C17.0379 25.9683 16.6478 25.9683 16.3064 25.9683C16.1601 25.9683 16.1113 25.9198 16.1113 25.7743C16.0625 24.7075 16.1113 23.4953 16.5015 22.6225C16.7941 21.9921 17.3305 21.5557 17.867 21.1678C18.3059 20.8768 18.6961 20.5374 19.0375 20.101C19.6227 19.2767 19.5252 18.6463 19.3301 18.2584C18.9887 17.628 18.2572 17.2401 17.4281 17.2401C16.3552 17.2401 15.5261 17.8705 15.1847 18.9372C15.0871 19.2767 15.0384 19.3252 14.8921 19.3252C14.7945 19.3252 14.7458 19.3252 14.5995 19.3252C14.0142 19.2282 13.429 19.1797 12.795 19.0827C12.5999 19.0827 12.5511 18.9857 12.5511 18.8403C12.795 16.3188 15.2335 15.0096 17.5256 15.0096C18.8424 15.0096 20.1104 15.446 20.9882 16.1733C21.8173 16.9007 22.305 17.8705 22.305 18.8888C22.305 20.3435 21.1345 21.4102 20.0616 22.38Z" fill="#C9E0FA"/>
<path d="M81.6346 3.85717C72.8721 1.53959 62.2695 3.80977 55.437 11.9695C48.6061 20.131 51.3165 28.1164 42.1647 38.5007C39.412 41.6257 43.2447 41.7916 46.0854 42.0998C47.4465 42.2487 49.8555 44.8643 50.0603 49.0711C50.4463 56.9549 55.9313 56.9075 58.8973 56.7433C61.8615 56.5791 66.8048 55.4669 68.7821 64.3631H92.911C92.911 64.3631 90.0364 50.3594 92.911 36.8535C94.4092 29.8059 98.6025 8.34674 81.6346 3.85717ZM72.6622 41.2618C64.3365 41.2618 57.587 34.5122 57.587 26.1865C57.587 17.8608 64.3365 11.1112 72.6622 11.1112C80.9896 11.1112 87.7375 17.8608 87.7375 26.1865C87.7375 34.5122 80.9896 41.2618 72.6622 41.2618Z" fill="#1D7DEA"/>
<path d="M70.0572 33.3835C70.6492 33.3835 71.2412 33.185 71.7016 32.7218L80.9108 23.4577C81.8317 22.5313 81.8317 21.0755 80.9108 20.2153C79.9899 19.2889 78.5427 19.2889 77.6876 20.2153L70.0572 27.8251L67.0313 24.7812C66.1104 23.8548 64.6632 23.8548 63.8081 24.7812C62.8872 25.7076 62.8872 27.1634 63.8081 28.0236L68.4127 32.6556C68.8731 33.185 69.4651 33.3835 70.0572 33.3835Z" fill="#1D7DEA"/>
</svg>
