<svg width="23" height="20" viewBox="0 0 23 20" fill="none" xmlns="http://www.w3.org/2000/svg">
<path d="M18.9882 0H4.01178C1.79824 0 0 1.70924 0 3.81759V13.2346C0 15.342 1.79721 17.0522 4.01178 17.0522H4.14678V19.088C4.14678 19.9274 4.75684 20.2461 5.49984 19.795L9.74658 17.2228C9.84345 17.163 9.92383 17.1061 9.99185 17.0522H18.9882C21.2038 17.0522 23 15.3429 23 13.2346V3.81759C23 1.70924 21.2048 0 18.9882 0ZM11.0296 14.6437C10.0897 14.6437 9.45186 13.9857 9.45186 13.1091C9.45186 12.2147 10.1083 11.5744 11.0296 11.5744C11.9879 11.5744 12.6073 12.2147 12.6258 13.1091C12.6258 13.9857 11.9879 14.6437 11.0296 14.6437ZM13.1751 7.7558C12.5187 8.44812 12.2528 9.10515 12.2713 9.86415V10.1681H9.91456L9.89601 9.72981C9.84139 8.86882 10.1433 7.99213 10.9409 7.08113C11.5088 6.4398 11.9694 5.90045 11.9694 5.32678C11.9694 4.73546 11.5623 4.34713 10.6751 4.31477C10.0897 4.31477 9.38075 4.51678 8.92011 4.82078L8.31829 2.98209C8.95618 2.62711 10.0186 2.29075 11.279 2.29075C13.6182 2.29075 14.6827 3.52144 14.6827 4.92178C14.6827 6.20444 13.8501 7.04779 13.1751 7.7558Z" fill="white"/>
</svg>
