<svg width="318" height="515" viewBox="0 0 318 515" fill="none" xmlns="http://www.w3.org/2000/svg">
<path d="M144.415 299.933C141.889 315.881 139.936 332.028 138.131 348.652C134.439 377.041 127.515 404.935 124.07 433.373C123.282 439.848 123.627 446.372 122.183 452.732C121.33 456.472 122.265 460.954 121.083 464.479C123.61 464.792 126.81 465.666 129.32 465.303C130.502 465.138 130.239 465.831 131.207 464.825C132.7 463.277 133.225 462.107 133.75 459.981C136.392 449.305 139.608 438.563 141.413 427.721C144.694 408.774 148.796 389.826 152.078 370.879C156.18 348.224 159.461 325.767 164.482 303.837" fill="#FFCEBB"/>
<path d="M139.772 432.68C140.395 436.47 139.723 440.638 139.149 444.378C138.345 449.799 137.114 455.17 135.408 460.376C133.849 465.089 131.896 470.559 128.172 474.019C126.892 475.205 125.317 476.128 123.528 476.062C119.394 475.93 118.442 472.915 118.442 469.405C118.442 465.237 118.573 461.068 118.688 456.9C118.918 448.547 119.246 440.193 119.246 431.84C125.825 431.856 133.209 432.68 139.772 432.68Z" fill="#EDEDED"/>
<path d="M114.34 449.98C115.374 455.186 115.915 460.591 115.751 465.912C115.653 468.829 115.554 476.012 111.78 476.688C110.763 476.869 109.746 477.034 108.729 477.198C105.939 477.66 103.15 478.121 100.361 478.648C97.5712 479.192 94.7655 479.752 92.0418 480.593C90.5323 481.054 88.2516 481.581 87.2507 482.932C77.1272 500.249 129.222 493.806 137.294 494.465C138.115 479.637 137.294 465.632 141.396 450.804C132.389 451.628 123.364 452.451 114.34 449.98Z" fill="#824082"/>
<path d="M106.136 477.99C108.597 480.461 113.454 481.977 115.981 484.399" stroke="white" stroke-width="0.5" stroke-miterlimit="10" stroke-linecap="round" stroke-linejoin="round"/>
<path d="M111.781 476.688C115.062 479.159 121.855 482.422 124.316 483.245" stroke="white" stroke-width="0.5" stroke-miterlimit="10" stroke-linecap="round" stroke-linejoin="round"/>
<path d="M114.34 473.871C117.621 475.518 123.741 477.166 127.023 477.99" stroke="white" stroke-width="0.5" stroke-miterlimit="10" stroke-linecap="round" stroke-linejoin="round"/>
<path d="M115.981 470.048C120.083 470.872 123.315 470.576 127.417 471.399" stroke="white" stroke-width="0.5" stroke-miterlimit="10" stroke-linecap="round" stroke-linejoin="round"/>
<path d="M115.981 464.809C118.459 464.809 123.496 464.809 127.598 465.632" stroke="white" stroke-width="0.5" stroke-miterlimit="10" stroke-linecap="round" stroke-linejoin="round"/>
<path d="M126.629 451.611C128.27 462.321 127.45 472.223 126.629 482.932C120.066 483.756 115.078 484.992 107.941 484.662" stroke="white" stroke-width="0.5" stroke-miterlimit="10" stroke-linecap="round" stroke-linejoin="round"/>
<path d="M110.238 490.347C116.801 490.347 131.617 489.342 137.541 489.342C141.724 490.874 142.545 493.033 140.477 497.909C139.756 499.606 139.034 499.639 136.983 500.051C130.042 501.452 122.019 501.946 114.963 501.419C108.089 500.908 101.247 501.518 94.3717 500.299C89.4493 499.425 84.3301 497.942 80.9993 493.939C77.0779 489.227 80.9337 483.773 84.7239 480.33C87.4148 477.891 91.0901 476.606 94.6178 476.095C97.965 475.601 100.836 478.402 103.462 480.247C105.168 481.45 106.727 482.916 107.941 484.646C108.236 485.058 110.665 490.347 110.238 490.347Z" fill="#F4F4F4"/>
<path d="M127.466 490.396C127.335 486.426 131.683 482.109 137.705 484.168" stroke="white" stroke-width="0.5" stroke-miterlimit="10" stroke-linecap="round" stroke-linejoin="round"/>
<path d="M132.388 464.809C131.42 467.395 131.141 470.74 133.635 472.552C136.408 474.579 141.085 473.442 142.118 470.015C142.857 467.577 141.544 464.891 140.297 462.864C138.016 459.174 133.849 461.859 132.388 464.809Z" fill="white"/>
<path d="M166.517 150.84C127.138 161.599 95.0443 235.857 124.447 270.655C155.08 306.902 242.583 302.503 249.146 249.779C251.328 231.112 250.245 191.569 240.401 176.181C227.275 153.114 198.84 149.819 174.77 149.819C174.77 149.835 168.157 150.396 166.517 150.84Z" fill="#D8A636"/>
<path d="M63.6072 112.6C63.2626 114.017 62.8524 115.401 62.3438 116.752C61.0475 120.195 59.1114 121.826 56.7651 124.479C55.4525 125.978 54.3696 127.642 53.6805 129.521C52.1873 133.574 51.892 138.138 52.253 142.421C52.5647 146.244 53.4179 150.099 54.5501 153.757C55.6658 157.398 57.7496 160.43 61.1624 162.11C68.7264 165.85 70.1046 175.439 72.7463 182.491C75.2239 189.115 77.9147 195.672 81.1799 201.949C83.6903 206.744 86.5616 211.769 90.6636 215.377C92.6653 217.14 95.1593 218.64 97.9322 218.508C113.52 217.684 136.359 204.223 152.767 200.104C168.125 196.578 216.281 200.121 235.757 199.56C255.447 198.737 256.398 204.635 292.495 210.138C283.077 217.585 242.55 231.985 236.808 246.814C233.526 255.876 238.662 294.677 242.025 301.679C245.799 301.926 243.961 294.726 243.961 286.9C246.422 292.667 251.64 304.151 254.183 301.926C255.348 301.284 248.047 284.429 249.179 284.659C256.743 289.948 259.614 297.297 262.42 296.918C264.422 294.314 257.416 286.406 252.411 280.244C256.513 282.715 266.883 287.872 267.736 286.076C267.293 281.611 260.911 280.557 256.103 276.273C253.56 273.999 255.939 256.996 247.998 249.961C262.961 243.37 316.549 217.832 317.37 209.051C316.27 199.297 284.964 194.634 269.377 190.515C251.328 185.572 220.843 174.171 202.794 171.699C183.105 168.404 173.392 172.391 154.523 178.982C137.294 185.572 120.608 196.694 97.9158 202.872C89.7119 192.986 83.9692 178.982 79.0469 167.449C78.3249 165.85 77.8983 164.12 77.1928 162.522C76.7498 161.501 75.1254 153.675 76.5857 151.088C77.6194 149.242 77.9639 147.414 78.3249 145.371C78.8992 142.174 79.4571 138.451 78.6367 135.238C77.8491 132.124 75.7325 129.422 74.8629 126.258C74.5347 125.089 73.9769 123.836 73.7307 122.683C73.4026 121.184 73.862 119.964 74.0261 118.465C74.223 116.719 74.1902 114.923 74.3542 113.193C74.7152 109.321 74.1409 103.258 71.1875 100.308C68.6607 97.7876 65.4776 100.407 64.969 103.126C64.3783 106.273 64.3619 109.469 63.6072 112.6Z" fill="#FFCEBB"/>
<path d="M115.489 457.839C118.77 457.839 123.364 457.378 127.466 458.202" stroke="white" stroke-width="0.5" stroke-miterlimit="10" stroke-linecap="round" stroke-linejoin="round"/>
<path d="M85.6597 487.875C85.6597 487.875 98.7531 490.808 111.879 490.347" stroke="#BABABA" stroke-width="0.75" stroke-miterlimit="10" stroke-linecap="round" stroke-linejoin="round"/>
<path d="M180.792 266.272C170.947 264.476 161.316 260.983 151.307 260.225C147.418 259.929 142.742 259.204 140.314 262.779C137.131 267.458 137.311 273.999 135.588 279.239C133.275 286.208 130.223 292.963 128.303 300.064C122.56 316.541 129.201 398.058 122.638 414.534C136.585 425.243 127.341 421.498 143.749 425.617C146.21 419.027 168.672 347.927 172.249 339.59C168.453 410.491 149.961 418.527 151.307 420.34C151.729 420.915 131.143 438.778 146.388 443.034C154.266 445.233 165.261 445.548 172.249 443.034C198.788 410.312 227.163 311.598 223.881 285.236C223.061 273.703 220.187 274.526 211.983 271.231C202.942 267.096 189.816 267.92 180.792 266.272Z" fill="#004B61"/>
<path d="M171.767 351.124C171.767 351.124 171.718 349.839 171.636 347.565C171.603 346.428 171.571 345.061 171.521 343.496C171.505 342.705 171.472 341.864 171.456 340.991C171.439 340.101 171.521 339.179 171.571 338.207C171.669 336.263 171.767 334.154 171.882 331.929C171.948 329.689 172.26 327.365 172.506 324.96C172.785 322.554 173.014 320.05 173.408 317.529C173.769 315.008 174.147 312.455 174.508 309.884C176.312 299.719 178.117 289.536 179.479 281.908C180.185 278.102 180.611 274.906 180.989 272.681C181.366 270.441 181.579 269.172 181.579 269.172C181.579 269.172 181.481 270.457 181.3 272.714C181.202 273.835 181.087 275.219 180.956 276.784C180.841 278.366 180.677 280.128 180.382 282.056C179.857 285.895 179.348 290.41 178.527 295.171C177.756 299.949 176.936 305.057 176.116 310.148C175.705 312.702 175.312 315.239 174.901 317.743C174.475 320.248 174.212 322.736 173.901 325.125C173.654 327.53 173.195 329.837 173.047 332.028C172.85 334.236 172.654 336.312 172.473 338.24C172.26 340.167 172.178 341.93 172.128 343.512C172.063 345.094 171.997 346.461 171.948 347.582C171.833 349.822 171.767 351.124 171.767 351.124Z" fill="#003846"/>
<path d="M170.734 275.746C170.734 275.746 170.75 275.993 170.799 276.438C170.848 276.882 170.881 277.574 170.865 278.431C170.832 280.145 170.701 282.6 170.356 285.499C170.012 288.416 169.618 291.81 169.126 295.418C168.65 299.043 168.092 302.898 167.649 306.754C167.173 310.609 166.812 314.464 166.599 318.089C166.533 319.902 166.468 321.648 166.5 323.296C166.517 324.96 166.664 326.508 166.878 327.925C167.124 329.326 167.419 330.627 167.879 331.682C167.993 331.946 168.108 332.209 168.207 332.456C168.354 332.687 168.486 332.901 168.617 333.115C168.847 333.56 169.208 333.857 169.487 334.17C170.094 334.714 170.668 335.093 171.095 335.208C171.521 335.373 171.751 335.455 171.751 335.455C171.751 335.455 171.521 335.389 171.078 335.29C170.619 335.224 169.979 334.928 169.29 334.417C168.978 334.12 168.551 333.84 168.272 333.395C168.108 333.181 167.944 332.967 167.764 332.736C167.632 332.489 167.485 332.226 167.337 331.962C166.746 330.891 166.32 329.573 165.975 328.123C165.68 326.673 165.417 325.075 165.319 323.378C165.171 321.681 165.138 319.902 165.171 318.056C165.237 314.366 165.581 310.461 166.025 306.572C166.5 302.684 167.075 298.829 167.698 295.22C168.338 291.629 168.929 288.267 169.454 285.384C169.946 282.501 170.389 280.112 170.553 278.415C170.75 276.734 170.734 275.746 170.734 275.746Z" fill="#003846"/>
<path d="M205.403 287.477C205.403 287.477 205.485 287.823 205.616 288.449C205.682 288.762 205.731 289.141 205.879 289.536C206.027 289.948 206.125 290.393 206.305 290.871C206.535 291.348 206.683 291.876 206.978 292.386C207.241 292.914 207.536 293.441 207.897 293.968C208.209 294.528 208.668 294.99 209.062 295.533C209.521 296.011 209.948 296.538 210.473 296.967C210.949 297.445 211.49 297.856 212.015 298.268C212.573 298.631 213.082 299.059 213.656 299.356C214.198 299.685 214.739 299.982 215.281 300.246C215.806 300.509 216.331 300.707 216.806 300.921C217.299 301.069 217.742 301.284 218.152 301.382C218.562 301.481 218.923 301.63 219.218 301.679C219.825 301.811 220.186 301.893 220.186 301.893C220.186 301.893 219.825 301.926 219.202 302.008C218.562 302.041 217.643 302.025 216.56 301.827C216.019 301.712 215.428 301.597 214.838 301.382C214.23 301.185 213.607 300.954 212.983 300.641C212.344 300.361 211.736 299.982 211.113 299.57C210.522 299.142 209.915 298.697 209.374 298.186C208.799 297.692 208.34 297.099 207.864 296.538C207.438 295.945 207.011 295.352 206.699 294.71C206.338 294.1 206.109 293.457 205.895 292.864C205.649 292.271 205.584 291.661 205.452 291.118C205.337 290.574 205.337 290.047 205.305 289.602C205.255 289.157 205.321 288.778 205.337 288.465C205.354 287.839 205.403 287.477 205.403 287.477Z" fill="#003846"/>
<path d="M134.03 289.338C134.03 289.338 134.325 289.272 134.801 289.124C135.277 288.976 135.933 288.745 136.737 288.465C138.312 287.888 140.396 287.065 142.381 286.109C144.367 285.153 146.254 284.033 147.55 283.011C147.894 282.781 148.157 282.501 148.419 282.287C148.682 282.072 148.895 281.858 149.059 281.677C149.42 281.314 149.634 281.117 149.634 281.117C149.634 281.117 149.535 281.38 149.338 281.858C149.24 282.105 149.109 282.385 148.912 282.682C148.715 282.979 148.518 283.357 148.223 283.687C147.927 284.017 147.648 284.428 147.254 284.758C146.893 285.104 146.5 285.483 146.04 285.796C145.171 286.504 144.137 287.065 143.087 287.592C142.02 288.07 140.937 288.515 139.871 288.795C138.821 289.108 137.82 289.289 136.95 289.388C136.081 289.487 135.359 289.503 134.834 289.47C134.309 289.404 134.03 289.338 134.03 289.338Z" fill="#003846"/>
<path d="M118.442 185.836C121.723 195.722 129.977 208.408 134.013 219.266C142.775 215.015 144.104 215.905 151.241 211.901C146.319 234.144 137.508 257.161 131.765 277.756C148.993 278.58 210.654 285.187 222.139 291.777C220.974 263.735 219.333 239.087 219.333 214.373C229.178 213.549 243.239 220.139 253.084 220.963C257.186 210.254 260.353 198.72 266.095 187.187C252.428 184.699 240.696 177.203 227.291 174.089C215.953 171.436 207.093 165.142 196.362 160.957C188.503 157.876 175.065 157.596 167.649 161.666C155.753 168.19 152.619 170.876 142.775 174.995C136.228 177.433 118.442 185.836 118.442 185.836Z" fill="white"/>
<path d="M166.025 175.653C167.419 171.468 169.487 166.328 167.124 162.143C165.122 158.601 160.889 157.068 157.87 160.495C156.246 162.341 154.9 164.812 153.867 167.036C151.487 172.127 150.355 177.762 149.683 183.331C148.682 191.767 147.648 200.252 147.369 208.77C147.303 210.731 147.057 212.84 147.5 214.768C148.879 220.996 150.831 215.608 152.144 212.543C154.178 207.782 156.541 203.168 158.28 198.275C160.906 190.762 163.071 183.068 166.025 175.653Z" fill="#FFCD00"/>
<path d="M220.17 225.082C220.236 224.999 220.318 224.917 220.383 224.834C228.735 215.13 234.609 200.928 234.707 188.043C234.757 182.194 233.346 176.049 228.85 171.996C227.324 170.612 222.5 166.871 220.531 167.761C217.561 169.096 219.35 175.571 219.35 177.927C219.35 183.183 219.383 188.422 219.415 193.678C219.514 204.157 219.711 214.619 220.17 225.082Z" fill="#FFCD00"/>
<path d="M149.617 214.372C149.617 214.372 149.732 213.433 149.928 211.785C150.158 210.138 150.437 207.782 150.88 204.981C151.323 202.18 151.799 198.885 152.39 195.392C152.964 191.882 153.637 188.159 154.309 184.435C155.163 180.744 156.032 177.037 156.902 173.594C157.755 170.134 158.625 166.937 159.347 164.186C160.052 161.434 160.741 159.161 161.184 157.562C161.66 155.981 161.923 155.058 161.923 155.058C161.923 155.058 161.758 155.997 161.496 157.628C161.184 159.26 160.807 161.599 160.249 164.384C159.675 167.168 159.068 170.414 158.329 173.89C157.607 177.367 156.754 181.041 155.934 184.732C155.228 188.455 154.523 192.179 153.817 195.655C153.128 199.132 152.39 202.377 151.799 205.145C151.208 207.93 150.618 210.22 150.257 211.835C149.846 213.449 149.617 214.372 149.617 214.372Z" fill="#D8A636"/>
<path d="M220.99 223.434C220.99 223.434 220.958 222.544 220.908 220.979C220.892 220.205 220.876 219.249 220.859 218.162C220.826 217.074 220.81 215.855 220.925 214.504C220.99 213.169 221.072 211.703 221.171 210.171C221.237 208.622 221.417 207.024 221.581 205.36C221.893 202.015 222.319 198.489 222.746 194.947C223.123 191.421 223.599 187.879 223.829 184.567C223.927 182.903 224.19 181.305 224.223 179.789C224.288 178.273 224.338 176.823 224.387 175.489C224.403 174.829 224.436 174.187 224.452 173.577C224.436 172.968 224.42 172.391 224.403 171.864C224.37 170.776 224.354 169.837 224.321 169.063C224.305 167.498 224.288 166.608 224.288 166.608C224.288 166.608 224.42 167.498 224.649 169.03C224.748 169.804 224.879 170.743 225.027 171.831C225.092 172.375 225.174 172.951 225.256 173.561C225.306 174.17 225.306 174.813 225.322 175.489C225.355 176.84 225.388 178.289 225.437 179.838C225.503 181.387 225.371 183.002 225.289 184.682C225.191 186.363 225.158 188.109 224.928 189.839C224.748 191.586 224.567 193.365 224.387 195.144C223.927 198.687 223.468 202.213 223.025 205.524C222.828 207.172 222.533 208.77 222.369 210.286C222.188 211.802 222.024 213.235 221.86 214.553C221.499 217.189 221.401 219.43 221.237 220.995C221.072 222.544 220.99 223.434 220.99 223.434Z" fill="#D8A636"/>
<path d="M197.592 188.842C205.149 185.582 211.101 178.869 206.371 170.667C202.566 164.059 194.049 159.047 186.387 159.275C174.413 159.643 170.958 175.539 176.805 184.18C181.674 191.383 190.122 192.049 197.592 188.842Z" fill="#EDEDED"/>
<path d="M186.731 188.147C192.065 188.841 199.986 187.17 202.733 182.852C205.139 179.076 203.89 174.041 201.961 170.351C198.851 164.383 191.792 158.263 184.347 160.933C177.629 163.342 175.586 169.917 176.131 176.189C176.585 181.311 179.558 186.411 185.142 187.843C185.641 187.973 186.163 188.082 186.731 188.147Z" fill="#F7BDAA"/>
<g clip-path="url(#clip0)">
<path d="M190.859 144.842C183.864 144.842 178.192 149.853 178.192 156.032V176.929C178.192 183.109 183.864 188.119 190.859 188.119C197.853 188.119 203.525 183.109 203.525 176.929V156.032C203.551 149.853 197.879 144.842 190.859 144.842Z" fill="#F7BDAA"/>
<path d="M248.341 108.874C253.438 77.2498 231.965 47.4765 200.38 42.3734C168.796 37.2704 139.059 58.77 133.963 90.3942C128.866 122.018 150.339 151.792 181.924 156.895C213.508 161.998 243.244 140.498 248.341 108.874Z" fill="#FFCEBB"/>
<path d="M135.456 120.418C145.082 120.418 152.885 112.604 152.885 102.966C152.885 93.3285 145.082 85.5154 135.456 85.5154C125.83 85.5154 118.026 93.3285 118.026 102.966C118.026 112.604 125.83 120.418 135.456 120.418Z" fill="#FFCEBB"/>
<path d="M262.636 102.966C262.636 112.595 254.823 120.418 245.207 120.418C235.59 120.418 227.777 112.595 227.777 102.966C227.777 93.3383 235.59 85.5154 245.207 85.5154C254.856 85.5154 262.636 93.3383 262.636 102.966Z" fill="#FFCEBB"/>
<path d="M174.855 105.407C174.855 107.781 172.919 109.686 170.548 109.686C168.177 109.686 166.241 107.781 166.241 105.407C166.241 103.033 168.177 101.128 170.548 101.128C172.919 101.128 174.855 103.033 174.855 105.407Z" fill="#37354C"/>
<path d="M215.223 105.407C215.223 107.781 213.286 109.686 210.916 109.686C208.545 109.686 206.608 107.781 206.608 105.407C206.608 103.033 208.545 101.128 210.916 101.128C213.286 101.128 215.223 103.033 215.223 105.407Z" fill="#37354C"/>
<path d="M157.226 93.7395L154.788 91.4662C163.403 82.2726 174.688 84.4122 175.189 84.5125L174.555 87.7888C174.154 87.6885 164.538 85.9501 157.226 93.7395Z" fill="#37354C"/>
<path d="M223.704 93.7393C216.392 85.9164 206.809 87.6882 206.408 87.7551L205.774 84.4788C206.241 84.3786 217.56 82.239 226.141 91.4325L223.704 93.7393Z" fill="#37354C"/>
<path d="M217.527 58.5698C211.817 63.6514 199.797 64.2531 192.518 63.8519C187.009 63.5511 181.533 62.849 176.124 61.7792C171.249 60.8097 166.374 59.439 162.134 56.5974C155.589 52.151 151.115 44.2278 149.446 35.7698C147.743 27.2782 148.745 8.42306 151.249 0.232422C168.945 18.6196 190.481 14.4407 207.677 22.9991C211.316 24.8043 214.923 27.7797 215.757 32.1592C217.994 28.8161 222.602 31.056 225.874 32.9281C233.02 37.0401 240.365 41.7205 244.673 49.4097C247.077 53.7557 248.379 58.8038 248.846 63.9188C249.781 74.4831 248.946 87.7887 243.304 96.2467C240.933 86.3846 239.664 78.6285 235.891 71.5411C232.118 64.4537 224.806 58.3358 217.527 58.5698Z" fill="#37354C"/>
<path d="M138.394 92.2685C135.356 87.9559 132.217 83.4761 131.249 78.1271C130.28 72.9118 131.516 67.496 133.085 62.4813C135.122 56.0625 137.726 49.8778 140.932 44.0273C142.735 40.7176 144.872 37.3745 148.043 35.8032C152.952 33.3293 159.095 36.0373 160.965 41.6537C162.735 46.9358 158.394 53.0872 156.124 57.6004C150.281 69.201 142.267 79.5647 138.394 92.2685Z" fill="#37354C"/>
<path d="M214.468 127.798C214.468 127.798 213.995 128.235 213.064 128.949C212.132 129.664 210.714 130.624 208.854 131.618C205.147 133.617 199.451 135.637 192.891 135.864C186.32 136.105 180.455 134.382 176.693 132.404C174.791 131.437 173.39 130.427 172.483 129.678C172.024 129.316 171.693 128.998 171.472 128.785C171.25 128.573 171.128 128.469 171.128 128.469C171.128 128.469 171.269 128.535 171.552 128.666C171.835 128.798 172.234 128.986 172.77 129.205C173.832 129.656 175.379 130.224 177.342 130.737C181.234 131.78 186.735 132.49 192.766 132.272C198.798 132.066 204.278 131.064 208.187 129.956C210.143 129.408 211.727 128.885 212.794 128.466C213.872 128.034 214.468 127.798 214.468 127.798Z" fill="#FF7D6F"/>
</g>
<path d="M152.513 420.262C152.729 420.262 152.929 420.305 153.111 420.39C153.693 420.669 153.943 421.077 153.66 421.721C152.496 424.338 152.181 427.75 151.948 430.711C151.615 434.745 151.3 438.8 150.701 442.813C149.139 443.456 146.928 443.499 145.215 443.392C138.949 443.006 132.349 442.083 126.099 443.178C121.145 444.057 114.878 443.435 110.108 441.203C104.772 438.307 102.145 432.342 106.002 425.926C107.797 422.944 110.29 420.669 112.867 418.953C114.297 418.009 115.793 417.215 117.339 416.614C119.283 415.842 120.198 416.078 122.126 416.593C126.747 417.858 131.235 418.867 135.973 419.124C139.198 419.296 142.439 419.425 145.664 419.725C147.094 419.875 147.16 419.79 148.523 420.133C149.338 420.348 151.682 420.24 152.513 420.262Z" fill="#004B61"/>
<path d="M131.568 417.852C122.626 417.852 113.749 416.336 104.823 415.891C102.001 415.743 99.1792 415.776 96.3571 415.693C94.2733 415.628 91.9434 415.117 90.1221 416.517C88.4485 417.786 88.0547 420.62 87.2344 422.465C86.2171 424.739 85.0521 426.798 84.2974 429.171C81.2291 438.711 78.046 447.756 76.7826 457.823C75.8474 465.352 74.7316 475.04 78.2429 482.125C88.0876 503.544 93.8303 464.825 95.4711 457.411C100.393 440.935 114.34 441.759 129.927 445.878C129.927 435.976 130.748 426.914 131.568 417.852Z" fill="#924B91"/>
<path d="M85.4785 465.633C87.9397 456.571 88.9077 440.919 97.1116 436.8C102.854 433.505 128.286 435.976 129.927 435.976" stroke="white" stroke-width="0.5" stroke-miterlimit="10" stroke-linecap="round" stroke-linejoin="round"/>
<path d="M87.2671 461.068C89.7283 461.892 91.4511 463.754 93.9122 465.401" stroke="white" stroke-width="0.5" stroke-miterlimit="10" stroke-linecap="round" stroke-linejoin="round"/>
<path d="M88.9077 453.967C88.9077 453.967 92.1893 454.923 95.4708 457.394" stroke="white" stroke-width="0.5" stroke-miterlimit="10" stroke-linecap="round" stroke-linejoin="round"/>
<path d="M90.9588 445.746C90.1384 445.746 95.0935 449.14 97.5547 450.787" stroke="white" stroke-width="0.5" stroke-miterlimit="10" stroke-linecap="round" stroke-linejoin="round"/>
<path d="M93.9126 439.304C96.866 443.39 98.7693 444.675 101.214 446.685" stroke="white" stroke-width="0.5" stroke-miterlimit="10" stroke-linecap="round" stroke-linejoin="round"/>
<path d="M100.098 435.976C101.739 439.271 103.626 441.726 105.267 445.021" stroke="white" stroke-width="0.5" stroke-miterlimit="10" stroke-linecap="round" stroke-linejoin="round"/>
<path d="M109.417 435.086C110.238 437.558 111.058 440.968 111.879 443.44" stroke="white" stroke-width="0.5" stroke-miterlimit="10" stroke-linecap="round" stroke-linejoin="round"/>
<path d="M116.933 435.218C116.112 437.689 116.982 441.083 117.605 443.39" stroke="white" stroke-width="0.5" stroke-miterlimit="10" stroke-linecap="round" stroke-linejoin="round"/>
<path d="M124.185 435.976C124.332 439.683 124.332 442.566 125.005 444.675" stroke="white" stroke-width="0.5" stroke-miterlimit="10" stroke-linecap="round" stroke-linejoin="round"/>
<path d="M70.1869 128.614C70.1869 128.614 70.1212 128.911 69.99 129.422C69.8587 129.949 69.7274 130.624 69.6454 131.481C69.5469 132.338 69.5141 133.326 69.5305 134.397C69.5634 135.468 69.6454 136.605 69.7602 137.742C70.0064 140.032 70.3345 142.339 70.515 144.102C70.7119 145.865 70.6955 147.084 70.6955 147.084C70.6955 147.084 70.1704 145.997 69.5962 144.316C69.0055 142.635 68.3984 140.329 68.1359 137.923C68.0374 136.721 67.9882 135.501 68.1031 134.364C68.2015 133.228 68.4148 132.157 68.743 131.3C69.0219 130.443 69.4321 129.735 69.711 129.306C70.0064 128.861 70.1869 128.614 70.1869 128.614Z" fill="#FFA27C"/>
<path d="M65.6417 128.334C65.0018 127.955 64.3619 128.004 63.9846 127.428C65.4613 126.39 67.7091 127.164 68.6444 124.973C70.6461 120.294 61.9992 118.135 58.5372 118.382C54.0086 118.712 49.2996 121.859 46.5923 125.401C44.689 127.922 44.7382 130.558 44.6234 133.672C44.5742 135.204 44.7054 136.654 44.7875 138.17C44.8695 139.9 44.1147 141.218 44.1147 142.981C44.1147 144.382 44.6234 146.556 45.4766 147.71C46.1001 148.55 46.9369 148.534 47.5932 149.193C48.4792 150.082 47.8885 149.703 47.987 150.741C48.3315 154.004 50.5138 158.073 54.2712 158.139C54.0414 160.841 57.1261 161.945 59.2427 162.143C62.5243 162.439 65.412 161.5 67.6435 159.161C70.9579 155.684 67.9388 149.934 63.279 152.01C67.7419 150.016 67.2169 140.658 62.1469 139.966C63.0821 140.081 64.9198 138.631 65.5761 138.022C66.8887 136.803 67.6271 134.99 67.7747 133.227C67.988 131.102 67.1677 129.224 65.6417 128.334Z" fill="#FFCEBB"/>
<path d="M59.4563 162.505C63.2629 162.67 70.3347 160.94 69.7276 155.783C69.2846 151.977 65.035 151.301 62.0816 152.29C62.4918 152.471 62.9019 152.652 63.3121 152.817C66.7906 150.889 67.8243 145.518 65.8882 142.124C65.4452 141.35 63.509 139.307 63.1973 140.213C63.2629 140.015 65.117 139.208 65.4123 138.994C66.3476 138.302 67.1187 137.511 67.693 136.473C69.1041 133.87 68.8087 131.266 67.2172 128.927C66.807 128.334 65.4616 128.136 66.1835 127.098C66.4132 126.768 68.3493 126.521 68.8416 126.01C72.9927 121.76 64.4279 118.81 61.7206 118.283C61.0315 118.151 60.1126 118.646 61.2119 118.876C63.427 119.305 67.9719 120.326 67.9884 123.275C68.0048 125.912 65.1498 126.258 63.2793 127.18C63.1317 127.246 63.0988 127.411 63.2465 127.51C65.5108 129.141 67.3649 130.476 66.9054 133.688C66.5445 136.176 64.5099 139.241 61.8026 139.653C61.1299 139.752 61.4417 140.163 61.9339 140.279C67.1023 141.482 65.5436 150.362 61.9503 152.339C61.376 152.652 62.9184 152.965 63.1809 152.867C64.2474 152.504 67.4141 153.905 67.9227 154.91C68.5134 156.046 67.8243 157.678 67.2008 158.584C65.478 161.105 61.8847 161.945 59.0625 161.813C57.9796 161.78 58.7672 162.472 59.4563 162.505Z" fill="#FFA27C"/>
<path d="M44 138.385C44 138.385 44.1641 138.039 44.4594 137.429C44.6235 137.132 44.804 136.77 45.0337 136.342C45.1485 136.127 45.2634 135.913 45.3947 135.683C45.5587 135.468 45.7392 135.254 45.9361 135.024C46.3135 134.562 46.7237 134.051 47.1831 133.524C47.6589 133.013 48.2332 132.585 48.7911 132.107C49.3653 131.629 49.956 131.135 50.6616 130.789C51.3343 130.41 52.007 129.965 52.7125 129.619C53.4509 129.323 54.1728 129.026 54.8948 128.73C55.6003 128.4 56.3715 128.285 57.0606 128.071C57.7661 127.889 58.4552 127.675 59.128 127.609C59.7843 127.494 60.4242 127.428 60.9984 127.346C62.147 127.181 63.1479 127.247 63.8206 127.214C64.4933 127.23 64.8871 127.23 64.8871 127.23C64.8871 127.23 64.5097 127.346 63.8698 127.543C63.2299 127.741 62.2783 127.922 61.1953 128.268C60.6539 128.433 60.0632 128.631 59.4397 128.796C58.7998 128.944 58.1763 129.24 57.5036 129.455C56.8473 129.702 56.1417 129.899 55.469 130.213C54.7963 130.509 54.1072 130.806 53.4345 131.102C52.7617 131.399 52.1218 131.811 51.4819 132.14C51.1702 132.321 50.8256 132.47 50.5303 132.667C50.235 132.865 49.9396 133.079 49.6607 133.277C49.1028 133.689 48.4957 134.018 48.0199 134.43C47.5605 134.859 47.1011 135.238 46.6745 135.6C46.4612 135.781 46.2479 135.963 46.051 136.127C45.8705 136.325 45.7064 136.523 45.5587 136.688C45.247 137.034 44.9681 137.347 44.7383 137.61C44.2625 138.105 44 138.385 44 138.385Z" fill="#FFA27C"/>
<path d="M47.5771 149.687C47.5771 149.687 47.6592 149.407 47.8397 148.929C48.053 148.468 48.2006 147.76 48.7257 147.035C48.9718 146.656 49.2343 146.244 49.5461 145.832C49.825 145.387 50.2352 145.041 50.6126 144.629C51.0064 144.25 51.3838 143.789 51.876 143.476C52.3518 143.13 52.8276 142.784 53.3035 142.438C53.8285 142.158 54.3371 141.878 54.8458 141.614C55.338 141.317 55.8959 141.153 56.4045 140.955C56.9132 140.774 57.4054 140.56 57.8976 140.461C58.3735 140.329 58.8493 140.23 59.2759 140.148C60.1127 139.933 60.851 139.933 61.3597 139.884C61.8683 139.851 62.1472 139.851 62.1472 139.851C62.1472 139.851 61.8847 139.983 61.4253 140.214C60.9823 140.444 60.3096 140.675 59.5548 141.07C59.1774 141.252 58.7672 141.449 58.3242 141.63C57.8812 141.812 57.4546 142.092 56.9788 142.306C56.0436 142.734 55.1083 143.328 54.1567 143.871C53.2706 144.497 52.319 145.058 51.5642 145.733C51.1869 146.079 50.7274 146.326 50.4321 146.672C50.1204 147.002 49.7922 147.298 49.4804 147.578C48.857 148.122 48.4632 148.765 48.1022 149.111C47.7904 149.473 47.5771 149.687 47.5771 149.687Z" fill="#FFA27C"/>
<path d="M54.4517 158.354C54.4517 158.354 54.5829 158.238 54.829 158.073C54.9603 157.991 55.0587 157.843 55.2064 157.727C55.3377 157.596 55.4853 157.447 55.6494 157.299C56.3386 156.657 57.3066 155.866 58.2911 155.124C59.3084 154.399 60.342 153.74 61.1788 153.295C61.9992 152.834 62.6391 152.587 62.6391 152.587C62.6391 152.587 62.3766 153.213 61.7859 154.02C61.4906 154.399 61.1132 154.844 60.6866 155.256C60.2436 155.668 59.7514 156.096 59.2427 156.475C58.209 157.233 57.0441 157.81 56.1088 158.123C55.8955 158.205 55.6166 158.271 55.4197 158.321C55.2064 158.37 55.0423 158.403 54.8947 158.403C54.6157 158.37 54.4517 158.354 54.4517 158.354Z" fill="#FFA27C"/>
<path d="M65.1169 472.223C64.5427 467.923 65.5435 463.243 66.3147 459.042C67.5289 452.501 69.2025 446.042 71.2534 439.716C73.5997 432.483 76.3727 425.167 80.491 418.725C82.0497 416.287 83.8218 413.881 86.1025 412.085C88.4488 410.223 93.0922 408.279 94.6017 412.398C95.701 415.43 92.1077 421.131 91.0084 423.899C89.302 428.149 87.612 432.4 86.0532 436.7C82.7717 445.779 79.9495 455.154 79.0799 464.809C88.1042 463.985 99.5896 472.223 96.3081 482.932C90.549 503.528 66.7577 485.404 65.1169 472.223Z" fill="white"/>
<path d="M91.3691 423.009C92.2716 423.519 94.2733 423.832 95.5695 423.865C98.2604 423.931 100.918 423.075 102.855 421.147C103.872 419.961 104.824 418.478 104.922 416.863C104.938 416.517 104.922 416.188 104.889 415.875" stroke="white" stroke-width="0.5" stroke-miterlimit="10" stroke-linecap="round" stroke-linejoin="round"/>
<path d="M110.238 431.033C110.402 431.23 110.583 431.412 110.78 431.576C114.997 435.432 121.084 431.511 121.904 426.502C122.364 423.668 120.854 421.971 118.475 420.785C116.67 419.878 115.423 419.154 113.356 419.664C111.42 420.142 109.877 421.328 108.909 423.091C107.482 425.711 108.302 428.907 110.238 431.033Z" fill="white"/>
<path d="M82.3451 488.699C79.3753 482.158 78.5549 472.932 79.3753 462.041" stroke="#BABABA" stroke-width="0.75" stroke-miterlimit="10" stroke-linecap="round" stroke-linejoin="round"/>
<ellipse cx="128" cy="498.732" rx="128" ry="15.5" fill="white" fill-opacity="0.2"/>
<defs>
<clipPath id="clip0">
<rect width="144.61" height="200.554" fill="white" transform="translate(118.026 0.232422)"/>
</clipPath>
</defs>
</svg>
