<svg xmlns="http://www.w3.org/2000/svg" xmlns:xlink="http://www.w3.org/1999/xlink" width="168" height="170" fill="none"><style><![CDATA[.B{opacity:.3}.C{fill:#fff}.D{fill:#d4ecff}.E{fill:#5793ce}.F{fill:#252f5a}.G{opacity:.1}.H{fill:#ff2c9c}.I{fill:#1561b8}.J{fill:#ef770a}.K{fill:#d3008d}]]></style><path opacity=".5" d="M81.56 168.155L4.348 123.75c-2.185-1.255-1.91-3.448.61-4.902l52.573-30.226c2.52-1.45 6.338-1.605 8.523-.35l77.212 44.404c2.185 1.255 1.9 3.448-.61 4.902l-52.573 30.226c-2.526 1.45-6.338 1.605-8.523.35z" fill="#173d7a"/><g class="F"><path d="M164.9 46.875L84.563.672c-.936-.54-1.882-.62-2.72-.334l.005-.01-.146.054c-.01.005-.022.01-.038.01L78.76 1.497l2.607 1.27-.038.14L68.24 62.24c-.654 2.968.654 6.437 2.93 7.74l78.408 45.093-.28 3.307 3.174-1.223c1.066-.495 1.92-1.62 2.272-3.22l13.087-59.33c.655-2.957-.654-6.427-2.93-7.73z"/><path d="M164.9 46.875L84.563.672c-.936-.54-1.882-.62-2.72-.334l.005-.01-.146.054c-.01.005-.022.01-.038.01L78.76 1.497l2.607 1.27-.038.14-8.626 39.103 39.313 30.506 55.428-22.463c-.535-1.368-1.422-2.537-2.542-3.178z"/><path d="M161.873 55.995l6.116-2.59c.114-2.36-.87-4.794-2.477-6.098l-9.68 4.056 6.04 4.633z"/></g><path d="M146.508 118.08L66.17 71.876c-2.27-1.31-3.586-4.773-2.93-7.74l13.088-59.33c.654-2.968 3.03-4.315 5.3-3.01l80.34 46.203c2.27 1.31 3.585 4.773 2.93 7.74l-13.088 59.33c-.654 2.974-3.03 4.32-5.3 3.012z" class="D"/><g class="C"><path d="M162.738 47.7L82.4 1.513c-1.103-.636-2.223-.63-3.164-.135.757-.167 1.58-.048 2.4.42L161.965 48c2.27 1.31 3.585 4.773 2.93 7.74l-13.088 59.33c-.335 1.53-1.136 2.618-2.136 3.146 1.357-.297 2.487-1.52 2.91-3.426l13.088-59.33c.655-2.974-.66-6.443-2.93-7.752z"/><use xlink:href="#B"/></g><use xlink:href="#B" fill="#1d7dea"/><path d="M145.426 113.397L69.87 69.97c-2.082-1.196-3.277-4.37-2.682-7.084L79.16 8.59c.303-1.374 1.01-2.365 1.904-2.86-1.195.307-2.185 1.428-2.563 3.124L66.526 63.15c-.6 2.715.6 5.888 2.682 7.084l75.558 43.428c1.027.593 2.076.588 2.947.103-.72.188-1.51.08-2.288-.367z" class="E"/><g class="F"><path d="M147.617 119.86l-10.984-1.443-70.89-40.768c-2.27-1.31-6.24-1.142-8.87.366l-50.23 28.88L0 106.02v3.755h.005c-.043.867.454 1.702 1.525 2.316l80.34 46.203c2.27 1.31 6.24 1.142 8.87-.366l54.704-31.448c1.476-.852 2.212-1.945 2.168-2.97v-3.652h.006z"/><path d="M94.35 94.333l-5.035-2.898H33.942l-27.3 15.687L0 106.25v3.755h.005c-.043.867.454 1.702 1.525 2.316l80.34 46.203c1.2.7 2.877.964 4.575.857l7.907-65.047z"/></g><path d="M2.947 106.637L0 106.25v3.755h.005c-.043.867.454 1.702 1.525 2.316l1.417.813v-6.496z" class="E"/><path d="M82.686 158.9c2.153.814 5.235.636 7.534-.463v-8.37h-7.534v8.834z" class="F"/><path d="M81.875 154.774L1.536 108.57c-2.27-1.31-2-3.588.638-5.102L56.878 72.02c2.623-1.508 6.593-1.675 8.87-.366l80.34 46.203c2.272 1.31 2 3.587-.638 5.1l-54.704 31.448c-2.628 1.51-6.598 1.676-8.87.367z" class="D"/><path d="M145.448 121.59L90.744 153.04c-2.623 1.508-6.593 1.675-8.87.366l-80.34-46.203c-.746-.43-1.21-.964-1.412-1.54-.357 1.072.097 2.155 1.412 2.91l80.34 46.203c2.27 1.31 6.24 1.142 8.87-.367l54.704-31.448c1.763-1.013 2.466-2.376 2.05-3.56-.26.78-.94 1.557-2.05 2.193z" class="C"/><g class="E"><path d="M35.705 93.278l-3.634-2.1c-.292-.167-.254-.463.08-.657l4.3-2.467c.335-.194.85-.215 1.14-.048l3.634 2.1c.292.167.254.463-.08.657l-4.3 2.467c-.34.194-.85.215-1.14.05zm5.615 3.226l-3.634-2.1c-.292-.167-.254-.463.08-.657l4.3-2.467c.335-.194.85-.216 1.14-.05l3.634 2.1c.292.167.254.463-.08.657l-4.3 2.467c-.34.2-.85.215-1.14.05zm5.612 3.232l-3.634-2.1c-.292-.167-.254-.463.08-.657l4.3-2.467c.335-.194.85-.215 1.14-.048l3.634 2.1c.292.167.254.463-.08.657l-4.3 2.467c-.34.194-.85.216-1.14.05zm7.766-2.666l-3.634-2.1c-.292-.167-.254-.463.08-.657l3.602-2.074c.335-.194.85-.216 1.14-.05l3.634 2.1c.292.167.254.463-.08.657l-3.6 2.074c-.34.194-.85.216-1.14.05z"/><use xlink:href="#C"/><use xlink:href="#D"/><path d="M71.54 106.756l-3.634-2.1c-.292-.167-.254-.463.08-.657l3.602-2.074c.335-.194.85-.215 1.14-.048l3.634 2.1c.292.167.254.463-.08.657l-3.602 2.074c-.34.194-.85.216-1.14.05zm5.613 3.226l-3.634-2.1c-.292-.167-.254-.463.08-.657l3.602-2.074c.335-.194.85-.215 1.14-.05l3.634 2.1c.292.167.254.463-.08.657l-3.602 2.074c-.34.194-.85.215-1.14.048zm5.614 3.228l-3.634-2.1c-.292-.167-.254-.463.08-.657l3.602-2.074c.335-.194.85-.216 1.14-.05l3.634 2.1c.292.167.254.464-.08.657l-3.602 2.074c-.34.194-.85.216-1.14.05zm5.613 3.226l-3.634-2.1c-.292-.167-.254-.464.08-.658l3.602-2.074c.335-.194.85-.215 1.14-.048l3.634 2.1c.292.167.254.463-.08.657l-3.602 2.074c-.34.2-.85.22-1.14.05zm5.614 3.232l-3.634-2.1c-.292-.167-.254-.464.08-.658l3.602-2.073c.335-.194.85-.216 1.14-.05l3.634 2.1c.292.167.254.463-.08.657l-3.602 2.074c-.34.194-.85.216-1.14.05zm5.614 3.227l-3.634-2.1c-.292-.167-.254-.463.08-.657l3.602-2.074c.335-.194.85-.215 1.14-.048l3.634 2.1c.292.167.254.463-.08.657l-3.602 2.074c-.34.194-.85.215-1.14.05zm5.614 3.225l-3.634-2.1c-.292-.167-.255-.463.08-.657l3.602-2.074c.335-.194.85-.216 1.14-.05l3.634 2.1c.292.167.254.463-.08.657l-3.602 2.074c-.34.2-.85.215-1.14.048z"/><use xlink:href="#E"/><path d="M57.273 92.265l-3.634-2.1c-.292-.167-.254-.463.08-.657l3.602-2.074c.335-.194.85-.215 1.14-.048l3.634 2.1c.292.167.254.463-.08.657l-3.602 2.074c-.34.194-.855.215-1.14.05zm-5.71-3.285l-7.83-4.503c-.292-.167-.254-.463.08-.657l3.602-2.074c.335-.194.85-.216 1.14-.05l7.83 4.503c.292.167.254.463-.08.657l-3.602 2.074c-.335.2-.85.22-1.14.048zm3.99-3.987l-6.355-3.652c-.292-.167-.254-.463.08-.657L52.88 78.6c.335-.194.85-.216 1.14-.05l6.355 3.652c.292.167.254.463-.08.657l-3.602 2.074c-.34.194-.85.215-1.14.048z"/><use xlink:href="#F"/><path d="M74.195 101.993l-3.634-2.1c-.292-.167-.254-.463.08-.657l3.602-2.074c.335-.194.85-.216 1.14-.05l3.634 2.1c.292.167.254.463-.08.657l-3.602 2.074c-.34.2-.85.22-1.14.048z"/><use xlink:href="#G"/><use xlink:href="#E" x="22.454" y="12.912"/><path d="M91.036 111.68l-3.634-2.1c-.292-.167-.254-.463.08-.657l3.602-2.074c.335-.194.85-.216 1.14-.05l3.634 2.1c.292.167.254.464-.08.658l-3.602 2.074c-.34.2-.85.22-1.14.048zm5.614 3.23l-3.634-2.1c-.292-.167-.254-.463.08-.657L96.7 110.1c.335-.194.85-.216 1.14-.05l3.634 2.1c.292.167.254.463-.08.657l-3.602 2.074c-.34.194-.85.215-1.14.048zm5.614 3.228l-3.635-2.1c-.292-.167-.254-.463.08-.657l3.602-2.074c.336-.194.85-.216 1.14-.05l3.635 2.1c.292.167.254.464-.08.657l-3.602 2.074c-.34.194-.85.216-1.14.05zm5.613 3.227l-3.634-2.1c-.292-.167-.254-.463.08-.657l3.602-2.074c.335-.194.85-.215 1.14-.048l3.634 2.1c.293.167.255.463-.08.657l-3.6 2.074c-.34.194-.85.216-1.142.05z"/><use xlink:href="#G" x="33.68" y="19.371"/><path d="M123.47 130.334l-7.934-4.563c-.292-.167-.254-.463.08-.657l3.602-2.074c.336-.194.85-.216 1.14-.05l7.934 4.563c.292.167.254.463-.08.657l-3.602 2.074c-.335.194-.85.216-1.14.05zm10.93-6.287l-6.695-3.85c-.292-.167-.254-.464.08-.658l3.602-2.074c.335-.193.85-.215 1.14-.048l6.695 3.852c.292.167.254.463-.08.657L135.54 124c-.34.194-.85.215-1.14.048z"/><use xlink:href="#C" x="18.102" y="-2.16"/><path d="M72.66 94.83l-3.634-2.1c-.292-.167-.254-.463.08-.657L72.708 90c.335-.194.85-.216 1.14-.05l3.634 2.1c.292.167.254.463-.08.657L73.8 94.78c-.34.194-.85.215-1.14.048zm-5.755-3.308l-3.634-2.1c-.292-.167-.254-.463.08-.657l3.602-2.074c.335-.194.85-.215 1.14-.05l3.634 2.1c.292.167.254.463-.08.657l-3.602 2.074c-.34.194-.85.216-1.14.05zM61.15 88.2l-3.634-2.1c-.292-.167-.254-.463.08-.657l3.602-2.074c.335-.194.85-.216 1.14-.05l3.634 2.1c.292.167.254.463-.08.657L62.3 88.16c-.335.2-.85.22-1.14.05z"/><use xlink:href="#D" x="18.101" y="-2.16"/><use xlink:href="#E" x="26.672" y="9.055"/><path d="M95.255 107.822l-3.634-2.1c-.292-.167-.254-.463.08-.657L95.303 103c.335-.194.85-.216 1.14-.05l3.635 2.1c.292.167.254.464-.08.658l-3.602 2.074c-.34.193-.85.215-1.14.048zm5.613 3.228l-3.634-2.1c-.292-.167-.254-.464.08-.657l3.602-2.074c.335-.194.85-.216 1.14-.05l3.634 2.1c.292.167.255.463-.08.657L102 111c-.34.194-.85.216-1.14.05zm5.614 3.225l-3.634-2.1c-.292-.167-.254-.463.08-.657l3.602-2.074c.335-.194.85-.215 1.14-.048l3.634 2.1c.292.167.254.463-.08.657l-3.602 2.074c-.34.2-.85.22-1.14.048zm5.614 3.233l-3.635-2.1c-.292-.167-.254-.463.08-.657l3.602-2.074c.336-.194.85-.215 1.14-.048l3.635 2.1c.292.167.254.463-.08.657l-3.602 2.074c-.34.194-.85.216-1.14.05zm5.614 3.226l-3.634-2.1c-.292-.167-.254-.463.08-.657l3.602-2.074c.335-.194.85-.215 1.14-.048l3.635 2.1c.292.167.254.463-.082.657l-3.6 2.074c-.34.194-.85.215-1.142.048zm5.613 3.226l-3.634-2.1c-.292-.167-.254-.463.08-.657l3.602-2.074c.335-.194.85-.216 1.14-.05l3.634 2.1c.292.167.254.464-.08.658l-3.602 2.074c-.34.2-.85.215-1.14.048zm5.614 3.233l-3.634-2.1c-.293-.167-.255-.463.08-.657l3.602-2.074c.335-.194.85-.216 1.14-.05l3.634 2.1c.292.167.254.463-.08.657l-3.602 2.074c-.34.194-.85.215-1.14.048z"/><use xlink:href="#C" x="15.143" y="-10.144"/><path d="M69.87 86.937l-3.634-2.1c-.292-.167-.254-.463.08-.657l3.602-2.074c.335-.194.85-.216 1.14-.05l3.634 2.1c.292.167.254.463-.08.657L71 86.9c-.335.2-.85.216-1.14.05zm-5.583-3.2l-3.634-2.1c-.292-.167-.254-.463.08-.657l3.602-2.074c.335-.194.85-.216 1.14-.05l3.634 2.1c.292.167.254.463-.08.657l-3.602 2.074c-.34.194-.855.215-1.14.048z"/><use xlink:href="#D" x="-7.226" y="-23.007"/><use xlink:href="#H"/><use xlink:href="#H" x="7.29" y="4.191"/><use xlink:href="#H" x="12.85" y="7.391"/><path d="M82.86 87.8l-3.634-2.1c-.292-.167-.254-.463.08-.657l1.2-.684c.335-.194.85-.216 1.14-.05l3.634 2.1c.292.167.254.463-.08.657l-1.2.684c-.34.2-.85.22-1.14.05zm5.56 3.2l-3.634-2.1c-.292-.167-.254-.463.08-.657l1.2-.684c.335-.194.85-.215 1.14-.048l3.634 2.1c.292.167.254.463-.08.657l-1.2.684c-.34.194-.85.215-1.14.048zm31.052 17.856l-3.634-2.1c-.292-.167-.254-.463.08-.657l1.2-.684c.335-.194.85-.216 1.14-.05l3.635 2.1c.292.167.254.463-.082.657l-1.2.684c-.336.2-.85.22-1.142.048zm5.565 3.2l-3.634-2.1c-.292-.167-.254-.463.08-.657l1.2-.684c.335-.194.85-.216 1.14-.05l3.634 2.1c.293.167.255.464-.08.657l-1.2.685c-.34.194-.85.215-1.142.048zm5.56 3.2l-3.634-2.1c-.292-.167-.254-.463.08-.657l1.2-.685c.335-.193.85-.215 1.14-.048l3.634 2.1c.292.167.254.463-.08.657l-1.2.684c-.335.194-.85.216-1.14.05zm5.565 3.2l-3.634-2.1c-.292-.167-.254-.464.08-.658l1.2-.684c.335-.194.85-.215 1.14-.048l3.634 2.1c.292.167.254.463-.08.657l-1.2.684c-.34.194-.85.216-1.14.05zM81.07 93.38l-3.634-2.1c-.292-.167-.254-.463.08-.657l3.602-2.074c.335-.194.85-.215 1.14-.048l3.634 2.1c.292.167.254.463-.08.657L82.2 93.332c-.34.194-.85.215-1.14.048z"/><use xlink:href="#F" x="18.103" y="-2.16"/><path d="M92.296 99.84l-3.634-2.1c-.292-.167-.254-.463.08-.657l3.602-2.074c.335-.194.85-.215 1.14-.048l3.634 2.1c.292.167.254.463-.08.657L93.438 99.8c-.34.194-.85.216-1.14.05z"/><use xlink:href="#E" x="34.932" y="7.525"/><path d="M103.524 106.292l-3.635-2.1c-.292-.167-.254-.463.08-.657l3.6-2.074c.336-.194.85-.215 1.142-.05l3.634 2.1c.292.167.254.463-.08.657l-3.602 2.074c-.34.194-.85.215-1.14.048zm5.613 3.228l-3.634-2.1c-.292-.167-.254-.463.08-.657l3.602-2.074c.335-.194.85-.216 1.14-.05l3.634 2.1c.292.167.255.464-.08.658l-3.602 2.073c-.34.2-.85.22-1.14.05zm5.613 3.23l-3.634-2.1c-.292-.167-.254-.463.08-.657l3.602-2.074c.335-.194.85-.216 1.14-.05l3.634 2.1c.292.167.254.464-.08.658L115.9 112.7c-.34.194-.85.215-1.14.048zm5.615 3.228l-3.635-2.1c-.292-.167-.254-.464.082-.658l3.6-2.073c.336-.194.85-.216 1.142-.05l3.634 2.1c.292.167.254.463-.08.657l-3.602 2.074c-.34.194-.85.216-1.14.05zm5.615 3.226l-3.635-2.1c-.292-.167-.254-.463.08-.657l3.602-2.074c.336-.194.85-.215 1.14-.048l3.635 2.1c.292.167.254.463-.08.657l-3.602 2.074c-.34.2-.85.215-1.14.048zM48.977 93.78L38.27 87.62c-.292-.167-.254-.463.08-.657l3.6-2.063c.335-.194.85-.215 1.14-.048L53.8 91c.292.167.254.463-.08.657l-3.602 2.074c-.34.194-.85.215-1.14.048zm68.965 39.656l-10.708-6.157c-.292-.167-.254-.463.08-.657l3.602-2.074c.335-.194.85-.215 1.14-.048l10.708 6.157c.292.167.254.463-.08.657l-3.602 2.074c-.34.2-.85.22-1.14.048zm-22.45-5.78l-3.634-2.1c-.292-.167-.254-.463.08-.657l4.3-2.467c.335-.194.85-.216 1.14-.05l3.634 2.1c.292.167.255.463-.08.657l-4.288 2.467c-.34.2-.85.22-1.14.048zm-40.767-23.443l-5.814-3.345c-.292-.167-.254-.464.08-.658l4.3-2.467c.335-.194.85-.216 1.14-.05l5.814 3.345c.292.167.254.463-.08.657l-4.3 2.467c-.34.2-.85.22-1.14.05zm35.358 20.335l-5.814-3.345c-.292-.167-.254-.463.08-.657l4.3-2.467c.335-.194.85-.216 1.14-.05l5.814 3.345c.292.167.254.464-.08.658l-4.3 2.467c-.34.194-.85.215-1.14.048zm-27.262-15.676l-5.814-3.345c-.292-.167-.254-.463.08-.657l4.3-2.467c.335-.194.85-.216 1.14-.05l5.814 3.346c.292.167.254.463-.08.657l-4.3 2.467c-.335.194-.85.215-1.14.048z"/><path d="M62.562 102.38l25.278 14.534c.314.178.314.474 0 .652l-4.375 2.516c-.314.177-.822.177-1.136 0L57.05 105.55l5.5-3.168zm48.62 31.132l4.05 2.327c.237.14.2.377-.065.54l-1.758 1.007c-.276.156-.692.178-.936.038l-4.05-2.327c-.238-.14-.2-.377.065-.54l1.757-1.007c.276-.157.698-.173.936-.038zm-5.662-3.254l4.05 2.327c.238.14.2.377-.065.54l-1.758 1.007c-.275.157-.692.178-.935.038l-4.05-2.327c-.238-.14-.2-.377.065-.54l1.758-1.007c.28-.162.697-.178.935-.038zm-5.614-3.226l4.05 2.327c.238.14.2.377-.065.538l-1.757 1.008c-.276.156-.692.177-.936.037l-4.05-2.327c-.238-.14-.2-.377.065-.538l1.758-1.008c.28-.16.698-.178.936-.037zm8.712 1.443l4.05 2.327c.238.14.2.377-.065.54l-1.758 1.007c-.275.157-.692.178-.935.038l-4.05-2.327c-.238-.14-.2-.377.065-.54l1.758-1.007c.28-.156.697-.178.935-.038z"/></g><path d="M130.797 65.482l-30.242-17.4.4-1.955 30.243 17.4-.4 1.955zm-10.832 3.302l-21.1-12.137.4-1.955 21.108 12.136-.4 1.955z" class="D"/><path d="M117.97 62.87l-18.264-10.5.4-1.955 18.263 10.5-.39 1.955z" class="C"/><path d="M129.948 69.76l-9.134-5.252.39-1.955 9.13 5.252-.384 1.955z" class="H"/><path d="M97.337 31.01l-9.13-5.252.39-1.955 9.13 5.247-.39 1.96z" class="D"/><path d="M96.347 35.558l-9.13-5.247.39-1.96 9.13 5.252-.39 1.956z" class="C"/><path d="M141.16 98.675l-9.13-5.252.4-1.955 9.13 5.252-.4 1.955zM94.362 44.66l-9.13-5.252.4-1.956 9.13 5.247-.4 1.96z" class="D"/><path d="M114.09 46.073c-.292.63-1.027.856-1.644.5s-.88-1.153-.59-1.788c.292-.63 1.027-.857 1.644-.5s.88 1.153.59 1.788z" class="H"/><path d="M118.023 48.33c-.292.63-1.028.856-1.644.5s-.882-1.153-.6-1.788c.293-.63 1.028-.857 1.645-.5.616.36.88 1.158.59 1.788z" class="C"/><path d="M121.96 50.592c-.292.63-1.027.857-1.644.5s-.88-1.153-.59-1.783 1.027-.856 1.644-.5.876 1.153.59 1.783z" class="D"/><path d="M125.892 52.855c-.292.63-1.028.856-1.644.5s-.882-1.153-.6-1.788c.292-.63 1.028-.856 1.644-.5s.876 1.158.6 1.788z" class="H"/><path d="M60.523 134.358l-25.067-14.416c-.73-.42-.638-1.152.206-1.637l15.127-8.7c.844-.485 2.115-.54 2.845-.118L78.7 123.902c.73.42.638 1.153-.206 1.637l-15.127 8.7c-.844.485-2.115.54-2.845.12z" class="C"/><g class="B G"><g class="B"><use xlink:href="#I" class="B D"/><use xlink:href="#J" class="B E"/><path d="M73 83.425l-.005-41.112 30.757-17.076 4.305-.285 4.16 2.683 2.552 2.214L84.8 77.182l-9.79 5.748-2.012.496z" class="E"/><path d="M84.373 88.613l-9.194-5.284V43.6l9.475 4.385-.28 40.628z" fill="#79b1e0"/><path d="M116.217 30.165v41.042L83.924 89.604l-.427-.172V48.33l32.72-18.164z" class="D"/></g><use xlink:href="#K" class="C G"/><use xlink:href="#L" class="B E"/><path d="M72.994 42.824v-.512h.162l.054.35-.216.162zm10.503 6.04v-.523l.157.22-.157.302z" class="B C"/><use xlink:href="#M" class="D G"/><path d="M93.22 68.277l15.25-8.77V44.274L93.22 53.05v15.23z" class="B C"/><g class="B C"><use xlink:href="#N" class="B"/><use xlink:href="#O" class="B"/></g><use xlink:href="#P" class="B H"/><use xlink:href="#Q" class="B K"/><use xlink:href="#R" class="K"/><path d="M97.867 96.574l-9.194-5.3V51.557l9.48 4.385-.287 40.633z" fill="#e573b5"/><path d="M129.7 38.122v41.042l-32.292 18.4-.427-.172V56.286l32.72-18.164z" class="H"/><use xlink:href="#S" class="C G"/><use xlink:href="#T" class="K"/><path d="M86.488 50.786v-.517h.162l.054.35-.216.167zM97 56.82v-.523l.157.22-.157.302z" class="B C"/><use xlink:href="#U" class="G H"/><path d="M106.714 76.234l15.252-8.77v-15.23l-15.252 8.77v15.23z" class="C"/><g class="C"><use xlink:href="#V" class="B"/><use xlink:href="#W" class="B"/></g><use xlink:href="#X" class="B D"/><use xlink:href="#Y" class="B E"/><path d="M100.36 99.887l-.006-41.112L131.11 41.7l4.305-.285 4.16 2.683 2.552 2.214-29.966 47.334-9.79 5.748-2.012.496z" class="E"/><path d="M111.733 105.075L102.54 99.8V60.057l9.475 4.4-.28 40.628z" fill="#79b1e0"/><path d="M143.577 46.628V87.67l-32.293 18.396-.427-.172V64.792l32.72-18.164z" class="D"/><path d="M125.416 46.967l6.42-3.674c.784-.36 1.93-.34 2.655.08l5.954 3.426c.46.264.65.63.563.975l-16.214 9.653L111.77 65.4l-9.226-5.328 22.87-13.096z" class="C G"/><use xlink:href="#Z" class="E"/><path d="M100.354 59.287v-.512h.163l.054.35-.217.162zm10.503 6.038v-.523l.157.22-.157.302z" class="B C"/><path d="M112.93 65.282l29.35-16.877c1.725-.99 1.725-2.607 0-3.604l-5.955-3.426c-1.725-.99-4.537-.99-6.262 0l-29.35 16.877c-.475.275-.475.717 0 .99a1.9 1.9 0 0 0 1.72 0l29.35-16.877c.778-.447 2.044-.447 2.823 0l5.954 3.426c.78.447.78 1.174 0 1.627l-29.35 16.877c-.476.275-.476.716 0 .99.476.264 1.244.264 1.72-.005z" class="D G"/><path d="M120.58 84.74l15.25-8.77V60.736l-15.25 8.775v15.23z" class="C"/><g class="C"><use xlink:href="#a" class="B"/><use xlink:href="#b" class="B"/></g></g><use xlink:href="#I" class="D"/><use xlink:href="#J" class="E"/><path d="M73.3 83.357l-.005-41.112 30.757-17.076 4.305-.285 4.158 2.683 2.553 2.214L85.1 77.114l-9.79 5.748-2.012.496z" class="F"/><path d="M84.373 88.613l-9.194-5.284V43.6l9.475 4.385-.28 40.628z" class="I"/><path d="M116.217 30.165v41.042L83.924 89.604l-.427-.172V48.33l32.72-18.164z" class="F"/><use xlink:href="#K" class="C"/><use xlink:href="#L" class="E"/><path d="M72.994 42.824v-.512h.162l.054.35-.216.162zm10.503 6.04v-.523l.157.22-.157.302z" class="C"/><use xlink:href="#M" class="I"/><g class="C"><path d="M93.22 68.277l15.25-8.77V44.274L93.22 53.05v15.23z"/><use xlink:href="#N"/><use xlink:href="#O"/></g><g class="J"><use xlink:href="#P"/><use xlink:href="#Q"/><use xlink:href="#R"/></g><g fill="#ffcb24"><path d="M97.867 96.574l-9.194-5.3V51.557l9.48 4.385-.287 40.633z"/><path d="M129.896 38.06v41.042L97.604 97.503l-.427-.172V56.224l32.72-18.164z"/></g><use xlink:href="#S" class="C"/><use xlink:href="#T" class="J"/><path d="M86.488 50.786v-.517h.162l.054.35-.216.167zM97 56.82v-.523l.157.22-.157.302z" class="C"/><use xlink:href="#U" class="J"/><g class="C"><path d="M106.714 76.234l15.252-8.77v-15.23l-15.252 8.77v15.23z"/><use xlink:href="#V"/><use xlink:href="#W"/></g><use xlink:href="#X" class="D"/><use xlink:href="#Y" class="E"/><path d="M100.36 99.887l-.006-41.112L131.11 41.7l4.305-.285 4.16 2.683 2.552 2.214-29.967 47.334-9.788 5.748-2.012.496z" class="F"/><path d="M111.733 105.075L102.54 99.8V60.057l9.475 4.4-.28 40.628z" class="I"/><path d="M143.577 46.628V87.67l-32.293 18.396-.427-.172V64.792l32.72-18.164z" class="F"/><path d="M125.416 46.967l6.42-3.674c.785-.36 1.93-.34 2.656.08l5.954 3.426c.46.264.65.63.563.975l-16.214 9.653L111.77 65.4l-9.226-5.328 22.87-13.096z" class="C"/><use xlink:href="#Z" class="E"/><path d="M100.354 59.287v-.512h.163l.054.35-.217.162zm10.503 6.038v-.523l.157.22-.157.302z" class="C"/><path d="M112.928 65.282l29.35-16.877c1.725-.99 1.725-2.607 0-3.604l-5.955-3.426c-1.725-.99-4.537-.99-6.262 0l-29.35 16.877c-.476.275-.476.717 0 .99a1.9 1.9 0 0 0 1.72 0l29.35-16.877c.78-.447 2.045-.447 2.823 0l5.955 3.426c.78.447.78 1.174 0 1.627l-29.35 16.877c-.476.275-.476.716 0 .99a1.95 1.95 0 0 0 1.719-.005z" class="I"/><g class="C"><path d="M120.58 84.74l15.25-8.77V60.736l-15.25 8.775v15.23z"/><use xlink:href="#a"/><use xlink:href="#b"/></g><path opacity=".5" d="M84.07 141.285c6.1 0 11.027-2.838 11.027-6.34s-4.937-6.34-11.027-6.34-11.027 2.838-11.027 6.34 4.937 6.34 11.027 6.34z" fill="#173d7a"/><path d="M96.617 129.52v-3.506h-.665c-.595-1.024-1.6-1.988-3.007-2.802-4.9-2.817-12.84-2.817-17.74 0-1.417.814-2.412 1.778-3.007 2.802h-.665v3.5c-.01 1.853 1.217 3.706 3.672 5.118 4.9 2.817 12.84 2.817 17.74 0 2.444-1.406 3.672-3.254 3.672-5.102z" class="J"/><path d="M84.07 133.227c6.927 0 12.542-3.23 12.542-7.213S90.997 118.8 84.07 118.8s-12.542 3.23-12.542 7.213 5.615 7.213 12.542 7.213z" fill="#ffcb24"/><path d="M92.94 131.115c-4.9 2.817-12.84 2.817-17.74 0-2.347-1.352-3.56-3.103-3.656-4.87-.108 1.923 1.103 3.863 3.656 5.328 4.9 2.817 12.84 2.817 17.74 0 2.553-1.465 3.76-3.4 3.656-5.328-.097 1.767-1.3 3.518-3.656 4.87zM78.024 128.4c-.2-.124-.33-.286-.33-.458l.01-4.697c0-.356.508-.647 1.13-.647s1.125.3 1.125.652l-.01 3.895 11.357-1.385c.6-.075 1.212.15 1.34.5s-.26.695-.87.77l-12.72 1.55c-.335.043-.68-.005-.947-.13-.027-.022-.06-.038-.087-.054z" class="C"/><defs ><path id="B" d="M144.767 113.667L69.21 70.238c-2.082-1.196-3.277-4.37-2.682-7.084L78.5 8.86c.6-2.715 2.77-3.95 4.85-2.753l75.558 43.43c2.082 1.196 3.277 4.37 2.682 7.084l-11.973 54.294c-.6 2.715-2.77 3.95-4.85 2.753z"/><path id="C" d="M60.312 100.297l-3.634-2.1c-.292-.167-.254-.463.08-.657l3.602-2.074c.335-.194.85-.215 1.14-.048l3.634 2.1c.292.167.254.463-.08.657l-3.602 2.074c-.34.194-.85.216-1.14.05z"/><path id="D" d="M65.926 103.523l-3.634-2.1c-.292-.167-.254-.463.08-.657l3.602-2.074c.335-.194.85-.216 1.14-.05l3.634 2.1c.292.167.254.463-.08.657l-3.602 2.074c-.34.194-.85.215-1.14.048z"/><path id="E" d="M62.968 95.54l-3.634-2.1c-.292-.167-.254-.463.08-.657l3.602-2.074c.335-.194.85-.215 1.14-.048l3.634 2.1c.292.167.254.463-.08.657l-3.602 2.074c-.34.194-.85.215-1.14.048z"/><path id="F" d="M68.58 98.767l-3.634-2.1c-.292-.167-.254-.463.08-.657l3.602-2.074c.335-.194.85-.216 1.14-.05l3.634 2.1c.292.167.254.463-.08.657l-3.602 2.074c-.34.194-.85.216-1.14.05z"/><path id="G" d="M79.81 105.226l-3.634-2.1c-.292-.167-.254-.464.08-.658l3.602-2.074c.335-.194.85-.215 1.14-.048l3.634 2.1c.292.167.254.463-.08.657l-3.602 2.074c-.34.194-.85.216-1.14.05z"/><path id="H" d="M64.444 77.214l-3.634-2.1c-.292-.167-.254-.463.08-.657l1.2-.684c.335-.194.85-.216 1.14-.05l3.634 2.1c.292.167.254.463-.08.657l-1.2.684c-.34.194-.85.216-1.14.05z"/><path id="I" d="M114.92 69.44c1.725.99 1.725 2.607 0 3.604l-29.35 16.877a1.9 1.9 0 0 1-1.72 0c-.476-.275-.476-.716 0-.99l29.35-16.877c.78-.447.78-1.174 0-1.627l-2.845-1.638.882-1.47 3.683 2.122z"/><path id="J" d="M73.35 82.892l29.35-16.877c1.725-.99 4.537-.99 6.262 0l2.277 1.31-.88 1.47-3.1-1.788c-.78-.447-2.044-.447-2.823 0l-29.35 16.877a1.9 1.9 0 0 1-1.72 0c-.48-.275-.48-.716-.005-.99z"/><path id="K" d="M98.056 30.505l6.42-3.674c.784-.36 1.93-.34 2.655.08l5.954 3.426c.46.264.65.63.563.975l-16.214 9.653-13.028 7.962L75.18 43.6l22.877-13.095z"/><path id="L" d="M84.655 47.683V90.12c-.292-.005-.584-.075-.806-.2-.233-.135-.352-.307-.357-.485V48.33l1.163-.646z"/><path id="M" d="M85.568 48.82l29.35-16.877c1.725-.99 1.725-2.607 0-3.604l-5.955-3.426c-1.725-.99-4.537-.99-6.262 0L73.35 41.8c-.476.275-.476.716 0 .99a1.9 1.9 0 0 0 1.72 0l29.35-16.877c.78-.447 2.045-.447 2.823 0l5.955 3.426c.78.447.78 1.174 0 1.627L83.85 47.834c-.476.275-.476.716 0 .99.476.264 1.244.264 1.72-.005z"/><path id="N" d="M73.35 42.78a1.9 1.9 0 0 0 1.72 0l29.35-16.877c.78-.447 2.045-.447 2.823 0l5.955 3.426c.508.29.68.706.524 1.083-.08-.2-.26-.388-.524-.544l-5.955-3.426c-.778-.447-2.044-.447-2.823 0L75.07 43.32a1.9 1.9 0 0 1-1.72 0c-.362-.205-.444-.512-.26-.765a.91.91 0 0 0 .26.226z"/><path id="O" d="M83.85 48.82a1.9 1.9 0 0 0 1.72 0l29.35-16.877c.746-.426 1.162-.97 1.27-1.53.135.738-.287 1.508-1.27 2.074L85.568 49.36a1.9 1.9 0 0 1-1.72 0c-.362-.205-.443-.512-.26-.765a.91.91 0 0 0 .26.226z"/><path id="P" d="M128.418 77.397c1.725.99 1.725 2.607 0 3.604l-29.35 16.877a1.9 1.9 0 0 1-1.72 0c-.476-.275-.476-.716 0-.99L126.698 80c.78-.447.78-1.174 0-1.627l-2.845-1.638.882-1.47 3.683 2.122z"/><path id="Q" d="M86.845 90.854l29.35-16.877c1.725-.99 4.538-.99 6.263 0l2.277 1.31-.882 1.47-3.1-1.79c-.778-.447-2.044-.447-2.823 0L88.57 91.845a1.9 1.9 0 0 1-1.72 0c-.48-.28-.48-.722-.005-.99z"/><path id="R" d="M86.493 91.38l-.005-41.112 30.762-17.076 4.3-.285 4.16 2.688 2.553 2.21-29.967 47.34-9.783 5.742-2.017.496z"/><path id="S" d="M111.55 38.46l6.42-3.674c.784-.36 1.93-.34 2.655.08l5.955 3.426c.46.264.65.63.562.975l-16.22 9.653L97.9 56.884l-9.226-5.328L111.55 38.46z"/><path id="T" d="M98.153 55.645v42.438c-.292-.005-.584-.075-.806-.2-.233-.135-.352-.307-.357-.485V56.297l1.163-.652z"/><path id="U" d="M99.062 56.776l29.35-16.877c1.725-.99 1.725-2.607 0-3.604l-5.954-3.426c-1.725-.99-4.538-.99-6.263 0l-29.35 16.877c-.476.275-.476.717 0 .99a1.9 1.9 0 0 0 1.72 0l29.35-16.877c.78-.447 2.044-.447 2.823 0l5.954 3.426c.78.447.78 1.174 0 1.627L97.342 55.79c-.476.275-.476.716 0 .99.476.264 1.25.264 1.72-.005z"/><path id="V" d="M86.845 50.738a1.9 1.9 0 0 0 1.72 0l29.35-16.877c.78-.447 2.044-.447 2.823 0l5.954 3.426c.51.29.682.706.525 1.083-.08-.2-.26-.388-.525-.544l-5.954-3.426c-.78-.447-2.044-.447-2.823 0l-29.35 16.877a1.9 1.9 0 0 1-1.72 0c-.362-.205-.443-.512-.26-.765.06.08.146.162.26.226z"/><path id="W" d="M97.342 56.776a1.9 1.9 0 0 0 1.72 0l29.35-16.877c.747-.426 1.163-.97 1.266-1.53.135.738-.287 1.508-1.266 2.074L99.062 57.32a1.9 1.9 0 0 1-1.72 0c-.362-.205-.444-.512-.26-.765a.9.9 0 0 0 .26.221z"/><path id="X" d="M142.28 85.903c1.725.99 1.725 2.607 0 3.604l-29.35 16.877a1.9 1.9 0 0 1-1.72 0c-.476-.275-.476-.717 0-.99l29.35-16.877c.78-.447.78-1.174 0-1.627l-2.845-1.638.882-1.47 3.683 2.122z"/><path id="Y" d="M100.71 99.354l29.35-16.877c1.725-.99 4.537-.99 6.262 0l2.277 1.31-.88 1.47-3.1-1.788c-.78-.447-2.044-.447-2.823 0l-29.35 16.877a1.9 1.9 0 0 1-1.72 0c-.48-.275-.48-.716-.006-.99z"/><path id="Z" d="M112.015 64.146v42.437c-.292-.005-.585-.075-.806-.2-.233-.135-.352-.307-.357-.485V64.797l1.163-.652z"/><path id="a" d="M100.71 59.244a1.9 1.9 0 0 0 1.72 0l29.35-16.877c.778-.447 2.044-.447 2.823 0l5.954 3.426c.508.29.68.706.525 1.083-.082-.2-.26-.388-.525-.54l-5.954-3.426c-.78-.447-2.045-.447-2.823 0l-29.35 16.877a1.9 1.9 0 0 1-1.72 0c-.362-.205-.443-.512-.26-.765a.99.99 0 0 0 .259.221z"/><path id="b" d="M111.21 65.282a1.9 1.9 0 0 0 1.72 0l29.35-16.877c.746-.425 1.163-.97 1.27-1.53.135.738-.287 1.508-1.27 2.074l-29.35 16.877a1.9 1.9 0 0 1-1.72 0c-.363-.205-.444-.512-.26-.765.06.075.146.15.26.22z"/></defs></svg>