<svg width="17" height="15" viewBox="0 0 17 15" fill="none" xmlns="http://www.w3.org/2000/svg">
<path d="M8.18646 8.79395C7.76392 8.79395 7.44702 9.13725 7.44702 9.53338C7.44702 9.92951 7.79033 10.2728 8.18646 10.2728C8.39773 10.2728 8.58258 10.1936 8.74103 10.0616C8.87308 9.92951 8.9523 9.71824 8.9523 9.50697C8.92589 9.11085 8.60899 8.79395 8.18646 8.79395Z" fill="white"/>
<path d="M6.07386 4.78007C6.33794 4.80648 6.60203 4.83289 6.89252 4.88571C6.94534 4.88571 6.99815 4.91212 7.02456 4.91212C7.18301 4.91212 7.20942 4.80648 7.23583 4.67444C7.36787 4.2255 7.71118 3.96141 8.16013 3.96141C8.50343 3.96141 8.79393 4.11986 8.92597 4.38395C9.0316 4.59521 9.0052 4.8593 8.79393 5.09698C8.66189 5.28183 8.47703 5.44029 8.29217 5.57233C8.05449 5.75719 7.79041 5.94205 7.63196 6.25895C7.4471 6.68148 7.4471 7.23606 7.4471 7.73782C7.4471 7.86986 7.49991 7.92268 7.63196 7.92268C7.79041 7.92268 7.94886 7.92268 8.10731 7.92268C8.13372 7.92268 8.18653 7.92268 8.21294 7.92268H8.3978C8.45062 7.92268 8.50344 7.92268 8.55625 7.92268H8.58266C8.66189 7.92268 8.7147 7.89627 8.74111 7.86986C8.79393 7.81705 8.79393 7.73782 8.79393 7.685C8.79393 7.44733 8.79393 7.20965 8.82034 6.99838C8.84675 6.7343 9.0052 6.60226 9.19005 6.4174L9.24287 6.36458C9.29569 6.31176 9.3485 6.28536 9.40132 6.23254C9.90308 5.81 10.4577 5.30824 10.4577 4.59521C10.4577 4.11986 10.22 3.6181 9.82386 3.27479C9.40132 2.90507 8.82034 2.72021 8.18653 2.72021C7.10379 2.72021 5.94182 3.35402 5.83618 4.5424C5.86259 4.67444 5.94182 4.75367 6.07386 4.78007Z" fill="white"/>
<path d="M3.64437 0C1.63732 0 0 1.61092 0 3.61796V14.2606C0 14.5775 0.184859 14.8415 0.475352 14.9472C0.554577 14.9736 0.660211 15 0.765845 15C0.977113 15 1.16197 14.9208 1.29401 14.7623L3.32746 12.6496H12.7553C14.7623 12.6496 16.3996 11.0123 16.3996 9.00528V0H3.64437ZM15.1056 9.03169C15.1056 10.3521 14.0493 11.4085 12.7289 11.4085H2.77289L1.26761 12.993V3.61796C1.26761 2.29753 2.32394 1.2412 3.64437 1.2412H15.132V9.03169H15.1056Z" fill="white"/>
</svg>
