<svg width="16" height="8" viewBox="0 0 16 8" fill="none" xmlns="http://www.w3.org/2000/svg">
<path d="M14.3011 0.208774C13.3644 0.208774 12.6023 0.970866 12.6023 1.90761C12.6023 2.24927 12.704 2.56743 12.8783 2.83408L11.0429 4.66948C10.7762 4.49523 10.458 4.39351 10.1164 4.39351C9.76233 4.39351 9.4333 4.50251 9.16086 4.68855L7.30655 2.83396C7.48077 2.5673 7.58242 2.24918 7.58242 1.90758C7.58242 0.970835 6.82033 0.208742 5.88358 0.208742C4.94683 0.208742 4.18474 0.970835 4.18474 1.90758C4.18474 2.24918 4.28643 2.56721 4.46059 2.83386L2.62512 4.66936C2.3585 4.49517 2.0404 4.39351 1.69884 4.39351C0.762092 4.39351 0 5.15564 0 6.09239C0 7.02913 0.762092 7.79123 1.69884 7.79123C2.63559 7.79123 3.39768 7.02913 3.39768 6.09239C3.39768 5.75073 3.29596 5.43258 3.12171 5.16589L4.95712 3.33049C5.2238 3.50474 5.54196 3.60645 5.88361 3.60645C6.22524 3.60645 6.54339 3.50474 6.81005 3.33049L8.67461 5.19529C8.51192 5.45586 8.41755 5.76323 8.41755 6.09236C8.41755 7.0291 9.17964 7.7912 10.1164 7.7912C11.0531 7.7912 11.8152 7.0291 11.8152 6.09236C11.8152 5.75076 11.7135 5.4327 11.5394 5.16608L13.3749 3.33058C13.6415 3.50477 13.9596 3.60642 14.3012 3.60642C15.2379 3.60642 16 2.84433 16 1.90758C16 0.970803 15.2379 0.208774 14.3011 0.208774ZM1.69884 7.08901C1.14928 7.08901 0.702186 6.64192 0.702186 6.09239C0.702186 5.54283 1.14928 5.09573 1.69884 5.09573C2.24837 5.09573 2.69549 5.54283 2.69549 6.09239C2.69549 6.64192 2.2484 7.08901 1.69884 7.08901ZM5.88361 2.90424C5.33408 2.90424 4.88696 2.45714 4.88696 1.90758C4.88696 1.35805 5.33405 0.910928 5.88361 0.910928C6.43318 0.910928 6.88027 1.35802 6.88027 1.90758C6.88027 2.45714 6.43318 2.90424 5.88361 2.90424ZM10.1164 7.08901C9.56683 7.08901 9.1197 6.64192 9.1197 6.09236C9.1197 5.54279 9.56679 5.0957 10.1164 5.0957C10.6659 5.0957 11.113 5.54279 11.113 6.09236C11.113 6.64192 10.6659 7.08901 10.1164 7.08901ZM14.3011 2.90424C13.7516 2.90424 13.3045 2.45714 13.3045 1.90758C13.3045 1.35805 13.7516 0.910928 14.3011 0.910928C14.8507 0.910928 15.2978 1.35802 15.2978 1.90758C15.2978 2.45714 14.8507 2.90424 14.3011 2.90424Z" fill="black"/>
</svg>
