<svg width="24" height="18" viewBox="0 0 24 18" fill="none" xmlns="http://www.w3.org/2000/svg">
<path d="M18.6469 3.04322C18.6367 3.14447 18.6308 3.25997 18.6281 3.38522L17.1904 4.07185C16.989 4.03885 15.9904 4.09697 14.5009 3.36197C14.1232 3.1756 13.7543 3.0766 13.3999 3.0766C13.0792 3.07705 12.7632 3.15351 12.4777 3.29972C12.1016 3.21835 11.5598 3.00985 11.2429 3.0106C10.5259 3.01435 8.89575 3.59822 8.44425 3.6481C8.0025 3.69647 7.54763 3.81797 7.08975 4.01147C6.25763 3.76922 5.21438 3.3736 4.65562 3.15497L0.75 0.30835V9.4621L3.62025 10.8278C3.66188 10.7791 3.7095 10.7041 3.76125 10.6111L3.85013 10.6523C3.89363 10.7648 3.94163 10.877 3.99412 10.9883C3.67913 11.5186 3.64162 12.116 3.89325 12.6354C4.10888 13.0797 4.5105 13.3917 4.95787 13.4791C4.98225 13.7558 5.07525 14.0236 5.232 14.2557C5.51325 14.6708 5.96025 14.9187 6.42863 14.9187C6.471 14.9187 6.51338 14.9169 6.55538 14.912C6.62213 15.0924 6.72 15.2603 6.84713 15.4058C7.12988 15.731 7.52588 15.9173 7.93313 15.9173C7.96313 15.9173 7.99237 15.9166 8.022 15.9144C8.07375 16.1109 8.16188 16.2968 8.28487 16.4626C8.568 16.8451 9.00488 17.0727 9.45413 17.0727C9.73312 17.0727 9.99975 16.9872 10.2349 16.8271C10.6894 17.1188 11.0846 17.324 11.4352 17.45C11.6111 17.5216 11.7941 17.5583 11.9809 17.5583C12.4226 17.5583 12.8512 17.3521 13.1572 16.9913C13.2709 16.8571 13.3631 16.7071 13.4306 16.5466C13.5628 16.5866 13.7001 16.6071 13.8383 16.6073C14.3077 16.6073 14.7529 16.3775 15.0607 15.9755C15.207 15.785 15.3129 15.5666 15.372 15.3338C15.4043 15.3361 15.4361 15.3372 15.468 15.3372C16.0106 15.3372 16.53 15.0188 16.8221 14.5062C16.9753 14.2396 17.0566 13.9377 17.058 13.6302C17.5942 13.5504 18.0664 13.169 18.2962 12.6129C18.5228 12.065 18.4613 11.4605 18.1451 10.9565L19.6058 10.1334C19.6433 10.2616 19.68 10.3797 19.7156 10.4757L23.25 8.5951V0.9241L18.6469 3.04322ZM18.6465 4.1821C18.6698 4.58785 18.7121 5.04647 18.7669 5.52535C18.4669 5.02135 18.0881 4.79147 17.6179 4.6771L18.6465 4.1821ZM16.686 13.0906C15.8805 12.8135 14.2039 10.8425 14.2039 10.8425H14.2369C14.4075 10.8305 14.7761 10.6508 15.1898 10.7367C14.5402 10.1787 13.8259 10.6508 13.3395 10.3617C13.4524 10.7236 13.995 10.8376 14.1341 10.8421L15.7406 12.7103C16.4681 13.556 15.9615 14.6022 15.2321 14.7687C14.7428 14.5306 13.3609 12.887 13.3609 12.887C13.4081 12.8783 13.6883 12.7906 13.9736 12.8281C13.3148 12.3354 12.5677 12.7628 12.1245 12.4535C12.3758 13.0741 13.2034 12.9151 13.29 12.9001L14.1495 13.9974C14.8372 14.8749 14.2969 15.8885 13.5664 16.0257C12.9187 15.7981 12.4984 14.9881 12.4984 14.9881C12.5636 14.9776 12.7819 14.8805 13.0924 14.9255C12.54 14.4413 11.8969 14.8805 11.5103 14.6048C11.7491 15.1253 12.3446 15.0069 12.378 15.0031C12.9735 15.941 12.3559 16.919 11.6179 16.9482H11.6171L11.6164 16.9486C11.1731 16.8717 10.7089 16.5174 10.1846 16.1536C10.3646 15.9541 10.5236 15.6035 10.5236 15.6035C11.0501 14.6502 10.3669 13.8072 9.6615 13.8796C10.2338 14.036 10.6628 14.7665 10.2161 15.5776L10.02 15.9076C9.807 16.2957 9.47438 16.5301 9.22988 16.5012C8.85338 16.4555 8.32275 15.9057 8.54587 15.1302C8.63212 15.0515 9.46387 13.7791 9.46387 13.7791C10.0357 12.8581 9.39375 11.9765 8.6865 12.0065C9.24975 12.1966 9.64462 12.9518 9.159 13.7356L8.48287 14.7897C8.25225 15.1625 7.95375 15.3736 7.66913 15.3346C7.22738 15.2746 6.91762 14.7357 6.9885 14.1796C6.98475 14.183 7.47525 13.6343 7.47525 13.6343C8.127 12.7827 7.569 11.8317 6.86287 11.7818C7.4055 12.0346 7.72875 12.8311 7.17487 13.556L6.93563 13.8492C6.67313 14.1935 6.357 14.3686 6.08025 14.2996C5.59725 14.1785 5.346 13.2747 5.57438 13.0283C5.754 12.8345 6.25837 12.2206 6.25837 12.2206C6.90975 11.3686 6.3525 10.418 5.64563 10.3673C6.18863 10.6209 6.51187 11.4173 5.958 12.1426L5.71875 12.4351C5.45475 12.7824 5.1375 12.9567 4.85887 12.8858C4.27837 12.7388 3.9885 11.8426 4.54387 11.1151C4.54387 11.1151 4.35525 10.5158 4.27012 10.2597L3.99038 10.13C4.64625 8.60185 5.637 5.2291 5.68275 4.1086C6.16575 4.28073 7.44075 4.64747 7.57612 4.64822L7.57538 4.64897C8.94788 4.21772 10.3864 4.26535 11.0426 4.01185C11.2552 3.93085 11.6783 3.9256 12.1268 4.1821C11.8466 4.42772 11.5819 4.72022 11.307 4.99285C10.65 5.64497 8.20725 6.66197 8.67825 7.73147C9.08475 8.65435 10.2296 9.5986 12.15 8.11622L13.23 7.96772L14.9096 8.79647L17.0621 11.0071C17.8298 11.7938 17.3951 12.8618 16.686 13.0906ZM17.226 10.655C16.9792 10.1937 16.2101 9.43735 15.4841 8.81897L15.4796 8.81448C15.8145 8.82798 16.1659 8.28872 16.62 8.2471C16.3027 8.00485 15.777 8.2846 15.6131 8.32885C14.7097 8.57185 13.3057 7.43522 13.3057 7.43522L11.9625 7.62872C11.9625 7.62872 10.365 9.57835 9.01912 7.97222C8.28825 7.09997 10.9369 5.96072 11.5894 5.31235C12.4253 4.48172 13.17 3.46547 14.5451 4.15772C15.6874 4.73372 16.1374 4.6981 17.6696 4.96472C18.1264 5.0446 18.4429 5.25385 18.7822 5.66222C18.942 7.00622 19.2004 8.49685 19.4482 9.5341C19.3204 9.64172 18.2243 10.379 17.226 10.655Z" fill="white"/>
</svg>
