<svg width="62" height="62" viewBox="0 0 62 62" fill="none" xmlns="http://www.w3.org/2000/svg">
<g clip-path="url(#clip0)">
<path d="M19.375 22.25H2.25V56.25H19.375V22.25Z" fill="#FFA800"/>
<path d="M19.375 22.25H2.25V23.875H19.375V22.25Z" fill="#D09116"/>
<path d="M20.625 18.2501H1V22.3751H20.625V18.2501Z" fill="#FFA800"/>
<path d="M59.75 29.75H42.625V56.25H59.75V29.75Z" fill="#F3705A"/>
<path d="M59.75 29.75H42.625V31.3751H59.75V29.75Z" fill="#F05540"/>
<path d="M61 25.7501H41.375V29.8751H61V25.7501Z" fill="#F3705A"/>
<path d="M11.875 34.3748C12.25 33.8747 12.375 33.4997 12.375 32.9998C12.375 32.4999 12.25 32.2498 12 31.8748C11.75 31.6249 11.375 31.3748 10.875 31.3748C9.99996 31.3748 9.24996 31.9998 8.49996 33.1247L6 31.8747C6.62496 30.8748 7.24992 30.2498 7.99992 29.7498C8.74992 29.2497 9.62496 28.9998 10.8749 28.9998C11.9999 28.9998 12.9998 29.3748 13.8749 30.1248C14.7499 30.8748 15.1249 31.8747 15.1249 33.1247C15.1249 33.7497 14.9999 34.4997 14.6249 35.1248C14.2499 35.7497 13.6249 36.4997 12.7499 37.4998L10.375 39.9998H15.625V42.6248H6.24996V40.3748L10.125 36.3748C10.875 35.4998 11.5 34.8748 11.875 34.3748Z" fill="white"/>
<path d="M47.25 38.8747V36.3748H55.375V38.4997L52.6249 41.6248C53.6249 41.7498 54.4999 42.2497 55.1249 42.9997C55.7498 43.7497 55.9999 44.4997 55.9999 45.4997C55.9999 46.8746 55.4999 47.9996 54.625 48.7496C53.625 49.4996 52.5 49.8746 51 49.8746C49.5 49.8746 48 49.3746 46.5 48.3746L47.7499 45.9997C49 46.8748 50.125 47.3747 51.1249 47.3747C51.7499 47.3747 52.2499 47.2496 52.6249 46.9997C52.9999 46.7497 53.2499 46.2497 53.2499 45.7496C53.2499 45.2496 52.9999 44.7497 52.6249 44.4996C52.1249 44.1246 51.625 43.9996 50.7499 43.9996C50.3749 43.9996 49.75 44.1246 49 44.3746V42.2497L51.4999 39.2497H47.2499V38.8747H47.25Z" fill="white"/>
<path d="M39.625 9.75H22.5V56.25H39.625V9.75Z" fill="#66C6B9"/>
<path d="M39.625 9.75H22.5V11.375H39.625V9.75Z" fill="#4ABAA5"/>
<path d="M40.75 5.75H21.125V9.875H40.75V5.75Z" fill="#66C6B9"/>
<path d="M28.375 16.3751H33.75V29.6252H30.8751V18.8752H28.375V16.3751Z" fill="white"/>
</g>
<defs>
<clipPath id="clip0">
<rect width="60" height="60" fill="white" transform="translate(1 1)"/>
</clipPath>
</defs>
</svg>
