<svg width="14" height="14" viewBox="0 0 14 14" fill="none" xmlns="http://www.w3.org/2000/svg">
<path d="M7 14C5.61553 14 4.26215 13.5895 3.11101 12.8203C1.95987 12.0511 1.06266 10.9579 0.532846 9.67878C0.00303298 8.3997 -0.13559 6.99223 0.134506 5.63437C0.404602 4.2765 1.07129 3.02922 2.05025 2.05025C3.02922 1.07129 4.2765 0.404602 5.63437 0.134506C6.99223 -0.13559 8.3997 0.00303298 9.67878 0.532846C10.9579 1.06266 12.0511 1.95987 12.8203 3.11101C13.5895 4.26215 14 5.61553 14 7C14 8.85651 13.2625 10.637 11.9497 11.9497C10.637 13.2625 8.85651 14 7 14ZM7 1C5.81331 1 4.65327 1.3519 3.66658 2.01118C2.67989 2.67047 1.91085 3.60754 1.45673 4.7039C1.0026 5.80026 0.88378 7.00665 1.11529 8.17054C1.3468 9.33442 1.91825 10.4035 2.75736 11.2426C3.59648 12.0818 4.66557 12.6532 5.82946 12.8847C6.99334 13.1162 8.19974 12.9974 9.2961 12.5433C10.3925 12.0891 11.3295 11.3201 11.9888 10.3334C12.6481 9.34672 13 8.18669 13 7C13 5.4087 12.3679 3.88258 11.2426 2.75736C10.1174 1.63214 8.5913 1 7 1Z" fill="#F44335"/>
<path d="M7.44086 6.9932L9.92786 4.51285C9.97701 4.45562 10.0027 4.38199 9.99978 4.30669C9.99686 4.23139 9.96556 4.15996 9.91213 4.10667C9.8587 4.05339 9.78708 4.02217 9.71158 4.01926C9.63608 4.01635 9.56225 4.04197 9.50486 4.09098L7.01786 6.57133L4.53086 4.08799C4.47437 4.03165 4.39775 4 4.31786 4C4.23797 4 4.16135 4.03165 4.10486 4.08799C4.04837 4.14433 4.01664 4.22075 4.01664 4.30042C4.01664 4.3801 4.04837 4.45651 4.10486 4.51285L6.59486 6.9932L4.10486 9.47355C4.07346 9.50037 4.04795 9.53338 4.02995 9.5705C4.01194 9.60762 4.00182 9.64805 4.00022 9.68925C3.99863 9.73046 4.00559 9.77155 4.02067 9.80994C4.03575 9.84834 4.05863 9.88321 4.08787 9.91237C4.1171 9.94153 4.15207 9.96434 4.19057 9.97938C4.22906 9.99443 4.27026 10.0014 4.31158 9.99978C4.35289 9.99819 4.39343 9.98809 4.43065 9.97014C4.46787 9.95218 4.50097 9.92674 4.52786 9.89542L7.01786 7.41507L9.50486 9.89542C9.56225 9.94443 9.63608 9.97005 9.71158 9.96714C9.78708 9.96423 9.8587 9.93301 9.91213 9.87973C9.96556 9.82644 9.99686 9.75501 9.99978 9.67971C10.0027 9.60441 9.97701 9.53079 9.92786 9.47355L7.44086 6.9932Z" fill="#F44335" stroke="#F44335" stroke-width="0.5"/>
</svg>
