<svg width="14" height="14" viewBox="0 0 14 14" fill="none" xmlns="http://www.w3.org/2000/svg">
<path d="M7 14C3.13401 14 0 10.866 0 7C0 3.13401 3.13401 0 7 0C10.866 0 14 3.13401 14 7C14 10.866 10.866 14 7 14ZM4.61369 6.84433L6.12211 8.26896L8.85873 4.75044C9.09124 4.45151 9.52205 4.39765 9.82099 4.63016C10.1199 4.86266 10.1738 5.29348 9.94127 5.59242L6.74127 9.7067C6.49286 10.0261 6.02334 10.0621 5.72917 9.78424L3.67203 7.84138C3.3967 7.58135 3.3843 7.14736 3.64433 6.87203C3.90437 6.5967 4.33836 6.5843 4.61369 6.84433ZM7 12.8C10.2033 12.8 12.8 10.2033 12.8 7C12.8 3.79675 10.2033 1.2 7 1.2C3.79675 1.2 1.2 3.79675 1.2 7C1.2 10.2033 3.79675 12.8 7 12.8Z" fill="#6FBD13"/>
</svg>
