<svg width="14" height="14" viewBox="0 0 14 14" fill="none" xmlns="http://www.w3.org/2000/svg">
<path d="M7 0C3.13778 0 0 3.13777 0 7C0 10.8622 3.13778 14 7 14C10.4089 14 13.2554 11.5545 13.8757 8.32244C13.8835 8.28131 13.8832 8.23904 13.8747 8.19804C13.8662 8.15703 13.8497 8.11811 13.8262 8.08348C13.8026 8.04885 13.7725 8.0192 13.7375 7.99622C13.7025 7.97324 13.6633 7.95738 13.6222 7.94955C13.581 7.94171 13.5388 7.94206 13.4978 7.95056C13.4568 7.95906 13.4178 7.97556 13.3832 7.99911C13.3486 8.02265 13.3189 8.05279 13.296 8.0878C13.273 8.1228 13.2571 8.16199 13.2493 8.20312C12.6857 11.14 10.1053 13.3636 7 13.3636C3.4817 13.3636 0.636364 10.5183 0.636364 7C0.636364 3.48169 3.4817 0.636364 7 0.636364C10.5183 0.636364 13.3636 3.48169 13.3636 7C13.363 7.04216 13.3708 7.08402 13.3866 7.12315C13.4023 7.16228 13.4256 7.19789 13.4552 7.22791C13.4848 7.25794 13.5201 7.28178 13.559 7.29806C13.5979 7.31433 13.6397 7.32271 13.6818 7.32271C13.724 7.32271 13.7657 7.31433 13.8046 7.29806C13.8435 7.28178 13.8788 7.25794 13.9084 7.22791C13.938 7.19789 13.9614 7.16228 13.9771 7.12315C13.9928 7.08402 14.0006 7.04216 14 7C14 3.13777 10.8622 0 7 0ZM6.9652 1.90412C6.88612 1.91281 6.81316 1.95081 6.76071 2.01062C6.70825 2.07044 6.68011 2.14773 6.68182 2.22727V7C6.68183 7.08438 6.71535 7.16531 6.77502 7.22498C6.83469 7.28465 6.91562 7.31817 7 7.31818H10.8182C10.8603 7.31878 10.9022 7.31099 10.9413 7.29527C10.9805 7.27954 11.0161 7.2562 11.0461 7.2266C11.0761 7.19699 11.1 7.16171 11.1162 7.12281C11.1325 7.08391 11.1409 7.04217 11.1409 7C11.1409 6.95783 11.1325 6.91609 11.1162 6.87719C11.1 6.83829 11.0761 6.80301 11.0461 6.7734C11.0161 6.7438 10.9805 6.72046 10.9413 6.70473C10.9022 6.68901 10.8603 6.68122 10.8182 6.68182H7.31818V2.22727C7.31916 2.18198 7.31045 2.137 7.29264 2.09534C7.27483 2.05368 7.24833 2.0163 7.21492 1.98571C7.1815 1.95512 7.14194 1.93201 7.09887 1.91794C7.05581 1.90387 7.01023 1.89916 6.9652 1.90412Z" fill="#333333"/>
</svg>
