<svg width="21" height="25" viewBox="0 0 21 25" fill="none" xmlns="http://www.w3.org/2000/svg">
<path fill-rule="evenodd" clip-rule="evenodd" d="M5.63232 0L6.6282 0.486733C7.11762 0.282574 7.5289 0.486733 7.71856 1.06883C8.31879 0.880217 8.71373 0.974173 8.80891 1.66577C9.20386 1.36695 9.80409 1.57182 9.89856 2.26341C9.99374 2.05855 10.9896 2.35737 10.9896 2.93877L11.7951 3.44175L11.2901 4.32196C10.9896 4.13335 10.6892 3.92848 10.2942 3.83452C9.70961 4.13335 9.31467 3.73986 9.10867 3.23688C8.80891 3.5357 8.20797 3.23688 8.1135 2.75015C7.62337 2.8441 7.22843 2.75015 7.11762 2.05855C6.53301 2.26341 6.02726 2.05855 5.93279 1.36695L5.1429 0.880217L5.63232 0ZM5.23735 20.3827V23.2388L4.05252 25L3.05664 23.2388V20.3827C3.35711 20.4767 3.65687 20.5678 4.05252 20.5678C4.44747 20.5678 4.84241 20.4767 5.14288 20.3827H5.23735ZM4.05252 6.69488H4.35228C4.84241 6.69488 5.23735 7.08765 5.23735 7.57509V13.9867C4.84241 13.8765 4.44747 13.7825 4.05252 13.7825C3.65687 13.7825 3.35711 13.8765 3.05664 13.9867V7.77925C3.05664 7.18161 3.45158 6.69488 4.05252 6.69488ZM8.11352 6.88349H8.31881C8.80893 6.78883 9.31469 7.08765 9.40916 7.57509L12.08 23.0347L11.2901 24.9053L9.89858 23.4282L7.22845 8.17203C7.11764 7.57509 7.52892 6.97745 8.11352 6.88349ZM16.6467 6.69488H16.8364C17.3421 6.69488 17.7371 7.08765 17.7371 7.57509V23.2389L16.6467 25L15.5564 23.2389V7.77925C15.5564 7.18161 16.0458 6.69488 16.6467 6.69488ZM13.6753 3.83453L14.6556 3.34709C14.7664 2.75015 15.0662 2.45133 15.6508 2.546C15.8567 2.05856 16.0457 1.66578 16.7411 1.9646C16.7411 1.46162 17.1361 1.06884 17.8315 1.36696C17.6418 1.06884 18.4324 0.377243 18.8274 0.675358L19.7117 0.188625L20.3127 1.06884C20.0122 1.273 19.6172 1.46162 19.3168 1.66578C19.3168 2.35738 18.8274 2.546 18.2271 2.45133C18.3372 2.84411 17.8315 3.23689 17.3421 3.04898C17.2469 3.53571 16.9464 3.83453 16.2517 3.63037C16.1565 4.22731 15.7459 4.52613 15.0662 4.32197L14.2606 4.82495L13.6753 3.83453Z" fill="#9B7838"/>
<path fill-rule="evenodd" clip-rule="evenodd" d="M6.25 20.1859C5.66689 20.7626 4.83835 20.978 3.89726 20.978C1.76963 20.978 0 19.2844 0 17.1404C0 16.2405 0.225965 15.4468 0.828537 14.7623C1.05366 15.3382 1.29909 15.8971 1.54367 16.4746C2.35274 17.9326 3.53927 19.0689 4.61239 19.627C5.19634 19.9696 5.77945 20.1859 6.25 20.1859Z" fill="#EE8282"/>
<path fill-rule="evenodd" clip-rule="evenodd" d="M4.15573 13.2084C6.19867 13.2084 7.8125 14.8134 7.8125 16.743C7.8125 17.8191 7.38338 18.7748 6.62779 19.4241C6.09525 19.4241 5.56349 19.2015 4.91132 18.8776C3.93191 18.2459 3.07368 17.2719 2.31809 15.9916C2.00937 15.4627 1.78632 14.8134 1.5625 14.2845C2.21544 13.6352 3.19408 13.2084 4.15573 13.2084Z" fill="#E05656"/>
</svg>
