<svg width="24" height="24" viewBox="0 0 24 24" fill="none" xmlns="http://www.w3.org/2000/svg">
<path fill-rule="evenodd" clip-rule="evenodd" d="M4 12C4 7.58806 7.58804 4 12 4C16.412 4 20 7.58806 20 12C20 16.4119 16.412 20 12 20C7.58804 20 4 16.4119 4 12ZM18.9333 12C18.9333 8.16454 15.8355 5.06667 12 5.06667C8.16452 5.06667 5.06667 8.16454 5.06667 12C5.06667 15.8355 8.16452 18.9333 12 18.9333C15.8355 18.9333 18.9333 15.8355 18.9333 12ZM12.25 6C11.5596 6 11 6.55965 11 7.25C11 7.94035 11.5596 8.5 12.25 8.5C12.9403 8.5 13.5 7.94035 13.5 7.25C13.5 6.55965 12.9403 6 12.25 6ZM10.3975 9.78543C10.9695 9.34659 11.651 9.03087 12.2919 9.0021C12.6765 8.98483 13.0473 9.07329 13.3697 9.29654C14.6409 10.1767 13.3431 12.9693 12.702 14.3487C12.5667 14.6399 12.4606 14.8682 12.4142 15.0021C11.8614 16.5948 12.5468 16.9627 13.5031 16.6632L13.4364 17.3854C11.6787 18.642 9.21553 18.2897 10.2419 15.241C10.3476 14.927 10.5317 14.5333 10.7332 14.1022C11.2529 12.9904 11.8889 11.6298 11.5975 10.7465C11.4314 10.2427 10.8768 10.2404 10.3364 10.4521L10.3975 9.78543Z" fill="#898989"/>
</svg>
