<svg width="48" height="48" viewBox="0 0 48 48" fill="none" xmlns="http://www.w3.org/2000/svg">
<mask id="mask0" mask-type="alpha" maskUnits="userSpaceOnUse" x="0" y="0" width="48" height="48">
<circle cx="24" cy="24" r="24" fill="#DF4B38"/>
</mask>
<g mask="url(#mask0)">
<path d="M40.8925 50H8.10753C3.07527 50 -1 45.9247 -1 40.8925V8.10753C-1 3.07527 3.07527 -1 8.10753 -1H40.8925C45.9247 -1 50 3.07527 50 8.10753V40.8925C50 45.9247 45.9247 50 40.8925 50Z" fill="url(#paint0_radial)"/>
</g>
<path d="M24.71 14.05C28.18 14.05 28.59 14.06 29.96 14.13C31.23 14.19 31.92 14.4 32.37 14.58C32.98 14.82 33.41 15.1 33.86 15.55C34.32 16.01 34.6 16.44 34.83 17.04C35.01 17.5 35.22 18.19 35.28 19.45C35.34 20.82 35.36 21.23 35.36 24.7C35.36 28.17 35.35 28.58 35.28 29.95C35.22 31.22 35.01 31.91 34.83 32.36C34.59 32.97 34.31 33.4 33.86 33.86C33.41 34.31 32.97 34.6 32.37 34.83C31.91 35.01 31.22 35.22 29.96 35.28C28.59 35.34 28.18 35.36 24.71 35.36C21.24 35.36 20.83 35.35 19.46 35.28C18.19 35.22 17.5 35.01 17.05 34.83C16.44 34.59 16.01 34.31 15.55 33.86C15.1 33.4 14.81 32.97 14.58 32.36C14.4 31.9 14.19 31.21 14.13 29.95C14.07 28.58 14.05 28.17 14.05 24.7C14.05 21.23 14.06 20.82 14.13 19.45C14.19 18.18 14.4 17.49 14.58 17.04C14.82 16.43 15.1 16 15.55 15.55C16.01 15.09 16.44 14.81 17.05 14.58C17.51 14.4 18.2 14.19 19.46 14.13C20.83 14.07 21.24 14.05 24.71 14.05ZM24.71 11.71C21.18 11.71 20.74 11.73 19.35 11.79C17.97 11.85 17.02 12.07 16.19 12.39C15.33 12.72 14.61 13.17 13.89 13.89C13.17 14.61 12.72 15.34 12.39 16.19C12.07 17.02 11.85 17.96 11.79 19.35C11.73 20.74 11.71 21.18 11.71 24.71C11.71 28.24 11.72 28.68 11.79 30.07C11.85 31.45 12.07 32.4 12.39 33.23C12.72 34.08 13.17 34.81 13.89 35.53C14.61 36.25 15.34 36.7 16.19 37.03C17.02 37.35 17.96 37.57 19.35 37.63C20.74 37.69 21.18 37.71 24.71 37.71C28.24 37.71 28.68 37.7 30.07 37.63C31.45 37.57 32.4 37.35 33.23 37.03C34.09 36.7 34.81 36.25 35.53 35.53C36.25 34.81 36.7 34.08 37.03 33.23C37.35 32.4 37.57 31.46 37.63 30.07C37.69 28.68 37.71 28.24 37.71 24.71C37.71 21.18 37.7 20.74 37.63 19.35C37.57 17.97 37.35 17.02 37.03 16.19C36.7 15.34 36.25 14.61 35.53 13.89C34.81 13.17 34.08 12.72 33.23 12.39C32.4 12.07 31.46 11.85 30.07 11.79C28.69 11.73 28.24 11.71 24.71 11.71Z" fill="white"/>
<path d="M24.7098 18.04C21.0198 18.04 18.0298 21.03 18.0298 24.72C18.0298 28.41 21.0198 31.4 24.7098 31.4C28.3998 31.4 31.3898 28.41 31.3898 24.72C31.3898 21.03 28.3998 18.04 24.7098 18.04ZM24.7098 29.05C22.3198 29.05 20.3798 27.11 20.3798 24.72C20.3798 22.33 22.3198 20.39 24.7098 20.39C27.0998 20.39 29.0398 22.33 29.0398 24.72C29.0498 27.11 27.1098 29.05 24.7098 29.05Z" fill="white"/>
<path d="M33.2098 17.77C33.2098 18.63 32.5098 19.33 31.6498 19.33C30.7898 19.33 30.0898 18.63 30.0898 17.77C30.0898 16.91 30.7898 16.21 31.6498 16.21C32.5198 16.21 33.2098 16.91 33.2098 17.77Z" fill="white"/>
<defs>
<radialGradient id="paint0_radial" cx="0" cy="0" r="1" gradientUnits="userSpaceOnUse" gradientTransform="translate(-2.27602 50.166) scale(94.288)">
<stop offset="1" stop-color="#C84278"/>
</radialGradient>
</defs>
</svg>
