<svg width="182" height="112" viewBox="0 0 182 112" fill="none" xmlns="http://www.w3.org/2000/svg">
<path d="M155.322 22.6406C154.034 22.9361 153.117 21.951 152.001 21.6555C150.936 21.36 149.895 20.8675 148.755 20.8675C146.45 19.9564 146.301 17.7647 145.905 15.8193C145.533 13.997 145.459 12.1008 145.236 10.1061C143.228 11.4113 141.221 12.1254 138.991 12.1254C139.065 9.26884 140.651 7.32341 143.402 6.8309C145.409 6.48614 147.516 6.46151 149.201 7.61892C151.035 8.89945 153.017 9.66285 155.05 10.5001C158.123 11.7807 159.164 14.6865 158.098 18.0109C157.553 19.8086 156.388 21.1876 155.322 22.6406Z" fill="#040403"/>
<path d="M34.2345 21.2123C33.6397 22.0988 31.6571 22.6652 30.8888 22.148C30.2941 21.754 30.8641 21.3108 30.8641 20.8921C31.2358 19.8332 31.5827 18.7497 32.004 17.6908C32.574 16.2871 32.9954 15.0559 31.9297 13.5291C30.8641 12.0023 31.6571 10.5494 33.3919 9.98297C34.2345 10.5247 34.6558 11.2881 34.9036 12.2978C35.1267 13.2089 36.0188 14.2925 36.7375 13.0858C37.5553 11.6575 38.4723 12.0515 39.5627 12.1254C40.7771 12.1993 41.9914 12.1747 43.181 12.1993C43.2553 13.1597 43.3793 14.1201 43.0571 15.0559C42.1153 17.9371 40.7027 18.9713 37.5553 18.2326C35.4736 17.7647 34.8293 18.5034 34.4575 20.2026C34.4575 20.5227 34.3336 20.8675 34.2345 21.2123Z" fill="#F9D688"/>
<path d="M43.2309 12.1993C42.0165 12.1747 40.8022 12.1993 39.6126 12.1254C38.5222 12.0515 37.6052 11.6822 36.7874 13.0858C36.0935 14.2925 35.1766 13.2089 34.9535 12.2978C34.7057 11.3128 34.2844 10.5247 33.4418 9.98298C34.3339 7.07716 36.267 6.19063 40.2818 6.75702C41.8183 6.97865 43.1318 7.91443 44.817 7.74205C45.61 7.66817 45.7835 8.70245 45.7339 9.44122C45.61 10.968 44.5939 11.7314 43.2309 12.1993Z" fill="#0B090F"/>
<path d="M145.385 21.1384C143.129 21.8033 141.122 22.8622 139.288 24.3151C134.703 21.163 134.555 16.9028 138.867 12.9135C139.016 13.603 139.09 14.3417 139.313 15.0066C140.106 17.2229 141.246 18.3311 143.03 17.9125C145.087 17.4199 145.286 18.3557 145.211 19.8825C145.211 20.3011 145.335 20.7198 145.385 21.1384Z" fill="#040403"/>
<path d="M145.384 21.1384C145.335 20.7198 145.211 20.3012 145.235 19.8825C145.31 18.3311 145.136 17.42 143.055 17.9125C141.27 18.3311 140.105 17.223 139.337 15.0066C139.114 14.3418 139.04 13.603 138.891 12.9135C138.916 12.6426 138.965 12.3963 138.99 12.1254C141.221 12.1254 143.228 11.4113 145.235 10.1061C145.458 12.1008 145.533 13.997 145.905 15.8193C146.301 17.7647 146.45 19.9564 148.755 20.8676C148.556 21.5571 149.349 22.8376 148.16 22.8376C147.168 22.8622 145.533 22.9854 145.384 21.1384Z" fill="#F9D688"/>
<path d="M26.9483 42.612C27.4192 44.5328 29.1787 44.9761 30.6161 45.838C30.864 45.9857 31.4587 45.9119 31.2357 46.4782C31.0374 46.9954 30.6409 46.7245 30.3435 46.5767C28.6831 45.6902 26.6014 45.247 26.2296 42.9321C26.3287 42.4889 26.6261 42.5135 26.9483 42.612Z" fill="#0B090F"/>
<path d="M35.3498 48.3004C34.8789 48.3004 34.2841 48.4236 34.1106 47.8572C33.9867 47.4385 34.4576 47.3154 34.7798 47.1677C34.978 47.5124 35.1763 47.9064 35.3498 48.3004Z" fill="#0B090F"/>
<path d="M133.96 53.3734C134.009 53.004 134.034 52.6592 134.084 52.2899C134.877 52.7331 134.778 53.1025 133.96 53.3734Z" fill="#FAFAFA"/>
<path d="M140.552 42.5134C140.626 42.4396 140.7 42.3903 140.775 42.3411C140.849 42.4396 140.923 42.5627 140.973 42.6612C140.874 42.6858 140.775 42.7843 140.7 42.7597C140.651 42.7351 140.601 42.5873 140.552 42.5134Z" fill="#FAFAFA"/>
<path d="M158.965 34.9533C158.742 34.9533 158.519 34.9533 158.296 34.9533C158.172 34.8548 158.023 34.7563 157.899 34.6578C158.271 34.6825 158.618 34.7071 158.99 34.7071C158.965 34.781 158.965 34.8795 158.965 34.9533Z" fill="#FAFAFA"/>
<path d="M138.197 43.9418C138.247 43.7448 138.197 43.4739 138.519 43.4739C138.594 43.4739 138.718 43.597 138.718 43.6709C138.718 43.991 138.445 43.9171 138.247 43.991L138.197 43.9418Z" fill="#FAFAFA"/>
<path d="M138.272 43.991C138.223 44.0402 138.148 44.0648 138.099 44.1141C138.148 44.0648 138.173 43.991 138.223 43.9417C138.198 43.9417 138.272 43.991 138.272 43.991Z" fill="#FAFAFA"/>
<path d="M141.89 42.144C141.94 42.2179 141.989 42.2672 142.014 42.3411C141.94 42.2918 141.89 42.2425 141.816 42.2179C141.841 42.1933 141.89 42.144 141.89 42.144Z" fill="#FAFAFA"/>
<path d="M141.84 42.1933C141.791 42.1441 141.766 42.0702 141.716 42.0209C141.766 42.0702 141.84 42.0948 141.89 42.1441L141.84 42.1933Z" fill="#FAFAFA"/>
<path d="M156.834 110.899C154.529 110.85 152.224 110.825 149.944 110.776C148.978 102.255 148.061 93.7348 147.045 85.2143C146.723 82.5794 147.268 80.0922 147.788 77.5557C147.962 77.5557 148.16 77.5557 148.334 77.5557C148.234 81.6682 149.449 85.4606 151.208 89.1544C154.034 95.0646 157.28 100.753 160.725 106.318C161.22 107.131 161.369 107.55 160.303 108.018C158.891 108.633 157.924 109.889 156.834 110.899Z" fill="#FAFAFA"/>
<path d="M151.258 46.5029C151.555 46.5521 151.853 46.6014 151.704 46.1089L151.679 46.1335C152.15 46.4536 152.249 46.0104 152.447 45.7641L152.423 45.7887C152.547 45.7395 152.646 45.7148 152.77 45.7148C152.918 46.5275 152.547 47.1185 151.853 47.4879C148.73 49.1624 145.434 50.3445 141.915 50.837L141.865 50.7877C142.609 49.6303 144.046 49.6057 145.062 49.2609" fill="#0B090F"/>
<path d="M153.984 44.0402C153.811 44.3604 153.662 44.6805 153.488 45.0007C153.365 45.1238 153.241 45.2469 153.117 45.3947C153.018 45.3947 152.918 45.4193 152.819 45.4439L152.844 45.4685C152.621 44.582 153.365 44.3358 153.885 43.9664C153.885 43.9664 153.984 44.0402 153.984 44.0402Z" fill="#8AB3F1"/>
<path d="M138.197 51.8959C138.272 51.625 138.296 51.3295 138.668 51.3787C138.718 51.3787 138.767 51.4526 138.792 51.5018C138.817 51.8959 138.519 51.8959 138.247 51.9697L138.197 51.8959Z" fill="#0B090F"/>
<path d="M152.448 45.7641C152.249 46.0103 152.15 46.4536 151.679 46.1335C151.853 45.838 151.977 45.4439 152.448 45.7641Z" fill="#8AB3F1"/>
<path d="M140.775 51.1817C140.824 51.034 140.874 50.8616 140.923 50.7139C140.973 50.7385 141.047 50.8124 141.047 50.8124C140.973 50.9601 140.874 51.0832 140.775 51.1817Z" fill="#0B090F"/>
<path d="M141.89 50.8616C141.84 50.9109 141.766 50.9601 141.716 50.9848C141.766 50.9355 141.815 50.8616 141.84 50.8124C141.865 50.8124 141.89 50.8616 141.89 50.8616Z" fill="#0B090F"/>
<path d="M140.799 51.2063C140.75 51.2555 140.7 51.3048 140.626 51.354C140.675 51.3048 140.725 51.2555 140.799 51.2063C140.774 51.1816 140.799 51.2063 140.799 51.2063Z" fill="#0B090F"/>
<path d="M138.271 51.9451C138.197 51.9943 138.148 52.019 138.073 52.0682C138.123 51.9943 138.172 51.9451 138.197 51.8712C138.197 51.8958 138.271 51.9451 138.271 51.9451Z" fill="#0B090F"/>
<path d="M151.704 46.1088C151.877 46.6013 151.58 46.5521 151.258 46.5028C151.332 46.2812 151.456 46.1335 151.704 46.1088Z" fill="#8AB3F1"/>
<path d="M152.77 45.7148C152.646 45.7148 152.546 45.7394 152.423 45.7887C152.249 45.2962 152.447 45.2715 152.844 45.4439L152.819 45.4193C152.77 45.5424 152.77 45.6163 152.77 45.7148Z" fill="#8AB3F1"/>
<path d="M153.116 45.3947C153.24 45.2716 153.364 45.1238 153.488 45.0007C153.364 45.1238 153.24 45.2716 153.116 45.3947Z" fill="#0B090F"/>
<path d="M33.3667 47.2416C33.2924 47.3154 33.218 47.3647 33.1437 47.4386C33.0693 47.3154 32.995 47.2169 32.9454 47.0938C33.0446 47.0446 33.1437 46.9707 33.218 46.9953C33.2924 47.0199 33.3172 47.1677 33.3667 47.2416Z" fill="#0B090F"/>
<path d="M39.5629 23.4286C39.3646 23.1823 39.1415 22.9115 38.9433 22.6652C37.6298 21.3354 35.8702 21.4832 34.2346 21.2123C33.6398 22.0988 31.6572 22.6652 30.889 22.1481C30.2942 21.754 30.8642 21.3108 30.8642 20.8921C29.1294 20.6705 27.3946 20.375 25.6598 20.2026C22.3885 19.8825 20.1581 22.4436 21.0007 25.5464C21.9177 28.8955 22.9338 32.2446 23.8755 35.5937C24.3711 37.3175 25.4616 38.4256 27.2211 38.7704C28.9559 39.1151 30.2446 38.3517 31.3598 37.0958C33.7885 34.3378 36.1924 31.5797 38.6707 28.8955C40.232 27.1963 40.6037 25.4479 39.5629 23.4286Z" fill="#1D7DEA"/>
<path d="M161.989 32.3924C161.344 28.0829 158.99 24.9308 155.347 22.6406C154.058 22.9361 153.141 21.9511 152.026 21.6556C150.96 21.3601 149.92 20.8676 148.78 20.8676C148.581 21.5571 149.374 22.8376 148.185 22.8376C147.169 22.8376 145.508 22.9607 145.384 21.1384C143.129 21.8033 141.122 22.8622 139.288 24.3151C137.033 26.6053 135.496 29.2649 135 32.4662C134.802 33.6975 135.124 34.1654 136.463 34.19C140.7 34.2147 144.938 34.1162 149.151 34.5348C149.275 34.4855 149.374 34.4855 149.498 34.5594C149.622 34.584 149.771 34.584 149.895 34.6087C149.895 34.5594 149.87 34.5102 149.87 34.4609C149.994 34.4609 150.118 34.4609 150.242 34.4609C150.242 34.4609 150.242 34.4609 150.242 34.4855C152.794 34.5348 155.347 34.6087 157.875 34.6579C158.246 34.6825 158.593 34.7072 158.965 34.7072C159.312 34.6825 159.684 34.6333 160.031 34.6333C162.36 34.6333 162.311 34.6333 161.989 32.3924Z" fill="#F46561"/>
<path d="M92.6719 0.797615L94.9767 33.1557C95.0015 33.6482 94.5058 34.0915 93.8615 34.1654L53.6889 38.8935C52.9703 38.9674 52.3755 38.598 52.4003 38.0562C52.5985 32.8848 57.4063 2.91542 91.185 0.0342206C91.9037 -0.113533 92.6223 0.231225 92.6719 0.797615Z" fill="#F66460"/>
<path d="M176.759 111.145C176.71 111.047 176.71 110.973 176.759 110.874C176.635 110.677 176.487 110.48 176.412 110.259C172.621 100.655 168.878 91.0506 165.062 81.4466C164.789 80.7324 164.74 80.0429 164.789 79.3288C165.012 74.4036 165.136 69.4785 164.789 64.5288C164.467 60.0223 164.12 55.4911 162.187 51.354C160.75 48.2758 158.693 45.6901 155.521 44.2619C155.421 44.1634 155.05 44.0402 154.579 43.8925C154.529 43.8678 154.48 43.8432 154.43 43.8432C152.001 43.2029 148.928 42.3164 146.45 43.1537C141.221 44.9267 138.371 48.8176 136.686 53.7674C133.068 64.381 132.398 75.4133 132.597 86.4948C132.721 92.9221 133.638 99.3002 134.53 105.678C134.728 107.18 134.703 108.239 132.944 108.806C131.729 109.2 130.664 110.135 129.548 110.825C129.548 110.923 129.548 111.047 129.548 111.145C136.339 111.145 143.104 111.145 149.895 111.145C149.944 111.096 149.944 111.096 149.994 111.047C149.028 102.428 148.086 93.8086 147.07 85.1897C146.748 82.5547 147.293 80.0675 147.813 77.5311C148.111 75.758 148.185 73.9604 148.16 72.1873C148.234 71.3008 148.135 72.0396 148.408 69.971C148.457 67.7055 148.482 65.4153 148.532 63.1497C148.433 61.8446 148.606 60.5394 148.755 59.2835C148.78 59.1604 148.953 59.185 148.953 59.3081C149.052 60.5887 148.978 61.8692 148.904 63.1251C148.854 65.3907 148.829 67.6562 148.78 69.9218C148.631 71.2269 148.631 70.8575 148.557 72.1381C148.482 73.9357 148.433 75.758 148.358 77.5557C148.259 81.6682 149.474 85.4605 151.233 89.1544C154.058 95.0645 157.305 100.753 160.75 106.318C161.245 107.131 161.394 107.55 160.328 108.018C158.941 108.633 157.974 109.865 156.884 110.899C156.933 110.973 156.933 111.071 156.884 111.145C163.476 111.145 170.117 111.145 176.759 111.145ZM138.272 51.9451C138.198 51.9943 138.148 52.0189 138.074 52.0682C138.123 51.9943 138.173 51.9451 138.198 51.8712C138.272 51.6003 138.297 51.3048 138.668 51.354C138.718 51.354 138.768 51.4279 138.792 51.4772C138.842 51.8712 138.52 51.8958 138.272 51.9451Z" fill="#050409"/>
<path d="M73.0691 85.6576L80.1569 49.1131C80.256 48.5714 79.909 48.0542 79.3638 47.9311L45.9321 41.4053C45.3374 41.2822 44.7921 41.7008 44.7178 42.3165C44.6435 47.8326 44.2221 77.4819 71.4334 85.9285C72.053 86.1255 72.9699 86.2733 73.0691 85.6576Z" fill="#FFDA88"/>
<path d="M100.156 85.3374L95.1503 48.4236C95.1008 47.9311 95.5221 47.4878 96.1168 47.3893L132.993 42.3164C133.638 42.2425 134.183 42.6119 134.183 43.1537C134.208 48.3497 137.082 80.757 101.544 86.0515C100.875 86.2732 100.206 85.9038 100.156 85.3374Z" fill="#1D7DEA"/>
<path d="M97.6035 9.4166L99.3631 40.2972C99.3879 40.765 99.7844 41.1344 100.255 41.1098L128.978 40.0263C129.474 40.0017 129.87 39.5584 129.796 39.0659C129.127 34.2146 124.641 12.0269 98.5948 8.53008C98.0496 8.4562 97.5787 8.87484 97.6035 9.4166Z" fill="#F7C9D6"/>
<path d="M135.769 45.2223H134.282V44.8529H135.67L136.116 44.6066L148.061 38.9427C148.656 36.6772 150.39 32.9095 151.382 30.8409C152.001 29.5357 152.646 28.2306 153.216 27.1717C154.083 25.5218 154.133 25.5218 154.281 25.5464L154.257 25.9158C154.331 25.9158 154.38 25.8911 154.38 25.8665C154.058 26.2113 149.424 35.2489 148.433 39.1151L148.408 39.189L136.314 44.9021L135.769 45.2223Z" fill="black"/>
<path d="M137.479 52.1667L137.355 51.8219C144.22 49.4579 148.408 47.3893 150.713 46.0349C153.216 44.582 154.083 43.6955 154.108 43.6708L154.381 43.9171C154.232 44.0895 150.738 47.6356 137.479 52.1667Z" fill="#FCFCFC"/>
<path d="M131.68 53.792C131.581 53.792 131.482 53.7674 131.407 53.6935C131.308 53.595 131.259 53.4719 131.259 53.3241C131.283 53.1517 131.358 53.004 131.482 52.9055L132.869 51.6496L131.68 52.3145C131.606 52.3637 131.531 52.3884 131.457 52.413L129.722 52.8809C129.623 52.9055 129.524 52.8809 129.449 52.8316C129.375 52.7824 129.326 52.6839 129.326 52.5854C129.326 52.3637 129.425 52.1667 129.598 52.0436C130.986 50.9847 132.101 50.1228 132.696 49.6057C131.829 49.8765 130.54 50.1967 129.92 50.3444C129.796 50.369 129.672 50.3444 129.573 50.2705C129.474 50.1967 129.425 50.0735 129.425 49.9504C129.425 49.8027 129.499 49.6549 129.623 49.581L134.183 46.2812L134.406 46.5767L129.846 49.8765C129.821 49.9012 129.796 49.9258 129.796 49.9504V49.975C130.441 49.8273 132.522 49.3101 133.192 49.0393C133.39 48.9654 133.489 49.0393 133.514 49.1131C133.613 49.2855 133.687 49.4086 129.796 52.3391C129.747 52.3884 129.697 52.4376 129.672 52.5115L131.333 52.0682C131.382 52.0436 131.432 52.0436 131.482 52.019L134.084 50.5907L134.307 50.8862L131.729 53.201C131.68 53.2502 131.63 53.3241 131.63 53.398C131.63 53.4226 131.63 53.4226 131.655 53.4226C131.68 53.4226 131.68 53.4226 131.68 53.4226L134.208 52.6592L137.355 51.822L137.454 52.1667L134.307 53.004L131.779 53.7674C131.754 53.792 131.729 53.792 131.68 53.792Z" fill="black"/>
<path d="M154.232 43.9664C154.009 43.8186 153.959 43.794 158.42 35.7907C158.842 35.0273 159.189 34.4116 159.238 34.3378L159.56 34.5101C159.536 34.584 159.263 35.0519 158.743 35.9877C157.503 38.204 154.579 43.4246 154.505 43.8186C154.505 43.794 154.505 43.6955 154.43 43.6463L154.232 43.9664Z" fill="black"/>
<path d="M128.706 34.0669L128.557 33.7221L131.878 32.3923C132.597 30.1021 137.702 24.586 137.925 24.3397L138.198 24.586C138.148 24.6352 132.795 30.4223 132.2 32.5647L132.175 32.6632L128.706 34.0669Z" fill="black"/>
<path d="M120.28 42.4149C117.851 42.4149 114.084 42.2425 113.291 41.2575C113.142 41.0605 113.093 40.8142 113.142 40.5926L114.282 35.1749L114.357 35.1257C114.406 35.1011 114.53 35.0272 114.629 35.0764C114.704 35.1011 114.753 35.1503 114.753 35.2242L115.521 38.2285L116.116 34.4115C116.141 34.2638 116.24 34.1653 116.389 34.1653C116.513 34.1653 116.661 34.2638 116.686 34.3869L117.554 38.1054L118.049 35.766C118.074 35.6428 118.173 35.5443 118.322 35.5197C118.446 35.4951 118.594 35.5689 118.644 35.6921C118.941 36.2831 119.487 37.7114 119.561 40.3463H119.189C119.14 37.9576 118.694 36.6278 118.396 35.9876L117.851 38.4994C117.826 38.6471 117.702 38.7457 117.554 38.7457C117.405 38.7457 117.281 38.6472 117.256 38.524L116.414 34.8794L115.844 38.5979C115.819 38.7457 115.695 38.8442 115.546 38.8442C115.397 38.8442 115.274 38.7457 115.249 38.6225L114.53 35.8152L113.514 40.6665C113.464 40.8142 113.489 40.9127 113.588 41.0358C114.431 42.1194 120.156 42.1194 122.287 42.0209C140.676 41.356 141.171 34.2884 141.171 34.2145L141.543 34.2392C141.543 34.313 141.444 36.16 138.99 38.1054C136.76 39.8538 132.051 42.0455 122.312 42.3902C122.039 42.3902 121.271 42.4149 120.28 42.4149Z" fill="black"/>
<path d="M20.5878 32.1225L20.2613 32.2991L25.842 42.4863L26.1685 42.3097L20.5878 32.1225Z" fill="black"/>
<path d="M48.8317 43.597H44.8665L32.8469 37.8346C32.5743 37.7115 32.3513 37.4653 32.2274 37.1697C32.0539 36.7511 31.9795 36.4063 32.0291 36.1108L32.4009 36.1847C32.3513 36.4063 32.4256 36.7019 32.5743 37.022C32.6735 37.219 32.8222 37.3914 33.0204 37.4899L44.9656 43.2277H48.8317V43.597Z" fill="black"/>
<path d="M45.6341 52.0682C45.0889 51.5757 39.2897 49.5071 35.5228 48.2512L35.6467 47.9064C36.6132 48.2266 45.1384 51.0832 45.9067 51.7973L45.6341 52.0682Z" fill="black"/>
<path d="M49.1783 53.4719C49.1287 53.4719 49.0792 53.4719 49.0296 53.4473L45.2131 51.822C45.114 51.7727 45.0644 51.6742 45.114 51.5757C45.1635 51.4772 45.2627 51.428 45.3618 51.4772L49.1535 53.0779C49.1783 53.0779 49.2031 53.0779 49.2279 53.0532V53.0286C48.98 52.807 48.5587 52.3391 48.1127 51.822C47.4931 51.1324 46.7992 50.3444 46.4522 50.1474C46.3779 50.0982 46.2292 49.9997 46.3035 49.8519C46.3779 49.7534 46.4274 49.7288 46.5761 49.8027C46.6505 49.8273 46.7496 49.8765 46.8735 49.9504C47.6418 50.3691 49.6987 51.5265 50.69 51.8466C50.7644 51.8712 50.814 51.8466 50.8635 51.7727C50.9131 51.6496 50.9131 51.5018 50.814 51.4033L48.7818 49.2609C48.6827 49.1624 48.6827 49.0146 48.757 48.8915C48.8313 48.7684 48.98 48.7191 49.104 48.7684L51.4583 49.3102C51.5327 49.3348 51.607 49.3102 51.6566 49.2855C51.6566 49.2855 51.6566 49.2609 51.607 49.1624L51.0866 48.4483C51.037 48.3744 50.9627 48.3251 50.9131 48.2513L47.2948 45.3454C47.2205 45.2715 47.1957 45.173 47.27 45.0745C47.3444 45.0007 47.4435 44.976 47.5427 45.0499L51.1609 47.9557C51.26 48.0296 51.3344 48.1281 51.4087 48.2266L51.9292 48.9408C51.9292 48.9408 51.9292 48.9654 51.954 48.9654C52.1522 49.3348 52.0035 49.5072 51.8548 49.581C51.7061 49.6549 51.5327 49.6795 51.384 49.6549L49.2031 49.1378L51.0866 51.1078C51.2848 51.3295 51.3344 51.625 51.2105 51.8958C51.1113 52.1175 50.8387 52.2406 50.5909 52.1667C49.897 51.9205 48.6579 51.3048 47.7161 50.7877C47.9392 51.0339 48.1622 51.2802 48.41 51.5511C48.8561 52.0436 49.2527 52.5115 49.4757 52.6839C49.5748 52.7577 49.6244 52.8809 49.6244 53.004C49.6244 53.1271 49.55 53.2502 49.4509 53.2995C49.3766 53.4473 49.2774 53.4719 49.1783 53.4719Z" fill="black"/>
<path d="M181.443 110.997H0.431152V111.367H181.443V110.997Z" fill="black"/>
<path d="M50.7891 31.2103C46.9478 31.2103 41.0496 30.8162 40.1326 30.7424L40.1574 30.373C43.6022 30.6192 52.7965 31.1118 53.7878 30.6192L53.9613 30.9394C53.5895 31.1364 52.3752 31.2103 50.7891 31.2103Z" fill="black"/>
<path d="M52.7716 23.1085L39.5872 22.5421L39.612 22.1727L52.5981 22.7391C53.3911 21.6063 60.8507 11.165 64.6424 11.0173L64.6672 11.3867C60.925 11.5344 52.9203 22.9115 52.8459 23.0346L52.7716 23.1085Z" fill="black"/>
<path d="M65.7084 19.0699C65.6589 19.0699 65.6093 19.0453 65.5845 19.0206C65.4111 18.8483 65.2624 18.6266 65.188 18.3804L64.8906 17.4692C64.7915 17.1491 64.7171 16.829 64.6924 16.4842L64.618 16.9521C64.5932 17.3215 64.4445 18.602 63.9984 18.8729C63.8498 18.9714 63.6019 18.8729 63.5028 18.799L63.478 18.7744C63.4284 18.7005 63.3789 18.5035 63.3293 18.3557C63.1806 17.9125 63.0815 17.4446 63.0567 16.9767L62.9328 15.2283C62.9328 15.1298 63.0071 15.0313 63.1063 15.0313C63.2054 15.0313 63.3045 15.1052 63.3045 15.2037L63.4285 16.9521C63.4532 17.3953 63.5524 17.814 63.7011 18.2326C63.7258 18.3557 63.7754 18.4789 63.8002 18.5281C63.825 18.5281 63.8497 18.5281 63.8497 18.5527C64.048 18.405 64.2215 17.5923 64.2711 16.9275L64.6924 14.3171C64.7171 14.2186 64.7915 14.1694 64.8906 14.1694C64.9897 14.1694 65.0641 14.2679 65.0641 14.3418V16.0902C65.0641 16.5334 65.1384 16.9521 65.2624 17.3707L65.5597 18.2819C65.6093 18.405 65.6837 18.5527 65.758 18.6512C65.8324 18.5035 65.9315 18.1834 66.0058 17.8879C66.0058 17.8632 66.0058 17.8632 66.0306 17.8386C66.1793 17.4938 66.2784 17.1245 66.328 16.7551L66.6006 13.8739C66.6006 13.7507 66.6997 13.6769 66.8237 13.6769C66.9476 13.6769 67.0467 13.7754 67.0467 13.8739L67.3441 17.4692C67.468 17.3953 67.5671 17.2722 67.6167 17.1245L68.1371 14.785L68.4345 13.0366C68.4841 12.7903 68.5089 12.5195 68.5089 12.2732V11.9777C68.5089 11.7314 68.3602 11.5098 68.1124 11.4359C67.3937 11.2143 66.0058 10.8942 64.9897 11.3621C64.8906 11.4113 64.7915 11.3621 64.7419 11.2636C64.6924 11.1651 64.7419 11.0665 64.8411 11.0173C65.981 10.5002 67.468 10.8203 68.2363 11.0666C68.6328 11.1897 68.9054 11.5591 68.9054 11.9531V12.2486C68.9054 12.5195 68.8806 12.815 68.831 13.0859L68.5089 14.8589L67.9637 17.1983C67.8893 17.5185 67.6167 17.7894 67.2945 17.8632C67.2202 17.8879 67.1458 17.8632 67.0715 17.814C67.0219 17.7647 66.9724 17.6908 66.9724 17.617L66.7989 15.5484L66.6997 16.7797C66.6502 17.1983 66.5511 17.5923 66.3776 17.9617C66.3032 18.3557 66.1297 19.0206 65.7828 19.0699C65.7332 19.0699 65.7332 19.0699 65.7084 19.0699Z" fill="black"/>
<path d="M43.6767 110.825C42.4871 109.889 41.248 109.027 39.8602 108.436C39.0919 108.116 38.8936 107.722 38.9928 106.934C39.3149 104.742 39.5875 102.526 39.8602 100.334C41.248 89.1791 42.6358 78.0236 41.1241 66.7451C40.2815 60.5394 39.2902 54.383 36.0932 48.8176C35.8702 48.4482 35.7462 48.2512 35.3497 48.2758C34.8789 48.2758 34.2841 48.399 34.1106 47.8326C33.9867 47.414 34.4576 47.2908 34.7797 47.1431C32.7723 44.6066 30.195 43.0306 26.9484 42.6119C27.4193 44.5327 29.1789 44.976 30.6163 45.8379C30.8641 45.9857 31.4589 45.9118 31.2358 46.4782C31.0376 46.9953 30.641 46.7244 30.3437 46.5767C28.6832 45.6902 26.6015 45.2469 26.2297 42.9321C25.3128 42.2179 24.2719 42.4642 23.2806 42.7105C19.3154 43.6709 16.9858 46.3304 15.6724 49.9996C13.5906 55.762 13.0454 61.82 12.4011 67.8532C11.8806 72.7045 12.1532 77.605 11.2611 82.407C10.6167 85.9531 9.82369 89.4746 9.10499 92.996C7.86587 99.0539 6.62674 105.112 5.41239 111.071C11.2611 111.071 17.2585 111.071 23.4541 111.071C23.1071 110.579 22.9832 110.185 22.7106 110.037C19.018 107.993 19.935 105.063 21.0998 102.058C21.1989 101.787 21.2485 101.492 21.3228 101.196C23.2806 93.39 25.635 85.6576 26.0811 77.5557C26.2545 74.4775 26.4032 71.424 26.5519 68.3458C27.2954 74.2559 29.1789 80.0183 28.0389 86.0516C27.4937 88.9328 27.2954 91.8879 26.8989 94.8183C26.2297 99.9405 25.5606 105.063 24.8171 110.16C24.6684 111.219 25.065 111.244 25.8332 111.244C31.781 111.219 37.7041 111.219 43.6519 111.194C43.7015 111.071 43.7015 110.948 43.6767 110.825ZM33.1441 47.4386C33.0697 47.3154 32.9954 47.2169 32.9458 47.0938C33.045 47.0446 33.1441 46.9707 33.2184 46.9953C33.2928 47.0199 33.3176 47.1431 33.3671 47.2416C33.2928 47.3154 33.2184 47.3893 33.1441 47.4386Z" fill="black"/>
<path d="M142.485 14.3171C142.69 14.3171 142.857 14.1296 142.857 13.8984C142.857 13.6672 142.69 13.4798 142.485 13.4798C142.28 13.4798 142.113 13.6672 142.113 13.8984C142.113 14.1296 142.28 14.3171 142.485 14.3171Z" fill="black"/>
<path d="M140.13 14.5388C140.322 14.5388 140.477 14.3623 140.477 14.1447C140.477 13.9271 140.322 13.7507 140.13 13.7507C139.939 13.7507 139.783 13.9271 139.783 14.1447C139.783 14.3623 139.939 14.5388 140.13 14.5388Z" fill="black"/>
<path d="M141.369 16.3118C141.27 16.3118 141.097 16.2872 140.923 16.0655C140.7 15.7947 140.849 14.8343 140.923 14.4402C140.948 14.3417 141.047 14.2679 141.146 14.2925C141.246 14.3171 141.32 14.4156 141.295 14.5141C141.196 15.1051 141.146 15.7454 141.221 15.8439C141.295 15.9424 141.369 15.9424 141.369 15.9424C141.469 15.9178 141.568 15.9917 141.593 16.0902C141.617 16.1887 141.543 16.2872 141.444 16.3118C141.419 16.3118 141.394 16.3118 141.369 16.3118Z" fill="black"/>
<path d="M39.4387 14.6618C39.6988 14.6618 39.9096 14.4303 39.9096 14.1447C39.9096 13.8591 39.6988 13.6276 39.4387 13.6276C39.1787 13.6276 38.9679 13.8591 38.9679 14.1447C38.9679 14.4303 39.1787 14.6618 39.4387 14.6618Z" fill="black"/>
<path d="M41.7931 14.7358C41.9573 14.7358 42.0905 14.5814 42.0905 14.391C42.0905 14.2006 41.9573 14.0463 41.7931 14.0463C41.6288 14.0463 41.4957 14.2006 41.4957 14.391C41.4957 14.5814 41.6288 14.7358 41.7931 14.7358Z" fill="black"/>
<path d="M40.7272 16.6072C40.6281 16.6072 40.5537 16.5333 40.5537 16.4348C40.5537 16.3363 40.6281 16.2378 40.7272 16.2378C40.7272 16.2378 40.7768 16.2132 40.8511 16.0901C40.9007 15.9669 40.7024 15.3759 40.4546 14.8095C40.405 14.711 40.4546 14.6125 40.5537 14.5633C40.6528 14.514 40.752 14.5633 40.8015 14.6618C40.975 15.0312 41.3468 15.9177 41.1981 16.2378C41.0246 16.5826 40.7768 16.6072 40.7272 16.6072Z" fill="black"/>
</svg>
