<svg width="50" height="50" viewBox="0 0 50 50" fill="none" xmlns="http://www.w3.org/2000/svg">
<circle cx="25" cy="25" r="24" fill="#117BB8"/>
<path d="M20.3812 18.9299H15.4712V34.7799H20.3812V18.9299Z" fill="white"/>
<path d="M17.9005 16.85C19.5005 16.85 20.8005 15.54 20.8005 13.92C20.8005 12.3 19.5105 11 17.9005 11C16.3005 11 15.0005 12.31 15.0005 13.93C15.0005 15.55 16.3005 16.85 17.9005 16.85Z" fill="white"/>
<path d="M28.22 26.4597C28.22 24.2297 29.25 22.8997 31.21 22.8997C33.01 22.8997 33.88 24.1697 33.88 26.4597C33.88 28.7397 33.88 34.7797 33.88 34.7797H38.76C38.76 34.7797 38.76 28.9897 38.76 24.7397C38.76 20.4897 36.35 18.4397 32.99 18.4397C29.63 18.4397 28.21 21.0597 28.21 21.0597V18.9297H23.52V34.7797H28.23C28.22 34.7797 28.22 28.8997 28.22 26.4597Z" fill="white"/>
</svg>
