<svg width="48" height="48" viewBox="0 0 48 48" fill="none" xmlns="http://www.w3.org/2000/svg">
<circle cx="24" cy="24" r="24" fill="#117BB8"/>
<path d="M19.3802 17.9299H14.4702V33.7799H19.3802V17.9299Z" fill="white"/>
<path d="M16.9 15.85C18.5 15.85 19.8 14.54 19.8 12.92C19.8 11.3 18.51 10 16.9 10C15.3 10 14 11.31 14 12.93C14 14.55 15.3 15.85 16.9 15.85Z" fill="white"/>
<path d="M27.22 25.4599C27.22 23.2299 28.25 21.8999 30.21 21.8999C32.01 21.8999 32.88 23.1699 32.88 25.4599C32.88 27.7399 32.88 33.7799 32.88 33.7799H37.76C37.76 33.7799 37.76 27.9899 37.76 23.7399C37.76 19.4899 35.35 17.4399 31.99 17.4399C28.63 17.4399 27.21 20.0599 27.21 20.0599V17.9299H22.52V33.7799H27.23C27.22 33.7799 27.22 27.8999 27.22 25.4599Z" fill="white"/>
</svg>
