<svg xmlns="http://www.w3.org/2000/svg" width="40" height="41" fill="none"><g clip-path="url(#A)" fill="#fff" stroke="#fff" stroke-width=".3"><path d="M13.123 27.95l4.382 5.738.45.55h-3.3a.67.67 0 0 0-.667.667.67.67 0 0 0 .667.667h10.667c.368 0 .667-.298.667-.667s-.298-.667-.667-.667h-3.3l.452-.55 4.38-5.738a58.58 58.58 0 0 0 4.404-7.098c1.36-2.673 2.052-4.893 2.052-6.597.005-3.54-1.4-6.938-3.905-9.44-.167-.173-.415-.243-.648-.182s-.415.243-.476.476a.67.67 0 0 0 .18.648 11.99 11.99 0 0 1 3.515 8.5c0 1.492-.64 3.508-1.907 6a57.21 57.21 0 0 1-4.304 6.933 107.93 107.93 0 0 1-4.327 5.667L20.508 34c-.128.146-.313.23-.508.23s-.38-.084-.508-.23l-.955-1.155a107.89 107.89 0 0 1-4.327-5.667c-1.598-2.206-3.036-4.523-4.304-6.933C8.64 17.762 8 15.746 8 14.254c0-4.83 2.887-9.2 7.333-11.074 2.987-1.253 6.353-1.253 9.34 0 .22.093.472.062.662-.082s.3-.377.26-.614-.182-.44-.4-.532c-6.8-2.863-14.614.317-17.48 7.105a13.31 13.31 0 0 0-1.048 5.197c0 1.704.7 3.923 2.052 6.6 1.297 2.467 2.77 4.838 4.404 7.095zM20 8.236c.368 0 .667-.298.667-.667s-.298-.667-.667-.667a6.67 6.67 0 0 0-6.54 5.366c-.622 3.12 1.05 6.243 3.987 7.46a6.67 6.67 0 0 0 7.265-10.873c-.167-.173-.415-.243-.648-.182s-.415.243-.476.476a.67.67 0 0 0 .182.648c1.8 1.8 2.077 4.62.664 6.734s-4.125 2.938-6.475 1.965-3.686-3.472-3.2-5.968S17.456 8.236 20 8.236zm19.75 29.047l-4.1-7.333a2.07 2.07 0 0 0-1.814-1.047h-4.75a.67.67 0 0 0-.667.667.67.67 0 0 0 .667.667h4.75a.74.74 0 0 1 .651.364l4.1 7.333a.6.6 0 0 1-.006.616.73.73 0 0 1-.645.353H2.067c-.263.006-.5-.13-.645-.353a.6.6 0 0 1-.006-.616l4.1-7.333a.74.74 0 0 1 .651-.364h4.75c.368 0 .667-.298.667-.667s-.298-.667-.667-.667h-4.75c-.75-.005-1.444.396-1.815 1.047l-4.1 7.333c-.342.604-.334 1.344.02 1.94a2.06 2.06 0 0 0 1.795 1.012h35.867c.736.01 1.42-.377 1.795-1.012a1.93 1.93 0 0 0 .02-1.94zm-7.083-5.047H30a.67.67 0 0 0-.37.112l-2 1.333c-.306.204-.4.618-.185.925s.618.4.925.185l1.83-1.22h2.467c.368 0 .667-.298.667-.667s-.298-.667-.667-.667zm-4 4.667c0 .368.298.667.667.667h5.333c.368 0 .667-.298.667-.667s-.298-.667-.667-.667h-5.333a.67.67 0 0 0-.667.667zm-16.667-2a.67.67 0 0 0 .64-.473c.087-.28-.023-.585-.268-.748l-2-1.333a.67.67 0 0 0-.371-.112H7.334a.67.67 0 0 0-.667.667.67.67 0 0 0 .667.667H9.8l1.832 1.22c.1.073.237.112.368.112zm-6.666 1.333a.67.67 0 0 0-.667.667.67.67 0 0 0 .667.667h5.333c.368 0 .667-.298.667-.667a.67.67 0 0 0-.667-.667H5.334z"/></g><defs><clipPath id="A"><path fill="#fff" transform="translate(0 .568)" d="M0 0h40v40H0z"/></clipPath></defs></svg>