<svg width="112" height="55" viewBox="0 0 112 55" fill="none" xmlns="http://www.w3.org/2000/svg">
<g clip-path="url(#clip0)">
<path d="M-8.5365e-06 28.9457C0.133053 27.8694 0.213841 26.7811 0.411057 25.7142C0.981322 22.611 1.59673 19.515 2.20264 16.4189C2.25254 16.1647 2.35709 15.9199 2.445 15.6728C2.89884 14.4135 3.26951 14.1545 4.61914 14.1474C6.71486 14.1355 6.92395 14.2662 6.79089 16.3619C6.67209 18.2485 6.33231 20.1209 6.10182 22.0004C6.06856 22.2618 6.09707 22.5326 6.09707 22.7988C6.15172 22.8178 6.204 22.8368 6.25865 22.8534C6.37983 22.6704 6.50814 22.4922 6.62219 22.3069C7.86489 20.2825 9.08621 18.2414 10.3646 16.2383C10.7233 15.6776 11.2223 15.1905 11.7142 14.7343C12.4413 14.0594 13.3371 14.0072 14.24 14.2804C15.1096 14.5442 15.4755 15.1168 15.5136 16.0482C15.5967 18.0656 14.929 19.9569 14.537 21.8958C14.4776 22.1905 14.4728 22.4946 14.4419 22.794C14.5156 22.813 14.5869 22.8344 14.6605 22.8534C14.7889 22.6681 14.9219 22.4875 15.0455 22.2998C16.5305 20.0401 17.9895 17.7638 19.5102 15.5279C20.1185 14.6321 20.9287 14.0143 22.15 14.1497C23.4189 14.2899 24.2267 15.0123 24.1341 16.2787C23.9606 18.6216 23.6517 20.9525 23.4474 23.293C23.3238 24.6996 23.2573 26.1158 23.2383 27.5296C23.2288 28.2424 23.2929 29.0907 24.0224 29.421C24.7542 29.7512 25.4671 29.2594 26.092 28.8697C26.2749 28.7556 26.3866 28.3992 26.389 28.1521C26.4341 24.2767 27.2824 20.5985 29.0098 17.1175C29.6585 15.8106 30.6541 15.0503 32.1059 14.9125C33.6694 14.7628 34.463 15.7394 34.0092 17.2363C33.648 18.4243 33.2274 19.5981 32.9209 20.7981C32.3102 23.1861 31.8208 25.6002 31.8992 28.0856C31.9111 28.4943 31.9681 28.9172 32.0916 29.3045C32.5146 30.6161 33.8072 30.9464 34.8337 30.0055C35.7461 29.1691 36.3045 28.0903 36.6229 26.9284C37.205 24.8089 37.6874 22.6609 38.2101 20.5248C38.4026 19.7407 38.5689 18.9518 38.7804 18.1749C39.2532 16.4427 41.0852 15.1311 42.8815 15.219C43.9484 15.2713 44.3927 15.8011 44.2169 16.8419C43.0431 23.8656 41.8978 30.8941 40.6741 37.9108C39.9993 41.7862 39.0061 45.5808 36.9793 49.0214C35.6986 51.1956 34.0543 52.9871 31.6259 53.921C29.9627 54.5625 28.2471 54.629 26.5244 54.256C24.5142 53.8188 23.3309 51.8561 23.6945 49.6677C23.9701 48.014 24.7827 46.5931 25.6999 45.2315C28.0071 41.8028 30.9083 38.904 33.9806 36.1667C34.4535 35.7461 34.9073 35.2947 35.4277 34.9383C36.2736 34.3585 36.2926 33.4532 36.6039 32.4362C36.1144 32.7974 35.796 33.054 35.4586 33.2821C33.8666 34.3561 32.1796 35.126 30.2311 34.3965C29.4946 34.1209 28.7746 33.6718 28.1996 33.1396C27.6887 32.6667 27.3917 32.662 26.8333 33.0303C25.2912 34.0448 23.6018 34.6436 21.7104 34.6032C20.9287 34.5866 20.2777 34.3276 19.9783 33.648C19.5862 32.7641 19.1395 31.8161 19.1015 30.8799C18.9993 28.4064 19.1015 25.9257 19.13 23.4474C19.1347 23.0554 19.1799 22.6657 19.1941 22.2736C19.1965 22.2214 19.1395 22.1643 19.0445 21.9837C18.8805 22.2879 18.7308 22.5041 18.6381 22.7417C17.3384 26.0255 16.0529 29.314 14.7508 32.5978C14.2043 33.9783 13.3394 34.57 11.9043 34.589C10.9016 34.6032 10.298 34.2825 10.0485 33.2869C9.79904 32.2889 9.6042 31.2149 9.69687 30.2027C9.92497 27.7339 10.336 25.2818 10.6711 22.8225C10.6996 22.6205 10.7091 22.4186 10.7281 22.2142C10.6592 22.181 10.5879 22.1477 10.519 22.1144C10.3432 22.3544 10.1246 22.5754 9.99626 22.8391C8.79632 25.2865 7.6154 27.7434 6.4226 30.1932C5.92599 31.2125 5.41275 32.2248 4.91852 33.2441C4.38628 34.3442 3.48098 34.6959 2.32144 34.5795C1.23557 34.4702 0.65342 33.7882 0.361159 32.8212C0.199584 32.2842 0.114044 31.721 -0.00476074 31.1698C-8.5365e-06 30.4284 -8.5365e-06 29.6871 -8.5365e-06 28.9457ZM35.2922 40.3558C35.24 40.3296 35.1877 40.3011 35.133 40.275C35.0261 40.3415 34.9097 40.3985 34.8123 40.4746C32.1962 42.5085 30.0292 44.9369 28.4206 47.8334C28.1592 48.3015 27.9762 48.8337 27.8669 49.3588C27.7267 50.0241 28.0855 50.4114 28.7722 50.3877C29.1358 50.3758 29.573 50.352 29.8415 50.1525C30.6185 49.5751 31.4453 48.9977 32.0417 48.2539C33.3391 46.6334 34.0543 44.6993 34.6578 42.7319C34.8931 41.9478 35.0808 41.147 35.2922 40.3558Z" fill="white"/>
<path d="M49.5608 23.4425C48.4226 21.8458 47.705 20.173 47.2963 18.3766C45.2695 9.48052 51.4474 0.959817 60.5479 0.0687787C68.7193 -0.731968 76.1684 5.55995 76.8408 13.6862C77.4871 21.4751 71.9247 28.7412 63.7723 29.8057C61.1918 30.1431 58.6707 29.8057 56.24 28.8339C55.7077 28.6224 55.4891 28.3682 55.627 27.7623C55.9026 26.5528 56.0951 25.3244 56.3374 24.1078C56.3873 23.8607 56.5085 23.6302 56.6202 23.3261C56.8744 23.4568 57.0645 23.5542 57.2522 23.654C61.0587 25.6689 65.6256 25.0511 68.7502 22.0976C72.6019 18.4574 72.7349 12.099 69.0377 8.30435C66.1056 5.29621 61.8238 4.44081 57.9888 6.1017C54.2773 7.70795 51.9321 11.4741 52.1412 15.5752C52.1816 16.3498 52.424 17.1126 52.5356 17.8872C52.5713 18.1438 52.5855 18.4978 52.443 18.6689C51.3143 20.0257 50.4399 21.5226 49.7746 23.1502C49.7461 23.2239 49.6796 23.2833 49.5608 23.4425Z" fill="white"/>
<path d="M87.7614 11.6714C88.3744 11.6714 88.9352 11.6643 89.5458 11.6738C90.349 11.6881 90.5985 11.8805 90.7339 12.6789C91.1378 15.0621 91.5228 17.4477 91.9101 19.8333C92.6776 24.5618 93.4403 29.2902 94.2006 34.0187C94.2387 34.2539 94.2695 34.4939 94.2719 34.7315C94.2814 35.2923 93.9868 35.5893 93.4332 35.5964C92.4922 35.6083 91.5513 35.6059 90.6127 35.5964C90.0448 35.5917 89.7336 35.2899 89.6338 34.7363C89.4366 33.6433 89.2084 32.555 89.0279 31.4596C88.9471 30.9606 88.7285 30.7682 88.2057 30.7706C85.2308 30.7896 82.2583 30.7872 79.2835 30.7729C78.8605 30.7706 78.5968 30.9226 78.3853 31.2838C77.7105 32.4291 76.9953 33.553 76.3276 34.703C75.9617 35.3327 75.4722 35.6439 74.7261 35.6107C73.9182 35.575 73.108 35.6059 72.3001 35.6012C71.1999 35.5964 70.9695 35.1854 71.535 34.2159C72.6446 32.3126 73.7614 30.4165 74.8758 28.5156C77.9196 23.3262 80.9752 18.1416 83.9976 12.9379C84.5109 12.0564 85.112 11.6524 86.2003 11.6548C86.7017 11.6643 87.2577 11.6714 87.7614 11.6714ZM80.7875 26.7692C81.0038 26.8215 81.0655 26.85 81.1273 26.85C83.4012 26.8547 85.6752 26.8476 87.9467 26.8619C88.517 26.8666 88.517 26.5672 88.4481 26.1419C88.056 23.6921 87.6782 21.24 87.2909 18.7902C87.1721 18.0346 87.0391 17.2814 86.9131 16.5258C86.8537 16.5187 86.7943 16.5139 86.7349 16.5068C84.7675 19.907 82.7977 23.3048 80.7875 26.7692Z" fill="white"/>
<path d="M99.1904 15.8772C98.2424 15.8772 97.3941 15.8772 96.5458 15.8772C95.4528 15.8772 94.3598 15.8819 93.2644 15.8748C92.3235 15.8701 92.1215 15.6301 92.2997 14.7319C92.4352 14.0476 92.5753 13.3657 92.7322 12.6861C92.9056 11.9281 93.1955 11.6762 93.9511 11.6762C99.6799 11.6691 105.411 11.6691 111.14 11.6762C111.862 11.6762 112.093 11.9495 111.964 12.6576C111.829 13.406 111.66 14.1521 111.482 14.8911C111.304 15.6348 111.009 15.8677 110.237 15.8701C108.467 15.8796 106.694 15.8938 104.924 15.8629C104.332 15.8534 104.09 16.0435 103.964 16.6352C102.724 22.516 101.452 28.3898 100.186 34.2659C99.9318 35.4444 99.7227 35.6012 98.4895 35.6036C97.7457 35.6036 97.002 35.6084 96.2583 35.6012C95.3055 35.5917 95.0774 35.3185 95.2746 34.3965C96.0064 30.9678 96.7478 27.5415 97.4844 24.1128C98.0237 21.6012 98.5631 19.0873 99.1001 16.5758C99.1405 16.3904 99.15 16.198 99.1904 15.8772Z" fill="white"/>
<path d="M51.6446 36.2664C50.9223 36.2664 50.2023 36.2593 49.48 36.2688C48.9073 36.2759 48.7077 36.0003 48.7624 35.4467C49.2139 30.9915 50.0336 26.6171 51.6232 22.409C52.6758 19.6218 54.1609 17.1127 56.2637 14.9766C57.1975 14.0285 58.0957 13.0448 59.0271 12.0967C59.241 11.8781 59.4311 11.4504 59.8754 11.8021C60.2865 12.13 60.0085 12.4317 59.835 12.7145C58.1789 15.4233 56.9005 18.3055 55.7957 21.2709C54.8809 23.7277 54.4436 26.2797 54.3795 28.8768C54.3248 31.0699 54.446 33.2702 54.5292 35.4657C54.5506 36.0336 54.3795 36.2807 53.8069 36.2688C53.0893 36.2546 52.3669 36.2664 51.6446 36.2664Z" fill="white"/>
</g>
<defs>
<clipPath id="clip0">
<rect width="112" height="54.4888" fill="white"/>
</clipPath>
</defs>
</svg>
