<svg width="25" height="25" viewBox="0 0 25 25" fill="none" xmlns="http://www.w3.org/2000/svg">
<path d="M19.2469 5.68703L23.0607 1.90966C23.2226 1.7493 23.4904 1.77565 23.618 1.96451L24.4978 3.26699C24.6189 3.44641 24.5575 3.69127 24.366 3.79228L19.6725 6.26715C19.5932 6.30895 19.5013 6.32001 19.4144 6.29821C19.3275 6.27641 19.2517 6.22329 19.2015 6.14903C19.154 6.07881 19.1326 5.9942 19.1409 5.90984C19.1491 5.82548 19.1866 5.74667 19.2469 5.68703ZM19.8776 8.93088C19.8919 9.00075 19.9315 9.06288 19.9888 9.10535C20.046 9.14782 20.117 9.16762 20.188 9.16097L24.3918 8.76853C24.4323 8.76476 24.4715 8.75249 24.5069 8.73254C24.5423 8.71259 24.5732 8.6854 24.5974 8.65274C24.6216 8.62007 24.6386 8.58268 24.6474 8.54298C24.6562 8.50329 24.6565 8.46219 24.6484 8.42236L24.3976 7.19706C24.3612 7.01942 24.1723 6.91857 24.0045 6.98728L20.0515 8.60497C19.9891 8.63052 19.9376 8.67706 19.9058 8.73657C19.874 8.79608 19.8641 8.8648 19.8776 8.93088ZM16.7388 4.47005C16.7984 4.50934 16.8703 4.52528 16.9408 4.5148C17.0113 4.50432 17.0755 4.46817 17.121 4.41328L19.816 1.16328C19.842 1.13198 19.861 1.09557 19.872 1.05641C19.8829 1.01725 19.8855 0.976233 19.8795 0.93602C19.8735 0.895806 19.8592 0.857302 19.8373 0.823015C19.8155 0.788728 19.7866 0.759428 19.7527 0.737023L18.709 0.0479726C18.5577 -0.0519141 18.3528 0.0103437 18.2827 0.177617L16.6314 4.11667C16.6053 4.17886 16.6018 4.24821 16.6214 4.31274C16.641 4.37726 16.6826 4.4329 16.7388 4.47005Z" fill="white"/>
<path d="M10.4433 24.1635L9.63142 24.6383C8.97146 25.0242 8.12362 24.8021 7.73768 24.1422L5.58507 20.4612C5.19913 19.8012 5.42124 18.9534 6.0812 18.5674L6.89309 18.0926C7.55304 17.7067 8.40089 17.9288 8.78682 18.5888L10.9394 22.2697C11.3254 22.9297 11.1033 23.7775 10.4433 24.1635Z" fill="white"/>
<path d="M5.46675 20.5512L13.3333 16.2683L7.95569 7.84839L0.844738 13.1313C0.798883 13.1606 -1.12309 14.9192 0.987637 18.2241C3.09836 21.529 5.46675 20.5512 5.46675 20.5512Z" fill="white"/>
<path d="M17.7623 7.52732C20.1152 11.2114 21.5407 15.2025 20.5564 15.8312C19.572 16.4598 16.5505 13.4881 14.1975 9.804C11.8446 6.11987 10.4191 2.12887 11.4034 1.50014C12.3878 0.871421 15.4093 3.84319 17.7623 7.52732Z" fill="#EBC15A"/>
<path d="M16.6546 12.6392C17.47 12.1184 17.2364 10.2953 16.1327 8.56731C15.029 6.83931 13.4732 5.86074 12.6577 6.3816C11.8422 6.90246 12.0759 8.72552 13.1796 10.4535C14.2833 12.1815 15.8391 13.1601 16.6546 12.6392Z" fill="#565656"/>
<path d="M20.5134 15.8585C19.6535 16.4076 16.733 13.3714 14.3801 9.6873C12.0271 6.00317 10.5006 2.07661 11.3605 1.52746C11.41 1.49583 11.4655 1.47496 11.5262 1.46343C11.1206 1.45413 10.7232 1.66569 10.488 2.11541C9.45165 4.0973 6.80681 8.49445 6.80681 8.49445C6.80681 8.49445 5.49437 10.2616 7.80151 13.874C10.1087 17.4863 12.3361 17.0342 12.3361 17.0342C12.3361 17.0342 17.3961 16.5173 19.6193 16.4111C20.1457 16.386 20.5123 16.0938 20.6646 15.6995C20.6241 15.766 20.5741 15.8197 20.5134 15.8585Z" fill="#FFD469"/>
<path d="M2.03824 15.4462C1.91799 15.4464 1.79965 15.4162 1.69417 15.3585C1.58869 15.3007 1.49948 15.2173 1.43481 15.1159C1.22219 14.783 1.31969 14.3408 1.65261 14.1282L4.5934 12.25C4.92627 12.0374 5.36853 12.1349 5.58115 12.4678C5.79377 12.8007 5.69627 13.2429 5.36335 13.4555L2.42256 15.3337C2.30786 15.4072 2.17448 15.4463 2.03824 15.4462Z" fill="#D1D1D1"/>
</svg>
