<svg width="6" height="24" viewBox="0 0 6 24" fill="none" xmlns="http://www.w3.org/2000/svg">
<path d="M3.10608 10C1.94292 10 0.999996 10.9429 0.999996 12.1061C0.999996 13.2692 1.94292 14.2122 3.10608 14.2122C4.26923 14.2122 5.21216 13.2692 5.21216 12.1061C5.21216 10.9429 4.26923 10 3.10608 10Z" fill="#666666"/>
<path d="M3.10608 17.6443C1.94292 17.6443 0.999996 18.5872 0.999996 19.7503C0.999996 20.9135 1.94292 21.8564 3.10608 21.8564C4.26923 21.8564 5.21216 20.9135 5.21216 19.7503C5.21216 18.5872 4.26923 17.6443 3.10608 17.6443Z" fill="#666666"/>
<path d="M3.10608 2.35574C1.94292 2.35574 0.999996 3.29866 0.999996 4.46182C0.999996 5.62498 1.94292 6.5679 3.10608 6.5679C4.26923 6.5679 5.21216 5.62498 5.21216 4.46182C5.21216 3.29866 4.26923 2.35574 3.10608 2.35574Z" fill="#666666"/>
</svg>
