<svg width="24" height="24" viewBox="0 0 24 24" fill="none" xmlns="http://www.w3.org/2000/svg">
<path d="M13.8569 12.1061C13.8569 10.9429 12.914 10 11.7508 10C10.5877 10 9.64474 10.9429 9.64474 12.1061C9.64474 13.2692 10.5877 14.2122 11.7508 14.2122C12.914 14.2122 13.8569 13.2692 13.8569 12.1061Z" fill="#666666"/>
<path d="M6.21265 12.1061C6.21265 10.9429 5.26973 10 4.10657 10C2.94341 10 2.00049 10.9429 2.00049 12.1061C2.00049 13.2692 2.94341 14.2122 4.10657 14.2122C5.26973 14.2122 6.21265 13.2692 6.21265 12.1061Z" fill="#666666"/>
<path d="M21.5012 12.1061C21.5012 10.9429 20.5582 10 19.3951 10C18.2319 10 17.289 10.9429 17.289 12.1061C17.289 13.2692 18.2319 14.2122 19.3951 14.2122C20.5582 14.2122 21.5012 13.2692 21.5012 12.1061Z" fill="#666666"/>
</svg>
