<svg width="24" height="24" viewBox="0 0 24 24" fill="none" xmlns="http://www.w3.org/2000/svg">
<path d="M22 7.97482C21.9984 9.16726 21.59 10.3195 20.8491 11.2218C20.1082 12.1241 19.084 12.7165 17.963 12.8912C17.8623 13.5479 17.9023 14.2199 18.0802 14.8582C18.1007 14.9322 18.1003 15.0108 18.0792 15.0846C18.058 15.1584 18.017 15.2241 17.961 15.2738C17.9051 15.3235 17.8366 15.3551 17.764 15.3646C17.6913 15.3742 17.6176 15.3614 17.5517 15.3278C16.8283 14.9526 16.1776 14.4389 15.6329 13.813C15.6329 13.7395 15.6329 13.6659 15.6329 13.5966C15.6313 11.9514 15.0097 10.374 13.9044 9.21018C12.7991 8.0464 11.3004 7.39126 9.73676 7.3884H9.57224C9.70898 6.18032 10.2615 5.06679 11.1255 4.25821C11.9894 3.44964 13.1049 3.00204 14.2612 3H17.2699C18.5241 3 19.7269 3.52406 20.6139 4.45696C21.5009 5.38986 21.9995 6.65522 22 7.97482ZM14.4833 13.601C14.4833 14.921 13.9849 16.1869 13.0979 17.1202C12.2108 18.0536 11.0077 18.578 9.75321 18.578H8.95733C8.36093 19.7703 7.24833 20.5406 6.46067 20.9583C6.39454 20.9928 6.32028 21.0063 6.24696 20.9972C6.17363 20.9881 6.10441 20.9568 6.04773 20.907C5.99104 20.8572 5.94935 20.7912 5.92773 20.7169C5.90611 20.6426 5.9055 20.5633 5.92597 20.4887C6.09937 19.8524 6.1366 19.1836 6.03496 18.5304C4.91254 18.3549 3.88746 17.7607 3.14674 16.8562C2.40603 15.9517 1.99903 14.7971 2 13.6031C2 12.2832 2.49835 11.0172 3.38541 10.0839C4.27247 9.15052 5.47558 8.62616 6.73008 8.62616H9.7491C10.3706 8.62559 10.9861 8.7539 11.5605 9.00376C12.1348 9.25363 12.6568 9.62014 13.0964 10.0823C13.5361 10.5446 13.8849 11.0934 14.1228 11.6975C14.3608 12.3016 14.4833 12.9492 14.4833 13.6031V13.601ZM8.67558 16.07C8.67558 15.9673 8.64663 15.8669 8.5924 15.7815C8.53816 15.6961 8.46108 15.6295 8.37089 15.5902C8.2807 15.5509 8.18146 15.5406 8.08572 15.5606C7.98997 15.5807 7.90202 15.6301 7.833 15.7028C7.76397 15.7754 7.71696 15.8679 7.69792 15.9687C7.67887 16.0694 7.68865 16.1738 7.726 16.2687C7.76336 16.3636 7.82662 16.4447 7.90779 16.5018C7.98896 16.5589 8.08439 16.5893 8.18201 16.5893C8.31291 16.5893 8.43845 16.5346 8.53101 16.4372C8.62358 16.3398 8.67558 16.2077 8.67558 16.07ZM9.86427 12.3351C9.84784 11.8752 9.66326 11.4398 9.34905 11.1196C9.03483 10.7995 8.61526 10.6194 8.17789 10.6169H8.16761C7.85228 10.6181 7.54369 10.713 7.27736 10.8906C7.01103 11.0683 6.79779 11.3214 6.66221 11.621C6.63412 11.6822 6.61778 11.7487 6.6141 11.8166C6.61042 11.8845 6.61949 11.9525 6.64078 12.0167C6.66207 12.0809 6.69518 12.14 6.7382 12.1908C6.78122 12.2415 6.83332 12.2828 6.89152 12.3124C6.94972 12.3419 7.01288 12.3591 7.0774 12.363C7.14192 12.3669 7.20653 12.3573 7.26754 12.3349C7.32856 12.3125 7.38478 12.2777 7.433 12.2324C7.48122 12.1872 7.5205 12.1323 7.54859 12.0711C7.60438 11.948 7.69166 11.8438 7.80064 11.77C7.90962 11.6962 8.03599 11.6559 8.16555 11.6535C8.34719 11.6565 8.52099 11.7318 8.65189 11.8643C8.7828 11.9969 8.86108 12.1767 8.87095 12.3675C8.87617 12.5234 8.83416 12.6771 8.75098 12.8062C8.66781 12.9353 8.54778 13.0333 8.40823 13.086C8.19962 13.1551 8.01701 13.2916 7.88632 13.4761C7.75563 13.6606 7.68351 13.8837 7.68021 14.1138V14.5271C7.68021 14.6643 7.73199 14.7958 7.82417 14.8928C7.91635 14.9898 8.04136 15.0443 8.17172 15.0443C8.30208 15.0443 8.4271 14.9898 8.51928 14.8928C8.61146 14.7958 8.66324 14.6643 8.66324 14.5271V14.1138C8.66324 14.0835 8.7126 14.0662 8.7126 14.0641C9.05653 13.9455 9.35477 13.7131 9.56272 13.4015C9.77068 13.0898 9.87719 12.7157 9.86632 12.3351H9.86427Z" fill="#767676"/>
</svg>
