<svg width="148" height="79" viewBox="0 0 148 79" fill="none" xmlns="http://www.w3.org/2000/svg">
<path fill-rule="evenodd" clip-rule="evenodd" d="M68.1918 54.3544C66.1354 54.3519 64.5241 52.6175 64.7861 50.5779C65.5462 44.662 67.6506 33.2575 72.989 27.2432C75.8881 23.9769 77.5909 22.3393 78.5896 21.5561C79.5248 20.8228 79.6608 21.7012 79.0682 22.7313C77.7843 24.9632 75.407 29.4269 73.5214 34.8567C71.8082 39.7899 71.7388 46.2351 71.9229 50.3372C72.019 52.4791 70.3359 54.3569 68.1918 54.3544V54.3544Z" fill="white"/>
<path fill-rule="evenodd" clip-rule="evenodd" d="M100.586 31.8264C97.1534 42.3914 85.9507 48.2202 75.5641 44.8454C74.7827 44.5915 74.0282 44.2927 73.3024 43.9528C73.3209 43.8113 73.3393 43.6687 73.3579 43.5252C73.634 41.3927 73.9376 39.0479 74.7316 36.8505C75.6565 37.4563 76.6751 37.9501 77.7754 38.3076C84.5549 40.5104 91.8671 36.7058 94.1078 29.8098C96.3484 22.9138 92.6689 15.5378 85.8894 13.335C79.1099 11.1323 71.7977 14.9368 69.557 21.8328C68.6171 24.7255 68.7189 27.7027 69.6543 30.347C67.7413 32.4482 66.4321 34.9177 65.538 37.3764C62.0923 32.3994 60.9367 25.8729 62.9732 19.6052C66.406 9.0402 77.6087 3.2114 87.9953 6.58619C98.3818 9.96098 104.019 21.2614 100.586 31.8264Z" fill="white"/>
<path fill-rule="evenodd" clip-rule="evenodd" d="M12.983 45.7073C12.9453 46.1674 12.9264 46.5221 12.9264 46.7713C12.9264 47.3656 12.9594 47.979 13.0254 48.6117C13.0913 49.2443 13.2233 49.8242 13.4212 50.3514C13.619 50.8786 13.897 51.3099 14.2551 51.6454C14.6132 51.9809 15.0938 52.1487 15.6969 52.1487C16.4885 52.1487 17.1858 52.0097 17.7889 51.7317C18.392 51.4537 18.9386 50.9122 19.4286 50.107L25.1674 35.2402H25.5915C25.4407 36.6205 25.3229 37.9864 25.2381 39.3379C25.1533 40.6894 25.1109 41.9691 25.1109 43.1768C25.1109 44.4612 25.1722 45.6498 25.2947 46.7425C25.4172 47.8353 25.6198 48.7842 25.9025 49.5894C26.1852 50.3946 26.5574 51.0224 27.0191 51.4729C27.4809 51.9234 28.051 52.1487 28.7295 52.1487C30.1053 52.1487 31.3398 51.9618 32.4329 51.5879C33.526 51.2141 34.5296 50.7348 35.4437 50.1501C35.8408 49.8961 36.2291 49.6294 36.6085 49.35C36.7855 49.5927 36.9749 49.821 37.1767 50.035C37.8363 50.7348 38.5949 51.2715 39.4524 51.6454C40.31 52.0192 41.191 52.2061 42.0957 52.2061C43.1323 52.2061 44.2018 51.9233 45.3044 51.3578C46.4069 50.7923 47.467 50.0494 48.4848 49.1292L47.7215 51.8035C46.3645 52.9346 45.0217 54.1232 43.693 55.3692C42.3643 56.6153 41.0921 57.8806 39.8765 59.165C38.6608 60.4495 37.5348 61.7387 36.4982 63.0327C35.4616 64.3267 34.5664 65.5728 33.8125 66.771C33.0586 67.9691 32.465 69.1098 32.0315 70.1929C31.598 71.2761 31.3813 72.249 31.3813 73.1117C31.3813 74.3578 31.5886 75.3546 32.0032 76.1023C32.4178 76.8499 32.9408 77.425 33.5722 77.8276C34.2036 78.2302 34.8915 78.4986 35.6359 78.6328C36.3804 78.767 37.073 78.8341 37.7138 78.8341C39.3346 78.8341 40.8141 78.5513 42.1522 77.9858C43.4904 77.4202 44.7013 76.6295 45.785 75.6134C46.8687 74.5974 47.8393 73.3801 48.6968 71.9614C49.5543 70.5428 50.3176 68.9852 50.9867 67.2886C51.6558 65.592 52.2353 63.7708 52.7253 61.825C53.2153 59.8791 53.6394 57.8806 53.9975 55.8293L54.9021 49.4455C55.3921 46.1865 55.8727 43.1384 56.3439 40.3011C56.5324 39.0934 56.7303 37.8809 56.9376 36.6635C57.1449 35.4462 57.3475 34.2912 57.5454 33.1984C57.7433 32.1057 57.927 31.128 58.0966 30.2653C58.2663 29.4026 58.4076 28.7221 58.5207 28.2236C58.5772 27.9936 58.6055 27.7923 58.6055 27.6198C58.6055 27.0638 58.4076 26.6565 58.0118 26.3976C57.6161 26.1388 57.126 26.0094 56.5418 26.0094C56.0518 26.0094 55.5335 26.0957 54.9869 26.2682C54.4404 26.4408 53.9174 26.6996 53.4179 27.0447C52.9185 27.3897 52.4756 27.8163 52.0892 28.3243C51.7029 28.8323 51.4343 29.4122 51.2835 30.064L49.3046 38.5183C49.2292 39.1317 49.0643 39.8986 48.8099 40.8187C48.5554 41.7389 48.2209 42.6304 47.8063 43.493C47.3916 44.3557 46.9016 45.0938 46.3362 45.7073C45.7708 46.3207 45.1395 46.6274 44.4421 46.6274C44.0086 46.6274 43.6506 46.5172 43.3678 46.2968C43.0851 46.0763 42.859 45.7887 42.6894 45.4341C42.5197 45.0794 42.402 44.6768 42.336 44.2263C42.27 43.7758 42.237 43.3109 42.237 42.8317C42.237 41.9115 42.3124 40.8475 42.4632 39.6398C42.614 38.432 42.8166 37.2003 43.071 35.9446C43.3254 34.6889 43.6176 33.462 43.9474 32.2639C44.2772 31.0657 44.6117 30.0257 44.951 29.1438C45.0641 28.8563 45.1442 28.5879 45.1913 28.3387C45.2384 28.0895 45.262 27.8594 45.262 27.6485C45.262 26.9392 45.0264 26.4168 44.5552 26.0813C44.084 25.7458 43.5186 25.5781 42.859 25.5781C42.0863 25.5781 41.2947 25.8034 40.4843 26.2539C39.6739 26.7044 39.0519 27.361 38.6184 28.2236C38.0342 29.4314 37.5159 30.6248 37.0636 31.8038C36.6113 32.9828 36.2343 34.2049 35.9328 35.4701C35.6312 36.7354 35.4004 38.0678 35.2402 39.4672C35.08 40.8667 34.9999 42.4003 34.9999 44.0682C34.9999 44.1072 35 44.1461 35.0004 44.1849C34.9083 44.2437 34.8157 44.3007 34.7228 44.3558C34.2705 44.6242 33.8276 44.8447 33.3941 45.0172C32.9606 45.1897 32.546 45.276 32.1502 45.276C31.7733 45.276 31.4529 44.9501 31.189 44.2983C30.9251 43.6465 30.7932 42.803 30.7932 41.7678C30.7932 40.445 30.8592 39.1941 30.9911 38.0151C31.123 36.8361 31.2738 35.6715 31.4434 34.5213C31.6131 33.371 31.7638 32.2016 31.8958 31.0131C32.0277 29.8245 32.0937 28.5688 32.0937 27.246C32.0937 26.3833 31.7874 25.7172 31.1749 25.2475C30.5623 24.7778 29.8132 24.543 28.9274 24.543C28.1358 24.543 27.4668 24.8066 26.9202 25.3338C26.3736 25.861 25.8271 26.508 25.2805 27.2748C24.7151 28.0608 24.1073 28.9714 23.4571 30.0066C22.8069 31.0418 22.1944 32.0291 21.6195 32.9685C21.0447 33.9078 20.5594 34.7082 20.1636 35.3696C19.7678 36.031 19.5511 36.3904 19.5134 36.4479L19.2024 36.1029C19.2024 36.0645 19.2118 35.9878 19.2307 35.8728C19.2495 35.7578 19.3061 35.4798 19.4003 35.0389C19.5322 34.4062 19.6736 33.788 19.8244 33.1841C19.9751 32.5802 20.1212 31.962 20.2626 31.3294C20.4039 30.6967 20.5217 30.0449 20.6159 29.374C20.7102 28.703 20.7573 27.9937 20.7573 27.246C20.7573 26.3833 20.4746 25.7172 19.9092 25.2475C19.3438 24.7778 18.6653 24.543 17.8737 24.543C17.0256 24.543 16.2953 24.8018 15.6828 25.3194C15.0702 25.837 14.4907 26.4888 13.9442 27.2748C13.3787 28.0608 12.7851 28.9666 12.1631 29.9922C11.5412 31.0179 10.9616 32.0003 10.4245 32.9397C9.88737 33.8791 9.43505 34.6842 9.06753 35.3552C8.70002 36.0262 8.49742 36.3904 8.45972 36.4479L8.14875 36.1029C8.33722 34.8951 8.51626 33.7257 8.68589 32.5946C8.76127 32.1154 8.83195 31.6217 8.89791 31.1137C8.96388 30.6057 9.02513 30.112 9.08167 29.6328C9.13821 29.1535 9.18062 28.703 9.20889 28.2812C9.23716 27.8595 9.25129 27.4857 9.25129 27.1598C9.25129 26.5655 9.23244 26.0958 9.19475 25.7507C9.15706 25.4056 9.03927 25.1421 8.84137 24.9599C8.64348 24.7778 8.34193 24.6628 7.93673 24.6149C7.53152 24.5669 6.97083 24.543 6.25464 24.543C5.78347 24.543 5.39712 24.5765 5.09556 24.6436C4.79401 24.7107 4.53487 24.8449 4.31813 25.0462C4.10139 25.2475 3.90822 25.5303 3.73859 25.8945C3.56897 26.2587 3.38993 26.7476 3.20146 27.361C3.01299 27.9553 2.80568 28.7222 2.57951 29.6615C2.35335 30.6009 2.1319 31.6361 1.91516 32.7672C1.69842 33.8982 1.49111 35.082 1.29322 36.3185C1.09532 37.555 0.920992 38.7676 0.770217 39.9561C0.619442 41.1447 0.496938 42.2758 0.402704 43.3493C0.308469 44.4229 0.261353 45.3527 0.261353 46.1387C0.261353 46.9055 0.303757 47.6484 0.388569 48.3673C0.47338 49.0862 0.643 49.7284 0.897433 50.2939C1.15187 50.8594 1.51466 51.3099 1.98584 51.6454C2.45701 51.9809 3.07895 52.1487 3.85167 52.1487C4.45478 52.1487 5.00604 52.0097 5.50548 51.7317C6.00493 51.4537 6.44311 50.9217 6.82005 50.1357C8.12049 47.471 9.18061 45.252 10.0005 43.4787C10.8203 41.7055 11.4941 40.2629 12.0218 39.151C12.5495 38.0391 12.9594 37.1956 13.2515 36.6205C13.5437 36.0453 13.8028 35.614 14.029 35.3264H14.453C14.1515 37.0901 13.897 38.7388 13.6897 40.2725C13.5955 40.9243 13.5013 41.5809 13.407 42.2422C13.3128 42.9036 13.228 43.5315 13.1526 44.1258C13.0772 44.7201 13.0207 45.2472 12.983 45.7073ZM38.053 73.3129C38.8446 73.3129 39.5938 73.078 40.3005 72.6084C41.0073 72.1387 41.6575 71.5204 42.2512 70.7536C42.8448 69.9868 43.3867 69.1145 43.8767 68.1368C44.3667 67.1591 44.8002 66.1575 45.1771 65.1318C45.5541 64.1062 45.8745 63.1045 46.1383 62.1268C46.4022 61.1491 46.6095 60.2769 46.7603 59.51C46.0252 60.0085 45.2761 60.6028 44.5128 61.2929C43.7495 61.9831 43.005 62.7259 42.2794 63.5215C41.5538 64.3171 40.8659 65.1366 40.2157 65.9801C39.5655 66.8236 38.9954 67.6336 38.5054 68.41C38.0153 69.1864 37.629 69.9101 37.3463 70.5811C37.0636 71.252 36.9222 71.808 36.9222 72.2489C36.9222 72.9582 37.2992 73.3129 38.053 73.3129Z" fill="white"/>
<path fill-rule="evenodd" clip-rule="evenodd" d="M94.4188 53.0652C94.2678 52.9117 94.1923 52.7123 94.1923 52.4668C94.1923 52.2826 94.2376 52.0985 94.3282 51.9144L111.412 22.2243C111.865 21.4571 112.484 21.0736 113.27 21.0736H118.572C119.357 21.0736 119.81 21.4571 119.931 22.2243L124.644 51.9144C124.705 52.344 124.637 52.6816 124.44 52.9271C124.244 53.1726 123.979 53.2953 123.647 53.2953H119.705C118.98 53.2953 118.572 52.9424 118.481 52.2366L117.484 46.851H104.071L100.763 52.4207C100.431 53.0038 99.9473 53.2953 99.3129 53.2953H95.0079C94.7663 53.2953 94.5699 53.2186 94.4188 53.0652ZM106.79 41.5112H117.031L114.856 27.3336L106.79 41.5112ZM125.928 52.9728C125.762 52.758 125.709 52.4971 125.77 52.1903L131.117 26.8271H122.734C122.431 26.8271 122.197 26.7121 122.031 26.4819C121.865 26.2517 121.812 25.9832 121.873 25.6764L122.598 22.224C122.658 21.8865 122.809 21.6103 123.051 21.3955C123.292 21.1806 123.579 21.0732 123.912 21.0732H147.113C147.445 21.0732 147.687 21.1806 147.838 21.3955C147.989 21.6103 148.035 21.8865 147.974 22.224L147.249 25.6764C147.189 26.0139 147.03 26.2901 146.773 26.5049C146.516 26.7197 146.237 26.8271 145.935 26.8271H137.597L132.25 52.1903C132.189 52.5278 132.031 52.7963 131.774 52.9958C131.517 53.1953 131.238 53.295 130.936 53.295H126.676C126.344 53.295 126.094 53.1876 125.928 52.9728Z" fill="white"/>
</svg>
