<svg width="243" height="106" viewBox="0 0 243 106" fill="none" xmlns="http://www.w3.org/2000/svg">
<path opacity="0.05" fill-rule="evenodd" clip-rule="evenodd" d="M67.1934 101.373H187.392C192.991 101.373 197.529 96.8339 197.529 91.2353C197.529 85.6366 192.991 81.098 187.392 81.098C187.392 81.098 178.703 76.5594 178.703 70.9608C178.703 65.3621 184.426 60.8235 191.485 60.8235H206.219C211.817 60.8235 216.356 56.2849 216.356 50.6863C216.356 45.0876 211.817 40.549 206.219 40.549H174.359C179.957 40.549 184.496 36.0104 184.496 30.4118C184.496 24.8131 179.957 20.2745 174.359 20.2745H232.286C237.884 20.2745 242.423 15.7359 242.423 10.1373C242.423 4.5386 237.884 0 232.286 0H90.3642C84.7656 0 80.227 4.5386 80.227 10.1373C80.227 15.7359 84.7656 20.2745 90.3642 20.2745H32.4371C26.8384 20.2745 22.2998 24.8131 22.2998 30.4118C22.2998 36.0104 26.8384 40.549 32.4371 40.549H68.6416C74.2402 40.549 78.7788 45.0876 78.7788 50.6863C78.7788 56.2849 74.2402 60.8235 68.6416 60.8235H10.7144C5.11575 60.8235 0.577148 65.3621 0.577148 70.9608C0.577148 76.5594 5.11575 81.098 10.7144 81.098H67.1934C61.5947 81.098 57.0561 85.6366 57.0561 91.2353C57.0561 96.8339 61.5947 101.373 67.1934 101.373ZM222.148 50.6863C222.148 56.285 226.687 60.8236 232.286 60.8236C237.884 60.8236 242.423 56.285 242.423 50.6863C242.423 45.0877 237.884 40.5491 232.286 40.5491C226.687 40.5491 222.148 45.0877 222.148 50.6863Z" fill="#1D7DEA"/>
<path fill-rule="evenodd" clip-rule="evenodd" d="M158.417 83.5062C156.057 85.4067 153.481 87.1288 150.723 88.6457L150.883 102.306C150.895 103.377 150.037 104.256 148.966 104.268C148.53 104.273 148.105 104.131 147.76 103.866L135.478 94.4163C130.874 95.476 126.018 96.0428 121 96.0428C91.5378 96.0428 67.6538 76.5013 67.6538 52.3957C67.6538 28.2901 91.5378 8.74866 121 8.74866C150.463 8.74866 174.347 28.2901 174.347 52.3957C174.347 59.0677 172.517 65.3899 169.246 71.045C168.688 72.0093 168.042 74.7042 158.417 83.5062Z" fill="white"/>
<path d="M158.417 83.5062L159.201 84.4798L159.232 84.4551L159.261 84.4286L158.417 83.5062ZM150.723 88.6457L150.121 87.5505L149.464 87.9114L149.473 88.6603L150.723 88.6457ZM150.883 102.306L149.633 102.32L150.883 102.306ZM148.966 104.268L148.951 103.018L148.966 104.268ZM147.76 103.866L148.522 102.875L147.76 103.866ZM135.478 94.4163L136.24 93.4256L135.773 93.0658L135.198 93.1981L135.478 94.4163ZM169.246 71.045L168.164 70.4191L169.246 71.045ZM157.633 82.5326C155.331 84.3859 152.817 86.0676 150.121 87.5505L151.325 89.741C154.146 88.19 156.782 86.4275 159.201 84.4798L157.633 82.5326ZM149.473 88.6603L149.633 102.32L152.133 102.291L151.973 88.6311L149.473 88.6603ZM149.633 102.32C149.637 102.701 149.332 103.014 148.951 103.018L148.98 105.518C150.742 105.497 152.153 104.053 152.133 102.291L149.633 102.32ZM148.951 103.018C148.796 103.02 148.645 102.97 148.522 102.875L146.998 104.857C147.565 105.293 148.264 105.526 148.98 105.518L148.951 103.018ZM148.522 102.875L136.24 93.4256L134.716 95.407L146.998 104.857L148.522 102.875ZM135.198 93.1981C130.686 94.2366 125.924 94.7928 121 94.7928V97.2928C126.112 97.2928 131.062 96.7153 135.758 95.6344L135.198 93.1981ZM121 94.7928C91.9819 94.7928 68.9038 75.5881 68.9038 52.3957H66.4038C66.4038 77.4145 91.0937 97.2928 121 97.2928V94.7928ZM68.9038 52.3957C68.9038 29.2033 91.9819 9.99866 121 9.99866V7.49866C91.0937 7.49866 66.4038 27.3769 66.4038 52.3957H68.9038ZM121 9.99866C150.019 9.99866 173.097 29.2033 173.097 52.3957H175.597C175.597 27.3769 150.907 7.49866 121 7.49866V9.99866ZM173.097 52.3957C173.097 58.8334 171.332 64.9414 168.164 70.4191L170.328 71.6709C173.702 65.8385 175.597 59.3019 175.597 52.3957H173.097ZM168.164 70.4191C167.795 71.0572 167.611 71.7648 166.235 73.5819C164.863 75.3942 162.355 78.2115 157.574 82.5837L159.261 84.4286C164.105 79.9989 166.732 77.0678 168.228 75.091C169.721 73.1191 170.139 71.9971 170.328 71.6709L168.164 70.4191Z" fill="#1D7DEA"/>
<path fill-rule="evenodd" clip-rule="evenodd" d="M120.031 58.2153C123.245 58.2153 125.85 55.6097 125.85 52.3957C125.85 49.1816 123.245 46.576 120.031 46.576C116.817 46.576 114.211 49.1816 114.211 52.3957C114.211 55.6097 116.817 58.2153 120.031 58.2153ZM101.602 58.2153C104.816 58.2153 107.421 55.6098 107.421 52.3957C107.421 49.1816 104.816 46.5761 101.602 46.5761C98.3878 46.5761 95.7822 49.1816 95.7822 52.3957C95.7822 55.6098 98.3878 58.2153 101.602 58.2153ZM144.279 52.3957C144.279 55.6097 141.673 58.2153 138.459 58.2153C135.245 58.2153 132.64 55.6097 132.64 52.3957C132.64 49.1816 135.245 46.576 138.459 46.576C141.673 46.576 144.279 49.1816 144.279 52.3957Z" fill="#E8F0FE"/>
<path d="M124.6 52.3957C124.6 54.9194 122.554 56.9653 120.031 56.9653V59.4653C123.935 59.4653 127.1 56.3001 127.1 52.3957H124.6ZM120.031 47.826C122.554 47.826 124.6 49.8719 124.6 52.3957H127.1C127.1 48.4912 123.935 45.326 120.031 45.326V47.826ZM115.461 52.3957C115.461 49.8719 117.507 47.826 120.031 47.826V45.326C116.126 45.326 112.961 48.4912 112.961 52.3957H115.461ZM120.031 56.9653C117.507 56.9653 115.461 54.9194 115.461 52.3957H112.961C112.961 56.3001 116.126 59.4653 120.031 59.4653V56.9653ZM106.171 52.3957C106.171 54.9194 104.126 56.9653 101.602 56.9653V59.4653C105.506 59.4653 108.671 56.3001 108.671 52.3957H106.171ZM101.602 47.8261C104.126 47.8261 106.171 49.872 106.171 52.3957H108.671C108.671 48.4912 105.506 45.3261 101.602 45.3261V47.8261ZM97.0322 52.3957C97.0322 49.872 99.0781 47.8261 101.602 47.8261V45.3261C97.6974 45.3261 94.5322 48.4912 94.5322 52.3957H97.0322ZM101.602 56.9653C99.0781 56.9653 97.0322 54.9194 97.0322 52.3957H94.5322C94.5322 56.3001 97.6974 59.4653 101.602 59.4653V56.9653ZM138.459 59.4653C142.364 59.4653 145.529 56.3001 145.529 52.3957H143.029C143.029 54.9194 140.983 56.9653 138.459 56.9653V59.4653ZM131.39 52.3957C131.39 56.3001 134.555 59.4653 138.459 59.4653V56.9653C135.935 56.9653 133.89 54.9194 133.89 52.3957H131.39ZM138.459 45.326C134.555 45.326 131.39 48.4912 131.39 52.3957H133.89C133.89 49.8719 135.935 47.826 138.459 47.826V45.326ZM145.529 52.3957C145.529 48.4912 142.364 45.326 138.459 45.326V47.826C140.983 47.826 143.029 49.8719 143.029 52.3957H145.529Z" fill="#1D7DEA"/>
<path d="M99.6836 22.3989C93.3279 25.4322 85.598 32.5122 81.7183 39.7867" stroke="#1D7DEA" stroke-width="2.5" stroke-linecap="round"/>
</svg>
