<svg width="66" height="66" viewBox="0 0 66 66" fill="none" xmlns="http://www.w3.org/2000/svg">
<circle cx="33" cy="33" r="33" fill="#A862EA"/>
<mask id="mask0" mask-type="alpha" maskUnits="userSpaceOnUse" x="0" y="0" width="66" height="66">
<circle cx="33" cy="33" r="33" fill="#1D7DEA"/>
</mask>
<g mask="url(#mask0)">
<path d="M55.2793 22.436L51.9865 20.26C51.1401 19.7003 49.9068 20.0741 49.2324 21.0946L35.0244 42.5924C34.6823 43.1105 34.5518 43.6952 34.6154 44.2193L34.1431 47.6319L33.5834 51.6858L37.0931 49.5811L40.0471 47.8094C40.5542 47.6628 41.0411 47.3133 41.3837 46.7947L55.5916 25.2966C56.2656 24.2764 56.126 22.9953 55.2793 22.436ZM38.7733 42.9209C38.1923 43.8 37.5267 44.3828 37.286 44.2233L36.3504 43.6052C36.1096 43.4457 36.3849 42.6052 36.9656 41.7258L49.196 23.2195C49.777 22.3404 50.4429 21.7576 50.6837 21.9167L51.6197 22.5356C51.8604 22.6947 51.5848 23.5356 51.0041 24.4143L38.7733 42.9209ZM41.4697 44.7033C40.8886 45.582 40.2227 46.1652 39.9827 46.0057L39.0463 45.3868C38.8053 45.2281 39.0809 44.3869 39.6619 43.5078L51.8927 25.0015C52.4734 24.1228 53.1393 23.5396 53.38 23.6987L54.3157 24.3176C54.5564 24.4764 54.2808 25.3176 53.7005 26.1963L41.4697 44.7033Z" fill="white"/>
<path d="M50.0301 38.0333V60.9731C50.0301 61.8084 49.3535 62.485 48.5182 62.485H15.468C14.6334 62.485 13.9561 61.8084 13.9561 60.9731V27.9229C13.9561 27.0883 14.6334 26.411 15.468 26.411H43.2159L45.7822 22.528H11.9106C10.896 22.528 10.0731 23.3509 10.0731 24.3655V64.5309C10.0731 65.5459 10.896 66.3684 11.9106 66.3684H52.0756C53.0907 66.3684 53.9131 65.5459 53.9131 64.5309V32.1584L50.0301 38.0333Z" fill="white"/>
<path opacity="0.3" d="M39.4377 32.1356C39.4377 33.1502 38.6153 33.9731 37.6002 33.9731H18.2917C17.277 33.9731 16.4542 33.1502 16.4542 32.1356V31.0838C16.4542 30.0691 17.277 29.2463 18.2917 29.2463H37.6002C38.6153 29.2463 39.4377 30.0691 39.4377 31.0838V32.1356Z" fill="white"/>
<path opacity="0.3" d="M34.6518 39.4985C34.6518 40.5132 34.0005 41.336 33.1968 41.336H17.9091C17.1054 41.336 16.4542 40.5132 16.4542 39.4985V38.4467C16.4542 37.432 17.1054 36.6092 17.9091 36.6092H33.1968C34.0005 36.6092 34.6518 37.432 34.6518 38.4467V39.4985Z" fill="white"/>
<path opacity="0.3" d="M31.9931 46.6933C31.9931 47.7084 31.4371 48.5308 30.7509 48.5308H17.6966C17.0104 48.5308 16.4544 47.7084 16.4544 46.6933V45.6419C16.4544 44.6272 17.0108 43.8044 17.6966 43.8044H30.7506C31.4367 43.8044 31.9927 44.6272 31.9927 45.6419V46.6933H31.9931Z" fill="white"/>
<path opacity="0.3" d="M31.9931 54.0562C31.9931 55.0713 31.4367 55.8937 30.7506 55.8937H17.6966C17.0104 55.8937 16.4544 55.0713 16.4544 54.0562V53.0048C16.4544 51.9901 17.0108 51.1673 17.6966 51.1673H30.7506C31.4367 51.1673 31.9931 51.9901 31.9931 53.0048V54.0562Z" fill="white"/>
</g>
</svg>
