<svg width="62" height="55" viewBox="0 0 62 55" fill="none" xmlns="http://www.w3.org/2000/svg">
<g clip-path="url(#clip0)">
<path d="M23.2583 21.9355C27.0035 21.9355 30.0325 19.1893 30.0325 15.7936C30.0325 14.8283 29.1616 14.0387 28.097 14.0387C27.0324 14.0387 26.1615 14.8283 26.1615 15.7936C26.1615 17.2502 24.8649 18.4258 23.2583 18.4258H22.2905V0.877441H61.0002V27.2H22.2905V21.9355H23.2583Z" fill="#656D78"/>
<path d="M56.1613 30.7097V33.342C57.7679 33.342 59.0645 34.5176 59.0645 35.9742V40.3613C59.0645 40.3613 57.129 43.871 52.2903 43.871C47.4516 43.871 45.5161 40.3613 45.5161 40.3613V35.9742C45.5161 33.0614 48.1098 30.7097 51.3226 30.7097H56.1613Z" fill="#965353"/>
<path d="M52.2903 43.871C57.129 43.871 59.0645 40.3613 59.0645 40.3613C59.0645 42.8094 57.4872 44.9241 55.1935 45.8979C54.3127 46.2839 53.3256 46.4955 52.2903 46.4955C51.255 46.4955 50.2679 46.2848 49.3871 45.8979C47.0934 44.9249 45.5161 42.8094 45.5161 40.3613C45.5161 40.3613 47.4516 43.871 52.2903 43.871Z" fill="#EAC6BB"/>
<path d="M54.1144 43.6868C53.4345 44.6405 52.4686 45.4116 51.3227 45.8979C51.0142 46.0328 50.6881 46.1382 50.355 46.2295C50.6413 46.3075 50.9367 46.3666 51.2358 46.412C51.2712 46.4171 51.3062 46.4244 51.3421 46.4287C51.6516 46.4707 51.9673 46.4955 52.2895 46.4955C53.3248 46.4955 54.312 46.2848 55.1928 45.8979C57.4864 44.9249 59.0637 42.8094 59.0637 40.3613C59.0647 40.3613 57.6187 42.97 54.1144 43.6868Z" fill="#D3B1A9"/>
<path d="M56.1615 33.342V30.7097H52.2905V35.0968C53.8971 35.0968 55.1938 36.2724 55.1938 37.7291V40.3613C55.1938 41.5871 54.7978 42.7297 54.1145 43.6868C57.6188 42.97 59.0647 40.3613 59.0647 40.3613V35.9742C59.0647 34.5176 57.7681 33.342 56.1615 33.342Z" fill="#844747"/>
<path d="M52.2904 46.4946C53.3257 46.4946 54.3129 46.2838 55.1936 45.897V48.258H49.3872V45.8978C50.268 46.2838 51.2551 46.4946 52.2904 46.4946V46.4946Z" fill="#F5F7FA"/>
<path d="M60.9999 50.8903V53.5226H43.5806V50.8903C43.5806 49.4337 44.8772 48.2581 46.4838 48.2581H58.0967C59.7033 48.2581 60.9999 49.4337 60.9999 50.8903Z" fill="#E6E9ED"/>
<path d="M58.0966 48.2581H54.2256C55.8322 48.2581 57.1288 49.4337 57.1288 50.8903V53.5226H60.9998V50.8903C60.9998 49.4337 59.7032 48.2581 58.0966 48.2581Z" fill="#CCD1D9"/>
<path d="M28.0967 48.258V46.5032H33.9031V48.258L30.9999 49.1354L28.0967 48.258Z" fill="#EAC6BB"/>
<path d="M39.7099 37.7641V46.5032H22.2905V37.7641C22.2905 33.4031 26.1903 29.8673 31.0002 29.8673C35.8101 29.8673 39.7099 33.4031 39.7099 37.7641Z" fill="#FFA800"/>
<path d="M30.9999 29.8673C30.3341 29.8673 29.6887 29.941 29.0645 30.0691C32.9411 30.8685 35.8386 34.0068 35.8386 37.7641V46.5032H39.7096V37.7641C39.7096 33.4031 35.8098 29.8673 30.9999 29.8673V29.8673Z" fill="#DB9607"/>
<path d="M39.7099 50.8903V53.5226H22.2905V50.8903C22.2905 49.4337 23.5872 48.2581 25.1938 48.2581H28.097L31.0002 49.1355L33.9034 48.2581H36.8067C38.4133 48.2581 39.7099 49.4337 39.7099 50.8903Z" fill="#48CFAD"/>
<path d="M36.8067 48.2581H33.9034L33.6284 48.3416C34.8972 48.6231 35.8389 49.6513 35.8389 50.8903V53.5226H39.7099V50.8903C39.7099 49.4337 38.4133 48.2581 36.8067 48.2581Z" fill="#37BC9B"/>
<path d="M18.4194 53.5226H1V50.8903C1 49.4337 2.29662 48.2581 3.90323 48.2581H15.5161C17.1227 48.2581 18.4194 49.4337 18.4194 50.8903V53.5226Z" fill="#5D9CEC"/>
<path d="M15.516 48.2581H11.645C13.2516 48.2581 14.5482 49.4337 14.5482 50.8903V53.5226H18.4192V50.8903C18.4192 49.4337 17.1226 48.2581 15.516 48.2581Z" fill="#4A89DC"/>
<path d="M9.70987 46.4946C10.7452 46.4946 11.7323 46.2838 12.6131 45.897V48.258H6.80664V45.8978C7.68744 46.2838 8.67455 46.4946 9.70987 46.4946V46.4946Z" fill="#F5F7FA"/>
<path d="M9.70974 46.4947C8.67443 46.4947 7.68731 46.2839 6.80651 45.897C4.51285 44.9241 2.93555 42.8094 2.93555 40.3613C2.93555 40.3613 4.87103 43.871 9.70974 43.871C14.5484 43.871 16.4839 40.3613 16.4839 40.3613C16.4839 42.8094 14.9066 44.9241 12.613 45.8979C11.7322 46.2839 10.7451 46.4947 9.70974 46.4947V46.4947Z" fill="#EAC6BB"/>
<path d="M16.4839 36.8517V40.3613C16.4839 40.3613 14.5484 43.871 9.70974 43.871C4.87103 43.871 2.93555 40.3613 2.93555 40.3613V36.8517C2.93555 33.4559 5.96446 30.7097 9.70974 30.7097C13.455 30.7097 16.4839 33.4559 16.4839 36.8517Z" fill="#656D78"/>
<path d="M11.5339 43.6868C10.8539 44.6405 9.88804 45.4116 8.74216 45.8979C8.43359 46.0329 8.10755 46.1383 7.77441 46.2295C8.06077 46.3075 8.3561 46.3666 8.65521 46.412C8.69065 46.4172 8.72562 46.4244 8.76153 46.4287C9.07198 46.4699 9.38763 46.4947 9.7099 46.4947C10.7452 46.4947 11.7323 46.2839 12.6131 45.897C14.9068 44.9241 16.4841 42.8085 16.4841 40.3605C16.4841 40.3613 15.0381 42.97 11.5339 43.6868V43.6868Z" fill="#D3B1A9"/>
<path d="M9.7099 30.7097C9.40323 30.7097 9.10222 30.7333 8.80595 30.7701C8.74499 30.7783 8.68403 30.7868 8.62308 30.795C8.33483 30.8378 8.05037 30.8914 7.77536 30.9659C7.77441 30.9659 7.77441 30.9659 7.77441 30.9659C10.5742 31.7195 12.6131 34.0652 12.6131 36.8508V40.3605C12.6131 41.5862 12.2171 42.7288 11.5339 43.6859C15.0381 42.97 16.4841 40.3613 16.4841 40.3613V36.8517C16.4841 33.4559 13.4552 30.7097 9.7099 30.7097Z" fill="#434A54"/>
<path d="M11.6449 16.6624C12.6802 16.6624 13.6674 16.4516 14.5481 16.0647V18.4258L13.5804 19.3032L11.6449 18.4258L9.70944 19.3032L8.7417 18.4258V16.0656C9.6225 16.4516 10.6096 16.6624 11.6449 16.6624Z" fill="#F5F7FA"/>
<path d="M11.6452 18.4258L13.5806 19.3032L14.5484 18.4258H23.2581C24.8647 18.4258 26.1613 17.2502 26.1613 15.7935C26.1613 14.8283 27.0322 14.0387 28.0968 14.0387C29.1614 14.0387 30.0323 14.8283 30.0323 15.7935C30.0323 19.1893 27.0033 21.9355 23.2581 21.9355H18.4194V27.2H1V21.9355C1 19.9964 2.7323 18.4258 4.87097 18.4258H8.74193L9.70968 19.3032L11.6452 18.4258Z" fill="#E6E9ED"/>
<path d="M41.645 4.38708C45.3903 4.38708 48.4192 7.13331 48.4192 10.529C48.4192 12.2226 47.6646 13.7666 46.4355 14.8724L43.0097 11.7663C43.3579 11.4501 43.5805 11.0114 43.5805 10.529C43.5805 9.56377 42.7096 8.77418 41.645 8.77418V4.38708Z" fill="#A0D468"/>
<path d="M43.01 11.7663L46.4358 14.8724C45.2162 15.9868 43.5132 16.671 41.6453 16.671C37.9 16.671 34.8711 13.9247 34.8711 10.529C34.8711 7.13331 37.9 4.38708 41.6453 4.38708V8.77418C40.5807 8.77418 39.7098 9.56377 39.7098 10.529C39.7098 11.4943 40.5807 12.2839 41.6453 12.2839C42.1774 12.2839 42.6612 12.0821 43.01 11.7663Z" fill="#5D9CEC"/>
<path d="M18.4193 7.45799V8.66016C16.7546 6.69453 15.7486 6.33508 14.5483 6.56301L16.4744 2.99207C17.6841 4.1591 18.4193 5.73829 18.4193 7.45799Z" fill="#E09715"/>
<path d="M4.87106 8.01976C4.56155 7.98462 4.24212 7.94949 3.90332 7.8968V7.45809C3.90332 3.82545 7.1548 0.877441 11.1614 0.877441C13.2712 0.877441 15.168 1.6936 16.4745 2.99216L14.5485 6.5631C12.7387 6.90542 10.4937 8.60756 4.87106 8.01976Z" fill="#FFA800"/>
<path d="M11.1614 0.877441C10.8439 0.877441 10.5325 0.900148 10.2268 0.93785C10.1809 0.943419 10.1375 0.951131 10.093 0.956272C9.79771 0.998686 9.50663 1.05138 9.22406 1.12207C9.22406 1.12207 9.22311 1.12207 9.22217 1.12207C10.5419 1.45282 11.7119 2.10574 12.6036 2.99216C13.603 3.95698 14.2716 5.20499 14.4758 6.57981C14.5003 6.57553 14.5254 6.56739 14.5485 6.5631L16.4746 2.99216C15.168 1.6936 13.2713 0.877441 11.1614 0.877441Z" fill="#FFB826"/>
<path d="M4.87109 8.01976C10.4937 8.60757 12.7387 6.90543 14.5485 6.56397C15.7487 6.33519 16.7548 6.69464 18.4195 8.66112V10.5291C18.4195 12.9771 16.8422 15.0918 14.5485 16.0656C13.6677 16.4516 12.6806 16.6633 11.6453 16.6633C10.61 16.6633 9.62286 16.4525 8.74206 16.0656C6.4484 15.0918 4.87109 12.9771 4.87109 10.5291V8.01976Z" fill="#EAC6BB"/>
<path d="M14.5482 6.56288V10.5288C14.5482 12.9769 12.9709 15.0916 10.6772 16.0654C10.3687 16.2003 10.0426 16.3057 9.70947 16.397C10.3252 16.5645 10.9735 16.663 11.645 16.663C12.6803 16.663 13.6674 16.4523 14.5482 16.0654C16.8418 15.0924 18.4191 12.9769 18.4191 10.5288V8.66003C16.7544 6.6944 15.7484 6.33495 14.5482 6.56288Z" fill="#D3B1A9"/>
<path d="M45.5163 23.6903H37.7744C37.239 23.6903 36.8066 23.2983 36.8066 22.8128C36.8066 22.3274 37.239 21.9354 37.7744 21.9354H45.5163C46.0517 21.9354 46.484 22.3274 46.484 22.8128C46.484 23.2983 46.0517 23.6903 45.5163 23.6903Z" fill="#434A54"/>
<path d="M49.3872 21.0581H33.9033C33.3679 21.0581 32.9355 20.6661 32.9355 20.1806C32.9355 19.6952 33.3679 19.3032 33.9033 19.3032H49.3872C49.9225 19.3032 50.3549 19.6952 50.3549 20.1806C50.3549 20.6661 49.9225 21.0581 49.3872 21.0581Z" fill="#434A54"/>
<path d="M4.87106 22.8129C4.33569 22.8129 3.90332 23.2049 3.90332 23.6903V27.2H5.8388V23.6903C5.8388 23.2049 5.40644 22.8129 4.87106 22.8129Z" fill="#CCD1D9"/>
</g>
<defs>
<clipPath id="clip0">
<rect width="60" height="54.4" fill="white" transform="translate(1)"/>
</clipPath>
</defs>
</svg>
