<svg width="342" height="156" viewBox="0 0 342 156" fill="none" xmlns="http://www.w3.org/2000/svg">
<path d="M0 4C0 1.79086 1.79086 0 4 0H338C340.209 0 342 1.79086 342 4V151.791C342 154.001 340.209 155.791 338 155.791H4.00001C1.79087 155.791 0 154.001 0 151.791V4Z" fill="url(#paint0_linear)"/>
<mask id="mask0" mask-type="alpha" maskUnits="userSpaceOnUse" x="0" y="0" width="342" height="156">
<path d="M0 10C0 4.47715 4.47715 0 10 0H332C337.523 0 342 4.47715 342 10V155.791H0V10Z" fill="white"/>
<path d="M0 10C0 4.47715 4.47715 0 10 0H332C337.523 0 342 4.47715 342 10V155.791H0V10Z" stroke="white"/>
</mask>
<g mask="url(#mask0)">
<g style="mix-blend-mode:overlay" opacity="0.06">
<path d="M34.0352 315.222C98.0068 315.222 149.866 259.899 149.866 191.654C149.866 123.409 98.0068 68.0859 34.0352 68.0859C-29.9363 68.0859 -81.7954 123.409 -81.7954 191.654C-81.7954 259.899 -29.9363 315.222 34.0352 315.222Z" fill="white"/>
</g>
<g style="mix-blend-mode:overlay" opacity="0.06">
<path d="M317.39 24.6985C341.994 24.6985 361.94 3.42031 361.94 -22.8276C361.94 -49.0756 341.994 -70.3538 317.39 -70.3538C292.785 -70.3538 272.839 -49.0756 272.839 -22.8276C272.839 3.42031 292.785 24.6985 317.39 24.6985Z" stroke="white" stroke-width="28"/>
</g>
<g style="mix-blend-mode:overlay" opacity="0.06">
<path d="M309.372 79.8276C358.581 79.8276 398.472 37.2713 398.472 -15.2246C398.472 -67.7205 358.581 -110.277 309.372 -110.277C260.163 -110.277 220.271 -67.7205 220.271 -15.2246C220.271 37.2713 260.163 79.8276 309.372 79.8276Z" stroke="white" stroke-width="28"/>
</g>
</g>
<defs>
<linearGradient id="paint0_linear" x1="40.3511" y1="168.286" x2="366.043" y2="168.286" gradientUnits="userSpaceOnUse">
<stop stop-color="#A74CF2"/>
<stop offset="1" stop-color="#617BFB"/>
</linearGradient>
</defs>
</svg>
