<svg width="109" height="109" viewBox="0 0 109 109" fill="none" xmlns="http://www.w3.org/2000/svg">
<g clip-path="url(#clip0)">
<path d="M15 16.5501V102.352C15 103.264 15.739 104.002 16.6524 104.002H79.4349C80.3465 104.002 81.0873 103.264 81.0873 102.352V33.051C81.0873 33.0145 81.0699 32.9831 81.0664 32.9466C81.0577 32.8021 81.0298 32.6593 80.9827 32.5218C80.9636 32.4696 80.9514 32.4174 80.9287 32.3669C80.8485 32.1876 80.737 32.0239 80.5975 31.8829L64.077 15.3838C63.9376 15.2445 63.772 15.1331 63.5907 15.0531C63.5402 15.0322 63.4914 15.0148 63.4391 14.9991C63.3014 14.9521 63.1567 14.9225 63.0103 14.9138C62.9824 14.919 62.9493 14.9016 62.9144 14.9016H16.6524C15.739 14.8999 15 15.638 15 16.5501ZM75.4451 31.4007H64.5633V20.533L75.4451 31.4007ZM18.3048 18.2004H61.2603V33.051C61.2603 33.9614 61.9993 34.7013 62.9127 34.7013H77.7825V100.703H18.3048V18.2004Z" fill="white"/>
<path d="M84.3903 90.8014V94.1019H89.3458C90.2591 94.1019 90.9982 93.3638 90.9982 92.4516V6.65026C90.9982 5.73809 90.2591 5 89.3458 5H26.565C25.6516 5 24.9126 5.73809 24.9126 6.65026V11.5993H28.2174V8.30052H87.6951V90.8014H84.3903Z" fill="white"/>
<path d="M28.2173 38H67.868V41.3005H28.2173V38Z" fill="white"/>
<path d="M28.2173 28.1001H41.4348V31.4006H28.2173V28.1001Z" fill="white"/>
<path d="M28.2173 47.8999H54.6522V51.2004H28.2173V47.8999Z" fill="white"/>
<path d="M57.9556 47.8999H67.8682V51.2004H57.9556V47.8999Z" fill="white"/>
<path d="M28.2173 57.7996H67.868V61.1001H28.2173V57.7996Z" fill="white"/>
<path d="M28.2173 77.6011H67.868V80.9016H28.2173V77.6011Z" fill="white"/>
<path d="M43.0857 67.7012H67.8682V71.0017H43.0857V67.7012Z" fill="white"/>
<path d="M28.2173 67.7012H39.7824V71.0017H28.2173V67.7012Z" fill="white"/>
<path d="M28.2173 87.501H34.8252V90.8015H28.2173V87.501Z" fill="white"/>
<path d="M38.1299 87.501H67.8679V90.8015H38.1299V87.501Z" fill="white"/>
</g>
<defs>
<clipPath id="clip0">
<rect x="15" y="5" width="76" height="99" fill="white"/>
</clipPath>
</defs>
</svg>
