<svg width="24" height="25" viewBox="0 0 24 25" fill="none" xmlns="http://www.w3.org/2000/svg">
<path d="M18.6469 7.04322C18.6367 7.14447 18.6308 7.25997 18.6281 7.38522L17.1904 8.07185C16.989 8.03885 15.9904 8.09697 14.5009 7.36197C14.1232 7.1756 13.7543 7.0766 13.3999 7.0766C13.0792 7.07705 12.7632 7.15351 12.4777 7.29972C12.1016 7.21835 11.5598 7.00985 11.2429 7.0106C10.5259 7.01435 8.89575 7.59822 8.44425 7.6481C8.0025 7.69647 7.54763 7.81797 7.08975 8.01147C6.25763 7.76922 5.21438 7.3736 4.65562 7.15497L0.75 4.30835V13.4621L3.62025 14.8278C3.66188 14.7791 3.7095 14.7041 3.76125 14.6111L3.85013 14.6523C3.89363 14.7648 3.94163 14.877 3.99412 14.9883C3.67913 15.5186 3.64162 16.116 3.89325 16.6354C4.10888 17.0797 4.5105 17.3917 4.95787 17.4791C4.98225 17.7558 5.07525 18.0236 5.232 18.2557C5.51325 18.6708 5.96025 18.9187 6.42863 18.9187C6.471 18.9187 6.51338 18.9169 6.55538 18.912C6.62213 19.0924 6.72 19.2603 6.84713 19.4058C7.12988 19.731 7.52588 19.9173 7.93313 19.9173C7.96313 19.9173 7.99237 19.9166 8.022 19.9144C8.07375 20.1109 8.16188 20.2968 8.28487 20.4626C8.568 20.8451 9.00488 21.0727 9.45413 21.0727C9.73312 21.0727 9.99975 20.9872 10.2349 20.8271C10.6894 21.1188 11.0846 21.324 11.4352 21.45C11.6111 21.5216 11.7941 21.5583 11.9809 21.5583C12.4226 21.5583 12.8512 21.3521 13.1572 20.9913C13.2709 20.8571 13.3631 20.7071 13.4306 20.5466C13.5628 20.5866 13.7001 20.6071 13.8383 20.6073C14.3077 20.6073 14.7529 20.3775 15.0607 19.9755C15.207 19.785 15.3129 19.5666 15.372 19.3338C15.4043 19.3361 15.4361 19.3372 15.468 19.3372C16.0106 19.3372 16.53 19.0188 16.8221 18.5062C16.9753 18.2396 17.0566 17.9377 17.058 17.6302C17.5942 17.5504 18.0664 17.169 18.2962 16.6129C18.5228 16.065 18.4613 15.4605 18.1451 14.9565L19.6058 14.1334C19.6433 14.2616 19.68 14.3797 19.7156 14.4757L23.25 12.5951V4.9241L18.6469 7.04322ZM18.6465 8.1821C18.6698 8.58785 18.7121 9.04647 18.7669 9.52535C18.4669 9.02135 18.0881 8.79147 17.6179 8.6771L18.6465 8.1821ZM16.686 17.0906C15.8805 16.8135 14.2039 14.8425 14.2039 14.8425H14.2369C14.4075 14.8305 14.7761 14.6508 15.1898 14.7367C14.5402 14.1787 13.8259 14.6508 13.3395 14.3617C13.4524 14.7236 13.995 14.8376 14.1341 14.8421L15.7406 16.7103C16.4681 17.556 15.9615 18.6022 15.2321 18.7687C14.7428 18.5306 13.3609 16.887 13.3609 16.887C13.4081 16.8783 13.6883 16.7906 13.9736 16.8281C13.3148 16.3354 12.5677 16.7628 12.1245 16.4535C12.3758 17.0741 13.2034 16.9151 13.29 16.9001L14.1495 17.9974C14.8372 18.8749 14.2969 19.8885 13.5664 20.0257C12.9187 19.7981 12.4984 18.9881 12.4984 18.9881C12.5636 18.9776 12.7819 18.8805 13.0924 18.9255C12.54 18.4413 11.8969 18.8805 11.5103 18.6048C11.7491 19.1253 12.3446 19.0069 12.378 19.0031C12.9735 19.941 12.3559 20.919 11.6179 20.9482H11.6171L11.6164 20.9486C11.1731 20.8717 10.7089 20.5174 10.1846 20.1536C10.3646 19.9541 10.5236 19.6035 10.5236 19.6035C11.0501 18.6502 10.3669 17.8072 9.6615 17.8796C10.2338 18.036 10.6628 18.7665 10.2161 19.5776L10.02 19.9076C9.807 20.2957 9.47438 20.5301 9.22988 20.5012C8.85338 20.4555 8.32275 19.9057 8.54587 19.1302C8.63212 19.0515 9.46387 17.7791 9.46387 17.7791C10.0357 16.8581 9.39375 15.9765 8.6865 16.0065C9.24975 16.1966 9.64462 16.9518 9.159 17.7356L8.48287 18.7897C8.25225 19.1625 7.95375 19.3736 7.66913 19.3346C7.22738 19.2746 6.91762 18.7357 6.9885 18.1796C6.98475 18.183 7.47525 17.6343 7.47525 17.6343C8.127 16.7827 7.569 15.8317 6.86287 15.7818C7.4055 16.0346 7.72875 16.8311 7.17487 17.556L6.93563 17.8492C6.67313 18.1935 6.357 18.3686 6.08025 18.2996C5.59725 18.1785 5.346 17.2747 5.57438 17.0283C5.754 16.8345 6.25837 16.2206 6.25837 16.2206C6.90975 15.3686 6.3525 14.418 5.64563 14.3673C6.18863 14.6209 6.51187 15.4173 5.958 16.1426L5.71875 16.4351C5.45475 16.7824 5.1375 16.9567 4.85887 16.8858C4.27837 16.7388 3.9885 15.8426 4.54387 15.1151C4.54387 15.1151 4.35525 14.5158 4.27012 14.2597L3.99038 14.13C4.64625 12.6019 5.637 9.2291 5.68275 8.1086C6.16575 8.28073 7.44075 8.64747 7.57612 8.64822L7.57538 8.64897C8.94788 8.21772 10.3864 8.26535 11.0426 8.01185C11.2552 7.93085 11.6783 7.9256 12.1268 8.1821C11.8466 8.42772 11.5819 8.72022 11.307 8.99285C10.65 9.64497 8.20725 10.662 8.67825 11.7315C9.08475 12.6543 10.2296 13.5986 12.15 12.1162L13.23 11.9677L14.9096 12.7965L17.0621 15.0071C17.8298 15.7938 17.3951 16.8618 16.686 17.0906ZM17.226 14.655C16.9792 14.1937 16.2101 13.4373 15.4841 12.819L15.4796 12.8145C15.8145 12.828 16.1659 12.2887 16.62 12.2471C16.3027 12.0048 15.777 12.2846 15.6131 12.3288C14.7097 12.5718 13.3057 11.4352 13.3057 11.4352L11.9625 11.6287C11.9625 11.6287 10.365 13.5784 9.01912 11.9722C8.28825 11.1 10.9369 9.96072 11.5894 9.31235C12.4253 8.48172 13.17 7.46547 14.5451 8.15772C15.6874 8.73372 16.1374 8.6981 17.6696 8.96472C18.1264 9.0446 18.4429 9.25385 18.7822 9.66222C18.942 11.0062 19.2004 12.4969 19.4482 13.5341C19.3204 13.6417 18.2243 14.379 17.226 14.655Z" fill="#333333"/>
</svg>
