<svg width="40" height="40" viewBox="0 0 40 40" fill="none" xmlns="http://www.w3.org/2000/svg">
<g clip-path="url(#clip0)">
<path d="M28.3965 -0.000976562H11.6032C9.9845 -0.000976562 8.6665 1.31702 8.6665 2.93569V37.0617C8.6665 38.681 9.9845 39.999 11.6032 39.999H28.3958C30.0152 39.999 31.3332 38.681 31.3332 37.0624V2.93569C31.3332 1.31702 30.0152 -0.000976562 28.3965 -0.000976562ZM9.99984 5.33236H29.9998V30.6657H9.99984V5.33236ZM11.6032 1.33236H28.3958C29.2805 1.33236 29.9998 2.05169 29.9998 2.93569V3.99902H9.99984V2.93569C9.99984 2.05169 10.7192 1.33236 11.6032 1.33236ZM28.3965 38.6657H11.6032C10.7192 38.6657 9.99984 37.9464 9.99984 37.0624V31.999H29.9998V37.0624C29.9998 37.9464 29.2805 38.6657 28.3965 38.6657Z" fill="white" stroke="white" stroke-width="0.3"/>
<path d="M20.0002 32.6658C18.5295 32.6658 17.3335 33.8618 17.3335 35.3324C17.3335 36.8031 18.5295 37.9991 20.0002 37.9991C21.4708 37.9991 22.6668 36.8031 22.6668 35.3324C22.6668 33.8618 21.4708 32.6658 20.0002 32.6658ZM20.0002 36.6658C19.2648 36.6658 18.6668 36.0678 18.6668 35.3324C18.6668 34.5971 19.2648 33.9991 20.0002 33.9991C20.7355 33.9991 21.3335 34.5971 21.3335 35.3324C21.3335 36.0678 20.7355 36.6658 20.0002 36.6658Z" fill="white" stroke="white" stroke-width="0.3"/>
<path d="M17.3332 3.33236H19.9998C20.3685 3.33236 20.6665 3.03436 20.6665 2.66569C20.6665 2.29702 20.3685 1.99902 19.9998 1.99902H17.3332C16.9645 1.99902 16.6665 2.29702 16.6665 2.66569C16.6665 3.03436 16.9645 3.33236 17.3332 3.33236Z" fill="white" stroke="white" stroke-width="0.3"/>
<path d="M22.0002 3.33236H22.6668C23.0355 3.33236 23.3335 3.03436 23.3335 2.66569C23.3335 2.29702 23.0355 1.99902 22.6668 1.99902H22.0002C21.6315 1.99902 21.3335 2.29702 21.3335 2.66569C21.3335 3.03436 21.6315 3.33236 22.0002 3.33236Z" fill="white" stroke="white" stroke-width="0.3"/>
<path d="M37.7412 3.04511C37.4805 2.78444 37.0592 2.78444 36.7985 3.04511C36.5379 3.30578 36.5379 3.72711 36.7985 3.98778C39.2892 6.47844 39.2892 10.5311 36.7985 13.0224C36.5379 13.2831 36.5379 13.7044 36.7985 13.9651C36.9285 14.0951 37.0992 14.1604 37.2699 14.1604C37.4405 14.1604 37.6112 14.0951 37.7412 13.9651C40.7519 10.9551 40.7519 6.05578 37.7412 3.04511Z" fill="white" stroke="white" stroke-width="0.3"/>
<path d="M34.9341 4.56244C34.6734 4.30178 34.2521 4.30178 33.9914 4.56244C33.7307 4.82311 33.7307 5.24444 33.9914 5.50511C34.8161 6.32978 35.2701 7.42844 35.2701 8.59778C35.2701 9.76711 34.8161 10.8651 33.9914 11.6898C33.7307 11.9504 33.7307 12.3718 33.9914 12.6324C34.1214 12.7624 34.2921 12.8278 34.4627 12.8278C34.6334 12.8278 34.8041 12.7624 34.9341 12.6324C36.0107 11.5564 36.6034 10.1231 36.6034 8.59778C36.6034 7.07244 36.0114 5.63844 34.9341 4.56244Z" fill="white" stroke="white" stroke-width="0.3"/>
<path d="M3.20164 3.98778C3.46231 3.72711 3.46231 3.30578 3.20164 3.04511C2.94098 2.78444 2.51964 2.78444 2.25898 3.04511C-0.75169 6.05578 -0.75169 10.9544 2.25898 13.9651C2.38898 14.0951 2.55964 14.1604 2.73031 14.1604C2.90098 14.1604 3.07164 14.0951 3.20164 13.9651C3.46231 13.7044 3.46231 13.2831 3.20164 13.0224C0.71031 10.5318 0.71031 6.47911 3.20164 3.98778Z" fill="white" stroke="white" stroke-width="0.3"/>
<path d="M6.00848 4.37836C5.74782 4.11769 5.32648 4.11769 5.06582 4.37836C3.98915 5.45436 3.39648 6.8877 3.39648 8.41303C3.39648 9.93836 3.98915 11.3717 5.06582 12.4484C5.19582 12.5784 5.36648 12.6437 5.53715 12.6437C5.70782 12.6437 5.87848 12.5784 6.00848 12.4484C6.26915 12.1877 6.26915 11.7664 6.00848 11.5057C5.18382 10.681 4.72982 9.58236 4.72982 8.41303C4.72982 7.2437 5.18315 6.14569 6.00848 5.32103C6.26848 5.06103 6.26848 4.63903 6.00848 4.37836Z" fill="white" stroke="white" stroke-width="0.3"/>
</g>
<defs>
<clipPath id="clip0">
<rect width="40" height="40" fill="white" transform="translate(0 -0.000976562)"/>
</clipPath>
</defs>
</svg>
