<svg width="178" height="360" viewBox="0 0 178 360" fill="none" xmlns="http://www.w3.org/2000/svg">
<path d="M43.5708 199.675C31.9474 236.928 27.2432 277.046 25.188 315.692C25.1309 316.856 26.09 318.191 27.2546 318.408C35.5783 319.983 43.7992 320.542 52.2598 320.017C56.0734 319.778 61.2686 319.39 62.7415 315.075C65.3448 307.44 65.2877 298.412 66.3039 290.434C67.5941 280.265 68.8729 270.107 70.1631 259.937C72.5723 240.888 77.2194 220.778 77.0595 201.569C77.0595 200.907 76.9796 200.291 76.9111 199.663H43.5708V199.675Z" fill="#B17958"/>
<path opacity="0.5" d="M43.5708 199.675C31.9474 236.928 27.2432 277.046 25.188 315.692C25.1309 316.856 26.09 318.191 27.2546 318.408C35.5783 319.983 43.7992 320.542 52.2598 320.017C56.0734 319.778 61.2686 319.39 62.7415 315.075C65.3448 307.44 65.2877 298.412 66.3039 290.434C67.5941 280.265 68.8729 270.107 70.1631 259.937C72.5723 240.888 77.2194 220.778 77.0595 201.569C77.0595 200.907 76.9796 200.291 76.9111 199.663H43.5708V199.675Z" fill="#B17958"/>
<path d="M149.574 282.936C154.141 291.998 159.051 302.019 165.993 309.632C166.004 309.735 166.027 309.826 166.118 309.917C166.232 310.031 166.347 310.145 166.461 310.26C167.488 312.885 168.527 315.533 169.567 318.192C169.669 318.454 169.818 318.66 170 318.842C170.56 318.728 171.119 318.626 171.679 318.489C171.976 317.998 172.261 317.518 172.512 317.062C172.809 316.514 173.095 315.978 173.369 315.441C171.108 292.763 155.214 271.443 145.737 251.401C139.64 238.504 134.593 225.173 130.3 211.579C129.741 209.81 129.227 208.007 128.747 206.204C128.256 204.024 127.754 201.855 127.24 199.675H119.979C120.584 201.832 121.2 203.955 121.794 206.033C124.694 221.749 130.437 237.454 135.769 251.663C139.743 262.358 144.436 272.744 149.574 282.936Z" fill="#B17958"/>
<path d="M132.858 317.118C142.712 322.072 152.885 319.333 163.207 320.018C165.947 319.641 168.665 319.162 171.359 318.534C171.473 317.963 171.416 317.335 171.062 316.719C158.16 294.417 146.754 271.328 136.923 247.508C130.472 231.872 125.676 215.711 120.55 199.663H93.4434C93.5119 200.576 93.5918 201.489 93.706 202.437C94.2883 207.093 95.0076 211.739 95.6013 216.395C95.6356 216.669 95.6813 216.955 95.7269 217.24C100.671 241.528 109.771 265.541 118.106 288.539C120.983 296.517 124.203 312.77 132.858 317.118Z" fill="#B17958"/>
<path opacity="0.5" d="M132.858 317.118C142.712 322.072 152.885 319.333 163.207 320.018C165.947 319.641 168.665 319.162 171.359 318.534C171.473 317.963 171.416 317.335 171.062 316.719C158.16 294.417 146.754 271.328 136.923 247.508C130.472 231.872 125.676 215.711 120.55 199.663H93.4434C93.5119 200.576 93.5918 201.489 93.706 202.437C94.2883 207.093 95.0076 211.739 95.6013 216.395C95.6356 216.669 95.6813 216.955 95.7269 217.24C100.671 241.528 109.771 265.541 118.106 288.539C120.983 296.517 124.203 312.77 132.858 317.118Z" fill="#B17958"/>
<path d="M85.4759 196.217C80.9658 208.498 79.6984 222.491 77.7802 235.388C75.9419 247.771 74.5603 260.2 73.4414 272.664C71.1578 298.081 69.7648 324.149 70.9979 349.727C70.6554 349.362 70.3015 348.996 69.9932 348.597C68.8971 347.159 66.2367 347.912 66.8532 349.921C67.9608 353.493 69.2282 355.867 72.2539 358.218C72.9732 358.013 73.704 357.808 74.4119 357.556C75.4852 356.495 76.5699 355.399 77.7459 354.452C77.7802 328.213 77.6089 302.202 79.6641 275.985C80.7717 261.867 82.393 247.783 84.2998 233.744C85.9668 221.52 89.1638 209.103 89.6206 196.776C89.7119 194.265 86.2523 194.094 85.4759 196.217Z" fill="#B17958"/>
<path opacity="0.5" d="M85.4759 196.217C80.9658 208.498 79.6984 222.491 77.7802 235.388C75.9419 247.771 74.5603 260.2 73.4414 272.664C71.1578 298.081 69.7648 324.149 70.9979 349.727C70.6554 349.362 70.3015 348.996 69.9932 348.597C68.8971 347.159 66.2367 347.912 66.8532 349.921C67.9608 353.493 69.2282 355.867 72.2539 358.218C72.9732 358.013 73.704 357.808 74.4119 357.556C75.4852 356.495 76.5699 355.399 77.7459 354.452C77.7802 328.213 77.6089 302.202 79.6641 275.985C80.7717 261.867 82.393 247.783 84.2998 233.744C85.9668 221.52 89.1638 209.103 89.6206 196.776C89.7119 194.265 86.2523 194.094 85.4759 196.217Z" fill="#B17958"/>
<path d="M55.4002 197.963C54.7266 201.227 54.0643 204.457 53.3907 207.607C49.794 224.374 46.9852 241.334 44.7131 258.385C41.379 283.415 38.0907 310.465 38.8899 336.442C38.5931 343.016 38.5816 349.567 38.7301 355.901C38.8214 356.05 38.9013 356.198 39.0041 356.335C39.2096 356.632 39.4266 356.94 39.6435 357.225C39.6435 357.225 39.6435 357.225 39.6549 357.225C39.6549 357.225 39.6549 357.225 39.6664 357.225C43.9937 358.161 48.344 359.599 52.7284 359.85C55.8113 360.022 58.9512 360.067 62.0569 359.873C63.8381 359.588 65.6307 359.348 67.4005 359.268C69.7754 358.88 72.1161 358.332 74.3882 357.533C74.8564 357.077 75.3245 356.609 75.8041 356.152C74.6623 325.416 75.5415 294.326 77.4026 263.658C78.3503 248.102 79.7889 232.58 81.5473 217.115C82.2666 210.757 83.2942 204.354 84.2191 197.952H55.4002V197.963Z" fill="#B17958"/>
<path opacity="0.1" d="M55.4002 197.963C54.7266 201.227 54.0643 204.457 53.3907 207.607C49.794 224.374 46.9852 241.334 44.7131 258.385C41.379 283.415 38.0907 310.465 38.8899 336.442C38.5931 343.016 38.5816 349.567 38.7301 355.901C38.8214 356.05 38.9013 356.198 39.0041 356.335C39.2096 356.632 39.4266 356.94 39.6435 357.225C39.6435 357.225 39.6435 357.225 39.6549 357.225C39.6549 357.225 39.6549 357.225 39.6664 357.225C43.9937 358.161 48.344 359.599 52.7284 359.85C55.8113 360.022 58.9512 360.067 62.0569 359.873C63.8381 359.588 65.6307 359.348 67.4005 359.268C69.7754 358.88 72.1161 358.332 74.3882 357.533C74.8564 357.077 75.3245 356.609 75.8041 356.152C74.6623 325.416 75.5415 294.326 77.4026 263.658C78.3503 248.102 79.7889 232.58 81.5473 217.115C82.2666 210.757 83.2942 204.354 84.2191 197.952H55.4002V197.963Z" fill="#B17958"/>
<path d="M156.892 185.956C156.789 185.032 155.932 184.005 154.871 184.415C150.144 186.23 143.955 187.611 140.073 190.978C139.616 191.378 139.993 192.119 140.553 192.119C140.998 192.119 141.455 192.085 141.9 192.04C141.774 192.998 142.151 194.071 142.996 194.596C144.583 195.566 146.501 195.532 147.951 196.765C149.059 197.712 149.321 199.127 149.824 200.428C149.561 200.6 149.31 200.816 149.105 201.125C148.111 202.563 149.196 204.309 150.612 204.834C159.883 208.235 157.36 190.031 156.892 185.956Z" fill="#B17958"/>
<path d="M155.729 182.121C156.037 179.827 156.403 177.533 156.859 175.25C157.076 174.143 157.27 173.013 157.476 171.883C158.549 164.567 159.417 157.228 160.445 149.901C163.413 128.809 166.245 107.706 169.202 86.6138C171.6 69.4709 174.569 52.2253 176.692 35.0025C176.841 31.1219 177.058 27.2414 177.4 23.3608C177.686 20.1651 177.56 16.6498 177.823 13.2486C177.286 12.8377 176.727 12.5067 176.441 12.3469C173.507 10.7719 170.926 8.76311 168.14 6.99404C166.496 5.94401 164.829 8.1582 165.948 9.55063C163.516 16.8666 162.5 24.7761 161.095 32.4116C159.097 37.6504 157.921 43.3114 157.008 48.9953C155.615 54.1085 154.405 59.2673 154.233 64.4033C154.222 64.8256 154.347 65.168 154.576 65.4305C152.509 78.0537 150.557 90.6998 148.65 103.357C144.745 129.368 139.036 156.407 138.91 182.737C138.91 183.764 139.824 184.484 140.749 184.575C140.749 184.826 140.737 185.066 140.737 185.317C138.305 186.275 135.908 187.348 133.829 188.809C132.391 189.814 132.653 192.758 134.846 192.496C139.299 191.982 143.5 190.156 147.668 188.604C149.906 187.771 152.84 187.143 154.918 185.716C155.204 184.506 155.478 183.308 155.729 182.121Z" fill="#999999"/>
<path d="M168.665 8.19259C168.22 7.63333 167.82 7.05125 167.455 6.50341C147.085 2.39459 125.506 1.23042 105.616 0.454308C89.1395 -0.184841 71.613 -0.310388 54.3833 1.15053C45.934 1.20759 37.2907 2.69133 30.143 4.56313C29.3324 4.77998 28.9442 5.48761 28.8985 6.21807C25.0278 11.9476 23.2694 19.7429 21.8993 27.173C15.4253 46.2448 13.5985 68.0672 11.3834 86.3514C9.2254 104.122 7.85524 121.995 7.11307 139.88C6.45083 155.87 5.52599 172.671 7.95801 188.581C8.34622 189.768 8.78009 190.944 9.30531 192.074C9.32815 192.108 9.33957 192.131 9.36241 192.165C19.6271 192.039 29.9832 190.373 40.2251 189.688C52.3395 188.889 64.511 188.707 76.6483 188.764C88.8084 188.821 100.946 189.414 113.071 190.305C120.687 190.852 128.417 192.074 136.124 192.884C136.958 192.77 137.791 192.61 138.625 192.336C140.623 191.674 141.662 189.837 142.667 187.885C145.681 175.342 146.024 161.725 147.451 148.977C149.209 133.203 151.333 117.476 153.719 101.782C155.969 86.9564 158.583 72.1874 161.381 57.4528C163.973 43.8252 167.946 30.072 168.974 16.1705C168.768 13.4998 168.642 10.8519 168.665 8.19259Z" fill="#E6E6E6"/>
<path d="M154.632 207.733C154.644 207.687 154.644 207.642 154.655 207.585C154.381 203.681 154.004 199.458 152.371 196.559C150.579 193.375 147.108 192.234 143.694 191.378C143.385 191.138 143.009 190.944 142.541 190.818C118.814 184.667 94.277 181.551 69.8312 180.272C47.8175 179.131 21.8873 177.83 2.14575 189.323C-0.263437 190.727 1.81462 193.854 3.83559 193.306C3.83559 193.318 3.83559 193.318 3.83559 193.329C25.2899 185.488 47.2694 185.408 69.8312 186.458C93.2608 187.554 116.268 191.4 139.161 196.274C139.172 196.285 139.184 196.297 139.195 196.297C140.771 197.244 142.072 197.849 143.328 199.264C144.539 200.622 144.459 202.586 145.566 203.978C145.715 205.576 145.943 207.174 146.08 208.715C146.251 210.621 146.126 212.629 147.108 214.124C146.594 214.707 146.092 215.346 145.589 216.133C145.041 216.966 145.418 217.742 146.08 218.165C146.092 218.427 146.171 218.69 146.286 218.929C146.263 218.998 146.24 219.066 146.229 219.135C146.092 219.785 146.731 220.299 147.336 219.98C149.962 218.61 153.479 214.707 154.278 211.739C154.609 210.518 154.746 209.114 154.632 207.733Z" fill="#B17958"/>
<path opacity="0.5" d="M154.632 207.733C154.644 207.687 154.644 207.642 154.655 207.585C154.381 203.681 154.004 199.458 152.371 196.559C150.579 193.375 147.108 192.234 143.694 191.378C143.385 191.138 143.009 190.944 142.541 190.818C118.814 184.667 94.277 181.551 69.8312 180.272C47.8175 179.131 21.8873 177.83 2.14575 189.323C-0.263437 190.727 1.81462 193.854 3.83559 193.306C3.83559 193.318 3.83559 193.318 3.83559 193.329C25.2899 185.488 47.2694 185.408 69.8312 186.458C93.2608 187.554 116.268 191.4 139.161 196.274C139.172 196.285 139.184 196.297 139.195 196.297C140.771 197.244 142.072 197.849 143.328 199.264C144.539 200.622 144.459 202.586 145.566 203.978C145.715 205.576 145.943 207.174 146.08 208.715C146.251 210.621 146.126 212.629 147.108 214.124C146.594 214.707 146.092 215.346 145.589 216.133C145.041 216.966 145.418 217.742 146.08 218.165C146.092 218.427 146.171 218.69 146.286 218.929C146.263 218.998 146.24 219.066 146.229 219.135C146.092 219.785 146.731 220.299 147.336 219.98C149.962 218.61 153.479 214.707 154.278 211.739C154.609 210.518 154.746 209.114 154.632 207.733Z" fill="#B17958"/>
<path d="M148.946 213.36C148.923 211.26 148.501 209.114 148.169 207.106C147.895 205.428 147.519 203.602 146.925 201.878C146.605 200.246 146.114 198.705 145.189 197.438C145.052 197.256 144.858 197.142 144.653 197.107C143.066 195.704 140.725 194.836 138.738 194.437C138.693 194.425 138.658 194.414 138.613 194.414C130.106 190.899 120.127 189.734 111.347 188.525C98.8897 186.801 86.2958 186.208 73.7475 185.466C61.0507 184.712 48.3769 184.336 35.6687 184.895C24.3421 185.397 10.9261 186.288 0.70702 191.481C0.0219446 191.834 -0.103641 192.611 0.147553 193.227C-0.012298 193.581 -0.0351471 194.014 0.0447783 194.38C0.63851 197.244 1.36927 200.086 2.21419 202.883C2.96778 205.371 3.48158 208.293 5.49113 210.062C5.42262 210.929 5.90217 211.762 7.05538 211.705C18.2221 211.1 29.366 208.601 40.5327 207.539C51.7908 206.455 63.1288 206.364 74.4325 206.82C99.3921 207.836 122.125 214.764 146.206 220.311C147.758 220.665 148.98 219.261 148.934 217.96C149.346 216.487 149.231 214.924 148.946 213.36Z" fill="#B17958"/>
<path d="M108.002 54.8844L103.218 54.3251L105.067 38.5062C105.878 31.6011 100.911 25.3237 94.0033 24.5134C87.0955 23.7031 80.8156 28.6679 80.0049 35.573L78.1552 51.3919L73.3711 50.8326L75.2208 35.0137C76.3398 25.4721 85.0174 18.6127 94.5628 19.7312C104.108 20.8497 110.97 29.5239 109.851 39.0655L108.002 54.8844Z" fill="#73726F"/>
<path d="M112.523 79.697C112.398 80.7242 111.473 81.4547 110.445 81.3406L64.8649 75.9991C63.8373 75.8736 63.1066 74.9491 63.2207 73.9219L66.6918 44.3156C66.8174 43.2883 67.7422 42.5579 68.7698 42.672L114.35 48.0135C115.378 48.139 116.109 49.0635 115.994 50.0907L112.523 79.697Z" fill="#FFCB02"/>
<path d="M136.523 117.271L25.9629 102.536L28.5433 80.3483L139.092 95.0829L136.523 117.271Z" fill="white"/>
<path d="M133.121 146.557L22.5723 131.822L25.1413 109.635L135.701 124.369L133.121 146.557Z" fill="white"/>
<path d="M38.5685 91.6013L37.0157 93.4617V93.4959L39.4934 93.4731V94.5916L37.0157 93.9981V94.0324L38.5914 96.1895L37.5637 96.6574L36.5818 94.2492H36.5475L35.4857 96.4292L34.5494 95.7215L36.1022 93.9182V93.884L33.6816 93.8954V92.7769L36.0908 93.3818V93.3476L34.5494 91.1562L35.5428 90.7111L36.559 93.1079H36.5932L37.598 90.9393L38.5685 91.6013Z" fill="black"/>
<path d="M45.3752 92.4345L43.8223 94.2949V94.3292L46.3 94.3063V95.4248L43.8223 94.8313V94.8656L45.398 97.0227L44.3704 97.4906L43.3885 95.0824H43.3542L42.2923 97.2624L41.3561 96.5548L42.9089 94.7515V94.7172L40.4883 94.7286V93.6101L42.8975 94.215V94.1808L41.3561 91.9894L42.3494 91.5443L43.3656 93.9411H43.3999L44.4047 91.7726L45.3752 92.4345Z" fill="black"/>
<path d="M52.1678 93.268L50.615 95.1284V95.1627L53.0927 95.1398V96.2583L50.615 95.6649V95.6991L52.1906 97.8562L51.1516 98.3242L50.1697 95.9159H50.1354L49.0736 98.0959L48.1373 97.3883L49.6901 95.585V95.5507L47.2695 95.5621V94.4436L49.6787 95.0485V95.0143L48.1373 92.8229L49.1421 92.3778L50.1583 94.7746H50.1925L51.1859 92.6061L52.1678 93.268Z" fill="black"/>
<path d="M58.9728 94.1007L57.4199 95.9611V95.9953L59.8976 95.9725V97.091L57.4199 96.4975V96.5317L58.9956 98.6889L57.968 99.1568L56.9861 96.7486H56.9518L55.89 98.9285L54.9537 98.2209L56.5065 96.4176V96.3834L54.0859 96.3948V95.2763L56.4951 95.8812V95.8469L54.9537 93.6556L55.9585 93.2104L56.9747 95.6073H57.0089L58.0023 93.4387L58.9728 94.1007Z" fill="black"/>
<path d="M65.7658 94.9339L64.213 96.7943V96.8286L66.6906 96.8057V97.9242L64.213 97.3307V97.365L65.7886 99.5221L64.761 99.9901L63.7791 97.5818H63.7448L62.6829 99.7618L61.7467 99.0542L63.2995 97.2509V97.2166L60.8789 97.228V96.1095L63.2881 96.7144V96.6802L61.7467 94.4888L62.74 94.0437L63.7562 96.4405H63.7905L64.7953 94.272L65.7658 94.9339Z" fill="black"/>
<path d="M72.5724 95.7673L71.0196 97.6277V97.662L73.4973 97.6391V98.7576L71.0196 98.1642V98.1984L72.5953 100.356L71.5676 100.823L70.5857 98.4152H70.5514L69.4896 100.595L68.5533 99.8876L70.1061 98.0843V98.05L67.6855 98.0614V96.9429L70.0947 97.5478V97.5136L68.5533 95.3222L69.5467 94.8771L70.5629 97.2739H70.5971L71.5905 95.1053L72.5724 95.7673Z" fill="black"/>
<path d="M79.3654 96.6007L77.8125 98.4611V98.4953L80.2902 98.4725V99.591L77.8125 98.9975V99.0317L79.3882 101.189L78.3606 101.657L77.3787 99.2486H77.3444L76.2826 101.429L75.3463 100.721L76.8991 98.9176V98.8834L74.4785 98.8948V97.7763L76.8877 98.3812V98.3469L75.3463 96.1556L76.3511 95.7104L77.3673 98.1073H77.4015L78.3949 95.9387L79.3654 96.6007Z" fill="black"/>
<path d="M35.84 119.963L34.2871 121.824V121.858L36.7648 121.835V122.954L34.2871 122.36V122.395L35.8628 124.552L34.8352 125.02L33.8533 122.611H33.819L32.7571 124.791L31.8209 124.084L33.3737 122.28V122.246L30.9531 122.258V121.139L33.3623 121.744V121.71L31.8209 119.518L32.8142 119.073L33.8304 121.47H33.8647L34.8694 119.302L35.84 119.963Z" fill="black"/>
<path d="M42.6446 120.797L41.0918 122.657V122.692L43.5695 122.669V123.787L41.0918 123.194V123.228L42.6675 125.385L41.6399 125.853L40.6579 123.445H40.6237L39.5618 125.625L38.6256 124.917L40.1784 123.114V123.08L37.7578 123.091V121.973L40.167 122.577V122.543L38.6256 120.352L39.6189 119.907L40.6351 122.304H40.6694L41.6741 120.135L42.6446 120.797Z" fill="black"/>
<path d="M49.4393 121.63L47.8865 123.491V123.525L50.3641 123.502V124.621L47.8865 124.027V124.061L49.4621 126.218L48.4231 126.686L47.4412 124.278H47.4069L46.345 126.458L45.4088 125.75L46.9616 123.947V123.913L44.541 123.924V122.806L46.9502 123.411V123.376L45.4088 121.185L46.4135 120.74L47.4297 123.137H47.464L48.4574 120.968L49.4393 121.63Z" fill="black"/>
<path d="M56.2326 122.463L54.6798 124.323V124.357L57.1575 124.335V125.453L54.6798 124.86V124.894L56.2554 127.051L55.2278 127.519L54.2459 125.111H54.2116L53.1497 127.291L52.2135 126.583L53.7663 124.78V124.746L51.3457 124.757V123.638L53.7549 124.243V124.209L52.2135 122.018L53.2183 121.573L54.2345 123.969H54.2687L55.2621 121.801L56.2326 122.463Z" fill="black"/>
<path d="M63.0372 123.296L61.4844 125.157V125.191L63.9621 125.168V126.287L61.4844 125.693V125.727L63.0601 127.884L62.0325 128.352L61.0505 125.944H61.0163L59.9544 128.124L59.0182 127.416L60.571 125.613V125.579L58.1504 125.59V124.472L60.5596 125.077V125.042L59.0182 122.851L60.0115 122.406L61.0277 124.803H61.062L62.0667 122.634L63.0372 123.296Z" fill="black"/>
<path d="M69.8419 124.13L68.2891 125.99V126.024L70.7668 126.001V127.12L68.2891 126.526V126.561L69.8648 128.718L68.8371 129.186L67.8552 126.778H67.821L66.7591 128.958L65.8228 128.25L67.3757 126.447V126.412L64.9551 126.424V125.305L67.3642 125.91V125.876L65.8228 123.685L66.8162 123.239L67.8324 125.636H67.8666L68.86 123.468L69.8419 124.13Z" fill="black"/>
<path d="M76.6349 124.963L75.0821 126.823V126.858L77.5597 126.835V127.953L75.0821 127.36V127.394L76.6577 129.551L75.6301 130.019L74.6482 127.611H74.6139L73.5521 129.791L72.6158 129.083L74.1686 127.28V127.246L71.748 127.257V126.139L74.1572 126.743V126.709L72.6158 124.518L73.6206 124.073L74.6368 126.47H74.671L75.6644 124.301L76.6349 124.963Z" fill="black"/>
</svg>
