<svg width="187" height="376" viewBox="0 0 187 376" fill="none" xmlns="http://www.w3.org/2000/svg">
<path d="M45.9262 208.409C33.7842 247.122 28.8702 288.811 26.7232 328.971C26.6636 330.18 27.6655 331.568 28.8821 331.793C37.5771 333.43 46.1648 334.011 55.0029 333.466C58.9866 333.217 64.4136 332.813 65.9522 328.33C68.6716 320.396 68.612 311.014 69.6735 302.724C71.0213 292.156 72.3572 281.6 73.705 271.032C76.2216 251.237 81.0761 230.339 80.9091 210.378C80.9091 209.69 80.8256 209.05 80.754 208.397H45.9262V208.409Z" fill="#B17958"/>
<path opacity="0.5" d="M45.9262 208.409C33.7842 247.122 28.8702 288.811 26.7232 328.971C26.6636 330.18 27.6655 331.568 28.8821 331.793C37.5771 333.43 46.1648 334.011 55.0029 333.466C58.9866 333.217 64.4136 332.813 65.9522 328.33C68.6716 320.396 68.612 311.014 69.6735 302.724C71.0213 292.156 72.3572 281.6 73.705 271.032C76.2216 251.237 81.0761 230.339 80.9091 210.378C80.9091 209.69 80.8256 209.05 80.754 208.397H45.9262V208.409Z" fill="#B17958"/>
<path d="M156.66 294.931C161.431 304.349 166.559 314.762 173.811 322.673C173.823 322.78 173.847 322.875 173.942 322.97C174.062 323.088 174.181 323.207 174.3 323.325C175.374 326.053 176.459 328.805 177.544 331.568C177.652 331.841 177.807 332.055 177.998 332.244C178.582 332.126 179.167 332.019 179.751 331.877C180.061 331.367 180.359 330.869 180.622 330.394C180.932 329.825 181.23 329.267 181.516 328.71C179.155 305.143 162.552 282.988 152.652 262.161C146.283 248.759 141.011 234.906 136.526 220.78C135.942 218.942 135.405 217.068 134.904 215.194C134.391 212.928 133.867 210.675 133.33 208.41H125.744C126.376 210.651 127.02 212.857 127.641 215.016C130.67 231.348 136.67 247.668 142.24 262.434C146.39 273.535 151.292 284.34 156.66 294.931Z" fill="#B17958"/>
<path d="M139.199 330.453C149.492 335.601 160.119 332.754 170.901 333.466C173.764 333.074 176.603 332.576 179.417 331.924C179.537 331.331 179.477 330.679 179.107 330.038C165.629 306.863 153.714 282.869 143.445 258.116C136.706 241.868 131.696 225.073 126.341 208.397H98.0254C98.097 209.346 98.1804 210.295 98.2997 211.28C98.908 216.119 99.6594 220.946 100.28 225.785C100.315 226.07 100.363 226.366 100.411 226.663C105.575 251.902 115.081 276.856 123.788 300.755C126.794 309.045 130.158 325.934 139.199 330.453Z" fill="#B17958"/>
<path opacity="0.5" d="M139.199 330.453C149.492 335.601 160.119 332.754 170.901 333.466C173.764 333.074 176.603 332.576 179.417 331.924C179.537 331.331 179.477 330.679 179.107 330.038C165.629 306.863 153.714 282.869 143.445 258.116C136.706 241.868 131.696 225.073 126.341 208.397H98.0254C98.097 209.346 98.1804 210.295 98.2997 211.28C98.908 216.119 99.6594 220.946 100.28 225.785C100.315 226.07 100.363 226.366 100.411 226.663C105.575 251.902 115.081 276.856 123.788 300.755C126.794 309.045 130.158 325.934 139.199 330.453Z" fill="#B17958"/>
<path d="M89.6995 204.816C84.9882 217.578 83.6643 232.119 81.6605 245.521C79.7402 258.39 78.297 271.306 77.1281 284.257C74.7426 310.67 73.2875 337.76 74.5756 364.339C74.2178 363.959 73.8481 363.58 73.526 363.165C72.381 361.67 69.6019 362.453 70.246 364.54C71.403 368.253 72.7269 370.72 75.8877 373.163C76.6391 372.95 77.4024 372.736 78.1419 372.475C79.2631 371.372 80.3962 370.233 81.6247 369.249C81.6605 341.982 81.4816 314.952 83.6285 287.709C84.7854 273.037 86.4791 258.401 88.471 243.813C90.2124 231.111 93.5521 218.206 94.0292 205.397C94.1126 202.788 90.5106 202.61 89.6995 204.816Z" fill="#B17958"/>
<path opacity="0.5" d="M89.6995 204.816C84.9882 217.578 83.6643 232.119 81.6605 245.521C79.7402 258.39 78.297 271.306 77.1281 284.257C74.7426 310.67 73.2875 337.76 74.5756 364.339C74.2178 363.959 73.8481 363.58 73.526 363.165C72.381 361.67 69.6019 362.453 70.246 364.54C71.403 368.253 72.7269 370.72 75.8877 373.163C76.6391 372.95 77.4024 372.736 78.1419 372.475C79.2631 371.372 80.3962 370.233 81.6247 369.249C81.6605 341.982 81.4816 314.952 83.6285 287.709C84.7854 273.037 86.4791 258.401 88.471 243.813C90.2124 231.111 93.5521 218.206 94.0292 205.397C94.1126 202.788 90.5106 202.61 89.6995 204.816Z" fill="#B17958"/>
<path d="M58.2829 206.631C57.5791 210.023 56.8874 213.379 56.1837 216.653C52.4266 234.076 49.4924 251.7 47.1189 269.42C43.6361 295.43 40.2011 323.539 41.036 350.533C40.7259 357.365 40.7139 364.173 40.869 370.755C40.9644 370.909 41.0479 371.064 41.1552 371.206C41.3699 371.514 41.5966 371.835 41.8232 372.131C41.8232 372.131 41.8232 372.131 41.8351 372.131C41.8351 372.131 41.8351 372.131 41.847 372.131C46.3675 373.104 50.9118 374.598 55.4919 374.859C58.7122 375.037 61.9923 375.084 65.2365 374.883C67.0971 374.586 68.9697 374.337 70.8185 374.254C73.2994 373.851 75.7444 373.281 78.118 372.451C78.607 371.977 79.096 371.491 79.597 371.016C78.4042 339.076 79.3226 306.768 81.2668 274.899C82.2568 258.733 83.7596 242.603 85.5964 226.532C86.3478 219.926 87.4213 213.272 88.3874 206.619H58.2829V206.631Z" fill="#B17958"/>
<path opacity="0.1" d="M58.2829 206.631C57.5791 210.023 56.8874 213.379 56.1837 216.653C52.4266 234.076 49.4924 251.7 47.1189 269.42C43.6361 295.43 40.2011 323.539 41.036 350.533C40.7259 357.365 40.7139 364.173 40.869 370.755C40.9644 370.909 41.0479 371.064 41.1552 371.206C41.3699 371.514 41.5966 371.835 41.8232 372.131C41.8232 372.131 41.8232 372.131 41.8351 372.131C41.8351 372.131 41.8351 372.131 41.847 372.131C46.3675 373.104 50.9118 374.598 55.4919 374.859C58.7122 375.037 61.9923 375.084 65.2365 374.883C67.0971 374.586 68.9697 374.337 70.8185 374.254C73.2994 373.851 75.7444 373.281 78.118 372.451C78.607 371.977 79.096 371.491 79.597 371.016C78.4042 339.076 79.3226 306.768 81.2668 274.899C82.2568 258.733 83.7596 242.603 85.5964 226.532C86.3478 219.926 87.4213 213.272 88.3874 206.619H58.2829V206.631Z" fill="#B17958"/>
<path d="M164.305 194.153C164.198 193.192 163.303 192.124 162.194 192.551C157.256 194.437 150.792 195.872 146.736 199.371C146.259 199.786 146.653 200.557 147.237 200.557C147.702 200.557 148.18 200.522 148.645 200.474C148.514 201.47 148.907 202.585 149.79 203.131C151.448 204.139 153.451 204.103 154.966 205.384C156.123 206.369 156.397 207.839 156.922 209.192C156.648 209.369 156.385 209.595 156.171 209.915C155.133 211.409 156.266 213.224 157.745 213.77C167.418 217.304 164.794 198.387 164.305 194.153Z" fill="#B17958"/>
<path d="M163.09 190.168C163.412 187.784 163.793 185.4 164.271 183.028C164.497 181.877 164.7 180.703 164.915 179.529C166.036 171.926 166.942 164.3 168.016 156.686C171.117 134.768 174.075 112.838 177.164 90.9196C179.669 73.1053 182.77 55.1842 184.988 37.2868C185.143 33.2542 185.37 29.2217 185.728 25.1891C186.026 21.8682 185.895 18.2152 186.169 14.6808C185.608 14.2538 185.024 13.9099 184.726 13.7438C181.661 12.1071 178.965 10.0196 176.055 8.18127C174.337 7.09011 172.596 9.39103 173.765 10.838C171.224 18.4405 170.163 26.6598 168.696 34.5944C166.608 40.0384 165.38 45.9212 164.426 51.8277C162.97 57.1411 161.706 62.502 161.527 67.8392C161.515 68.2781 161.647 68.6339 161.885 68.9067C159.726 82.0243 157.687 95.1657 155.695 108.319C151.616 135.349 145.652 163.446 145.521 190.808C145.521 191.876 146.475 192.623 147.441 192.718C147.441 192.979 147.429 193.228 147.429 193.489C144.889 194.485 142.384 195.6 140.213 197.118C138.71 198.162 138.985 201.222 141.275 200.949C145.926 200.415 150.316 198.517 154.669 196.904C157.007 196.039 160.072 195.386 162.243 193.904C162.541 192.647 162.827 191.401 163.09 190.168Z" fill="#999999"/>
<path d="M176.603 9.41484C176.138 8.83368 175.72 8.2288 175.339 7.6595C154.06 3.38974 131.518 2.17998 110.74 1.37347C93.5291 0.709286 75.2207 0.578822 57.2224 2.09696C48.3961 2.15626 39.3672 3.69811 31.9007 5.64322C31.0538 5.86857 30.6483 6.60392 30.6006 7.36299C26.5572 13.3169 24.7204 21.4176 23.2891 29.1387C16.5264 48.9575 14.618 71.6347 12.3041 90.6351C10.0498 109.102 8.61855 127.675 7.84328 146.26C7.15149 162.877 6.18537 180.336 8.72589 196.869C9.13141 198.102 9.58466 199.324 10.1333 200.498C10.1572 200.534 10.1691 200.558 10.193 200.593C20.9156 200.463 31.7337 198.731 42.4325 198.019C55.0874 197.189 67.8019 196.999 80.4806 197.059C93.1832 197.118 105.862 197.735 118.529 198.66C126.484 199.229 134.559 200.498 142.61 201.34C143.481 201.222 144.351 201.056 145.222 200.771C147.309 200.083 148.395 198.174 149.444 196.145C152.593 183.111 152.951 168.961 154.442 155.713C156.279 139.322 158.497 122.978 160.99 106.67C163.34 91.2637 166.071 75.9163 168.993 60.6045C171.701 46.4431 175.851 32.1513 176.925 17.7053C176.71 14.9418 176.579 12.1902 176.603 9.41484Z" fill="#E6E6E6"/>
<path d="M161.931 216.783C161.943 216.735 161.943 216.688 161.955 216.628C161.668 212.572 161.275 208.184 159.569 205.171C157.697 201.862 154.071 200.676 150.504 199.787C150.182 199.538 149.789 199.336 149.3 199.205C124.515 192.813 98.8829 189.575 73.3465 188.246C50.3506 187.06 23.2637 185.708 2.64134 197.652C0.124673 199.111 2.29544 202.36 4.40658 201.791C4.40658 201.803 4.40658 201.803 4.40658 201.815C26.818 193.667 49.7781 193.584 73.3465 194.675C97.8214 195.813 121.855 199.81 145.769 204.875C145.781 204.887 145.793 204.899 145.805 204.899C147.451 205.883 148.811 206.512 150.123 207.982C151.387 209.394 151.303 211.434 152.46 212.881C152.615 214.541 152.854 216.202 152.997 217.803C153.176 219.783 153.045 221.871 154.071 223.425C153.534 224.029 153.009 224.694 152.484 225.512C151.912 226.378 152.305 227.184 152.997 227.623C153.009 227.896 153.093 228.169 153.212 228.418C153.188 228.489 153.164 228.56 153.152 228.631C153.009 229.307 153.677 229.841 154.309 229.509C157.052 228.086 160.726 224.029 161.561 220.946C161.907 219.677 162.05 218.218 161.931 216.783Z" fill="#B17958"/>
<path opacity="0.5" d="M161.931 216.783C161.943 216.735 161.943 216.688 161.955 216.628C161.668 212.572 161.275 208.184 159.569 205.171C157.697 201.862 154.071 200.676 150.504 199.787C150.182 199.538 149.789 199.336 149.3 199.205C124.515 192.813 98.8829 189.575 73.3465 188.246C50.3506 187.06 23.2637 185.708 2.64134 197.652C0.124673 199.111 2.29544 202.36 4.40658 201.791C4.40658 201.803 4.40658 201.803 4.40658 201.815C26.818 193.667 49.7781 193.584 73.3465 194.675C97.8214 195.813 121.855 199.81 145.769 204.875C145.781 204.887 145.793 204.899 145.805 204.899C147.451 205.883 148.811 206.512 150.123 207.982C151.387 209.394 151.304 211.434 152.46 212.881C152.616 214.541 152.854 216.202 152.997 217.803C153.176 219.783 153.045 221.871 154.071 223.425C153.534 224.029 153.009 224.694 152.484 225.512C151.912 226.378 152.305 227.184 152.997 227.623C153.009 227.896 153.093 228.169 153.212 228.418C153.188 228.489 153.164 228.56 153.152 228.631C153.009 229.307 153.677 229.841 154.309 229.509C157.052 228.086 160.726 224.029 161.561 220.946C161.907 219.677 162.05 218.218 161.931 216.783Z" fill="#B17958"/>
<path d="M156.003 222.63C155.979 220.448 155.538 218.218 155.192 216.131C154.906 214.387 154.512 212.49 153.892 210.699C153.558 209.003 153.045 207.402 152.079 206.085C151.936 205.895 151.733 205.777 151.518 205.741C149.861 204.282 147.415 203.381 145.34 202.966C145.292 202.954 145.257 202.942 145.209 202.942C136.323 199.289 125.899 198.079 116.726 196.822C103.714 195.031 90.5579 194.414 77.4498 193.644C64.1866 192.861 50.9472 192.469 37.6721 193.05C25.8402 193.572 11.8256 194.497 1.15068 199.894C0.435039 200.262 0.303831 201.068 0.566233 201.709C0.39925 202.076 0.3754 202.527 0.458891 202.907C1.07911 205.883 1.84245 208.837 2.72507 211.743C3.51228 214.328 4.04902 217.364 6.14823 219.203C6.07666 220.104 6.57761 220.97 7.78227 220.911C19.4472 220.282 31.0883 217.685 42.7532 216.582C54.5135 215.455 66.3573 215.36 78.1654 215.834C104.239 216.89 127.986 224.089 153.141 229.853C154.763 230.221 156.039 228.762 155.991 227.41C156.421 225.88 156.301 224.255 156.003 222.63Z" fill="#B17958"/>
<path d="M61.3 25.6634C62.111 25.5804 63.1606 25.5448 64.4965 25.6278C66.1305 25.7346 67.3113 26.1971 68.0269 26.9206C68.6949 27.5729 69.0527 28.5336 68.9692 29.6604C68.8976 30.8108 68.4921 31.7004 67.8003 32.329C66.8581 33.1948 65.4029 33.5743 63.7808 33.4676C63.2799 33.432 62.8266 33.3845 62.4569 33.2659L62.111 38.3778L60.4531 38.271L61.3 25.6634ZM62.5523 31.9257C62.9101 32.0443 63.3634 32.1155 63.912 32.1511C65.9158 32.2815 67.192 31.392 67.3113 29.6366C67.4187 27.9525 66.2736 27.0511 64.4488 26.9325C63.7212 26.885 63.1725 26.9087 62.8744 26.968L62.5523 31.9257Z" fill="black"/>
<path d="M75.1478 39.2438L75.0882 38.0815H75.0285C74.468 38.7694 73.4303 39.3506 72.1183 39.2557C70.2457 39.1371 69.3869 37.7613 69.4704 36.4329C69.6135 34.215 71.6769 33.1357 75.2432 33.3848L75.2552 33.195C75.3029 32.436 75.1836 31.0601 73.2991 30.9297C72.4403 30.8704 71.5338 31.0839 70.854 31.4515L70.5558 30.3485C71.3549 29.9097 72.4761 29.6606 73.633 29.7318C76.4479 29.9215 77.0085 31.8785 76.8892 33.7169L76.6626 37.1445C76.6149 37.9392 76.591 38.722 76.6745 39.3506L75.1478 39.2438ZM75.2074 34.5471C73.3826 34.3929 71.2833 34.5708 71.1641 36.3499C71.0925 37.4292 71.7843 37.9866 72.6431 38.0459C73.8477 38.129 74.6588 37.4173 74.9808 36.6583C75.0524 36.4922 75.1001 36.3024 75.112 36.1364L75.2074 34.5471Z" fill="black"/>
<path d="M79.6442 33.2066C79.7158 32.1273 79.7516 31.2022 79.7516 30.3364L81.2186 30.4313L81.159 32.2341H81.2306C81.7315 31.0243 82.793 30.3246 83.9142 30.3957C84.105 30.4076 84.2362 30.4313 84.3913 30.4906L84.2839 32.068C84.1169 32.0206 83.938 31.985 83.7114 31.9732C82.5306 31.8901 81.6361 32.7322 81.326 33.9657C81.2783 34.1911 81.2186 34.452 81.1948 34.7366L80.8727 39.6231L79.2148 39.5164L79.6442 33.2066Z" fill="black"/>
<path d="M88.7086 28.2847L88.5297 30.9177L90.9271 31.0719L90.8436 32.3409L88.4462 32.1868L88.1241 37.1326C88.0526 38.2712 88.3269 38.9354 89.2692 38.9947C89.7105 39.0184 90.0325 38.9828 90.2472 38.9472L90.2353 40.2044C89.9013 40.3112 89.3765 40.3705 88.7324 40.3349C87.9572 40.2874 87.3369 39.9909 86.9672 39.5165C86.5259 38.9947 86.4066 38.1644 86.4782 37.0851L86.8121 32.08L85.3809 31.9851L85.4644 30.7161L86.8956 30.8109L87.0388 28.6168L88.7086 28.2847Z" fill="black"/>
<path d="M92.6449 33.6811C92.7045 32.7323 92.7403 31.9614 92.7284 31.1904L94.2193 31.2853V32.8034H94.2551C94.7679 31.9614 95.8891 31.1786 97.4158 31.2853C98.692 31.3683 100.624 32.2579 100.41 35.4009L100.052 40.8804L98.37 40.7736L98.7159 35.4839C98.8113 34.0014 98.3461 32.7441 96.7598 32.6374C95.6506 32.5662 94.7441 33.2897 94.3982 34.1911C94.3028 34.3927 94.255 34.6774 94.2312 34.962L93.8614 40.4771L92.1797 40.3704L92.6449 33.6811Z" fill="black"/>
<path d="M103.987 36.836C103.879 39.0895 105.263 40.1214 106.933 40.2281C108.137 40.3112 108.877 40.1451 109.521 39.9198L109.724 41.1295C109.115 41.3549 108.09 41.5921 106.623 41.4972C103.784 41.3074 102.209 39.3386 102.4 36.5751C102.579 33.8116 104.368 31.736 107.052 31.914C110.058 32.1156 110.69 34.796 110.571 36.4802C110.547 36.8242 110.487 37.0851 110.463 37.2512L103.987 36.836ZM108.984 35.9702C109.08 34.9146 108.722 33.2305 106.837 33.1119C105.144 33.0051 104.297 34.5114 104.082 35.65L108.984 35.9702Z" fill="black"/>
<path d="M112.73 35.3771C112.802 34.2978 112.838 33.3726 112.838 32.5068L114.305 32.6017L114.245 34.4045H114.317C114.817 33.2066 115.879 32.495 117 32.5661C117.191 32.578 117.322 32.6017 117.477 32.6492L117.37 34.2266C117.203 34.1792 117.024 34.1436 116.797 34.1317C115.617 34.0487 114.722 34.8908 114.412 36.1243C114.364 36.3496 114.305 36.6105 114.281 36.8952L113.959 41.7817L112.301 41.6749L112.73 35.3771Z" fill="black"/>
<path d="M118.432 40.3823C118.909 40.7381 119.756 41.1295 120.603 41.1888C121.82 41.2718 122.44 40.7025 122.488 39.9434C122.535 39.1488 122.094 38.6862 120.889 38.1406C119.267 37.4409 118.552 36.4802 118.623 35.389C118.719 33.9065 120.007 32.7797 121.987 32.9102C122.917 32.9695 123.728 33.2897 124.217 33.6337L123.716 34.8197C123.37 34.5706 122.726 34.2267 121.867 34.1674C120.877 34.1081 120.281 34.63 120.245 35.3179C120.198 36.0769 120.722 36.4565 121.891 36.9902C123.454 37.7018 124.217 38.5558 124.122 39.9197C124.014 41.5327 122.679 42.5883 120.496 42.4341C119.482 42.363 118.576 42.0546 117.943 41.6395L118.432 40.3823Z" fill="black"/>
<path opacity="0.3" d="M138.839 165.569C140.712 167.55 132.339 169.637 83.1507 166.506C33.9624 163.375 23.9316 160.315 27.0565 158.465C28.3089 157.717 51.7818 157.065 82.6497 159.034C113.53 160.991 137.837 164.513 138.839 165.569Z" fill="#726396"/>
<path d="M37.0391 126.751C37.1107 126.952 37.8144 126.537 38.4466 127.13C39.7943 128.387 41.6669 130.771 42.4422 129.407C42.5972 129.135 42.7762 130.321 42.8 130.368C42.8 130.368 42.8597 130.688 42.8716 130.831C42.8835 131.021 42.8597 131.483 42.8597 131.483C44.3148 132.29 45.3047 127.534 44.7322 125.826C44.613 125.458 44.7322 125.826 44.4937 125.529C44.4221 125.422 43.8854 124.557 43.8019 124.45C42.9551 123.454 42.5973 123.264 41.4045 123.572C39.198 123.869 36.7767 126.027 37.0391 126.751Z" fill="#FFC27D"/>
<path d="M46.8199 110.241C48.4063 108.224 54.2626 102.531 54.2626 102.531C56.3976 101.156 59.117 102.259 60.5006 104.382C61.8722 106.505 60.7153 108.758 58.8069 110.43C57.0655 111.96 52.8432 117.511 52.8432 117.511L47.1301 126.335L39.2461 121.947C39.2342 121.935 44.6611 112.98 46.8199 110.241Z" fill="#213945"/>
<path d="M46.2719 125.861L45.5682 127.189L39.2109 123.714L40.0816 122.433L46.2719 125.861Z" fill="#E6E7E8"/>
<path d="M39.5215 128.316C39.1399 128.754 38.5316 128.861 38.1738 128.541C37.816 128.233 37.8279 127.616 38.2095 127.177C38.5912 126.738 39.1995 126.631 39.5573 126.952C39.927 127.272 39.9032 127.877 39.5215 128.316Z" fill="#FFC27D"/>
<path d="M40.6172 129.372C40.2355 129.811 39.6273 129.917 39.2695 129.597C38.9116 129.289 38.9236 128.672 39.3053 128.233C39.6869 127.794 40.2952 127.688 40.653 128.008C41.0108 128.328 40.9989 128.933 40.6172 129.372Z" fill="#FFC27D"/>
<path d="M41.7149 130.605C41.3332 131.044 40.725 131.151 40.3671 130.83C40.0093 130.522 40.0212 129.905 40.4029 129.466C40.7846 129.028 41.3929 128.921 41.7507 129.241C42.1085 129.55 42.0966 130.166 41.7149 130.605Z" fill="#FFC27D"/>
<path d="M38.4473 127.13C38.0656 127.569 37.4573 127.676 37.0995 127.355C36.7417 127.047 36.7537 126.43 37.1353 125.991C37.517 125.553 38.1253 125.446 38.4831 125.766C38.8528 126.086 38.8289 126.691 38.4473 127.13Z" fill="#FFC27D"/>
<path d="M53.5109 154.041L53.2246 158.464L57.4946 158.737L57.8524 157.919L61.2278 158.974C61.2278 158.974 64.806 159.556 69.2907 159.484C69.7082 159.484 70.3999 157.184 69.4458 157.065C67.0484 156.757 62.838 154.539 62.838 154.539L53.5109 154.041Z" fill="#272526"/>
<path d="M53.0235 125.6L57.8898 126.299C57.9256 126.276 57.9494 126.264 57.9494 126.264L65.2967 128.861L62.8754 154.515C62.8754 154.515 60.001 155.239 57.5081 155.203C54.1804 155.156 52.8923 154.29 52.8923 154.29C52.8923 154.29 52.7849 139.37 52.606 137.306C51.7234 127.165 53.0235 125.6 53.0235 125.6Z" fill="#1A2E35"/>
<path d="M44.3985 155.643L44.1719 159.153L45.6509 159.9L46.2234 159.616C46.2234 159.616 47.8932 160.529 48.919 161.193C50.5649 162.273 54.9184 163.47 56.8864 163.328C57.5662 163.281 59.4627 161.988 58.926 161.573C54.6679 158.394 52.4733 155.939 52.4733 155.939L44.3985 155.643Z" fill="#272526"/>
<path d="M121.963 159.995L121.701 164.075L120.139 164.621L119.614 164.265C119.614 164.265 117.849 164.953 116.739 165.486C114.962 166.34 110.501 166.981 108.569 166.601C107.901 166.471 106.184 164.941 106.78 164.609C111.408 161.999 113.901 159.841 113.901 159.841L121.963 159.995Z" fill="#272526"/>
<path d="M46.4015 127.32L51.2083 128.34C51.244 128.328 51.2679 128.316 51.2679 128.316L58.4243 131.412L54.2617 156.84C54.2617 156.84 51.3395 157.362 48.8705 157.161C45.5547 156.888 44.3262 155.939 44.3262 155.939C44.3262 155.939 45.2446 141.054 45.1969 138.979C44.9941 128.791 46.4015 127.32 46.4015 127.32Z" fill="#213945"/>
<path d="M45.1973 135.491C45.2092 133.416 45.2688 131.233 45.3881 129.976C45.4716 129.348 49.5865 126.762 49.5865 126.762C49.6223 126.738 49.6462 126.738 49.6462 126.738L65.1397 130.356C65.1397 130.356 64.8535 133.985 64.5553 136.701C64.3883 136.713 64.5553 136.701 64.2691 136.677C64.0186 136.665 63.2194 134.886 63.2194 134.886L62.2056 136.594C56.3255 136.345 46.5808 136.12 45.1973 135.491Z" fill="#1A2E35"/>
<path d="M67.7166 111.212C67.5496 105.935 61.3474 101.036 56.0516 101.416L55.6819 101.439C50.3861 101.819 47.6429 100.491 46.2474 110.726C45.6748 114.937 44.0527 132.526 44.0527 132.526C44.8757 133.202 55.4314 133.854 61.8364 134.186L63.7328 131.28L64.5797 134.328C65.5816 134.376 66.1899 134.4 66.1899 134.4C66.1899 134.4 68.0863 123.037 67.7166 111.212Z" fill="#345A6F"/>
<path d="M99.7183 119.266C101.829 117.796 106.374 112.34 106.374 112.34C107.865 110.288 107.399 107.43 105.336 105.947C103.273 104.465 102.259 104.524 99.1696 107.299L93.2537 112.684L83.7715 116.906L87.6479 124.817C87.6717 124.817 96.8557 121.259 99.7183 119.266Z" fill="#345A6F"/>
<path d="M80.9793 127.343C78.9755 127.592 79.7269 124.864 79.3333 124.164C78.9397 123.476 79.8581 123.571 79.3691 122.99C79.0232 122.587 78.9874 123.014 78.57 122.492C77.8901 121.626 80.0967 120.962 79.9058 120.772C79.9058 120.772 78.9994 120.44 78.892 120.322C77.8186 119.053 82.8519 118.507 84.2593 119.646C84.5694 119.895 84.8795 120.594 85.0704 120.926C85.1419 121.033 85.7621 121.84 85.8337 121.958C86.4658 123.097 86.5135 123.5 85.8098 124.496C84.7245 126.442 81.7307 127.248 80.9793 127.343Z" fill="#FFA969"/>
<path d="M84.1878 117.724L82.8281 118.376L86.0366 124.888L87.3486 124.176L84.1878 117.724Z" fill="#E6E7E8"/>
<path d="M109.748 158.216L109.462 162.64L105.192 162.367L104.941 161.513L101.458 162.13C101.458 162.13 97.8444 162.248 93.3955 161.62C92.9781 161.56 92.6203 159.176 93.5506 159.2C95.9599 159.248 100.421 157.528 100.421 157.528L109.748 158.216Z" fill="#272526"/>
<path d="M123.811 130.771L118.909 131.174C118.873 131.151 118.849 131.139 118.849 131.139L102.521 132.764C102.521 132.764 101.901 140.224 101.435 142.75C101.161 144.244 100.434 157.516 100.434 157.516C100.434 157.516 103.093 158.69 105.574 158.797C108.902 158.951 109.749 158.204 109.749 158.204C109.749 158.204 110.93 141.706 112.242 141.564C113.446 141.754 112.623 160.066 112.623 160.066C112.623 160.066 114.985 160.932 117.478 161.039C120.805 161.193 122.141 160.41 122.141 160.41C122.141 160.41 123.203 144.529 123.513 142.477C125.016 132.408 123.811 130.771 123.811 130.771Z" fill="#213945"/>
<path d="M111.694 138.326L113.173 140.461C116.215 140.532 121.916 140.662 123.848 140.081C124.098 138.018 124.218 136.393 124.265 135.136C124.265 134.507 124.254 133.831 124.254 133.131C124.158 131.233 123.824 130.783 123.824 130.783L118.922 131.186C118.886 131.162 118.862 131.15 118.862 131.15L102.534 132.775C102.534 132.775 102.26 136.072 101.938 139.026C103.333 139.299 106.935 139.963 110.191 140.283L111.694 138.326Z" fill="#1A2E35"/>
<path d="M111.895 135.064L113.314 138.196C116.642 138.279 123.166 138.421 124.419 137.626C124.419 137.626 124.323 119.931 124.287 115.673C124.216 105.354 121.329 106.315 116.117 105.271L115.759 105.2C110.559 104.156 103.784 108.224 102.938 113.443C101.053 125.125 101.459 136.642 101.459 136.642C101.459 136.642 106.158 137.603 110.309 138.018L111.895 135.064Z" fill="#345A6F"/>
<path d="M132.828 117.321C131.993 114.89 128.367 107.595 128.367 107.595C126.805 105.603 123.87 105.745 121.867 107.299C119.863 108.853 119.887 111.569 121.449 113.561L124.717 122.207L126.948 132.455L135.667 130.96C135.678 130.949 133.949 120.618 132.828 117.321Z" fill="#345A6F"/>
<path d="M106.136 97.9648L105.575 106.03C105.313 109.849 112.803 120.393 112.803 120.393C112.803 120.393 121.546 111.26 121.82 107.346L122.393 99.0797L106.136 97.9648Z" fill="white"/>
<path d="M107.566 99.3525L107.113 105.923C106.898 109.031 110.429 110.774 112.933 110.94L113.888 111.011C116.38 111.177 120.114 110.193 120.328 106.991L120.793 100.266L107.566 99.3525Z" fill="#FF8A54"/>
<path d="M115.45 117.214L113.852 114.866L115.259 112.767L113.363 110.964L111.252 112.518L112.385 114.771L110.488 116.894L112.802 120.405L115.45 117.214Z" fill="#ED3E21"/>
<path d="M121.856 107.37L113.376 110.834L105.396 106.327L109.142 114.534L113.352 111.225L117.097 115.044L121.856 107.37Z" fill="#E6E7E8"/>
<path d="M123.74 104.559L126.137 110.916L122.714 112.126L123.561 116.407L112.803 120.404L123.74 104.559Z" fill="#869CA9"/>
<path d="M103.892 103.302L100.695 109.304L103.94 110.929L102.592 115.151L112.802 120.405L103.892 103.302Z" fill="#869CA9"/>
<path opacity="0.3" d="M114.327 110.775C118.633 111.047 124.227 110.087 128.056 107.252C126.529 105.722 124.048 105.829 122.188 107.074C120.804 105.841 118.753 105.829 116.117 105.295L115.759 105.224C112.813 104.631 109.366 105.675 106.766 107.643C106.444 106.991 105.966 106.41 105.334 105.959C103.521 104.655 102.507 104.548 100.182 106.434C103.533 108.96 107.97 110.371 111.62 110.609L114.327 110.775Z" fill="#232323"/>
<path d="M98.1552 79.2017L97.0698 95.8775C96.5569 103.777 105.562 108.141 111.895 108.544L114.329 108.699C120.662 109.102 130.109 106.54 130.645 98.4275L131.755 81.3485L113.41 71.5518L98.1552 79.2017Z" fill="#FFA969"/>
<path d="M97.3789 87.5636L97.9634 78.348C98.4762 70.2948 108.149 67.0332 114.614 67.4364L117.095 67.5906C123.559 67.9939 132.779 71.8248 132.254 80.0915L131.646 89.7222C127.615 89.4731 126.744 82.3687 126.744 82.3687C126.744 82.3687 122.021 83.7564 114.852 83.2938C107.35 82.8194 102.997 80.9929 102.997 80.9929C102.997 80.9929 102.341 87.8838 97.3789 87.5636Z" fill="#232323"/>
<path d="M109.773 93.5761C109.319 93.5523 108.973 93.1491 108.997 92.6984C109.033 92.0935 108.842 91.5242 108.437 91.0735C108.043 90.6228 107.483 90.35 106.886 90.3144C105.658 90.2314 104.572 91.1803 104.477 92.4256C104.441 92.8763 104.036 93.2203 103.582 93.1847C103.129 93.1491 102.783 92.7577 102.819 92.2951C102.986 90.1603 104.847 88.5235 106.982 88.6658C108.031 88.737 108.985 89.1996 109.677 89.9824C110.369 90.7651 110.715 91.7733 110.643 92.8051C110.619 93.2558 110.226 93.5998 109.773 93.5761Z" fill="#3C2415"/>
<path d="M124.384 94.5132C123.93 94.4895 123.585 94.0862 123.608 93.6355C123.692 92.4021 122.738 91.3228 121.497 91.2397C120.269 91.1567 119.195 92.1056 119.1 93.3509C119.064 93.8016 118.671 94.1455 118.205 94.11C117.752 94.0744 117.406 93.683 117.442 93.2204C117.609 91.0856 119.47 89.4488 121.605 89.5911C123.763 89.7335 125.409 91.5837 125.266 93.7304C125.231 94.193 124.837 94.5369 124.384 94.5132Z" fill="#3C2415"/>
<path d="M119.47 99.3164L108.127 98.5929C108.461 102.436 110.644 104.677 113.411 104.855C116.393 105.045 119.017 102.768 119.625 98.415C119.589 98.7353 119.541 99.0318 119.47 99.3164Z" fill="#231F20"/>
<path d="M108.116 96.7188C108.116 96.7306 108.116 96.7425 108.116 96.7543C108.104 96.8848 108.104 97.0271 108.092 97.1576C108.092 97.1932 108.092 97.2287 108.092 97.2643C108.092 97.3948 108.092 97.5253 108.092 97.6439C108.092 97.6676 108.092 97.6794 108.092 97.7032C108.092 97.8455 108.092 97.9878 108.104 98.1301C108.104 98.142 108.104 98.142 108.104 98.1539C108.116 98.308 108.116 98.4504 108.128 98.5927L119.47 99.3162C119.53 99.0315 119.59 98.7232 119.626 98.4148C119.626 98.4029 119.626 98.3911 119.626 98.3911C119.649 98.2487 119.661 98.1064 119.673 97.9641C119.673 97.9404 119.673 97.9285 119.685 97.9048C119.697 97.7625 119.709 97.6083 119.721 97.466L108.116 96.7188Z" fill="white"/>
<path d="M113.412 105.045C115.416 105.176 117.265 104.191 118.433 102.21C117.944 101.285 114.629 101.309 113.603 103.183C112.72 101.214 109.548 100.918 108.832 101.665C109.739 103.729 111.42 104.915 113.412 105.045Z" fill="#ED1C24"/>
<path d="M100.362 92.1533C100.243 93.9917 98.6566 95.3794 96.8078 95.2608C94.9591 95.1422 93.5636 93.5647 93.6829 91.7263L93.8618 88.9036C93.9811 87.0652 95.5674 85.6775 97.4161 85.7961C99.2649 85.9147 100.66 87.4922 100.541 89.3305L100.362 92.1533Z" fill="#FFA969"/>
<path d="M127.88 93.9205C127.761 95.7589 129.156 97.3363 131.005 97.4549C132.854 97.5735 134.44 96.1859 134.559 94.3475L134.738 91.5366C134.858 89.6982 133.462 88.1208 131.613 88.0022C129.765 87.8836 128.178 89.2713 128.059 91.1096L127.88 93.9205Z" fill="#FFA969"/>
<path d="M97.5123 89.0695C97.4169 89.0339 97.3214 89.0221 97.2141 89.0102C96.4865 88.9628 95.8663 89.5083 95.8186 90.2318L95.747 91.24C95.6993 91.9634 96.248 92.5802 96.9756 92.6276C97.0829 92.6395 97.1783 92.6276 97.2857 92.6158L97.5123 89.0695Z" fill="#FF8A54"/>
<path d="M131.407 91.2159C131.229 91.204 131.05 91.2277 130.895 91.287L130.668 94.7028C130.823 94.774 130.99 94.8214 131.169 94.8333C131.897 94.8807 132.517 94.3351 132.564 93.6116L132.624 92.6035C132.684 91.88 132.135 91.2633 131.407 91.2159Z" fill="#FF8A54"/>
<path d="M113.399 123.251C113.375 123.702 112.982 124.046 112.517 124.022C112.063 123.999 111.718 123.607 111.741 123.145C111.765 122.682 112.159 122.35 112.624 122.374C113.089 122.397 113.435 122.789 113.399 123.251Z" fill="#213945"/>
<path d="M113.147 127.236C113.123 127.687 112.73 128.031 112.265 128.007C111.811 127.983 111.466 127.592 111.489 127.13C111.513 126.667 111.907 126.335 112.372 126.359C112.825 126.394 113.171 126.786 113.147 127.236Z" fill="#213945"/>
<path d="M112.86 131.541C112.836 131.992 112.443 132.336 111.978 132.312C111.524 132.289 111.178 131.897 111.202 131.435C111.226 130.984 111.62 130.64 112.085 130.664C112.55 130.699 112.896 131.091 112.86 131.541Z" fill="#213945"/>
<path d="M122.416 131.696L122.821 133.108L116.822 133.653L116.5 132.277L122.416 131.696Z" fill="#869CA9"/>
<path d="M102.877 130.462L102.293 131.803L108.185 133.107L108.674 131.779L102.877 130.462Z" fill="#869CA9"/>
<path d="M135.894 138.457C135.154 138.753 135.405 138.065 134.904 138.054C134.367 138.03 134.558 138.931 134.021 138.836C133.544 138.753 133.687 138.101 133.055 138.148C132.542 138.184 132.912 138.658 132.113 138.694C131.326 138.73 131.826 137.959 131.075 138.137C130.55 138.255 130.932 138.492 130.264 138.611C129.179 138.813 129.596 136.559 129.334 136.642C129.334 136.642 129.047 136.808 128.94 136.891C128.797 137.01 128.463 137.33 128.463 137.33C126.889 136.796 128.642 133.001 130.288 132.278C130.646 132.123 131.421 132.159 131.803 132.135C131.934 132.112 132.936 131.934 133.067 131.934C134.379 131.886 134.761 132.028 135.333 133.108C136.597 134.946 136.609 138.172 135.894 138.457Z" fill="#FFA969"/>
<path d="M127.865 132.288L128.378 133.724L135.284 132.514L134.747 131.114L127.865 132.288Z" fill="#E6E7E8"/>
<path d="M66.5238 95.4503L66.0467 103.527C65.8201 107.346 65.3668 114.178 65.3668 114.178C65.3668 114.178 49.5512 106.694 49.7778 102.768L50.2668 94.5015L66.5238 95.4503Z" fill="white"/>
<path d="M65.7145 96.435L65.3328 103.006C65.1539 106.113 61.4207 107.394 58.9159 107.252L57.9617 107.192C55.4689 107.05 51.8907 105.591 52.0815 102.389L52.4752 95.6641L65.7145 96.435Z" fill="#FF8A54"/>
<path d="M51.1504 102.745L62.7199 106.481L64.8907 104.536L64.6879 107.868L62.8034 106.848L60.5253 109.576L51.1504 102.745Z" fill="#E6E7E8"/>
<path d="M62.8036 106.849L61.5273 108.379L63.0898 109.161L62.7678 111.249L64.7 112.696L64.7596 109.992L63.8889 108.9L64.1752 107.584L62.8036 106.849Z" fill="#ED3E21"/>
<path d="M53.7754 126.121L53.4414 127.473L59.3216 128.778L59.572 127.438L53.7754 126.121Z" fill="#869CA9"/>
<path d="M60.6097 122.836C58.3197 121.674 53.0478 116.894 53.0478 116.894C51.2826 115.067 51.3422 112.173 53.179 110.418C55.0158 108.663 56.0297 108.58 59.4647 110.904L66.0725 115.423L76.0437 118.305L73.3004 126.679C73.3124 126.679 63.7228 124.413 60.6097 122.836Z" fill="#345A6F"/>
<path d="M50.8884 114.961C49.8388 113.703 49.97 111.913 49.7791 111.592C48.4075 113.988 50.5425 116.597 51.3297 117.404C51.3297 117.404 58.2953 121.662 60.5972 122.824C63.7103 124.402 73.2999 126.655 73.2999 126.655L73.7292 125.35C71.1887 124.734 63.5075 122.789 60.6927 121.365C58.176 120.108 52.594 117.001 50.8884 114.961Z" fill="#213945"/>
<path d="M82.1508 127.462C82.5921 126.774 80.5287 126.43 80.5764 126.216C80.6599 125.825 83.4509 127.497 83.9399 126.418C84.3812 125.434 81.0893 125.042 81.292 124.58C81.4471 124.212 84.417 126.169 84.8702 125.03C85.2877 123.987 81.7572 123.334 81.9838 122.836C82.0792 122.635 83.9399 123.69 84.2381 123.062C85.0253 121.46 77.034 118.875 75.8651 120.31C75.6146 120.63 75.4476 121.401 75.3164 121.769C75.2568 121.887 74.8036 122.836 74.7678 122.967C74.3742 124.248 73.8255 124.2 74.7439 125.054C75.221 125.612 76.7358 126.406 77.69 126.833C79.7295 127.758 81.6856 128.161 82.1508 127.462Z" fill="#FFC27D"/>
<path d="M75.8516 118.898L77.2709 119.325L74.9332 126.513L73.502 126.015L75.8516 118.898Z" fill="#E6E7E8"/>
<path d="M48.7524 100.87L47.2734 104.274L51.1975 109.303L56.4694 110.785L56.0877 113.205L65.3553 114.438L68.015 109.706L66.7746 107.773L67.037 106.029L64.6873 103.859L64.6993 112.695L48.7524 100.87Z" fill="#869CA9"/>
<path opacity="0.3" d="M64.6873 104.986C62.3734 102.685 59.0696 101.202 56.052 101.416L55.6822 101.439C53.4518 101.594 51.6865 101.463 50.2672 101.997L48.7524 100.87L47.2734 104.274L47.4643 104.511C49.9571 105.792 52.6527 106.611 55.0381 106.895L57.7934 107.239C60.5486 107.583 63.8524 107.453 66.9416 106.646L67.037 106.029L64.6754 103.847L64.6873 104.986Z" fill="#232323"/>
<path d="M43.7686 74.9082L41.729 91.2756C40.7629 99.0323 49.3744 103.86 55.6005 104.619L57.9859 104.915C64.212 105.686 73.6704 103.693 74.6604 95.7351L76.7477 78.9645L43.7686 74.9082Z" fill="#FFC27D"/>
<path d="M54.4194 89.7456C54.169 89.7338 53.9304 89.6033 53.7753 89.3661C53.3579 88.7138 52.5945 88.2512 51.7119 88.1089C50.71 87.9428 49.6723 88.2156 48.9328 88.8086C48.587 89.0933 48.0621 89.034 47.7759 88.69C47.4896 88.3461 47.5493 87.8242 47.8952 87.5396C49.0044 86.6382 50.4953 86.2587 51.9743 86.4959C53.334 86.7094 54.491 87.4328 55.1589 88.4766C55.3975 88.8561 55.2901 89.3542 54.9084 89.6033C54.7653 89.7219 54.5864 89.7575 54.4194 89.7456Z" fill="#3C2415"/>
<path d="M69.4956 91.608C69.2451 91.5961 69.0065 91.4656 68.8515 91.2284C68.434 90.5761 67.6707 90.1135 66.7881 89.9712C65.7862 89.817 64.7485 90.078 64.009 90.671C63.6631 90.9556 63.1383 90.8963 62.8521 90.5524C62.5658 90.2084 62.6255 89.6866 62.9713 89.4019C64.0806 88.5005 65.5715 88.121 67.0505 88.3582C68.4102 88.5717 69.5671 89.2952 70.2351 90.3389C70.4736 90.7184 70.3662 91.2166 69.9846 91.4656C69.8414 91.5724 69.6626 91.6198 69.4956 91.608Z" fill="#3C2415"/>
<path d="M58.784 100.123C56.3269 99.9693 53.7268 99.2932 52.3671 98.2732C51.3533 97.5142 51.2221 96.7195 51.2936 96.1858C51.3413 95.7707 51.723 95.486 52.1285 95.5335C52.546 95.5809 52.8322 95.9605 52.7845 96.3637C52.7488 96.6246 53.035 96.8856 53.2736 97.0753C55.1581 98.4867 60.5492 99.1509 62.72 98.2377C62.9943 98.1191 63.3402 97.9293 63.376 97.6684C63.4237 97.2532 63.8054 96.9686 64.2109 97.016C64.6284 97.0635 64.9146 97.443 64.8669 97.8463C64.7953 98.38 64.4733 99.1153 63.3044 99.6135C62.1952 100.088 60.5254 100.23 58.784 100.123Z" fill="#D82432"/>
<path d="M43.6628 73.5678C44.3069 68.1595 48.8512 65.4672 53.6698 64.5065C52.1908 61.2686 49.7696 60.3197 51.3798 60.5095C54.0157 60.8179 57.5462 64.3286 57.6536 63.9016C58.5004 60.4621 64.476 58.2323 63.486 59.7148C62.7823 60.7823 61.9474 62.9527 61.4465 64.3404L62.8419 64.5065C69.1157 65.2418 77.8346 70.069 76.8923 77.885L75.7712 87.2548C75.7712 87.2548 75.6996 79.6048 69.9983 78.9406C65.6091 78.4306 64.2971 82.819 59.0371 82.2022C53.7772 81.5855 53.7653 77.0429 48.9347 76.4736C43.4123 75.8213 42.5416 83.0087 42.5059 83.3408L43.6628 73.5678Z" fill="#852913"/>
<path d="M42.506 83.3408V83.354C42.4928 83.3671 42.4928 83.354 42.506 83.3408Z" fill="#DE7540"/>
<path d="M45.1874 87.8003C44.9608 89.603 43.3148 90.884 41.5019 90.6586C39.6889 90.4333 38.4008 88.7965 38.6274 86.9937L38.9733 84.2303C39.1999 82.4275 40.8459 81.1466 42.6588 81.3719C44.4718 81.5973 45.7599 83.234 45.5333 85.0368L45.1874 87.8003Z" fill="#FFC27D"/>
<path d="M72.2036 91.1329C71.977 92.9357 73.2651 94.5724 75.0781 94.7977C76.8911 95.0231 78.5371 93.7422 78.7637 91.9394L79.1096 89.1759C79.3362 87.3731 78.048 85.7364 76.2351 85.5111C74.4221 85.2857 72.7761 86.5666 72.5495 88.3694L72.2036 91.1329Z" fill="#FFC27D"/>
<path d="M42.5516 84.5978C42.4562 84.5622 42.3608 84.5385 42.2534 84.5266C41.5378 84.4436 40.8937 84.9417 40.7983 85.6533L40.679 86.6378C40.5955 87.3494 41.0965 87.9899 41.8121 88.0847C41.9195 88.0966 42.0149 88.0966 42.1103 88.0847L42.5516 84.5978Z" fill="#FF9E61"/>
<path d="M75.8405 88.6662C75.6616 88.6424 75.4946 88.6543 75.3276 88.7017L74.9102 92.0582C75.0533 92.1413 75.2203 92.2006 75.3992 92.2124C76.1148 92.2955 76.7588 91.7973 76.8543 91.0857L76.9735 90.1013C77.057 89.4015 76.5561 88.761 75.8405 88.6662Z" fill="#FF9E61"/>
<path d="M82.5057 119.741C82.6011 120.274 81.7543 120.879 80.6092 121.093C79.4642 121.306 78.4504 121.033 78.355 120.5C78.2596 119.966 79.1064 119.361 80.2514 119.148C81.3964 118.934 82.4102 119.195 82.5057 119.741Z" fill="#FFA969"/>
<path d="M76.9848 125.873C76.8179 126.335 76.3766 126.596 76.0068 126.466C75.6371 126.335 75.4701 125.849 75.6371 125.386C75.8041 124.924 76.2454 124.663 76.6151 124.793C76.9968 124.924 77.1637 125.41 76.9848 125.873Z" fill="#FFA969"/>
<path d="M78.106 126.442C77.939 126.905 77.4977 127.166 77.1279 127.035C76.7582 126.905 76.5912 126.419 76.7582 125.956C76.9252 125.494 77.3665 125.233 77.7362 125.363C78.1179 125.494 78.2849 125.98 78.106 126.442Z" fill="#FFA969"/>
<path d="M79.2499 127.023C79.1187 127.497 78.6893 127.794 78.3077 127.687C77.926 127.58 77.7232 127.106 77.8663 126.631C78.0095 126.157 78.4269 125.86 78.8086 125.967C79.1903 126.074 79.3811 126.548 79.2499 127.023Z" fill="#FFA969"/>
<path d="M80.4667 127.497C80.3355 127.972 79.9061 128.268 79.5244 128.161C79.1428 128.055 78.94 127.58 79.0831 127.106C79.2143 126.631 79.6437 126.335 80.0254 126.442C80.4071 126.56 80.5979 127.035 80.4667 127.497Z" fill="#FFA969"/>
<path d="M65.0321 124.176C65.0082 124.627 64.6146 124.971 64.1495 124.947C63.6962 124.923 63.3504 124.532 63.3742 124.07C63.3981 123.607 63.7917 123.275 64.2568 123.299C64.7101 123.334 65.056 123.726 65.0321 124.176Z" fill="#213945"/>
<path d="M64.7587 128.482C64.7349 128.933 64.3413 129.277 63.8761 129.253C63.4109 129.229 63.077 128.838 63.1008 128.375C63.1247 127.924 63.5183 127.58 63.9834 127.604C64.4367 127.64 64.7826 128.031 64.7587 128.482Z" fill="#213945"/>
<path d="M46.8199 107.809C47.8695 107.121 51.4239 102.958 60.4767 111.438C69.5296 119.918 62.4924 117.463 62.4924 117.463C62.4924 117.463 51.3642 113.87 50.6009 111.936C49.8375 110.003 49.1815 108.461 47.8815 109.007C46.5814 109.552 46.8199 107.809 46.8199 107.809Z" fill="#345A6F"/>
</svg>
