<svg width="360" height="360" viewBox="0 0 360 360" fill="none" xmlns="http://www.w3.org/2000/svg">
<path d="M359.813 345.016C359.813 349.511 358.315 353.258 355.318 356.254C352.321 358.502 349.325 360 344.829 360H15.1719C11.4262 360 7.67972 358.501 4.68254 356.254C1.68537 353.257 0.1875 349.511 0.1875 345.016V125.494H359.813V345.016Z" fill="#FFD15C"/>
<path d="M355.317 356.254C352.32 358.502 349.324 360 344.828 360H15.171C11.4253 360 7.67881 358.501 4.68164 356.254L179.999 205.661L355.317 356.254Z" fill="#F8B64C"/>
<path d="M359.813 125.494L308.866 162.206L189.74 247.617C183.746 252.112 175.505 252.112 169.511 247.617L51.1344 162.206L0.1875 125.494L51.1344 88.7821L162.019 9.36491L170.261 3.37128C176.254 -1.12376 184.496 -1.12376 190.489 3.37128L198.731 9.36491L251.926 47.5753L278.148 66.3055L308.866 88.7821L359.813 125.494Z" fill="#40596B"/>
<path d="M308.867 55.8171V162.206L189.74 247.618C183.747 252.113 175.505 252.113 169.512 247.618L51.1348 162.206V24.3497C51.1348 16.1082 57.8777 9.36523 66.1192 9.36523H261.665L308.867 55.8171Z" fill="#F2F2F2"/>
<path d="M153 55H73V66H153V55Z" fill="#797676"/>
<path d="M270.815 111.79H99.4727V116.452H270.815V111.79Z" fill="#F2F2F2"/>
<path d="M91.1378 111.121L93.8512 106.211L96.5889 111.121C96.8986 111.707 97.3304 112 97.8845 112C98.2919 112 98.6586 111.837 98.9845 111.511C99.3267 111.186 99.4978 110.803 99.4978 110.364C99.4978 110.07 99.4164 109.785 99.2534 109.509L96.3934 104.843L102.162 105.039C102.667 105.039 103.059 104.892 103.336 104.599C103.613 104.29 103.751 103.923 103.751 103.5C103.751 103.077 103.613 102.718 103.336 102.425C103.059 102.116 102.667 101.961 102.162 101.961L96.4178 102.181L99.3756 97.4425C99.5223 97.1657 99.5956 96.897 99.5956 96.6365C99.5956 96.1968 99.4408 95.8142 99.1312 95.4885C98.8215 95.1628 98.4549 95 98.0312 95C97.4608 95 96.9882 95.3012 96.6134 95.9037L93.8512 100.911L91.0645 95.8793C90.7385 95.3094 90.2985 95.0244 89.7445 95.0244C89.3208 95.0244 88.9378 95.1873 88.5956 95.5129C88.2696 95.8223 88.1067 96.1968 88.1067 96.6365C88.1067 96.9296 88.1882 97.2146 88.3511 97.4914L91.26 102.181L85.6133 101.961C85.1082 101.961 84.7089 102.116 84.4156 102.425C84.1385 102.735 84 103.093 84 103.5C84 103.923 84.1385 104.29 84.4156 104.599C84.7089 104.892 85.1082 105.039 85.6133 105.039L91.3334 104.843L88.4 109.557C88.2371 109.818 88.1556 110.095 88.1556 110.388C88.1556 110.828 88.3185 111.21 88.6445 111.536C88.9867 111.845 89.3697 112 89.7934 112C90.3474 112 90.7956 111.707 91.1378 111.121Z" fill="#797676"/>
<path d="M151.887 111.121L154.601 106.211L157.339 111.121C157.648 111.707 158.08 112 158.634 112C159.042 112 159.408 111.837 159.734 111.511C160.076 111.186 160.247 110.803 160.247 110.364C160.247 110.07 160.166 109.785 160.003 109.509L157.143 104.843L162.912 105.039C163.417 105.039 163.808 104.892 164.085 104.599C164.362 104.29 164.501 103.923 164.501 103.5C164.501 103.077 164.362 102.718 164.085 102.425C163.808 102.116 163.417 101.961 162.912 101.961L157.167 102.181L160.125 97.4425C160.272 97.1657 160.345 96.897 160.345 96.6365C160.345 96.1968 160.19 95.8142 159.881 95.4885C159.571 95.1628 159.204 95 158.781 95C158.21 95 157.738 95.3012 157.363 95.9037L154.601 100.911L151.814 95.8793C151.488 95.3094 151.048 95.0244 150.494 95.0244C150.07 95.0244 149.687 95.1873 149.345 95.5129C149.019 95.8223 148.856 96.1968 148.856 96.6365C148.856 96.9296 148.938 97.2146 149.101 97.4914L152.01 102.181L146.363 101.961C145.858 101.961 145.458 102.116 145.165 102.425C144.888 102.735 144.75 103.093 144.75 103.5C144.75 103.923 144.888 104.29 145.165 104.599C145.458 104.892 145.858 105.039 146.363 105.039L152.083 104.843L149.15 109.557C148.987 109.818 148.905 110.095 148.905 110.388C148.905 110.828 149.068 111.21 149.394 111.536C149.736 111.845 150.119 112 150.543 112C151.097 112 151.545 111.707 151.887 111.121Z" fill="#797676"/>
<path d="M212.637 111.121L215.35 106.211L218.088 111.121C218.398 111.707 218.83 112 219.384 112C219.791 112 220.158 111.837 220.484 111.511C220.826 111.186 220.997 110.803 220.997 110.364C220.997 110.07 220.916 109.785 220.753 109.509L217.893 104.843L223.661 105.039C224.167 105.039 224.558 104.892 224.835 104.599C225.112 104.29 225.25 103.923 225.25 103.5C225.25 103.077 225.112 102.718 224.835 102.425C224.558 102.116 224.167 101.961 223.661 101.961L217.917 102.181L220.875 97.4425C221.021 97.1657 221.095 96.897 221.095 96.6365C221.095 96.1968 220.94 95.8142 220.63 95.4885C220.321 95.1628 219.954 95 219.53 95C218.96 95 218.487 95.3012 218.113 95.9037L215.35 100.911L212.564 95.8793C212.238 95.3094 211.798 95.0244 211.244 95.0244C210.82 95.0244 210.437 95.1873 210.095 95.5129C209.769 95.8223 209.606 96.1968 209.606 96.6365C209.606 96.9296 209.687 97.2146 209.85 97.4914L212.759 102.181L207.113 101.961C206.607 101.961 206.208 102.116 205.915 102.425C205.638 102.735 205.499 103.093 205.499 103.5C205.499 103.923 205.638 104.29 205.915 104.599C206.208 104.892 206.607 105.039 207.113 105.039L212.833 104.843L209.899 109.557C209.736 109.818 209.655 110.095 209.655 110.388C209.655 110.828 209.818 111.21 210.144 111.536C210.486 111.845 210.869 112 211.293 112C211.847 112 212.295 111.707 212.637 111.121Z" fill="#797676"/>
<path d="M273.387 111.121L276.1 106.211L278.838 111.121C279.147 111.707 279.579 112 280.133 112C280.541 112 280.907 111.837 281.233 111.511C281.576 111.186 281.747 110.803 281.747 110.364C281.747 110.07 281.665 109.785 281.502 109.509L278.642 104.843L284.411 105.039C284.916 105.039 285.307 104.892 285.584 104.599C285.861 104.29 286 103.923 286 103.5C286 103.077 285.861 102.718 285.584 102.425C285.307 102.116 284.916 101.961 284.411 101.961L278.667 102.181L281.624 97.4425C281.771 97.1657 281.844 96.897 281.844 96.6365C281.844 96.1968 281.69 95.8142 281.38 95.4885C281.07 95.1628 280.704 95 280.28 95C279.71 95 279.237 95.3012 278.862 95.9037L276.1 100.911L273.313 95.8793C272.987 95.3094 272.547 95.0244 271.993 95.0244C271.57 95.0244 271.187 95.1873 270.844 95.5129C270.518 95.8223 270.355 96.1968 270.355 96.6365C270.355 96.9296 270.437 97.2146 270.6 97.4914L273.509 102.181L267.862 101.961C267.357 101.961 266.958 102.116 266.664 102.425C266.387 102.735 266.249 103.093 266.249 103.5C266.249 103.923 266.387 104.29 266.664 104.599C266.958 104.892 267.357 105.039 267.862 105.039L273.582 104.843L270.649 109.557C270.486 109.818 270.404 110.095 270.404 110.388C270.404 110.828 270.567 111.21 270.893 111.536C271.235 111.845 271.618 112 272.042 112C272.596 112 273.044 111.707 273.387 111.121Z" fill="#797676"/>
<path d="M180.164 204.39C196.33 204.39 209.434 191.286 209.434 175.12C209.434 158.955 196.33 145.851 180.164 145.851C163.999 145.851 150.895 158.955 150.895 175.12C150.895 191.286 163.999 204.39 180.164 204.39Z" fill="white"/>
<path d="M180.162 141.971C173.885 141.971 167.749 143.833 162.529 147.32C157.31 150.808 153.242 155.764 150.84 161.564C148.438 167.363 147.809 173.745 149.034 179.901C150.258 186.058 153.281 191.713 157.72 196.152C162.158 200.59 167.814 203.613 173.97 204.838C180.127 206.063 186.508 205.434 192.308 203.032C198.107 200.63 203.064 196.562 206.552 191.342C210.039 186.123 211.9 179.987 211.9 173.709C211.876 165.3 208.524 157.241 202.577 151.294C196.631 145.348 188.572 141.996 180.162 141.971ZM173.647 190.631L157.381 174.366L161.943 169.803L173.662 181.522L198.396 156.787L202.959 161.35L173.647 190.631L173.647 190.631Z" fill="#30BE76"/>
<path d="M262.415 43.8299C262.415 50.5728 267.659 55.8171 274.402 55.8171H308.866L262.414 9.36523L262.415 43.8299Z" fill="#CDD6E0"/>
</svg>
