<svg width="360" height="360" viewBox="0 0 360 360" fill="none" xmlns="http://www.w3.org/2000/svg">
<g clip-path="url(#clip0)">
<path d="M229.658 142.757V105.515C229.658 91.8044 218.542 80.688 204.831 80.688C189.202 88.5025 170.805 88.5025 155.176 80.688C141.465 80.688 130.348 91.8044 130.348 105.515V142.757C130.348 149.615 135.904 155.171 142.762 155.171H217.245C224.103 155.171 229.658 149.616 229.658 142.757Z" fill="#EF2648"/>
<path d="M180.003 62.0691C162.863 62.0691 148.968 48.1744 148.968 31.0345C148.968 13.8946 162.863 0 180.003 0C197.142 0 211.037 13.8946 211.037 31.0345C211.037 48.1744 197.142 62.0691 180.003 62.0691Z" fill="#FFD4B0"/>
<path d="M322.76 186.205C326.186 186.205 328.967 183.424 328.967 179.998C329.023 120.225 293.314 66.2255 238.297 42.8691C235.144 41.5282 231.494 42.9935 230.153 46.1463C228.812 49.2991 230.278 52.9491 233.43 54.2899C283.868 75.6973 316.603 125.204 316.553 179.998C316.553 183.424 319.334 186.205 322.76 186.205Z" fill="#FFDC13"/>
<path d="M37.2415 186.205C40.6678 186.205 43.4487 183.424 43.4487 179.998C43.3987 125.204 76.1341 75.6973 126.571 54.2899C129.724 52.9491 131.19 49.2998 129.849 46.1463C128.508 42.9935 124.859 41.5282 121.705 42.8691C66.687 66.2255 30.9787 120.225 31.0343 179.998C31.0343 183.424 33.8151 186.205 37.2415 186.205Z" fill="#FFDC13"/>
<path d="M180.003 328.966C200.033 329.003 219.863 324.975 238.298 317.129C241.451 315.789 242.916 312.139 241.575 308.986C240.234 305.832 236.585 304.368 233.432 305.709C199.263 320.096 160.743 320.096 126.574 305.709C123.421 304.368 119.771 305.833 118.43 308.986C117.089 312.139 118.554 315.789 121.707 317.129C140.142 324.975 159.973 329.003 180.003 328.966Z" fill="#FFDC13"/>
<path d="M223.451 341.379C225.766 341.385 227.889 340.1 228.963 338.046L241.377 314.293C242.966 311.257 241.787 307.503 238.751 305.92C238.391 305.733 238.007 305.578 237.616 305.461L212.788 298.18C209.498 297.218 206.047 299.104 205.085 302.394C204.124 305.684 206.01 309.135 209.3 310.097L226.872 315.249L217.953 332.299C216.364 335.341 217.543 339.089 220.578 340.672C221.465 341.137 222.452 341.379 223.451 341.379Z" fill="#FFDC13"/>
<path d="M37.2434 186.207C38.888 186.207 40.4707 185.555 41.6316 184.389L60.2524 165.768C62.636 163.304 62.5678 159.375 60.097 156.992C57.6888 154.67 53.8779 154.67 51.4753 156.992L37.2427 171.224L23.01 156.992C20.5455 154.608 16.6172 154.676 14.2336 157.147C11.9119 159.555 11.9119 163.366 14.2336 165.769L32.8545 184.39C34.0153 185.555 35.5981 186.207 37.2434 186.207Z" fill="#FFDC13"/>
<path d="M248.279 80.6895C249.21 80.6895 250.122 80.4786 250.96 80.0687C254.045 78.5851 255.349 74.8796 253.865 71.7887L244.189 51.5914L263.262 42.9015C266.322 41.356 267.551 37.6259 266.012 34.5659C264.554 31.6733 261.109 30.3887 258.111 31.6177L233.283 42.9577C230.168 44.3914 228.808 48.0786 230.241 51.1941C230.254 51.2188 230.266 51.2441 230.279 51.2687L242.692 77.1704C243.723 79.3177 245.896 80.6832 248.279 80.6895Z" fill="#FFDC13"/>
<path d="M161.457 6.28125C151.141 19.8804 153.804 39.2648 167.397 49.5804C178.439 57.9595 193.714 57.9595 204.756 49.5804C194.558 63.2977 175.174 66.153 161.457 55.9612C147.739 45.7694 144.884 26.3794 155.076 12.6621C156.882 10.2349 159.03 8.08125 161.457 6.28125Z" fill="#EDC4A2"/>
<path d="M49.6549 266.895C32.515 266.895 18.6204 253.001 18.6204 235.861C18.6204 218.721 32.515 204.826 49.6549 204.826C66.7948 204.826 80.6895 218.721 80.6895 235.861C80.6895 253.001 66.7948 266.895 49.6549 266.895Z" fill="#FFD4B0"/>
<path d="M31.109 211.109C20.7935 224.708 23.4562 244.092 37.049 254.408C48.0909 262.787 63.3663 262.787 74.4082 254.408C64.2101 268.125 44.8263 270.981 31.109 260.789C17.3917 250.597 14.5364 231.207 24.7282 217.49C26.5345 215.063 28.6818 212.909 31.109 211.109Z" fill="#EDC4A2"/>
<path d="M310.344 266.895C293.204 266.895 279.31 253.001 279.31 235.861C279.31 218.721 293.204 204.826 310.344 204.826C327.484 204.826 341.379 218.721 341.379 235.861C341.379 253.001 327.484 266.895 310.344 266.895Z" fill="#FFD4B0"/>
<path d="M291.799 211.109C281.483 224.708 284.146 244.092 297.739 254.408C308.78 262.787 324.056 262.787 335.098 254.408C324.9 268.125 305.516 270.981 291.799 260.789C278.081 250.591 275.226 231.207 285.418 217.49C287.225 215.063 289.372 212.909 291.799 211.109Z" fill="#EDC4A2"/>
<path d="M229.658 142.758C229.658 149.616 224.103 155.171 217.245 155.171H142.762C135.904 155.171 130.348 149.616 130.348 142.758V105.516C130.373 101.196 131.534 96.9632 133.718 93.2388C155.796 124.305 191.547 142.758 229.658 142.758Z" fill="#B20D24"/>
<path d="M360 347.586V310.344C360 296.633 348.884 285.517 335.173 285.517C319.544 293.332 301.146 293.332 285.517 285.517C271.806 285.517 260.69 296.633 260.69 310.344V347.586C260.69 354.444 266.245 360 273.104 360H347.586C354.445 360 360 354.444 360 347.586Z" fill="#FFA511"/>
<path d="M360 347.587C360 354.445 354.445 360.001 347.586 360.001H273.104C266.245 360.001 260.69 354.445 260.69 347.587V310.345C260.715 306.025 261.875 301.792 264.06 298.068C286.138 329.133 321.89 347.587 360 347.587Z" fill="#F08015"/>
<path d="M99.3105 347.586V310.344C99.3105 296.633 88.1941 285.517 74.4832 285.517C58.8541 293.332 40.4568 293.332 24.8277 285.517C11.1167 285.517 0.000305176 296.633 0.000305176 310.344V347.586C0.000305176 354.444 5.5557 360 12.414 360H86.8969C93.7559 360 99.3105 354.444 99.3105 347.586Z" fill="#4DB5FF"/>
<path d="M99.3105 347.587C99.3105 354.445 93.7551 360.001 86.8969 360.001H12.414C5.5557 360.001 0.000305176 354.445 0.000305176 347.587V310.345C0.02491 306.025 1.18578 301.792 3.37038 298.068C25.4485 329.133 61.2004 347.587 99.3105 347.587Z" fill="#3596D8"/>
</g>
<defs>
<clipPath id="clip0">
<rect width="360" height="360" transform="matrix(-1 0 0 1 360 0)" fill="white"/>
</clipPath>
</defs>
</svg>
