<svg width="24" height="24" viewBox="0 0 24 24" fill="none" xmlns="http://www.w3.org/2000/svg">
<path d="M10.9212 17.8225L3.73046 14.4993C3.09903 14.1945 2.91395 13.0514 3.04731 12.4281C3.18068 11.8048 3.59165 11.7504 3.76312 11.7477V12.292C3.66242 12.292 3.60798 12.4553 3.58621 12.5642C3.46645 13.0731 3.67875 13.876 3.96997 14.0176L10.9212 17.2128L19.4972 12.3818L19.7694 12.8554L10.9212 17.8225Z" fill="white" stroke="white" stroke-width="0.7"/>
<path d="M10.9212 20L3.73046 16.6768C3.09903 16.372 2.91395 15.2289 3.04731 14.6056C3.18068 13.9824 3.59165 13.9252 3.76312 13.9252V14.4695C3.66242 14.4695 3.60798 14.6328 3.58621 14.7417C3.46645 15.2507 3.67875 16.0536 3.96997 16.1951L10.9212 19.3904L19.4972 14.5594L19.7694 15.0329L10.9212 20Z" fill="white" stroke="white" stroke-width="0.7"/>
<path d="M10.9203 15.6448L3.7296 12.3217C3.08456 12.0087 2.82055 10.6886 3.1281 10.0109C3.19743 9.84128 3.32745 9.7035 3.49281 9.62447C3.90923 9.37951 10.1773 5.69979 10.7652 5.33236C11.0911 5.14961 11.4526 5.03922 11.825 5.0087C12.1975 4.97817 12.5721 5.02822 12.9235 5.15545L20.2475 8.22824L10.9203 13.4702L10.7924 13.4076C10.7325 13.3804 4.86454 10.5771 3.8684 10.1416C3.72688 10.079 3.67244 10.098 3.61257 10.2314C3.40572 10.6805 3.61257 11.6603 3.95006 11.8236L10.9203 15.0352L19.4964 10.2042L19.7685 10.6778L10.9203 15.6448ZM4.34198 9.75511C5.70282 10.3675 10.082 12.4605 10.9094 12.8551L19.0119 8.299L12.7193 5.66168C12.4473 5.56645 12.1584 5.52911 11.8711 5.55208C11.5837 5.57505 11.3044 5.6578 11.051 5.79505C10.542 6.11348 6.00221 8.78074 4.34198 9.75511Z" fill="white" stroke="white" stroke-width="0.7"/>
</svg>
