<svg width="60" height="60" viewBox="0 0 60 60" fill="none" xmlns="http://www.w3.org/2000/svg">
<path d="M18.5131 28.3733C17.7473 27.6075 16.5029 27.6075 15.7371 28.3733C14.9713 29.1391 14.9713 30.3835 15.7371 31.1494L24.7832 40.1955C25.1661 40.5784 25.6448 40.7699 26.1713 40.7699C26.2191 40.7699 26.2191 40.7699 26.267 40.7699C26.7935 40.722 27.32 40.4827 27.7029 40.0519L50.3422 12.9134C51.0123 12.0998 50.9166 10.8553 50.1029 10.1374C49.2892 9.46729 48.0448 9.56302 47.3268 10.3767L26.0277 35.8878L18.5131 28.3733Z" fill="#30BE76"/>
<path d="M44.6463 6.45162C33.6377 -0.440687 19.5181 1.18666 10.3283 10.3764C-0.488758 21.1935 -0.488758 38.855 10.3283 49.6721C15.7369 55.0807 22.8685 57.8089 29.9523 57.8089C37.036 57.8089 44.1677 55.0807 49.5762 49.6721C58.8138 40.4345 60.3933 26.267 53.4531 15.2585C52.8788 14.3491 51.6822 14.0619 50.7728 14.6362C49.8634 15.2106 49.5762 16.4072 50.1506 17.3166C56.1335 26.7935 54.7454 38.9508 46.8001 46.8961C37.5147 56.1815 22.342 56.1815 13.0565 46.8961C3.77107 37.6106 3.77107 22.4379 13.0565 13.1525C21.0018 5.25504 33.1112 3.86701 42.5882 9.75419C43.4976 10.3285 44.6942 10.0414 45.2685 9.13196C45.8429 8.22256 45.5557 7.02598 44.6463 6.45162Z" fill="#30BE76"/>
</svg>
