<svg width="60" height="61" viewBox="0 0 60 61" fill="none" xmlns="http://www.w3.org/2000/svg">
<path d="M21.5625 32.9781H27.1875V40.4979H21.5625V32.9781Z" fill="#999999"/>
<path d="M21.5625 32.9781H27.1875V37.678H21.5625V32.9781Z" fill="#808080"/>
<path d="M4.6875 4.77893H44.0625V36.738H4.6875V4.77893Z" fill="#CCCCCC"/>
<path d="M37.4999 36.7381H44.0624V19.8186H38.4374L32.4574 13.8227C32.2732 13.6354 32.0539 13.4864 31.812 13.3844C31.5701 13.2825 31.3105 13.2295 31.0482 13.2285C30.7858 13.2276 30.5258 13.2787 30.2833 13.3789C30.0407 13.4792 29.8203 13.6265 29.6347 13.8126C29.4492 13.9986 29.3022 14.2196 29.2023 14.4628C29.1023 14.706 29.0513 14.9666 29.0523 15.2297C29.0532 15.4928 29.106 15.753 29.2078 15.9955C29.3095 16.238 29.458 16.458 29.6449 16.6426L37.4999 24.5184V36.7381Z" fill="#B3B3B3"/>
<path d="M4.6875 4.77893H44.0625V8.53883H4.6875V4.77893Z" fill="#B3B3B3"/>
<path d="M2.8125 2.89905H45.9375V6.65894H2.8125V2.89905Z" fill="#FFA800"/>
<path d="M40.3125 14.1787V16.9986C40.3125 17.7465 40.6088 18.4638 41.1363 18.9926C41.6637 19.5215 42.3791 19.8186 43.125 19.8186C43.8709 19.8186 44.5863 19.5215 45.1137 18.9926C45.6412 18.4638 45.9375 17.7465 45.9375 16.9986V14.1787H40.3125Z" fill="#FADBB7"/>
<path d="M39.375 19.8185H46.875L53.7925 12.8828C54.1654 12.5088 54.6713 12.2987 55.1987 12.2987C55.7262 12.2987 56.232 12.5088 56.605 12.8827C56.978 13.2567 57.1875 13.7639 57.1875 14.2927C57.1875 14.8216 56.9779 15.3288 56.605 15.7027L47.8125 24.5184V32.9781H38.4375V24.5184L30.5825 16.6427C30.2096 16.2687 30 15.7616 30 15.2327C30 14.9709 30.0514 14.7116 30.1514 14.4696C30.2513 14.2277 30.3978 14.0079 30.5825 13.8227C30.7672 13.6376 30.9864 13.4907 31.2277 13.3905C31.469 13.2903 31.7276 13.2387 31.9888 13.2387C32.5162 13.2387 33.0221 13.4488 33.395 13.8228L39.375 19.8185Z" fill="#FF6536"/>
<path d="M38.4375 32.9781V50.3677C38.4375 50.9909 38.6844 51.5886 39.124 52.0293C39.5635 52.47 40.1596 52.7176 40.7812 52.7176C41.4029 52.7176 41.999 52.47 42.4385 52.0293C42.8781 51.5886 43.125 50.9909 43.125 50.3677C43.125 50.9909 43.3719 51.5886 43.8115 52.0293C44.251 52.47 44.8471 52.7176 45.4688 52.7176C46.0904 52.7176 46.6865 52.47 47.126 52.0293C47.5656 51.5886 47.8125 50.9909 47.8125 50.3677V32.9781H38.4375Z" fill="#FFA800"/>
<path d="M2.8125 57.4175V54.5976C2.8125 53.3511 3.30636 52.1557 4.18544 51.2743C5.06451 50.3929 6.2568 49.8977 7.5 49.8977C8.7432 49.8977 9.93549 50.3929 10.8146 51.2743C11.6936 52.1557 12.1875 53.3511 12.1875 54.5976V57.4175H2.8125Z" fill="#0071BC"/>
<path d="M40.3125 14.1787H45.9375C46.4348 14.1787 46.9117 13.9806 47.2633 13.628C47.615 13.2755 47.8125 12.7973 47.8125 12.2987V8.53882C47.8125 9.03741 47.615 9.51558 47.2633 9.86814C46.9117 10.2207 46.4348 10.4188 45.9375 10.4188H42.1875C41.6902 10.4188 41.2133 10.6168 40.8617 10.9694C40.51 11.3219 40.3125 11.8001 40.3125 12.2987V14.1787Z" fill="#763A02"/>
<path d="M4.6875 47.0777C4.6875 47.8256 4.98382 48.5429 5.51126 49.0717C6.03871 49.6006 6.75408 49.8977 7.5 49.8977C8.24592 49.8977 8.96129 49.6006 9.48874 49.0717C10.0162 48.5429 10.3125 47.8256 10.3125 47.0777C10.3125 46.3298 10.0162 45.6126 9.48874 45.0837C8.96129 44.5549 8.24592 44.2578 7.5 44.2578C6.75408 44.2578 6.03871 44.5549 5.51126 45.0837C4.98382 45.6126 4.6875 46.3298 4.6875 47.0777Z" fill="#763A02"/>
<path d="M15 57.4175V54.5976C15 53.3511 15.4939 52.1557 16.3729 51.2743C17.252 50.3929 18.4443 49.8977 19.6875 49.8977C20.9307 49.8977 22.123 50.3929 23.0021 51.2743C23.8811 52.1557 24.375 53.3511 24.375 54.5976V57.4175H15Z" fill="#0071BC"/>
<path d="M22.5 47.0777C22.5 45.5203 21.2408 44.2578 19.6875 44.2578C18.1342 44.2578 16.875 45.5203 16.875 47.0777C16.875 48.6351 18.1342 49.8977 19.6875 49.8977C21.2408 49.8977 22.5 48.6351 22.5 47.0777Z" fill="#763A02"/>
<path d="M27.1875 57.4175V54.5976C27.1875 53.3511 27.6814 52.1557 28.5604 51.2743C29.4395 50.3929 30.6318 49.8977 31.875 49.8977C33.1182 49.8977 34.3105 50.3929 35.1896 51.2743C36.0686 52.1557 36.5625 53.3511 36.5625 54.5976V57.4175H27.1875Z" fill="#0071BC"/>
<path d="M29.0625 47.0777C29.0625 47.8256 29.3588 48.5429 29.8863 49.0717C30.4137 49.6006 31.1291 49.8977 31.875 49.8977C32.6209 49.8977 33.3363 49.6006 33.8637 49.0717C34.3912 48.5429 34.6875 47.8256 34.6875 47.0777C34.6875 46.3298 34.3912 45.6126 33.8637 45.0837C33.3363 44.5549 32.6209 44.2578 31.875 44.2578C31.1291 44.2578 30.4137 44.5549 29.8863 45.0837C29.3588 45.6126 29.0625 46.3298 29.0625 47.0777Z" fill="#763A02"/>
<path d="M18.75 33.9181C23.9277 33.9181 28.125 29.7097 28.125 24.5184C28.125 19.3271 23.9277 15.1187 18.75 15.1187C13.5723 15.1187 9.375 19.3271 9.375 24.5184C9.375 29.7097 13.5723 33.9181 18.75 33.9181Z" fill="#B3B3B3"/>
<path d="M44.0625 38.6181C44.0625 38.0989 43.6428 37.6781 43.125 37.6781C42.6072 37.6781 42.1875 38.0989 42.1875 38.6181V49.8978C42.1875 50.4169 42.6072 50.8377 43.125 50.8377C43.6428 50.8377 44.0625 50.4169 44.0625 49.8978V38.6181Z" fill="#FADBB7"/>
<path d="M17.8125 32.9782C22.9902 32.9782 27.1875 28.7698 27.1875 23.5784C27.1875 18.3871 22.9902 14.1787 17.8125 14.1787C12.6348 14.1787 8.4375 18.3871 8.4375 23.5784C8.4375 28.7698 12.6348 32.9782 17.8125 32.9782Z" fill="#6CBBC7"/>
<path d="M18.8438 14.2383V23.5783L24.9325 17.4736C23.3877 15.6573 21.2101 14.5002 18.8438 14.2383Z" fill="#518C95"/>
<path d="M27.0938 14.2726C25.8762 13.0488 24.4295 12.0784 22.8367 11.417C21.2439 10.7556 19.5365 10.4163 17.8125 10.4187V23.5783L27.0938 14.2726Z" fill="#FF5086"/>
<path d="M38.4375 31.0969V32.9781H47.8125V27.2153C44.8377 28.8474 41.6941 30.149 38.4375 31.0969Z" fill="#FF4810"/>
<path d="M2.8125 56.147V57.4185H12.1875V54.5986C12.1855 53.6024 11.8651 52.633 11.2734 51.8326C8.60662 53.5552 5.77166 55.0008 2.8125 56.147Z" fill="#005A97"/>
<path d="M15 56.0919V57.3635H24.375V54.5436C24.373 53.5473 24.0526 52.5779 23.4609 51.7776C20.7941 53.5001 17.9591 54.9457 15 56.0919Z" fill="#005A97"/>
<path d="M27.1875 56.0919V57.3635H36.5625V54.5436C36.5605 53.5473 36.2401 52.5779 35.6484 51.7776C32.9816 53.5001 30.1466 54.9457 27.1875 56.0919Z" fill="#005A97"/>
</svg>
