<svg width="186" height="164" viewBox="0 0 186 164" fill="none" xmlns="http://www.w3.org/2000/svg">
<g filter="url(#filter0_d)">
<path d="M150.99 108.209C151.012 112.442 148.732 116.338 145.004 118.436L98.9152 144.348C95.1843 146.444 90.5798 146.419 86.8287 144.283L40.4433 117.872C36.6927 115.736 34.3689 111.816 34.3421 107.58L34.0448 55.2562C34.0227 51.0224 36.3027 47.1267 40.0307 45.0288L86.1162 19.1197C89.8488 17.0241 94.4523 17.049 98.2029 19.1846L144.588 45.5963C148.339 47.732 150.664 51.6522 150.69 55.8875L150.99 108.209Z" fill="white"/>
</g>
<path d="M142.507 104.938C142.606 108.502 140.738 111.739 137.601 113.435L98.8187 134.381C95.6793 136.076 91.755 135.968 88.5178 134.099L48.4869 110.987C45.2501 109.118 43.1951 105.774 43.0916 102.207L41.8416 58.1489C41.7421 54.5839 43.6109 51.3471 46.7478 49.6512L85.5266 28.7074C88.6675 27.0136 92.5909 27.1214 95.8277 28.9901L135.859 52.1022C139.096 53.971 141.152 57.3154 141.254 60.8817L142.507 104.938Z" fill="#FAFAFA"/>
<path d="M88.3863 75.2713C85.3522 78.307 85.3522 83.2451 88.3863 86.2808C89.8574 87.7504 91.8122 88.5607 93.8919 88.5607C95.711 88.5607 97.4352 87.9409 98.8225 86.8007V74.7508C97.4347 73.6117 95.711 72.9914 93.8919 72.9914C91.8122 72.9914 89.8574 73.8012 88.3863 75.2713ZM86.1849 68.5433H71.5776C70.0419 68.5433 68.7976 69.7881 68.7976 71.3233C68.7976 72.8585 70.0424 74.1033 71.5776 74.1033H81.0621C81.7363 72.811 82.609 71.6126 83.6697 70.5531C84.4399 69.7823 85.286 69.1123 86.1849 68.5433ZM90.7638 66.319C93.5278 66.319 95.7682 64.0786 95.7682 61.3146C95.7682 58.5506 93.5278 56.3103 90.7638 56.3103C87.9998 56.3103 85.7595 58.5506 85.7595 61.3146C85.7595 64.0786 87.9998 66.319 90.7638 66.319ZM109.944 68.5433H101.598C102.498 69.1123 103.343 69.7823 104.114 70.5536C105.174 71.6132 106.047 72.811 106.722 74.1039H109.944C111.479 74.1039 112.724 72.8591 112.724 71.3239C112.724 69.7887 111.479 68.5433 109.944 68.5433ZM82.6982 89.9261V106.354C82.6982 108.196 84.1923 109.69 86.0344 109.69C87.8771 109.69 89.3706 108.196 89.3706 106.354V94.5098C87.2456 93.8127 85.2972 92.6255 83.6697 90.998C83.3259 90.6542 83.0019 90.2971 82.6982 89.9261ZM92.1506 95.1248V106.354C92.1506 108.196 93.6447 109.69 95.4869 109.69C97.329 109.69 98.8231 108.196 98.8231 106.354V94.3726C97.2628 94.9374 95.6006 95.2326 93.8924 95.2326C93.3052 95.2326 92.7239 95.1936 92.1506 95.1248Z" fill="#FF6F01"/>
<path d="M115.909 98.0761L105.703 87.8699C105.389 87.5555 105.026 87.3212 104.641 87.1584C105.782 85.2452 106.404 83.0609 106.404 80.7758C106.404 77.4337 105.102 74.2923 102.739 71.9292C100.375 69.566 97.234 68.2646 93.893 68.2646C90.5503 68.2646 87.4095 69.566 85.0464 71.9292C82.6832 74.2923 81.3813 77.4337 81.3813 80.7758C81.3813 84.1173 82.6827 87.2587 85.0464 89.6218C87.4095 91.9849 90.5509 93.2863 93.893 93.2863C96.1771 93.2863 98.3608 92.665 100.274 91.5243C100.438 91.9102 100.672 92.2727 100.986 92.5871L111.192 102.793C111.843 103.445 112.698 103.771 113.551 103.771C114.405 103.771 115.259 103.445 115.91 102.793C117.212 101.491 117.212 99.3791 115.909 98.0761ZM87.0113 87.6564C85.1734 85.8185 84.1613 83.3748 84.1613 80.7763C84.1613 78.1767 85.1734 75.7335 87.0113 73.8951C88.8491 72.0578 91.2928 71.0447 93.8924 71.0447C96.491 71.0447 98.9336 72.0573 100.773 73.8951C102.61 75.733 103.623 78.1767 103.623 80.7763C103.623 83.3754 102.611 85.8185 100.773 87.6564C98.9341 89.4937 96.4915 90.5069 93.8924 90.5069C91.2928 90.5063 88.8491 89.4937 87.0113 87.6564Z" fill="#FF6F01"/>
<defs>
<filter id="filter0_d" x="24.0446" y="7.56525" width="136.946" height="148.338" filterUnits="userSpaceOnUse" color-interpolation-filters="sRGB">
<feFlood flood-opacity="0" result="BackgroundImageFix"/>
<feColorMatrix in="SourceAlpha" type="matrix" values="0 0 0 0 0 0 0 0 0 0 0 0 0 0 0 0 0 0 127 0"/>
<feOffset/>
<feGaussianBlur stdDeviation="5"/>
<feColorMatrix type="matrix" values="0 0 0 0 0.843219 0 0 0 0 0.843219 0 0 0 0 0.843219 0 0 0 0.5 0"/>
<feBlend mode="normal" in2="BackgroundImageFix" result="effect1_dropShadow"/>
<feBlend mode="normal" in="SourceGraphic" in2="effect1_dropShadow" result="shape"/>
</filter>
</defs>
</svg>
