<svg width="20" height="18" viewBox="0 0 20 18" fill="none" xmlns="http://www.w3.org/2000/svg">
<path d="M20 4.97482C19.9984 6.16726 19.59 7.31947 18.8491 8.22178C18.1082 9.12408 17.084 9.7165 15.963 9.89121C15.8623 10.5479 15.9023 11.2199 16.0802 11.8582C16.1007 11.9322 16.1003 12.0108 16.0792 12.0846C16.058 12.1584 16.017 12.2241 15.961 12.2738C15.9051 12.3235 15.8366 12.3551 15.764 12.3646C15.6913 12.3742 15.6176 12.3614 15.5517 12.3278C14.8283 11.9526 14.1776 11.4389 13.6329 10.813C13.6329 10.7395 13.6329 10.6659 13.6329 10.5966C13.6313 8.95139 13.0097 7.37396 11.9044 6.21018C10.7991 5.0464 9.30039 4.39126 7.73676 4.3884H7.57224C7.70898 3.18032 8.26153 2.06679 9.12548 1.25821C9.98942 0.44964 11.1049 0.00204194 12.2612 0H15.2699C16.5241 -1.24726e-07 17.7269 0.524062 18.6139 1.45696C19.5009 2.38986 19.9995 3.65522 20 4.97482ZM12.4833 10.601C12.4833 11.921 11.9849 13.1869 11.0979 14.1202C10.2108 15.0536 9.00771 15.578 7.75321 15.578H6.95733C6.36093 16.7703 5.24833 17.5406 4.46067 17.9583C4.39454 17.9928 4.32028 18.0063 4.24696 17.9972C4.17363 17.9881 4.10441 17.9568 4.04773 17.907C3.99104 17.8572 3.94935 17.7912 3.92773 17.7169C3.90611 17.6426 3.9055 17.5633 3.92597 17.4887C4.09937 16.8524 4.1366 16.1836 4.03496 15.5304C2.91254 15.3549 1.88746 14.7607 1.14674 13.8562C0.406026 12.9517 -0.00097073 11.7971 1.73867e-06 10.6031C1.73867e-06 9.28316 0.498348 8.01725 1.38541 7.08388C2.27247 6.15052 3.47558 5.62616 4.73008 5.62616H7.7491C8.37061 5.62559 8.98613 5.7539 9.56049 6.00376C10.1348 6.25363 10.6568 6.62014 11.0964 7.08235C11.5361 7.54456 11.8849 8.09341 12.1228 8.69753C12.3608 9.30165 12.4833 9.94919 12.4833 10.6031V10.601ZM6.67558 13.07C6.67558 12.9673 6.64663 12.8669 6.5924 12.7815C6.53816 12.6961 6.46108 12.6295 6.37089 12.5902C6.2807 12.5509 6.18146 12.5406 6.08572 12.5606C5.98997 12.5807 5.90202 12.6301 5.833 12.7028C5.76397 12.7754 5.71696 12.8679 5.69792 12.9687C5.67887 13.0694 5.68865 13.1738 5.726 13.2687C5.76336 13.3636 5.82662 13.4447 5.90779 13.5018C5.98896 13.5589 6.08439 13.5893 6.18201 13.5893C6.31291 13.5893 6.43845 13.5346 6.53101 13.4372C6.62358 13.3398 6.67558 13.2077 6.67558 13.07ZM7.86427 9.33509C7.84784 8.87521 7.66326 8.43977 7.34905 8.11963C7.03483 7.7995 6.61526 7.61941 6.17789 7.61695H6.16761C5.85228 7.61814 5.54369 7.71301 5.27736 7.89064C5.01103 8.06828 4.79779 8.32145 4.66221 8.621C4.63412 8.68224 4.61778 8.7487 4.6141 8.81659C4.61042 8.88447 4.61949 8.95246 4.64078 9.01666C4.66207 9.08086 4.69518 9.14001 4.7382 9.19075C4.78122 9.24149 4.83332 9.28282 4.89152 9.31237C4.94972 9.34192 5.01288 9.35913 5.0774 9.36299C5.14192 9.36686 5.20653 9.35732 5.26754 9.33492C5.32856 9.31251 5.38478 9.27768 5.433 9.23242C5.48122 9.18715 5.5205 9.13233 5.54859 9.07109C5.60438 8.94803 5.69166 8.84376 5.80064 8.76999C5.90962 8.69621 6.03599 8.65586 6.16555 8.65346C6.34719 8.65646 6.52099 8.73183 6.65189 8.86435C6.7828 8.99687 6.86108 9.17669 6.87095 9.36755C6.87617 9.52345 6.83416 9.67706 6.75098 9.80619C6.66781 9.93532 6.54778 10.0333 6.40823 10.086C6.19962 10.1551 6.01701 10.2916 5.88632 10.4761C5.75563 10.6606 5.68351 10.8837 5.68021 11.1138V11.5271C5.68021 11.6643 5.73199 11.7958 5.82417 11.8928C5.91635 11.9898 6.04136 12.0443 6.17172 12.0443C6.30208 12.0443 6.4271 11.9898 6.51928 11.8928C6.61146 11.7958 6.66324 11.6643 6.66324 11.5271V11.1138C6.66324 11.0835 6.7126 11.0662 6.7126 11.0641C7.05653 10.9455 7.35477 10.7131 7.56272 10.4015C7.77068 10.0898 7.87719 9.71571 7.86632 9.33509H7.86427Z" fill="#767676"/>
</svg>
