<svg width="16" height="22" viewBox="0 0 16 22" fill="none" xmlns="http://www.w3.org/2000/svg">
<path d="M8.65926 13.0351L8.65924 13.0351C7.84038 12.7836 7.00142 12.7922 6.07161 12.8018C5.88998 12.8036 5.70489 12.8055 5.5158 12.8055C4.20412 12.8055 3.00856 13.0828 2.08434 13.9199L2.08421 13.92C1.07386 14.8344 0.5 16.0686 0.5 17.4245V17.4334V17.4424V17.4513V17.4602V17.4692V17.4781V17.487V17.496V17.5049V17.5138V17.5227V17.5317V17.5406V17.5495V17.5585V17.5674V17.5763V17.5853V17.5942V17.6031V17.612V17.621V17.6299V17.6388V17.6478V17.6567V17.6656V17.6746V17.6835V17.6924V17.7013V17.7103V17.7192V17.7281V17.7371V17.746V17.7549V17.7639V17.7728V17.7817V17.7906V17.7996V17.8085V17.8174V17.8264V17.8353V17.8442V17.8532V17.8621V17.871V17.8799V17.8889V17.8978V17.9067V17.9157V17.9246V17.9335V17.9425V17.9514V17.9603V17.9693V17.9782V17.9871V17.996V18.005V18.0139V18.0228V18.0318V18.0407V18.0496V18.0586V18.0675V18.0764V18.0853V18.0943V18.1032V18.1121V18.1211V18.13V18.1389V18.1479V18.1568V18.1657V18.1746V18.1836V18.1925V18.2014V18.2104V18.2193V18.2282V18.2372V18.2461V18.255V18.2639V18.2729V18.2818V18.2907V18.2997V18.3086V18.3175V18.3265V18.3354V18.3443V18.3533V18.3622V18.3711V18.38V18.389V18.3979V18.4068V18.4158V18.4247V18.4336V18.4426V18.4515V18.4604V18.4693V18.4783V18.4872V18.4961V18.5051V18.514V18.5229V18.5319V18.5408V18.5497V18.5587V18.5676V18.5765V18.5854V18.5944V18.6033V18.6122V18.6212V18.6301V18.639V18.648V18.6569V18.6658V18.6747V18.6837V18.6926V18.7015V18.7105V18.7194V18.7283V18.7373V18.7462V18.7551V18.7641V18.773V18.7819V18.7908V18.7998V18.8087V18.8176V18.8266V18.8355V18.8444V18.8534V18.8623V18.8712V18.8801V18.8891V18.898V18.9069V18.9159V18.9248V18.9337V18.9427V18.9516V18.9605V18.9695V18.9784V18.9873V18.9962V19.0052V19.0141V19.023V19.032V19.0409V19.0498V19.0588V19.0677V19.0766V19.0856V19.0945V19.1034V19.1123V19.1213V19.1302V19.1391V19.1481V19.157V19.1659V19.1749V19.1838V19.1927V19.2017V19.2106V19.2195V19.2284V19.2374V19.2463V19.2552V19.2642V19.2731V19.282V19.291V19.2999V19.3088V19.3177V19.3267V19.3356V19.3445V19.3535V19.3624V19.3713V19.3803V19.3892V19.3981V19.4071V19.416V19.4249V19.4338V19.4428V19.4517V19.4606V19.4696V19.4785V19.4874V19.4964V19.5053V19.5142V19.5232V19.5321V19.541V19.5499V19.5589V19.5678V19.5767V19.5857V19.5946V19.6035V19.6125V19.6214V19.6303V19.6393V19.6482V19.6571V19.666V19.675V19.6839V19.6928V19.7018V19.7107V19.7196V19.7286V19.7375V19.7464V19.7553V19.7643V19.7732V19.7821V19.7911V19.8V19.8089V19.8179V19.8268V19.8357V19.8447V19.8536V19.8625V19.8714V19.8804V19.8893V19.8982V19.9072V19.9161V19.925V19.934V19.9429V19.9518V19.9608V19.9697V19.9786V19.9875V19.9965V20.0054V20.0143V20.0233V20.0322V20.0411V20.0501V20.059V20.0679V20.0769V20.0858V20.0947V20.1036V20.1126V20.1215V20.1304V20.1394V20.1483V20.1572V20.1662V20.1751V20.184V20.193V20.2019V20.2108V20.2197V20.2287V20.2376V20.2465V20.2555V20.2644V20.2733V20.2823V20.2912V20.3001V20.309V20.318V20.3269V20.3358V20.3448V20.3537V20.3626V20.3716V20.3805V20.3894V20.3984V20.4073V20.4162V20.4251V20.4341V20.443V20.4519V20.4609V20.4698V20.4787V20.4877V20.4966V20.5055V20.5145V20.5234V20.5323V20.5412V20.5502V20.5591V20.568V20.577V20.5859V20.5948V20.6038V20.6127V20.6216V20.6305V20.6395V20.6484V20.6573V20.6663V20.6752V20.6841V20.6931V20.702V20.7109V20.7199V20.7288V20.7377V20.7466V20.7556V20.7645V20.7734V20.7824V20.7913V20.8002V20.8092V20.8181V20.827V20.8359V20.8449V20.8538V20.8627V20.8717V20.8806V20.8895V20.8985V20.9074V20.9163V20.9253V20.9342V20.9431V20.952V20.961V20.9699V20.9788V20.9878V20.9967V21.0056V21.0146V21.0235V21.0324V21.0413V21.0503V21.0592V21.0681V21.0771V21.086V21.0949V21.1039V21.1128V21.1217V21.1307V21.1396V21.1485V21.1574V21.1664V21.1753V21.1842V21.1932V21.2021V21.211V21.22V21.2289V21.2378V21.2467V21.2557V21.2646V21.2735V21.2825V21.2914V21.3003V21.3093V21.3182V21.3271V21.3361V21.345V21.3539V21.3628V21.3718V21.3807V21.3896V21.3986V21.4075V21.4164V21.4254V21.4343V21.4432V21.4521V21.4611V21.47V21.4789V21.4879V21.4968V21.4969H0.504416H0.528436H0.552455H0.576475H0.600495H0.624515H0.648535H0.672554H0.696574H0.720594H0.744614H0.768634H0.792653H0.816673H0.840693H0.864713H0.888733H0.912752H0.936772H0.960792H0.984812H1.00883H1.03285H1.05687H1.08089H1.10491H1.12893H1.15295H1.17697H1.20099H1.22501H1.24903H1.27305H1.29707H1.32109H1.34511H1.36913H1.39315H1.41717H1.44119H1.46521H1.48923H1.51325H1.53727H1.56129H1.58531H1.60933H1.63335H1.65737H1.68139H1.70541H1.72943H1.75345H1.77747H1.80149H1.8255H1.84952H1.87354H1.89756H1.92158H1.9456H1.96962H1.99364H2.01766H2.04168H2.0657H2.08972H2.11374H2.13776H2.16178H2.1858H2.20982H2.23384H2.25786H2.28188H2.3059H2.32992H2.35394H2.37796H2.40198H2.426H2.45002H2.47404H2.49806H2.52208H2.5461H2.57012H2.59414H2.61816H2.64218H2.6662H2.69022H2.71424H2.73826H2.76228H2.7863H2.81032H2.83434H2.85836H2.88238H2.9064H2.93042H2.95444H2.97846H3.00248H3.02649H3.05051H3.07453H3.09855H3.12257H3.14659H3.17061H3.19463H3.21865H3.24267H3.26669H3.29071H3.31473H3.33875H3.36277H3.38679H3.41081H3.43483H3.45885H3.48287H3.50689H3.53091H3.55493H3.57895H3.60297H3.62699H3.65101H3.67503H3.69905H3.72307H3.74709H3.77111H3.79513H3.81915H3.84317H3.86719H3.89121H3.91523H3.93925H3.96327H3.98729H4.01131H4.03533H4.05935H4.08337H4.10739H4.13141H4.15543H4.17945H4.20347H4.22749H4.2515H4.27552H4.29954H4.32356H4.34758H4.3716H4.39562H4.41964H4.44366H4.46768H4.4917H4.51572H4.53974H4.56376H4.58778H4.6118H4.63582H4.65984H4.68386H4.70788H4.7319H4.75592H4.77994H4.80396H4.82798H4.852H4.87602H4.90004H4.92406H4.94808H4.9721H4.99612H5.02014H5.04416H5.06818H5.0922H5.11622H5.14024H5.16426H5.18828H5.2123H5.23632H5.26034H5.28436H5.30838H5.3324H5.35642H5.38044H5.40446H5.42848H5.4525H5.47651H5.50054H5.52455H5.54857H5.57259H5.59661H5.62063H5.64465H5.66867H5.69269H5.71671H5.74073H5.76475H5.78877H5.81279H5.83681H5.86083H5.88485H5.90887H5.93289H5.95691H5.98093H6.00495H6.02897H6.05299H6.07701H6.10103H6.12505H6.14907H6.17309H6.19711H6.22113H6.24515H6.26917H6.29319H6.31721H6.34123H6.36525H6.38927H6.41329H6.43731H6.46133H6.48535H6.50937H6.53339H6.55741H6.58143H6.60545H6.62947H6.65349H6.67751H6.70152H6.72554H6.74956H6.77358H6.7976H6.82162H6.84564H6.86966H6.89368H6.9177H6.94172H6.96574H6.98976H7.01378H7.0378H7.06182H7.08584H7.10986H7.13388H7.1579H7.18192H7.20594H7.22996H7.25398H7.278H7.30202H7.32604H7.35006H7.37408H7.3981H7.42212H7.44614H7.47016H7.49418H7.5182H7.54222H7.56624H7.59026H7.61428H7.6383H7.66232H7.68634H7.71036H7.73438H7.7584H7.78242H7.80644H7.83046H7.85448H7.8785H7.90251H7.92653H7.95055H7.97457H7.99859H8.02261H8.04663H8.07065H8.09467H8.11869H8.14271H8.16673H8.19075H8.21477H8.23879H8.26281H8.28683H8.31085H8.33487H8.35889H8.38291H8.40693H8.43095H8.45497H8.47899H8.50301H8.52703H8.55105H8.57507H8.59909H8.62311H8.64713H8.67115H8.69517H8.71919H8.74321H8.76723H8.79125H8.81527H8.83929H8.86331H8.88733H8.91135H8.93537H8.95939H8.98341H9.00743H9.03145H9.05547H9.07949H9.10351H9.12753H9.15154H9.17556H9.19958H9.2236H9.24762H9.27164H9.29566H9.31968H9.3437H9.36772H9.39174H9.41576H9.43978H9.4638H9.48782H9.51184H9.53586H9.55988H9.5839H9.60792H9.63194H9.65596H9.67998H9.704H9.72802H9.75204H9.77606H9.80008H9.8241H9.84812H9.87214H9.89616H9.92018H9.9442H9.96822H9.99224H10.0163H10.0403H10.0643H10.0883H10.1123H10.1364H10.1604H10.1844H10.2084H10.2324H10.2565H10.2805H10.3045H10.3285H10.3525H10.3766H10.4006H10.4246H10.4486H10.4726H10.4967H10.5207H10.5447H10.5687H10.5927H10.6168H10.6408H10.6648H10.6888H10.7128H10.7369H10.7609H10.7849H10.8089H10.8329H10.857H10.881H10.905H10.929H10.953H10.977H11.0011H11.0251H11.0491H11.0731H11.0971H11.1212H11.1452H11.1692H11.1932H11.2172H11.2413H11.2653H11.2893H11.3133H11.3373H11.3614H11.3854H11.4094H11.4334H11.4574H11.4815H11.5055H11.5295H11.5535H11.5775H11.6016H11.6256H11.6496H11.6736H11.6976H11.7217H11.7457H11.7697H11.7937H11.7981V21.4937V21.4876V21.4815V21.4754V21.4693V21.4632V21.457V21.4509V21.4448V21.4387V21.4326V21.4265V21.4204V21.4143V21.4082V21.4021V21.3959V21.3898V21.3837V21.3776V21.3715V21.3654V21.3593V21.3532V21.3471V21.341V21.3348V21.3287V21.3226V21.3165V21.3104V21.3043V21.2982V21.2921V21.286V21.2799V21.2737V21.2676V21.2615V21.2554V21.2493V21.2432V21.2371V21.231V21.2249V21.2188V21.2126V21.2065V21.2004V21.1943V21.1882V21.1821V21.176V21.1699V21.1638V21.1577V21.1515V21.1454V21.1393V21.1332V21.1271V21.121V21.1149V21.1088V21.1027V21.0966V21.0904V21.0843V21.0782V21.0721V21.066V21.0599V21.0538V21.0477V21.0416V21.0354V21.0293V21.0232V21.0171V21.011V21.0049V20.9988V20.9927V20.9866V20.9805V20.9743V20.9682V20.9621V20.956V20.9499V20.9438V20.9377V20.9316V20.9255V20.9194V20.9132V20.9071V20.901V20.8949V20.8888V20.8827V20.8766V20.8705V20.8644V20.8583V20.8521V20.846V20.8399V20.8338V20.8277V20.8216V20.8155V20.8094V20.8033V20.7971V20.791V20.7849V20.7788V20.7727V20.7666V20.7605V20.7544V20.7483V20.7422V20.736V20.7299V20.7238V20.7177V20.7116V20.7055V20.6994V20.6933V20.6872V20.6811V20.6749V20.6688V20.6627V20.6566V20.6505V20.6444V20.6383V20.6322V20.6261V20.6199V20.6138V20.6077V20.6016V20.5955V20.5894V20.5833V20.5772V20.5711V20.565V20.5588V20.5527V20.5466V20.5405V20.5344V20.5283V20.5222V20.5161V20.51V20.5038V20.4977V20.4916V20.4855V20.4794V20.4733V20.4672V20.4611V20.455V20.4489V20.4427V20.4366V20.4305V20.4244V20.4183V20.4122V20.4061V20.4V20.3939V20.3878V20.3816V20.3755V20.3694V20.3633V20.3572V20.3511V20.345V20.3389V20.3328V20.3266V20.3205V20.3144V20.3083V20.3022V20.2961V20.29V20.2839V20.2778V20.2717V20.2655V20.2594V20.2533V20.2472V20.2411V20.235V20.2289V20.2228V20.2167V20.2105V20.2044V20.1983V20.1922V20.1861V20.18V20.1739V20.1678V20.1617V20.1556V20.1494V20.1433V20.1372V20.1311V20.125V20.1189V20.1128V20.1067V20.1006V20.0944V20.0883V20.0822V20.0761V20.07V20.0639V20.0578V20.0517V20.0456V20.0395V20.0333V20.0272V20.0211V20.015V20.0089V20.0028V19.9967V19.9906V19.9845V19.9784V19.9722V19.9661V19.96V19.9539V19.9478V19.9417V19.9356V19.9295V19.9234V19.9172V19.9111V19.905V19.8989V19.8928V19.8867V19.8806V19.8745V19.8684V19.8623V19.8561V19.85V19.8439V19.8378V19.8317V19.8256V19.8195V19.8134V19.8073V19.8012V19.795V19.7889V19.7828V19.7767V19.7706V19.7645V19.7584V19.7523V19.7462V19.74V19.7339V19.7278V19.7217V19.7156V19.7095V19.7034V19.6973V19.6912V19.6851V19.6789V19.6728V19.6667V19.6606V19.6545V19.6484V19.6423V19.6362V19.6301V19.624V19.6178V19.6117V19.6056V19.5995V19.5934V19.5873V19.5812V19.5751V19.569V19.5628V19.5567V19.5506V19.5445V19.5384V19.5323V19.5262V19.5201V19.514V19.5079V19.5017V19.4956V19.4895V19.4834V19.4773V19.4712V19.4651V19.459V19.4529V19.4468V19.4406V19.4345V19.4284V19.4223V19.4162V19.4101V19.404V19.3979V19.3918V19.3857V19.3795V19.3734V19.3673V19.3612V19.3551V19.349V19.3429V19.3368V19.3307V19.3245V19.3184V19.3123V19.3062V19.3001V19.294V19.2879V19.2818V19.2757V19.2696V19.2634V19.2573V19.2512V19.2451V19.239V19.2329V19.2268V19.2207V19.2146V19.2085V19.2023V19.1962V19.1901V19.184V19.1779V19.1718V19.1657V19.1596V19.1535V19.1474V19.1412V19.1351V19.129V19.1229V19.1168V19.1107V19.1046V19.0985V19.0924V19.0863V19.0801V19.074V19.0679V19.0618V19.0557V19.0496V19.0435V19.0374V19.0313V19.0252V19.019V19.0129V19.0068V19.0007V18.9946V18.9885V18.9824V18.9763V18.9702V18.9641V18.9579V18.9518V18.9457V18.9396V18.9335V18.9274V18.9213V18.9152V18.9091V18.903V18.8968V18.8907V18.8846V18.8785V18.8724V18.8663V18.8602V18.8541V18.848V18.8419V18.8358V18.8296V18.8235V18.8174V18.8113V18.8052V18.7991V18.793V18.7869V18.7808V18.7747V18.7685V18.7624V18.7563V18.7502V18.7441V18.738V18.7319V18.7258V18.7197V18.7136V18.7074V18.7013V18.6952V18.6891L8.65926 13.0351ZM8.65926 13.0351L8.8032 12.5664L8.80603 12.5571M8.65926 13.0351L8.80603 12.5571M8.80603 12.5571C10.4043 13.0479 11.6169 14.3998 12.1002 15.9722C12.322 16.6958 12.312 17.4696 12.3021 18.2269C12.3001 18.3818 12.2981 18.5361 12.2981 18.6891L8.80603 12.5571Z" fill="#1D7DEA" stroke="#1D7DEA"/>
<path d="M6.14928 3.41762C8.07208 3.4667 9.57164 4.96993 9.61502 6.89438C9.65724 8.77904 8.01849 10.3065 6.13799 10.3489C4.25339 10.3914 2.72591 8.75269 2.6835 6.87185C2.64109 4.99101 4.27316 3.46586 6.14928 3.41762Z" fill="#1D7DEA" stroke="#1D7DEA"/>
<path d="M15.3512 1.90357C15.4141 0.709599 14.328 0.0411523 13.2703 0C12.5968 0.0283617 12.0196 0.201869 11.4738 0.59782C11.3792 0.6665 11.2991 0.788567 11.3461 0.911746C11.4971 1.30798 11.6484 1.70421 11.7996 2.10044C11.8564 2.24947 12.0527 2.38516 12.2081 2.26671C12.4964 2.04649 12.7203 1.86631 13.1062 1.83517C13.761 1.78234 12.695 3.06946 12.5696 3.25798C12.1466 3.89306 12.1697 4.58403 12.2248 5.30586H14.1028C14.0777 4.64548 14.1119 4.23618 14.5705 3.68452C15.0134 3.15093 15.3148 2.60483 15.3512 1.90357Z" fill="#1D7DEA"/>
<path d="M13.0646 7.73877C13.5765 7.73877 13.9914 7.32385 13.9914 6.81201C13.9914 6.30018 13.5765 5.88525 13.0646 5.88525C12.5528 5.88525 12.1379 6.30018 12.1379 6.81201C12.1379 7.32385 12.5528 7.73877 13.0646 7.73877Z" fill="#1D7DEA"/>
</svg>
