<svg width="222" height="79" viewBox="0 0 222 79" fill="none" xmlns="http://www.w3.org/2000/svg">
<path d="M210.984 52H11.016C4.9572 52 0 46.1181 0 38.9292V13.0708C0 5.88186 4.9572 0 11.016 0H210.984C217.043 0 222 5.88186 222 13.0708V38.9292C222 46.1181 217.043 52 210.984 52Z" fill="#FF8A33"/>
<path d="M176.147 43.0314L217.526 79L199.08 33.316L176.147 43.0314Z" fill="#FF8A33"/>
<path d="M21.877 36C22.5215 36 23.0732 35.7656 23.5322 35.2969C24.001 34.8281 24.2354 34.2373 24.2354 33.5244V18.3779H28.6592C29.1768 18.3779 29.6064 18.2021 29.9482 17.8506C30.29 17.4893 30.4609 17.0693 30.4609 16.5908C30.4609 16.1123 30.29 15.6973 29.9482 15.3457C29.6064 14.9844 29.1768 14.8037 28.6592 14.8037H15.0654C14.5479 14.8037 14.1133 14.9844 13.7617 15.3457C13.4199 15.6973 13.249 16.1123 13.249 16.5908C13.249 17.0693 13.4199 17.4893 13.7617 17.8506C14.1133 18.2021 14.5479 18.3779 15.0654 18.3779H19.5332V33.5244C19.5332 34.2373 19.7627 34.8281 20.2217 35.2969C20.6904 35.7656 21.2422 36 21.877 36ZM35.4268 35.9854C36.0713 35.9854 36.623 35.7559 37.082 35.2969C37.5508 34.8281 37.7852 34.2373 37.7852 33.5244V26.918H46.252V33.5244C46.252 34.2373 46.4814 34.8281 46.9404 35.2969C47.3994 35.7559 47.9512 35.9854 48.5957 35.9854C49.2402 35.9854 49.792 35.7559 50.251 35.2969C50.7197 34.8281 50.9541 34.2373 50.9541 33.5244V17.2793C50.9541 16.5664 50.7197 15.9805 50.251 15.5215C49.792 15.0527 49.2451 14.8184 48.6104 14.8184C47.9658 14.8184 47.4092 15.0527 46.9404 15.5215C46.4814 15.9805 46.252 16.5664 46.252 17.2793V23.168H37.7852V17.2793C37.7852 16.5664 37.5508 15.9805 37.082 15.5215C36.623 15.0527 36.0713 14.8184 35.4268 14.8184C34.7822 14.8184 34.2305 15.0527 33.7715 15.5215C33.3125 15.9805 33.083 16.5664 33.083 17.2793V33.5244C33.083 34.2373 33.3125 34.8281 33.7715 35.2969C34.2305 35.7559 34.7822 35.9854 35.4268 35.9854ZM67.5947 28.2363H60.6807L64.1377 18.7588L67.5947 28.2363ZM69.8359 34.4033C70.1387 35.2725 70.6807 35.7998 71.4619 35.9854C71.6377 36.0244 71.8086 36.0439 71.9746 36.0439C72.541 36.0439 73.0391 35.8535 73.4688 35.4727C73.8984 35.0918 74.1133 34.5986 74.1133 33.9932C74.1133 33.71 74.0596 33.4121 73.9521 33.0996L67.9609 17.7627C67.4922 16.5127 66.9502 15.668 66.335 15.2285C65.7295 14.7793 64.9971 14.5547 64.1377 14.5547C63.2783 14.5547 62.541 14.7793 61.9258 15.2285C61.3203 15.668 60.7881 16.5127 60.3291 17.7627L54.3379 33.0996C54.2207 33.4121 54.1621 33.7148 54.1621 34.0078C54.1621 34.6035 54.377 35.0918 54.8066 35.4727C55.2363 35.8535 55.7393 36.0439 56.3154 36.0439C56.7744 36.0439 57.1943 35.9072 57.5752 35.6338C57.9658 35.3604 58.2539 34.9502 58.4395 34.4033L59.626 31.1514H68.6494L69.8359 34.4033ZM79.2988 36C79.8555 36 80.3389 35.8096 80.749 35.4287C81.1592 35.0381 81.3643 34.5498 81.3643 33.9639V21.4688L90.5928 34.1104C91.0029 34.6768 91.457 35.1357 91.9551 35.4873C92.4629 35.8291 92.9561 36 93.4346 36C94.2549 36 94.8555 35.6924 95.2363 35.0771C95.627 34.4619 95.8223 33.6465 95.8223 32.6309V16.8545C95.8223 16.2588 95.6172 15.7705 95.207 15.3896C94.8066 14.999 94.3281 14.8037 93.7715 14.8037C93.2148 14.8037 92.7363 14.999 92.3359 15.3896C91.9355 15.7803 91.7354 16.2686 91.7354 16.8545V29.2764L82.4922 16.6348C82.1113 16.0879 81.667 15.6484 81.1592 15.3164C80.6514 14.9844 80.1484 14.8135 79.6504 14.8037C78.9668 14.8037 78.3955 15.0479 77.9365 15.5361C77.4873 16.0244 77.2627 16.6885 77.2627 17.5283V33.9639C77.2627 34.5498 77.4629 35.0381 77.8633 35.4287C78.2637 35.8096 78.7422 36 79.2988 36ZM102.883 36C103.527 36 104.079 35.7656 104.538 35.2969C105.007 34.8281 105.241 34.2422 105.241 33.5391L105.227 25.5703L112.463 34.1396C112.727 34.4814 112.907 34.7158 113.005 34.8428C113.112 34.96 113.283 35.1357 113.518 35.3701C113.762 35.6045 113.986 35.7705 114.191 35.8682C114.406 35.9561 114.636 36 114.88 36C115.456 36 115.974 35.7949 116.433 35.3848C116.901 34.9746 117.136 34.4814 117.136 33.9053C117.136 33.3486 116.828 32.6797 116.213 31.8984L110.104 24.8379L115.671 18.7002C116.276 17.9873 116.579 17.3672 116.579 16.8398C116.579 16.2734 116.359 15.7949 115.92 15.4043C115.49 15.0137 114.997 14.8184 114.44 14.8184C114.06 14.8184 113.718 14.9404 113.415 15.1846C113.112 15.4189 112.751 15.79 112.331 16.2979L105.227 24.4277L105.241 17.2646C105.241 16.5518 105.007 15.9658 104.538 15.5068C104.069 15.0381 103.518 14.8037 102.883 14.8037C102.238 14.8037 101.687 15.0381 101.228 15.5068C100.769 15.9658 100.539 16.5518 100.539 17.2646V33.5391C100.539 34.252 100.769 34.8428 101.228 35.3115C101.687 35.7705 102.238 36 102.883 36ZM134.011 33.627C134.011 34.584 134.387 35.2773 135.139 35.707C135.51 35.9121 135.915 36.0146 136.354 36.0146C136.989 36.0146 137.541 35.8047 138.01 35.3848C138.479 34.9648 138.713 34.3789 138.713 33.627V27.5918L144.675 17.9531C144.753 17.8164 144.816 17.6797 144.865 17.543C144.924 17.4062 144.963 17.2744 144.982 17.1475C145.012 17.0205 145.026 16.8936 145.026 16.7666C145.026 16.5029 144.973 16.2588 144.865 16.0342C144.768 15.7998 144.631 15.6045 144.455 15.4482C144.279 15.292 144.074 15.1699 143.84 15.082C143.605 14.9844 143.366 14.9355 143.122 14.9355C142.761 14.9355 142.414 15.0381 142.082 15.2432C141.75 15.4482 141.472 15.7559 141.247 16.166L136.589 23.9883L132.136 16.3564C131.95 16.0146 131.735 15.7314 131.491 15.5068C131.247 15.2822 130.998 15.1211 130.744 15.0234C130.49 14.9258 130.231 14.877 129.968 14.877C129.392 14.877 128.889 15.0869 128.459 15.5068C128.029 15.917 127.814 16.4248 127.814 17.0303C127.814 17.4697 127.941 17.9043 128.195 18.334L134.011 27.709V33.627ZM157.932 32.9238C156.066 32.9238 154.694 32.2988 153.815 31.0488C152.946 29.7988 152.512 27.8994 152.512 25.3506C152.512 22.8115 152.946 20.917 153.815 19.667C154.685 18.4072 156.057 17.7773 157.932 17.7773C159.807 17.7773 161.179 18.4072 162.048 19.667C162.917 20.917 163.352 22.8115 163.352 25.3506C163.352 27.8994 162.912 29.7988 162.033 31.0488C161.164 32.2988 159.797 32.9238 157.932 32.9238ZM157.932 36.4395C161.281 36.4395 163.845 35.4775 165.622 33.5537C167.399 31.6201 168.288 28.8857 168.288 25.3506C168.288 21.8154 167.399 19.0859 165.622 17.1621C163.845 15.2285 161.281 14.2617 157.932 14.2617C154.582 14.2617 152.019 15.2285 150.241 17.1621C148.464 19.0859 147.575 21.8154 147.575 25.3506C147.575 28.8857 148.464 31.6201 150.241 33.5537C152.019 35.4775 154.582 36.4395 157.932 36.4395ZM180.93 36.4395C182.209 36.4395 183.386 36.2783 184.46 35.9561C185.534 35.6338 186.472 35.1602 187.272 34.5352C188.083 33.9102 188.713 33.1045 189.162 32.1182C189.621 31.1221 189.851 29.999 189.851 28.749V17.2207C189.851 16.5078 189.621 15.9219 189.162 15.4629C188.703 14.9941 188.151 14.7598 187.507 14.7598C186.862 14.7598 186.306 14.9941 185.837 15.4629C185.378 15.9219 185.148 16.5078 185.148 17.2207V28.6465C185.148 29.3691 185.026 30.0137 184.782 30.5801C184.548 31.1465 184.226 31.5957 183.815 31.9277C183.415 32.2598 182.971 32.5088 182.482 32.6748C181.994 32.8408 181.477 32.9238 180.93 32.9238C179.777 32.9238 178.791 32.5625 177.971 31.8398C177.15 31.1172 176.74 30.0527 176.74 28.6465V17.2207C176.73 16.5078 176.491 15.9219 176.022 15.4629C175.563 14.9941 175.012 14.7598 174.367 14.7598C173.723 14.7598 173.171 14.9941 172.712 15.4629C172.253 15.9219 172.023 16.5078 172.023 17.2207V28.749C172.023 30.0088 172.248 31.1367 172.697 32.1328C173.156 33.1191 173.786 33.9248 174.587 34.5498C175.397 35.165 176.34 35.6338 177.414 35.9561C178.488 36.2783 179.66 36.4395 180.93 36.4395Z" fill="white"/>
</svg>
