<svg width="24" height="24" viewBox="0 0 24 24" fill="none" xmlns="http://www.w3.org/2000/svg">
<circle r="12" transform="matrix(-1 0 0 1 12 12)" fill="#E9BA15" fill-opacity="0.4"/>
<path d="M11.9999 0C5.38314 0 0 5.38303 0 11.9997C0 18.6167 5.38314 24 11.9999 24C18.6165 24 23.9995 18.6166 23.9995 11.9997C23.9995 5.38303 18.6165 0 11.9999 0ZM11.9999 22.2798C6.33165 22.2798 1.72018 17.6681 1.72018 11.9997C1.72018 6.33154 6.33165 1.72018 11.9999 1.72018C17.668 1.72018 22.2793 6.33154 22.2793 11.9997C22.2793 17.6681 17.668 22.2798 11.9999 22.2798Z" fill="#E9BA15"/>
<path d="M18.1695 11.7989H12.5302V5.63463C12.5302 5.15963 12.1453 4.77454 11.6702 4.77454C11.1952 4.77454 10.8101 5.15963 10.8101 5.63463V12.6589C10.8101 13.1339 11.1952 13.519 11.6702 13.519H18.1695C18.6446 13.519 19.0296 13.1339 19.0296 12.6589C19.0296 12.1839 18.6445 11.7989 18.1695 11.7989Z" fill="#E9BA15"/>
</svg>
