<svg width="48" height="48" viewBox="0 0 48 48" fill="none" xmlns="http://www.w3.org/2000/svg">
<g clip-path="url(#clip0)">
<path d="M37.0832 20.2508C36.3182 14.3146 31.4862 9.54986 25.5402 8.87187C17.57 7.96173 10.8008 14.1789 10.8008 21.9842C10.8008 25.8868 12.4955 29.383 15.178 31.8041C18.0737 34.3897 19.8747 37.7985 19.8747 41.6815H28.1061C28.1061 37.8855 29.8882 34.3799 32.7351 31.8619C35.863 29.102 37.6644 24.87 37.0832 20.2508Z" fill="#FFC301"/>
<path d="M28.1067 42.6429H19.8749C19.3446 42.6429 18.9147 42.2131 18.9147 41.6827C18.9147 38.2452 17.4016 35.0772 14.5392 32.5211C11.5516 29.8247 9.84082 25.9861 9.84082 21.985C9.84082 17.9523 11.5672 14.0993 14.5773 11.4132C17.5813 8.73201 21.6172 7.45724 25.6491 7.91908C32.0081 8.64424 37.2175 13.779 38.0358 20.1286C38.0358 20.1294 38.0362 20.1307 38.0362 20.1319C38.6268 24.8294 36.8824 29.4839 33.3707 32.583C30.6353 35.0013 29.0665 38.3182 29.0665 41.6827C29.0665 42.2131 28.6366 42.6429 28.1067 42.6429ZM20.7998 40.7226H27.1826C27.4513 37.146 29.2096 33.699 32.0992 31.1438C35.1352 28.4654 36.6421 24.4394 36.131 20.3731C35.4243 14.888 30.9241 10.453 25.4313 9.82713C21.8896 9.42476 18.4906 10.494 15.8558 12.8459C13.2533 15.1678 11.7608 18.4987 11.7608 21.985C11.7608 25.4434 13.241 28.7632 15.8217 31.0921C18.7896 33.7425 20.5348 37.1325 20.7998 40.7226Z" fill="white"/>
<path d="M14.6717 22.9419C14.1418 22.9419 13.7119 22.5121 13.7119 21.9817C13.7119 16.3134 18.3237 11.7012 23.9929 11.7012C24.5228 11.7012 24.9527 12.131 24.9527 12.6613C24.9527 13.1913 24.5228 13.6211 23.9929 13.6211C19.3827 13.6211 15.6319 17.3716 15.6319 21.9817C15.6319 22.5121 15.202 22.9419 14.6717 22.9419Z" fill="white"/>
<path d="M23.9924 6.11625C23.4621 6.11625 23.0322 5.68641 23.0322 5.15607V0.960176C23.0322 0.429844 23.4621 0 23.9924 0C24.5223 0 24.9522 0.429844 24.9522 0.960176V5.15607C24.9522 5.68641 24.5223 6.11625 23.9924 6.11625Z" fill="white"/>
<path d="M12.0943 11.0454C11.8487 11.0454 11.603 10.9515 11.4155 10.7641L8.44846 7.79698C8.07317 7.4221 8.07317 6.81466 8.44846 6.43937C8.82335 6.06448 9.43079 6.06448 9.80567 6.43937L12.7732 9.40685C13.148 9.78173 13.148 10.3892 12.7732 10.7641C12.5853 10.9515 12.34 11.0454 12.0943 11.0454Z" fill="white"/>
<path d="M7.16625 22.9414H2.96994C2.43961 22.9414 2.00977 22.5116 2.00977 21.9812C2.00977 21.4513 2.43961 21.0215 2.96994 21.0215H7.16625C7.69617 21.0215 8.12602 21.4513 8.12602 21.9812C8.12602 22.5116 7.69617 22.9414 7.16625 22.9414Z" fill="white"/>
<path d="M9.12686 37.807C8.88159 37.807 8.6359 37.7135 8.44846 37.5261C8.07317 37.1508 8.07317 36.5433 8.44846 36.1685L11.4155 33.2014C11.7904 32.8261 12.3979 32.8261 12.7732 33.2014C13.148 33.5763 13.148 34.1837 12.7732 34.5586L9.80567 37.5261C9.61823 37.7135 9.37254 37.807 9.12686 37.807Z" fill="white"/>
<path d="M38.8577 37.807C38.612 37.807 38.3663 37.7135 38.1789 37.5261L35.2118 34.5586C34.8369 34.1837 34.8369 33.5763 35.2118 33.2014C35.5867 32.8261 36.1942 32.8261 36.5694 33.2014L39.5365 36.1685C39.9114 36.5433 39.9114 37.1508 39.5365 37.5261C39.3491 37.7135 39.1034 37.807 38.8577 37.807Z" fill="white"/>
<path d="M45.0149 22.9414H40.8186C40.2882 22.9414 39.8584 22.5116 39.8584 21.9812C39.8584 21.4513 40.2882 21.0215 40.8186 21.0215H45.0149C45.5448 21.0215 45.9746 21.4513 45.9746 21.9812C45.9746 22.5116 45.5448 22.9414 45.0149 22.9414Z" fill="white"/>
<path d="M35.8906 11.0454C35.645 11.0454 35.3993 10.9515 35.2118 10.7641C34.8369 10.3892 34.8369 9.78173 35.2118 9.40685L38.1789 6.43937C38.5538 6.06448 39.1616 6.06448 39.5365 6.43937C39.9114 6.81466 39.9114 7.4221 39.5365 7.79698L36.5694 10.7641C36.3816 10.9515 36.1363 11.0454 35.8906 11.0454Z" fill="white"/>
<path d="M19.5 40.5H28.5V45.5C28.5 46.0523 28.0523 46.5 27.5 46.5H20.5C19.9477 46.5 19.5 46.0523 19.5 45.5V40.5Z" fill="#313131" stroke="white"/>
<g filter="url(#filter0_d)">
<line x1="19.5" y1="43.25" x2="28.5" y2="43.25" stroke="white" stroke-width="0.5"/>
</g>
</g>
<defs>
<filter id="filter0_d" x="15.5" y="43" width="17" height="8.5" filterUnits="userSpaceOnUse" color-interpolation-filters="sRGB">
<feFlood flood-opacity="0" result="BackgroundImageFix"/>
<feColorMatrix in="SourceAlpha" type="matrix" values="0 0 0 0 0 0 0 0 0 0 0 0 0 0 0 0 0 0 127 0"/>
<feOffset dy="4"/>
<feGaussianBlur stdDeviation="2"/>
<feColorMatrix type="matrix" values="0 0 0 0 0 0 0 0 0 0 0 0 0 0 0 0 0 0 0.25 0"/>
<feBlend mode="normal" in2="BackgroundImageFix" result="effect1_dropShadow"/>
<feBlend mode="normal" in="SourceGraphic" in2="effect1_dropShadow" result="shape"/>
</filter>
<clipPath id="clip0">
<rect width="48" height="48" fill="white"/>
</clipPath>
</defs>
</svg>
