<svg width="164" height="166" viewBox="0 0 164 166" fill="none" xmlns="http://www.w3.org/2000/svg">
<path d="M118.452 77.8705V90.8289C118.452 92.4082 117.134 93.8227 114.974 94.8883C112.674 96.0173 109.418 96.7213 105.806 96.7213C98.8227 96.7213 93.1714 94.0827 93.1714 90.8352V77.8769H118.452V77.8705Z" fill="#945915"/>
<path d="M118.452 77.8705V90.8289C118.452 92.4082 117.134 93.8227 114.974 94.8883V81.9299L115.662 78.4921L116.261 77.8769H118.452V77.8705Z" fill="#874C12"/>
<path d="M118.452 77.8705C118.452 79.4499 117.134 80.8643 114.974 81.9299C112.674 83.0589 109.418 83.763 105.806 83.763C98.8227 83.763 93.1714 81.1244 93.1714 77.8768C93.1714 77.5724 93.2224 77.2679 93.3179 76.9698L94.7451 72.4664L97.5739 73.4115C99.7847 72.5235 102.665 71.9844 105.812 71.9844C108.424 71.9844 110.858 72.3523 112.871 72.9929C113.279 73.1134 113.674 73.2529 114.05 73.4052L116.942 72.6504L118.299 76.9635C118.401 77.2616 118.452 77.5597 118.452 77.8705Z" fill="#FFCB24"/>
<path d="M118.452 77.8706C118.452 79.4499 117.134 80.8644 114.974 81.93L112.935 73.8112C112.935 73.8112 112.897 73.4687 112.871 72.9993C113.279 73.1198 113.674 73.2594 114.05 73.4116L116.942 72.6568L118.299 76.9699C118.401 77.2617 118.452 77.5598 118.452 77.8706Z" fill="#F9B800"/>
<path d="M105.812 78.6507C112.023 78.6507 117.057 76.3051 117.057 73.4116C117.057 70.5181 112.023 68.1724 105.812 68.1724C99.6014 68.1724 94.5668 70.5181 94.5668 73.4116C94.5668 76.3051 99.6014 78.6507 105.812 78.6507Z" fill="#FFD357"/>
<path d="M105.767 72.9358C104.009 72.9358 102.575 71.515 102.575 69.7581V56.4763H108.953V69.7581C108.959 71.515 107.526 72.9358 105.767 72.9358Z" fill="#FBC006"/>
<path d="M108.959 56.4763V69.7581C108.959 71.4199 107.666 72.7899 106.029 72.9231C106.678 72.3586 107.08 71.515 107.08 70.5826V57.3008H102.575V56.4763H108.959Z" fill="#F7A500"/>
<path d="M124.754 24.35V45.9726C124.754 56.3811 116.274 64.8297 105.812 64.8297C104.754 64.8297 103.709 64.7409 102.703 64.5697C99.3197 64.0242 96.2424 62.578 93.7194 60.4913C89.5335 57.0218 86.8704 51.808 86.8704 45.9726V24.35H124.754Z" fill="#FFCB24"/>
<path d="M102.696 64.5697C99.3132 64.0242 96.2359 62.578 93.7129 60.4913C91.0943 57.2628 89.527 53.1463 89.527 48.6683V27.0457H93.9231V48.6683C93.9295 55.3599 97.4273 61.2334 102.696 64.5697Z" fill="#FFD96E"/>
<path d="M124.753 24.35V45.9726C124.753 55.0872 118.261 62.6922 109.628 64.4492C114.451 61.0367 117.586 55.4297 117.586 49.0869V27.458H86.8638V24.3437H124.753V24.35Z" fill="#F9B800"/>
<path d="M105.812 30.2742C116.276 30.2742 124.76 27.6218 124.76 24.35C124.76 21.0782 116.276 18.4258 105.812 18.4258C95.3471 18.4258 86.8638 21.0782 86.8638 24.35C86.8638 27.6218 95.3471 30.2742 105.812 30.2742Z" fill="#FFD96E"/>
<path d="M105.786 29.5891C115.48 29.5891 123.339 27.2435 123.339 24.35C123.339 21.4565 115.48 19.1108 105.786 19.1108C96.0923 19.1108 88.2336 21.4565 88.2336 24.35C88.2336 27.2435 96.0923 29.5891 105.786 29.5891Z" fill="#C5A600"/>
<path d="M105.812 85.5454C105.971 85.5454 106.131 85.5454 106.296 85.539V91.6408C106.137 91.6471 105.978 91.6471 105.812 91.6471C100.932 91.6471 96.6948 90.3595 94.5923 88.4694V82.3676C96.6948 84.2578 100.932 85.5454 105.812 85.5454Z" fill="#FFCB24"/>
<path d="M75.8926 48.0594C75.899 48.497 75.109 48.8522 74.1342 48.8586C73.1594 48.8649 72.3693 48.5224 72.363 48.0847C72.3566 47.6471 73.1466 47.2919 74.1214 47.2855C75.0962 47.2792 75.8926 47.6281 75.8926 48.0594Z" fill="#ED8406"/>
<path d="M75.8323 40.8293L72.3026 40.8605L72.3669 48.0976L75.8966 48.0665L75.8323 40.8293Z" fill="#ED8406"/>
<path d="M75.829 40.8286C75.8354 41.2599 75.0454 41.6214 74.0706 41.6278C73.0958 41.6341 72.3057 41.2916 72.2994 40.8539C72.293 40.4163 73.083 40.0611 74.0578 40.0547C75.0326 40.0484 75.829 40.3909 75.829 40.8286Z" fill="#FBC006"/>
<path d="M81.5186 27.5785C81.5186 27.5785 84.959 33.6676 85.9593 35.4309C86.9596 37.2005 96.6884 41.3107 108.947 31.9804C114.515 27.8195 116.656 20.8171 115.433 18.6478C114.209 16.4849 110.208 9.41272 110.208 9.41272L81.5186 27.5785Z" fill="#1D7DEA"/>
<path d="M71.2034 29.475L104.295 30.623L119.918 2.60687L86.7237 1.45248L71.2034 29.475Z" fill="#0A2982"/>
<path d="M119.102 1.16074L119.918 2.60689L118.096 3.63443L116.891 3.13969L119.102 1.16074Z" fill="#0A2982"/>
<path d="M70.3816 28.0225L71.2035 29.475L73.701 27.1155L70.3816 28.0225Z" fill="#0A2982"/>
<path d="M70.3934 28.0225L103.486 29.1769L119.114 1.16073L85.9137 0L70.3934 28.0225Z" fill="#1D7DEA"/>
<path d="M74.1023 41.1394C73.9239 41.1394 73.771 40.9935 73.771 40.8095L73.7646 27.9971C73.7646 27.8893 73.8156 27.7941 73.9048 27.7307L94.2163 13.3579C94.3628 13.2564 94.5667 13.2881 94.675 13.434C94.777 13.5799 94.7451 13.7829 94.5986 13.8907L74.4273 28.1683L74.4336 40.8095C74.4273 40.9935 74.2807 41.1394 74.1023 41.1394Z" fill="#FBC006"/>
<path d="M96.255 13.7005C96.1467 14.7407 95.2165 15.4891 94.1716 15.3813C93.1268 15.2735 92.375 14.3474 92.4833 13.3072C92.5916 12.267 93.5218 11.5185 94.5667 11.6264C95.6052 11.7342 96.3634 12.6666 96.255 13.7005Z" fill="#0A2982"/>
<path d="M0.872803 88.8587L11.1496 94.7575L35.6342 80.7273L25.4339 74.7968L0.872803 88.8587Z" fill="url(#paint0_linear)"/>
<path d="M26.2622 32.9724L3.38953 46.0893L11.1497 50.5356L27.5492 37.2347V33.7145C27.5492 33.0548 26.8356 32.6489 26.2622 32.9724Z" fill="#2875DF"/>
<path d="M3.38953 47.3071L26.1348 34.2663L34.3218 38.9726L11.5829 52.0071L3.38953 47.3071Z" fill="#75BCFC"/>
<path d="M34.9397 37.5582C34.6466 37.3743 34.2899 37.2664 33.9522 37.4631L11.156 50.5356L3.39581 46.0893L26.2685 32.9724C26.5106 32.8328 26.7846 32.8328 27.0139 32.9216V32.9153C27.0139 32.9153 26.2175 32.5284 25.9053 32.3381C25.6186 32.1732 25.2746 32.0844 24.9433 32.2683L0.872803 46.0766V86.328L9.88808 81.1586V91.5101L34.4937 77.3973C34.9525 77.1309 35.2392 76.6425 35.2392 76.1161L36.0101 38.1481C36.0037 38.1544 35.2901 37.7739 34.9397 37.5582Z" fill="#4594F4"/>
<path d="M11.1496 51.9817L0.872803 46.0892V86.3343L11.1496 92.2331V51.9817Z" fill="#347EE8"/>
<path d="M9.75429 54.1573L1.82849 49.6095V52.6921L9.75429 57.2336V54.1573Z" fill="#FCC106"/>
<path d="M9.75429 58.2167L1.82849 53.6752V54.7408L9.75429 59.2823V58.2167Z" fill="#FCC106"/>
<path d="M9.75429 60.202L1.82849 55.6605V56.7261L9.75429 61.2676V60.202Z" fill="#FCC106"/>
<path d="M9.75429 86.994L1.82849 82.4525V83.5181L9.75429 88.0595V86.994Z" fill="#FCC106"/>
<path d="M35.2138 38.1798L11.1497 51.9817V92.2331L35.7553 78.1204C36.2141 77.854 36.5008 77.3656 36.5008 76.8392V38.9219C36.5008 38.2686 35.7872 37.8563 35.2138 38.1798Z" fill="#205CE2"/>
<path d="M14.3618 90.2262L24.6386 96.125L49.1168 82.0948L38.9229 76.1642L14.3618 90.2262Z" fill="url(#paint1_linear)"/>
<path d="M39.7511 34.01L16.8784 47.1269L24.6386 51.5732L41.0381 38.2724V34.7521C41.0381 34.0988 40.3245 33.6865 39.7511 34.01Z" fill="#B4BBE1"/>
<path d="M16.8784 48.351L39.6173 35.3039L47.8107 40.0102L25.0718 53.0447L16.8784 48.351Z" fill="#DAE3F2"/>
<path d="M48.4301 38.5958C48.137 38.4119 47.7802 38.304 47.4425 38.5007L24.6463 51.5732L16.8861 47.1269L39.7588 34.01C40.0009 33.8704 40.2749 33.8704 40.5043 33.9592V33.9529C40.5043 33.9529 39.7079 33.566 39.3957 33.3757C39.109 33.2108 38.7649 33.122 38.4336 33.3059L14.3695 47.1078V87.3592L23.3848 82.1898V92.5413L47.9904 78.4286C48.4492 78.1622 48.7359 77.6738 48.7359 77.1473L49.5068 39.1793C49.4941 39.192 48.7805 38.8178 48.4301 38.5958Z" fill="#CED2EF"/>
<path d="M24.6386 53.0193L14.3618 47.1269V87.3783L24.6386 93.2707V53.0193Z" fill="#C5C8E8"/>
<path d="M23.2433 55.1949L15.3175 50.6534V53.7297L23.2433 58.2711V55.1949Z" fill="white"/>
<path d="M23.2433 59.2606L15.3175 54.7129V55.7784L23.2433 60.3262V59.2606Z" fill="white"/>
<path d="M23.2433 61.2396L15.3175 56.6982V57.7637L23.2433 62.3052V61.2396Z" fill="white"/>
<path d="M23.2433 88.0379L15.3175 83.4901V84.5557L23.2433 89.1035V88.0379Z" fill="white"/>
<path d="M48.7028 39.2237L24.6387 53.0257V93.2771L49.2443 79.1643C49.7031 78.8979 49.9898 78.4096 49.9898 77.8831V39.9595C49.9898 39.3062 49.2762 38.8939 48.7028 39.2237Z" fill="#B4BBE1"/>
<path d="M77.9442 57.7575V70.4875L76.5872 71.236L64.673 62.318L62.819 50.6155L64.176 49.8607L77.9442 57.7575Z" fill="#FF9906"/>
<path d="M77.9443 57.7575V70.4875L76.5873 71.236L64.6731 62.318L76.5873 58.5123L77.9443 57.7575Z" fill="#EF770A"/>
<path d="M76.5872 58.5123V71.236L62.819 63.3392V50.6155L76.5872 58.5123Z" fill="#FCC106"/>
<path d="M66.2786 59.5652L68.139 63.2377L73.5099 59.3242" stroke="white" stroke-width="3.1599" stroke-miterlimit="10" stroke-linecap="round" stroke-linejoin="round"/>
<path d="M163.777 88.2728V100.996L162.414 101.751L150.506 92.8332L148.646 81.1308L150.009 80.376L163.777 88.2728Z" fill="#347EE8"/>
<path d="M163.777 88.2727V100.996L162.414 101.751L150.506 92.8332L162.414 89.0212L163.777 88.2727Z" fill="#266FC6"/>
<path d="M162.414 89.0212V101.751L148.646 93.8544V81.1307L162.414 89.0212Z" fill="#4C96ED"/>
<path d="M155.221 87.6067L154.182 89.091C154.118 89.1798 154.004 89.2115 153.902 89.1607L151.653 88.1649C151.436 88.0698 151.245 88.2981 151.372 88.5011L153.169 91.2919C153.201 91.3427 153.214 91.4061 153.207 91.4695L152.742 93.8861C152.717 94.0257 152.825 94.1715 152.972 94.1779L155.38 94.3301C155.444 94.3365 155.507 94.3618 155.552 94.4126L157.75 96.8482C157.909 97.0258 158.19 96.9053 158.158 96.6706L157.769 94.2033C157.75 94.0954 157.807 93.9939 157.909 93.9622L159.61 93.3089C159.782 93.2455 159.802 93.0108 159.649 92.903L156.941 90.924C156.903 90.8923 156.871 90.8543 156.852 90.8099L155.647 87.6765C155.565 87.4989 155.323 87.4545 155.221 87.6067Z" fill="white"/>
<path d="M2.948 109.45L89.4756 158.905L142.962 128.136L56.428 78.6877L2.948 109.45Z" fill="url(#paint2_linear)"/>
<path d="M56.428 73.9561L142.962 123.411V125.333L89.4756 156.095L2.948 106.647V104.725L56.428 73.9561Z" fill="#80B4FF"/>
<path d="M2.948 104.725L89.4756 154.173L142.962 123.411L56.428 73.9561L2.948 104.725Z" fill="#1D7DEA"/>
<path d="M57.0906 68.4822C57.0906 68.4822 72.8594 70.3343 99.2681 93.5426C99.2681 93.5426 122.096 97.8937 139.891 115.812V122.377L89.4245 151.224L6.62415 103.894V97.3229L57.0906 68.4822Z" fill="white"/>
<path d="M7.09839 97.5353C7.09839 97.5353 22.8672 99.3874 49.2759 122.596C49.2759 122.596 72.104 126.947 89.8988 144.865V151.43L7.09839 104.1V97.5353Z" fill="#F5F5F5"/>
<path d="M139.897 115.812L89.4246 144.659V151.224L139.897 122.377V115.812Z" fill="#E2E2E2"/>
<path d="M136.489 103.514L86.0167 132.355C83.4236 130.7 80.8241 129.317 78.2629 128.169C76.2241 127.256 74.2172 126.482 72.2612 125.835C59.3913 121.572 48.9043 122.644 48.9043 122.644L99.3771 93.7973C99.3771 93.7973 118.293 91.8691 136.489 103.514Z" fill="#F5F5F5"/>
<path d="M130.513 104.777L129.315 105.462C115.917 97.6727 102.448 96.9497 97.0962 97.0194L99.1477 95.846C105.665 96.0173 118.185 97.4127 130.513 104.777Z" fill="url(#paint3_linear)"/>
<path d="M125.072 107.885L123.881 108.563C110.488 100.774 97.0197 100.051 91.6678 100.121L93.713 98.9477C100.224 99.1189 112.744 100.521 125.072 107.885Z" fill="url(#paint4_linear)"/>
<path d="M119.644 110.993L118.452 111.671C105.073 103.889 91.5977 103.153 86.2395 103.229L88.2974 102.049C94.8152 102.221 107.322 103.629 119.644 110.993Z" fill="url(#paint5_linear)"/>
<path d="M114.267 114.063L113.069 114.748C99.6956 106.965 86.2332 106.229 80.8687 106.299L82.9138 105.126C89.4379 105.297 101.951 106.699 114.267 114.063Z" fill="url(#paint6_linear)"/>
<path d="M108.819 117.171L107.628 117.856C94.2482 110.073 80.7986 109.337 75.4276 109.407L77.4728 108.234C83.9905 108.405 96.4972 109.813 108.819 117.171Z" fill="url(#paint7_linear)"/>
<path d="M103.066 120.462L101.875 121.147C88.5014 113.359 75.0326 112.623 69.6744 112.699L71.7323 111.519C78.2628 111.697 90.7568 113.105 103.066 120.462Z" fill="url(#paint8_linear)"/>
<path d="M97.574 123.602L96.3826 124.287C83.0158 116.511 69.5725 115.762 64.1952 115.832L66.2403 114.659C72.7645 114.836 85.2648 116.251 97.574 123.602Z" fill="url(#paint9_linear)"/>
<path d="M92.1011 126.729L90.9096 127.408C77.5364 119.632 64.074 118.896 58.7095 118.966L60.7674 117.786C67.2915 117.963 79.7918 119.378 92.1011 126.729Z" fill="url(#paint10_linear)"/>
<path d="M55.1543 72.7646C60.5889 74.3376 73.5608 79.4119 91.9672 95.1103L93.0885 94.4697C75.3893 79.2977 62.7807 73.8365 56.6452 71.9083L55.1543 72.7646Z" fill="url(#paint11_linear)"/>
<path d="M49.777 75.8409C55.2371 77.4266 68.1962 82.5262 86.5708 98.1993L87.6921 97.5586C70.0247 82.4057 57.4224 76.9319 51.2678 74.991L49.777 75.8409Z" fill="url(#paint12_linear)"/>
<path d="M44.2915 78.9806C49.7198 80.5473 62.6916 85.6215 81.1108 101.326L82.2321 100.686C64.5265 85.5073 51.9115 80.0525 45.7824 78.1243L44.2915 78.9806Z" fill="url(#paint13_linear)"/>
<path d="M38.876 82.0759C44.3234 83.6552 57.2888 88.7421 75.6761 104.428L76.7975 103.787C59.1173 88.6216 46.5087 83.1605 40.3668 81.226L38.876 82.0759Z" fill="url(#paint14_linear)"/>
<path d="M33.4159 85.1965C38.8633 86.7695 51.8287 91.8564 70.2224 107.549L71.3438 106.908C53.6573 91.7423 41.055 86.2811 34.9131 84.3466L33.4159 85.1965Z" fill="url(#paint15_linear)"/>
<path d="M28.0002 88.2918C33.454 89.8775 46.4131 94.9644 64.794 110.65L65.9218 110.003C48.248 94.8439 35.6393 89.3764 29.4911 87.4355L28.0002 88.2918Z" fill="url(#paint16_linear)"/>
<path d="M22.5529 91.3997C27.9939 92.9791 40.9657 98.0597 59.353 113.752L60.4807 113.105C42.7942 97.9392 30.1856 92.478 24.0437 90.5435L22.5529 91.3997Z" fill="url(#paint17_linear)"/>
<path d="M17.099 94.5204C22.5528 96.0998 35.5118 101.193 53.8928 116.872L55.0141 116.232C37.3404 101.073 24.7317 95.605 18.5835 93.6641L17.099 94.5204Z" fill="url(#paint18_linear)"/>
<path d="M56.556 101.072L58.5821 101.275L58.8114 102.988L89.5335 85.4248L87.0614 83.6361L56.556 101.072Z" fill="#6CE3FF"/>
<path opacity="0.5" d="M38.1179 102.912C37.3533 103.768 31.8168 106.426 28.7012 107.358C28.3381 107.143 27.9813 106.933 27.6309 106.73L37.5636 101.485C37.5636 101.485 38.8888 102.062 38.1179 102.912Z" fill="#898989"/>
<path d="M27.9175 65.9144C27.9175 65.9144 26.7707 67.2908 27.4906 69.5552C27.9366 70.9569 28.338 71.0901 28.4463 71.8259C28.5546 72.5617 27.4906 73.9508 28.4017 76.0502C28.8668 77.1222 31.7339 75.8726 31.7339 75.8726L33.1929 73.9508L31.7275 69.9738L27.9175 65.9144Z" fill="#2A3049"/>
<path d="M31.6701 72.9105L31.8358 74.8577C31.8358 74.8577 28.2998 76.2278 28.2233 75.5872C28.1469 74.9465 28.9624 74.566 29.1153 74.1283C29.2682 73.6907 29.1153 73.3164 29.1153 73.3164C29.1153 73.3164 28.6629 72.4538 28.7394 71.4199" fill="#22293F"/>
<path d="M13.3912 124.09C13.3912 124.09 13.4995 124.198 13.4804 124.331C13.4612 124.465 13.2701 124.693 12.8751 124.902C12.4801 125.112 12.1806 125.2 11.7665 125.537C11.3587 125.873 10.5878 126.59 10.1546 126.945C9.71496 127.3 9.10333 127.49 8.77202 127.541C8.43435 127.592 7.56786 127.744 6.90525 127.706C6.31273 127.668 5.8986 127.344 5.83489 127.097C5.77118 126.856 5.79666 126.444 5.79666 126.444" fill="#3A3D51"/>
<path d="M10.5114 119.942V122.34V123.38H12.5374L13.1936 119.942H10.5114Z" fill="#FFE1BD"/>
<path d="M29.5167 97.6411C29.5167 97.6411 27.3823 103.47 23.0753 104.967C22.3745 105.214 21.6928 105.405 21.0429 105.563C17.7108 106.362 15.2324 106.128 15.2324 106.128C15.621 110.435 13.6842 118.509 13.2063 120.412C13.1362 120.697 12.9069 120.906 12.6265 120.97C12.5756 120.983 12.5182 120.989 12.4673 120.995C11.9257 121.078 11.4224 121.008 11.0529 120.913C10.6961 120.818 10.4412 120.507 10.4285 120.139C10.3138 117.215 9.77861 103.356 11.3714 102.259C15.3025 99.5376 24.9421 96.3028 26.9045 95.567C27.1338 95.4846 27.3122 95.307 27.4078 95.0786L28.0513 93.5183L29.5167 97.6411Z" fill="#3A3D51"/>
<path d="M22.1897 102.259L21.0365 105.57C17.7044 106.369 15.2259 106.134 15.2259 106.134C15.6146 110.441 13.6777 118.515 13.1999 120.418C13.1298 120.703 12.9005 120.913 12.6201 120.976C12.5691 120.989 12.5118 120.995 12.4608 121.002H12.4545C14.3021 114.576 13.9963 104.561 13.9963 104.561C17.9592 104.802 22.0686 102.328 22.1897 102.259Z" fill="#333647"/>
<path d="M24.2094 121.661L25.1268 123.608C25.1268 123.608 27.8983 126.101 27.2867 123.031L26.1526 119.492" fill="#FFE1BD"/>
<path d="M38.8633 98.5291C38.6976 100.33 38.1433 102.341 35.6968 103.711C33.5433 104.923 28.9943 107.111 23.515 108.506C23.7189 108.982 23.9419 109.521 24.184 110.13C25.1524 112.521 26.2737 118.655 26.6751 120.672C26.7388 120.989 26.656 121.312 26.4649 121.566C26.4203 121.623 26.3757 121.674 26.3247 121.718C25.9807 122.016 25.4837 122.34 24.9422 122.34C24.5726 122.34 24.2477 122.112 24.082 121.788C22.9671 119.594 17.5961 109.134 17.1374 106.902C17.0864 106.642 17.0164 106.217 17.1247 105.912C17.1565 105.792 17.1948 105.703 17.2394 105.646C19.6732 103.09 27.9175 99.4044 27.9175 99.4044L28.0449 93.5309L37.0984 94.5331L38.5065 94.6853C38.5065 94.679 39.0034 97.0258 38.8633 98.5291Z" fill="#3A3D51"/>
<path d="M38.8632 98.529C38.6975 100.33 38.1432 102.341 35.6967 103.711C33.5432 104.923 28.9942 107.111 23.5149 108.506C23.7188 108.982 23.9418 109.521 24.1839 110.13C25.1523 112.521 26.2736 118.655 26.675 120.672C26.7387 120.989 26.6559 121.312 26.4648 121.566C25.8977 119.587 24.6426 115.477 24.2094 113.219C23.706 110.593 21.5334 107.472 21.5334 107.472C21.5334 107.472 24.1902 106.768 27.9811 105.519C31.772 104.269 35.8623 102.398 37.0537 100.146C38.2452 97.8948 37.0537 94.5902 37.0537 94.5902C37.0537 94.5902 37.0729 94.5711 37.0983 94.5331L38.5064 94.6853C38.5064 94.679 39.0033 97.0258 38.8632 98.529Z" fill="#333647"/>
<path d="M13.3337 124.332C12.9897 124.649 12.7603 124.693 11.8428 125.213C10.9254 125.727 10.0079 126.957 9.26248 127.186C8.51705 127.414 7.03893 127.693 6.31898 127.351C5.93033 127.167 5.78379 126.869 5.76468 126.571C5.75194 126.323 5.82202 126.076 5.91759 125.892C6.1151 125.492 6.73311 125.188 7.47854 124.845C8.22397 124.503 9.01401 123.602 9.53007 123.12C10.0461 122.632 10.2054 122.093 10.3838 121.826C10.473 121.693 11.2312 121.858 11.4797 122.257C11.6007 122.46 11.5689 122.543 11.5179 122.619C11.4733 122.695 11.4797 122.784 11.5306 122.854C11.5689 122.904 11.6326 122.936 11.7027 122.942C12.6966 122.981 12.8113 121.953 12.8113 121.953C13.5185 122.251 13.6777 124.021 13.3337 124.332Z" fill="#FBC006"/>
<path d="M28.4272 124.465C28.4272 124.465 28.6757 124.718 28.6757 124.947C28.6757 125.124 28.2743 125.955 27.9685 126.196C27.9685 126.196 27.8857 126.323 27.7837 126.52C27.6818 126.716 27.1785 127.795 26.7325 128.359C26.2865 128.924 25.2607 129.254 24.802 129.387C24.3496 129.52 23.8336 129.615 23.069 129.336C22.2981 129.057 22.2599 128.492 22.2599 128.492L24.3305 127.351" fill="#3A3D51"/>
<path d="M28.5609 124.75C28.58 124.928 28.3124 125.556 27.8027 126.12C27.2166 127.275 26.6368 128.239 26.3119 128.473C25.9296 128.753 25.2097 129.044 24.4515 129.266C23.5213 129.539 22.247 129.025 22.1897 128.251C22.1897 128.213 22.1897 128.175 22.1897 128.137C22.2534 127.306 23.4193 126.672 23.8972 126.437C24.4324 126.171 24.6617 124.509 24.7637 123.83C24.7828 123.685 24.9038 123.412 25.2033 123.425C25.5027 123.437 25.8149 123.532 25.9933 123.691C26.1781 123.85 26.1271 123.932 26.1271 124.091C26.1271 124.205 26.2099 124.268 26.3182 124.274C26.3628 124.274 26.4074 124.268 26.452 124.249C26.6177 124.179 27.3759 123.513 27.2803 123.031C27.2803 123.031 27.4714 122.962 27.6243 123.164C27.7773 123.361 28.5099 124.217 28.5609 124.75Z" fill="#FBC006"/>
<path d="M30.7845 80.0271C30.7845 80.0271 29.6568 83.4268 28.7203 85.7229C28.4654 86.3572 28.2233 86.909 28.0194 87.2769C27.9557 87.3974 27.8793 87.5243 27.8028 87.6511C26.261 90.1629 22.2089 93.848 20.6415 95.3386C20.6415 95.3386 20.6415 95.3449 20.6352 95.3449C20.495 95.4781 20.3166 95.5479 20.1318 95.5669C19.8005 95.605 19.4438 95.4591 19.2526 95.1546C19.1889 95.0532 19.1571 94.958 19.1507 94.8756C19.1316 94.717 19.1889 94.5901 19.2144 94.5331C19.2144 94.5331 19.2208 94.5267 19.2208 94.5204C19.2335 94.5077 19.2335 94.495 19.2335 94.495C19.7814 93.6704 22.8524 89.0529 24.0629 87.2705C24.6427 86.427 25.0695 85.8688 25.369 85.5073C25.49 84.2006 25.8851 80.1856 26.4903 77.8451C26.4967 77.8134 26.5094 77.7817 26.5158 77.75C26.7707 76.8303 27.1721 76.1516 27.5926 75.6632C27.7837 75.4412 27.9748 75.2573 28.1596 75.1114C28.1978 75.086 28.2297 75.067 28.2743 75.0416C28.6502 74.826 29.1471 74.6674 29.7078 74.5596C30.0391 74.5723 30.364 74.6674 30.6507 74.8577C31.1286 75.1748 31.4599 75.6949 31.5618 76.4814C31.6701 77.2045 31.2369 78.5999 30.7845 80.0271Z" fill="#2EED89"/>
<path d="M26.5285 77.7564C26.4839 78.0862 25.8086 83.1288 25.7704 85.6405C25.7704 85.6405 19.7241 93.8735 19.157 94.8756C19.1379 94.717 19.1953 94.5902 19.2207 94.5331C19.2207 94.5331 19.2271 94.5268 19.2271 94.5204C19.2399 94.5077 19.2399 94.4951 19.2399 94.4951C19.7878 93.6705 22.8587 89.0529 24.0692 87.2706C24.649 86.427 25.0759 85.8688 25.3753 85.5073C25.4964 84.2007 25.8914 80.1857 26.4967 77.8452C26.503 77.8198 26.5158 77.7881 26.5285 77.7564Z" fill="#41F28D"/>
<path d="M28.7203 85.7166C28.4654 86.3509 28.2233 86.9027 28.0194 87.2706C26.6751 89.776 22.2917 93.7719 20.6352 95.3323C20.6352 95.3323 20.6352 95.3386 20.6288 95.3386C20.4886 95.4718 20.3103 95.5416 20.1255 95.5606C20.941 94.7043 25.6302 89.8014 26.2291 89.0022C26.8917 88.1269 27.2358 87.4735 27.1402 86.9281C27.0446 86.3826 26.9045 86.1923 26.4457 85.2092C25.764 83.763 25.8214 83.1478 25.8214 83.1478C25.8214 83.1478 27.5926 83.7123 27.7518 83.725C27.841 83.7376 28.3061 84.7588 28.7203 85.7166Z" fill="#27E076"/>
<path d="M27.3825 77.0777C27.3825 77.0777 27.4908 78.5619 26.9874 79.5577C26.4841 80.5599 26.0126 81.5113 25.8279 82.9765L27.9113 80.5409L27.3825 77.0777Z" fill="#27E076"/>
<path d="M30.7845 80.0271C30.7845 80.0271 29.6568 83.4268 28.7203 85.7229C28.4654 86.3572 28.2233 86.909 28.0194 87.2769C27.9557 87.3974 27.8793 87.5243 27.8028 87.6511C26.261 90.1629 22.2089 93.848 20.6415 95.3386C20.6415 95.3386 20.6415 95.3449 20.6352 95.3449C20.495 95.4781 20.3166 95.5479 20.1318 95.5669C19.8005 95.605 19.4438 95.4591 19.2526 95.1546C19.1889 95.0532 19.1571 94.958 19.1507 94.8756C19.1316 94.717 19.1889 94.5901 19.2144 94.5331C19.2144 94.5331 19.2208 94.5267 19.2208 94.5204C19.2335 94.5077 19.2335 94.495 19.2335 94.495C19.7814 93.6704 22.8524 89.0529 24.0629 87.2705C24.6427 86.427 25.0695 85.8688 25.369 85.5073C25.49 84.2006 25.8851 80.1856 26.4903 77.8451C26.4967 77.8134 26.5094 77.7817 26.5158 77.75C26.7707 76.8303 27.1721 76.1516 27.5926 75.6632C27.7837 75.4412 27.9748 75.2573 28.1596 75.1114C28.1978 75.086 28.2297 75.067 28.2743 75.0416C28.6502 74.826 29.1471 74.6674 29.7078 74.5596C30.0391 74.5723 30.364 74.6674 30.6507 74.8577C31.1286 75.1748 31.4599 75.6949 31.5618 76.4814C31.6701 77.2045 31.2369 78.5999 30.7845 80.0271Z" fill="#FBC006"/>
<path d="M38.5384 94.0193C38.6594 94.2857 38.7359 94.4696 38.5001 94.679C38.5001 94.679 37.691 95.6811 35.1552 95.7763C35.117 95.7763 35.0852 95.7763 35.0469 95.7763C34.8494 95.7763 34.6201 95.7572 34.3716 95.7255C32.5112 95.4782 29.4403 94.4062 28.3571 93.7593C28.3571 93.7593 28.3444 93.7529 28.3253 93.7402C28.3189 93.7402 28.3189 93.7339 28.3125 93.7339C28.1788 93.6514 27.7837 93.3914 27.8283 93.2265C28.0131 92.5795 28.045 91.7676 28.045 91.7613C28.0322 90.4039 27.9876 88.6026 27.7901 87.6511C27.7774 87.5941 27.7646 87.5306 27.7519 87.4799C27.7328 87.3974 27.7073 87.315 27.6818 87.2389C27.4078 86.3636 26.8217 85.4629 26.3821 84.6954L26.3757 84.6827C26.089 84.188 25.866 83.744 25.8341 83.4078C25.643 81.6572 27.3824 80.4521 27.2932 78.9235C27.2231 77.731 27.0319 76.5195 27.5926 75.6759C27.7264 75.4666 27.9112 75.2763 28.1596 75.1241C28.1979 75.0987 28.2297 75.0797 28.2743 75.0543C28.6502 74.8387 29.1472 74.6801 29.7078 74.5723C31.2178 74.2805 33.212 74.363 34.7793 74.8133C34.7793 74.8133 39.9209 76.9128 40.437 78.8093C40.9531 80.7058 39.322 84.2451 38.6403 86.0147C38.5638 86.2177 38.4874 86.4397 38.4173 86.6744C37.8694 88.5328 37.5891 91.3426 37.9012 92.4907C37.9076 92.478 38.36 93.6197 38.5384 94.0193Z" fill="#FBC006"/>
<path d="M38.5065 94.679C38.5065 94.679 37.6973 95.6811 35.1616 95.7763C35.1234 95.7763 35.0915 95.7763 35.0533 95.7763C34.8558 95.7763 34.6264 95.7573 34.3779 95.7255C34.8176 95.6685 35.2826 95.5353 35.5502 95.2752C36.1364 94.6917 35.614 91.755 35.4674 90.905C35.3336 90.1058 35.5885 88.444 35.0214 88.2537L34.8876 87.3594C34.8876 87.3594 34.4289 87.9239 33.3713 87.7209C32.097 87.4736 31.5427 87.2262 31.084 87.0993C30.4915 86.9281 29.8034 86.8456 28.5865 86.5539C27.2613 86.2304 27.102 85.9323 27.102 85.9323C26.8663 85.501 26.6114 85.0823 26.3948 84.7018L26.3884 84.6891C26.3884 84.6891 27.0128 85.4566 27.9175 85.6469C28.8159 85.8371 32.6896 86.833 33.5242 86.7061C34.3652 86.5792 35.2635 85.3931 35.2635 85.3931L38.4237 86.6744C37.8757 88.5328 37.5954 91.3427 37.9076 92.4907C37.9076 92.4907 38.3599 93.6261 38.5447 94.032C38.6594 94.2857 38.7359 94.4697 38.5065 94.679Z" fill="#F9A208"/>
<path d="M36.2256 76.6718C36.1427 77.4202 33.2948 79.2152 31.0776 79.9637C31.0776 79.9637 30.141 77.4519 30.364 75.9931C30.4023 75.733 30.5615 75.492 30.7973 75.3715C30.9183 75.3081 31.0203 75.2319 31.1158 75.1431C31.3643 74.9021 31.5172 74.5596 31.5172 74.1917C31.5172 74.0141 31.5045 73.8365 31.4981 73.678C31.4599 73.2149 31.3898 72.8788 31.3898 72.8788L35.512 70.6271C35.512 70.6271 34.9641 74.4518 35.4355 75.0417C35.4355 75.0353 36.302 75.9677 36.2256 76.6718Z" fill="#FFE1BD"/>
<path opacity="0.25" d="M35.1871 74.5089L34.2569 73.4623L33.9447 73.2847C34.2951 72.9929 34.6073 72.6377 34.7984 72.2064L31.4981 73.6779C31.5109 73.8365 31.5172 74.0078 31.5172 74.1917C31.5172 74.5596 31.3707 74.8958 31.1158 75.1431C31.1158 75.1431 31.5045 75.1051 31.7721 74.6801C31.9377 74.4201 32.8424 73.919 33.6006 73.5511C33.6134 73.9443 33.8045 74.8006 34.4416 75.2129C35.4419 75.8599 36.5696 75.7203 36.5696 75.7203L35.1871 74.5089Z" fill="#EDA38C"/>
<path d="M28.1596 66.1935C28.1596 66.1935 27.7519 68.8194 28.44 71.1282C29.128 73.4369 30.071 74.0966 30.6062 74.1283C31.1414 74.16 34.3079 73.6907 35.2189 71.4707C36.13 69.2507 35.9389 66.7263 35.5311 65.4133C35.1234 64.1004 32.8361 62.9777 31.2306 63.2568C29.6377 63.5358 28.3189 64.6585 28.1596 66.1935Z" fill="#FFE1BD"/>
<path d="M33.7981 100.407V100.971L21.438 96.0807L13.7479 99.2648L13.8307 99.1063H12.7667V99.5629C12.7667 99.6264 12.8049 99.6835 12.8623 99.7025L25.866 104.846C25.9552 104.885 26.0571 104.878 26.1463 104.846L34.3269 101.459C34.397 101.434 34.4416 101.364 34.4416 101.295V100.749L33.7981 100.407Z" fill="#4B9CB5"/>
<path d="M34.1102 101.326C34.1102 101.402 34.0656 101.466 34.0146 101.466C33.9637 101.466 33.9191 101.402 33.9191 101.326C33.9191 101.25 33.9637 101.187 34.0146 101.187C34.0656 101.187 34.1102 101.25 34.1102 101.326Z" fill="#48C8EF"/>
<path d="M33.626 101.612C33.6787 101.612 33.7215 101.549 33.7215 101.472C33.7215 101.395 33.6787 101.333 33.626 101.333C33.5732 101.333 33.5304 101.395 33.5304 101.472C33.5304 101.549 33.5732 101.612 33.626 101.612Z" fill="#48C8EF"/>
<path d="M33.3139 101.624C33.3139 101.7 33.2693 101.764 33.2184 101.764C33.1674 101.764 33.1228 101.7 33.1228 101.624C33.1228 101.548 33.1674 101.485 33.2184 101.485C33.2693 101.485 33.3139 101.548 33.3139 101.624Z" fill="#48C8EF"/>
<path d="M21.438 95.5162L12.7667 99.1062L26.0061 104.345L34.3461 100.889C34.4671 100.838 34.4671 100.673 34.3461 100.622L21.438 95.5162Z" fill="#48C8EF"/>
<path d="M21.3806 96.1568L13.8944 99.2584C13.8371 99.2838 13.8371 99.3663 13.8944 99.3916L25.42 103.952C25.4391 103.958 25.4582 103.958 25.471 103.952L32.9571 100.85C33.0145 100.825 33.0145 100.743 32.9571 100.717L21.4316 96.1568C21.4189 96.1505 21.3997 96.1505 21.3806 96.1568Z" fill="#6CE3FF"/>
<path d="M24.5853 97.159L22.3363 98.0914C22.3044 98.104 22.3044 98.1548 22.3363 98.1675L25.8914 99.5756C25.9742 99.6073 26.0762 99.6073 26.159 99.5756L28.3953 98.6495C28.4335 98.6305 28.4335 98.5797 28.3953 98.5607L24.8529 97.159C24.7637 97.1209 24.6681 97.1209 24.5853 97.159Z" fill="#85EEFF"/>
<path d="M25.7606 104.561C25.7924 104.555 25.8307 104.536 25.8689 104.498C25.8753 104.485 25.888 104.479 25.8944 104.472L26.0154 104.345L22.4284 95.4084C22.3838 95.2942 22.2946 95.2118 22.1863 95.1674L9.27186 90.0551C9.23363 90.0424 9.1954 90.0487 9.16992 90.0804L8.94692 90.3088L8.94055 90.3151L9.38017 90.6386L12.776 99.0999L25.5121 104.142L25.4675 104.18L25.7478 104.561H25.7606Z" fill="#B3E8F4"/>
<path d="M25.7576 104.561L22.2216 95.7509C22.1515 95.5796 22.0177 95.4401 21.8457 95.3767L9.0013 90.2961C8.97581 90.2897 8.9567 90.2961 8.93758 90.3088L8.93121 90.3151C8.91847 90.3278 8.91847 90.3468 8.92484 90.3658L12.4927 99.2648C12.5182 99.3219 12.5628 99.3663 12.6138 99.3853L25.6365 104.542C25.6365 104.542 25.6493 104.548 25.6684 104.555C25.6875 104.555 25.7066 104.561 25.7449 104.555H25.7576V104.561Z" fill="#5AAFD1"/>
<path opacity="0.17" d="M17.5387 97.7743C17.4113 98.1612 16.8379 98.3134 16.2581 98.1231C15.6783 97.9328 15.3151 97.4635 15.4426 97.0766C15.57 96.6896 16.1434 96.5374 16.7232 96.7277C17.303 96.9243 17.6661 97.3937 17.5387 97.7743Z" fill="white"/>
<path d="M28.5801 97.2985L28.0895 97.9138C27.8474 98.2182 27.4205 98.307 27.0383 98.3831L26.3119 98.5481C26.2928 98.5481 26.2673 98.5544 26.2482 98.5671C26.2291 98.5798 26.2036 98.5988 26.1845 98.6178L25.3817 99.3029C25.3499 99.3346 25.318 99.3663 25.2989 99.4043C25.2989 99.4043 24.872 100.108 24.7828 100.349C24.7574 100.406 24.9103 100.47 25.0377 100.387C25.1651 100.305 25.643 99.6327 25.643 99.6327C25.643 99.6327 25.2543 100.476 25.1587 100.762C25.1333 100.831 25.2798 100.876 25.4454 100.755C25.6111 100.635 26.0443 99.7595 26.0443 99.7595C26.0443 99.7595 25.8086 100.438 25.764 100.654C25.7513 100.717 25.8341 100.762 26.0125 100.692C26.1909 100.622 26.5094 99.8674 26.5094 99.8674L26.7579 99.6644L26.5413 99.9498C26.5413 99.9498 26.3247 100.419 26.2737 100.559C26.2482 100.641 26.433 100.648 26.605 100.47C26.777 100.286 27.0765 99.8737 27.2103 99.8547C27.3441 99.8356 27.4269 99.9815 28.0003 99.9371C28.5036 99.8991 28.8604 99.0174 28.8604 99.0174L30.0965 97.7869L28.5801 97.2985Z" fill="#FFE1BD"/>
<path d="M39.8572 82.9955C39.8572 82.9955 38.0159 88.5392 37.0985 90.2454C35.7541 92.7508 31.3707 96.7467 29.7142 98.3071L29.7079 98.3134C29.5422 98.4656 29.3256 98.5417 29.1153 98.5481C28.8095 98.5481 28.5037 98.4022 28.3317 98.1295C28.2743 98.0407 28.2488 97.9582 28.2361 97.8821C28.2042 97.7045 28.268 97.565 28.2998 97.5079C28.2998 97.5079 28.3062 97.5015 28.3062 97.4952C28.3189 97.4825 28.3189 97.4698 28.3189 97.4698C28.8669 96.6453 31.9378 92.0277 33.1483 90.2454C33.7281 89.4018 34.155 88.8436 34.4544 88.4821C34.5627 87.2706 34.9131 83.7313 35.4483 81.3591C35.4483 81.3464 35.4483 81.3401 35.4483 81.3401C35.4865 81.1561 35.5312 80.9849 35.5757 80.82C35.9644 79.2977 36.7608 78.4351 37.4043 77.9594C38.0924 77.4519 39.029 77.3568 39.7425 77.8262C39.8763 77.915 39.9974 78.0164 40.1057 78.1433C40.386 78.4541 40.5772 78.8854 40.6536 79.4499C40.7492 80.1793 40.3096 81.5747 39.8572 82.9955Z" fill="#2EED89"/>
<path d="M39.8571 82.9956C39.8571 82.9956 38.0158 88.5392 37.0984 90.2454C35.754 92.7508 31.3706 96.7468 29.7141 98.3071L29.7078 98.3134C29.5421 98.4657 29.3255 98.5418 29.1152 98.5481C29.9562 97.7172 33.0526 94.6409 33.7726 93.8862C34.6136 93.0108 36.3466 90.886 36.9964 89.4525C37.6463 88.0127 39.2327 83.1224 39.838 81.1435C40.4242 79.2279 40.1247 78.2194 40.0992 78.156C40.3796 78.4668 40.5707 78.8981 40.6471 79.4626C40.7491 80.1794 40.3095 81.5748 39.8571 82.9956Z" fill="#27E076"/>
<path d="M35.4483 81.3591C35.4165 81.7016 34.8813 87.2959 34.894 88.5645C34.894 88.5645 28.8223 96.8926 28.2361 97.8694C28.2042 97.6918 28.268 97.5522 28.2998 97.4951C28.2998 97.4951 28.3062 97.4888 28.3062 97.4825C28.3189 97.4698 28.3189 97.4571 28.3189 97.4571C28.8669 96.6325 31.9378 92.015 33.1483 90.2326C33.7281 89.3891 34.155 88.8309 34.4544 88.4693C34.5627 87.2706 34.9131 83.7376 35.4483 81.3591Z" fill="#41F28D"/>
<path d="M39.8572 82.9955C39.8572 82.9955 38.0159 88.5392 37.0985 90.2454C35.7541 92.7508 31.3707 96.7467 29.7142 98.3071L29.7079 98.3134C29.5422 98.4656 29.3256 98.5417 29.1153 98.5481C28.8095 98.5481 28.5037 98.4022 28.3317 98.1295C28.2743 98.0407 28.2488 97.9582 28.2361 97.8821C28.2042 97.7045 28.268 97.565 28.2998 97.5079C28.2998 97.5079 28.3062 97.5015 28.3062 97.4952C28.3189 97.4825 28.3189 97.4698 28.3189 97.4698C28.8669 96.6453 31.9378 92.0277 33.1483 90.2454C33.7281 89.4018 34.155 88.8436 34.4544 88.4821C34.5627 87.2706 34.9131 83.7313 35.4483 81.3591C35.4483 81.3464 35.4483 81.3401 35.4483 81.3401C35.4865 81.1561 35.5312 80.9849 35.5757 80.82C35.9644 79.2977 36.7608 78.4351 37.4043 77.9594C38.0924 77.4519 39.029 77.3568 39.7425 77.8262C39.8763 77.915 39.9974 78.0164 40.1057 78.1433C40.386 78.4541 40.5772 78.8854 40.6536 79.4499C40.7492 80.1793 40.3096 81.5747 39.8572 82.9955Z" fill="#FBC006"/>
<path d="M37.4743 76.1199C36.6588 75.6759 35.7159 75.7394 34.8685 75.1875L34.8622 75.1812C34.8048 75.1431 34.7411 75.0987 34.6838 75.0543C34.6264 75.0099 34.5627 74.9592 34.5054 74.9021C33.4286 73.9126 33.9638 71.6419 33.9638 70.4812V70.4114C33.932 68.7876 34.002 67.5698 31.9569 68.0075C31.0585 68.1978 30.243 68.1343 29.6123 68.0075C28.2807 67.7347 27.5034 66.2822 28.1341 65.0835C28.166 65.0264 28.1979 64.9756 28.2297 64.9185C29.6314 62.6859 32.8234 62.9459 34.5181 63.9544C35.9516 64.8107 36.4741 66.0095 36.4486 68.166C36.4231 70.0118 37.143 69.9294 37.4743 71.5912C37.4998 71.7117 37.5253 71.8385 37.5381 71.9781C37.5572 72.1303 37.5763 72.2889 37.589 72.4411C37.7674 74.401 37.4743 76.1199 37.4743 76.1199Z" fill="#2A3049"/>
<path d="M37.4742 76.12C36.6587 75.676 35.7158 75.7394 34.8684 75.1876L34.862 75.1812C34.8047 75.1432 34.741 75.0988 34.6836 75.0544C34.6263 75.01 34.5626 74.9592 34.5052 74.9022C33.4285 73.9127 33.9637 71.642 33.9637 70.4812L34.8939 69.8787C34.8939 69.8787 34.9958 70.5066 34.8939 71.0521C34.792 71.6039 34.6072 71.6293 34.4224 72.2635C34.2377 72.8978 34.3014 74.0903 34.9385 74.5533C35.5756 75.0163 36.5695 74.9085 36.869 75.0798C36.869 75.0798 37.5316 73.8048 37.4742 71.5785C37.4997 71.699 37.5252 71.8259 37.538 71.9654C37.5571 72.1177 37.5762 72.2762 37.5889 72.4285C37.7673 74.4011 37.4742 76.12 37.4742 76.12Z" fill="#22293F"/>
<path d="M33.709 69.6186C33.709 69.6186 34.0339 69.0858 34.5436 69.1682C35.0533 69.2507 34.9896 69.9991 34.8494 70.6207C34.6583 71.4263 33.8046 71.3375 33.8046 71.3375" fill="#FFE1BD"/>
<path d="M13.3338 124.332C12.9897 124.649 12.7604 124.693 11.8429 125.213C10.9255 125.727 10.008 126.957 9.26257 127.186C8.51714 127.414 7.03901 127.693 6.31907 127.351C5.93042 127.167 5.78388 126.869 5.76477 126.571C6.0897 126.932 6.38278 127.129 7.45314 127.097C8.52351 127.059 9.59387 126.716 10.2501 125.905C10.9127 125.093 11.3332 124.687 12.0468 124.408C12.7604 124.129 13.0917 123.773 12.9961 123.444C12.8942 123.114 12.6393 122.904 12.1232 123.025C11.6072 123.145 11.5371 122.86 11.5371 122.86C11.5753 122.911 11.639 122.942 11.7091 122.949C12.703 122.987 12.8177 121.959 12.8177 121.959C13.5185 122.251 13.6778 124.021 13.3338 124.332Z" fill="#F9A208"/>
<path d="M28.5609 124.75C28.58 124.928 28.3124 125.556 27.8027 126.12C27.2166 127.275 26.6368 128.239 26.3119 128.473C25.9296 128.752 25.2097 129.044 24.4515 129.266C23.5213 129.539 22.247 129.025 22.1897 128.251C23.2091 129.146 25.4581 128.302 25.8404 127.922C26.2227 127.541 26.3182 126.977 26.8853 126.393C27.4523 125.803 28.0958 125.112 27.7836 124.56C27.5606 124.173 26.8534 124.249 26.6559 124.325C26.4584 124.401 26.3246 124.268 26.3246 124.268C26.3692 124.268 26.4138 124.262 26.4584 124.243C26.6241 124.173 27.3822 123.507 27.2867 123.025C27.2867 123.025 27.4778 122.955 27.6307 123.158C27.7773 123.361 28.5099 124.217 28.5609 124.75Z" fill="#F9A208"/>
<path d="M143.619 138.368L102.575 161.944L99.1605 159.997L140.204 136.408L146.607 134.721C146.715 134.689 146.798 134.823 146.722 134.905L143.619 138.368Z" fill="url(#paint19_linear)"/>
<path d="M140.268 132.545L145.804 131.232C145.995 131.188 146.136 131.416 146.002 131.562L142.236 135.685L140.268 132.545Z" fill="#B4BBE1"/>
<path d="M146.008 131.562L144.53 133.186C144.504 132.958 144.441 132.723 144.326 132.495C144.23 132.285 144.097 132.101 143.957 131.943C143.886 131.867 143.81 131.797 143.727 131.734L145.817 131.245C146.008 131.188 146.135 131.423 146.008 131.562Z" fill="#4588FF"/>
<path d="M101.785 154.904L102.308 155.823L103.659 158.189L141.816 136.015C141.899 135.977 141.975 135.926 142.045 135.875C142.243 135.723 142.389 135.52 142.485 135.273C142.663 134.803 142.644 134.201 142.376 133.643C142.275 133.433 142.147 133.243 142.007 133.091C141.612 132.653 141.083 132.425 140.586 132.476C140.446 132.488 140.306 132.526 140.178 132.59C140.153 132.596 140.134 132.609 140.108 132.622L140.025 132.672C140.013 132.679 140.006 132.685 139.994 132.691C139.987 132.698 139.981 132.704 139.968 132.71L101.785 154.904Z" fill="#4588FF"/>
<path d="M101.785 154.904L102.308 155.823L103.633 155.43L142.007 133.097C142.007 133.097 142.007 133.097 142.007 133.091C141.612 132.653 141.083 132.425 140.586 132.476C140.446 132.488 140.306 132.526 140.178 132.59C140.153 132.596 140.134 132.609 140.108 132.622L140.025 132.672C140.013 132.679 140.006 132.685 139.994 132.691C139.987 132.698 139.981 132.704 139.968 132.71L101.785 154.904Z" fill="#80B4FF"/>
<path d="M101.231 157.276C101.69 158.221 102.671 158.697 103.429 158.335C103.512 158.297 103.588 158.246 103.659 158.196C103.856 158.043 104.003 157.834 104.092 157.593C104.27 157.124 104.251 156.521 103.983 155.963C103.608 155.177 102.862 154.72 102.187 154.79C102.047 154.802 101.906 154.84 101.779 154.904C101.754 154.916 101.734 154.929 101.709 154.935L101.626 154.993C101.613 154.999 101.607 155.005 101.594 155.012C100.989 155.443 100.817 156.407 101.231 157.276Z" fill="#3081E2"/>
<path d="M129.239 162.661C128.22 163.283 127.761 163.029 126.531 163.492C125.295 163.949 122.938 165.42 121.95 165.522C120.963 165.63 119.733 165.09 119.383 164.253C119.032 163.41 120.014 162.769 121.103 162.211C122.199 161.646 124.773 159.756 124.773 159.756L128.328 159.426C128.111 159.648 127.958 159.82 127.958 159.82L127.614 161.716L129.265 162.046C129.258 162.046 129.507 162.338 129.239 162.661Z" fill="#595959"/>
<path d="M124.766 159.426C124.766 159.426 122.193 161.323 121.097 161.881C120.007 162.439 119.026 163.08 119.376 163.923C119.727 164.767 120.956 165.3 121.944 165.192C122.932 165.084 125.289 163.612 126.525 163.156C127.761 162.699 128.213 162.947 129.239 162.331C129.615 162.103 129.762 160.359 129.016 159.027" fill="#347EE8"/>
<path d="M140.93 150.445C140.93 150.508 140.917 150.559 140.898 150.603C140.726 151.028 140.44 151.269 139.56 151.796C138.675 152.322 138.07 153.743 137.33 154.403C136.591 155.069 135.655 155.684 134.769 155.722C133.89 155.754 132.801 155.158 132.692 154.492C132.584 153.826 133.011 153.616 133.431 153.337C133.852 153.058 135.158 151.866 135.4 151.549C135.648 151.231 136.209 150.286 136.209 150.286L139.165 147.863C139.592 148.085 139.936 148.39 140.204 148.72C140.07 148.701 139.949 148.694 139.924 148.72C139.866 148.777 139.592 149.5 139.592 149.5C139.592 149.5 139.822 149.874 139.898 149.906C139.981 149.931 140.624 149.975 140.624 149.975C140.624 149.975 140.898 150.166 140.93 150.445Z" fill="#595959"/>
<path d="M136.107 150.014C136.107 150.014 135.547 150.959 135.298 151.276C135.05 151.593 133.75 152.785 133.323 153.064C132.903 153.344 132.476 153.553 132.584 154.219C132.692 154.885 133.782 155.481 134.661 155.449C135.54 155.411 136.483 154.802 137.222 154.136C137.961 153.47 138.567 152.05 139.452 151.523C140.331 150.997 140.612 150.762 140.79 150.337C140.968 149.912 140.44 148.301 139.063 147.597" fill="#347EE8"/>
<path d="M139.388 147.502C138.656 150.236 135.725 150.096 135.725 150.096C135.725 150.096 133.24 147.502 130.66 144.502C128.844 142.402 126.984 140.1 125.901 138.362C125.659 137.969 125.455 137.607 125.295 137.284C125.079 136.821 124.875 136.199 124.69 135.463C123.339 130.097 122.9 118.674 122.9 118.674L130.577 122.46L130.507 134.474C130.507 134.474 131.24 135.152 132.144 136.193C132.692 136.827 133.304 137.588 133.852 138.413C135.324 140.633 139.388 147.502 139.388 147.502Z" fill="#3A3D51"/>
<path d="M139.388 147.502C138.656 150.236 135.725 150.096 135.725 150.096C135.725 150.096 133.24 147.502 130.66 144.502L131.112 139.561L131.858 136.193H132.144C132.692 136.827 133.304 137.588 133.852 138.413C135.324 140.633 139.388 147.502 139.388 147.502Z" fill="#242733"/>
<path d="M128.806 126.133C128.806 126.133 127.736 131.55 127.576 131.581C127.455 131.6 126.404 136.136 125.901 138.355C125.658 137.962 125.455 137.601 125.295 137.277C125.079 136.814 124.875 136.193 124.69 135.457C125.174 131.772 126.678 123.602 126.678 123.602H128.06L128.806 126.133Z" fill="#333647"/>
<path d="M137.063 124.059C136.732 125.714 134.47 131.753 132.82 136.224C131.781 139.047 131.157 141.983 130.94 144.977C130.564 150.21 129.774 158.101 129.507 159.629C129.507 159.629 129.246 159.838 128.812 160.048C127.889 160.485 126.181 160.904 124.512 159.28C124.512 159.28 124.454 142.516 124.531 139.573C124.601 136.63 127.417 124.636 127.417 124.636C127.417 124.636 123.053 123.234 122.913 118.68L134.999 120.234L137.076 120.5C137.063 120.494 137.554 121.585 137.063 124.059Z" fill="#3A3D51"/>
<path d="M137.063 124.059C136.732 125.714 134.47 131.753 132.82 136.224C131.781 139.047 131.157 141.984 130.94 144.977C130.564 150.21 129.774 158.101 129.507 159.629C129.507 159.629 129.245 159.839 128.812 160.048C129.086 155.931 129.934 143.157 130.099 140.778C130.284 137.93 132.253 133.269 133.451 129.133C134.648 124.998 134.438 120.786 134.438 120.786L134.999 120.228L137.076 120.494C137.063 120.494 137.554 121.585 137.063 124.059Z" fill="#333647"/>
<path d="M138.117 120.26C138.117 120.26 138.2 120.539 138.257 120.926C138.276 121.053 138.225 121.173 138.117 121.243C137.875 121.402 137.327 121.719 136.263 122.125C135.059 122.582 133.46 122.651 132.306 122.544C131.822 122.499 127.069 121.453 124.228 119.664C123.508 119.207 123.138 118.364 123.278 117.526V117.507C123.374 116.956 138.117 120.26 138.117 120.26Z" fill="#2268BC"/>
<path d="M140.334 102.286C139.971 103.771 139.532 105.242 139.079 106.707C138.869 107.399 138.614 108.084 138.359 108.762C137.448 111.211 136.493 113.665 137.04 116.336C137.257 117.382 137.799 118.695 137.678 119.767C137.601 120.408 137.512 120.953 136.378 121.676C136.148 121.829 135.887 121.943 135.626 122.025L135.473 122.07L135.403 122.089C135.161 122.158 134.919 122.209 134.677 122.247C134.084 122.349 133.485 122.368 132.886 122.317C132.606 122.298 132.326 122.26 132.052 122.209C130.325 121.886 127.101 121.099 124.317 119.38C124.311 119.374 124.298 119.374 124.298 119.374C123.432 118.854 122.96 117.598 123.234 115.866C123.368 114.997 123.578 113.786 123.756 112.803C123.96 111.648 124.05 110.469 124.011 109.295C123.992 108.769 123.979 108.236 123.967 107.716C123.457 104.462 121.622 97.8655 122.514 96.0895C123.087 94.9668 124.113 93.0576 124.113 93.0576C124.113 93.0576 126.356 92.436 127.522 92.3599C127.688 92.3536 127.847 92.3472 128.012 92.3472C128.955 92.5312 129.943 92.6834 130.918 92.8927C131.548 93.0259 132.173 93.1718 132.784 93.3621C132.969 93.4192 133.141 93.4763 133.32 93.5397C133.466 93.5968 133.613 93.6475 133.753 93.7046C134.645 94.0471 135.269 94.3389 135.766 94.5799C136.378 94.8844 136.792 95.1381 137.232 95.4235C137.257 95.4362 137.276 95.4489 137.302 95.4679C137.799 95.785 138.544 96.3178 139.213 96.9141C139.863 97.4912 140.436 98.1192 140.627 98.6583C140.678 98.8042 140.736 99.0262 140.787 99.3307C140.793 99.3497 140.793 99.3687 140.793 99.3877C140.882 100.333 140.557 101.379 140.334 102.286Z" fill="#1D7DEA"/>
<path d="M140.78 99.3099L139.755 99.4368C139.481 97.3563 133.428 94.2039 133.428 94.2039L133.32 93.5189C133.466 93.576 133.613 93.6267 133.753 93.6838C134.645 94.0263 135.269 94.3181 135.766 94.5591C136.378 94.8636 136.792 95.1173 137.232 95.4027C137.257 95.4154 137.276 95.4281 137.302 95.4471C137.799 95.7643 138.544 96.2971 139.213 96.8933C139.863 97.4705 140.436 98.0984 140.627 98.6376C140.672 98.7771 140.729 99.0054 140.78 99.3099Z" fill="#266FC6"/>
<path d="M133.275 90.1889V92.7958C133.275 92.7958 130.593 94.724 129.172 94.4449C128.56 94.3244 128.235 93.5442 128.369 92.4406L129.663 92.1805L133.275 90.1889Z" fill="#F2BA88"/>
<path d="M128.847 94.2927L127.324 96.0751C127.324 96.0751 127.267 93.9375 128.286 92.8466C129.28 91.781 129.318 92.7007 129.318 92.7007C129.318 92.7007 128.382 93.779 128.847 94.2927Z" fill="white"/>
<path d="M125.872 86.7195C125.872 86.7195 125.655 88.9014 126.107 90.8994C126.56 92.8974 126.7 93.3477 127.509 93.7029C128.318 94.0581 129.045 94.0962 130.402 93.2272C131.759 92.3582 132.504 90.9438 132.504 90.9438C132.504 90.9438 132.695 91.0706 133.186 90.5252C133.944 89.6689 134.091 89.2439 134.091 88.0832C134.091 86.9225 133.797 85.4636 132.893 83.954C131.988 82.4381 129.204 82.9265 127.942 83.5671C126.681 84.2077 126.114 85.4256 125.872 86.7195Z" fill="#FFD1A4"/>
<path d="M124.776 86.8209C126.165 89.2629 129.624 87.6581 129.624 87.6581C129.879 88.7174 130.625 88.8189 130.988 89.0155C131.345 89.2121 131.421 90.2397 131.421 90.2397H131.746C131.746 90.2397 131.759 89.2121 131.924 88.692C132.09 88.1782 133.058 87.7787 133.543 88.5334C133.982 89.2121 133.479 89.9669 133.186 90.5251C133.09 91.4131 133.275 91.7873 133.275 91.7873C133.275 91.7873 133.804 91.2672 134.154 90.2079C134.511 89.1487 134.772 86.9224 134.154 84.5375C134.091 84.2901 133.995 84.0618 133.868 83.8525C132.804 82.0638 129.777 81.7213 128.586 82.1209C127.56 82.4697 125.018 83.6178 124.547 85.2542C124.413 85.7299 124.457 86.2564 124.776 86.8209Z" fill="#2A3049"/>
<path d="M124.674 135.559C124.693 135.686 124.712 135.813 124.731 135.933C124.706 135.787 124.687 135.66 124.674 135.559Z" fill="#3A3A3A"/>
<path d="M133.275 92.5358C133.275 92.5358 133.441 92.7514 133.568 93.0749C133.676 93.3413 133.753 93.6775 133.753 93.6775C133.753 93.6775 132.657 95.9228 129.643 96.8869L129.299 94.4576C129.299 94.464 131.937 94.1088 133.275 92.5358Z" fill="white"/>
<path d="M124.776 86.8209C126.165 89.2628 129.624 87.6581 129.624 87.6581C129.879 88.7173 130.625 88.8188 130.988 89.0155C131.345 89.2121 131.421 90.2396 131.421 90.2396H131.746C131.746 90.2396 131.759 89.2121 131.924 88.692C132.09 88.1782 133.058 87.7786 133.543 88.5334C133.982 89.2121 133.479 89.9669 133.186 90.525C133.09 91.413 133.275 91.7873 133.275 91.7873C133.275 91.7873 133.804 91.2672 134.154 90.2079C134.511 89.1487 134.772 86.9223 134.154 84.5374C134.091 84.2901 133.995 84.0617 133.868 83.8524C133.288 84.3472 131.612 85.6982 129.86 86.4339C127.681 87.341 125.821 87.1951 125.26 86.7447C124.451 86.0914 124.547 85.2542 124.547 85.2542C124.413 85.7299 124.457 86.2563 124.776 86.8209Z" fill="#1C2235"/>
<path d="M136.203 124.173C136.203 124.173 136.12 125.48 135.999 125.771C135.948 125.936 135.827 126.089 135.738 126.234C135.585 126.494 134.897 127.719 134.795 128.435C134.731 128.886 135.018 130.211 135.158 130.471C135.171 130.503 135.19 130.529 135.222 130.548C135.253 130.567 135.292 130.567 135.33 130.56C135.763 130.497 135.789 129.964 135.75 129.628C135.731 129.438 135.725 128.854 135.852 128.867C136.349 129.171 136.407 130.459 136.489 130.966C136.604 131.651 136.216 133.021 136.553 133.002C136.687 132.996 137.745 132.546 137.968 132.095C138.337 131.645 138.547 131.131 138.617 130.541C138.707 129.831 138.528 129.197 138.42 128.543C138.35 128.093 138.235 127.617 138.178 127.002C138.14 126.621 138.286 125.112 138.286 125.112L136.203 124.173Z" fill="#FFD1A4"/>
<path d="M136.617 116.581C136.834 117.627 137.375 118.94 137.254 120.012C137.178 120.653 137.088 121.198 135.954 121.921C135.725 122.073 135.464 122.188 135.203 122.27L135.05 122.315C134.903 118.369 135.419 111.881 135.419 111.881C134.572 108.938 134.795 102.309 134.795 102.309C134.795 102.309 137.636 105.608 137.636 105.887C137.636 106.045 137.796 107.663 137.936 109.007C137.025 111.456 136.069 113.904 136.617 116.581Z" fill="#266FC6"/>
<path d="M141.497 112.306L138.624 125.657C138.624 125.657 138.496 125.733 138.242 125.79C137.789 125.898 136.935 125.936 135.687 125.334C135.687 125.334 135.961 114.9 136.311 111.836C136.311 111.836 134.393 104.352 134.871 100.984C135.177 98.8145 137.037 98.066 138.535 98.3134C139.356 98.4529 140.076 98.8906 140.357 99.5629C140.357 99.5692 142.058 110.377 141.497 112.306Z" fill="#347EE8"/>
<path d="M121.683 107.238C121.676 107.231 121.67 107.231 121.664 107.225C121.664 107.225 123.562 103.419 124.053 101.91L123.613 93.3343C123.613 93.3343 121.912 93.6451 120.402 96.7974C118.886 99.9562 115.649 107.739 116.031 109.039C116.031 109.039 118.3 107.219 121.664 107.238C121.67 107.231 121.676 107.238 121.683 107.238Z" fill="#347EE8"/>
<path d="M132.183 105.214V115.414C132.183 115.414 132.183 115.42 132.183 115.426C132.183 115.471 132.176 115.636 132.093 115.686L132.087 115.693C132.074 115.699 132.068 115.705 132.061 115.712L131.902 115.82L131.883 115.775L124.314 111.38V100.514L124.148 100.185L124.314 100.089L131.698 104.371C131.998 104.548 132.183 104.866 132.183 105.214Z" fill="#97A2CE"/>
<path d="M124.148 100.186L131.533 104.473C131.832 104.651 132.017 104.968 132.017 105.317V115.611C132.017 115.808 131.8 115.928 131.635 115.833L124.148 111.489V100.186Z" fill="#B4BBE1"/>
<path d="M121.825 101.524L124.15 100.186L124.354 100.3L124.259 102.932L121.825 101.524Z" fill="#97A2CE"/>
<path d="M124.352 100.299L122.04 101.65V103.476L124.352 101.821V100.299Z" fill="#8792B2"/>
<path d="M124.352 100.616L122.32 101.808L122.046 112.712L129.131 116.917L131.424 115.541C131.628 115.42 131.749 115.198 131.749 114.963V105.303C131.749 105.056 131.615 104.821 131.399 104.701L124.352 100.616Z" fill="white"/>
<path d="M129.691 106.648V116.847C129.691 116.847 129.691 116.853 129.691 116.86C129.691 116.904 129.685 117.069 129.602 117.12L129.596 117.126C129.583 117.133 129.577 117.139 129.57 117.145L129.411 117.253L129.392 117.209L121.823 112.813V101.948L121.657 101.618L121.823 101.523L129.207 105.804C129.507 105.982 129.691 106.299 129.691 106.648Z" fill="#97A2CE"/>
<path d="M121.664 101.619L129.048 105.907C129.347 106.078 129.532 106.402 129.532 106.75V117.045C129.532 117.241 129.316 117.362 129.15 117.267L121.664 112.922V101.619Z" fill="#B4BBE1"/>
<path d="M132.533 111.671C132.488 111.361 132.234 111.259 132.234 111.259L131.055 111.798C131.138 111.703 131.386 111.513 131.482 111.418C131.737 111.164 131.603 110.904 131.482 110.878C131.361 110.853 130.29 111.335 129.997 111.506C129.883 111.576 129.723 111.766 129.634 111.893C129.405 112.128 129.175 112.16 129.042 112.153L127.997 111.779L126.888 112.623L127.156 113.885C127.156 113.885 129.143 114.989 129.742 114.836C131.756 114.335 132.335 113.346 132.335 113.346C132.501 113.086 132.578 111.982 132.533 111.671Z" fill="#FFD1A4"/>
<path d="M127.468 114.202C127.468 114.202 127.379 114.037 127.347 113.822C127.251 113.086 127.614 111.83 128.634 111.874C128.634 111.874 124.837 109.033 121.67 107.231C121.479 107.155 119.657 107.181 118.268 107.656C116.924 108.119 116.019 109.033 116.019 109.033C116.414 110.333 127.468 114.202 127.468 114.202Z" fill="#347EE8"/>
<path d="M141.497 112.306L138.624 125.657C138.624 125.657 138.496 125.733 138.242 125.79C138.426 124.833 140.637 113.219 140.733 111.246C140.841 109.191 138.528 98.3198 138.528 98.3198C139.35 98.4593 140.07 98.897 140.35 99.5693C140.357 99.5693 142.058 110.377 141.497 112.306Z" fill="#266FC6"/>
<path opacity="0.55" d="M114.26 110.675C114.26 110.675 114.26 110.675 114.26 110.669L114.19 108.417C114.19 108.417 114.19 108.411 114.19 108.398V108.303L114.184 108.316C113.986 104.149 108.086 100.965 100.938 101.174C93.7447 101.377 88.0106 104.961 88.138 109.16L88.2018 111.437C88.2527 113.035 89.1319 114.481 90.5973 115.661L87.845 117.367C87.4945 117.202 87.125 117.12 86.7555 117.158C86.5643 117.177 86.386 117.228 86.2012 117.31C86.1693 117.323 86.1438 117.342 86.112 117.361L86.0037 117.424C85.9846 117.431 85.9718 117.443 85.9591 117.456C85.94 117.469 85.94 117.475 85.9209 117.488L72.2673 125.841C74.2233 126.488 76.2302 127.262 78.269 128.175L88.4375 121.966C88.5522 121.909 88.6541 121.845 88.7433 121.763C89.0109 121.566 89.2084 121.281 89.3422 120.957C89.476 120.615 89.5078 120.228 89.4824 119.822L93.1267 117.564C93.1904 117.532 93.2478 117.494 93.3115 117.456C93.3624 117.411 93.4134 117.354 93.4516 117.304C95.6879 118.242 98.4594 118.763 101.46 118.68C108.456 118.471 114.063 115.09 114.273 111.037L114.279 111.043L114.26 110.675Z" fill="#B4BBE1"/>
<path d="M86.6728 102.766C86.6855 103.166 86.7493 103.565 86.8576 103.946C87.947 107.732 93.6748 110.491 100.486 110.295C107.296 110.098 112.846 107.003 113.712 103.159C113.801 102.772 113.827 99.5501 113.827 99.5501C113.827 99.5501 110.259 92.4843 100.014 92.6238C93.8149 92.7126 86.6728 100.343 86.6728 100.343C86.6728 100.343 86.6537 102.005 86.6728 102.766ZM88.8326 102.703C88.8072 101.745 89.1257 100.825 89.7246 99.9814C91.4257 97.5902 95.3886 95.8396 100.059 95.7001C104.722 95.5605 108.781 97.0764 110.622 99.3662C111.272 100.172 111.642 101.072 111.673 102.03C111.782 105.709 106.761 107.142 100.447 107.326C94.1399 107.51 88.941 106.381 88.8326 102.703Z" fill="#4588FF"/>
<path opacity="0.2" d="M88.3101 100.343C88.4184 104.098 93.8339 106.99 100.409 106.8C106.978 106.61 112.215 103.407 112.1 99.6453C111.992 95.8904 106.576 92.9981 100.001 93.1884C93.4325 93.385 88.1954 96.5881 88.3101 100.343Z" fill="url(#paint20_linear)"/>
<path opacity="0.2" d="M93.3625 94.5077C105.213 94.7677 108.775 100.571 109.762 103.857C111.272 102.665 112.145 101.206 112.1 99.6454C111.986 95.8904 106.608 93.1313 100.033 93.3216C97.6249 93.3977 95.2166 93.7466 93.3625 94.5077Z" fill="white"/>
<path opacity="0.6" d="M89.4824 100.489C89.578 103.813 94.3755 106.375 100.192 106.204C106.009 106.033 110.641 103.204 110.539 99.8737C110.533 99.7785 110.533 99.6834 110.52 99.5883C110.195 102.709 105.735 105.284 100.192 105.449C94.5539 105.62 89.871 103.216 89.5079 100.039C89.4824 100.178 89.476 100.337 89.4824 100.489Z" fill="white"/>
<path d="M87.877 98.0025L90.9607 94.8121L99.8485 92.6238L108.851 94.2856L112.113 97.2858L112.961 99.1569L111.674 99.6073C111.674 99.6073 110.157 93.5182 99.8804 93.8226C89.61 94.1207 88.4504 100.292 88.4504 100.292L87.1379 99.9181L87.877 98.0025Z" fill="#4588FF"/>
<path d="M86.6729 100.343C86.6856 100.743 86.7493 101.142 86.8577 101.523C87.9471 105.309 93.6749 108.069 100.486 107.872C107.297 107.675 112.846 104.58 113.712 100.736C113.802 100.349 113.84 99.9498 113.827 99.5502C113.7 95.1737 107.513 91.7993 100.014 92.0213C92.5217 92.2369 86.5455 95.9665 86.6729 100.343ZM88.8327 100.28C88.8073 99.3219 89.1258 98.4022 89.7247 97.5586C91.4258 95.1673 95.3887 93.4167 100.059 93.2772C104.723 93.1376 108.781 94.6536 110.622 96.9433C111.272 97.7488 111.642 98.6495 111.674 99.6073C111.782 103.286 106.761 106.426 100.447 106.61C94.14 106.8 88.9411 103.965 88.8327 100.28Z" fill="#81C5E8"/>
<path d="M86.6729 100.343C86.6856 100.743 86.7493 101.142 86.8577 101.523C87.9471 105.309 93.6749 108.069 100.486 107.872C107.297 107.675 112.846 104.58 113.712 100.736C113.802 100.349 113.84 99.9498 113.827 99.5502C113.7 95.1737 107.513 91.7993 100.014 92.0213C92.5217 92.2369 86.5455 95.9665 86.6729 100.343ZM88.8327 100.28C88.8073 99.3219 89.1258 98.4022 89.7247 97.5586C91.4258 95.1673 95.3887 93.4167 100.059 93.2772C104.723 93.1376 108.781 94.6536 110.622 96.9433C111.272 97.7488 111.642 98.6495 111.674 99.6073C111.782 103.286 106.761 106.426 100.447 106.61C94.14 106.8 88.9411 103.965 88.8327 100.28Z" fill="#80B4FF"/>
<path d="M85.0481 109.718L85.3093 110.098H85.3157L86.4816 111.811L86.7811 112.248L91.8844 109.077C91.9545 109.045 92.0118 109.007 92.0692 108.963C92.2285 108.842 92.3495 108.671 92.4196 108.474C92.4578 108.379 92.4833 108.272 92.4961 108.164C92.5407 107.847 92.4897 107.498 92.3304 107.155C92.1329 106.743 91.808 106.438 91.4575 106.293C91.2664 106.216 91.0689 106.185 90.8778 106.204C90.7631 106.216 90.6548 106.242 90.5465 106.293C90.5274 106.299 90.5082 106.312 90.4891 106.318L90.419 106.362C90.4127 106.369 90.3999 106.375 90.3936 106.381L85.0481 109.718Z" fill="#CDD5F7"/>
<path d="M85.0481 109.718L85.3093 110.098H85.3157L91.4575 106.305C91.2664 106.229 91.0689 106.197 90.8778 106.217C90.7631 106.229 90.6548 106.255 90.5465 106.305C90.5274 106.312 90.5082 106.324 90.4891 106.331L90.419 106.375C90.4127 106.381 90.3999 106.388 90.3936 106.394L85.0481 109.718Z" fill="white"/>
<path d="M86.4752 111.817L86.7747 112.255L91.878 109.083C91.9481 109.052 92.0054 109.014 92.0628 108.969C92.2221 108.849 92.3431 108.677 92.4132 108.481C92.4514 108.386 92.4769 108.278 92.4897 108.17L86.4752 111.817Z" fill="#B4BBE1"/>
<path d="M68.808 118.591L69.547 119.892L71.452 123.234L86.9787 113.682H86.9851C87.1061 113.625 87.2081 113.561 87.3036 113.479C87.584 113.263 87.7942 112.972 87.9217 112.635C88.1765 111.969 88.1447 111.126 87.7687 110.333C87.6286 110.035 87.4502 109.775 87.2463 109.553C87.2463 109.553 87.2463 109.553 87.2463 109.546C86.6856 108.931 85.9402 108.601 85.2394 108.677C85.0419 108.697 84.8444 108.747 84.666 108.836C84.6341 108.849 84.6022 108.868 84.5704 108.887L84.4493 108.963C84.4302 108.969 84.4175 108.982 84.4047 108.988C84.392 108.995 84.3856 109.007 84.3729 109.014L68.808 118.591Z" fill="#4588FF"/>
<path d="M68.808 118.591L69.547 119.892L71.4138 119.333L87.2463 109.546C87.2463 109.546 87.2463 109.546 87.2463 109.54C87.2463 109.54 87.2463 109.54 87.2463 109.534C86.6856 108.919 85.9402 108.589 85.2394 108.665C85.0419 108.684 84.8443 108.735 84.6659 108.823C84.6341 108.836 84.6022 108.855 84.5704 108.874L84.4493 108.95C84.4302 108.957 84.4175 108.969 84.4047 108.976C84.392 108.982 84.3856 108.995 84.3729 109.001L68.808 118.591Z" fill="#80B4FF"/>
<path d="M68.0242 121.934C68.6677 123.272 70.0567 123.938 71.127 123.431H71.1334C71.2481 123.374 71.3564 123.31 71.4583 123.228C71.7323 123.012 71.9426 122.72 72.0764 122.378C72.3312 121.712 72.2993 120.868 71.9234 120.082C71.3883 118.972 70.3434 118.325 69.3941 118.426C69.1966 118.445 68.999 118.496 68.8207 118.585C68.7888 118.598 68.7569 118.617 68.7251 118.636L68.604 118.712C68.5849 118.718 68.5722 118.731 68.5594 118.737C67.6802 119.352 67.4317 120.716 68.0242 121.934Z" fill="#3081E2"/>
<path d="M51.7458 157.999V158.665C51.7458 158.798 51.7267 158.925 51.6885 159.052C51.6885 159.052 51.6885 159.052 51.6885 159.058C51.6821 159.09 51.6694 159.109 51.6566 159.141C51.6439 159.16 51.6375 159.185 51.6184 159.223C51.6057 159.242 51.5866 159.268 51.5738 159.306C51.5356 159.35 51.5037 159.407 51.4591 159.464C51.44 159.496 51.4209 159.521 51.4018 159.553C51.3827 159.572 51.3572 159.597 51.3381 159.61C51.3062 159.642 51.2744 159.674 51.2425 159.712C51.0769 159.864 50.8411 160.041 50.5226 160.194C49.5032 160.701 48.4264 161.075 47.6746 161.519C47.4325 161.665 46.7635 162.109 46.7635 162.109C46.7635 162.109 46.222 162.547 45.7951 162.807C45.3555 163.067 44.4126 163.517 43.4824 163.422C42.5649 163.321 42.1253 162.737 42.0807 162.382L42.0934 161.824L45.502 160.562L51.7458 157.999Z" fill="#3A3A3A"/>
<path d="M45.7823 157.841C45.7823 157.841 46.8272 157.796 48.5347 157.504C50.2422 157.213 51.4145 157.13 51.6375 157.663C51.8541 158.177 51.8987 158.729 50.376 159.762C48.8533 160.803 47.6746 160.91 46.4513 161.887C45.5466 162.61 44.7311 162.782 43.8264 162.845C42.9153 162.908 42.3037 162.56 42.1061 162.192C41.6474 161.335 42.1253 159.712 42.1253 159.712L45.7823 157.841Z" fill="#347EE8"/>
<path d="M57.9131 162.084V162.699C57.9195 162.984 57.7602 163.238 57.5117 163.378C56.9256 163.689 55.7342 164.209 53.9757 164.424C52.2682 164.634 51.6884 164.703 51.6884 164.703C51.6884 164.703 50.943 164.76 50.4078 164.824C49.8663 164.894 48.9807 164.868 48.592 164.532C48.4964 164.443 48.4327 164.38 48.3754 164.323C48.3754 164.323 48.3754 164.316 48.369 164.31C48.369 164.31 48.3626 164.297 48.3563 164.291C48.3244 164.259 48.3053 164.228 48.2862 164.19C48.2289 164.075 48.2161 163.93 48.2034 163.872C48.2034 163.853 48.2034 163.841 48.2034 163.841L48.2097 163.587V163.473L49.4649 163.384C49.4712 163.384 49.4712 163.384 49.4712 163.384L50.0893 163.34L50.669 163.302L51.2042 163.264L57.9131 162.084Z" fill="#3A3A3A"/>
<path d="M52.918 160.511C52.918 160.511 53.6635 161.209 54.5427 161.209C55.4219 161.209 57.1358 161.19 57.5754 161.494C57.792 161.646 57.9067 161.83 57.9194 162.039C57.9322 162.249 57.8493 162.477 57.6837 162.718C57.3524 163.2 55.1352 163.923 53.4659 164.05C51.7967 164.177 51.7075 164.158 50.9175 164.291C50.1274 164.424 49.3055 164.481 48.8086 164.24C47.9485 163.815 47.8911 162.522 48.4136 161.665C48.9424 160.815 52.918 160.511 52.918 160.511Z" fill="#347EE8"/>
<path d="M43.8009 98.6368L43.6671 98.9539L43.8774 99.9942L47.2159 101.669L47.4134 101.643L47.9486 101.58L48.7896 101.472V100.318C48.7896 99.7278 49.1145 99.1506 49.6561 98.9159C49.6752 98.9032 49.6943 98.8969 49.6943 98.8969C49.8791 98.8271 50.0702 98.7066 50.2613 98.5163L50.3123 98.4656C50.9558 97.7869 51.5292 96.2583 51.3636 92.9219C51.3317 92.3384 51.1979 91.3299 50.9303 90.8161C50.4461 89.8901 49.414 89.2748 47.286 89.852C43.7372 90.8288 42.189 92.4335 42.0106 93.8163C41.8258 95.199 43.8009 98.6368 43.8009 98.6368Z" fill="#FFD1A4"/>
<path d="M48.7831 101.466V100.311C48.7831 99.7214 49.1081 99.1442 49.6496 98.9095C49.4776 98.9857 48.9361 99.2457 48.2225 99.6263C47.9358 99.7785 47.9422 100.698 47.9422 101.574L48.7831 101.466Z" fill="#F2BA88"/>
<path d="M51.5737 105.83L56.658 102.855L56.3267 105.493L53.3322 108.684L51.5737 105.83Z" fill="#FFD1A4"/>
<path d="M54.4791 107.574L60.8503 110.834C61.0542 110.942 61.309 110.834 61.3728 110.612L64.4692 100.743C64.5775 100.381 64.4182 99.9942 64.0933 99.8293L58.1744 96.8038C57.8622 96.6452 57.4863 96.8101 57.378 97.159L54.2625 107.079C54.2115 107.276 54.2943 107.485 54.4791 107.574Z" fill="#0A2982"/>
<path d="M54.8359 107.301L60.64 110.289C60.793 110.371 60.9841 110.289 61.0351 110.124L63.9403 100.889C64.0614 100.451 64.0359 100.261 63.5963 100.045L58.0724 97.2034C57.9323 97.1336 57.7666 97.2034 57.722 97.362L54.7021 106.978C54.6575 107.098 54.7148 107.238 54.8359 107.301Z" fill="#205CE1"/>
<g opacity="0.5">
<path opacity="0.5" d="M63.2903 100.603L63.1756 100.958L58.0659 98.3324L58.1679 97.9962C58.1679 97.9899 58.1742 97.9835 58.1742 97.9772L63.2903 100.603Z" fill="#6CE3FF"/>
<path opacity="0.5" d="M62.9146 101.764L62.8063 102.113L57.6965 99.4931L57.8048 99.1442L62.9146 101.764Z" fill="#6CE3FF"/>
<path opacity="0.5" d="M62.5514 102.918L62.4431 103.28L57.3207 100.66L57.4417 100.305L62.5514 102.918Z" fill="#6CE3FF"/>
<path opacity="0.5" d="M62.1882 104.085L62.0799 104.44L56.9574 101.815L57.0721 101.466L62.1882 104.085Z" fill="#6CE3FF"/>
<path opacity="0.5" d="M61.8251 105.252L61.7105 105.601L56.5944 102.982L56.7027 102.627L61.8251 105.252Z" fill="#6CE3FF"/>
<path opacity="0.5" d="M61.4556 106.413L61.3473 106.762L56.2312 104.149L56.3395 103.794L61.4556 106.413Z" fill="#6CE3FF"/>
<path opacity="0.5" d="M61.0923 107.58L60.984 107.929L55.8616 105.303L55.9699 104.954L61.0923 107.58Z" fill="#6CE3FF"/>
<path opacity="0.5" d="M60.7292 108.735L60.6145 109.096L55.4984 106.47L55.6067 106.115L60.7292 108.735Z" fill="#6CE3FF"/>
</g>
<path d="M59.7289 108.957L60.8693 109.902L61.086 110.079C61.086 110.079 61.3472 108.988 61.8123 108.576C61.9716 108.436 62.4367 108.246 62.6979 108.176C62.8508 108.132 62.9846 108.05 63.0802 107.923C63.3032 107.618 63.6344 106.952 63.4624 105.798C63.4306 105.576 63.3796 105.424 63.3159 105.316C63.3095 105.309 63.3095 105.309 63.3095 105.309C63.1694 105.068 62.991 105.075 62.991 105.075C62.991 105.075 62.22 105.62 61.997 105.785C61.8123 105.918 61.5765 106.185 61.3981 105.988C61.3026 105.887 61.8632 105.176 62.0225 104.853C62.1754 104.529 61.876 104.18 61.7422 104.301C61.6148 104.428 60.8247 105.417 60.4998 106.255C60.1749 107.098 59.7289 108.957 59.7289 108.957Z" fill="#FFD1A4"/>
<path d="M60.6083 109.09L60.8695 109.902L61.0861 110.079C61.0861 110.079 61.3473 108.988 61.8124 108.576C61.9717 108.436 62.4368 108.246 62.698 108.176C62.8509 108.132 62.9847 108.05 63.0803 107.923C63.3033 107.618 63.6346 106.952 63.4626 105.798C63.4307 105.576 63.3798 105.424 63.316 105.316C63.3097 105.309 63.3097 105.309 63.3097 105.309C63.3097 105.309 63.3033 105.506 62.9847 105.791C62.6662 106.071 62.2011 106.324 61.9781 106.464C61.7615 106.603 61.4174 107.117 61.2008 107.625C60.9842 108.145 60.6083 109.09 60.6083 109.09Z" fill="#F2BA88"/>
<path d="M40.3795 130.23C41.1695 134.531 41.7366 139.865 41.7366 139.865C41.7366 139.865 40.4177 150.546 41.9022 159.851C41.9659 160.289 42.1188 161.221 42.6859 161.583C43.0108 161.779 43.8582 161.919 44.5208 161.57C44.5463 161.551 44.5781 161.545 44.6036 161.526C46.8208 160.321 46.5851 158.754 46.9036 157.726C46.8973 153.584 46.464 143.404 47.3433 141.165L48.1333 132.139L47.8466 125.689H39.9144V125.708L39.8762 125.689C39.8762 125.695 39.2008 127.427 40.3795 130.23Z" fill="#3A3A3A"/>
<path d="M42.8007 130.402C43.5461 132.844 44.5082 139.231 44.7121 140.785C44.7121 140.785 43.973 153.077 44.6038 161.526C46.8209 160.321 46.5852 158.754 46.9038 157.726C46.8974 153.584 46.4642 143.404 47.3434 141.165L48.1334 132.139L47.8467 125.689H42.3929C42.3929 125.695 42.0553 127.96 42.8007 130.402Z" fill="#2D2D2D"/>
<path d="M43.3103 127.82C43.5588 128.93 44.0494 130.478 45.0242 131.949C45.1771 132.178 45.3109 132.412 45.4447 132.647C45.4701 132.755 45.8588 134.201 46.3366 136.142C46.8208 138.083 47.4006 140.512 47.8148 142.586C47.5854 145.18 46.9419 154.276 48.1715 162.154C48.2607 162.712 48.6621 163.175 49.2164 163.327C49.4713 163.397 49.7643 163.441 50.0893 163.422C50.325 163.403 50.5671 163.359 50.822 163.251C52.1217 162.705 53.0583 160.638 53.0583 160.638C53.0583 160.638 53.0901 147.559 53.7718 144.127C53.9056 143.468 53.9694 142.808 54.014 142.142C54.1414 140.043 54.3707 136.205 54.4408 134.6C54.5746 131.48 54.6001 128.867 54.4918 127.7L47.9931 127.782L43.3103 127.82Z" fill="#3A3A3A"/>
<path d="M47.9868 127.769C48.0187 128.156 48.0442 128.41 48.0442 128.41C48.0442 128.41 48.1079 130.04 48.9361 132.482C49.7644 134.924 50.5863 140.721 50.6755 142.897C50.7647 144.895 49.6943 154.422 50.0957 163.41C50.3314 163.39 50.5735 163.346 50.8284 163.238C52.1281 162.693 53.0647 160.625 53.0647 160.625C53.0647 160.625 53.0965 147.546 53.7783 144.115C53.9121 143.455 53.9758 142.795 54.0204 142.129C54.1478 140.03 54.3772 136.193 54.4472 134.588C54.581 131.467 54.6065 128.854 54.4982 127.687L47.9868 127.769Z" fill="#2D2D2D"/>
<path d="M39.1117 109.578C40.1566 112.743 40.7491 117.951 40.1184 120.12C39.4813 122.296 39.1117 125.372 39.1117 125.372C39.7043 127.002 45.2472 130.535 48.3436 130.801C48.7195 130.833 49.1018 130.82 49.4777 130.757C52.1982 130.357 54.7531 127.947 54.7531 127.947C54.7531 127.947 54.1669 119.029 53.7974 113.327C53.5489 109.534 52.9883 107.174 52.6378 106.014C52.4658 105.43 52.3448 105.157 52.3448 105.157C52.0198 104.726 51.0387 104.003 49.7963 103.185C49.7899 103.185 49.7772 103.178 49.7708 103.172C48.9362 102.62 47.9868 102.03 47.0312 101.472H47.0184C45.7442 100.724 44.4636 100.02 43.4378 99.5122C43.3167 99.4551 43.2021 99.398 43.0937 99.3473C42.3674 98.9921 41.8068 98.7637 41.5201 98.7066C40.061 98.4339 38.1114 99.2014 37.5189 101.827C36.9264 104.46 38.0668 106.407 39.1117 109.578Z" fill="#1D7DEA"/>
<path opacity="0.75" d="M49.8025 120.082C49.9872 122.518 49.6177 128.588 49.4775 130.763C52.1981 130.364 54.7529 127.953 54.7529 127.953C54.7529 127.953 54.1668 119.035 53.7972 113.333C53.5488 109.54 52.9881 107.181 52.6377 106.02C52.3446 105.684 52.1535 105.468 52.1535 105.468H48.5665C48.5665 105.468 46.6997 105.849 47.375 110.079C48.0568 114.316 49.5795 117.094 49.8025 120.082Z" fill="#205CE2"/>
<path d="M43.0745 100.692C43.6225 101.434 45.5784 102.512 46.4768 102.703C47.3815 102.886 48.1014 102.798 48.5283 102.791C49.1272 102.785 49.5923 103.115 49.7643 103.185C49.7771 103.191 49.7834 103.197 49.7898 103.197C49.7962 103.204 49.8025 103.204 49.8025 103.204L49.2674 102.392L48.643 101.998C48.643 101.998 47.7319 101.669 47.528 101.573C47.4643 101.542 47.2668 101.516 47.0183 101.485C46.4768 101.421 45.7058 101.364 45.5848 101.351C45.4128 101.332 44.0111 100.368 43.9474 100.33C43.9155 100.311 43.6352 99.8546 43.4377 99.5248C43.3166 99.4677 43.202 99.4106 43.0936 99.3599C42.9025 99.6009 42.6477 100.102 43.0745 100.692Z" fill="#165BD6"/>
<path d="M41.074 93.9432C41.3798 95.7572 42.9217 98.6115 43.7053 98.8715C44.1832 99.0364 44.6228 99.0999 44.9923 99.1189C45.604 99.1506 46.1519 98.7193 46.2602 98.1167C46.3558 97.6093 46.515 96.9687 46.789 96.474C47.3369 95.4718 48.0505 94.939 48.4073 95.1293C48.7704 95.3132 48.7322 95.9602 48.7322 95.9602L48.968 95.9538C48.968 95.9538 48.9871 95.7445 49.0253 95.4718C49.0508 95.199 49.0826 94.8502 49.0954 94.5838C49.0954 93.9051 49.3056 93.2391 49.7198 92.7063C49.9682 92.3765 50.2677 91.8691 50.5926 91.1016C50.8029 90.5942 50.8538 90.1058 50.8092 89.6681V89.6618C50.6627 88.2664 50.0893 87.6955 49.5477 87.2959C47.7829 86.0083 44.094 88.3996 42.7305 89.5413C41.9851 90.1629 41.4627 90.8859 41.2014 91.7042V91.7105C40.9785 92.3892 40.9402 93.1313 41.074 93.9432Z" fill="#713E23"/>
<path d="M43.3295 99.2711L43.6671 98.9603C45.8716 101.383 48.7832 101.472 48.7832 101.472C48.7832 101.472 49.5796 102.271 49.809 103.204L49.3439 102.906C49.1018 102.747 48.8278 102.639 48.5411 102.595C48.3564 102.569 47.955 102.544 47.955 102.544C46.1328 102.519 44.317 101.25 43.3741 100.47C42.9918 100.159 42.9727 99.5946 43.3295 99.2711Z" fill="white"/>
<path d="M51.5808 159.471C51.5488 159.534 51.5039 159.585 51.4655 159.636C51.5103 159.573 51.5488 159.515 51.5808 159.471Z" fill="#474747"/>
<path d="M51.4024 159.719C51.4282 159.693 51.4411 159.661 51.4604 159.635C51.4282 159.68 51.3896 159.732 51.338 159.783C51.3638 159.764 51.3831 159.738 51.4024 159.719Z" fill="#474747"/>
<path d="M61.2771 109.483C61.2771 109.483 61.2771 109.483 61.2771 109.489C61.2261 109.635 60.71 111.297 60.3978 112.337C60.0984 113.339 59.1109 116.974 58.3144 118.705C58.3081 118.737 58.2953 118.763 58.2762 118.794C58.2316 118.877 58.1934 118.946 58.1679 119.01C58.1615 119.042 58.1488 119.061 58.1297 119.092C58.1297 119.099 58.1233 119.099 58.1233 119.105C58.0851 119.168 58.0596 119.238 58.0341 119.295C57.7347 119.847 57.1867 120.304 56.4859 120.393H56.4031C55.3072 120.393 52.6887 115.705 51.9114 114.272C52.2299 114.075 52.6186 113.828 53.0391 113.523C53.7973 112.972 54.6383 112.236 55.269 111.303C55.6576 112.166 56.4541 113.447 56.8045 114.272C56.8045 114.272 56.8491 114.164 56.9128 113.974C57.1613 113.358 57.8812 111.874 58.4674 111.062C59.3211 109.889 59.8563 108.316 59.9264 108.145C59.9264 108.195 59.9646 108.341 60.3596 108.392C60.4934 108.411 60.6272 108.525 60.761 108.677C60.8948 108.83 61.0158 109.02 61.1242 109.191C61.1433 109.21 61.156 109.236 61.1688 109.255C61.2133 109.337 61.2516 109.407 61.2771 109.483Z" fill="#FFD1A4"/>
<path d="M61.2771 109.483C61.2771 109.483 61.2771 109.483 61.2771 109.489C61.2261 109.635 60.71 111.297 60.3978 112.337C60.0984 113.339 59.1109 116.974 58.3144 118.705C58.3081 118.737 58.2953 118.762 58.2762 118.794C58.2316 118.877 58.1934 118.946 58.1679 119.01C58.1615 119.042 58.1488 119.061 58.1297 119.092C58.1297 119.099 58.1233 119.099 58.1233 119.105C58.0851 119.168 58.0596 119.238 58.0341 119.295C57.7347 119.847 57.1867 120.304 56.4859 120.393H56.4031C55.3072 120.393 52.6887 115.705 51.9114 114.272C52.2299 114.075 52.6186 113.828 53.0391 113.523C53.81 114.944 56.059 119.016 56.9 119.01C57.3014 119.01 58.1361 116.378 58.7477 114.805C59.3593 113.232 60.7546 108.677 60.7546 108.677C60.8884 108.83 61.0095 109.02 61.1178 109.191C61.1369 109.21 61.1496 109.236 61.1624 109.255C61.2133 109.337 61.2516 109.407 61.2771 109.483Z" fill="#F2BA88"/>
<path d="M55.8107 111.506C54.8614 112.914 53.1348 114.101 52.2173 114.671C51.937 114.849 51.714 114.97 51.5738 115.039C51.3827 114.741 48.5348 110.282 48.2353 108.728C48.1971 108.62 48.178 108.519 48.1652 108.43C47.7893 106.369 48.4264 105.633 48.5093 105.538C48.5284 105.519 48.5475 105.493 48.5602 105.474C49.8472 103.939 51.9242 103.889 53.1348 106.153C53.6891 107.193 54.8231 109.286 55.8107 111.506Z" fill="#347EE8"/>
<path d="M41.074 93.9432C41.3798 95.7572 42.9217 98.6115 43.7053 98.8716C44.1832 99.0365 44.6228 99.0999 44.9923 99.1189C45.604 99.1506 46.1519 98.7193 46.2602 98.1168C46.3558 97.6093 46.515 96.9687 46.789 96.474C47.3369 95.4718 48.0505 94.939 48.4073 95.1293C48.7704 95.3132 48.7322 95.9602 48.7322 95.9602L48.968 95.9539C48.968 95.9539 48.9871 95.7446 49.0253 95.4718C49.0508 95.1991 49.0826 94.8502 49.0954 94.5838C49.0954 93.9051 49.3056 93.2391 49.7198 92.7064C49.9682 92.3765 50.2677 91.8691 50.5926 91.1016C50.8029 90.5942 50.8538 90.1058 50.8092 89.6682C50.6372 90.1058 49.1655 93.5182 45.056 94.3745C40.7682 95.2688 41.1696 91.8818 41.2014 91.7105C40.9785 92.3892 40.9402 93.1313 41.074 93.9432Z" fill="#442312"/>
<path d="M52.4274 126.101C52.077 126.742 50.841 127.655 49.382 127.452C49.1208 127.414 48.8468 127.363 48.5729 127.3C48.541 127.294 48.5155 127.287 48.49 127.287C45.4318 126.583 41.4052 124.458 40.354 122.961C39.0033 121.04 40.3349 110.618 42.4119 106.641V106.635C42.9598 105.595 44.0047 105.246 44.6163 105.341C44.6163 105.341 48.6812 106.863 49.9681 108.436C51.2615 110.003 53.5169 124.097 52.4274 126.101Z" fill="#FBC006"/>
<path d="M52.4274 126.101C52.077 126.742 50.841 127.655 49.382 127.452C49.1207 127.414 48.8468 127.363 48.5728 127.3C49.5285 127.554 50.2612 126.456 50.2612 125.695C50.2612 124.94 49.2991 113.327 48.2033 110.086C47.8784 109.128 43.7243 107.238 42.4182 106.635C42.9661 105.595 44.011 105.246 44.6227 105.341C44.6227 105.341 48.6875 106.863 49.9745 108.436C51.2615 110.003 53.5169 124.097 52.4274 126.101Z" fill="#FFD04D"/>
<path d="M46.2665 106.14C46.2665 106.14 47.1202 104.517 48.1332 103.87C49.1463 103.216 50.1402 103.375 50.1402 103.375L51.6502 104.447C51.6502 104.447 50.7837 104.415 49.8216 105.119C49.2482 105.538 48.3053 107.174 48.3053 107.174L46.2665 106.14Z" fill="#FFD04D"/>
<path d="M54.1732 118.528C54.1732 118.528 53.912 120.348 52.1599 121.56L52.4466 123.862C52.4466 123.862 53.4023 123.298 54.358 121.274L54.1732 118.528Z" fill="#FFD04D"/>
<defs>
<linearGradient id="paint0_linear" x1="33.0561" y1="76.2848" x2="3.51477" y2="93.417" gradientUnits="userSpaceOnUse">
<stop stop-color="#B4BBE1" stop-opacity="0.1"/>
<stop offset="1" stop-color="#B4BBE1" stop-opacity="0.3"/>
</linearGradient>
<linearGradient id="paint1_linear" x1="46.5441" y1="77.652" x2="17.003" y2="94.7841" gradientUnits="userSpaceOnUse">
<stop stop-color="#B4BBE1" stop-opacity="0.1"/>
<stop offset="1" stop-color="#B4BBE1" stop-opacity="0.3"/>
</linearGradient>
<linearGradient id="paint2_linear" x1="2.94488" y1="118.795" x2="142.965" y2="118.795" gradientUnits="userSpaceOnUse">
<stop stop-color="#B4BBE1" stop-opacity="0.1"/>
<stop offset="1" stop-color="#B4BBE1" stop-opacity="0.3"/>
</linearGradient>
<linearGradient id="paint3_linear" x1="97.0996" y1="100.652" x2="130.516" y2="100.652" gradientUnits="userSpaceOnUse">
<stop stop-color="#CED5EF"/>
<stop offset="0.3714" stop-color="#D5DDF1"/>
<stop offset="0.8656" stop-color="#DAE3F2"/>
</linearGradient>
<linearGradient id="paint4_linear" x1="91.6699" y1="103.757" x2="125.074" y2="103.757" gradientUnits="userSpaceOnUse">
<stop stop-color="#CED5EF"/>
<stop offset="0.3714" stop-color="#D5DDF1"/>
<stop offset="0.8656" stop-color="#DAE3F2"/>
</linearGradient>
<linearGradient id="paint5_linear" x1="86.2401" y1="106.859" x2="119.644" y2="106.859" gradientUnits="userSpaceOnUse">
<stop stop-color="#CED5EF"/>
<stop offset="0.3714" stop-color="#D5DDF1"/>
<stop offset="0.8656" stop-color="#DAE3F2"/>
</linearGradient>
<linearGradient id="paint6_linear" x1="80.8704" y1="109.934" x2="114.269" y2="109.934" gradientUnits="userSpaceOnUse">
<stop stop-color="#CED5EF"/>
<stop offset="0.3714" stop-color="#D5DDF1"/>
<stop offset="0.8656" stop-color="#DAE3F2"/>
</linearGradient>
<linearGradient id="paint7_linear" x1="75.4288" y1="113.045" x2="108.821" y2="113.045" gradientUnits="userSpaceOnUse">
<stop stop-color="#CED5EF"/>
<stop offset="0.3714" stop-color="#D5DDF1"/>
<stop offset="0.8656" stop-color="#DAE3F2"/>
</linearGradient>
<linearGradient id="paint8_linear" x1="69.6759" y1="116.332" x2="103.068" y2="116.332" gradientUnits="userSpaceOnUse">
<stop stop-color="#CED5EF"/>
<stop offset="0.3714" stop-color="#D5DDF1"/>
<stop offset="0.8656" stop-color="#DAE3F2"/>
</linearGradient>
<linearGradient id="paint9_linear" x1="64.1923" y1="119.472" x2="97.5726" y2="119.472" gradientUnits="userSpaceOnUse">
<stop stop-color="#CED5EF"/>
<stop offset="0.3714" stop-color="#D5DDF1"/>
<stop offset="0.8656" stop-color="#DAE3F2"/>
</linearGradient>
<linearGradient id="paint10_linear" x1="58.7087" y1="122.598" x2="92.1009" y2="122.598" gradientUnits="userSpaceOnUse">
<stop stop-color="#CED5EF"/>
<stop offset="0.3714" stop-color="#D5DDF1"/>
<stop offset="0.8656" stop-color="#DAE3F2"/>
</linearGradient>
<linearGradient id="paint11_linear" x1="55.1575" y1="83.5127" x2="93.091" y2="83.5127" gradientUnits="userSpaceOnUse">
<stop stop-color="#CED5EF"/>
<stop offset="0.3714" stop-color="#D5DDF1"/>
<stop offset="0.8656" stop-color="#DAE3F2"/>
</linearGradient>
<linearGradient id="paint12_linear" x1="49.7763" y1="86.5938" x2="87.6915" y2="86.5938" gradientUnits="userSpaceOnUse">
<stop stop-color="#CED5EF"/>
<stop offset="0.3714" stop-color="#D5DDF1"/>
<stop offset="0.8656" stop-color="#DAE3F2"/>
</linearGradient>
<linearGradient id="paint13_linear" x1="44.2886" y1="89.7249" x2="82.2281" y2="89.7249" gradientUnits="userSpaceOnUse">
<stop stop-color="#CED5EF"/>
<stop offset="0.3714" stop-color="#D5DDF1"/>
<stop offset="0.8656" stop-color="#DAE3F2"/>
</linearGradient>
<linearGradient id="paint14_linear" x1="38.8739" y1="92.8255" x2="76.7952" y2="92.8255" gradientUnits="userSpaceOnUse">
<stop stop-color="#CED5EF"/>
<stop offset="0.3714" stop-color="#D5DDF1"/>
<stop offset="0.8656" stop-color="#DAE3F2"/>
</linearGradient>
<linearGradient id="paint15_linear" x1="33.4135" y1="95.9444" x2="71.3378" y2="95.9444" gradientUnits="userSpaceOnUse">
<stop stop-color="#CED5EF"/>
<stop offset="0.3714" stop-color="#D5DDF1"/>
<stop offset="0.8656" stop-color="#DAE3F2"/>
</linearGradient>
<linearGradient id="paint16_linear" x1="27.9987" y1="99.0452" x2="65.9169" y2="99.0452" gradientUnits="userSpaceOnUse">
<stop stop-color="#CED5EF"/>
<stop offset="0.3714" stop-color="#D5DDF1"/>
<stop offset="0.8656" stop-color="#DAE3F2"/>
</linearGradient>
<linearGradient id="paint17_linear" x1="22.5535" y1="102.155" x2="60.4808" y2="102.155" gradientUnits="userSpaceOnUse">
<stop stop-color="#CED5EF"/>
<stop offset="0.3714" stop-color="#D5DDF1"/>
<stop offset="0.8656" stop-color="#DAE3F2"/>
</linearGradient>
<linearGradient id="paint18_linear" x1="17.099" y1="105.272" x2="55.0173" y2="105.272" gradientUnits="userSpaceOnUse">
<stop stop-color="#CED5EF"/>
<stop offset="0.3714" stop-color="#D5DDF1"/>
<stop offset="0.8656" stop-color="#DAE3F2"/>
</linearGradient>
<linearGradient id="paint19_linear" x1="99.1599" y1="148.331" x2="146.748" y2="148.331" gradientUnits="userSpaceOnUse">
<stop stop-color="#B4BBE1" stop-opacity="0.1"/>
<stop offset="1" stop-color="#B4BBE1" stop-opacity="0.3"/>
</linearGradient>
<linearGradient id="paint20_linear" x1="88.3071" y1="99.9955" x2="112.101" y2="99.9955" gradientUnits="userSpaceOnUse">
<stop stop-color="#B4BBE1" stop-opacity="0.1"/>
<stop offset="1" stop-color="#B4BBE1" stop-opacity="0.3"/>
</linearGradient>
</defs>
</svg>
