<svg width="216" height="215" viewBox="0 0 216 215" fill="none" xmlns="http://www.w3.org/2000/svg">
<path d="M171.574 169.159C169.411 175.239 166.212 181.408 160.674 184.603C151.671 189.798 140.435 185.247 131.743 179.729C123.051 174.211 113.964 167.448 103.693 168.376C93.3395 169.311 85.1506 177.842 75.2083 181.019C62.5597 185.053 48.6889 179.765 38.4629 171.378C32.0924 166.152 26.5971 159.586 23.6952 151.787C20.7933 143.988 20.7108 134.867 24.5668 127.428C28.7282 119.4 36.9312 114.001 40.625 105.744C43.9054 98.4091 43.1183 89.9171 41.343 82.1228C39.5677 74.3286 36.8441 66.6907 36.4219 58.6851C35.9803 50.2111 38.3354 41.3526 43.9169 34.9681C49.4984 28.5836 58.5081 25.1016 66.559 27.2652C75.7812 29.7427 82.4714 38.7925 91.9315 40.1285C102.824 41.666 112.224 32.5903 122.674 28.9111C131.269 25.8822 141.053 26.6678 148.991 31.0232C156.93 35.3786 162.901 43.2385 165.056 52.1651C166.444 57.9183 166.704 64.6118 170.276 69.5201C175.556 76.7744 182.473 73.2484 189.849 74.7765C196.478 76.1518 199.124 82.5339 199.866 88.7036C201.926 105.736 193.035 118.749 183.803 131.997C180.094 137.32 176.605 143.202 175.396 149.679C174.184 156.191 173.834 162.808 171.574 169.159Z" fill="#126BD0"/>
<g clip-path="url(#clip0)">
<path d="M74.6277 147.938C72.1008 146.312 66.8918 146.259 67.1189 147.447C67.144 147.785 66.4842 147.726 66.2861 147.447C65.6929 146.693 64.8832 146.14 63.9661 145.862C63.0491 145.584 62.069 145.594 61.1579 145.89C60.2423 146.229 59.308 146.522 59.2891 145.543C59.2172 142.089 60.9339 133.136 61.7027 126.161C64.0525 104.885 64.0051 98.1324 66.4928 80.5749C67.2693 75.0506 71.8813 77.8577 71.2427 77.5655C73.363 100.571 73.5948 123.794 74.0044 146.919L74.6277 147.938Z" fill="#C0CCD9"/>
<g style="mix-blend-mode:multiply" opacity="0.6">
<g style="mix-blend-mode:multiply" opacity="0.6">
<path d="M69.9357 146.751C68.7568 120.541 68.914 93.7369 69.3001 77.6792C69.9083 77.3983 70.5973 77.3471 71.2403 77.5349C73.3607 100.54 74.2081 124.783 74.6254 147.908C73.8726 147.014 71.3525 146.723 69.9357 146.751Z" fill="#E6E1DC"/>
</g>
</g>
<path d="M152.543 77.1606C124.742 76.6193 100.042 76.2951 72.3068 76.6368C71.7782 76.5859 71.2471 76.7038 70.7896 76.9736C70.1314 77.455 70.1261 78.4205 70.1412 79.2455L73.3261 145.062C73.3003 145.765 73.464 146.463 73.8002 147.081C74.4948 148.125 75.9608 148.24 77.2177 148.239C104.247 148.305 131.259 146.852 158.125 143.888C159.023 143.877 159.896 143.597 160.633 143.083C161.642 142.236 161.666 140.69 161.612 139.343C160.833 121.205 159.569 103.085 157.822 84.9831C157.548 82.2393 157.082 79.1855 154.807 77.6253L152.543 77.1606Z" fill="white"/>
<path d="M147.49 109.579L151.685 109.267C152.909 109.176 153.975 110.096 154.066 111.321L154.37 115.406C154.462 116.632 153.543 117.699 152.319 117.79L148.124 118.102C146.9 118.193 145.834 117.274 145.743 116.048L145.439 111.963C145.348 110.737 146.266 109.67 147.49 109.579Z" fill="#6290CB"/>
<path d="M113.836 108.825L118.737 108.46C119.123 108.431 119.482 108.25 119.735 107.956C119.988 107.662 120.114 107.28 120.085 106.893L119.724 102.04C119.68 101.449 119.404 100.9 118.956 100.514C118.508 100.127 117.924 99.9346 117.335 99.9785L113.201 100.286C112.612 100.332 112.065 100.609 111.679 101.057C111.294 101.505 111.101 102.088 111.143 102.678L111.446 106.748C111.466 107.041 111.545 107.328 111.676 107.591C111.808 107.854 111.99 108.089 112.212 108.282C112.434 108.475 112.691 108.622 112.97 108.715C113.249 108.808 113.543 108.845 113.836 108.825V108.825Z" fill="#6290CB"/>
<path d="M70.87 94.7415L70.1489 79.2449C70.0877 78.4233 70.139 77.4543 70.7972 76.973C71.2547 76.7031 71.7858 76.5853 72.3144 76.6362C100.042 76.295 124.742 76.6192 152.543 77.1605L154.837 77.623C157.082 79.1855 157.548 82.2392 157.822 84.983C158.059 87.4515 158.343 90.9589 158.565 93.4209C153.48 93.058 78.2369 94.1548 70.87 94.7415Z" fill="#D1590C"/>
<path d="M147.001 81.4335C147.024 81.7635 147.145 82.0793 147.347 82.3407C147.549 82.6022 147.825 82.7977 148.138 82.9024C148.452 83.0071 148.789 83.0162 149.107 82.9288C149.426 82.8413 149.712 82.6611 149.928 82.411C150.144 82.1609 150.281 81.8522 150.322 81.5239C150.363 81.1957 150.305 80.8627 150.157 80.5671C150.008 80.2715 149.776 80.0267 149.488 79.8637C149.201 79.7006 148.871 79.6266 148.542 79.6512C148.102 79.6839 147.693 79.8898 147.404 80.2238C147.115 80.5578 146.97 80.9928 147.001 81.4335Z" fill="#182E57"/>
<path d="M136.831 81.4646C136.855 81.7927 136.976 82.1061 137.179 82.3653C137.381 82.6245 137.656 82.8178 137.968 82.9209C138.28 83.0239 138.615 83.0319 138.932 82.944C139.248 82.8561 139.532 82.6762 139.746 82.427C139.96 82.1778 140.096 81.8706 140.136 81.5441C140.176 81.2176 140.119 80.8865 139.971 80.5928C139.823 80.2991 139.591 80.0558 139.305 79.8939C139.019 79.7319 138.692 79.6584 138.364 79.6828C137.925 79.7155 137.516 79.9216 137.229 80.2557C136.941 80.5899 136.798 81.0247 136.831 81.4646V81.4646Z" fill="#182E57"/>
<path d="M128.439 82.56C127.524 82.6281 126.727 81.9407 126.659 81.0247C126.591 80.1087 127.277 79.3109 128.192 79.2429C129.107 79.1748 129.904 79.8622 129.972 80.7782C130.04 81.6942 129.354 82.4919 128.439 82.56Z" fill="#182E57"/>
<path d="M117.177 82.3168C116.262 82.3849 115.466 81.6975 115.397 80.7815C115.329 79.8655 116.016 79.0678 116.93 78.9997C117.845 78.9316 118.642 79.619 118.71 80.535C118.778 81.451 118.092 82.2488 117.177 82.3168Z" fill="#182E57"/>
<path d="M106.034 82.2114C105.119 82.2794 104.322 81.5921 104.254 80.6761C104.186 79.76 104.872 78.9623 105.787 78.8942C106.702 78.8262 107.499 79.5136 107.567 80.4296C107.635 81.3456 106.949 82.1433 106.034 82.2114Z" fill="#182E57"/>
<path d="M93.9237 80.7112C93.9481 81.0392 94.0692 81.3527 94.2715 81.6119C94.4738 81.8711 94.7483 82.0644 95.0603 82.1674C95.3723 82.2705 95.7078 82.2785 96.0244 82.1906C96.341 82.1027 96.6244 81.9228 96.8388 81.6736C97.0532 81.4244 97.1889 81.1171 97.2289 80.7907C97.2689 80.4642 97.2113 80.1331 97.0634 79.8394C96.9154 79.5457 96.6839 79.3024 96.3979 79.1404C96.1119 78.9785 95.7844 78.905 95.4568 78.9294C95.0175 78.9621 94.6092 79.1682 94.3217 79.5023C94.0341 79.8365 93.891 80.2713 93.9237 80.7112V80.7112Z" fill="#182E57"/>
<path d="M83.1672 80.5156C83.1902 80.8456 83.3106 81.1613 83.513 81.4228C83.7153 81.6843 83.9907 81.8797 84.3041 81.9844C84.6175 82.0891 84.9549 82.0983 85.2735 82.0108C85.5921 81.9233 85.8776 81.7431 86.0938 81.493C86.31 81.2429 86.4471 80.9342 86.4879 80.6059C86.5287 80.2777 86.4712 79.9447 86.3228 79.6491C86.1744 79.3536 85.9417 79.1088 85.6542 78.9457C85.3667 78.7826 85.0374 78.7087 84.7079 78.7332C84.2679 78.7659 83.8588 78.9718 83.57 79.3059C83.2813 79.6399 83.1364 80.0748 83.1672 80.5156Z" fill="#182E57"/>
<path d="M139.084 71.2132C139.318 71.3579 139.949 70.1991 141.694 69.7064C142.676 69.4289 143.718 69.4563 144.684 69.7851C145.847 70.2421 146.815 71.09 147.423 72.1833C148.083 73.2885 148.442 74.5475 148.465 75.835C148.471 76.933 148.319 78.0261 148.013 79.0806C147.487 80.9188 146.907 82.0429 147.125 82.181C147.344 82.3192 148.231 81.3885 149.154 79.4899C149.682 78.3442 149.988 77.1083 150.055 75.848C150.145 74.2421 149.758 72.6454 148.942 71.2595C148.114 69.8083 146.766 68.727 145.17 68.2356C143.871 67.8651 142.482 67.9684 141.251 68.5271C140.436 68.871 139.749 69.4622 139.287 70.2175C138.962 70.8208 138.988 71.174 139.084 71.2132Z" fill="white"/>
<path d="M128.999 71.6544C129.22 71.8156 130.035 70.7512 131.761 69.9047C132.724 69.4191 133.798 69.1954 134.874 69.2562C136.141 69.334 137.33 69.8983 138.192 70.8315C138.973 71.8858 139.386 73.1686 139.365 74.4812C139.413 75.6546 139.369 76.8299 139.234 77.9963C138.995 79.9752 138.369 81.095 138.581 81.2415C138.792 81.3879 138.972 81.112 139.306 80.6239C139.816 79.8981 140.189 79.0854 140.407 78.2256C140.74 76.9856 140.92 75.7095 140.942 74.4256C140.963 73.6343 140.881 72.8436 140.698 72.0735C140.5 71.1965 140.101 70.3776 139.533 69.6817C138.958 69.0299 138.252 68.5073 137.461 68.1483C136.67 67.7893 135.812 67.602 134.944 67.5987C133.567 67.5876 132.223 68.0119 131.101 68.8111C130.365 69.3096 129.744 69.9584 129.276 70.715C128.969 71.2398 128.871 71.5868 128.999 71.6544Z" fill="white"/>
<path d="M117.093 70.7183C117.293 70.9196 118.219 69.9937 120.004 69.5289C121.043 69.2841 122.123 69.2776 123.164 69.5099C124.43 69.786 125.6 70.3914 126.557 71.265C127.502 72.16 128.202 73.2831 128.588 74.5266C128.921 75.5707 129.077 76.6626 129.053 77.758C128.994 79.6618 128.51 80.8251 128.743 80.9544C128.976 81.0838 129.871 80.0521 130.289 77.8977C130.511 76.6314 130.462 75.3323 130.144 74.0865C129.761 72.5154 128.932 71.0888 127.757 69.979C126.558 68.884 125.065 68.1655 123.462 67.9127C122.171 67.712 120.851 67.8636 119.639 68.3516C118.835 68.6847 118.117 69.1947 117.537 69.8437C117.141 70.3287 117.002 70.6401 117.093 70.7183Z" fill="white"/>
<path d="M105.742 71.1304C105.964 71.3146 106.808 70.2172 108.708 69.543C109.784 69.1446 110.937 69.0006 112.078 69.1225C113.409 69.2553 114.653 69.8479 115.595 70.7988C116.513 71.8348 117.14 73.0967 117.41 74.4548C117.685 75.595 117.773 76.7725 117.669 77.9409C117.473 79.963 116.74 81.0985 116.959 81.2443C117.049 81.3148 117.351 81.1225 117.761 80.621C118.301 79.8878 118.687 79.0527 118.897 78.1661C119.213 76.8449 119.258 75.4729 119.028 74.1336C118.774 72.4332 118.02 70.8469 116.862 69.5773C115.618 68.3163 113.942 67.5769 112.174 67.5094C110.785 67.4419 109.403 67.7528 108.177 68.409C107.354 68.8273 106.644 69.4361 106.103 70.1847C105.734 70.714 105.652 71.0675 105.742 71.1304Z" fill="white"/>
<path d="M93.7348 70.9117C93.959 71.1267 94.8999 70.0915 96.8578 69.4594C97.9555 69.0832 99.1222 68.9516 100.276 69.0738C101.672 69.2175 102.982 69.8174 104.004 70.7808C105.007 71.7624 105.672 73.038 105.902 74.4229C106.166 75.6096 106.312 76.8193 106.341 78.0346C106.379 78.8277 106.27 79.6209 106.021 80.3747C105.837 80.898 105.626 81.1762 105.702 81.2709C105.779 81.3656 106.163 81.2367 106.611 80.7323C107.166 79.9606 107.501 79.0523 107.58 78.1046C107.742 76.7686 107.719 75.4167 107.512 74.0869C107.31 72.3268 106.507 70.6903 105.24 69.4535C103.937 68.2353 102.243 67.521 100.463 67.4385C99.0431 67.3624 97.6287 67.6648 96.364 68.3148C96.1019 68.425 95.8536 68.5652 95.6239 68.7328C95.4036 68.8804 95.1974 69.0116 95.0154 69.1564C94.719 69.41 94.4379 69.681 94.1735 69.968C93.8059 70.5204 93.6442 70.8335 93.7348 70.9117Z" fill="white"/>
<path d="M82.1599 71.5262C82.3299 71.7375 83.4246 71.0075 85.31 70.3344C86.3785 69.9335 87.5063 69.7139 88.647 69.6847C89.973 69.6588 91.2695 70.0789 92.3292 70.8777C93.4113 71.7103 94.2835 72.7851 94.8761 74.016C95.3785 75.041 95.6982 76.1461 95.8208 77.2812C96.0519 79.2483 95.6679 80.5123 95.9289 80.6009C96.19 80.6896 96.9738 79.5117 97.0665 77.2348C97.1103 75.9063 96.8673 74.5839 96.354 73.3578C95.7297 71.8055 94.6961 70.452 93.3636 69.4418C92.643 68.9094 91.8291 68.5169 90.9642 68.2846C90.1864 68.085 89.3816 68.012 88.5807 68.0682C87.2592 68.1767 85.9747 68.5588 84.8085 69.1904C82.8525 70.2625 82.0247 71.3664 82.1599 71.5262Z" fill="white"/>
<path d="M70.456 77.5701C70.7474 77.5484 70.6905 75.9544 72.0193 74.0179C72.7765 72.9121 73.8201 72.0338 75.0382 71.477C76.521 70.8539 78.1735 70.7637 79.7154 71.2216C81.2743 71.658 82.6471 72.5948 83.6229 73.8881C84.4138 74.9838 84.9313 76.2531 85.1321 77.59C85.4839 79.9342 84.9116 81.4669 85.1781 81.5243C85.2818 81.5706 85.5592 81.2566 85.8781 80.5688C86.2723 79.5881 86.4567 78.5354 86.4194 77.4788C86.3676 75.8678 85.875 74.302 84.9953 72.9521C83.8699 71.279 82.1853 70.0627 80.2444 69.5222C78.3052 68.9318 76.2158 69.0872 74.3854 69.9581C72.9409 70.699 71.7575 71.8648 70.9942 73.2989C70.4892 74.2408 70.2207 75.2915 70.2118 76.3606C70.1863 77.1577 70.3563 77.5775 70.456 77.5701Z" fill="white"/>
<path d="M70.8699 94.7418C70.8773 94.8416 72.1016 94.9204 74.3185 94.9716C76.5355 95.0229 79.7222 95.0483 83.724 95.0439C91.6581 95.0327 102.622 94.9119 114.72 94.6912C126.818 94.4706 137.77 94.1808 145.702 93.9304C149.67 93.7819 152.876 93.6591 155.093 93.5019C156.227 93.4611 157.362 93.49 158.493 93.5887C158.548 93.4997 157.347 92.9019 155.08 92.9084C152.813 92.9149 149.677 92.8394 145.682 92.8355C137.756 92.8461 126.799 92.9664 114.709 93.1865C102.618 93.4066 91.613 93.7003 83.7196 93.9479C79.751 94.0887 76.5386 94.2351 74.3194 94.3616C72.1003 94.4881 70.8772 94.6331 70.8699 94.7418Z" fill="#E4B93A"/>
<path d="M152.522 117.605C152.527 117.674 152.793 117.724 153.197 117.555C153.741 117.242 154.147 116.735 154.333 116.135C154.545 115.296 154.595 114.425 154.481 113.568L154.376 112.148C154.392 111.595 154.351 111.041 154.253 110.497C154.142 110.145 153.934 109.831 153.653 109.592C153.403 109.385 153.113 109.23 152.802 109.138C152.296 108.99 151.771 108.917 151.244 108.922C150.41 108.903 149.575 108.942 148.746 109.038C147.355 109.195 146.526 109.466 146.545 109.619C146.565 109.772 147.423 109.808 148.769 109.862C149.45 109.897 150.255 109.929 151.14 110.01C152.025 110.091 152.94 110.262 153.084 110.854C153.172 111.311 153.23 111.774 153.256 112.239L153.408 113.656C153.55 114.396 153.583 115.153 153.506 115.903C153.429 116.37 153.22 116.806 152.905 117.16C152.693 117.407 152.462 117.517 152.522 117.605Z" fill="#567A98"/>
<path d="M148.362 109.576C148.357 109.514 148.172 109.296 147.659 109.25C147.28 109.229 146.903 109.312 146.567 109.489C146.231 109.666 145.949 109.932 145.752 110.256C145.519 110.705 145.397 111.205 145.398 111.711L145.328 113.26L145.284 114.947C145.251 115.63 145.367 116.311 145.625 116.944C145.79 117.294 146.03 117.602 146.328 117.847C146.627 118.092 146.976 118.267 147.35 118.36C147.956 118.5 148.583 118.531 149.2 118.454C150.297 118.373 151.217 118.196 152.033 118.074C152.427 118.019 152.811 117.904 153.172 117.734C153.469 117.594 153.72 117.372 153.895 117.094C154.176 116.617 154.045 116.31 153.976 116.315C153.907 116.321 153.833 116.565 153.543 116.819C153.087 117.152 152.526 117.306 151.964 117.253C151.197 117.31 150.18 117.324 149.144 117.385C148.107 117.447 147.055 117.301 146.707 116.462C146.36 115.624 146.48 114.333 146.425 113.287L146.38 111.746C146.339 111.376 146.379 111.001 146.499 110.649C146.614 110.41 146.782 110.2 146.99 110.037C147.199 109.873 147.442 109.758 147.701 109.702C148.072 109.613 148.33 109.663 148.362 109.576Z" fill="#567A98"/>
<path d="M152.708 128.818C152.714 128.894 152.98 128.944 153.375 128.768C153.924 128.458 154.333 127.949 154.519 127.347C154.739 126.517 154.8 125.654 154.7 124.801L154.594 123.381C154.581 122.827 154.514 122.276 154.394 121.735C154.283 121.383 154.076 121.07 153.795 120.83C153.545 120.623 153.255 120.469 152.944 120.376C152.438 120.228 151.913 120.155 151.386 120.16C150.567 120.143 149.748 120.181 148.934 120.273C147.55 120.43 146.722 120.7 146.741 120.853C146.76 121.006 147.611 121.043 148.964 121.097C149.646 121.131 150.442 121.165 151.335 121.245C152.228 121.325 153.135 121.497 153.279 122.089C153.372 122.543 153.434 123.002 153.467 123.464L153.618 124.882C153.757 125.622 153.79 126.379 153.716 127.129C153.639 127.596 153.431 128.032 153.116 128.386C152.879 128.627 152.687 128.734 152.708 128.818Z" fill="#879CAE"/>
<path d="M148.542 120.797C148.537 120.735 148.359 120.517 147.839 120.471C147.461 120.449 147.084 120.531 146.749 120.708C146.414 120.886 146.135 121.151 145.94 121.477C145.701 121.933 145.577 122.44 145.579 122.955L145.517 124.504L145.465 126.191C145.435 126.874 145.555 127.555 145.814 128.188C145.979 128.537 146.219 128.845 146.518 129.09C146.816 129.335 147.165 129.511 147.539 129.604C148.146 129.743 148.772 129.775 149.389 129.698C150.478 129.617 151.406 129.44 152.214 129.318C152.611 129.263 152.998 129.149 153.361 128.978C153.658 128.837 153.909 128.615 154.084 128.337C154.365 127.861 154.234 127.554 154.165 127.559C154.096 127.564 154.022 127.809 153.732 128.062C153.277 128.395 152.715 128.55 152.153 128.496C151.386 128.553 150.369 128.567 149.333 128.629C148.296 128.69 147.244 128.545 146.897 127.706C146.549 126.867 146.669 125.576 146.614 124.53L146.569 122.99C146.528 122.619 146.569 122.245 146.688 121.892C146.803 121.653 146.972 121.444 147.18 121.28C147.388 121.116 147.631 121.002 147.89 120.946C148.259 120.833 148.517 120.883 148.542 120.797Z" fill="#879CAE"/>
<path d="M152.292 106.844C152.297 106.913 152.556 106.963 152.96 106.794C153.511 106.48 153.918 105.962 154.094 105.351C154.314 104.521 154.376 103.657 154.274 102.805L154.169 101.384C154.159 100.83 154.093 100.279 153.969 99.7391C153.864 99.3899 153.662 99.0781 153.386 98.8405C153.138 98.628 152.847 98.4707 152.534 98.3789C152.029 98.2286 151.503 98.1583 150.976 98.1705C150.16 98.1509 149.343 98.1859 148.532 98.2751C147.14 98.4327 146.312 98.7028 146.331 98.8558C146.35 99.0088 147.209 99.0453 148.563 99.1067C149.236 99.1338 150.041 99.1743 150.887 99.2503C151.733 99.3264 152.695 99.5019 152.832 100.102C152.92 100.559 152.978 101.021 153.004 101.486L153.163 102.895C153.3 103.636 153.33 104.393 153.253 105.143C153.181 105.612 152.972 106.049 152.653 106.4C152.425 106.656 152.263 106.761 152.292 106.844Z" fill="#879CAE"/>
<path d="M148.124 98.815C148.12 98.7613 147.942 98.5352 147.422 98.489C147.042 98.471 146.665 98.5557 146.329 98.7342C145.994 98.9127 145.713 99.1784 145.515 99.5033C145.277 99.9563 145.156 100.462 145.162 100.973L145.092 102.523L145.048 104.209C145.018 104.895 145.138 105.579 145.398 106.214C145.558 106.565 145.795 106.875 146.093 107.121C146.39 107.366 146.74 107.54 147.115 107.63C147.721 107.769 148.347 107.8 148.965 107.724C150.061 107.643 150.982 107.474 151.797 107.344C152.193 107.293 152.578 107.179 152.936 107.004C153.232 106.862 153.483 106.64 153.66 106.364C153.933 105.895 153.81 105.58 153.741 105.585C153.672 105.591 153.597 105.828 153.3 106.082C152.844 106.415 152.282 106.569 151.72 106.516C150.953 106.573 149.937 106.594 148.9 106.648C147.863 106.702 146.812 106.572 146.464 105.725C146.116 104.879 146.236 103.596 146.181 102.55L146.144 101.008C146.101 100.639 146.139 100.265 146.255 99.9115C146.371 99.6741 146.54 99.4663 146.748 99.3037C146.957 99.1411 147.199 99.0279 147.458 98.9727C147.842 98.8515 148.092 98.9023 148.124 98.815Z" fill="#879CAE"/>
<path d="M141.468 118.18C141.473 118.249 141.739 118.299 142.135 118.131C142.684 117.824 143.093 117.318 143.279 116.718C143.499 115.888 143.56 115.024 143.46 114.172L143.354 112.751C143.341 112.197 143.274 111.646 143.155 111.106C143.046 110.755 142.838 110.444 142.556 110.208C142.308 109.996 142.018 109.839 141.704 109.747C141.199 109.597 140.673 109.527 140.147 109.538C139.328 109.523 138.509 109.558 137.694 109.644C136.31 109.801 135.482 110.071 135.501 110.224C135.52 110.377 136.372 110.421 137.725 110.475C138.406 110.502 139.203 110.543 140.096 110.615C140.988 110.688 141.896 110.868 142.04 111.467C142.129 111.924 142.186 112.387 142.213 112.851L142.379 114.252C142.517 114.99 142.55 115.744 142.476 116.492C142.401 116.96 142.192 117.396 141.875 117.748C141.64 117.998 141.447 118.105 141.468 118.18Z" fill="#879CAE"/>
<path d="M137.263 110.17C137.297 110.106 137.08 109.89 136.56 109.836C136.181 109.819 135.805 109.904 135.471 110.082C135.137 110.26 134.857 110.526 134.661 110.85C134.419 111.302 134.298 111.808 134.308 112.32C134.282 112.801 134.257 113.304 134.238 113.869L134.194 115.556C134.161 116.241 134.278 116.925 134.536 117.561C134.698 117.912 134.938 118.221 135.236 118.466C135.535 118.711 135.885 118.886 136.26 118.977C136.867 119.118 137.493 119.152 138.111 119.079C139.204 118.951 140.127 118.82 140.935 118.691C141.333 118.64 141.721 118.525 142.082 118.351C142.381 118.213 142.632 117.99 142.805 117.71C143.087 117.241 142.955 116.927 142.886 116.932C142.817 116.937 142.742 117.174 142.453 117.428C141.997 117.761 141.435 117.915 140.873 117.862C140.107 117.919 139.09 117.94 138.053 117.994C137.016 118.048 135.966 117.918 135.617 117.071C135.269 116.225 135.39 114.949 135.335 113.896L135.289 112.355C135.249 111.985 135.289 111.61 135.408 111.257C135.525 111.02 135.694 110.813 135.902 110.65C136.111 110.488 136.353 110.374 136.611 110.319C137.019 110.203 137.269 110.247 137.263 110.17Z" fill="#879CAE"/>
<path d="M141.656 129.408C141.661 129.477 141.927 129.527 142.323 129.359C142.873 129.053 143.281 128.543 143.459 127.938C143.682 127.109 143.746 126.245 143.647 125.392L143.542 123.971C143.528 123.418 143.462 122.867 143.342 122.326C143.232 121.966 143.018 121.646 142.726 121.407C142.491 121.201 142.217 121.043 141.921 120.942C141.415 120.792 140.89 120.722 140.363 120.733C139.544 120.718 138.725 120.753 137.911 120.839C136.527 120.996 135.698 121.266 135.718 121.419C135.737 121.572 136.588 121.616 137.942 121.67C138.622 121.697 139.42 121.738 140.304 121.811C141.189 121.884 142.112 122.063 142.257 122.662C142.345 123.119 142.403 123.581 142.429 124.046L142.58 125.456C142.719 126.197 142.752 126.953 142.678 127.703C142.596 128.17 142.379 128.602 142.053 128.946C141.827 129.218 141.634 129.325 141.656 129.408Z" fill="#879CAE"/>
<path d="M137.489 121.38C137.523 121.323 137.306 121.108 136.786 121.054C136.407 121.035 136.031 121.12 135.697 121.298C135.362 121.477 135.083 121.743 134.887 122.067C134.644 122.519 134.519 123.025 134.526 123.538C134.508 124.018 134.484 124.522 134.464 125.087L134.412 126.774C134.4 127.44 134.528 128.102 134.788 128.715C134.951 129.066 135.19 129.375 135.489 129.62C135.787 129.865 136.137 130.04 136.513 130.131C137.119 130.274 137.745 130.306 138.363 130.225C139.452 130.144 140.38 129.974 141.187 129.845C141.586 129.794 141.973 129.679 142.334 129.505C142.632 129.365 142.883 129.142 143.058 128.864C143.339 128.395 143.208 128.081 143.139 128.086C143.07 128.091 142.995 128.328 142.705 128.581C142.246 128.913 141.682 129.068 141.118 129.016C140.351 129.073 139.343 129.094 138.306 129.148C137.269 129.202 136.218 129.072 135.87 128.225C135.521 127.379 135.642 126.096 135.587 125.05L135.542 123.509C135.497 123.163 135.523 122.812 135.619 122.476C135.736 122.239 135.905 122.032 136.113 121.869C136.321 121.707 136.564 121.593 136.822 121.537C137.207 121.424 137.464 121.466 137.489 121.38Z" fill="#879CAE"/>
<path d="M141.231 107.427C141.236 107.496 141.502 107.546 141.906 107.377C142.456 107.064 142.863 106.549 143.041 105.941C143.261 105.107 143.322 104.237 143.22 103.38C143.186 102.927 143.151 102.451 143.114 101.959C143.111 101.406 143.049 100.854 142.93 100.313C142.821 99.9603 142.613 99.6462 142.331 99.408C142.079 99.2014 141.79 99.0448 141.479 98.9464C140.973 98.7997 140.448 98.7295 139.921 98.738C139.105 98.7223 138.289 98.7572 137.477 98.8426C136.086 99.0079 135.257 99.2703 135.277 99.431C135.296 99.5917 136.155 99.6205 137.508 99.6742C138.181 99.7013 138.986 99.7418 139.87 99.815C140.755 99.8882 141.679 100.074 141.815 100.666C141.903 101.124 141.961 101.586 141.988 102.051L142.162 103.459C142.298 104.2 142.329 104.957 142.252 105.707C142.173 106.173 141.965 106.609 141.652 106.963C141.402 107.237 141.209 107.344 141.231 107.427Z" fill="#879CAE"/>
<path d="M137.072 99.4058C137.067 99.3444 136.889 99.126 136.369 99.0798C135.99 99.0575 135.612 99.1396 135.276 99.317C134.939 99.4944 134.658 99.7605 134.462 100.086C134.224 100.539 134.103 101.045 134.109 101.557L134.039 103.106L133.995 104.792C133.965 105.478 134.084 106.162 134.345 106.797C134.506 107.147 134.745 107.456 135.042 107.701C135.339 107.946 135.688 108.121 136.062 108.214C136.668 108.353 137.294 108.385 137.912 108.307C139.008 108.226 139.928 108.049 140.744 107.919C141.139 107.871 141.524 107.759 141.883 107.587C142.179 107.445 142.43 107.224 142.607 106.947C142.88 106.471 142.749 106.164 142.68 106.169C142.611 106.174 142.536 106.411 142.247 106.665C141.792 107 141.23 107.158 140.668 107.106C139.898 107.125 138.884 107.177 137.847 107.231C136.81 107.285 135.759 107.155 135.412 106.316C135.064 105.477 135.184 104.187 135.128 103.133L135.091 101.592C135.049 101.222 135.087 100.848 135.202 100.495C135.319 100.258 135.488 100.05 135.696 99.8875C135.904 99.7249 136.146 99.6116 136.405 99.5559C136.789 99.4423 137.039 99.4855 137.072 99.4058Z" fill="#879CAE"/>
<path d="M129.902 118.809C129.907 118.886 130.166 118.936 130.569 118.76C131.114 118.459 131.522 117.958 131.706 117.363C131.926 116.53 131.988 115.664 131.887 114.809L131.781 113.388C131.772 112.837 131.705 112.288 131.582 111.751C131.471 111.399 131.263 111.085 130.983 110.846C130.73 110.639 130.441 110.483 130.131 110.384C129.624 110.241 129.1 110.171 128.573 110.176C127.757 110.16 126.94 110.195 126.129 110.28C124.737 110.446 123.909 110.708 123.928 110.869C123.948 111.029 124.806 111.058 126.16 111.112C126.833 111.139 127.638 111.18 128.484 111.256C129.33 111.332 130.343 111.472 130.463 112.05C130.551 112.508 130.608 112.97 130.635 113.435L130.795 114.852C130.931 115.593 130.962 116.35 130.885 117.099C130.809 117.567 130.6 118.003 130.284 118.356C130.065 118.62 129.872 118.727 129.902 118.809Z" fill="#879CAE"/>
<path d="M125.743 110.788C125.738 110.727 125.56 110.508 125.04 110.462C124.661 110.44 124.282 110.522 123.946 110.699C123.61 110.877 123.329 111.143 123.133 111.469C122.894 111.924 122.773 112.432 122.78 112.946L122.708 114.457L122.663 116.144C122.633 116.83 122.753 117.514 123.013 118.148C123.175 118.498 123.413 118.807 123.711 119.052C124.008 119.298 124.356 119.473 124.73 119.565C125.337 119.703 125.963 119.735 126.58 119.659C127.677 119.577 128.597 119.401 129.412 119.271C129.808 119.223 130.192 119.111 130.552 118.939C130.848 118.797 131.099 118.575 131.275 118.298C131.548 117.822 131.425 117.515 131.356 117.52C131.287 117.525 131.212 117.762 130.915 118.016C130.461 118.352 129.899 118.509 129.336 118.458C128.569 118.515 127.552 118.529 126.516 118.59C125.48 118.652 124.428 118.506 124.08 117.668C123.732 116.829 123.852 115.538 123.797 114.484C123.757 113.955 123.773 113.444 123.759 112.943C123.716 112.571 123.754 112.194 123.87 111.838C123.987 111.605 124.155 111.401 124.36 111.24C124.565 111.08 124.803 110.966 125.058 110.908C125.452 110.825 125.702 110.86 125.743 110.788Z" fill="#879CAE"/>
<path d="M130.081 130.03C130.086 130.099 130.353 130.157 130.756 129.98C131.304 129.675 131.712 129.168 131.892 128.567C132.112 127.735 132.173 126.869 132.072 126.014L131.967 124.593C131.957 124.042 131.891 123.493 131.768 122.956C131.672 122.601 131.477 122.28 131.205 122.032C130.953 121.826 130.664 121.669 130.354 121.571C129.847 121.428 129.322 121.358 128.796 121.362C127.98 121.347 127.163 121.382 126.352 121.467C124.96 121.632 124.132 121.895 124.151 122.055C124.171 122.216 125.029 122.245 126.375 122.299C127.055 122.326 127.86 122.366 128.745 122.439C129.63 122.513 130.553 122.699 130.69 123.291C130.778 123.748 130.835 124.211 130.862 124.675L131.022 126.092C131.158 126.833 131.189 127.59 131.112 128.34C131.033 128.807 130.825 129.242 130.511 129.597C130.243 129.825 130.059 129.947 130.081 130.03Z" fill="#879CAE"/>
<path d="M125.922 122.008C125.917 121.947 125.739 121.729 125.219 121.682C124.839 121.66 124.461 121.742 124.125 121.92C123.789 122.097 123.508 122.363 123.312 122.689C123.07 123.151 122.949 123.668 122.961 124.19L122.891 125.739L122.847 127.426C122.817 128.111 122.936 128.795 123.197 129.43C123.358 129.78 123.597 130.089 123.894 130.334C124.191 130.579 124.54 130.755 124.914 130.847C125.52 130.986 126.146 131.018 126.764 130.941C127.86 130.859 128.78 130.683 129.596 130.552C129.991 130.505 130.376 130.392 130.735 130.221C131.031 130.079 131.282 129.857 131.459 129.58C131.732 129.104 131.601 128.797 131.532 128.802C131.463 128.808 131.388 129.045 131.098 129.298C130.644 129.634 130.082 129.791 129.52 129.74C128.753 129.797 127.736 129.811 126.699 129.872C125.663 129.934 124.611 129.788 124.263 128.949C123.916 128.111 124.036 126.82 123.98 125.766L123.943 124.225C123.9 123.853 123.938 123.476 124.053 123.12C124.17 122.883 124.339 122.676 124.547 122.513C124.756 122.35 124.998 122.237 125.256 122.181C125.639 122.045 125.889 122.088 125.922 122.008Z" fill="#879CAE"/>
<path d="M129.664 108.049C129.67 108.125 129.928 108.176 130.331 107.999C130.88 107.689 131.287 107.177 131.466 106.571C131.686 105.741 131.748 104.878 131.647 104.025L131.541 102.605C131.525 102.051 131.456 101.5 131.334 100.96C131.226 100.607 131.018 100.292 130.735 100.055C130.486 99.8452 130.196 99.6905 129.884 99.6008C129.378 99.4521 128.853 99.3793 128.325 99.3848C127.507 99.3676 126.688 99.4053 125.874 99.4977C124.482 99.6553 123.654 99.9254 123.673 100.078C123.692 100.231 124.551 100.268 125.904 100.322C126.578 100.356 127.382 100.389 128.267 100.47C129.152 100.551 130.075 100.722 130.212 101.314C130.299 101.771 130.357 102.234 130.384 102.698L130.543 104.115C130.68 104.856 130.71 105.613 130.634 106.363C130.557 106.831 130.349 107.267 130.033 107.62C129.827 107.859 129.642 107.965 129.664 108.049Z" fill="#879CAE"/>
<path d="M125.5 100.066C125.533 100.002 125.317 99.786 124.797 99.7398C124.418 99.7184 124.04 99.8008 123.704 99.9781C123.368 100.155 123.086 100.421 122.89 100.746C122.653 101.203 122.532 101.71 122.537 102.224C122.518 102.697 122.495 103.208 122.467 103.774L122.423 105.46C122.393 106.143 122.512 106.825 122.772 107.457C122.936 107.806 123.174 108.114 123.471 108.359C123.768 108.604 124.116 108.78 124.489 108.874C125.098 109.012 125.727 109.044 126.347 108.967C127.436 108.886 128.356 108.709 129.172 108.587C129.57 108.517 129.956 108.387 130.315 108.201C130.611 108.058 130.861 107.836 131.039 107.56C131.312 107.084 131.189 106.777 131.12 106.782C131.051 106.787 130.976 107.032 130.679 107.286C130.223 107.619 129.661 107.773 129.1 107.72C128.33 107.738 127.324 107.79 126.287 107.852C125.251 107.913 124.191 107.768 123.843 106.93C123.496 106.091 123.616 104.8 123.56 103.746L123.523 102.205C123.48 101.836 123.518 101.461 123.634 101.108C123.75 100.87 123.919 100.661 124.127 100.497C124.335 100.333 124.577 100.219 124.836 100.162C125.216 100.087 125.465 100.115 125.5 100.066Z" fill="#879CAE"/>
<path d="M118.618 119.417C118.624 119.486 118.882 119.537 119.286 119.368C119.836 119.062 120.244 118.552 120.422 117.947C120.642 117.118 120.703 116.254 120.602 115.402L120.497 113.981C120.48 113.427 120.411 112.877 120.289 112.336C120.178 111.984 119.97 111.671 119.69 111.431C119.44 111.224 119.15 111.07 118.839 110.977C118.333 110.829 117.808 110.756 117.28 110.761C116.464 110.744 115.648 110.781 114.837 110.874C113.445 111.031 112.617 111.301 112.636 111.454C112.655 111.607 113.514 111.644 114.867 111.697C115.541 111.732 116.345 111.765 117.192 111.849C118.038 111.932 118.999 112.1 119.137 112.7C119.224 113.155 119.282 113.615 119.308 114.077L119.468 115.494C119.604 116.235 119.635 116.992 119.558 117.742C119.484 118.21 119.275 118.647 118.957 118.998C118.781 119.22 118.597 119.334 118.618 119.417Z" fill="#879CAE"/>
<path d="M114.451 111.389C114.446 111.327 114.268 111.109 113.748 111.063C113.369 111.043 112.992 111.126 112.656 111.303C112.321 111.48 112.039 111.745 111.841 112.069C111.605 112.525 111.484 113.033 111.489 113.547L111.419 115.096L111.375 116.783C111.336 117.454 111.441 118.125 111.683 118.752C111.845 119.102 112.083 119.411 112.38 119.656C112.678 119.901 113.026 120.076 113.4 120.168C114.007 120.307 114.633 120.338 115.25 120.262C116.347 120.181 117.267 120.004 118.083 119.882C118.48 119.827 118.866 119.712 119.229 119.542C119.525 119.399 119.776 119.177 119.953 118.901C120.226 118.425 120.103 118.118 120.034 118.123C119.965 118.128 119.89 118.365 119.593 118.619C119.137 118.952 118.575 119.107 118.013 119.053C117.246 119.11 116.23 119.124 115.201 119.185C114.172 119.246 113.105 119.102 112.757 118.263C112.409 117.424 112.529 116.133 112.475 115.087L112.437 113.546C112.394 113.176 112.432 112.802 112.548 112.449C112.664 112.211 112.833 112.002 113.041 111.838C113.249 111.674 113.492 111.56 113.75 111.503C114.168 111.425 114.419 111.476 114.451 111.389Z" fill="#879CAE"/>
<path d="M118.809 130.676C118.814 130.745 119.072 130.795 119.476 130.626C120.023 130.316 120.429 129.808 120.612 129.206C120.825 128.355 120.872 127.47 120.75 126.601L120.644 125.181C120.635 124.627 120.568 124.076 120.445 123.536C120.334 123.184 120.126 122.87 119.845 122.631C119.612 122.425 119.341 122.267 119.047 122.165C118.541 122.016 118.016 121.943 117.489 121.949C116.662 121.934 115.836 121.974 115.015 122.071C113.623 122.229 112.795 122.499 112.814 122.652C112.833 122.805 113.692 122.841 115.045 122.895C115.719 122.93 116.523 122.963 117.37 123.046C118.217 123.13 119.178 123.298 119.314 123.89C119.402 124.347 119.46 124.81 119.487 125.275L119.646 126.691C119.783 127.433 119.813 128.189 119.736 128.939C119.662 129.408 119.454 129.844 119.136 130.196C118.969 130.44 118.776 130.547 118.809 130.676Z" fill="#879CAE"/>
<path d="M114.638 122.609C114.634 122.548 114.455 122.329 113.935 122.283C113.555 122.261 113.176 122.343 112.838 122.521C112.501 122.698 112.218 122.964 112.021 123.29C111.784 123.746 111.663 124.254 111.668 124.768L111.598 126.317L111.554 128.004C111.524 128.687 111.643 129.368 111.903 130.001C112.065 130.351 112.303 130.66 112.6 130.905C112.898 131.15 113.246 131.325 113.62 131.417C114.227 131.555 114.853 131.587 115.47 131.511C116.567 131.43 117.487 131.253 118.303 131.131C118.698 131.077 119.082 130.962 119.442 130.791C119.738 130.649 119.988 130.427 120.165 130.15C120.438 129.675 120.315 129.367 120.246 129.372C120.177 129.377 120.103 129.622 119.806 129.876C119.35 130.209 118.788 130.364 118.226 130.31C117.459 130.367 116.442 130.381 115.406 130.443C114.37 130.504 113.314 130.313 112.967 129.474C112.619 128.635 112.739 127.344 112.684 126.298L112.646 124.757C112.604 124.388 112.642 124.013 112.758 123.66C112.874 123.422 113.042 123.213 113.251 123.049C113.459 122.885 113.701 122.771 113.96 122.714C114.355 122.645 114.606 122.696 114.638 122.609Z" fill="#879CAE"/>
<path d="M118.381 108.656C118.386 108.726 118.644 108.776 119.048 108.607C119.598 108.301 120.006 107.791 120.184 107.187C120.409 106.358 120.47 105.493 120.365 104.641L120.259 103.22C120.242 102.667 120.175 102.116 120.059 101.575C119.947 101.226 119.74 100.915 119.461 100.678C119.211 100.467 118.921 100.31 118.609 100.216C118.103 100.067 117.578 99.9968 117.051 100.007C116.232 99.9919 115.413 100.027 114.599 100.113C113.215 100.27 112.387 100.54 112.406 100.693C112.425 100.846 113.277 100.891 114.63 100.944C115.303 100.971 116.108 101.012 116.954 101.088C117.8 101.164 118.762 101.339 118.899 101.939C118.99 102.396 119.05 102.858 119.079 103.323L119.23 104.733C119.367 105.474 119.397 106.231 119.32 106.981C119.248 107.45 119.039 107.887 118.72 108.237C118.552 108.466 118.359 108.573 118.381 108.656Z" fill="#567A98"/>
<path d="M114.191 100.63C114.187 100.576 114.009 100.357 113.488 100.304C113.109 100.286 112.731 100.37 112.396 100.549C112.06 100.727 111.779 100.993 111.582 101.318C111.344 101.771 111.222 102.276 111.228 102.788L111.166 104.337L111.114 106.024C111.085 106.709 111.204 107.393 111.464 108.028C111.627 108.379 111.866 108.688 112.165 108.934C112.464 109.179 112.814 109.353 113.189 109.444C113.795 109.588 114.422 109.62 115.039 109.538C116.125 109.419 117.056 109.288 117.864 109.158C118.262 109.107 118.649 108.992 119.011 108.818C119.306 108.676 119.557 108.454 119.734 108.178C120.008 107.709 119.884 107.394 119.815 107.399C119.746 107.405 119.671 107.642 119.381 107.895C118.922 108.227 118.358 108.381 117.794 108.33C117.027 108.387 116.019 108.408 114.982 108.462C113.945 108.516 112.894 108.385 112.538 107.539C112.182 106.693 112.31 105.41 112.256 104.364L112.218 102.822C112.173 102.452 112.214 102.077 112.337 101.725C112.451 101.487 112.618 101.279 112.825 101.117C113.033 100.954 113.274 100.841 113.532 100.787C113.932 100.672 114.197 100.714 114.191 100.63Z" fill="#567A98"/>
<path d="M107.366 120.015C107.371 120.084 107.63 120.134 108.033 119.965C108.582 119.661 108.989 119.154 109.17 118.553C109.394 117.721 109.455 116.854 109.35 115.999L109.244 114.579C109.227 114.025 109.16 113.475 109.045 112.933C108.932 112.584 108.725 112.273 108.446 112.036C108.194 111.828 107.905 111.672 107.594 111.574C107.089 111.425 106.563 111.354 106.036 111.366C105.218 111.35 104.399 111.385 103.584 111.471C102.2 111.628 101.372 111.898 101.392 112.059C101.411 112.22 102.262 112.249 103.615 112.303C104.288 112.33 105.093 112.37 105.939 112.446C106.786 112.522 107.747 112.698 107.892 113.297C107.976 113.755 108.034 114.217 108.064 114.682L108.216 116.099C108.353 116.84 108.383 117.597 108.306 118.347C108.232 118.813 108.023 119.247 107.705 119.596C107.537 119.825 107.346 119.947 107.366 120.015Z" fill="#879CAE"/>
<path d="M103.199 111.994C103.195 111.933 103.017 111.714 102.496 111.66C102.116 111.642 101.739 111.727 101.404 111.906C101.068 112.084 100.787 112.35 100.59 112.675C100.352 113.128 100.23 113.633 100.236 114.145C100.218 114.625 100.194 115.129 100.174 115.694C100.154 116.259 100.141 116.8 100.122 117.381C100.092 118.066 100.211 118.75 100.472 119.385C100.635 119.736 100.874 120.045 101.173 120.291C101.471 120.536 101.821 120.71 102.197 120.801C102.803 120.943 103.429 120.978 104.047 120.903C105.133 120.776 106.064 120.645 106.872 120.515C107.268 120.463 107.655 120.351 108.019 120.183C108.313 120.038 108.563 119.816 108.742 119.542C109.015 119.066 108.892 118.759 108.823 118.764C108.754 118.769 108.679 119.006 108.39 119.26C107.931 119.592 107.367 119.746 106.803 119.694C106.036 119.751 105.027 119.772 103.99 119.826C102.953 119.88 101.902 119.75 101.547 118.904C101.191 118.058 101.319 116.782 101.264 115.728C101.225 115.199 101.241 114.688 101.226 114.187C101.182 113.817 101.222 113.441 101.345 113.09C101.461 112.853 101.629 112.646 101.835 112.483C102.042 112.321 102.283 112.207 102.54 112.151C102.917 112.031 103.167 112.074 103.199 111.994Z" fill="#879CAE"/>
<path d="M107.554 131.235C107.559 131.304 107.817 131.354 108.221 131.185C108.769 130.881 109.177 130.374 109.357 129.773C109.577 128.941 109.638 128.074 109.537 127.219L109.432 125.799C109.416 125.245 109.346 124.694 109.225 124.154C109.118 123.804 108.913 123.492 108.633 123.256C108.382 123.044 108.089 122.887 107.774 122.795C107.269 122.645 106.743 122.574 106.216 122.587C105.397 122.571 104.579 122.606 103.764 122.692C102.372 122.849 101.544 123.12 101.563 123.273C101.582 123.426 102.442 123.47 103.795 123.523C104.468 123.551 105.273 123.591 106.158 123.664C107.042 123.737 107.965 123.916 108.102 124.516C108.193 124.972 108.254 125.435 108.283 125.9L108.463 127.291C108.6 128.03 108.63 128.784 108.553 129.532C108.481 130.001 108.272 130.438 107.952 130.789C107.725 131.045 107.532 131.152 107.554 131.235Z" fill="#879CAE"/>
<path d="M103.387 123.214C103.382 123.153 103.204 122.935 102.683 122.881C102.304 122.863 101.927 122.947 101.591 123.126C101.256 123.304 100.974 123.57 100.777 123.895C100.539 124.348 100.418 124.853 100.424 125.365L100.362 126.914C100.34 127.456 100.328 128.021 100.31 128.601C100.28 129.287 100.399 129.971 100.659 130.606C100.822 130.956 101.062 131.266 101.36 131.511C101.659 131.756 102.009 131.93 102.384 132.022C102.99 132.163 103.617 132.198 104.235 132.123C105.32 131.996 106.251 131.865 107.059 131.735C107.457 131.684 107.844 131.569 108.206 131.395C108.503 131.255 108.754 131.033 108.929 130.755C109.203 130.287 109.079 129.971 109.01 129.977C108.941 129.982 108.866 130.219 108.577 130.472C108.118 130.804 107.554 130.959 106.99 130.907C106.223 130.964 105.214 130.985 104.177 131.039C103.14 131.093 102.089 130.962 101.733 130.116C101.377 129.27 101.506 127.995 101.451 126.941C101.412 126.411 101.427 125.9 101.413 125.4C101.371 125.03 101.408 124.656 101.525 124.303C101.643 124.071 101.811 123.868 102.016 123.709C102.221 123.549 102.459 123.437 102.713 123.38C103.104 123.251 103.357 123.332 103.387 123.214Z" fill="#879CAE"/>
<path d="M107.121 109.255C107.126 109.324 107.392 109.374 107.788 109.205C108.336 108.9 108.744 108.394 108.925 107.793C109.158 106.954 109.229 106.079 109.134 105.214C109.1 104.761 109.065 104.292 109.028 103.793C109.015 103.242 108.949 102.694 108.829 102.156C108.72 101.803 108.512 101.489 108.23 101.25C107.977 101.046 107.688 100.889 107.378 100.789C106.872 100.643 106.347 100.573 105.82 100.58C105.002 100.565 104.183 100.6 103.368 100.686C101.985 100.85 101.156 101.113 101.176 101.273C101.195 101.434 102.046 101.463 103.399 101.517C104.08 101.544 104.877 101.585 105.723 101.661C106.57 101.737 107.532 101.92 107.676 102.512C107.764 102.969 107.821 103.431 107.848 103.896L108 105.313C108.148 106.044 108.194 106.792 108.134 107.535C108.056 108.004 107.845 108.44 107.526 108.792C107.3 109.064 107.114 109.155 107.121 109.255Z" fill="#879CAE"/>
<path d="M102.962 101.233C102.995 101.169 102.779 100.953 102.259 100.907C101.879 100.888 101.501 100.974 101.166 101.155C100.831 101.337 100.553 101.607 100.361 101.936C100.118 102.39 99.9936 102.899 100.001 103.415C99.982 103.887 99.9578 104.391 99.9359 104.925C99.914 105.459 99.9026 106.032 99.8841 106.612C99.8539 107.298 99.9732 107.982 100.234 108.617C100.398 108.966 100.638 109.274 100.937 109.519C101.235 109.764 101.584 109.94 101.958 110.033C102.565 110.172 103.191 110.204 103.808 110.127C104.897 110.046 105.825 109.869 106.633 109.739C107.031 109.691 107.418 109.579 107.78 109.407C108.076 109.264 108.326 109.042 108.504 108.766C108.784 108.289 108.654 107.983 108.585 107.988C108.515 107.993 108.441 108.23 108.151 108.483C107.695 108.821 107.13 108.979 106.565 108.926C105.795 108.944 104.788 108.996 103.751 109.05C102.714 109.104 101.664 108.974 101.308 108.135C100.953 107.297 101.088 106.005 101.071 104.949L101.026 103.408C100.986 103.038 101.026 102.663 101.145 102.31C101.262 102.073 101.431 101.866 101.639 101.703C101.847 101.541 102.089 101.427 102.347 101.372C102.671 101.27 102.937 101.312 102.962 101.233Z" fill="#879CAE"/>
<path d="M96.3364 120.596C96.3421 120.673 96.6003 120.723 97.0036 120.547C97.2798 120.391 97.5223 120.182 97.7168 119.932C97.9114 119.681 98.0541 119.394 98.1366 119.088C98.3565 118.256 98.4176 117.389 98.3167 116.534L98.2116 115.122C98.1954 114.568 98.126 114.017 98.0044 113.477C97.8963 113.124 97.6881 112.809 97.405 112.572C97.1479 112.371 96.8539 112.222 96.5396 112.134C96.0328 111.992 95.5083 111.921 94.9819 111.926C94.1631 111.909 93.3441 111.946 92.5304 112.039C91.1386 112.196 90.3099 112.459 90.3296 112.62C90.3492 112.78 91.2073 112.809 92.5608 112.863C93.2337 112.89 94.0387 112.93 94.8849 113.006C95.7311 113.082 96.6932 113.266 96.8298 113.858C96.9177 114.315 96.9753 114.778 97.0022 115.242C97.0388 115.734 97.0742 116.21 97.1616 116.659C97.2982 117.4 97.3285 118.157 97.2517 118.907C97.1757 119.375 96.9673 119.811 96.6512 120.164C96.4996 120.407 96.3148 120.513 96.3364 120.596Z" fill="#879CAE"/>
<path d="M92.1696 112.583C92.165 112.521 91.9868 112.303 91.4667 112.257C91.0875 112.235 90.7097 112.318 90.3737 112.495C90.0378 112.673 89.7564 112.938 89.5598 113.264C89.3232 113.72 89.2021 114.227 89.2071 114.741L89.1373 116.291C89.123 116.825 89.1111 117.389 89.0931 117.977C89.0577 118.646 89.1653 119.314 89.4087 119.938C89.5719 120.287 89.8107 120.595 90.1077 120.84C90.4047 121.085 90.7525 121.261 91.1257 121.354C91.7349 121.493 92.3635 121.525 92.9834 121.448C94.0724 121.367 94.9923 121.19 95.8077 121.06C96.2163 121.011 96.6141 120.896 96.9852 120.718C97.2809 120.575 97.5313 120.354 97.7087 120.077C97.9817 119.601 97.8586 119.294 97.7896 119.299C97.7206 119.304 97.6463 119.549 97.3484 119.795C96.8939 120.131 96.3322 120.288 95.7696 120.237C95.0027 120.294 93.9935 120.307 92.9571 120.369C91.9206 120.431 90.8611 120.286 90.5134 119.447C90.1656 118.608 90.2855 117.317 90.2303 116.263C90.1909 115.734 90.2068 115.223 90.1927 114.722C90.1498 114.35 90.1875 113.973 90.3033 113.617C90.4211 113.381 90.5902 113.174 90.7983 113.012C91.0064 112.849 91.2481 112.735 91.5058 112.679C91.8858 112.604 92.1364 112.655 92.1696 112.583Z" fill="#879CAE"/>
<path d="M96.5231 131.817C96.5288 131.894 96.787 131.944 97.1902 131.767C97.74 131.464 98.1483 130.957 98.3267 130.355C98.5384 129.514 98.5885 128.64 98.4744 127.78C98.4407 127.327 98.4059 126.859 98.3687 126.36C98.3808 125.809 98.3398 125.259 98.2465 124.716C98.1353 124.364 97.9276 124.051 97.6471 123.811C97.3949 123.605 97.1059 123.448 96.7953 123.35C96.2885 123.207 95.764 123.137 95.2376 123.141C94.4214 123.126 93.605 123.16 92.7931 123.246C91.402 123.411 90.5733 123.674 90.5929 123.834C90.6126 123.995 91.4707 124.024 92.8242 124.077C93.4971 124.105 94.3021 124.145 95.1866 124.218C96.0711 124.291 96.9949 124.478 97.1315 125.07C97.2194 125.527 97.277 125.989 97.3039 126.454L97.4633 127.871C97.5999 128.612 97.6302 129.369 97.5534 130.119C97.4774 130.586 97.269 131.023 96.9529 131.376C96.6863 131.627 96.5014 131.733 96.5231 131.817Z" fill="#879CAE"/>
<path d="M92.356 123.796C92.3514 123.734 92.1732 123.516 91.6531 123.47C91.2739 123.448 90.8961 123.531 90.5601 123.708C90.2242 123.885 89.9428 124.151 89.7462 124.476C89.5072 124.932 89.3859 125.44 89.3935 125.954C89.3746 126.427 89.351 126.938 89.3237 127.504L89.2801 129.198C89.2501 129.881 89.3692 130.562 89.6291 131.195C89.791 131.544 90.0294 131.853 90.3266 132.099C90.6238 132.344 90.9723 132.519 91.3462 132.611C91.9528 132.749 92.5788 132.781 93.1962 132.705C94.2928 132.623 95.2128 132.447 96.0282 132.317C96.4236 132.269 96.8086 132.157 97.1679 131.985C97.464 131.843 97.7146 131.621 97.8914 131.344C98.1645 130.868 98.0413 130.561 97.9723 130.566C97.9033 130.571 97.8284 130.809 97.5311 131.062C97.0766 131.398 96.5149 131.555 95.9523 131.504C95.1854 131.561 94.1686 131.575 93.1398 131.636C92.111 131.697 91.0438 131.553 90.6961 130.714C90.3483 129.875 90.4682 128.584 90.413 127.531C90.3736 127.001 90.3895 126.49 90.3754 125.989C90.3325 125.617 90.3702 125.24 90.486 124.885C90.6038 124.648 90.7729 124.441 90.981 124.279C91.1891 124.116 91.4308 124.002 91.6885 123.946C92.0734 123.832 92.3233 123.875 92.356 123.796Z" fill="#879CAE"/>
<path d="M96.099 109.835C96.1047 109.912 96.3629 109.962 96.7662 109.786C97.3141 109.477 97.7212 108.968 97.9021 108.365C98.1261 107.536 98.1874 106.672 98.0828 105.819L97.9771 104.399C97.9599 103.846 97.8932 103.295 97.7776 102.754C97.6634 102.403 97.4562 102.09 97.1782 101.849C96.9267 101.643 96.6375 101.489 96.327 101.395C95.8209 101.247 95.2958 101.174 94.7686 101.179C93.9499 101.161 93.1309 101.199 92.3171 101.292C90.9331 101.449 90.1049 101.719 90.124 101.872C90.1431 102.025 90.9941 102.062 92.3476 102.115C93.0211 102.15 93.8255 102.183 94.6722 102.267C95.519 102.35 96.48 102.518 96.6242 103.11C96.7302 103.573 96.8088 104.041 96.8597 104.513L97.0114 105.93C97.148 106.671 97.1783 107.428 97.1016 108.178C97.0276 108.646 96.819 109.083 96.5011 109.435C96.2699 109.645 96.0774 109.752 96.099 109.835Z" fill="#879CAE"/>
<path d="M91.9139 101.792C91.9094 101.731 91.7312 101.513 91.2111 101.466C90.8321 101.447 90.4549 101.53 90.1193 101.707C89.7836 101.884 89.502 102.149 89.3042 102.473C89.0676 102.929 88.9465 103.437 88.9514 103.951C88.9326 104.423 88.909 104.935 88.8893 105.5C88.8697 106.065 88.8554 106.599 88.8375 107.187C88.8075 107.87 88.9266 108.551 89.1865 109.184C89.3511 109.533 89.5913 109.841 89.8896 110.086C90.1879 110.331 90.5369 110.506 90.9113 110.6C91.5177 110.739 92.1439 110.771 92.7613 110.694C93.8474 110.574 94.7779 110.435 95.5862 110.314C95.99 110.245 96.3808 110.114 96.7449 109.926C97.0405 109.784 97.291 109.562 97.4684 109.286C97.7414 108.81 97.6183 108.502 97.5493 108.507C97.4803 108.513 97.406 108.757 97.1163 109.011C96.6571 109.343 96.0934 109.497 95.5293 109.445C94.7624 109.502 93.7532 109.516 92.7168 109.577C91.6803 109.639 90.6285 109.493 90.2731 108.655C89.9177 107.817 90.0452 106.526 89.9905 105.48C89.9505 104.942 89.9665 104.431 89.953 103.938C89.9081 103.568 89.9487 103.192 90.0718 102.841C90.1856 102.602 90.3524 102.393 90.5594 102.229C90.7664 102.065 91.0081 101.951 91.2661 101.895C91.6484 101.851 91.9219 101.9 91.9139 101.792Z" fill="#879CAE"/>
<path d="M85.1604 121.196C85.1655 121.265 85.4314 121.315 85.8276 121.146C86.3779 120.839 86.7878 120.329 86.9711 119.725C87.1912 118.896 87.2525 118.032 87.1518 117.18C87.1181 116.726 87.0827 116.25 87.0461 115.759C87.033 115.205 86.9662 114.654 86.8466 114.114C86.7373 113.763 86.5294 113.452 86.2478 113.216C85.9997 113.004 85.7094 112.847 85.396 112.755C84.8899 112.607 84.3649 112.534 83.8377 112.539C83.0189 112.521 82.1999 112.559 81.3862 112.652C80.0021 112.809 79.174 113.079 79.1931 113.232C79.2122 113.385 80.0632 113.422 81.4172 113.483C82.0978 113.51 82.8951 113.551 83.7873 113.623C84.6795 113.696 85.5874 113.875 85.7322 114.475C85.8201 114.929 85.8775 115.389 85.9041 115.852L86.0558 117.269C86.1945 118.009 86.2274 118.766 86.1536 119.516C86.0763 119.984 85.868 120.419 85.553 120.773C85.3313 121.006 85.1388 121.113 85.1604 121.196Z" fill="#879CAE"/>
<path d="M80.9929 113.168C81.0273 113.111 80.8102 112.888 80.2901 112.842C79.9123 112.822 79.5364 112.906 79.2021 113.083C78.8678 113.26 78.5875 113.524 78.3908 113.848C78.1518 114.303 78.0306 114.811 78.0381 115.325L77.9683 116.875C77.954 117.409 77.9344 117.974 77.9241 118.561C77.8873 119.244 78.004 119.927 78.2655 120.559C78.4278 120.91 78.6672 121.219 78.9659 121.465C79.2646 121.71 79.6148 121.884 79.9903 121.975C80.5967 122.114 81.2229 122.146 81.8403 122.069C82.9369 121.987 83.8574 121.818 84.6652 121.689C85.0625 121.634 85.4492 121.52 85.812 121.349C86.109 121.208 86.3599 120.986 86.5355 120.708C86.8162 120.232 86.6854 119.925 86.6164 119.93C86.5473 119.935 86.4725 120.172 86.1828 120.425C85.7272 120.759 85.1653 120.913 84.6035 120.859C83.8366 120.916 82.8203 120.938 81.7833 120.992C80.7463 121.046 79.695 120.908 79.3472 120.069C78.9995 119.23 79.1194 117.94 79.0647 116.894C79.0247 116.356 79.0336 115.854 79.0195 115.353C78.9785 114.983 79.0191 114.608 79.1383 114.255C79.2552 114.018 79.4238 113.809 79.6318 113.645C79.8398 113.481 80.0819 113.366 80.3403 113.309C80.7103 113.204 80.9685 113.254 80.9929 113.168Z" fill="#879CAE"/>
<path d="M85.3454 132.393C85.3505 132.462 85.6164 132.512 86.0126 132.344C86.5595 132.036 86.9645 131.527 87.1407 130.924C87.3655 130.098 87.4322 129.236 87.3374 128.385C87.3037 127.932 87.2683 127.455 87.2317 126.964C87.2185 126.411 87.1517 125.86 87.0322 125.319C86.9209 124.967 86.7132 124.653 86.4328 124.414C86.1813 124.208 85.8921 124.054 85.5816 123.96C85.0755 123.812 84.5504 123.739 84.0232 123.744C83.2045 123.727 82.3855 123.764 81.5717 123.857C80.1877 124.014 79.3595 124.284 79.3786 124.437C79.3977 124.59 80.2487 124.627 81.6022 124.681C82.2833 124.715 83.0801 124.748 83.9268 124.832C84.7736 124.916 85.7346 125.083 85.8794 125.683C85.9673 126.137 86.0247 126.597 86.0513 127.06C86.0878 127.551 86.1232 128.027 86.203 128.477C86.3582 129.211 86.409 129.964 86.3539 130.712C86.2774 131.182 86.0661 131.619 85.7457 131.97C85.5174 132.218 85.3255 132.333 85.3454 132.393Z" fill="#879CAE"/>
<path d="M81.1805 124.388C81.1759 124.326 80.9977 124.108 80.4776 124.062C80.0997 124.042 79.7235 124.125 79.389 124.302C79.0546 124.479 78.7744 124.744 78.5784 125.068C78.3366 125.523 78.2127 126.031 78.218 126.546C78.1991 127.019 78.1755 127.53 78.1558 128.095C78.1362 128.66 78.1219 129.194 78.104 129.782C78.074 130.465 78.1932 131.147 78.4531 131.779C78.6176 132.128 78.8578 132.437 79.1561 132.682C79.4544 132.927 79.8034 133.102 80.1778 133.195C80.7843 133.334 81.4104 133.366 82.0278 133.289C83.1139 133.17 84.0444 133.031 84.8527 132.909C85.2499 132.854 85.6365 132.739 85.9995 132.569C86.2952 132.426 86.5456 132.205 86.723 131.928C87.0037 131.452 86.8729 131.145 86.8039 131.15C86.7349 131.155 86.66 131.392 86.3704 131.646C85.9112 131.978 85.3474 132.132 84.7833 132.08C84.0164 132.137 83.0073 132.151 81.9708 132.212C80.9344 132.274 79.8825 132.128 79.5271 131.29C79.1717 130.452 79.3069 129.16 79.2906 128.111C79.2506 127.574 79.2595 127.071 79.2453 126.57C79.2044 126.2 79.245 125.825 79.3642 125.473C79.4712 125.24 79.6281 125.033 79.8237 124.868C80.0193 124.703 80.2488 124.583 80.496 124.516C80.8979 124.424 81.1561 124.475 81.1805 124.388Z" fill="#879CAE"/>
<path d="M152.97 139.786C152.975 139.855 153.241 139.904 153.644 139.735C154.195 139.419 154.601 138.902 154.779 138.292C154.999 137.463 155.061 136.599 154.959 135.746L154.854 134.326C154.84 133.772 154.774 133.221 154.654 132.68C154.545 132.33 154.337 132.018 154.055 131.783C153.807 131.57 153.517 131.413 153.203 131.321C152.698 131.172 152.173 131.101 151.646 131.113C150.827 131.093 150.008 131.129 149.194 131.218C147.81 131.375 146.981 131.645 147.001 131.798C147.02 131.951 147.871 131.988 149.225 132.05C149.905 132.076 150.703 132.117 151.595 132.19C152.487 132.263 153.395 132.442 153.54 133.041C153.63 133.498 153.691 133.96 153.72 134.425L153.871 135.835C154.023 136.578 154.064 137.34 153.993 138.096C153.918 138.564 153.709 139 153.392 139.353C153.14 139.595 152.949 139.718 152.97 139.786Z" fill="#879CAE"/>
<path d="M148.809 131.756C148.805 131.702 148.619 131.477 148.106 131.43C147.727 131.412 147.35 131.497 147.014 131.675C146.679 131.854 146.397 132.119 146.2 132.444C145.959 132.896 145.837 133.402 145.847 133.915L145.777 135.464L145.733 137.15C145.7 137.836 145.817 138.52 146.075 139.156C146.237 139.506 146.477 139.816 146.776 140.061C147.074 140.306 147.424 140.48 147.799 140.572C148.406 140.711 149.032 140.743 149.649 140.666C150.746 140.584 151.667 140.415 152.482 140.285C152.877 140.234 153.262 140.119 153.621 139.945C153.918 139.805 154.169 139.583 154.345 139.305C154.626 138.836 154.494 138.521 154.425 138.527C154.356 138.532 154.282 138.769 153.992 139.022C153.536 139.355 152.974 139.51 152.413 139.456C151.646 139.513 150.629 139.535 149.592 139.589C148.555 139.643 147.505 139.512 147.156 138.666C146.808 137.819 146.929 136.536 146.874 135.49L146.829 133.95C146.788 133.579 146.828 133.205 146.947 132.852C147.059 132.612 147.223 132.4 147.429 132.234C147.634 132.067 147.875 131.95 148.133 131.891C148.519 131.793 148.777 131.843 148.809 131.756Z" fill="#879CAE"/>
<path d="M141.915 140.368C141.921 140.437 142.186 140.487 142.583 140.319C143.139 140.001 143.549 139.477 143.723 138.859C143.943 138.027 144.004 137.161 143.903 136.306C143.87 135.853 143.834 135.377 143.798 134.885C143.785 134.334 143.718 133.786 143.599 133.248C143.489 132.895 143.281 132.581 142.999 132.343C142.747 132.136 142.458 131.979 142.148 131.881C141.641 131.736 141.116 131.665 140.59 131.673C139.771 131.657 138.952 131.692 138.138 131.778C136.754 131.943 135.926 132.205 135.945 132.366C135.965 132.526 136.815 132.556 138.169 132.609C138.849 132.636 139.647 132.677 140.539 132.75C141.431 132.822 142.34 133.009 142.484 133.601C142.572 134.058 142.629 134.521 142.656 134.986L142.808 136.403C142.946 137.144 142.979 137.9 142.906 138.65C142.826 139.117 142.618 139.552 142.305 139.907C142.086 140.178 141.894 140.285 141.915 140.368Z" fill="#879CAE"/>
<path d="M137.749 132.355C137.783 132.291 137.567 132.075 137.046 132.029C136.662 131.999 136.278 132.077 135.935 132.254C135.593 132.431 135.307 132.7 135.108 133.03C134.869 133.483 134.745 133.988 134.747 134.501L134.685 136.05L134.685 137.702C134.655 138.388 134.774 139.072 135.034 139.707C135.199 140.056 135.439 140.364 135.737 140.609C136.036 140.854 136.385 141.03 136.759 141.123C137.366 141.262 137.992 141.294 138.609 141.217C139.698 141.136 140.626 140.958 141.433 140.829C141.826 140.777 142.208 140.663 142.565 140.49C142.862 140.349 143.113 140.127 143.288 139.849C143.569 139.373 143.438 139.066 143.369 139.071C143.3 139.076 143.225 139.313 142.936 139.567C142.479 139.898 141.919 140.055 141.357 140.008C140.587 140.019 139.573 140.079 138.536 140.133C137.499 140.187 136.449 140.057 136.101 139.218C135.753 138.379 135.873 137.089 135.818 136.035L135.772 134.494C135.74 134.128 135.786 133.758 135.908 133.411C136.025 133.174 136.193 132.966 136.402 132.804C136.61 132.641 136.852 132.528 137.11 132.472C137.466 132.376 137.724 132.426 137.749 132.355Z" fill="#879CAE"/>
<path d="M130.349 140.99C130.355 141.066 130.613 141.117 131.016 140.94C131.563 140.63 131.969 140.121 132.152 139.52C132.368 138.684 132.424 137.816 132.316 136.959C132.283 136.506 132.247 136.03 132.211 135.539C132.201 134.985 132.135 134.434 132.011 133.894C131.9 133.542 131.692 133.228 131.412 132.989C131.161 132.782 130.872 132.627 130.561 132.535C130.055 132.386 129.529 132.313 129.002 132.319C128.194 132.297 127.385 132.328 126.58 132.414C125.189 132.571 124.36 132.842 124.379 132.995C124.399 133.148 125.257 133.184 126.611 133.238C127.284 133.273 128.089 133.305 128.974 133.386C129.859 133.467 130.781 133.638 130.918 134.23C131.006 134.687 131.063 135.15 131.09 135.615L131.25 137.031C131.386 137.772 131.417 138.529 131.34 139.279C131.264 139.747 131.055 140.183 130.739 140.536C130.512 140.8 130.297 140.908 130.349 140.99Z" fill="#879CAE"/>
<path d="M126.182 132.969C126.177 132.907 125.999 132.689 125.479 132.643C125.103 132.623 124.728 132.706 124.394 132.884C124.061 133.061 123.782 133.325 123.588 133.648C123.351 134.104 123.23 134.612 123.235 135.126L123.165 136.675C123.151 137.209 123.139 137.774 123.121 138.362C123.085 139.047 123.199 139.731 123.455 140.368C123.617 140.718 123.855 141.026 124.153 141.272C124.45 141.517 124.798 141.692 125.172 141.784C125.779 141.922 126.405 141.954 127.022 141.878C128.119 141.797 129.039 141.62 129.855 141.498C130.25 141.443 130.634 141.329 130.994 141.158C131.29 141.016 131.541 140.794 131.717 140.517C131.991 140.041 131.867 139.734 131.798 139.739C131.729 139.744 131.655 139.989 131.358 140.243C130.902 140.576 130.34 140.731 129.778 140.677C129.012 140.734 127.995 140.748 126.958 140.81C125.922 140.871 124.87 140.726 124.522 139.887C124.174 139.048 124.294 137.757 124.239 136.704L124.202 135.162C124.159 134.793 124.197 134.418 124.313 134.065C124.428 133.826 124.596 133.617 124.805 133.453C125.013 133.289 125.256 133.175 125.515 133.119C125.899 133.005 126.15 133.056 126.182 132.969Z" fill="#879CAE"/>
<path d="M119.066 141.597C119.072 141.667 119.33 141.717 119.734 141.548C120.284 141.242 120.691 140.732 120.869 140.128C121.09 139.298 121.152 138.434 121.05 137.582L120.944 136.161C120.928 135.607 120.859 135.057 120.737 134.516C120.628 134.166 120.42 133.854 120.138 133.619C119.89 133.407 119.6 133.249 119.287 133.157C118.781 133.007 118.256 132.937 117.729 132.949C116.913 132.933 116.096 132.968 115.284 133.054C113.893 133.211 113.065 133.481 113.084 133.634C113.103 133.787 113.962 133.831 115.316 133.885C115.988 133.912 116.793 133.953 117.64 134.029C118.486 134.105 119.447 134.28 119.584 134.88C119.673 135.337 119.73 135.8 119.757 136.265L119.916 137.674C120.052 138.415 120.083 139.172 120.006 139.922C119.934 140.391 119.725 140.828 119.405 141.178C119.23 141.408 119.045 141.514 119.066 141.597Z" fill="#879CAE"/>
<path d="M114.899 133.569C114.895 133.515 114.717 133.297 114.196 133.243C113.817 133.224 113.44 133.307 113.105 133.484C112.769 133.661 112.488 133.926 112.289 134.249C112.051 134.702 111.93 135.208 111.936 135.719L111.866 137.269L111.819 138.917C111.789 139.603 111.909 140.286 112.169 140.921C112.329 141.273 112.567 141.583 112.864 141.828C113.162 142.074 113.511 142.248 113.886 142.338C114.492 142.48 115.119 142.512 115.736 142.432C116.83 142.312 117.753 142.181 118.568 142.051C118.966 142 119.353 141.885 119.715 141.711C120.011 141.569 120.261 141.347 120.439 141.071C120.712 140.602 120.589 140.287 120.52 140.292C120.451 140.298 120.376 140.535 120.078 140.789C119.623 141.122 119.061 141.276 118.499 141.223C117.732 141.28 116.716 141.301 115.686 141.355C114.657 141.408 113.591 141.279 113.243 140.432C112.894 139.586 113.015 138.303 112.96 137.257L112.923 135.715C112.88 135.346 112.918 134.972 113.034 134.619C113.15 134.381 113.319 134.173 113.527 134.011C113.736 133.848 113.978 133.735 114.236 133.68C114.617 133.613 114.867 133.656 114.899 133.569Z" fill="#879CAE"/>
<path d="M107.814 142.195C107.819 142.264 108.077 142.314 108.481 142.145C109.029 141.841 109.437 141.334 109.617 140.733C109.841 139.901 109.902 139.034 109.797 138.179L109.692 136.759C109.675 136.208 109.608 135.66 109.493 135.121C109.38 134.77 109.173 134.457 108.893 134.216C108.64 134.011 108.351 133.855 108.042 133.754C107.535 133.609 107.01 133.539 106.484 133.546C105.665 133.531 104.846 133.566 104.032 133.651C102.648 133.816 101.819 134.078 101.839 134.239C101.859 134.4 102.709 134.429 104.063 134.483C104.736 134.51 105.541 134.55 106.425 134.624C107.31 134.697 108.233 134.883 108.37 135.475C108.461 135.932 108.521 136.394 108.55 136.859L108.702 138.276C108.838 139.017 108.869 139.774 108.792 140.524C108.716 140.992 108.507 141.428 108.191 141.781C108.015 142.002 107.792 142.112 107.814 142.195Z" fill="#879CAE"/>
<path d="M103.647 134.174C103.643 134.113 103.464 133.894 102.944 133.848C102.565 133.827 102.187 133.909 101.851 134.087C101.515 134.264 101.234 134.529 101.037 134.855C100.798 135.31 100.677 135.818 100.685 136.333C100.666 136.805 100.642 137.309 100.623 137.881C100.603 138.454 100.589 138.988 100.571 139.568C100.541 140.254 100.66 140.938 100.92 141.573C101.085 141.922 101.325 142.231 101.623 142.476C101.922 142.721 102.271 142.896 102.645 142.989C103.251 143.129 103.878 143.16 104.495 143.083C105.584 143.002 106.512 142.825 107.319 142.695C107.717 142.646 108.104 142.534 108.467 142.363C108.762 142.22 109.013 141.999 109.19 141.722C109.463 141.246 109.34 140.939 109.271 140.944C109.202 140.949 109.127 141.186 108.838 141.44C108.381 141.777 107.816 141.935 107.251 141.882C106.484 141.939 105.475 141.952 104.438 142.006C103.401 142.06 102.35 141.93 101.995 141.092C101.64 140.253 101.767 138.962 101.712 137.908C101.672 137.379 101.688 136.868 101.674 136.367C101.63 135.997 101.671 135.622 101.793 135.27C101.909 135.033 102.076 134.826 102.283 134.664C102.49 134.501 102.731 134.388 102.988 134.331C103.365 134.211 103.584 134.256 103.647 134.174Z" fill="#879CAE"/>
<path d="M96.7835 142.776C96.7892 142.853 97.0474 142.903 97.4507 142.727C97.9986 142.418 98.4057 141.909 98.5865 141.306C98.8066 140.477 98.8679 139.613 98.7673 138.76L98.6616 137.34C98.6454 136.786 98.576 136.236 98.4544 135.695C98.3463 135.342 98.138 135.028 97.855 134.79C97.6046 134.583 97.3151 134.429 97.0038 134.336C96.4979 134.187 95.9727 134.115 95.4455 134.12C94.6292 134.103 93.8128 134.14 93.0016 134.233C91.6099 134.39 90.7817 134.66 90.8008 134.813C90.8199 134.966 91.6786 135.003 93.0321 135.056C93.7056 135.091 94.51 135.124 95.3567 135.208C96.2035 135.291 97.1645 135.459 97.3011 136.051C97.3889 136.509 97.4465 136.971 97.4735 137.436C97.51 137.927 97.5838 138.401 97.6329 138.853C97.7694 139.594 97.7998 140.351 97.723 141.1C97.6491 141.569 97.4404 142.006 97.1225 142.357C96.9467 142.587 96.7619 142.693 96.7835 142.776Z" fill="#879CAE"/>
<path d="M92.6168 134.756C92.6122 134.694 92.434 134.476 91.9139 134.43C91.535 134.41 91.1577 134.493 90.8221 134.67C90.4865 134.847 90.2048 135.112 90.007 135.436C89.7704 135.893 89.6493 136.4 89.6543 136.914L89.5845 138.463C89.5702 138.997 89.5582 139.562 89.5403 140.15C89.5168 140.815 89.6344 141.477 89.8854 142.093C90.0473 142.443 90.2856 142.752 90.5828 142.997C90.8801 143.242 91.2285 143.417 91.6024 143.51C92.2116 143.648 92.8402 143.68 93.4601 143.603C94.5491 143.522 95.469 143.345 96.285 143.223C96.6822 143.168 97.0688 143.053 97.4318 142.883C97.7275 142.74 97.9779 142.519 98.1553 142.242C98.4284 141.766 98.3052 141.459 98.2362 141.464C98.1672 141.469 98.0929 141.714 97.7956 141.968C97.3399 142.301 96.778 142.456 96.2162 142.402C95.4493 142.459 94.4325 142.473 93.4037 142.534C92.3749 142.595 91.3077 142.451 90.96 141.612C90.6123 140.773 90.7322 139.482 90.6775 138.436C90.6375 137.899 90.6535 137.388 90.6399 136.895C90.6012 136.544 90.6352 136.19 90.7397 135.853C90.8561 135.615 91.0246 135.406 91.2327 135.242C91.4408 135.078 91.6831 134.963 91.9417 134.906C92.3342 134.792 92.5847 134.843 92.6168 134.756Z" fill="#879CAE"/>
<path d="M85.6085 143.377C85.6136 143.446 85.8795 143.495 86.2757 143.327C86.826 143.019 87.2359 142.51 87.4192 141.906C87.6364 141.076 87.6976 140.213 87.5999 139.36C87.5662 138.907 87.5308 138.431 87.4942 137.94C87.481 137.386 87.4142 136.835 87.2947 136.295C87.19 135.939 86.9842 135.622 86.7024 135.381C86.4543 135.169 86.164 135.011 85.8506 134.92C85.3452 134.77 84.8197 134.7 84.2929 134.711C83.4741 134.696 82.6552 134.731 81.8408 134.816C80.4567 134.973 79.6286 135.243 79.6477 135.396C79.6668 135.549 80.5183 135.594 81.8718 135.648C82.5524 135.675 83.3497 135.716 84.2419 135.788C85.1341 135.861 86.042 136.04 86.1868 136.639C86.2749 137.097 86.3325 137.559 86.3592 138.024L86.5104 139.434C86.6491 140.174 86.682 140.931 86.6081 141.681C86.5339 142.151 86.3223 142.589 86 142.938C85.7399 143.174 85.5868 143.293 85.6085 143.377Z" fill="#879CAE"/>
<path d="M81.4411 135.348C81.4371 135.294 81.2589 135.076 80.7382 135.022C80.36 135.004 79.984 135.089 79.6499 135.267C79.3157 135.446 79.0358 135.711 78.8396 136.035C78.5989 136.488 78.4748 136.993 78.4786 137.506C78.4603 137.986 78.4361 138.49 78.4165 139.055C78.3968 139.62 78.3831 140.161 78.3646 140.742C78.335 141.428 78.4543 142.112 78.7143 142.747C78.877 143.097 79.1166 143.407 79.4152 143.652C79.7138 143.897 80.0637 144.071 80.439 144.162C81.0454 144.303 81.6715 144.338 82.2896 144.264C83.3751 144.137 84.3061 144.006 85.1139 143.876C85.512 143.826 85.8993 143.711 86.2607 143.536C86.5594 143.398 86.811 143.176 86.9842 142.896C87.2655 142.427 87.1341 142.112 87.0651 142.118C86.9961 142.123 86.9212 142.36 86.6316 142.613C86.1759 142.946 85.614 143.101 85.0522 143.047C84.2853 143.104 83.269 143.126 82.232 143.18C81.195 143.234 80.1443 143.103 79.796 142.257C79.4477 141.41 79.5687 140.135 79.5134 139.081C79.474 138.552 79.4823 138.041 79.4682 137.541C79.4273 137.17 79.4678 136.796 79.587 136.443C79.7039 136.206 79.8728 135.998 80.081 135.836C80.2892 135.673 80.5314 135.56 80.7896 135.504C81.1591 135.392 81.4167 135.434 81.4411 135.348Z" fill="#879CAE"/>
<path d="M84.9234 110.435C84.9285 110.504 85.1944 110.554 85.5983 110.385C86.1443 110.078 86.5512 109.572 86.7347 108.972C86.9546 108.14 87.0157 107.274 86.9148 106.419L86.8091 104.998C86.7999 104.444 86.733 103.893 86.6096 103.353C86.5003 103.003 86.2924 102.691 86.0108 102.456C85.7627 102.243 85.4724 102.086 85.159 101.994C84.6538 101.844 84.1282 101.773 83.6013 101.786C82.7851 101.77 81.9687 101.805 81.1568 101.89C79.7651 102.048 78.937 102.318 78.956 102.471C78.9751 102.624 79.8344 102.668 81.1802 102.722C81.8608 102.749 82.6658 102.789 83.5503 102.863C84.4348 102.936 85.358 103.114 85.4952 103.714C85.5833 104.171 85.6409 104.634 85.6676 105.099C85.7042 105.59 85.7396 106.066 85.8264 106.508C85.9632 107.249 85.9935 108.006 85.9166 108.755C85.8413 109.223 85.6328 109.66 85.316 110.012C85.0943 110.245 84.9018 110.352 84.9234 110.435Z" fill="#879CAE"/>
<path d="M80.763 102.406C80.759 102.352 80.5808 102.134 80.0601 102.08C79.6767 102.058 79.2945 102.141 78.9546 102.32C78.6147 102.499 78.3299 102.767 78.1308 103.096C77.8928 103.549 77.7714 104.054 77.7775 104.566C77.7515 105.047 77.7273 105.55 77.7077 106.116C77.688 106.681 77.6743 107.222 77.6635 107.802C77.6298 108.488 77.7492 109.173 78.0131 109.807C78.1731 110.158 78.4109 110.468 78.7084 110.713C79.0059 110.959 79.3554 111.133 79.7302 111.223C80.3366 111.364 80.9627 111.398 81.5808 111.325C82.674 111.197 83.5974 111.067 84.4128 110.936C84.8084 110.886 85.1932 110.771 85.5519 110.597C85.8499 110.458 86.1012 110.235 86.2754 109.956C86.549 109.488 86.4177 109.174 86.3486 109.179C86.2796 109.184 86.2047 109.421 85.9151 109.674C85.4594 110.008 84.8975 110.162 84.3357 110.108C83.5689 110.165 82.5526 110.187 81.5156 110.241C80.4785 110.295 79.4278 110.165 79.0795 109.318C78.7312 108.472 78.8522 107.196 78.797 106.143C78.7576 105.613 78.7735 105.102 78.7594 104.601C78.7166 104.232 78.7545 103.857 78.8706 103.504C78.9875 103.267 79.1563 103.06 79.3646 102.897C79.5728 102.735 79.815 102.621 80.0731 102.565C80.4809 102.45 80.7309 102.493 80.763 102.406Z" fill="#879CAE"/>
<path d="M74.2127 146.919C74.2127 146.919 74.113 146.926 74.0165 147.08C73.9834 147.133 73.9681 147.195 73.9728 147.257C73.9774 147.319 74.0017 147.378 74.0422 147.426C74.1394 147.532 74.2588 147.615 74.3919 147.67C75.2197 147.986 76.0887 148.182 76.9721 148.25C78.0995 148.375 79.486 148.457 81.092 148.484C82.6979 148.511 84.5195 148.43 86.5367 148.388C90.5635 148.305 95.3603 148.102 100.672 147.877C105.984 147.651 111.841 147.393 117.97 147.068C130.225 146.473 141.337 145.847 149.356 145.011C153.367 144.612 156.598 144.187 158.833 143.858C159.737 143.785 160.595 143.43 161.286 142.842C161.73 142.384 161.743 142.036 161.72 142.038C161.697 142.039 161.581 142.341 161.136 142.691C160.429 143.14 159.613 143.387 158.776 143.407C156.537 143.574 153.291 143.892 149.287 144.182C141.265 144.779 130.169 145.304 117.906 145.9L86.5057 147.556C84.5001 147.652 82.6672 147.788 81.1277 147.825C79.5883 147.863 78.1604 147.845 77.0458 147.789C76.1962 147.778 75.3504 147.673 74.5239 147.475C74.2475 147.387 74.0921 147.268 74.1372 147.149C74.1823 147.029 74.2297 146.941 74.2127 146.919Z" fill="#B0BBC0"/>
<path d="M159.556 143.534C159.556 143.534 159.714 143.692 160.09 143.664C160.363 143.63 160.626 143.534 160.856 143.383C161.087 143.232 161.28 143.03 161.421 142.793C161.78 142.029 161.917 141.178 161.817 140.339C161.799 139.383 161.722 138.339 161.705 137.174C161.528 132.524 161.205 126.109 160.773 119.06C160.341 112.012 159.883 105.545 159.5 100.91C159.117 96.2754 158.788 93.4121 158.627 93.4241C158.466 93.4361 158.495 96.3139 158.671 100.957C158.846 105.599 159.17 112.022 159.604 119.101C160.038 126.18 160.522 132.583 160.867 137.221C160.954 138.388 161.047 139.431 161.147 140.351C161.286 141.083 161.236 141.839 161.001 142.546C160.908 142.752 160.774 142.937 160.608 143.09C160.442 143.243 160.247 143.361 160.034 143.437C159.748 143.528 159.568 143.487 159.556 143.534Z" fill="#B0BBC0"/>
<path d="M74.367 92.5204L74.4744 92.5124C74.5024 92.5204 74.5322 92.5182 74.5587 92.5062C74.5765 92.5113 74.5956 92.5099 74.6124 92.5022L74.6661 92.4982C74.8074 92.3745 74.9198 92.2211 74.9951 92.049C75.106 91.8347 75.2028 91.6134 75.2851 91.3866C75.3754 91.1483 75.4585 90.9182 75.5339 90.6886C75.6094 90.4591 75.6647 90.2697 75.7158 90.1269L75.802 89.8348L76.3116 89.8432C76.4657 89.8472 76.6199 89.8358 76.7717 89.809C76.9209 89.7815 77.0726 89.7702 77.2242 89.7753C77.537 89.8109 77.8524 89.8184 78.1666 89.7979L79.0102 89.7351L79.2334 90.3516C79.3237 90.5971 79.4194 90.8474 79.5206 91.1024C79.6244 91.3572 79.7276 91.6043 79.8385 91.8508C79.9185 92.0433 80.0175 92.2273 80.1338 92.4002L80.3409 92.3848L80.6016 92.3654L80.8624 92.346C80.9343 92.3495 81.0065 92.3442 81.0771 92.33C81.0731 92.2763 81.1398 92.2404 81.17 92.2305L81.239 92.2253C81.2431 92.1945 81.2408 92.1631 81.2321 92.1332C81.2365 92.0972 81.2338 92.0606 81.2241 92.0257C81.2268 91.9768 81.2231 91.9278 81.2133 91.8798C81.2093 91.826 81.2053 91.7723 81.2024 91.7339C81.1876 91.7027 81.185 91.6671 81.195 91.6341C81.1853 91.5035 81.1207 91.3616 81.0786 91.2104C81.0365 91.0591 80.9797 90.9166 80.931 90.7812C80.89 90.5968 80.8378 90.4151 80.7749 90.2369C80.6998 90.0572 80.6324 89.8769 80.5574 89.6972L80.1545 88.7389C80.0313 88.4315 79.9 88.117 79.7692 87.8101L79.0385 86.0732C78.7957 85.5045 78.5452 84.9363 78.2717 84.3699C78.1859 84.1863 78.0799 84.0129 77.9557 83.8529C77.8801 83.7591 77.7962 83.6723 77.705 83.5936C77.6149 83.5221 77.5338 83.44 77.4632 83.3491C77.4019 83.3331 77.343 83.3089 77.2882 83.2772C77.2352 83.2483 77.1879 83.21 77.1487 83.164L77.003 83.1748C76.7282 83.1651 76.4598 83.2595 76.2515 83.4392C76.1778 83.4989 76.1129 83.5687 76.0587 83.6466L75.9333 83.8258C75.8374 84.1958 75.7416 84.5658 75.6605 84.927C75.5794 85.2882 75.4841 85.6659 75.3812 86.0442C75.202 86.7447 75.0068 87.4387 74.7645 88.1207C74.5223 88.8028 74.3342 89.4885 74.0925 90.1782C73.9844 90.4874 73.8769 90.8042 73.7682 91.1057C73.6596 91.4072 73.5515 91.7163 73.4275 92.019L73.6983 92.2382L73.8179 92.291L74.0093 92.3772L74.2167 92.4698L74.367 92.5204ZM76.1596 88.5265L76.2742 87.993C76.3034 87.8672 76.3331 87.7492 76.3558 87.6394C76.3785 87.5297 76.4083 87.4116 76.4446 87.2777C76.4809 87.1437 76.522 86.9708 76.5821 86.7424L76.8379 85.8277L76.9445 85.3951C76.9786 85.2305 77.022 85.0883 77.0588 84.962C77.2121 85.2594 77.3499 85.558 77.4713 85.8424C77.5927 86.1267 77.7065 86.4117 77.8197 86.6889C77.9328 86.9662 78.0394 87.2594 78.1455 87.5449C78.2516 87.8304 78.3517 88.1395 78.4683 88.4628L78.3226 88.4737C78.1801 88.4919 78.0367 88.5026 77.8931 88.5056L77.2796 88.5513C77.0659 88.5789 76.8509 88.5949 76.6354 88.5992C76.4805 88.6104 76.3248 88.6039 76.1713 88.5797L76.1596 88.5265Z" fill="white"/>
<path d="M82.1627 85.0252C82.2354 84.9391 82.3155 84.8594 82.4019 84.787C82.5293 84.6754 82.6419 84.5796 82.7549 84.4993C82.9235 84.3812 83.1108 84.2924 83.3088 84.2364L83.8889 84.0806L83.935 84.0792C84.1954 84.1094 84.4538 84.1558 84.7084 84.2181C84.9769 84.2917 85.2221 84.433 85.4207 84.6284C85.6568 84.8271 85.8507 85.0712 85.991 85.3462C86.1313 85.6212 86.2151 85.9216 86.2374 86.2296C86.2925 86.6599 86.2254 87.0971 86.0439 87.491C85.861 87.8782 85.6109 88.2299 85.3053 88.5296C85.141 88.6832 84.968 88.8272 84.7872 88.9609C84.5784 89.1078 84.3552 89.2331 84.1212 89.3349C83.8965 89.4318 83.6609 89.5009 83.4195 89.5406C83.1966 89.5821 82.9665 89.5595 82.7559 89.4755C82.7256 89.4799 82.6948 89.4779 82.6653 89.4695C82.6359 89.461 82.6086 89.4464 82.5852 89.4266C82.5629 89.4044 82.536 89.3872 82.5065 89.3761C82.477 89.365 82.4455 89.3603 82.4141 89.3623C82.4227 89.6548 82.4316 89.9549 82.4405 90.2551C82.4494 90.5553 82.4582 90.8554 82.4669 91.1479L82.6102 92.353L82.3812 92.4137C82.3344 92.4421 82.2829 92.4619 82.2291 92.4722L82.0677 92.4769C81.9914 92.4688 81.9162 92.4529 81.8432 92.4297L81.6804 92.3883L81.6098 92.3441C81.6098 92.3441 81.5617 92.2762 81.5517 92.1995L81.0604 86.5137C81.0554 86.3444 81.0513 86.2058 81.0481 86.0981L81.0392 85.7979C81.0365 85.7056 81.0336 85.6055 81.0304 85.4978C81.0272 85.39 81.0231 85.2515 81.0178 85.0745C81.0126 84.8974 81.0117 84.8667 81.0076 84.7281C80.9941 84.6132 80.9907 84.4973 80.9974 84.3818L81.1495 84.3234C81.2385 84.2875 81.3303 84.259 81.4239 84.2382C81.5392 84.2348 81.6609 84.185 81.8065 84.1653C81.9516 84.1453 82.0985 84.141 82.2446 84.1523C82.2549 84.2366 82.2574 84.3216 82.2521 84.4063C82.2542 84.4756 82.2558 84.5294 82.2573 84.5833C82.2554 84.6424 82.2572 84.7015 82.2626 84.7603C82.2212 84.8454 82.1878 84.934 82.1627 85.0252ZM82.3827 88.3002C82.6793 88.4117 83.0078 88.402 83.2974 88.2732C83.5393 88.1897 83.7754 88.0901 84.0041 87.975C84.2243 87.8686 84.4276 87.7302 84.6074 87.5643C84.7766 87.4057 84.9099 87.2126 84.9984 86.9981C85.0955 86.7525 85.1325 86.4873 85.1063 86.2246C85.1015 86.0859 85.0628 85.9505 84.9935 85.8303C84.9242 85.7101 84.8265 85.6088 84.7089 85.5353C84.471 85.4053 84.2047 85.3364 83.9337 85.3349C83.6242 85.3313 83.3172 85.3902 83.031 85.5079C82.7779 85.6041 82.5526 85.7617 82.3752 85.9664C82.3003 86.0956 82.2646 86.2439 82.2724 86.3931C82.2788 86.6086 82.2858 86.8472 82.2931 87.0935C82.3004 87.3398 82.3077 87.586 82.3606 87.8156C82.4136 88.0451 82.3329 88.1784 82.3508 88.2626L82.3827 88.3002Z" fill="white"/>
<path d="M91.1003 86.9443L90.9009 86.9591L90.6325 86.9791C90.5865 86.9825 90.5481 86.9854 90.5328 86.9865C90.3049 87.0785 90.0931 87.2063 89.9055 87.3652C89.7221 87.5232 89.5568 87.7012 89.4129 87.896C89.2747 88.0873 89.153 88.2901 89.0493 88.5021C88.9568 88.6897 88.8785 88.8839 88.8149 89.0832C88.8264 89.2368 88.8412 89.4364 88.8601 89.6898C88.8789 89.9432 88.9361 90.1938 88.9709 90.4537C89.0057 90.7136 89.0092 90.9681 89.028 91.2215C89.0518 91.4075 89.0657 91.5946 89.0697 91.7821C89.0625 91.8245 89.0444 91.8642 89.0171 91.8974C88.9898 91.9306 88.9543 91.956 88.9141 91.9712C88.8061 92.0194 88.6916 92.0514 88.5742 92.066C88.4496 92.0831 88.3241 92.0925 88.1984 92.094L87.93 92.1139C87.8118 91.2503 87.7094 90.3931 87.6077 89.5436C87.5059 88.6942 87.403 87.8294 87.293 86.9728C87.2856 86.873 87.2782 86.7731 87.2702 86.6656C87.2622 86.5581 87.2547 86.4583 87.2467 86.3508L87.5424 86.2825C87.6322 86.2575 87.726 86.2505 87.8185 86.262C87.9267 86.2755 88.0313 86.3096 88.1267 86.3626C88.2409 86.4425 88.3397 86.5424 88.4185 86.6574C88.4607 86.7724 88.4878 86.8924 88.4991 87.0143C88.5082 87.1372 88.5174 87.26 88.5259 87.3752L88.8638 86.9408C88.9913 86.769 89.1438 86.6171 89.316 86.4903C89.517 86.3437 89.7404 86.2306 89.9774 86.1554C90.2915 86.0593 90.62 86.0192 90.948 86.0368C91.004 86.0773 91.0419 86.1383 91.0531 86.2066C91.0713 86.2949 91.078 86.3853 91.0731 86.4753C91.0876 86.5642 91.0943 86.6541 91.0931 86.7441C91.1042 86.8102 91.1066 86.8775 91.1003 86.9443V86.9443Z" fill="white"/>
<path d="M93.3837 84.635C93.5508 84.6868 93.6917 84.8006 93.7776 84.9532C93.8532 85.0927 93.8839 85.2522 93.8655 85.4099C93.8519 85.5671 93.7966 85.7178 93.7052 85.8465C93.6088 85.9813 93.4691 86.079 93.3094 86.123C93.2126 86.1603 93.1086 86.1753 93.0052 86.167C92.9018 86.1586 92.8016 86.1271 92.712 86.0748C92.5601 85.9804 92.4457 85.8361 92.3886 85.6665C92.3366 85.489 92.3413 85.2996 92.4023 85.125C92.4367 85.0203 92.4915 84.9234 92.5633 84.8399C92.6352 84.7564 92.7227 84.6879 92.821 84.6383C92.912 84.5762 93.0233 84.5513 93.132 84.5688C93.2177 84.5837 93.3019 84.6059 93.3837 84.635V84.635ZM92.8551 87.894C92.8488 87.8096 92.8408 87.7021 92.8305 87.5638C92.817 87.4672 92.8097 87.3697 92.8088 87.2721L93.0897 87.2126C93.1814 87.1837 93.2785 87.1765 93.3734 87.1914C93.4668 87.186 93.5605 87.192 93.6524 87.2093L93.8978 87.191C93.9402 87.3433 93.9724 87.4983 93.994 87.6549C94.0117 87.8929 94.0783 88.1659 94.117 88.4796C94.1558 88.7933 94.165 89.1246 94.245 89.4738C94.3249 89.823 94.2958 90.1572 94.3198 90.4797C94.3438 90.8022 94.3638 91.0709 94.3815 91.309C94.4015 91.467 94.4133 91.6259 94.4169 91.785C94.4232 91.8695 94.3664 91.9355 94.2619 91.9819C94.1462 92.0313 94.024 92.0638 93.899 92.0784C93.7723 92.0993 93.6439 92.1089 93.5155 92.1069C93.4335 92.1088 93.3516 92.1149 93.2701 92.1252C93.2638 92.0407 93.253 91.8948 93.2364 91.6721C93.2198 91.4495 93.201 91.1961 93.1793 90.9043C93.1576 90.6125 93.1342 90.2977 93.1096 89.9675C93.085 89.6373 93.0622 89.3302 93.0405 89.0384C93.0188 88.7466 93.0005 88.5009 92.9833 88.2705C92.9662 88.0402 92.9062 87.9597 92.9011 87.8906L92.8551 87.894Z" fill="white"/>
<path d="M98.0592 91.7441C98.0782 91.5872 98.087 91.4292 98.0857 91.2711C98.0726 91.0945 98.0589 90.9102 98.0446 90.7183L98.004 90.1731C97.9829 90.0178 97.9713 89.8614 97.9692 89.7047C97.9492 89.436 97.9792 89.2175 97.9743 89.048C97.9694 88.8785 97.9503 88.7255 97.9394 88.5796C97.9286 88.4337 97.9166 88.2725 97.9046 88.1112C97.8926 87.95 97.876 87.7273 97.856 87.4586L97.8226 86.1794C97.7848 85.6726 97.7466 85.1581 97.7083 84.6437C97.6788 84.1305 97.6228 83.6193 97.5404 83.1119C97.4129 83.0764 97.2901 83.0259 97.1744 82.9616L96.8754 82.9838C96.825 82.987 96.7759 83.0006 96.7312 83.0239C96.6864 83.0471 96.647 83.0795 96.6155 83.119C96.5732 83.2449 96.5518 83.3769 96.5521 83.5098C96.6092 84.2776 96.5922 84.9815 96.6152 85.7056C96.6382 86.4296 96.6618 87.1614 96.6695 87.8866C96.6772 88.6118 96.6919 89.1203 96.691 89.7303C96.6901 90.3403 96.6975 90.9575 96.7125 91.574C96.6968 91.6794 96.7048 91.787 96.7359 91.8889C96.7523 91.9198 96.7755 91.9466 96.8038 91.9672C96.832 91.9879 96.8646 92.0018 96.899 92.008C96.9736 92.0148 97.0487 92.0092 97.1214 91.9914L97.3898 91.9715C97.4683 91.958 97.5479 91.9521 97.6276 91.9538C97.6624 91.9973 97.7111 92.0277 97.7655 92.04C97.8198 92.0522 97.8768 92.0456 97.9269 92.0213C97.9771 91.9969 98.0175 91.9562 98.0415 91.9059C98.0655 91.8555 98.0718 91.7985 98.0592 91.7441V91.7441Z" fill="white"/>
<g style="mix-blend-mode:multiply" opacity="0.5">
<g style="mix-blend-mode:multiply" opacity="0.5">
<path d="M73.3332 145.062L70.1482 79.2451C70.0871 78.4235 70.1384 77.4546 70.7966 76.9732C71.2541 76.7034 71.7852 76.5855 72.3138 76.6364C76.3895 76.588 70.4119 76.7779 74.3726 76.7381C76.9541 90.7064 76.0094 90.6532 76.299 104.807C76.984 137.749 87.0405 141.803 91.8117 143.641C98.1951 146.107 161.639 142.213 160.632 143.084C159.896 143.597 159.022 143.877 158.124 143.888C131.261 146.852 104.252 148.305 77.2247 148.239C75.9678 148.24 74.5018 148.125 73.8072 147.08C73.4711 146.462 73.3073 145.765 73.3332 145.062V145.062Z" fill="#DCECFF"/>
</g>
</g>
</g>
<path d="M85.465 36.6999C88.9664 36.6999 91.8049 33.941 91.8049 30.5377C91.8049 27.1344 88.9664 24.3755 85.465 24.3755C81.9635 24.3755 79.125 27.1344 79.125 30.5377C79.125 33.941 81.9635 36.6999 85.465 36.6999Z" fill="#126BD0"/>
<path d="M173.995 33.9758C177.497 33.9758 180.335 31.2169 180.335 27.8136C180.335 24.4103 177.497 21.6514 173.995 21.6514C170.494 21.6514 167.655 24.4103 167.655 27.8136C167.655 31.2169 170.494 33.9758 173.995 33.9758Z" fill="#126BD0"/>
<path d="M102.033 30.5372C104.088 30.5372 105.754 28.9175 105.754 26.9195C105.754 24.9215 104.088 23.3018 102.033 23.3018C99.9776 23.3018 98.3115 24.9215 98.3115 26.9195C98.3115 28.9175 99.9776 30.5372 102.033 30.5372Z" fill="#126BD0"/>
<path d="M93.4606 20.4376C95.5159 20.4376 97.182 18.8179 97.182 16.8198C97.182 14.8218 95.5159 13.2021 93.4606 13.2021C91.4054 13.2021 89.7393 14.8218 89.7393 16.8198C89.7393 18.8179 91.4054 20.4376 93.4606 20.4376Z" fill="#126BD0"/>
<path d="M32.2145 91.376C34.2698 91.376 35.9359 89.7563 35.9359 87.7583C35.9359 85.7603 34.2698 84.1406 32.2145 84.1406C30.1593 84.1406 28.4932 85.7603 28.4932 87.7583C28.4932 89.7563 30.1593 91.376 32.2145 91.376Z" fill="#126BD0"/>
<path d="M22.6052 99.4268C24.6604 99.4268 26.3265 97.8071 26.3265 95.8091C26.3265 93.8111 24.6604 92.1914 22.6052 92.1914C20.5499 92.1914 18.8838 93.8111 18.8838 95.8091C18.8838 97.8071 20.5499 99.4268 22.6052 99.4268Z" fill="#126BD0"/>
<path d="M30.8219 112.573C34.2104 112.573 36.9573 109.903 36.9573 106.609C36.9573 103.316 34.2104 100.646 30.8219 100.646C27.4334 100.646 24.6865 103.316 24.6865 106.609C24.6865 109.903 27.4334 112.573 30.8219 112.573Z" fill="#126BD0"/>
<defs>
<clipPath id="clip0">
<rect width="103.27" height="81.325" fill="white" transform="matrix(-0.997244 0.0741958 0.0741958 0.997244 156.702 62.9995)"/>
</clipPath>
</defs>
</svg>
