<svg width="216" height="215" viewBox="0 0 216 215" fill="none" xmlns="http://www.w3.org/2000/svg">
<path d="M171.574 169.159C169.411 175.239 166.212 181.408 160.674 184.603C151.671 189.798 140.435 185.247 131.743 179.729C123.051 174.211 113.964 167.448 103.693 168.376C93.3395 169.311 85.1506 177.842 75.2083 181.019C62.5597 185.053 48.6889 179.765 38.4629 171.378C32.0924 166.152 26.5971 159.586 23.6952 151.787C20.7933 143.988 20.7108 134.867 24.5668 127.428C28.7282 119.4 36.9312 114.001 40.625 105.744C43.9054 98.4091 43.1183 89.9171 41.343 82.1228C39.5677 74.3286 36.8441 66.6907 36.4219 58.6851C35.9803 50.2111 38.3354 41.3526 43.9169 34.9681C49.4984 28.5836 58.5081 25.1016 66.559 27.2652C75.7812 29.7427 82.4714 38.7925 91.9315 40.1285C102.824 41.666 112.224 32.5903 122.674 28.9111C131.269 25.8822 141.053 26.6678 148.991 31.0232C156.93 35.3786 162.901 43.2385 165.056 52.1651C166.444 57.9183 166.704 64.6118 170.276 69.5201C175.556 76.7744 182.473 73.2484 189.849 74.7765C196.478 76.1518 199.124 82.5339 199.866 88.7036C201.926 105.736 193.035 118.749 183.803 131.997C180.094 137.32 176.605 143.202 175.396 149.679C174.184 156.191 173.834 162.808 171.574 169.159Z" fill="#126BD0"/>
<path d="M85.465 36.6996C88.9664 36.6996 91.8049 33.9407 91.8049 30.5374C91.8049 27.1342 88.9664 24.3752 85.465 24.3752C81.9635 24.3752 79.125 27.1342 79.125 30.5374C79.125 33.9407 81.9635 36.6996 85.465 36.6996Z" fill="#126BD0"/>
<path d="M173.995 33.9755C177.497 33.9755 180.335 31.2166 180.335 27.8133C180.335 24.41 177.497 21.6511 173.995 21.6511C170.494 21.6511 167.655 24.41 167.655 27.8133C167.655 31.2166 170.494 33.9755 173.995 33.9755Z" fill="#126BD0"/>
<path d="M102.033 30.5374C104.088 30.5374 105.754 28.9177 105.754 26.9197C105.754 24.9217 104.088 23.302 102.033 23.302C99.9776 23.302 98.3115 24.9217 98.3115 26.9197C98.3115 28.9177 99.9776 30.5374 102.033 30.5374Z" fill="#126BD0"/>
<path d="M93.4606 20.4376C95.5159 20.4376 97.182 18.8179 97.182 16.8198C97.182 14.8218 95.5159 13.2021 93.4606 13.2021C91.4054 13.2021 89.7393 14.8218 89.7393 16.8198C89.7393 18.8179 91.4054 20.4376 93.4606 20.4376Z" fill="#126BD0"/>
<path d="M32.2145 91.3763C34.2698 91.3763 35.9359 89.7566 35.9359 87.7586C35.9359 85.7606 34.2698 84.1409 32.2145 84.1409C30.1593 84.1409 28.4932 85.7606 28.4932 87.7586C28.4932 89.7566 30.1593 91.3763 32.2145 91.3763Z" fill="#126BD0"/>
<path d="M22.6052 99.4268C24.6604 99.4268 26.3265 97.8071 26.3265 95.8091C26.3265 93.8111 24.6604 92.1914 22.6052 92.1914C20.5499 92.1914 18.8838 93.8111 18.8838 95.8091C18.8838 97.8071 20.5499 99.4268 22.6052 99.4268Z" fill="#126BD0"/>
<path d="M30.8219 112.573C34.2104 112.573 36.9573 109.903 36.9573 106.609C36.9573 103.316 34.2104 100.646 30.8219 100.646C27.4334 100.646 24.6865 103.316 24.6865 106.609C24.6865 109.903 27.4334 112.573 30.8219 112.573Z" fill="#126BD0"/>
<g clip-path="url(#clip0)">
<path d="M156.905 44.3797C127.493 42.8132 98.0648 41.4449 68.6206 40.2747C68.3053 46.1658 68.0502 52.0677 67.8552 57.9803C67.8552 58.0807 67.8552 58.1771 67.8552 58.2735C66.6245 95.8887 67.8345 133.544 71.4776 171.002C95.3333 168.357 119.196 165.842 143.065 163.459L157.851 143.777C155.426 110.699 155.11 77.4986 156.905 44.3797Z" fill="white"/>
<path d="M131.969 84.4341C121.587 84.4502 111.205 84.4904 100.821 84.5546C100.821 83.928 100.821 83.3014 100.821 82.6708C111.208 82.6306 121.59 82.6146 131.969 82.6226C131.973 83.2251 131.969 83.8397 131.969 84.4341Z" fill="#ACDFFC"/>
<path d="M147.584 78.4573C132.013 78.3287 116.438 78.2524 100.861 78.2283C100.861 77.6017 100.861 76.9751 100.861 76.3445C116.438 76.4007 132.013 76.5118 147.584 76.6779C147.596 77.2723 147.592 77.8628 147.584 78.4573Z" fill="#ACDFFC"/>
<path d="M147.668 72.4803C132.097 72.2366 116.522 72.0438 100.945 71.9019L100.981 70.0181C116.558 70.1894 132.133 70.4171 147.704 70.7009L147.668 72.4803Z" fill="#ACDFFC"/>
<path d="M91.6656 69.1384C91.5534 74.5609 91.4933 79.9821 91.4853 85.402C86.5218 85.4475 81.557 85.4957 76.5909 85.5466C76.5909 80.033 76.6497 74.5154 76.7672 68.9938C81.736 69.0393 86.7022 69.0875 91.6656 69.1384ZM93.4007 67.3067C87.3072 67.2264 81.2111 67.1541 75.1123 67.0898C74.96 73.8807 74.8865 80.6676 74.8919 87.4505C80.9907 87.3702 87.0868 87.2979 93.1803 87.2336C93.1803 80.598 93.2538 73.9557 93.4007 67.3067Z" fill="#ACDFFC"/>
<path d="M134.201 146.645C123.854 147.448 113.507 148.289 103.158 149.167C103.11 148.545 103.066 147.922 103.021 147.296C113.368 146.455 123.717 145.637 134.069 144.841L134.201 146.645Z" fill="#ACDFFC"/>
<path d="M149.316 139.503C133.776 140.574 118.241 141.702 102.709 142.885C102.669 142.259 102.625 141.636 102.585 141.009C118.119 139.866 133.656 138.775 149.196 137.736L149.316 139.503Z" fill="#ACDFFC"/>
<path d="M148.939 133.566C133.397 134.517 117.853 135.526 102.308 136.595L102.2 134.719C117.742 133.691 133.287 132.716 148.835 131.795C148.867 132.385 148.903 132.976 148.939 133.566Z" fill="#ACDFFC"/>
<path d="M92.8439 134.563C93.1484 139.956 93.5064 145.345 93.9178 150.73C88.9677 151.156 84.0256 151.587 79.0915 152.023C78.6747 146.544 78.3101 141.062 77.9975 135.575C82.9503 135.229 87.9044 134.892 92.8599 134.563H92.8439ZM94.4467 132.615C88.3612 133.003 82.2771 133.404 76.1943 133.82C76.5657 140.573 77.0158 147.318 77.5447 154.056C83.6168 153.504 89.6889 152.962 95.761 152.429C95.2455 145.833 94.8073 139.231 94.4467 132.623V132.615Z" fill="#ACDFFC"/>
<path d="M132.486 115.592C122.113 116.009 111.74 116.451 101.367 116.917C101.343 116.291 101.319 115.664 101.299 115.037C111.675 114.596 122.049 114.178 132.422 113.784C132.442 114.387 132.462 114.989 132.486 115.592Z" fill="#ACDFFC"/>
<path d="M147.861 109.028C132.292 109.502 116.726 110.029 101.162 110.607C101.162 109.98 101.126 109.354 101.11 108.727C116.677 108.192 132.244 107.702 147.813 107.257C147.824 107.849 147.84 108.439 147.861 109.028Z" fill="#ACDFFC"/>
<path d="M147.713 103.072C132.144 103.425 116.573 103.833 101.002 104.297L100.966 102.413C116.537 101.987 132.108 101.614 147.677 101.292L147.713 103.072Z" fill="#ACDFFC"/>
<path d="M91.6214 101.915C91.7175 107.329 91.8671 112.738 92.0702 118.142C87.1094 118.375 82.1499 118.615 77.1918 118.861C76.9834 113.364 76.8298 107.86 76.731 102.349C81.6944 102.199 86.6579 102.054 91.6214 101.915ZM93.2843 100.023C87.1882 100.178 81.0947 100.343 75.0039 100.517C75.1134 107.295 75.3018 114.064 75.5689 120.825C81.657 120.512 87.7452 120.206 93.8333 119.906C93.5662 113.281 93.3832 106.653 93.2843 100.023Z" fill="#ACDFFC"/>
<path d="M82.569 82.8154L81.5271 81.6626C80.4398 80.4576 79.3566 79.2526 78.2773 78.0476L80.3851 76.1557C81.1144 76.9751 81.8463 77.7932 82.581 78.6099C84.3321 76.6899 86.1032 74.77 87.8583 72.8901L89.922 74.8222C87.8263 77.0715 85.7025 79.3771 83.6188 81.6506L82.569 82.8154Z" fill="#FF65A7"/>
<path d="M83.0539 115.72L81.9679 114.608C80.8379 113.451 79.7106 112.29 78.5859 111.125L80.6015 109.145L82.8936 111.507C84.5726 109.522 86.2676 107.542 87.9465 105.598L90.0823 107.454C88.0788 109.776 86.0432 112.153 84.0476 114.523L83.0539 115.72Z" fill="#FF65A7"/>
<path d="M84.8298 148.854L83.7038 147.789C82.5257 146.681 81.353 145.567 80.1855 144.448L82.137 142.395C82.9384 143.156 83.7318 143.912 84.5172 144.665C86.1201 142.608 87.7229 140.567 89.3258 138.575L91.5297 140.347C89.6263 142.724 87.6909 145.167 85.7715 147.633L84.8298 148.854Z" fill="#FF65A7"/>
<path opacity="0.45" d="M129.741 66.4876C128.909 67.2557 127.837 67.7101 126.708 67.773C125.472 67.8818 124.239 67.541 123.233 66.813C122.711 66.4538 122.291 65.9639 122.015 65.3917C121.739 64.8196 121.618 64.1852 121.663 63.5514L120.913 63.1498L120.216 62.7802C119.032 63.142 117.78 63.2164 116.562 62.9971C115.402 62.7975 114.305 62.3315 113.356 61.6355C110.791 59.7316 110.246 56.6467 111.909 54.3813L110.707 53.4976C110.604 53.4251 110.518 53.3298 110.457 53.2192C110.396 53.1085 110.361 52.9853 110.355 52.859C110.353 52.7477 110.378 52.6376 110.427 52.5376C110.468 52.4389 110.529 52.3499 110.607 52.2766C110.803 52.1005 111.052 51.9969 111.315 51.983C111.577 51.9691 111.837 52.0458 112.05 52.2002L113.252 53.0799C114.145 52.4706 115.169 52.0799 116.241 51.9392C118.249 51.6498 120.291 52.1539 121.935 53.345C123.939 54.8191 124.696 57.0042 124.171 58.9684L124.796 59.6111L125.245 60.073L125.646 60.0127C126.923 59.8707 128.207 60.2069 129.252 60.9566C131.208 62.4027 131.412 64.8769 129.741 66.4876Z" fill="url(#paint0_linear)"/>
<path d="M113.46 52.1639L112.025 53.5497C111.803 53.7148 111.525 53.7866 111.25 53.7498C110.976 53.7131 110.726 53.5707 110.555 53.3528C110.461 53.2544 110.382 53.142 110.322 53.0194C110.254 52.8947 110.207 52.7587 110.186 52.6178C110.161 52.4834 110.169 52.345 110.209 52.2143C110.249 52.0835 110.319 51.9643 110.415 51.8667L111.857 50.501L113.46 52.1639Z" fill="#BEBEBE"/>
<path d="M112.177 51.22L110.318 53.0195C110.249 52.8947 110.203 52.7588 110.182 52.6178L111.913 50.9429L112.177 51.22Z" fill="#E0E0E0"/>
<path d="M121.73 52.887C120.316 54.2527 118.288 54.6583 116.281 54.1763C114.71 53.7852 113.285 52.9484 112.177 51.7663C109.332 48.806 108.996 44.5081 111.428 42.1543C112.239 41.3823 113.273 40.8862 114.381 40.7365C116.573 40.4191 119.094 41.2988 120.981 43.263C123.826 46.2393 124.159 50.5412 121.73 52.887Z" fill="#0089E9"/>
<path d="M125.282 42.6443L125.137 42.8612L123.354 45.48L120.205 50.0993C120.143 50.1838 120.075 50.2631 120 50.3362C118.87 51.4288 116.586 50.8865 114.899 49.1312C114.384 48.5989 113.964 47.9821 113.657 47.3076C113.533 47.0286 113.436 46.738 113.368 46.44C113.144 45.4559 113.3 44.5522 113.889 43.9818C113.999 43.8808 114.119 43.7906 114.246 43.7127L118.734 40.8689L120.858 39.5233L121.783 38.9368V38.9569C122.481 38.5231 123.659 38.8605 124.556 39.7924C124.975 40.2123 125.277 40.7342 125.434 41.3067C125.508 41.5272 125.533 41.7613 125.507 41.9925C125.48 42.2237 125.403 42.4462 125.282 42.6443Z" fill="#1794EB"/>
<path opacity="0.7" d="M119.283 42.1301L113.368 46.4601C113.437 46.7597 113.535 47.0516 113.661 47.3318L119.719 42.9134C119.556 42.663 119.41 42.4012 119.283 42.1301Z" fill="#00A7F8"/>
<path opacity="0.7" d="M116.265 54.1765C114.694 53.7853 113.27 52.9486 112.162 51.7664C109.317 48.8061 108.98 44.5083 111.412 42.1545C112.224 41.3824 113.257 40.8863 114.366 40.7366C114.089 41.0981 113.753 41.4274 113.5 41.8171C113.181 42.3111 112.913 42.8359 112.699 43.3836C112.284 44.473 112.1 45.6371 112.158 46.8018C112.189 47.4429 112.302 48.0773 112.494 48.6896C113.188 50.8466 114.662 52.5818 116.265 54.1765Z" fill="#00A7F8"/>
<path d="M125.137 42.8693L123.354 45.4882C122.524 45.2331 121.749 44.8244 121.07 44.2832C120.759 44.0314 120.47 43.7547 120.204 43.4557C119.726 42.9123 119.334 42.2986 119.042 41.6362C118.922 41.3975 118.819 41.1505 118.733 40.8971L120.857 39.5515H120.905C121.808 40.0706 122.656 40.6817 123.434 41.3751C124.047 41.8184 124.617 42.3187 125.137 42.8693Z" fill="#0077D6"/>
<path d="M127.605 44.1747C127.144 44.5937 126.587 44.893 125.983 45.0463C125.38 45.1997 124.748 45.2024 124.143 45.0544C122.931 44.8005 121.827 44.1777 120.982 43.271C118.978 41.1823 118.681 38.1979 120.332 36.6032C120.773 36.2023 121.303 35.9117 121.878 35.7554C122.452 35.599 123.056 35.5812 123.638 35.7035C124.91 35.9303 126.074 36.5646 126.956 37.511C128.96 39.5957 129.252 42.5841 127.605 44.1747Z" fill="#0089E9"/>
<path opacity="0.7" d="M124.143 45.0544C122.931 44.8005 121.827 44.1777 120.982 43.271C118.978 41.1823 118.681 38.1979 120.332 36.6032C120.773 36.2023 121.303 35.9117 121.878 35.7554C122.452 35.599 123.056 35.5812 123.638 35.7035C123.638 35.7035 123.638 35.7517 123.67 35.7718C124.511 38.0202 124.826 40.4316 124.592 42.8211C124.576 42.9858 124.36 44.0743 124.143 45.0544Z" fill="#00A7F8"/>
</g>
<defs>
<linearGradient id="paint0_linear" x1="111.428" y1="52.5071" x2="128.893" y2="66.4722" gradientUnits="userSpaceOnUse">
<stop stop-color="#BEBEBE"/>
<stop offset="1" stop-color="#BEBEBE"/>
</linearGradient>
<clipPath id="clip0">
<rect width="90.4724" height="135.347" fill="white" transform="translate(67.3779 35.6394)"/>
</clipPath>
</defs>
</svg>
