<svg width="24" height="24" viewBox="0 0 24 24" fill="none" xmlns="http://www.w3.org/2000/svg">
<path fill-rule="evenodd" clip-rule="evenodd" d="M7.99091 1L8.87343 1.4337C9.30713 1.25179 9.67159 1.4337 9.83966 1.95239C10.3716 1.78432 10.7215 1.86804 10.8059 2.48429C11.1559 2.21802 11.6878 2.40057 11.7715 3.01682C11.8559 2.83428 12.7384 3.10054 12.7384 3.6186L13.4522 4.06678L13.0046 4.8511C12.7384 4.68303 12.4721 4.50048 12.1221 4.41676C11.6041 4.68303 11.2541 4.33241 11.0715 3.88423C10.8059 4.1505 10.2734 3.88423 10.1896 3.45053C9.75531 3.53425 9.40533 3.45053 9.30713 2.83428C8.78908 3.01682 8.34089 2.83428 8.25717 2.21802L7.5572 1.78432L7.99091 1ZM7.64091 19.1621V21.707L6.59095 23.2763L5.70844 21.707V19.1621C5.9747 19.2458 6.24034 19.327 6.59095 19.327C6.94094 19.327 7.29092 19.2458 7.55719 19.1621H7.64091ZM6.59095 6.96549H6.85659C7.29092 6.96549 7.64091 7.31548 7.64091 7.74981V13.4629C7.29092 13.3647 6.94094 13.281 6.59095 13.281C6.24034 13.281 5.9747 13.3647 5.70844 13.4629V7.93173C5.70844 7.3992 6.05842 6.96549 6.59095 6.96549ZM10.1896 7.13356H10.3715C10.8059 7.04921 11.2541 7.31547 11.3378 7.74981L13.7046 21.5251L13.0046 23.192L11.7715 21.8757L9.4053 8.28171C9.30711 7.74981 9.67157 7.21728 10.1896 7.13356ZM17.7514 6.96549H17.9195C18.3677 6.96549 18.7177 7.31548 18.7177 7.74981V21.7071L17.7514 23.2763L16.7852 21.7071V7.93173C16.7852 7.3992 17.2189 6.96549 17.7514 6.96549ZM15.1184 4.41677L15.9871 3.98243C16.0853 3.45053 16.3509 3.18426 16.8689 3.26861C17.0515 2.83428 17.2189 2.48429 17.8352 2.75056C17.8352 2.30238 18.1852 1.95239 18.8014 2.21803C18.6333 1.95239 19.3339 1.33614 19.6839 1.60178L20.4676 1.16807L21.0002 1.95239C20.7339 2.13431 20.3839 2.30238 20.1176 2.48429C20.1176 3.10054 19.6839 3.26861 19.152 3.18426C19.2496 3.53425 18.8014 3.88424 18.3677 3.7168C18.2834 4.1505 18.0171 4.41677 17.4015 4.23485C17.3171 4.76675 16.9533 5.03302 16.3509 4.8511L15.6371 5.29928L15.1184 4.41677V4.41677Z" fill="#9B7838"/>
<path fill-rule="evenodd" clip-rule="evenodd" d="M8.53853 18.9867C8.0218 19.5006 7.28758 19.6925 6.45361 19.6925C4.56819 19.6925 3 18.1834 3 16.273C3 15.4712 3.20024 14.7639 3.73422 14.154C3.93371 14.6672 4.1512 15.1651 4.36795 15.6797C5.08492 16.9788 6.13638 17.9914 7.08734 18.4887C7.60482 18.794 8.12155 18.9867 8.53853 18.9867Z" fill="#EE8282"/>
<path fill-rule="evenodd" clip-rule="evenodd" d="M6.68268 12.7694C8.49306 12.7694 9.92317 14.1995 9.92317 15.9189C9.92317 16.8778 9.5429 17.7293 8.87333 18.3079C8.40141 18.3079 7.93018 18.1096 7.35225 17.8209C6.48433 17.2581 5.72379 16.3901 5.05422 15.2493C4.78064 14.7781 4.58299 14.1995 4.38464 13.7283C4.96326 13.1496 5.83049 12.7694 6.68268 12.7694Z" fill="#E05656"/>
</svg>
