<svg width="48" height="48" viewBox="0 0 48 48" fill="none" xmlns="http://www.w3.org/2000/svg">
<circle cx="24" cy="24" r="24" fill="#29A9E1"/>
<path d="M13 32.21C15.29 33.68 18.02 34.54 20.95 34.54C30.58 34.54 36.01 26.41 35.69 19.12C36.7 18.39 37.58 17.48 38.28 16.44C37.35 16.85 36.35 17.13 35.3 17.26C36.37 16.62 37.19 15.6 37.58 14.39C36.58 14.98 35.47 15.42 34.29 15.65C33.33 14.63 31.99 14 30.49 14C27.14 14 24.68 17.12 25.44 20.37C21.14 20.15 17.32 18.09 14.76 14.95C13.4 17.28 14.06 20.33 16.36 21.87C15.51 21.84 14.71 21.61 14.01 21.22C13.95 23.62 15.68 25.87 18.17 26.37C17.44 26.57 16.64 26.61 15.83 26.46C16.49 28.52 18.4 30.02 20.67 30.06C18.5 31.77 15.75 32.53 13 32.21Z" fill="white"/>
</svg>
