<svg width="11" height="15" viewBox="0 0 11 15" fill="none" xmlns="http://www.w3.org/2000/svg">
<path d="M3.9776 4.03722L1.92062 5.9072C1.48128 6.3066 0.768971 6.3066 0.329632 5.9072C-0.109708 5.5078 -0.109708 4.86025 0.329632 4.46085L4.30711 0.84496C4.52678 0.64526 4.81469 0.54541 5.1026 0.54541C5.39052 0.54541 5.67843 0.64526 5.8981 0.84496L9.87557 4.46085C10.3149 4.86025 10.3149 5.5078 9.87557 5.9072C9.43623 6.3066 8.72392 6.3066 8.28458 5.9072L6.2276 4.03722L6.2276 13.159C6.2276 13.7239 5.72392 14.1818 5.1026 14.1818C4.48128 14.1818 3.9776 13.7239 3.9776 13.159L3.9776 4.03722Z" fill="#93DF41"/>
</svg>
