<svg width="66" height="66" viewBox="0 0 66 66" fill="none" xmlns="http://www.w3.org/2000/svg">
<circle cx="33" cy="33" r="33" fill="#F08A5D"/>
<mask id="mask0" mask-type="alpha" maskUnits="userSpaceOnUse" x="0" y="0" width="66" height="66">
<circle cx="33" cy="33" r="33" fill="#1D7DEA"/>
</mask>
<g mask="url(#mask0)">
<path d="M12.3779 42.5439C12.3779 39.42 14.6757 36.9209 17.5479 36.9209C20.4201 36.9209 22.8 39.42 22.8 42.5439C22.8 45.6678 20.4201 48.1669 17.5479 48.1669C14.6757 48.1669 12.3779 45.6678 12.3779 42.5439Z" fill="white"/>
<path d="M23.7843 49.3286C18.6143 51.7385 15.66 57.0045 15.578 62.2705V62.3598H7.53578C7.20753 62.3598 6.87927 62.092 6.87927 61.735V57.2723C6.87927 52.4525 10.4901 48.5254 14.9215 48.5254C15.1677 48.5254 15.4138 48.7039 15.4959 48.8824L17.5475 53.2558L19.5991 48.8824C20.0914 47.9006 22.7995 48.8824 23.7843 49.3286Z" fill="white"/>
<path d="M43.4796 42.5439C43.4796 39.42 45.7774 36.9209 48.6496 36.9209C51.5218 36.9209 53.9016 39.42 53.9016 42.5439C53.9016 45.6678 51.5218 48.1669 48.6496 48.1669C45.7774 48.1669 43.4796 45.6678 43.4796 42.5439Z" fill="white"/>
<path d="M59.3993 57.2723V61.735C59.3993 62.092 59.1531 62.4491 58.7428 62.4491H50.6186C50.6186 62.3598 50.7827 53.7021 42.9867 49.6857C42.8226 49.5964 42.5764 49.5072 42.4123 49.4179C43.4791 48.7932 44.71 48.5254 45.941 48.5254C46.1872 48.5254 46.4334 48.7039 46.5154 48.8824L48.567 53.2559L50.6186 48.8824C50.7006 48.6146 50.9468 48.5254 51.193 48.5254C55.7886 48.5254 59.3993 52.4526 59.3993 57.2723Z" fill="white"/>
<path d="M49.4702 69.7677C49.4702 70.1247 49.224 70.3924 48.8137 70.3924H17.4656C17.1373 70.3924 16.8091 70.1247 16.8091 69.7677V62.8058C16.8091 62.6273 16.8091 62.5381 16.8091 62.3596C16.9732 55.5762 22.2253 49.5962 29.0365 49.5962C29.2827 49.5962 29.5289 49.7747 29.693 49.9532L33.2217 57.4506L36.7504 49.9532C36.8325 49.6854 37.0787 49.5962 37.3249 49.5962H37.4069C44.1361 49.5962 49.4702 55.5762 49.5523 62.4488C49.4702 62.6273 49.4702 63.0736 49.4702 69.7677Z" fill="white"/>
<path d="M25.3434 39.9571C25.3434 35.3158 28.7901 31.4779 33.1394 31.4779C37.4067 31.4779 40.9354 35.2266 40.9354 39.9571C40.9354 44.5983 37.4888 48.4362 33.1394 48.4362C28.8722 48.347 25.3434 44.5983 25.3434 39.9571Z" fill="white"/>
<g opacity="0.3">
<path d="M57.2664 14.5198H39.869C38.7201 14.5198 37.8174 15.5016 37.8174 16.7511V25.8551C37.8174 27.1046 38.7201 28.0864 39.869 28.0864H41.7564V32.1029C41.7564 32.7276 42.4129 32.9954 42.8233 32.5491L46.9264 28.0864H57.3484C58.4973 28.0864 59.4 27.1046 59.4 25.8551V16.6619C59.318 15.5016 58.4153 14.5198 57.2664 14.5198ZM55.6251 24.2485H41.5103C41.182 24.2485 40.8538 23.9807 40.8538 23.5345C40.8538 23.1774 41.0999 22.8204 41.5103 22.8204H55.6251C55.9534 22.8204 56.2816 23.0882 56.2816 23.5345C56.1996 23.8915 55.9534 24.2485 55.6251 24.2485ZM55.6251 19.875H41.5103C41.182 19.875 40.8538 19.6073 40.8538 19.161C40.8538 18.804 41.0999 18.447 41.5103 18.447H55.6251C55.9534 18.447 56.2816 18.7147 56.2816 19.161C56.1996 19.6073 55.9534 19.875 55.6251 19.875Z" fill="white"/>
</g>
<g opacity="0.3">
<path d="M23.7843 20.8552H8.68466C7.6999 20.8552 6.87927 21.7478 6.87927 22.8188V30.6732C6.87927 31.7442 7.6999 32.6368 8.68466 32.6368H17.6295L21.1583 36.4747C21.5686 36.921 22.2251 36.564 22.2251 36.0285V32.6368H23.7843C24.769 32.6368 25.5897 31.7442 25.5897 30.6732V22.8188C25.5897 21.7478 24.769 20.8552 23.7843 20.8552ZM22.7175 29.2451H9.75148C9.42323 29.2451 9.09498 28.9774 9.09498 28.5311C9.09498 28.1741 9.34117 27.8171 9.75148 27.8171H22.6354C22.9637 27.8171 23.2919 28.0848 23.2919 28.5311C23.2919 28.9774 23.0457 29.2451 22.7175 29.2451ZM22.7175 25.3179H9.75148C9.42323 25.3179 9.09498 25.0502 9.09498 24.6039C9.09498 24.2469 9.34117 23.8899 9.75148 23.8899H22.6354C22.9637 23.8899 23.2919 24.1576 23.2919 24.6039C23.2919 24.9609 23.0457 25.3179 22.7175 25.3179Z" fill="white"/>
</g>
</g>
</svg>
