<svg width="220" height="231" viewBox="0 0 220 231" fill="none" xmlns="http://www.w3.org/2000/svg">
<path d="M207.517 149.004C207.222 156.599 205.732 164.661 200.369 170.208C191.647 179.228 176.656 178.086 164.315 174.959C151.973 171.832 138.701 167.446 126.892 172.119C114.986 176.829 108.472 189.308 97.8881 196.392C84.4211 205.395 66.0368 204.358 50.8117 198.549C41.3266 194.929 32.3784 189.495 26.0402 181.758C19.7021 174.022 16.2081 163.803 18.0017 154.082C19.9375 143.592 27.6352 134.626 28.9322 124.044C30.0834 114.643 25.99 105.381 20.9869 97.2513C15.9838 89.1219 9.91657 81.5033 6.4361 72.6581C2.75826 63.2935 2.24704 52.5083 6.47533 43.3623C10.7036 34.2162 20.0699 27.1194 30.4034 26.7044C42.2399 26.228 53.5272 34.0308 65.2203 32.1879C78.6836 30.065 86.4292 16.5455 97.4259 8.71811C106.47 2.27697 118.342 -0.299 129.358 1.78829C140.375 3.87559 150.368 10.5954 156.242 19.863C160.026 25.8364 162.827 33.2647 168.882 37.5166C177.831 43.8006 184.705 37.3938 194.002 36.5037C202.36 35.7056 207.868 41.9405 211.043 48.61C219.823 67.0174 214.146 84.7815 208.154 102.929C205.746 110.221 203.806 118.063 204.787 125.766C205.778 133.511 207.827 141.07 207.517 149.004Z" fill="#126BD0"/>
<path d="M57.4614 25.6645C61.8055 25.6645 65.3271 22.2524 65.3271 18.0434C65.3271 13.8344 61.8055 10.4224 57.4614 10.4224C53.1173 10.4224 49.5957 13.8344 49.5957 18.0434C49.5957 22.2524 53.1173 25.6645 57.4614 25.6645Z" fill="#126BD0"/>
<path d="M167.295 22.2954C171.639 22.2954 175.161 18.8833 175.161 14.6743C175.161 10.4653 171.639 7.05322 167.295 7.05322C162.951 7.05322 159.43 10.4653 159.43 14.6743C159.43 18.8833 162.951 22.2954 167.295 22.2954Z" fill="#126BD0"/>
<path d="M78.0154 18.0433C80.5652 18.0433 82.6323 16.0402 82.6323 13.5691C82.6323 11.0981 80.5652 9.09497 78.0154 9.09497C75.4655 9.09497 73.3984 11.0981 73.3984 13.5691C73.3984 16.0402 75.4655 18.0433 78.0154 18.0433Z" fill="#126BD0"/>
<path d="M67.3806 5.55284C69.9304 5.55284 71.9975 3.54969 71.9975 1.07867C71.9975 -1.39235 69.9304 -3.39551 67.3806 -3.39551C64.8307 -3.39551 62.7637 -1.39235 62.7637 1.07867C62.7637 3.54969 64.8307 5.55284 67.3806 5.55284Z" fill="#126BD0"/>
<path d="M16.5378 110.293C19.0877 110.293 21.1547 108.29 21.1547 105.819C21.1547 103.348 19.0877 101.345 16.5378 101.345C13.988 101.345 11.9209 103.348 11.9209 105.819C11.9209 108.29 13.988 110.293 16.5378 110.293Z" fill="#126BD0"/>
<path d="M4.61692 120.25C7.16677 120.25 9.23384 118.246 9.23384 115.775C9.23384 113.304 7.16677 111.301 4.61692 111.301C2.06707 111.301 0 113.304 0 115.775C0 118.246 2.06707 120.25 4.61692 120.25Z" fill="#126BD0"/>
<path d="M121.03 182.967C123.58 182.967 125.647 184.969 125.647 187.441C125.647 189.912 123.575 191.92 121.03 191.92C118.485 191.92 116.412 189.917 116.412 187.447C116.412 184.976 118.479 182.967 121.03 182.967Z" fill="#94D8E9"/>
<path d="M181.79 34.3487C184.34 34.3487 186.407 32.3456 186.407 29.8746C186.407 27.4035 184.34 25.4004 181.79 25.4004C179.24 25.4004 177.173 27.4035 177.173 29.8746C177.173 32.3456 179.24 34.3487 181.79 34.3487Z" fill="#94D8E9"/>
<path d="M153.883 183.816C155.372 183.816 156.58 184.986 156.58 186.43C156.58 187.874 155.372 189.043 153.883 189.043C152.393 189.043 151.186 187.873 151.186 186.43C151.186 184.988 152.392 183.816 153.883 183.816Z" fill="#94D8E9"/>
<path d="M138.235 189.575C142.917 189.575 146.713 185.897 146.713 181.359C146.713 176.822 142.917 173.144 138.235 173.144C133.552 173.144 129.756 176.822 129.756 181.359C129.756 185.897 133.552 189.575 138.235 189.575Z" fill="#94D8E9"/>
<path d="M14.8111 136.508C19.0151 136.508 22.423 133.206 22.423 129.133C22.423 125.059 19.0151 121.757 14.8111 121.757C10.6072 121.757 7.19922 125.059 7.19922 129.133C7.19922 133.206 10.6072 136.508 14.8111 136.508Z" fill="#126BD0"/>
<path d="M101.386 123.241C102.786 123.056 104.169 122.76 105.522 122.357C106.085 122.186 106.853 122.067 107.354 121.637C107.54 121.475 107.444 121.368 107.683 121.124C108.174 120.616 109.005 120.401 109.212 119.481C109.335 118.929 109.083 118.376 109.134 117.806C109.18 117.264 109.522 116.771 109.343 116.21C109.079 115.379 107.908 115.185 107.341 115.099C106.373 114.954 105.387 115.069 104.416 115.125C102.788 115.214 101.313 114.932 99.7062 114.667C96.8571 114.195 93.8707 114.572 91.0351 114.765C89.9575 114.84 89.8447 114.888 89.8766 116.507C90.0188 124.095 97.4958 123.776 101.386 123.241Z" fill="#4179A6"/>
<path d="M131.352 230.049C131.765 229.22 131.988 227.961 131.988 226.106L131.432 214.143C131.432 210.072 130.747 206.109 129.947 201.995C129.199 198.139 127.71 194.361 126.417 190.638C125.251 187.285 124.252 187.855 121.569 187.636C116.093 187.189 110.613 186.896 105.128 186.757C97.5778 186.564 90.0268 186.664 82.4749 187.056C79.9997 187.179 73.843 186.229 72.7519 188.898C72.074 190.553 72.1794 193.85 71.7785 195.767C70.7978 200.468 70.6752 207.13 70.4214 211.916C70.1395 217.301 70.3736 221.318 69.9004 226.689C69.9004 228.19 69.9715 229.268 70.1186 230.052L131.352 230.049Z" fill="#4A403E"/>
<path d="M127.478 141.053C129.819 130.804 135.033 114.766 123.8 118.952C116.133 121.312 106.22 119.767 100.348 120.161C96.7752 120.161 93.3279 120.099 89.7849 120.74C87.5945 121.111 85.3776 121.302 83.1562 121.312C80.0288 121.312 73.5251 123.475 70.4198 125.756C68.842 126.916 71.262 138.679 72.2587 143.996C73.7298 151.864 75.0036 160.413 74.9423 168.707C74.8773 177.523 73.389 186.316 70.8967 194.76C70.3229 196.705 69.9159 197.448 71.7904 198.812C73.5533 200.097 77.2213 199.917 79.2883 200.03C94.989 200.919 110.745 201.808 125.834 198.041C129.66 197.085 127.24 194.026 126.254 191.172C123.755 183.937 121.938 171.376 123.181 163.821C124.159 157.917 125.739 148.661 127.478 141.053Z" fill="#FFC702"/>
<g style="mix-blend-mode:multiply">
<g style="mix-blend-mode:multiply">
<path d="M93.801 131.436C95.483 128.898 96.1119 125.949 98.5822 124.041C98.896 123.795 99.4955 123.905 99.7431 124.191C101.594 126.336 102.909 128.574 104.098 131.141C108.823 128.952 111.162 125.071 113.265 121.417C109.017 120.351 104.518 119.887 100.351 120.167C96.7788 120.167 93.3314 120.105 89.7885 120.745C88.5159 120.975 86.8462 121.405 85.3652 121.832C85.9218 122.604 87.9299 127.76 93.801 131.436Z" fill="#E4EAF3"/>
</g>
</g>
<path d="M111.301 121.32L111.138 121.277C109.813 120.877 108.325 120.451 107.134 119.735C105.14 118.535 104.452 116.074 104.34 113.888C104.271 112.528 104.12 111.176 104.152 109.807C104.16 109.43 104.359 105.615 104.708 105.616L100.677 105.594C100.372 105.594 100.064 105.586 99.7627 105.57C99.4587 105.585 99.1538 105.593 98.8482 105.594L94.8185 106.133C95.7772 109.639 95.3493 113.568 94.0057 116.916C93.2873 118.706 91.6849 119.863 89.9895 120.65C89.3632 120.92 88.7178 121.145 88.0586 121.32H111.301Z" fill="#F2B8A2"/>
<path d="M90.3524 114.761C92.8864 118.959 100.283 120.956 99.6255 121.366C97.664 122.582 93.9972 126.44 93.5129 129.925C91.8689 128.934 90.2764 127.7 88.8273 126.444C87.6247 125.4 84.7535 122.461 85.0428 120.889C85.2819 119.621 90.3524 114.761 90.3524 114.761Z" fill="#518DBB"/>
<path d="M108.888 115.599C107.341 121.507 99.0693 120.825 99.6308 121.369C101.209 122.883 103.782 127.251 104.466 130.166C106.11 129.175 107.899 128.056 109.295 126.694C109.724 126.277 113.325 122.888 113.317 120.893C113.312 119.583 108.888 115.599 108.888 115.599Z" fill="#518DBB"/>
<path d="M129.369 81.7475C130.419 76.0173 131.899 70.5744 132.133 64.7177C132.294 60.7272 132.193 56.754 131.666 52.825C129.853 50.1729 128.347 47.4717 126.42 45.0762C125.867 45.102 125.317 44.9795 124.826 44.7214C121.271 42.919 118.443 39.7942 114.727 38.3097C113.624 37.8665 112.734 36.9935 112.52 35.8823C110.364 34.9552 108.122 34.2445 105.826 33.7606C94.0172 31.3848 81.3385 37.0242 72.0862 43.9577C71.9452 44.0622 71.7964 44.1558 71.6412 44.2376C67.6814 50.1213 65.2001 57.5177 65.3619 64.5359C65.3843 65.1063 65.238 65.6705 64.9414 66.1579C65.1584 70.1262 65.5544 75.0866 68.1289 77.9548C68.8644 78.7725 69.0508 79.6995 68.8877 80.5467C71.4696 81.5081 74.0784 82.3271 76.7963 82.8906C83.0119 84.1798 89.388 84.3861 95.7151 84.5126C102.074 84.6354 108.402 85.1363 114.769 84.8257C119.725 84.5801 124.612 83.836 129.318 82.2743C129.322 82.0976 129.338 81.9216 129.369 81.7475Z" fill="#975B4D"/>
<path d="M132.682 72.9442C132.742 87.252 125.601 100.58 112.601 107.312C109.247 109.048 105.765 110.526 102.187 111.732C101.452 111.978 100.687 112.223 99.9022 112.247C98.9595 112.275 98.0388 111.985 97.1402 111.699C93.0222 110.393 89.0955 109.165 85.273 107.243C82.8589 106.039 80.5939 104.555 78.5242 102.823C73.6976 98.7616 70.1963 93.3886 68.1796 87.4755C66.5969 82.8245 65.8332 77.8383 65.8332 72.9442C65.5095 47.7543 80.7971 37.7905 99.2549 37.7905C117.713 37.7905 132.563 45.0433 132.682 72.9442Z" fill="#F2BFA8"/>
<path d="M127.323 79.5522C126.542 83.7268 128.68 87.6411 132.104 88.282C135.528 88.9229 138.929 86.0547 139.705 81.8752C140.481 77.6957 138.349 73.7864 134.924 73.1455C131.499 72.5045 128.111 75.3727 127.323 79.5522Z" fill="#F2BFA8"/>
<path d="M136.887 82.2131C136.848 82.2131 136.809 82.2077 136.771 82.1971C136.717 82.1818 136.667 82.1561 136.623 82.1214C136.58 82.0867 136.543 82.0437 136.516 81.9949C136.489 81.946 136.472 81.8923 136.466 81.8368C136.46 81.7814 136.465 81.7252 136.48 81.6716C136.848 80.391 136.665 79.0342 135.997 78.0434C135.562 77.3963 134.239 76.7382 133.322 76.8966C133.212 76.9125 133.101 76.8849 133.012 76.8197C132.922 76.7544 132.861 76.6567 132.843 76.5474C132.824 76.4381 132.849 76.3258 132.912 76.2346C132.975 76.1434 133.071 76.0805 133.18 76.0592C134.468 75.8407 136.099 76.6731 136.701 77.5682C137.506 78.7653 137.728 80.3922 137.295 81.9049C137.27 81.9936 137.216 82.0717 137.143 82.1273C137.069 82.1828 136.979 82.213 136.887 82.2131Z" fill="#EFA28A"/>
<path d="M133.671 80.7457C133.602 80.7455 133.534 80.7284 133.473 80.696C133.412 80.6635 133.36 80.6166 133.321 80.5594C133.282 80.5022 133.258 80.4363 133.251 80.3676C133.243 80.2988 133.252 80.2293 133.278 80.1649C133.656 79.2011 134.675 77.643 135.753 77.1985C135.805 77.1764 135.86 77.1648 135.916 77.1643C135.973 77.1639 136.028 77.1746 136.08 77.196C136.132 77.2173 136.18 77.2487 136.219 77.2885C136.259 77.3283 136.291 77.3756 136.312 77.4277C136.333 77.4797 136.344 77.5355 136.344 77.5918C136.343 77.6481 136.332 77.7038 136.31 77.7556C136.288 77.8074 136.256 77.8542 136.216 77.8935C136.175 77.9328 136.128 77.9636 136.075 77.9843C135.34 78.2863 134.444 79.5166 134.066 80.4768C134.035 80.5562 133.981 80.6244 133.91 80.6723C133.84 80.7203 133.756 80.7459 133.671 80.7457Z" fill="#EFA28A"/>
<path d="M71.2865 79.5522C72.0687 83.7268 69.9294 87.6411 66.5053 88.282C63.0812 88.9229 59.6805 86.0547 58.9044 81.8752C58.1284 77.6957 60.2616 73.7864 63.6856 73.1455C67.1097 72.5045 70.5044 75.3727 71.2865 79.5522Z" fill="#F2BFA8"/>
<path d="M61.7227 82.2129C61.6306 82.2127 61.5412 82.1825 61.4677 82.127C61.3943 82.0714 61.3409 81.9934 61.3157 81.9047C60.8817 80.3859 61.1036 78.7652 61.9103 77.5681C62.511 76.6754 64.1427 75.8417 65.4299 76.0591C65.4859 76.0672 65.5397 76.0865 65.5882 76.1157C65.6366 76.145 65.6787 76.1837 65.712 76.2295C65.7453 76.2753 65.7691 76.3273 65.782 76.3825C65.7949 76.4377 65.7967 76.4949 65.7872 76.5507C65.7777 76.6066 65.7571 76.66 65.7268 76.7077C65.6964 76.7555 65.6567 76.7968 65.6102 76.829C65.5636 76.8612 65.5111 76.8837 65.4558 76.8953C65.4004 76.9069 65.3432 76.9073 65.2877 76.8964C64.3707 76.7393 63.0479 77.3962 62.6127 78.0432C61.9458 79.0341 61.7644 80.3908 62.1309 81.6714C62.1616 81.7799 62.1481 81.896 62.0934 81.9945C62.0387 82.093 61.9473 82.1658 61.8392 82.1969C61.8012 82.2076 61.7621 82.2129 61.7227 82.2129Z" fill="#EFA28A"/>
<path d="M64.9379 80.7455C64.8527 80.7456 64.7695 80.7199 64.6991 80.672C64.6287 80.624 64.5744 80.5559 64.5431 80.4766C64.1655 79.5165 63.2681 78.2862 62.5338 77.9842C62.4313 77.9403 62.3502 77.8577 62.308 77.7544C62.2658 77.6511 62.2658 77.5353 62.3082 77.4321C62.3506 77.3288 62.4318 77.2464 62.5344 77.2027C62.6369 77.1589 62.7525 77.1574 62.8562 77.1984C63.9338 77.6428 64.9526 79.2009 65.3326 80.1648C65.3577 80.2292 65.3667 80.2988 65.3589 80.3675C65.3512 80.4363 65.3268 80.502 65.2879 80.5592C65.2491 80.6164 65.1969 80.6632 65.1359 80.6957C65.0749 80.7282 65.0069 80.7453 64.9379 80.7455Z" fill="#EFA28A"/>
<path d="M100.311 90.7475C100.155 90.7475 99.9969 90.7475 99.8339 90.7316C99.7115 90.7233 99.5972 90.6672 99.5158 90.5753C99.4344 90.4834 99.3923 90.3631 99.3987 90.2404C99.4078 90.1181 99.4641 90.0041 99.5556 89.9225C99.6471 89.841 99.7667 89.7982 99.8891 89.8033C100.686 89.8561 102.586 89.8119 103.077 88.2845C103.152 88.0798 103.184 87.8619 103.172 87.6442C103.16 87.4265 103.103 87.2136 103.005 87.0186C102.782 86.5926 102.345 86.2635 101.779 86.0929C101.059 85.8755 100.223 85.9517 99.4232 86.3053C99.3669 86.3301 99.3062 86.3436 99.2446 86.3449C99.1831 86.3463 99.1219 86.3355 99.0645 86.3131C99.0071 86.2908 98.9547 86.2573 98.9102 86.2147C98.8658 86.172 98.8301 86.1211 98.8053 86.0646C98.7805 86.0082 98.7671 85.9474 98.7657 85.8858C98.7644 85.8241 98.7752 85.7628 98.7975 85.7054C98.8198 85.6479 98.8532 85.5954 98.8958 85.5509C98.9383 85.5063 98.9893 85.4706 99.0456 85.4458C100.048 85.0026 101.114 84.9129 102.047 85.1929C102.86 85.4384 103.493 85.9296 103.834 86.5791C103.99 86.8837 104.083 87.2169 104.106 87.5585C104.129 87.9 104.082 88.2427 103.969 88.5657C103.526 89.9715 102.202 90.7475 100.311 90.7475Z" fill="#EFA28A"/>
<path d="M87.9996 84.1422C87.9996 85.6246 86.9942 86.8276 85.7547 86.8276C84.5152 86.8276 83.5098 85.6283 83.5098 84.1422C83.5098 82.656 84.5152 81.4568 85.7547 81.4568C86.9942 81.4568 87.9996 82.6626 87.9996 84.1422Z" fill="#975B4D"/>
<path d="M85.4262 82.9237C85.4262 83.4259 85.0952 83.8336 84.6906 83.8336C84.2861 83.8336 83.9551 83.4259 83.9551 82.9237C83.9551 82.4216 84.2861 82.0127 84.6906 82.0127C85.0952 82.0127 85.4262 82.4203 85.4262 82.9237Z" fill="white"/>
<path d="M114.939 84.1403C114.939 85.6237 113.934 86.8276 112.694 86.8276C111.453 86.8276 110.449 85.6275 110.449 84.1403C110.449 82.6531 111.457 81.4568 112.694 81.4568C113.93 81.4568 114.939 82.6597 114.939 84.1403Z" fill="#975B4D"/>
<path d="M113.057 82.9237C113.057 83.4259 112.727 83.8336 112.322 83.8336C111.916 83.8336 111.586 83.4259 111.586 82.9237C111.586 82.4216 111.916 82.0127 112.322 82.0127C112.727 82.0127 113.057 82.4203 113.057 82.9237Z" fill="white"/>
<path d="M111.967 76.1863C112.625 76.1861 113.282 76.2494 113.927 76.3752C114.602 76.5027 115.269 76.6717 115.923 76.8811C117.232 77.3059 118.535 77.8667 119.589 78.6813L119.605 78.6978C119.71 78.7772 119.841 78.8139 119.973 78.8005C120.104 78.7871 120.226 78.7246 120.314 78.6255C120.401 78.5264 120.448 78.3981 120.444 78.2665C120.441 78.1349 120.387 78.0097 120.295 77.9162C119.19 76.8106 117.868 76.0566 116.507 75.4128C115.818 75.0941 115.109 74.8181 114.386 74.5864C113.635 74.3411 112.861 74.1694 112.076 74.0737C111.932 74.0581 111.786 74.072 111.647 74.1147C111.508 74.1573 111.379 74.2277 111.268 74.3217C111.157 74.4156 111.067 74.531 111.002 74.6608C110.937 74.7906 110.9 74.9321 110.892 75.0766C110.884 75.2211 110.906 75.3655 110.956 75.5011C111.006 75.6366 111.084 75.7603 111.184 75.8647C111.284 75.9691 111.404 76.052 111.538 76.1082C111.671 76.1644 111.815 76.1927 111.96 76.1915L111.967 76.1863Z" fill="#885546"/>
<path d="M86.889 74.4659C86.0988 74.4906 85.3133 74.5923 84.5437 74.7697C83.8015 74.9331 83.0703 75.142 82.3543 75.3954C80.9386 75.9121 79.5579 76.549 78.3518 77.5453C78.2392 77.6265 78.1639 77.7491 78.1422 77.8861C78.1206 78.0231 78.1545 78.1633 78.2364 78.2759C78.3183 78.3885 78.4415 78.4643 78.579 78.4865C78.7164 78.5087 78.8569 78.4756 78.9694 78.3944L78.9868 78.379C80.1108 77.664 81.4596 77.223 82.8023 76.9188C83.4739 76.7711 84.1542 76.6648 84.8394 76.6006C85.4939 76.5334 86.1537 76.5297 86.8095 76.5898C87.0906 76.6197 87.3717 76.537 87.5908 76.36C87.8099 76.183 87.9491 75.926 87.9778 75.6457C88.0065 75.3654 87.9224 75.0847 87.7439 74.8654C87.5653 74.646 87.3071 74.5059 87.0259 74.476C86.9805 74.4702 86.9348 74.4668 86.889 74.4659Z" fill="#885546"/>
<path d="M110.12 97.5915C109.639 99.0374 108.401 100.352 106.622 101.303C104.494 102.42 101.437 102.76 98.8836 102.465C95.9406 102.124 93.4695 100.454 92.6152 98.5895C92.5259 98.4414 92.5027 98.278 92.548 98.1174C92.7088 97.7358 93.4479 97.6259 94.0453 97.5918C98.8933 97.3154 103.74 97.0391 108.586 96.7628C109.183 96.7288 109.933 96.7538 110.133 97.1148C110.197 97.2692 110.192 97.4342 110.12 97.5915Z" fill="#A34041"/>
<g style="mix-blend-mode:multiply">
<g style="mix-blend-mode:multiply">
<path d="M104.405 108.71C98.03 110.864 93.9623 109.582 86.0157 106.276C82.4715 104.802 78.8709 102.953 75.9531 100.404C76.7668 101.256 77.6263 102.063 78.5276 102.821C80.5974 104.553 82.8624 106.036 85.2765 107.241C89.099 109.16 93.0257 110.385 97.1436 111.696C98.0422 111.983 98.9617 112.272 99.9057 112.244C100.69 112.222 101.449 111.98 102.191 111.73C105.769 110.523 109.25 109.045 112.604 107.309C122.434 102.219 128.909 93.3577 131.46 83.1533C126.738 94.4701 115.983 104.796 104.405 108.71Z" fill="#F6EBEA"/>
</g>
</g>
<path d="M134.915 62.5641C135.297 57.8235 134.931 53.0731 133.344 48.5338C132.177 45.1954 130.702 42.9485 127.836 40.8538C125.412 39.0821 122.162 38.9188 119.189 39.3338C119.102 39.346 116.615 36.0493 116.268 35.724C115.016 34.5677 113.594 33.6114 112.052 32.8889C108.864 31.3898 105.944 30.0981 102.367 29.5738C94.9867 28.5019 87.3957 30.1018 80.8418 33.5851C77.7315 35.2378 73.795 37.2354 71.4596 39.9342C69.252 42.4835 66.8922 44.8965 64.3932 47.1599C62.0222 49.3037 59.0125 51.095 55.83 50.8249C54.81 50.7378 53.7679 50.4136 53.0459 49.6867C52.4145 50.9968 52.4084 52.5218 52.591 53.9657C53.0473 57.4431 54.4945 60.7153 56.7592 63.3904C57.8626 64.6931 59.1793 65.8252 60.4947 66.8995C61.039 67.3428 65.3213 69.586 65.3384 69.9691C65.3789 70.8703 65.4377 71.6635 65.5162 72.2467C65.5272 72.3216 65.537 72.3953 65.5481 72.4702C65.7933 74.124 66.0004 76.2383 66.5926 77.7928C67.083 79.0746 67.4323 80.1551 68.4989 81.8446C68.6019 79.7708 68.8924 77.67 69.5336 75.692C70.4519 72.868 70.827 72.9109 73.5792 73.3014C78.2026 73.9561 82.9156 73.4719 87.3099 71.8906C89.8243 70.9808 92.1989 69.7211 94.6839 68.7339C103.769 65.1266 114.316 65.3905 123.21 69.4497C125.25 70.3804 127.793 71.7175 128.877 73.8048C130.012 75.9916 130.144 79.3018 130.238 81.723C130.973 79.9378 131.253 78.818 131.612 77.7179C133.197 72.8717 134.499 67.7246 134.915 62.5641Z" fill="#975B4D"/>
<path d="M85.0116 72.5758C84.891 72.5745 84.7752 72.5278 84.6872 72.4451C84.5992 72.3624 84.5454 72.2496 84.5365 72.129C84.5275 72.0085 84.5641 71.889 84.6389 71.7942C84.7137 71.6993 84.8214 71.6361 84.9405 71.6169C89.1394 70.9882 94.3656 70.2049 98.8575 68.9967C100.064 68.6713 101.289 68.3018 102.473 67.9433C105.973 66.8849 109.591 65.7909 113.319 65.6865C113.443 65.6883 113.562 65.738 113.65 65.8254C113.739 65.9128 113.79 66.0311 113.794 66.1555C113.797 66.2799 113.752 66.4009 113.669 66.4931C113.586 66.5853 113.47 66.6417 113.346 66.6504C109.746 66.7498 106.19 67.8254 102.752 68.8666C101.561 69.2263 100.327 69.6033 99.1076 69.9274C94.5618 71.1552 89.3061 71.9373 85.0827 72.5697C85.0592 72.5735 85.0355 72.5756 85.0116 72.5758Z" fill="#975B4D"/>
<path d="M73.5259 38.5911C70.7516 40.935 69.5073 41.7134 66.4522 43.6767C64.6133 44.8603 62.664 45.9924 60.5039 46.3447C61.7679 46.9783 63.5786 47.2226 64.9394 46.8359C66.3002 46.4491 67.6586 45.7235 68.8857 45.0199" fill="#975B4D"/>
<path d="M70.4342 47.8254C70.3726 47.8259 70.3129 47.8046 70.2655 47.7653C70.2181 47.726 70.1861 47.6712 70.1751 47.6106C70.1641 47.55 70.1748 47.4874 70.2054 47.4339C70.236 47.3804 70.2844 47.3395 70.3422 47.3183C73.3715 46.1752 76.0233 44.1628 78.5879 42.2167C80.0284 41.124 81.5167 39.9956 83.0663 39.0244C86.7755 36.6998 90.9309 35.1814 95.2633 34.5674C101.695 33.6613 108.1 36.0187 113.523 38.4424C113.556 38.4548 113.587 38.4741 113.613 38.4989C113.639 38.5238 113.66 38.5537 113.674 38.5869C113.688 38.62 113.695 38.6557 113.694 38.6916C113.694 38.7276 113.686 38.7631 113.671 38.796C113.657 38.8288 113.636 38.8583 113.609 38.8826C113.583 38.907 113.551 38.9256 113.517 38.9373C113.484 38.949 113.448 38.9537 113.412 38.9509C113.376 38.9482 113.341 38.9381 113.309 38.9212C107.96 36.527 101.644 34.1978 95.3418 35.0806C91.0825 35.6845 86.9974 37.1774 83.3508 39.4627C81.8208 40.4253 80.3411 41.55 78.9104 42.6329C76.315 44.5975 73.6388 46.6381 70.5322 47.807C70.5012 47.8198 70.4678 47.8261 70.4342 47.8254Z" fill="#8A5245"/>
<path d="M88.8696 44.2035C88.8123 44.2019 88.7571 44.1816 88.7124 44.1457C88.6677 44.1098 88.636 44.0602 88.6221 44.0045C88.6082 43.9488 88.6129 43.8901 88.6354 43.8373C88.658 43.7846 88.6972 43.7407 88.747 43.7123C95.6553 40.0226 103.502 38.471 111.292 39.2541C111.326 39.2576 111.359 39.2679 111.39 39.2843C111.42 39.3006 111.446 39.3228 111.468 39.3494C111.49 39.3761 111.506 39.4068 111.516 39.4397C111.525 39.4727 111.529 39.5072 111.525 39.5414C111.522 39.5756 111.511 39.6087 111.495 39.639C111.479 39.6692 111.457 39.6959 111.43 39.7176C111.403 39.7392 111.373 39.7554 111.34 39.7652C111.307 39.775 111.272 39.7782 111.238 39.7747C103.552 39.0025 95.8106 40.5336 88.9947 44.174C88.956 44.1939 88.9131 44.204 88.8696 44.2035Z" fill="#8A5245"/>
<path d="M76.5756 68.5645C72.5685 68.571 68.6101 67.6856 64.9867 65.9721C61.3632 64.2587 58.1653 61.7602 55.6241 58.6573C55.5995 58.631 55.5804 58.6 55.5683 58.5662C55.5561 58.5323 55.551 58.4963 55.5533 58.4603C55.5556 58.4244 55.5652 58.3893 55.5816 58.3573C55.598 58.3252 55.6208 58.2969 55.6486 58.274C55.6764 58.2512 55.7085 58.2343 55.7431 58.2244C55.7777 58.2146 55.8139 58.2119 55.8496 58.2166C55.8852 58.2214 55.9195 58.2334 55.9503 58.2519C55.9811 58.2705 56.0078 58.2952 56.0287 58.3245C59.4472 62.4883 64.0461 65.5161 69.2182 67.0082C74.3904 68.5003 79.8927 68.3867 84.9991 66.6823C85.0649 66.6603 85.1368 66.6654 85.1988 66.6965C85.2609 66.7276 85.3081 66.7821 85.3301 66.848C85.352 66.914 85.3469 66.986 85.3159 67.0481C85.2848 67.1103 85.2304 67.1576 85.1646 67.1795C82.3941 68.0989 79.4941 68.5665 76.5756 68.5645Z" fill="#8A5245"/>
<path d="M65.8434 63.5364C63.7213 63.5364 61.5869 63.2909 59.5666 62.5124C59.5344 62.5002 59.5049 62.4817 59.4798 62.458C59.4548 62.4344 59.4346 62.406 59.4205 62.3745C59.4064 62.3431 59.3986 62.3091 59.3976 62.2746C59.3966 62.2401 59.4023 62.2058 59.4146 62.1736C59.4268 62.1413 59.4453 62.1118 59.4689 62.0867C59.4925 62.0616 59.5208 62.0414 59.5523 62.0272C59.5837 62.0131 59.6176 62.0053 59.652 62.0043C59.6864 62.0033 59.7207 62.009 59.7529 62.0213C63.6269 63.5033 67.995 63.0036 71.8494 62.5517C75.8214 62.0901 79.9296 61.6149 83.7411 60.2262C85.6192 59.5436 87.4729 58.6239 89.2664 57.7325C92.7812 55.9878 96.4161 54.1841 100.389 54.0908C100.458 54.0916 100.524 54.1184 100.573 54.1658C100.623 54.2132 100.653 54.2777 100.657 54.3462C100.658 54.4157 100.632 54.483 100.585 54.5334C100.537 54.5838 100.471 54.6132 100.402 54.6151C96.5449 54.7047 92.9626 56.4826 89.4993 58.2028C87.6923 59.0991 85.8215 60.0261 83.9201 60.7186C80.0448 62.1281 75.9048 62.6082 71.9058 63.0711C69.9761 63.2982 67.9177 63.5364 65.8434 63.5364Z" fill="#8A5245"/>
<path d="M92.7329 64.186C92.6756 64.1845 92.6204 64.1642 92.5757 64.1283C92.531 64.0924 92.4993 64.0428 92.4854 63.9871C92.4715 63.9314 92.4762 63.8727 92.4987 63.8199C92.5213 63.7671 92.5605 63.7232 92.6103 63.6949C98.441 60.5772 105.078 59.3031 111.647 60.0409C111.714 60.0506 111.775 60.0863 111.816 60.1402C111.858 60.1942 111.877 60.2622 111.869 60.3298C111.861 60.3974 111.827 60.4593 111.775 60.5024C111.722 60.5454 111.654 60.5662 111.587 60.5602C105.124 59.8363 98.5947 61.0901 92.858 64.1565C92.8193 64.1764 92.7764 64.1866 92.7329 64.186Z" fill="#8A5245"/>
<path d="M131.256 52.3623C131.199 52.3625 131.144 52.344 131.098 52.3096C131.053 52.2752 131.02 52.2269 131.005 52.172C130.246 49.514 128.669 47.1636 126.499 45.4553C124.328 43.7471 121.675 42.768 118.917 42.6576C118.85 42.6512 118.789 42.6194 118.744 42.5688C118.7 42.5183 118.677 42.4527 118.68 42.3856C118.683 42.3185 118.711 42.2549 118.759 42.208C118.807 42.1611 118.871 42.1344 118.938 42.1333C121.806 42.2483 124.565 43.2666 126.822 45.0432C129.079 46.8198 130.718 49.2642 131.508 52.0283C131.526 52.0952 131.518 52.1669 131.484 52.2277C131.451 52.2884 131.394 52.3333 131.327 52.3524C131.304 52.3587 131.28 52.362 131.256 52.3623Z" fill="#8A5245"/>
<path d="M129.272 62.2621C129.208 62.262 129.147 62.2384 129.099 62.1959C129.051 62.1534 129.02 62.0949 129.012 62.0313C128.539 58.0003 127.609 54.5907 126.166 51.6058C124.492 48.1422 122.111 45.3182 119.284 43.4482C119.227 43.4099 119.186 43.3502 119.172 43.2822C119.158 43.2141 119.172 43.1433 119.21 43.0854C119.248 43.0274 119.308 42.987 119.376 42.9731C119.444 42.9592 119.515 42.9728 119.573 43.0111C122.479 44.9363 124.921 47.8291 126.636 51.375C128.108 54.4126 129.053 57.8825 129.532 61.9674C129.54 62.0364 129.52 62.1058 129.477 62.1603C129.434 62.2148 129.372 62.2501 129.303 62.2584L129.272 62.2621Z" fill="#8A5245"/>
<path d="M98.9918 193.445C98.9069 193.444 98.8256 193.411 98.7654 193.351C98.7053 193.291 98.6712 193.209 98.6706 193.124C98.6522 187.67 98.662 182.024 98.6706 176.563C98.6963 160.97 98.7233 144.843 98.1213 129.446C98.118 129.361 98.1486 129.278 98.2062 129.215C98.2639 129.153 98.3441 129.115 98.4291 129.112C98.5137 129.11 98.5957 129.142 98.6578 129.199C98.72 129.257 98.7575 129.337 98.7625 129.421C99.3644 144.83 99.3375 160.963 99.3117 176.57C99.3032 182.028 99.2946 187.674 99.3117 193.127C99.3119 193.169 99.3037 193.211 99.2878 193.25C99.2718 193.289 99.2482 193.325 99.2185 193.355C99.1888 193.385 99.1535 193.408 99.1146 193.425C99.0757 193.441 99.0339 193.449 98.9918 193.45V193.445Z" fill="#518DBB"/>
<g style="mix-blend-mode:multiply">
<g style="mix-blend-mode:multiply">
<path d="M126.259 191.183C123.759 183.948 121.943 171.387 123.186 163.832C123.587 161.4 124.252 157.465 124.827 154.278C124.402 155.25 123.687 156.989 123.222 157.943C121.659 161.151 120.533 164.589 119.21 167.905C117.163 173.035 115.234 178.833 111.057 182.667C107.773 185.68 103.529 187.485 99.2393 188.515C94.6211 189.62 89.7995 189.924 85.0648 189.587C80.926 189.294 76.737 188.555 72.8716 187.009C72.3248 189.568 71.6681 192.156 70.9015 194.772C70.3277 196.717 69.9207 197.46 71.7952 198.824C73.5581 200.11 77.2261 199.929 79.2931 200.041C94.9938 200.931 110.75 201.82 125.839 198.053C129.665 197.095 127.245 194.036 126.259 191.183Z" fill="#E4EAF3"/>
</g>
</g>
<path d="M108.65 142.872C108.643 143.644 108.657 144.867 108.65 145.64C108.642 145.692 108.645 145.746 108.66 145.797C108.674 145.849 108.7 145.896 108.735 145.937C108.809 145.987 108.899 146.008 108.988 145.996L121.807 145.85C121.873 144.857 121.94 143.865 122.007 142.872H108.65Z" fill="#518DBB"/>
<path d="M94.069 230.049C94.1781 229.537 94.2811 229.022 94.3939 228.513C96.1224 220.686 92.1957 212.674 85.6222 210.612C79.0487 208.551 72.3194 213.229 70.5896 221.056C70.4641 221.624 70.3676 222.197 70.3003 222.775L70.2782 222.98C70.0159 225.339 69.8001 227.695 69.6162 230.049H94.069Z" fill="#4A403E"/>
<path d="M107.902 230.049H132.413C132.167 227.62 131.886 225.188 131.568 222.754L131.542 222.55C131.462 221.972 131.352 221.398 131.214 220.831C129.31 213.033 122.476 208.463 115.949 210.624C109.422 212.785 105.677 220.863 107.577 228.661C107.69 229.123 107.793 229.586 107.902 230.049Z" fill="#4A403E"/>
<path d="M116.081 117.919L119.492 195.529L161.634 193.671L161.417 188.739L157.837 188.9L157.904 173.962L157.912 173.17C159.085 169.941 159.26 164.639 157.97 160.591L158.043 144.761L159.434 144.699L160.387 137.423L158.076 137.531L158.175 116.064L116.081 117.919Z" fill="#EFE6E3"/>
<path d="M127.311 154.907L155.743 153.654C155.743 153.654 144.231 158.851 143.472 161.23C143.472 161.23 135.662 156.363 127.311 154.907Z" fill="white"/>
<path d="M158.157 120.295C158.157 120.295 163.568 120.365 169.709 127.662C169.402 127.449 158.146 122.445 139.183 120.678L158.157 120.295Z" fill="white"/>
<path d="M122.252 133.016L133.264 132.555C133.31 132.551 133.355 132.567 133.389 132.597C133.424 132.627 133.445 132.67 133.448 132.716C133.451 132.762 133.436 132.807 133.406 132.842C133.376 132.877 133.333 132.898 133.287 132.901L122.308 133.874C122.251 133.879 122.195 133.873 122.141 133.856C122.087 133.839 122.036 133.812 121.993 133.776C121.95 133.739 121.914 133.695 121.888 133.644C121.862 133.594 121.846 133.539 121.841 133.483C121.836 133.426 121.842 133.37 121.859 133.315C121.876 133.261 121.903 133.211 121.939 133.168C121.976 133.124 122.02 133.088 122.07 133.062C122.12 133.036 122.175 133.02 122.232 133.015L122.252 133.016Z" fill="#E0D5D5"/>
<path d="M121.9 136.648C127.846 136.372 133.781 135.895 139.707 135.218C139.732 135.214 139.757 135.221 139.778 135.236C139.798 135.252 139.811 135.275 139.814 135.3C139.818 135.325 139.811 135.351 139.796 135.371C139.78 135.391 139.758 135.405 139.732 135.408C133.836 136.308 127.91 137.008 121.956 137.506C121.9 137.511 121.843 137.505 121.789 137.487C121.735 137.47 121.685 137.443 121.642 137.406C121.599 137.37 121.563 137.325 121.537 137.274C121.511 137.224 121.496 137.169 121.491 137.113C121.486 137.056 121.492 137 121.51 136.946C121.527 136.892 121.554 136.842 121.591 136.798C121.627 136.755 121.672 136.719 121.722 136.693C121.772 136.667 121.827 136.652 121.884 136.647L121.9 136.648Z" fill="#E0D5D5"/>
<path d="M125.132 168.872C131.338 168.232 137.556 167.758 143.785 167.448C143.82 167.446 143.854 167.458 143.88 167.481C143.906 167.504 143.922 167.536 143.925 167.571C143.926 167.606 143.914 167.639 143.892 167.665C143.869 167.692 143.837 167.708 143.802 167.711C137.591 168.217 131.401 168.887 125.233 169.722C125.177 169.73 125.119 169.726 125.064 169.711C125.01 169.697 124.958 169.671 124.913 169.637C124.868 169.602 124.83 169.559 124.801 169.51C124.773 169.46 124.754 169.406 124.747 169.349C124.739 169.293 124.743 169.236 124.758 169.181C124.772 169.126 124.798 169.074 124.832 169.029C124.867 168.984 124.91 168.946 124.959 168.917C125.008 168.889 125.063 168.87 125.119 168.863L125.132 168.872Z" fill="#E0D5D5"/>
<path d="M133.138 171.607C135.1 171.251 137.061 170.979 139.032 170.722C141.002 170.464 142.972 170.249 144.944 170.044C146.917 169.839 148.894 169.675 150.875 169.553L153.848 169.371C154.841 169.34 155.833 169.281 156.829 169.275C156.84 169.275 156.852 169.277 156.862 169.281C156.873 169.286 156.883 169.292 156.891 169.3C156.899 169.308 156.906 169.318 156.91 169.329C156.915 169.339 156.917 169.351 156.917 169.362C156.918 169.383 156.911 169.403 156.898 169.419C156.885 169.435 156.867 169.446 156.847 169.45C155.866 169.641 154.886 169.781 153.905 169.949L150.955 170.363C148.994 170.634 147.017 170.854 145.044 171.056C143.07 171.257 141.095 171.439 139.114 171.568C137.133 171.696 135.153 171.831 133.164 171.872C133.131 171.872 133.1 171.861 133.075 171.839C133.051 171.817 133.035 171.787 133.032 171.754C133.029 171.722 133.038 171.689 133.057 171.662C133.076 171.636 133.105 171.618 133.137 171.612L133.138 171.607Z" fill="#E0D5D5"/>
<path d="M157.912 173.17L157.905 173.962L148.388 174.494C148.361 174.495 148.335 174.492 148.31 174.483C148.285 174.474 148.262 174.461 148.242 174.443C148.222 174.426 148.206 174.404 148.194 174.381C148.183 174.357 148.176 174.331 148.175 174.304C148.17 174.252 148.186 174.201 148.22 174.161C148.254 174.121 148.302 174.095 148.354 174.091H148.362L157.912 173.17Z" fill="#E0D5D5"/>
<path d="M124.728 183.414L132.583 182.35C132.62 182.347 132.657 182.358 132.687 182.38C132.717 182.403 132.737 182.437 132.743 182.474C132.749 182.511 132.741 182.548 132.72 182.58C132.7 182.611 132.668 182.634 132.632 182.642L124.873 184.261C124.761 184.284 124.645 184.262 124.55 184.199C124.454 184.137 124.388 184.039 124.365 183.927C124.341 183.816 124.363 183.699 124.426 183.604C124.488 183.508 124.586 183.442 124.697 183.418L124.728 183.414Z" fill="#E0D5D5"/>
<path d="M124.066 186.32L140.671 184.858C140.689 184.857 140.706 184.859 140.723 184.864C140.74 184.87 140.755 184.878 140.769 184.89C140.782 184.901 140.793 184.915 140.801 184.931C140.809 184.947 140.813 184.964 140.815 184.981C140.817 185.016 140.805 185.051 140.782 185.078C140.759 185.105 140.727 185.121 140.692 185.125L124.166 187.175H124.154C124.098 187.182 124.04 187.178 123.986 187.163C123.931 187.148 123.88 187.122 123.835 187.087C123.79 187.052 123.753 187.008 123.725 186.959C123.697 186.909 123.679 186.855 123.672 186.798C123.665 186.742 123.669 186.685 123.685 186.63C123.7 186.575 123.726 186.524 123.761 186.479C123.796 186.434 123.839 186.397 123.888 186.369C123.938 186.341 123.992 186.323 124.049 186.316L124.066 186.32Z" fill="#E0D5D5"/>
<path d="M121.338 117.687L87.3243 119.186C87.5303 122.073 87.7363 124.931 87.7375 124.939C85.5308 125.286 83.8341 126.282 82.5566 127.311L87.9729 128.147L89.4023 147.792L89.5176 149.431L89.9135 154.922L89.9761 155.737L90.2899 160.063L88.4816 160.143L89.3484 170.579L91.05 170.51C90.2298 173.781 90.6565 181.162 92.1055 185.031L92.1668 185.854L92.9527 196.698L124.749 195.298C124.244 183.794 125.305 175.295 124.8 163.801C124.495 156.861 122.623 146.924 122.319 139.992L121.338 117.687Z" fill="#F7F3F1"/>
<path d="M107.516 147.596C107.517 147.642 107.5 147.686 107.47 147.721C107.439 147.756 107.397 147.778 107.352 147.783H107.343L90.3809 149.38L90.2656 147.74L107.327 147.41C107.352 147.41 107.376 147.414 107.399 147.423C107.422 147.432 107.443 147.446 107.46 147.463C107.478 147.48 107.492 147.501 107.502 147.524C107.511 147.547 107.516 147.571 107.516 147.596Z" fill="#EFE6E3"/>
<path d="M103.298 154.033C103.298 154.067 103.285 154.099 103.263 154.124C103.24 154.149 103.209 154.165 103.176 154.168C99.0327 154.412 94.9099 154.924 90.8328 155.699L90.7715 154.884C94.878 154.3 99.0173 153.977 103.165 153.917C103.197 153.917 103.228 153.929 103.253 153.95C103.277 153.972 103.293 154.001 103.298 154.033Z" fill="#EFE6E3"/>
<path d="M111.821 183.705C111.824 183.743 111.812 183.781 111.788 183.811C111.764 183.841 111.729 183.861 111.691 183.865H111.683L93.0244 185.816L92.9619 184.993L111.66 183.571C111.679 183.569 111.699 183.571 111.717 183.577C111.736 183.582 111.753 183.592 111.768 183.604C111.783 183.617 111.795 183.632 111.804 183.649C111.813 183.666 111.819 183.685 111.821 183.705Z" fill="#EFE6E3"/>
<path d="M99.3205 129.452C100.047 129.285 100.779 129.154 101.512 129.033C102.246 128.913 102.984 128.822 103.719 128.714C104.455 128.606 105.19 128.54 105.934 128.479C106.679 128.417 107.418 128.375 108.166 128.38C108.202 128.381 108.237 128.395 108.263 128.421C108.289 128.447 108.303 128.482 108.303 128.519C108.303 128.55 108.293 128.579 108.274 128.603C108.255 128.627 108.228 128.644 108.199 128.652C107.474 128.837 106.741 128.966 106.009 129.095C105.277 129.224 104.538 129.321 103.803 129.401C103.067 129.48 102.331 129.576 101.586 129.623C100.841 129.669 100.104 129.732 99.3572 129.746C99.3205 129.746 99.2848 129.733 99.2571 129.709C99.2294 129.685 99.2116 129.651 99.2071 129.615C99.2027 129.578 99.212 129.542 99.2331 129.511C99.2543 129.481 99.2859 129.46 99.3217 129.452H99.3205Z" fill="#EFE6E3"/>
<path d="M134.315 177.726L86.7314 179.823L88.2138 213.557L135.797 211.459L134.315 177.726Z" fill="#DFA775"/>
<g style="mix-blend-mode:multiply">
<g style="mix-blend-mode:multiply">
<path d="M130.415 194.78C131.634 189.278 134.315 177.725 134.315 177.725L86.7324 179.823L87.468 196.522C94.6864 196.14 127.409 195.005 130.415 194.78Z" fill="#F4F0EC"/>
</g>
</g>
<path d="M163.024 176.461L134.314 177.727L135.797 211.46L164.506 210.195L163.024 176.461Z" fill="#D8996E"/>
<g style="mix-blend-mode:multiply">
<g style="mix-blend-mode:multiply">
<path d="M163.756 193.102L163.02 176.46L134.31 177.725C134.31 177.725 137.171 189.01 139.06 194.248C147.3 193.952 155.523 193.424 163.756 193.102Z" fill="#F4F0EC"/>
</g>
</g>
<path d="M81.2969 194.195L128.88 192.098L134.315 177.725L86.7327 179.823L81.2969 194.195Z" fill="#E9BD86"/>
<path d="M169.701 190.298L140.992 191.564L134.315 177.725L163.026 176.46L169.701 190.298Z" fill="#E4AD79"/>
<path d="M107.805 216C109.521 215.437 113.791 214.219 113.979 212.421C112.234 212.352 104.631 212.773 103.17 212.782C101.055 212.794 100.711 211.378 102.084 210.347C103.274 209.453 105.538 208.239 106.314 206.926C106.484 206.64 106.629 206.312 106.583 205.984C106.471 205.175 105.397 204.96 104.587 205.061C102.361 205.339 100.598 206.19 97.9375 207.082C96.5142 207.56 94.4055 206.811 92.9626 206.395C91.6913 206.026 91.0869 205.56 89.8168 205.193C88.9587 204.947 87.2963 203.575 86.4308 203.857C84.9719 204.329 84.9731 207.108 84.7144 208.303C84.5171 209.228 83.2764 211.74 84.1909 212.128C86.7299 213.21 90.1564 214.37 91.7011 215.159C96.2825 217.493 99.1794 218.824 107.805 216Z" fill="#F2BFA8"/>
<path d="M92.4258 202.502C90.7451 202.059 88.8976 201.481 87.0905 200.871C85.1523 200.215 83.2116 199.51 81.2869 198.77C77.4423 197.285 73.6394 195.662 70.0646 193.883C68.2833 192.994 66.5559 192.06 64.9965 191.095C64.2168 190.613 63.4898 190.121 62.856 189.645C62.6721 189.507 62.5005 189.37 62.335 189.235C62.4576 188.621 62.6365 187.884 62.8548 187.117C63.1 186.267 63.3758 185.371 63.681 184.46C64.9193 180.792 66.4836 176.955 68.13 173.149C69.7765 169.343 71.5443 165.514 73.3575 161.707C75.1706 157.899 77.0463 154.103 78.9588 150.326L81.8582 144.678C82.8279 142.819 83.8295 140.915 84.7857 139.175C84.8973 138.969 85.0162 138.736 85.1155 138.519C86.223 136.045 86.3106 133.232 85.3592 130.694C84.4077 128.155 82.4942 126.095 80.0345 124.961C77.5748 123.827 74.7677 123.712 72.2234 124.639C69.679 125.567 67.6031 127.463 66.4468 129.915V129.928C65.4783 132.034 64.6079 134.008 63.7325 136.033L61.1482 142.07C59.4515 146.105 57.7985 150.163 56.1893 154.245C54.5845 158.335 53.0251 162.457 51.5478 166.659C50.0706 170.86 48.6656 175.12 47.4679 179.708C47.1712 180.862 46.8892 182.041 46.6355 183.288C46.3817 184.536 46.1512 185.835 45.9931 187.34C45.905 188.185 45.862 189.034 45.8643 189.883C45.8889 190.875 45.8975 191.939 46.3339 193.635C46.761 195.15 47.4807 196.566 48.4523 197.803C49.08 198.607 49.7815 199.35 50.5475 200.023C51.6926 201.022 52.9233 201.917 54.2253 202.699C55.3838 203.407 56.5068 204.014 57.6114 204.566C59.8181 205.671 61.9794 206.584 64.131 207.426C68.4291 209.099 72.6942 210.475 77.0034 211.709C79.1574 212.322 81.3212 212.895 83.5157 213.427C84.581 213.682 85.6464 213.919 86.735 214.152C88.6732 210.285 90.6421 206.436 92.4258 202.502Z" fill="#FFC702"/>
<path d="M61.3635 188.223C61.4711 188.341 61.5645 188.472 61.6418 188.612C61.5609 188.53 61.4861 188.451 61.4321 188.384C61.3108 188.236 61.2642 188.134 61.3635 188.223Z" fill="#4179A6"/>
<path d="M121.58 -1.07007C114.75 3.73636 108.351 9.12925 102.455 15.0475C104.361 16.8807 106.328 18.6561 108.311 20.4057C112.112 23.7515 116.004 27.0261 120.176 29.8943C121.7 30.9416 123.207 32.0405 124.886 32.83C126.139 33.4194 128.825 34.5048 129.987 33.2843C135.003 26.4503 140.251 20.3075 146.098 14.1721C138.085 11.1406 127.688 4.49318 121.58 -1.07007Z" fill="#F7F3F1"/>
<path d="M146.784 12.2332C146.416 11.6193 145.732 11.0557 145.37 10.8028C144.84 10.4336 144.25 10.1594 143.626 9.99245C143.315 9.90848 142.997 9.853 142.676 9.8267C142.528 9.81442 141.552 9.6634 141.45 9.78004C136.163 16.0186 131.301 22.332 126.4 28.4846C127.685 28.1519 129.696 29.2385 130.078 30.4013C130.388 31.3442 130.339 32.1927 129.981 33.2842C129.981 33.2842 139.131 21.1288 146.777 13.6391C147.183 13.2314 147.081 12.7182 146.784 12.2332Z" fill="#E9E0DF"/>
<path d="M110.002 14.9911L119.617 5.75049" stroke="#EFE6E3" stroke-width="8.94" stroke-linecap="round" stroke-linejoin="round"/>
<path d="M114.7 20.467C117.691 17.0553 120.834 13.7852 124.129 10.6567" stroke="#EFE6E3" stroke-width="8.94" stroke-linecap="round" stroke-linejoin="round"/>
<path d="M117.386 22.8699C121.602 18.4498 125.723 13.9384 129.749 9.33569" stroke="#EFE6E3" stroke-width="8.94" stroke-linecap="round" stroke-linejoin="round"/>
<path d="M119.854 24.7559C123.621 20.2343 127.483 15.7941 131.44 11.4353" stroke="#EFE6E3" stroke-width="8.94" stroke-linecap="round" stroke-linejoin="round"/>
<path d="M45.4422 132.637L41.0999 115.795C41.0153 115.464 40.9197 115.116 40.6794 114.873C40.3974 114.587 39.9732 114.505 39.576 114.452C35.6751 113.942 31.7238 115.014 28.1146 116.577C21.2995 119.542 15.3688 124.226 10.9023 130.173C13.7944 136.066 16.8555 141.88 19.7488 147.776C19.7476 147.771 31.1673 129.677 45.4422 132.637Z" fill="#F7F3F1"/>
<path d="M68.9908 6.93162L63.8602 -7.67943C63.7584 -7.96674 63.6469 -8.26879 63.3698 -8.47997C63.0351 -8.72554 62.5337 -8.79921 62.0629 -8.84832C57.4534 -9.29033 52.785 -8.35719 48.5187 -7.00659C40.5034 -4.45886 33.4174 -0.353036 28.1777 4.78048C31.5957 9.89312 35.2147 14.9333 38.6326 20.046C38.6265 20.0558 52.1229 4.36548 68.9908 6.93162Z" fill="#F7F3F1"/>
<path d="M33.5915 70.0588C28.9745 70.7525 25.114 74.1511 25.4034 78.9322C21.7893 80.133 10.9494 82.9521 6.92586 83.8042C6.58873 80.8194 9.20367 73.3604 12.1852 70.0526C15.3653 66.6147 18.847 64.1173 22.9846 64.6035C24.783 64.8147 28.8691 66.5533 30.3905 67.5307C31.7771 68.4257 33.9102 70.0109 33.5915 70.0588Z" fill="#EFE6E3"/>
<path d="M36.587 73.8576C38.8734 76.9775 39.4435 80.8034 39.8468 84.7201C39.8566 84.8233 39.8677 84.9264 39.8787 85.0295C45.9202 81.7906 50.9539 78.236 57.2675 74.5366C54.6661 63.8141 41.5104 55.4747 30.4034 58.8881C22.1687 61.4186 16.9179 64.5495 12.1895 70.0612C15.7668 68.0967 20.049 66.638 24.1437 67.306C28.1292 67.9543 32.1614 69.3675 35.1355 72.2025C35.6672 72.7102 36.153 73.2641 36.587 73.8576Z" fill="#F7F3F1"/>
<path d="M41.5107 77.9574L52.3653 71.116" stroke="#EFE6E3" stroke-width="9.31" stroke-linecap="round" stroke-linejoin="round"/>
<path d="M39.6836 73.7028C43.0856 71.1023 46.1811 69.1599 48.9873 67.4324" stroke="#EFE6E3" stroke-width="9.31" stroke-linecap="round" stroke-linejoin="round"/>
<path d="M36.9014 69.6879C37.8392 68.9414 42.3826 65.932 43.5583 65.1523" stroke="#EFE6E3" stroke-width="9.31" stroke-linecap="round" stroke-linejoin="round"/>
<path d="M192.773 31.2647C197.482 31.9731 201.419 35.4393 201.124 40.3149C204.81 41.5427 215.866 44.4146 219.969 45.2839C220.314 42.2389 217.647 34.6314 214.606 31.2647C211.362 27.7592 207.812 25.2115 203.592 25.7076C201.753 25.9224 197.595 27.6954 196.038 28.6924C194.623 29.6022 192.448 31.2156 192.773 31.2647Z" fill="#EFE6E3"/>
<path d="M189.717 35.1396C187.388 38.3208 186.804 42.2228 186.394 46.2169L186.361 46.5337C180.199 43.2309 175.065 39.6051 168.626 35.8308C171.279 24.8946 184.696 16.3895 196.03 19.8692C204.429 22.4476 209.781 25.6399 214.606 31.2621C210.958 29.2571 206.591 27.7714 202.413 28.4516C198.349 29.1134 194.236 30.5549 191.204 33.4464C190.659 33.9655 190.162 34.5322 189.717 35.1396Z" fill="#F7F3F1"/>
<path d="M184.695 39.3202L173.626 32.3425" stroke="#EFE6E3" stroke-width="9.5" stroke-linecap="round" stroke-linejoin="round"/>
<path d="M186.558 34.9812C183.089 32.3291 179.93 30.3523 177.07 28.5854" stroke="#EFE6E3" stroke-width="9.5" stroke-linecap="round" stroke-linejoin="round"/>
<path d="M189.4 30.8864C188.442 30.1252 183.809 27.0556 182.61 26.2612" stroke="#EFE6E3" stroke-width="9.5" stroke-linecap="round" stroke-linejoin="round"/>
<path d="M186.099 135.04C184.856 131.892 181.831 129.718 178.51 130.703C177.074 128.346 173.316 121.147 172.059 118.443C174.107 117.717 179.782 118.345 182.602 119.917C185.544 121.603 187.873 123.654 188.204 126.657C188.35 127.964 187.792 131.132 187.346 132.369C186.958 133.492 186.186 135.257 186.099 135.04Z" fill="#EFE6E3"/>
<path d="M183.912 137.779C182.088 139.903 179.487 140.932 176.792 141.857L176.58 141.929C179.848 145.669 183.174 148.647 186.813 152.503C193.942 148.913 197.669 138.26 193.448 130.96C190.319 125.557 187.257 122.356 182.602 119.909C184.571 122.12 186.297 124.904 186.497 127.907C186.69 130.83 186.353 133.91 184.842 136.474C184.571 136.936 184.26 137.373 183.912 137.779Z" fill="#F7F3F1"/>
<path d="M181.83 141.928L188.428 148.48" stroke="#EFE6E3" stroke-width="6.75" stroke-linecap="round" stroke-linejoin="round"/>
<path d="M184.528 139.941C186.916 141.921 188.787 143.792 190.466 145.491" stroke="#EFE6E3" stroke-width="6.75" stroke-linecap="round" stroke-linejoin="round"/>
<path d="M186.902 137.317C187.582 137.859 190.444 140.577 191.185 141.281" stroke="#EFE6E3" stroke-width="6.75" stroke-linecap="round" stroke-linejoin="round"/>
<path d="M191.738 66.854C184.214 72.1486 177.165 78.0892 170.67 84.6083C172.77 86.6293 174.935 88.584 177.121 90.5104C181.3 94.1939 185.592 97.8012 190.187 100.959C191.865 102.113 193.524 103.324 195.374 104.193C196.754 104.842 199.711 106.035 200.991 104.694C206.515 97.1676 212.295 90.4024 218.733 83.6444C209.914 80.3023 198.465 72.9808 191.738 66.854Z" fill="#F7F3F1"/>
<path d="M219.496 81.5047C219.085 80.8331 218.337 80.2093 217.938 79.9306C217.354 79.5238 216.704 79.2214 216.016 79.0368C215.674 78.9457 215.325 78.8849 214.972 78.8551C214.808 78.8415 213.733 78.6746 213.623 78.8047C207.8 85.6744 202.446 92.6275 197.05 99.4026C198.465 99.0343 200.679 100.234 201.095 101.513C201.436 102.552 201.382 103.488 200.988 104.69C200.988 104.69 211.065 91.3064 219.479 83.0481C219.935 82.6048 219.822 82.04 219.496 81.5047Z" fill="#E9E0DF"/>
<path d="M178.988 84.5372L189.578 74.3599" stroke="#EFE6E3" stroke-width="9.84" stroke-linecap="round" stroke-linejoin="round"/>
<path d="M184.161 90.5719C187.456 86.8156 190.918 83.214 194.546 79.7671" stroke="#EFE6E3" stroke-width="9.84" stroke-linecap="round" stroke-linejoin="round"/>
<path d="M187.12 93.2192C191.763 88.3472 196.302 83.379 200.736 78.3147" stroke="#EFE6E3" stroke-width="9.84" stroke-linecap="round" stroke-linejoin="round"/>
<path d="M189.837 95.2965C193.986 90.3164 198.24 85.426 202.598 80.6252" stroke="#EFE6E3" stroke-width="9.84" stroke-linecap="round" stroke-linejoin="round"/>
</svg>
