<svg width="222" height="539" viewBox="0 0 222 539" fill="none" xmlns="http://www.w3.org/2000/svg">
<path d="M103.986 532.936H103.849H102.893L98.6578 533.893L77.0723 534.44C74.0667 534.166 71.1066 533.483 68.1921 532.389H67.6457C67.1903 533.3 67.0992 534.394 67.3724 535.67C67.1903 535.944 68.1011 536.263 70.1048 536.628L86.4988 538.542L103.439 536.217L103.986 532.936ZM143.332 536.628C145.244 536.263 146.201 535.944 146.201 535.67C146.292 534.394 146.201 533.3 145.927 532.389H145.108C142.284 533.483 139.324 534.166 136.228 534.44L114.642 533.893L110.543 532.936H109.587H109.314L109.86 536.217L126.938 538.542L143.332 536.628Z" fill="#333333"/>
<path d="M102.758 531.978C102.484 530.246 102.12 528.97 101.665 528.149C101.209 527.329 100.617 526.964 99.8886 527.055C99.7065 525.505 99.2056 524.503 98.3859 524.047C97.6572 523.682 96.3366 523.409 94.4239 523.226L79.2594 523.637C76.8914 523.91 75.1609 525.05 74.0679 527.055C71.0623 527.146 69.1041 528.924 68.1934 532.388C71.1079 533.482 74.0679 534.166 77.0735 534.439L98.6591 533.892L102.894 532.935L102.758 532.388C102.758 532.297 102.758 532.16 102.758 531.978ZM139.234 527.055C138.233 525.05 136.548 523.91 134.18 523.637L119.015 523.226C117.011 523.409 115.645 523.682 114.917 524.047C114.188 524.503 113.687 525.505 113.414 527.055C112.685 526.964 112.093 527.329 111.638 528.149C111.182 528.97 110.818 530.246 110.545 531.978C110.545 532.16 110.545 532.297 110.545 532.388V532.935L114.643 533.892L136.229 534.439C139.326 534.166 142.286 533.482 145.109 532.388C144.198 528.924 142.24 527.146 139.234 527.055ZM118.742 517.757H118.605L118.742 520.355C124.662 517.073 130.628 517.164 136.639 520.628V518.167C130.628 514.703 124.662 514.566 118.742 517.757ZM139.644 500.253V499.159H139.508C138.506 499.342 137.504 499.569 136.502 499.843C130.582 500.755 125.436 500.208 121.064 498.202L116.01 496.424C116.01 496.789 116.055 497.199 116.146 497.655L116.283 501.621L116.966 504.492L117.102 505.039V505.176L116.01 506.27L116.146 506.407L117.512 507.227C121.611 508.777 124.935 509.597 127.485 509.689H133.77L136.229 509.278C136.775 509.005 137.732 508.23 139.098 506.954C139.371 507.136 139.599 505.905 139.781 503.262L139.644 500.253ZM139.644 500.253L139.781 499.433L139.644 499.159V500.253ZM76.8003 518.167V520.628C82.7204 517.164 88.6405 517.073 94.5606 520.355L94.6972 517.757C88.7771 514.566 82.8114 514.703 76.8003 518.167ZM73.6581 499.159V500.253L73.5215 503.262C73.7036 505.905 73.9313 507.136 74.2045 506.954C75.5707 508.23 76.527 509.005 77.0735 509.278L79.5326 509.689H85.817C88.4583 509.597 91.7827 508.777 95.7901 507.227L97.1563 506.407L97.2929 506.27L96.2 505.176V505.039L96.3366 504.492L97.1563 501.621V497.655C97.2474 497.199 97.2929 496.789 97.2929 496.424L92.2381 498.202C88.0485 500.208 83.0391 500.8 77.2101 499.98C77.119 499.889 77.028 499.843 76.9369 499.843C75.844 499.569 74.7966 499.342 73.7947 499.159H73.6581ZM73.6581 500.253V499.159L73.5215 499.433L73.6581 500.253Z" fill="#E3E3E3"/>
<path d="M148.797 404.532C148.524 404.532 148.16 404.623 147.704 404.805C147.838 405.712 147.929 406.897 147.977 408.361C148.045 408.874 148.09 409.42 148.114 410.002C148.205 412.264 148.251 415.044 148.251 418.343C148.251 426.183 148.114 430.65 147.841 431.744C147.476 433.294 145.883 435.938 143.059 439.675L144.289 439.402L144.972 439.128C145.7 438.673 146.292 438.353 146.748 438.171L148.524 437.898C149.344 437.715 150.072 437.305 150.71 436.667C151.712 435.755 152.349 434.388 152.622 432.565C152.805 432.109 152.941 431.562 153.032 430.924C153.123 429.374 153.078 427.505 152.896 425.317C152.713 424.588 152.577 423.813 152.486 422.992C153.123 419.802 153.169 416.52 152.622 413.147L151.803 408.361V407.95C151.347 406.218 151.12 404.122 151.12 401.66C150.755 402.936 149.981 403.894 148.797 404.532ZM65.597 404.805C65.3238 404.623 64.9594 404.532 64.5041 404.532C63.4111 403.894 62.637 402.936 62.1816 401.66C62.1816 404.122 61.9994 406.218 61.6351 407.95V408.361L60.6788 413.147C60.1323 416.52 60.2234 419.802 60.952 422.992C60.7698 423.813 60.6788 424.588 60.6788 425.317C60.3145 427.505 60.2234 429.374 60.4055 430.924C60.4966 431.562 60.5877 432.109 60.6788 432.565C61.0431 434.388 61.7262 435.755 62.728 436.667C63.2745 437.305 63.9576 437.715 64.7773 437.898L66.6899 438.171C67.1453 438.353 67.7829 438.673 68.6026 439.128L69.149 439.402L70.242 439.675C67.4186 435.938 65.8247 433.294 65.4604 431.744C65.2782 430.65 65.1871 426.183 65.1871 418.343C65.1871 411.779 65.3238 407.267 65.597 404.805ZM73.6574 360.363C71.9269 359.999 70.4241 359.679 69.149 359.406V359.543C69.058 360.181 68.9669 360.865 68.8758 361.594C68.8758 361.959 68.8303 362.414 68.7392 362.961C68.466 364.055 68.1927 365.332 67.9195 366.79C67.1909 370.528 66.5078 373.992 65.8702 377.183C65.5059 379.006 65.1416 380.784 64.7773 382.516V382.653C64.5951 383.017 64.4585 383.428 64.3674 383.883C64.1853 384.613 64.0487 385.342 63.9576 386.071C63.7754 386.345 63.6843 386.573 63.6843 386.755C63.5022 387.667 63.32 388.487 63.1379 389.216C63.0468 389.399 63.0013 389.581 63.0013 389.763C63.0013 389.946 63.0468 390.082 63.1379 390.174L66.9632 390.994C67.6918 386.983 68.7392 381.969 70.1054 375.952C71.7448 368.568 72.9288 363.372 73.6574 360.363ZM147.431 377.183C146.793 373.992 146.11 370.528 145.382 366.79C145.108 365.332 144.881 364.055 144.699 362.961C144.699 362.414 144.607 361.959 144.425 361.594C144.334 360.865 144.289 360.181 144.289 359.543C143.014 359.725 141.465 359.999 139.644 360.363C140.372 363.463 141.556 368.659 143.196 375.952C144.562 381.969 145.655 386.983 146.475 390.994L150.163 390.174C150.254 390.082 150.3 389.946 150.3 389.763C150.3 389.581 150.3 389.399 150.3 389.216C150.118 388.487 149.936 387.667 149.753 386.755C149.662 386.573 149.571 386.345 149.48 386.071C149.298 385.342 149.116 384.613 148.934 383.883C148.843 383.428 148.752 383.017 148.66 382.653V382.516C148.205 380.784 147.795 379.006 147.431 377.183Z" fill="#33455E"/>
<path d="M139.095 506.954C137.729 508.23 136.773 509.005 136.226 509.279C138.139 512.469 137.547 513.837 134.45 513.381C139.186 516.845 140.78 521.403 139.232 527.055C142.238 527.147 144.196 528.924 145.107 532.389L145.926 532.252C144.833 521.95 142.556 513.518 139.095 506.954ZM116.144 506.407L116.007 506.27L113.275 512.697C112.364 514.794 111.59 517.438 110.952 520.629C110.679 521.722 110.451 522.862 110.269 524.047C110.087 525.415 109.95 526.554 109.859 527.466C109.495 530.109 109.404 531.614 109.586 531.978C109.677 532.525 109.677 532.844 109.586 532.935H110.542V532.389C110.542 532.297 110.542 532.161 110.542 531.978C110.816 530.246 111.18 528.97 111.635 528.149C112.091 527.329 112.683 526.964 113.411 527.055C113.685 519.215 116.235 514.657 121.062 513.381C117.692 512.652 116.235 511.649 116.69 510.373L117.51 507.228L116.144 506.407ZM97.2905 506.27L97.1539 506.407L95.7877 507.228L96.744 510.373C97.1083 511.649 95.6511 512.652 92.3723 513.381C97.1994 514.657 99.7041 519.215 99.8862 527.055C100.615 526.964 101.207 527.329 101.662 528.149C102.118 528.97 102.482 530.246 102.755 531.978C102.755 532.161 102.755 532.297 102.755 532.389L102.892 532.935H103.848C103.848 532.844 103.848 532.525 103.848 531.978C103.939 531.614 103.803 530.109 103.438 527.466C103.347 526.554 103.211 525.415 103.028 524.047C102.846 522.862 102.71 521.722 102.619 520.629C101.89 517.438 101.116 514.794 100.296 512.697L97.2905 506.27ZM78.8472 513.381C75.7505 513.837 75.1585 512.469 77.0711 509.279C76.5247 509.005 75.5683 508.23 74.2022 506.954C70.7412 513.518 68.5553 521.95 67.6445 532.252L68.191 532.389C69.1018 528.924 71.06 527.147 74.0655 527.055C72.6083 521.403 74.2022 516.845 78.8472 513.381Z" fill="#E04549"/>
<path d="M116.693 510.373C116.238 511.649 117.695 512.652 121.065 513.381C116.238 514.657 113.688 519.215 113.415 527.056C113.688 525.506 114.189 524.503 114.917 524.047C115.646 523.682 117.012 523.409 119.016 523.227L134.18 523.637C136.548 523.91 138.233 525.05 139.235 527.056C140.784 521.403 139.19 516.845 134.454 513.381C137.55 513.837 138.142 512.469 136.23 509.279L133.771 509.689H127.486C124.936 509.598 121.612 508.777 117.513 507.228L116.693 510.373ZM118.606 517.757H118.743C124.663 514.566 130.628 514.703 136.64 518.167V520.629C130.628 517.164 124.663 517.073 118.743 520.355L118.606 517.757ZM79.5336 509.689L77.0745 509.279C75.1618 512.469 75.7538 513.837 78.8505 513.381C74.2055 516.845 72.6116 521.403 74.0689 527.056C75.1618 525.05 76.8923 523.91 79.2603 523.637L94.4248 523.227C96.3375 523.409 97.6581 523.682 98.3868 524.047C99.2065 524.503 99.7074 525.506 99.8895 527.056C99.7074 519.215 97.2027 514.657 92.3756 513.381C95.6544 512.652 97.1117 511.649 96.7473 510.373L95.791 507.228C91.7836 508.777 88.4592 509.598 85.818 509.689H79.5336ZM76.8012 520.629V518.167C82.8124 514.703 88.778 514.566 94.6981 517.757L94.5615 520.355C88.6414 517.073 82.7213 517.164 76.8012 520.629Z" fill="#CC2233"/>
<path d="M117.104 505.04L116.967 504.493C116.967 504.675 117.012 504.903 117.104 505.176V505.04ZM96.3378 504.493L96.2012 505.04V505.176C96.2922 504.903 96.3378 504.675 96.3378 504.493ZM101.119 452.529H100.983C100.983 452.985 101.028 453.395 101.119 453.76C101.119 453.395 101.119 452.985 101.119 452.529Z" fill="#FEBE81"/>
<path d="M81.1695 441.453H80.623L81.716 441.726C81.5338 441.544 81.3517 441.453 81.1695 441.453ZM132.128 441.453C132.037 441.453 131.855 441.544 131.581 441.726L132.674 441.453H132.128Z" fill="#1D2838"/>
<path d="M75.9796 397.831C76.2529 396.464 76.435 394.914 76.5261 393.182L66.9629 390.994L63.1376 390.174C62.9554 390.994 62.7278 391.769 62.4545 392.498V392.635C62.3634 393.091 62.2724 393.501 62.1813 393.866C61.5437 397.239 61.5437 399.837 62.1813 401.66C62.6367 402.936 63.4108 403.894 64.5038 404.532C64.9592 404.532 65.3235 404.623 65.5967 404.805C69.7863 405.079 72.1999 404.942 72.8374 404.395C74.2036 403.21 75.251 401.022 75.9796 397.831ZM137.321 397.831C138.049 401.022 139.142 403.21 140.6 404.395C141.237 404.942 143.605 405.079 147.704 404.805C148.159 404.623 148.523 404.532 148.797 404.532C149.981 403.894 150.755 402.936 151.119 401.66C151.848 399.837 151.848 397.239 151.119 393.866C151.028 393.501 150.937 393.091 150.846 392.635V392.498C150.664 391.769 150.436 390.994 150.163 390.174L146.474 390.994L136.774 393.182C136.957 394.914 137.139 396.464 137.321 397.831ZM107.265 362.004H107.128C106.941 362.01 106.804 362.055 106.719 362.141H106.582C106.494 362.053 106.403 362.007 106.309 362.004C106.309 362.369 106.309 362.688 106.309 362.961C106.491 363.873 106.582 364.785 106.582 365.696V366.38C106.585 366.286 106.63 366.195 106.719 366.107C106.719 365.833 106.719 365.651 106.719 365.56C106.81 364.739 106.901 363.873 106.992 362.961C106.992 362.688 107.083 362.369 107.265 362.004ZM73.6571 360.363C72.9285 363.372 71.7445 368.568 70.1051 375.952C68.7389 381.969 67.6915 386.983 66.9629 390.994L76.5261 393.182C76.435 394.914 76.2529 396.464 75.9796 397.831C75.251 401.022 74.2036 403.21 72.8374 404.395C72.1999 404.942 69.7863 405.079 65.5967 404.805C65.3235 407.267 65.1869 411.779 65.1869 418.343C65.1869 426.183 65.2779 430.65 65.4601 431.744C65.8244 433.294 67.4183 435.938 70.2417 439.675L71.3346 440.086H72.4276L76.5261 441.453L78.8486 441.59L80.6246 441.453H81.1711C81.3532 441.453 81.5354 441.544 81.7176 441.726C81.9908 441.818 82.4007 441.909 82.9471 442L96.199 441.316C96.9276 441.316 97.6563 441.316 98.3849 441.316C98.476 441.316 98.6126 441.316 98.7947 441.316C98.9769 441.316 99.159 441.316 99.3412 441.316H99.4778C100.024 441.225 100.571 441.088 101.117 440.906C101.299 440.906 101.436 440.906 101.527 440.906C101.618 440.906 101.709 440.906 101.8 440.906C101.982 440.815 102.165 440.769 102.347 440.769C105.99 439.493 106.627 429.693 104.259 411.369L106.582 402.891L109.041 411.369C106.673 429.693 107.311 439.493 110.954 440.769C111.136 440.769 111.318 440.815 111.5 440.906H111.91C112.001 440.906 112.138 440.906 112.32 440.906C112.866 441.088 113.367 441.225 113.823 441.316C113.914 441.316 114.05 441.316 114.232 441.316C114.324 441.316 114.415 441.316 114.506 441.316C114.688 441.316 114.824 441.316 114.916 441.316C115.644 441.316 116.373 441.316 117.101 441.316L130.353 442C130.9 441.909 131.31 441.818 131.583 441.726C131.856 441.544 132.038 441.453 132.129 441.453H132.676L134.588 441.59L136.774 441.453L140.873 440.086H142.102L143.059 439.675C145.882 435.938 147.476 433.294 147.84 431.744C148.114 430.65 148.25 426.183 148.25 418.343C148.25 415.044 148.205 412.264 148.114 410.002C148.09 409.42 148.044 408.874 147.977 408.361C147.929 406.897 147.838 405.712 147.704 404.805C143.605 405.079 141.237 404.942 140.6 404.395C139.142 403.21 138.049 401.022 137.321 397.831C137.139 396.464 136.957 394.914 136.774 393.182L146.474 390.994C145.654 386.983 144.562 381.969 143.195 375.952C141.556 368.659 140.372 363.463 139.643 360.363C133.359 361.275 124.57 361.822 113.276 362.004C113.276 362.187 113.276 362.414 113.276 362.688C113.914 367.52 113.595 372.397 112.32 377.32C113.595 372.397 113.914 367.52 113.276 362.688C113.276 362.414 113.276 362.187 113.276 362.004C111.455 362.004 109.679 362.004 107.948 362.004C107.857 362.369 107.811 362.688 107.811 362.961C106.081 376.636 107.994 382.926 113.549 381.832V383.063C112.001 383.245 110.726 383.063 109.724 382.516C108.267 381.513 107.265 379.553 106.719 376.636V376.362C106.63 376.274 106.585 376.183 106.582 376.089V376.636C106.218 379.553 105.261 381.513 103.713 382.516C102.62 383.063 101.299 383.245 99.7511 383.063V381.832C105.307 382.926 107.219 376.636 105.489 362.961C105.489 362.688 105.443 362.369 105.352 362.004C103.622 362.004 101.937 362.004 100.298 362.004C100.206 362.187 100.161 362.414 100.161 362.688C99.5234 367.52 99.7966 372.397 100.981 377.32C99.7966 372.397 99.5234 367.52 100.161 362.688C100.161 362.414 100.206 362.187 100.298 362.004C88.8217 361.822 79.9415 361.275 73.6571 360.363Z" fill="#29384E"/>
<path d="M113.823 441.316C113.367 441.225 112.866 441.088 112.32 440.906C112.32 441.635 112.32 445.51 112.32 452.529C112.32 452.985 112.32 453.395 112.32 453.76C112.32 456.495 112.411 459.412 112.593 462.512C112.684 464.153 112.775 465.794 112.866 467.435C113.504 475.001 114.551 484.664 116.009 496.424L121.063 498.202C125.435 500.208 130.581 500.755 136.501 499.843C137.503 499.57 138.505 499.342 139.507 499.159C141.784 484.209 143.286 473.087 144.015 465.794C144.197 464.608 144.288 463.515 144.288 462.512C144.562 459.23 144.698 456.085 144.698 453.076C144.698 452.894 144.607 452.712 144.425 452.529C144.425 445.327 144.379 441.225 144.288 440.222C144.288 439.858 144.288 439.584 144.288 439.402L143.059 439.675C142.877 440.131 142.649 440.496 142.376 440.769C142.649 440.496 142.877 440.131 143.059 439.675L142.102 440.086H140.873L136.774 441.453L134.588 441.59L132.676 441.453L131.583 441.727C131.31 441.818 130.9 441.909 130.353 442L117.101 441.316C116.373 441.316 115.644 441.316 114.916 441.316C114.825 441.316 114.688 441.316 114.506 441.316C114.415 441.316 114.324 441.316 114.233 441.316C114.05 441.316 113.914 441.316 113.823 441.316ZM98.3849 441.316C97.6563 441.316 96.9277 441.316 96.199 441.316L82.9472 442C82.4007 441.909 81.9909 441.818 81.7176 441.727L80.6247 441.453L78.8487 441.59L76.5262 441.453L72.4277 440.086H71.3347L70.2418 439.675C70.4239 440.131 70.6972 440.496 71.0615 440.769C70.6972 440.496 70.4239 440.131 70.2418 439.675L69.1488 439.402C69.0578 439.584 69.0122 439.858 69.0122 440.222C68.9212 441.225 68.8756 445.327 68.8756 452.529C68.8756 452.712 68.8756 452.894 68.8756 453.076C68.7845 456.085 68.8301 459.23 69.0122 462.512C69.1033 463.515 69.1944 464.608 69.2855 465.794C70.0141 473.087 71.5169 484.209 73.7938 499.159C74.7957 499.342 75.8431 499.57 76.936 499.843C77.0271 499.843 77.1182 499.889 77.2093 499.98C83.0383 500.8 88.0476 500.208 92.2372 498.202L97.292 496.424C98.7492 484.664 99.7966 475.001 100.434 467.435C100.525 465.794 100.662 464.153 100.844 462.512C100.935 459.412 101.026 456.495 101.117 453.76C101.026 453.395 100.981 452.985 100.981 452.529C101.072 445.51 101.117 441.635 101.117 440.906C100.571 441.088 100.024 441.225 99.4779 441.316H99.3412C99.1591 441.316 98.9769 441.316 98.7948 441.316C98.6126 441.316 98.476 441.316 98.3849 441.316Z" fill="#FFCC99"/>
<path d="M107.268 362.005C107.086 362.369 106.995 362.688 106.995 362.962C106.904 363.873 106.812 364.739 106.721 365.56C106.721 365.651 106.721 365.833 106.721 366.107C106.633 366.195 106.588 366.286 106.585 366.38V365.697C106.585 364.785 106.494 363.873 106.312 362.962C106.312 362.688 106.312 362.369 106.312 362.005H105.355C105.446 362.369 105.492 362.688 105.492 362.962C107.222 376.636 105.31 382.926 99.7539 381.832V383.063C101.302 383.246 102.623 383.063 103.716 382.516C105.264 381.513 106.22 379.553 106.585 376.636V376.089C106.588 376.183 106.633 376.274 106.721 376.363V376.636C107.268 379.553 108.27 381.513 109.727 382.516C110.729 383.063 112.004 383.246 113.552 383.063V381.832C107.996 382.926 106.084 376.636 107.814 362.962C107.814 362.688 107.86 362.369 107.951 362.005C107.678 362.005 107.45 362.005 107.268 362.005Z" fill="#1A2433"/>
<path d="M107.128 362.005H106.309C106.403 362.007 106.494 362.053 106.582 362.141H106.718C106.804 362.056 106.94 362.01 107.128 362.005Z" fill="#F2F2F2"/>
<path d="M150.161 390.174C150.252 390.083 150.298 389.946 150.298 389.764C150.298 389.582 150.298 389.399 150.298 389.217C150.116 388.488 149.934 387.667 149.751 386.756C149.66 386.573 149.569 386.345 149.478 386.072C149.296 385.342 149.114 384.613 148.932 383.884C148.841 383.428 148.75 383.018 148.658 382.653V382.516C148.203 380.784 147.793 379.007 147.429 377.183C146.791 373.993 146.108 370.528 145.38 366.791C145.106 365.332 144.879 364.056 144.697 362.962C144.697 362.415 144.605 361.959 144.423 361.594C144.332 360.865 144.287 360.181 144.287 359.543L150.161 390.174ZM150.161 390.174L146.473 390.995M150.161 390.174C150.435 390.995 150.662 391.769 150.844 392.499V392.636C150.935 393.091 151.027 393.502 151.118 393.866C151.846 397.239 151.846 399.837 151.118 401.661M146.473 390.995L136.773 393.183C136.955 394.915 137.137 396.464 137.319 397.832C138.048 401.023 139.141 403.21 140.598 404.396C141.236 404.943 143.604 405.079 147.702 404.806C148.158 404.624 148.522 404.532 148.795 404.532C149.979 403.894 150.753 402.937 151.118 401.661M146.473 390.995L151.118 401.661M151.118 401.661C151.118 404.122 151.345 406.219 151.801 407.951V408.361L152.62 413.147C153.167 416.52 153.121 419.802 152.484 422.993C152.575 423.813 152.711 424.588 152.894 425.318C153.076 427.505 153.121 429.374 153.03 430.924C152.939 431.562 152.803 432.109 152.62 432.565C152.347 434.388 151.71 435.756 150.708 436.667C150.07 437.306 149.342 437.716 148.522 437.898L146.746 438.172C146.29 438.354 145.698 438.673 144.97 439.129L144.287 439.402M144.287 439.402L143.057 439.676M144.287 439.402L142.374 440.77C142.647 440.496 142.875 440.132 143.057 439.676M139.642 499.16H139.505C138.503 499.342 137.501 499.57 136.5 499.843C130.579 500.755 125.434 500.208 121.062 498.203L116.007 496.425C116.007 496.79 116.052 497.2 116.144 497.656L116.28 501.621L116.963 504.493M139.642 499.16L139.778 499.433L139.642 500.254M139.642 499.16V500.254M139.642 500.254L139.778 503.262C139.596 505.906 139.368 507.137 139.095 506.954M139.095 506.954C142.556 513.518 144.833 521.951 145.926 532.252V532.389M139.095 506.954C137.729 508.231 136.773 509.005 136.226 509.279M139.095 506.954L116.007 506.27M145.926 532.389C146.199 533.3 146.29 534.394 146.199 535.671C146.199 535.944 145.243 536.263 143.33 536.628L126.936 538.542L109.859 536.218L109.313 532.936H109.586M145.926 532.389H145.106M145.926 532.389L109.586 532.936M109.586 532.936C109.677 532.845 109.677 532.526 109.586 531.979C109.404 531.614 109.495 530.11 109.859 527.466C109.95 526.554 110.087 525.415 110.269 524.047C110.451 522.862 110.679 521.723 110.952 520.629C111.59 517.438 112.364 514.794 113.275 512.698L116.007 506.27M109.586 532.936H110.542M116.007 506.27L117.1 505.177M116.007 506.27L116.144 506.407L117.51 507.228M117.1 505.177C117.009 504.903 116.963 504.675 116.963 504.493M117.1 505.177V505.04L116.963 504.493M117.1 505.177L116.963 504.493M101.116 453.76C101.116 453.396 101.116 452.986 101.116 452.53V453.76ZM101.116 453.76C101.025 453.396 100.979 452.986 100.979 452.53L101.116 453.76ZM96.334 504.493L97.1537 501.621V497.656C97.2448 497.2 97.2903 496.79 97.2903 496.425L92.2355 498.203C88.0459 500.208 83.0365 500.801 77.2075 499.98C77.1165 499.889 77.0254 499.843 76.9343 499.843C75.8414 499.57 74.794 499.342 73.7921 499.16H73.6555M96.334 504.493C96.334 504.675 96.2884 504.903 96.1974 505.177M96.334 504.493L96.1974 505.04V505.177M96.334 504.493L96.1974 505.177M96.1974 505.177L97.2903 506.27M97.2903 506.27L100.296 512.698C101.116 514.794 101.89 517.438 102.618 520.629C102.709 521.723 102.846 522.862 103.028 524.047C103.21 525.415 103.347 526.554 103.438 527.466C103.802 530.11 103.939 531.614 103.848 531.979C103.848 532.526 103.848 532.845 103.848 532.936M97.2903 506.27L97.1537 506.407L95.7875 507.228M97.2903 506.27L95.7875 507.228M103.848 532.936H103.985L103.438 536.218L86.4975 538.542L70.1034 536.628C68.0997 536.263 67.1889 535.944 67.3711 535.671C67.0978 534.394 67.1889 533.3 67.6443 532.389M103.848 532.936H102.892M103.848 532.936L99.886 527.056M67.6443 532.389V532.252C68.5551 521.951 70.741 513.518 74.202 506.954M67.6443 532.389H68.1908M67.6443 532.389L74.0653 527.056M74.202 506.954C73.9287 507.137 73.701 505.906 73.5189 503.262L73.6555 500.254M74.202 506.954C75.5681 508.231 76.5244 509.005 77.0709 509.279M74.202 506.954L77.0709 509.279M73.6555 500.254L73.5189 499.433L73.6555 499.16M73.6555 500.254V499.16M69.1471 439.402L68.6006 439.129C67.7809 438.673 67.1434 438.354 66.688 438.172L64.7753 437.898C63.9556 437.716 63.2725 437.306 62.7261 436.667C61.7242 435.756 61.0411 434.388 60.6768 432.565C60.5857 432.109 60.4947 431.562 60.4036 430.924C60.2214 429.374 60.3125 427.505 60.6768 425.318C60.6768 424.588 60.7679 423.813 60.95 422.993C60.2214 419.802 60.1303 416.52 60.6768 413.147L61.6331 408.361V407.951C61.9974 406.219 62.1796 404.122 62.1796 401.661M69.1471 439.402L70.24 439.676M69.1471 439.402L71.0597 440.77C70.6954 440.496 70.4222 440.132 70.24 439.676M62.1796 401.661C61.5421 399.837 61.5421 397.239 62.1796 393.866C62.2707 393.502 62.3618 393.091 62.4528 392.636V392.499C62.7261 391.769 62.9538 390.995 63.1359 390.174M62.1796 401.661C62.635 402.937 63.4092 403.894 64.5021 404.532C64.9575 404.532 65.3218 404.624 65.595 404.806M62.1796 401.661L65.595 404.806M63.1359 390.174C63.0449 390.083 62.9993 389.946 62.9993 389.764C62.9993 389.582 63.0449 389.399 63.1359 389.217C63.3181 388.488 63.5002 387.667 63.6824 386.756C63.6824 386.573 63.7735 386.345 63.9556 386.072C64.0467 385.342 64.1833 384.613 64.3655 383.884C64.4566 383.428 64.5932 383.018 64.7753 382.653V382.516C65.1396 380.784 65.504 379.007 65.8683 377.183C66.5058 373.993 67.1889 370.528 67.9175 366.791C68.1908 365.332 68.464 364.056 68.7373 362.962C68.8283 362.415 68.8739 361.959 68.8739 361.594C68.9649 360.865 69.056 360.181 69.1471 359.543V359.407M63.1359 390.174L66.9612 390.995M105.351 362.005H106.307M105.351 362.005C105.442 362.369 105.487 362.688 105.487 362.962C107.218 376.636 105.305 382.927 99.7494 381.833V383.063C101.298 383.246 102.618 383.063 103.711 382.516C105.26 381.514 106.216 379.554 106.58 376.636L105.351 362.005ZM106.307 362.005C106.401 362.008 106.492 362.053 106.58 362.141H106.717C106.802 362.056 106.962 362.01 107.195 362.005H106.307ZM106.307 362.005C106.307 362.369 106.307 362.688 106.307 362.962C106.489 363.874 106.58 364.785 106.58 365.697L106.307 362.005ZM66.9612 390.995L76.5244 393.183C76.4334 394.915 76.2512 396.464 75.978 397.832C75.2493 401.023 74.202 403.21 72.8358 404.396C72.1982 404.943 69.7847 405.079 65.595 404.806M66.9612 390.995L65.595 404.806M70.24 439.676L71.333 440.086H72.4259L76.5244 441.453L78.8469 441.59L80.623 441.453M70.24 439.676L101.116 440.906C100.569 441.089 100.023 441.226 99.4762 441.317H99.3396C99.1574 441.317 98.9753 441.317 98.7931 441.317C98.6109 441.317 98.4743 441.317 98.3832 441.317C97.6546 441.317 96.926 441.317 96.1974 441.317L82.9455 442C82.399 441.909 81.9891 441.818 81.7159 441.727M80.623 441.453H81.1694C81.3516 441.453 81.5338 441.545 81.7159 441.727M80.623 441.453L81.7159 441.727M131.581 441.727C131.308 441.818 130.898 441.909 130.352 442L117.1 441.317C116.371 441.317 115.643 441.317 114.914 441.317C114.823 441.317 114.686 441.317 114.504 441.317C114.413 441.317 114.322 441.317 114.231 441.317C114.049 441.317 113.912 441.317 113.821 441.317C113.366 441.226 112.865 441.089 112.318 440.906L131.581 441.727ZM131.581 441.727C131.855 441.545 132.037 441.453 132.128 441.453H132.674M131.581 441.727L132.674 441.453M132.674 441.453L134.587 441.59L136.773 441.453L140.871 440.086H142.101L143.057 439.676M132.674 441.453L143.057 439.676M95.7875 507.228C91.7801 508.777 88.4557 509.598 85.8144 509.689H79.53L77.0709 509.279M95.7875 507.228L96.7438 510.373C97.1081 511.649 95.6509 512.652 92.3721 513.381C97.1992 514.658 99.7039 519.216 99.886 527.056M77.0709 509.279C75.1583 512.47 75.7503 513.837 78.8469 513.381C74.2019 516.845 72.6081 521.404 74.0653 527.056M74.0653 527.056C75.1583 525.05 76.8888 523.911 79.2568 523.637L94.4213 523.227C96.334 523.409 97.6546 523.683 98.3832 524.047C99.203 524.503 99.7039 525.506 99.886 527.056M74.0653 527.056C71.0597 527.147 69.1016 528.925 68.1908 532.389M99.886 527.056C100.615 526.965 101.207 527.329 101.662 528.15C102.117 528.97 102.482 530.246 102.755 531.979C102.755 532.161 102.755 532.298 102.755 532.389L102.892 532.936M117.51 507.228C121.608 508.777 124.933 509.598 127.483 509.689H133.767L136.226 509.279M117.51 507.228L116.69 510.373C116.235 511.649 117.692 512.652 121.062 513.381C116.235 514.658 113.684 519.216 113.411 527.056M117.51 507.228L136.226 509.279M136.226 509.279C138.139 512.47 137.547 513.837 134.45 513.381C139.186 516.845 140.78 521.404 139.232 527.056M113.411 527.056C113.684 525.506 114.185 524.503 114.914 524.047C115.643 523.683 117.009 523.409 119.012 523.227L134.177 523.637C136.545 523.911 138.23 525.05 139.232 527.056M113.411 527.056C112.683 526.965 112.091 527.329 111.635 528.15C111.18 528.97 110.815 530.246 110.542 531.979C110.542 532.161 110.542 532.298 110.542 532.389V532.936M113.411 527.056L110.542 532.936M139.232 527.056C142.237 527.147 144.196 528.925 145.106 532.389M145.106 532.389C142.283 533.483 139.323 534.166 136.226 534.44L114.641 533.893L110.542 532.936M102.892 532.936L98.6565 533.893L77.0709 534.44C74.0653 534.166 71.1053 533.483 68.1908 532.389M102.892 532.936L68.1908 532.389M111.908 440.906H111.499C111.316 440.815 111.134 440.77 110.952 440.77L111.908 440.906ZM102.345 440.77C102.163 440.77 101.981 440.815 101.799 440.906C101.708 440.906 101.617 440.906 101.525 440.906L102.345 440.77ZM107.263 362.005C107.081 362.369 106.99 362.688 106.99 362.962C106.899 363.874 106.808 364.74 106.717 365.56C106.717 365.651 106.717 365.834 106.717 366.107C106.629 366.195 106.583 366.287 106.58 366.381L107.263 362.005ZM113.275 362.005C113.275 362.187 113.275 362.415 113.275 362.688C113.912 367.52 113.593 372.397 112.318 377.32L113.275 362.005ZM106.58 376.089C106.583 376.183 106.629 376.275 106.717 376.363V376.636C107.263 379.554 108.265 381.514 109.722 382.516C110.724 383.063 111.999 383.246 113.548 383.063V381.833C107.992 382.927 106.079 376.636 107.81 362.962C107.81 362.688 107.855 362.369 107.946 362.005L106.58 376.089ZM100.296 362.005C100.205 362.187 100.159 362.415 100.159 362.688C99.5217 367.52 99.795 372.397 100.979 377.32L100.296 362.005ZM140.052 358.449C139.687 358.449 139.414 358.495 139.232 358.586L140.052 358.449ZM136.636 518.167C130.625 514.703 124.659 514.566 118.739 517.757H118.603L118.739 520.355C124.659 517.073 130.625 517.165 136.636 520.629V518.167ZM76.7977 518.167C82.8088 514.703 88.7745 514.566 94.6946 517.757L94.558 520.355C88.6379 517.073 82.7178 517.165 76.7977 520.629V518.167Z" stroke="black" stroke-opacity="0.4" stroke-width="0.05" stroke-linecap="round" stroke-linejoin="round"/>
<path d="M106.309 362.004H107.197H107.265" stroke="black" stroke-width="0.05" stroke-linecap="round" stroke-linejoin="round"/>
<path d="M107.262 362.004C107.444 362.004 107.672 362.004 107.945 362.004" stroke="black" stroke-opacity="0.6" stroke-width="0.05" stroke-linecap="round" stroke-linejoin="round"/>
<path d="M144.284 440.222C144.284 439.857 144.284 439.584 144.284 439.402C144.284 442.41 144.558 459.23 144.284 462.511C144.284 463.514 144.193 464.608 144.011 465.793C143.283 473.086 141.78 484.208 139.503 499.159M116.005 496.424C114.547 484.664 113.5 475.001 112.862 467.434C112.771 465.793 112.68 464.152 112.589 462.511C112.407 459.412 112.316 456.495 112.316 453.76C112.316 453.395 112.316 452.985 112.316 452.529C112.316 445.51 112.316 441.635 112.316 440.906M73.7899 499.159C71.513 484.208 70.0102 473.086 69.2816 465.793C69.1905 464.608 69.0994 463.514 69.0083 462.511C68.8262 459.23 68.7806 456.084 68.8717 453.076C68.8717 452.894 68.8717 452.711 68.8717 452.529C68.8717 445.327 68.9173 441.225 69.0083 440.222C69.0083 439.857 69.0539 439.584 69.1449 439.402M101.113 440.906C101.113 441.635 101.068 445.51 100.977 452.529L101.113 440.906ZM101.113 453.76C101.022 456.495 100.931 459.412 100.84 462.511C100.658 464.152 100.521 465.793 100.43 467.434C99.7927 475.001 98.7453 484.664 97.2881 496.424L101.113 453.76Z" stroke="#E69216" stroke-width="0.2" stroke-linecap="round" stroke-linejoin="round"/>
<path d="M152.11 311.756L152.163 311.758L152.128 310.918L152.11 311.756ZM162.942 251.839L162.803 250.996L162.892 251.744L162.942 251.839Z" fill="#D8FC6A"/>
<path d="M98.5115 240.282C109.14 242.868 119.557 242.216 129.762 238.328L133.884 236.503L134.003 235.807L134.282 232.502C134.85 223.625 132.526 218.681 127.311 217.67L127.215 222.283C116.647 230.205 104.889 229.88 91.941 221.309L92.0349 216.788C86.1822 216.199 83.5746 220.729 84.212 230.377L84.6939 234.91L84.6881 235.189L87.124 236.406C90.9295 238.071 94.7253 239.363 98.5115 240.282ZM152.995 281.989L154.186 275.067C155.645 273.73 156.931 272.358 158.042 270.952C162.419 265.294 164.052 258.926 162.942 251.847L162.892 251.753L162.803 251.005L161.294 245.518L159.396 241.049C154.472 236.128 146.1 233.279 134.282 232.502L134.003 235.807L133.884 236.503L129.762 238.328C119.557 242.216 109.14 242.868 98.5115 240.282C94.7253 239.363 90.9295 238.071 87.124 236.406L84.6881 235.189L84.6939 234.91L84.212 230.377C75.3474 231.931 67.4095 234.251 60.3983 237.336C56.8268 241.208 54.7152 245.391 54.0633 249.884C52.9339 257.195 55.6449 265.334 62.1964 274.298C64.1779 284.783 65.0367 295.54 64.7727 306.568L63.8885 336.527L62.5214 359.483C74.7697 363.097 86.9378 365.529 99.0257 366.778C99.0955 366.779 99.1649 366.796 99.2341 366.829C116.444 368.558 133.812 367.711 151.338 364.288L152.115 311.761L152.132 310.922L152.087 310.595C151.311 300.882 151.614 291.346 152.995 281.989Z" fill="#1D7DEA"/>
<path d="M127.319 217.663L127.695 199.582C117.288 194.733 105.521 194.858 92.3944 199.959L92.0449 216.782L91.951 221.302C104.899 229.872 116.656 230.197 127.224 222.276L127.319 217.663Z" fill="#FFDEC2"/>
<path d="M92.0482 216.781L92.3982 199.959C105.525 194.858 117.291 194.732 127.697 199.581L127.321 217.661" stroke="#E69216" stroke-linecap="round" stroke-linejoin="round"/>
<path d="M29.9968 301.975C29.9593 303.777 29.8167 305.593 29.5691 307.421C28.8954 309.583 28.5378 311.658 28.4964 313.646C28.2488 315.475 28.0189 317.289 27.8069 319.087C27.556 321.071 27.4115 322.98 27.3734 324.813C27.5415 326.806 27.6045 328.812 27.5625 330.831C27.5173 333.006 27.666 335.092 28.0087 337.089C28.1807 338.895 28.4552 340.812 28.8322 342.841C29.2059 345.024 29.7717 347.212 30.5295 349.404C30.9104 351.246 31.2741 353.072 31.6207 354.882C31.7959 356.533 32.0779 358.093 32.4665 359.562C32.599 353.193 32.5996 343.091 32.4683 329.256C30.6979 327.043 30.4935 322.594 31.8552 315.908C33.2208 309.037 34.1066 300.88 34.5126 291.44C33.4729 291.045 32.4525 290.557 31.4516 289.976C30.9796 292.515 30.6298 295.057 30.4022 297.601C30.1662 298.87 30.0369 300.049 30.0143 301.136L29.9968 301.975Z" fill="#FDD1A6"/>
<path d="M52.769 385.304C52.9622 384.407 52.8763 383.503 52.5111 382.594L52.67 374.951C52.0793 373.136 51.5044 371.399 50.9453 369.74C50.1451 367.92 49.1514 366.174 47.964 364.502C47.7585 364.311 47.5549 364.027 47.3533 363.65L46.7939 362.845C46.8094 362.1 46.9273 361.465 47.1477 360.941C47.3675 358.77 47.4983 356.675 47.5403 354.655L50.4875 331.312C50.5178 329.851 50.5463 328.484 50.5727 327.211C50.6374 324.104 50.5837 321.647 50.4118 319.84L52.4815 295.872C51.2599 295.847 50.0229 295.728 48.7703 295.515C43.6856 294.88 38.9302 293.521 34.5042 291.439C34.0983 300.879 33.2129 309.035 31.8479 315.907C30.4867 322.592 30.691 327.042 32.4607 329.255C32.592 343.089 32.5914 353.191 32.4589 359.56C32.4518 359.902 32.4463 360.166 32.4424 360.353C32.4347 360.725 32.5319 361.085 32.7342 361.431C32.7149 362.363 32.4864 363.275 32.0488 364.168C31.2009 366.326 30.5448 368.488 30.0808 370.654C29.4144 372.474 29.0606 374.378 29.0192 376.366C28.985 378.013 28.953 379.551 28.9233 380.98C29.0907 383.004 29.5764 384.832 30.3805 386.466C30.9505 387.597 31.8334 388.796 33.0291 390.065C34.4297 391.555 36.1519 392.695 38.1956 393.484C36.795 391.993 35.3963 390.41 33.9996 388.733C32.8084 387.247 32.1288 385.508 31.9607 383.515C31.7855 381.864 31.7128 380.324 31.7426 378.894C31.7128 380.324 31.7855 381.864 31.9607 383.515C32.1288 385.508 32.8084 387.247 33.9996 388.733C35.3963 390.41 36.795 391.993 38.1956 393.484C38.4018 393.643 38.6929 393.914 39.0691 394.294C39.9029 394.498 40.7172 394.795 41.5122 395.185C39.6967 393.499 38.0905 391.818 36.6938 390.142C35.9137 389.037 35.4322 387.846 35.2493 386.568C34.9067 384.571 34.6514 382.577 34.4833 380.584C34.6514 382.577 34.9067 384.571 35.2493 386.568C35.4322 387.846 35.9137 389.037 36.6938 390.142C38.0905 391.818 39.6967 393.499 41.5122 395.185C42.5095 395.921 43.7217 396.397 45.1488 396.614L46.1251 395.002C44.3018 393.689 42.5851 392.286 40.9751 390.791C40.3928 390.25 39.7952 389.601 39.1825 388.842C38.4101 387.365 37.938 385.723 37.766 383.916C37.587 382.452 37.406 381.08 37.2231 379.802C37.406 381.08 37.587 382.452 37.766 383.916C37.938 385.723 38.4101 387.365 39.1825 388.842C39.7952 389.601 40.3928 390.25 40.9751 390.791C42.5851 392.286 44.3018 393.689 46.1251 395.002L47.9516 395.32C48.3782 394.956 48.5954 394.588 48.6031 394.215C48.6102 393.873 48.6157 393.609 48.6196 393.423C48.4257 392.673 47.8088 392.116 46.7688 391.752L46.2046 391.181C46.0255 389.716 45.3346 388.52 44.1318 387.594C44.1395 387.221 44.1453 386.941 44.1492 386.755C44.3961 384.957 44.3253 383.324 43.9369 381.855L44.8608 380.242L46.1231 379.989C45.8755 381.818 46.1363 383.548 46.9055 385.181C47.2978 386.463 48.2036 387.399 49.623 387.989L52.0952 387.481C52.3195 386.771 52.5441 386.045 52.769 385.304Z" fill="#FDCC9B"/>
<path d="M54.6366 295.915C54.6553 295.014 54.7726 293.571 54.9884 291.586C52.9684 291.357 51.5571 291.234 50.7545 291.217C50.1264 291.204 49.413 291.096 48.6143 290.893C44.7139 290.438 41.0496 289.537 37.6215 288.191C35.9964 287.442 34.4759 286.695 33.06 285.95C32.8507 285.946 32.6607 285.849 32.4901 285.659L29.7499 283.969L28.7234 288.004L28.7176 288.284C29.7528 288.865 30.6662 289.428 31.4578 289.973C32.4581 290.553 33.4778 291.041 34.5169 291.436C38.9421 293.518 43.6965 294.877 48.7801 295.512C50.0324 295.725 51.2692 295.844 52.4906 295.87C52.8744 295.878 53.5897 295.893 54.6366 295.915ZM67.429 239.77L64.3883 237.421L64.4261 235.604L62.2685 236.118C59.811 236.781 58.4775 237.111 58.2682 237.106C54.5855 237.93 50.8667 240.494 47.1117 244.798C46.6819 245.317 46.1627 245.944 45.554 246.677C45.3375 247.014 45.1207 247.367 44.9036 247.735C44.6904 247.917 44.4771 248.099 44.2639 248.281C44.0474 248.619 43.8306 248.972 43.6135 249.34C41.5289 252.218 39.844 255.182 38.5587 258.232L33.72 269.32C33.4958 270.03 33.1785 271.018 32.7682 272.284C32.5511 272.652 32.4386 273.023 32.4309 273.396C31.9895 274.474 31.6493 275.726 31.4102 277.151L31.4044 277.43L29.7499 283.969L32.4901 285.659C32.6607 285.849 32.8507 285.946 33.06 285.95C34.4759 286.695 35.9964 287.442 37.6215 288.191C41.0496 289.537 44.7139 290.438 48.6143 290.893C49.413 291.096 50.1264 291.204 50.7545 291.217C51.5571 291.234 52.9684 291.357 54.9884 291.586C55.0078 290.654 56.5829 288.776 59.7137 285.951C59.7175 285.764 59.8261 285.58 60.0394 285.398C60.0465 285.056 60.1566 284.794 60.3699 284.612C60.7692 283.875 61.1837 283.246 61.6135 282.727C62.8399 280.826 64.196 279.409 65.6816 278.477L68.5855 272.29L67.429 239.77Z" fill="#1D7DEA"/>
<path d="M31.4566 289.974C32.4569 290.554 33.4766 291.042 34.5157 291.437M64.426 235.604L62.2683 236.118C59.8108 236.781 58.4774 237.111 58.268 237.106C54.5854 237.93 50.8665 240.494 47.1114 244.798C46.6817 245.317 46.1624 245.944 45.5537 246.677C45.3372 247.014 45.1204 247.367 44.9033 247.736C44.69 247.918 44.4768 248.1 44.2635 248.282C44.0471 248.619 43.8303 248.972 43.6131 249.34C41.5285 252.218 39.8435 255.182 38.5581 258.233L33.7193 269.321C33.495 270.031 33.1777 271.019 32.7674 272.285C32.5503 272.653 32.4378 273.024 32.4301 273.396C31.9887 274.475 31.6484 275.727 31.4093 277.151L31.4035 277.431L29.7488 283.97L32.489 285.66C32.6596 285.85 32.8496 285.947 33.0589 285.951C34.4747 286.696 35.9952 287.443 37.6204 288.192C41.0484 289.538 44.7126 290.439 48.613 290.893C49.4117 291.097 50.1251 291.205 50.7532 291.218C51.5558 291.235 52.9671 291.358 54.9871 291.587C55.0065 290.655 56.5816 288.776 59.7125 285.951C59.7163 285.765 59.8249 285.58 60.0382 285.398C60.0453 285.057 60.1554 284.795 60.3687 284.613L64.426 235.604ZM65.0541 235.617C64.8447 235.612 64.6353 235.608 64.426 235.604L65.0541 235.617ZM52.4892 295.87C52.873 295.878 53.5883 295.893 54.6352 295.915C54.6539 295.014 54.7712 293.571 54.9871 291.587L52.4892 295.87ZM31.4566 289.974C30.665 289.429 29.7517 288.866 28.7165 288.285L28.7223 288.005L29.7488 283.97L31.4566 289.974ZM34.5157 291.437C38.9408 293.519 43.6951 294.877 48.7787 295.513C50.031 295.725 51.2679 295.845 52.4892 295.87L34.5157 291.437Z" stroke="black" stroke-opacity="0.4" stroke-width="0.05" stroke-linecap="round" stroke-linejoin="round"/>
<path d="M46.1299 395.003L47.9563 395.321C48.3828 394.957 48.5999 394.589 48.6077 394.216C48.6148 393.874 48.6203 393.61 48.6242 393.424C48.4303 392.674 47.8135 392.117 46.7736 391.753L46.2094 391.182C46.0304 389.717 45.3395 388.521 44.1368 387.595C44.1446 387.222 44.1504 386.942 44.1543 386.756C44.4012 384.958 44.3304 383.325 43.942 381.856L44.8659 380.243L46.1281 379.99C45.8805 381.819 46.1413 383.549 46.9103 385.182C47.3026 386.465 48.2084 387.401 49.6276 387.99L52.0996 387.482C52.3239 386.772 52.5484 386.046 52.7734 385.305C52.9666 384.408 52.8806 383.504 52.5155 382.595L52.6746 374.952C52.0839 373.137 51.509 371.4 50.95 369.741C50.1499 367.921 49.1563 366.175 47.9691 364.503C47.7636 364.312 47.56 364.028 47.3584 363.651L46.799 362.846C46.8146 362.101 46.9325 361.466 47.1529 360.942C47.3726 358.771 47.5035 356.676 47.5455 354.656L50.4928 331.313C50.5231 329.852 50.5516 328.485 50.5781 327.212C50.6428 324.105 50.5891 321.648 50.4172 319.841L52.4871 295.873L31.4519 289.977C30.9801 292.516 30.6304 295.057 30.4029 297.601C30.167 298.871 30.0377 300.049 30.0151 301.137L29.9976 301.975C29.9601 303.777 29.8176 305.593 29.5701 307.421C28.8966 309.583 28.5392 311.658 28.4979 313.647C28.2503 315.475 28.0206 317.289 27.8086 319.087C27.5578 321.071 27.4133 322.98 27.3752 324.813C27.5432 326.806 27.6062 328.812 27.5642 330.831C27.5189 333.006 27.6675 335.092 28.0101 337.088C28.1819 338.895 28.4563 340.812 28.833 342.841C29.2066 345.024 29.772 347.212 30.5295 349.404C30.9101 351.245 31.2736 353.071 31.62 354.881C31.7951 356.533 32.0769 358.093 32.4653 359.562C32.4582 359.903 32.4527 360.168 32.4488 360.354C32.4411 360.727 32.5383 361.086 32.7406 361.432C32.7212 362.365 32.4927 363.277 32.0552 364.169C31.2073 366.327 30.5513 368.489 30.0872 370.655C29.4209 372.475 29.0671 374.379 29.0257 376.368C28.9914 378.014 28.9594 379.552 28.9297 380.981C29.097 383.005 29.5827 384.834 30.3867 386.467C30.9567 387.598 31.8395 388.798 33.0351 390.066C34.4355 391.556 36.1575 392.696 38.2011 393.485M46.1299 395.003L45.1537 396.615C43.7267 396.398 42.5146 395.922 41.5174 395.186M46.1299 395.003C44.3067 393.691 42.5902 392.287 40.9804 390.792C40.3981 390.252 39.8006 389.602 39.188 388.843C38.4157 387.366 37.9436 385.724 37.7717 383.918C37.5927 382.453 37.4117 381.082 37.2288 379.803M41.5174 395.186C40.7225 394.797 39.9082 394.5 39.0745 394.296C38.6984 393.915 38.4072 393.644 38.2011 393.485M41.5174 395.186L34.4893 380.585M38.2011 393.485C36.8006 391.994 35.4021 390.411 34.0055 388.734C32.8144 387.248 32.1348 385.509 31.9668 383.516C31.7917 381.865 31.719 380.325 31.7487 378.896" stroke="#E69216" stroke-width="0.5" stroke-linecap="round" stroke-linejoin="round"/>
<path d="M178.843 292.364C174.334 294.259 169.526 295.417 164.42 295.838C163.159 295.998 161.918 296.065 160.697 296.039L161.768 320.073C161.521 321.871 161.365 324.323 161.301 327.43C161.274 328.704 161.246 330.071 161.216 331.531L163.19 354.978C163.148 356.998 163.191 359.097 163.321 361.275C163.519 361.808 163.61 362.447 163.595 363.193L163.003 363.973C162.785 364.341 162.57 364.617 162.357 364.799C161.101 366.42 160.036 368.122 159.16 369.907C158.533 371.541 157.886 373.253 157.22 375.041L157.062 382.684C156.659 383.577 156.535 384.476 156.691 385.381C156.885 386.131 157.079 386.865 157.274 387.584L159.723 388.195C161.165 387.666 162.109 386.769 162.555 385.504C163.391 383.905 163.724 382.187 163.552 380.35L164.803 380.656L165.659 382.305C165.21 383.757 165.071 385.386 165.243 387.192C165.239 387.379 165.234 387.658 165.226 388.031C163.985 388.907 163.245 390.072 163.006 391.528L162.418 392.075C161.364 392.395 160.724 392.925 160.499 393.667C160.496 393.853 160.49 394.117 160.483 394.459C160.475 394.832 160.677 395.209 161.088 395.591L162.926 395.35C164.802 394.115 166.576 392.784 168.247 391.358C168.851 390.843 169.475 390.218 170.119 389.486C170.952 388.043 171.492 386.422 171.739 384.624C171.979 383.169 172.216 381.806 172.452 380.537C172.216 381.806 171.979 383.169 171.739 384.624C171.492 386.422 170.952 388.043 170.119 389.486C169.475 390.218 168.851 390.843 168.247 391.358C166.576 392.784 164.802 394.115 162.926 395.35L163.835 397C165.269 396.844 166.5 396.419 167.527 395.726C169.411 394.118 171.086 392.506 172.551 390.889C173.377 389.819 173.907 388.649 174.143 387.379C174.569 385.399 174.907 383.417 175.157 381.433C174.907 383.417 174.569 385.399 174.143 387.379C173.907 388.649 173.377 389.819 172.551 390.889C171.086 392.506 169.411 394.118 167.527 395.726C168.338 395.37 169.164 395.108 170.005 394.939C170.397 394.574 170.699 394.316 170.912 394.165C172.373 392.735 173.837 391.211 175.302 389.595C176.554 388.16 177.305 386.451 177.556 384.467C177.8 382.825 177.936 381.289 177.966 379.86C177.936 381.289 177.8 382.825 177.556 384.467C177.305 386.451 176.554 388.16 175.302 389.595C173.837 391.211 172.373 392.735 170.912 394.165C172.987 393.463 174.755 392.396 176.216 390.966C177.464 389.749 178.396 388.587 179.012 387.481C179.883 385.883 180.445 384.077 180.696 382.062C180.726 380.633 180.758 379.095 180.792 377.448C180.833 375.46 180.559 373.542 179.969 371.696C179.595 369.512 179.03 367.325 178.272 365.133C177.872 364.223 177.682 363.302 177.701 362.37C177.918 362.033 178.03 361.678 178.038 361.305C178.041 361.118 178.047 360.854 178.054 360.512C178.187 354.143 178.606 344.05 179.312 330.233C181.172 328.096 181.562 323.66 180.48 316.923C179.401 310 178.856 301.814 178.843 292.364Z" fill="#FDCC9B"/>
<path d="M182.688 298.69C182.567 296.139 182.323 293.585 181.957 291.029C180.933 291.567 179.893 292.011 178.838 292.362C178.851 301.811 179.397 309.998 180.475 316.921C181.558 323.658 181.169 328.094 179.308 330.231C178.601 344.048 178.182 354.142 178.049 360.511C178.498 359.059 178.845 357.512 179.089 355.87C179.51 354.076 179.95 352.267 180.407 350.443C181.255 348.285 181.911 346.123 182.375 343.957C182.836 341.946 183.19 340.042 183.437 338.244C183.863 336.264 184.098 334.186 184.143 332.011C184.185 329.992 184.332 327.99 184.583 326.006C184.621 324.173 184.556 322.26 184.388 320.267C184.251 318.461 184.096 316.639 183.925 314.802C183.966 312.814 183.696 310.725 183.112 308.537C182.941 306.7 182.874 304.88 182.912 303.078L182.929 302.239C182.952 301.152 182.871 299.969 182.688 298.69Z" fill="#FFCC99"/>
<path d="M183.923 285.101L181.115 286.674C180.936 286.857 180.742 286.946 180.533 286.942C179.087 287.626 177.537 288.309 175.882 288.989C172.401 290.19 168.703 290.936 164.787 291.227C163.98 291.396 163.263 291.474 162.635 291.461C161.832 291.444 160.417 291.508 158.39 291.652C158.523 293.644 158.58 295.09 158.561 295.991C159.608 296.013 160.323 296.028 160.707 296.036C161.928 296.062 163.169 295.995 164.429 295.835C169.535 295.414 174.341 294.256 178.849 292.361C179.904 292.01 180.943 291.566 181.967 291.028C182.78 290.517 183.716 289.992 184.775 289.455L184.78 289.176L183.923 285.101ZM153.422 235.926L151.287 235.322L151.249 237.14L148.114 239.358L145.606 271.802L148.251 278.105C149.696 279.098 150.992 280.571 152.139 282.522C152.546 283.059 152.934 283.704 153.303 284.458C153.508 284.649 153.607 284.915 153.6 285.257C153.806 285.448 153.907 285.636 153.903 285.823C156.913 288.777 158.409 290.72 158.39 291.652C160.417 291.508 161.832 291.444 162.635 291.461C163.263 291.474 163.98 291.396 164.787 291.227C168.703 290.936 172.401 290.19 175.882 288.989C177.537 288.309 179.087 287.626 180.533 286.942C180.742 286.946 180.936 286.857 181.115 286.674L183.923 285.101L182.541 278.499L182.547 278.219C182.367 276.785 182.08 275.521 181.683 274.424C181.691 274.052 181.594 273.676 181.393 273.299C181.035 272.017 180.759 271.017 180.565 270.298L176.191 259.017C175.034 255.915 173.474 252.883 171.511 249.92C171.309 249.543 171.107 249.181 170.905 248.835C170.699 248.644 170.494 248.454 170.288 248.263C170.087 247.886 169.885 247.524 169.683 247.178C169.105 246.42 168.612 245.772 168.204 245.235C164.632 240.778 161.023 238.06 157.377 237.082C157.168 237.077 155.849 236.692 153.422 235.926Z" fill="#1D7DEA"/>
<path d="M181.966 291.028C180.943 291.566 179.904 292.01 178.849 292.361M150.66 235.309C150.87 235.313 151.079 235.318 151.288 235.322L153.423 235.926C155.85 236.692 157.169 237.077 157.378 237.082C161.023 238.059 164.632 240.777 168.205 245.235C168.613 245.772 169.106 246.419 169.683 247.177C169.886 247.523 170.087 247.885 170.289 248.262C170.495 248.453 170.7 248.644 170.906 248.835C171.108 249.181 171.31 249.543 171.511 249.92C173.474 252.883 175.035 255.915 176.192 259.016L180.565 270.298C180.76 271.017 181.036 272.017 181.393 273.299C181.594 273.676 181.691 274.051 181.684 274.424C182.08 275.52 182.368 276.785 182.547 278.219L182.541 278.498L183.923 285.101L184.78 289.175L184.774 289.455C183.716 289.992 182.78 290.516 181.966 291.028L150.66 235.309ZM160.707 296.037C160.323 296.029 159.608 296.014 158.561 295.992C158.58 295.091 158.522 293.644 158.389 291.652C158.409 290.72 156.913 288.777 153.903 285.823C153.906 285.637 153.806 285.448 153.6 285.257C153.607 284.916 153.508 284.649 153.303 284.459L160.707 296.037ZM183.923 285.101L181.114 286.674C180.936 286.857 180.742 286.946 180.533 286.942C179.087 287.626 177.537 288.308 175.882 288.989C172.401 290.19 168.703 290.936 164.787 291.227C163.98 291.396 163.263 291.475 162.635 291.461C161.832 291.445 160.417 291.508 158.389 291.652L183.923 285.101ZM178.849 292.361C174.341 294.256 169.535 295.414 164.429 295.835C163.169 295.995 161.928 296.062 160.707 296.037L178.849 292.361Z" stroke="black" stroke-opacity="0.4" stroke-width="0.05" stroke-linecap="round" stroke-linejoin="round"/>
<path d="M170.908 394.165C172.982 393.462 174.75 392.396 176.211 390.966C177.459 389.748 178.391 388.587 179.007 387.481C179.878 385.883 180.44 384.076 180.691 382.061C180.721 380.632 180.753 379.094 180.787 377.447C180.829 375.459 180.554 373.541 179.964 371.695C179.591 369.512 179.025 367.324 178.268 365.132C177.868 364.222 177.677 363.301 177.697 362.369C177.913 362.032 178.025 361.677 178.033 361.304C178.037 361.118 178.043 360.854 178.05 360.512C178.499 359.06 178.845 357.513 179.089 355.871C179.51 354.077 179.949 352.268 180.406 350.444C181.254 348.286 181.91 346.124 182.374 343.958C182.835 341.947 183.189 340.043 183.436 338.245C183.861 336.265 184.096 334.187 184.142 332.012C184.184 329.993 184.33 327.991 184.581 326.007C184.619 324.174 184.554 322.261 184.386 320.268C184.249 318.462 184.095 316.641 183.924 314.803C183.965 312.815 183.694 310.727 183.111 308.538C182.94 306.701 182.873 304.881 182.911 303.079L182.928 302.24C182.951 301.153 182.871 299.97 182.688 298.692C182.566 296.14 182.323 293.587 181.957 291.03L160.695 296.039L161.766 320.073C161.519 321.871 161.363 324.323 161.298 327.43C161.272 328.704 161.243 330.071 161.213 331.531L163.187 354.978C163.145 356.997 163.188 359.096 163.317 361.275C163.516 361.808 163.607 362.447 163.592 363.192L162.999 363.972C162.782 364.341 162.567 364.616 162.354 364.798C161.098 366.419 160.033 368.122 159.158 369.906C158.53 371.541 157.883 373.252 157.218 375.041L157.059 382.684C156.656 383.577 156.533 384.476 156.688 385.381C156.882 386.131 157.076 386.865 157.271 387.584L159.72 388.195C161.162 387.666 162.106 386.769 162.551 385.504C163.388 383.905 163.72 382.187 163.549 380.349L164.799 380.655L165.655 382.305C165.206 383.756 165.068 385.385 165.24 387.192C165.236 387.378 165.23 387.658 165.222 388.031C163.982 388.906 163.242 390.072 163.002 391.528L162.415 392.075C161.361 392.395 160.721 392.925 160.496 393.666C160.492 393.853 160.487 394.117 160.48 394.459C160.472 394.831 160.674 395.209 161.085 395.59L162.923 395.349M170.908 394.165C170.695 394.316 170.393 394.573 170.001 394.938C169.16 395.107 168.334 395.369 167.523 395.725M170.908 394.165C172.369 392.734 173.832 391.211 175.297 389.594C176.549 388.16 177.3 386.45 177.551 384.466C177.795 382.824 177.932 381.288 177.961 379.859M167.523 395.725C166.496 396.419 165.266 396.844 163.831 397L162.923 395.349M167.523 395.725C169.407 394.118 171.082 392.505 172.547 390.889C173.372 389.818 173.903 388.648 174.139 387.379C174.564 385.398 174.902 383.416 175.153 381.432M162.923 395.349C164.799 394.114 166.572 392.784 168.243 391.358C168.847 390.842 169.471 390.218 170.115 389.486C170.948 388.042 171.488 386.422 171.735 384.624C171.974 383.168 172.212 381.805 172.448 380.536" stroke="#E69216" stroke-width="0.5" stroke-linecap="round" stroke-linejoin="round"/>
<path fill-rule="evenodd" clip-rule="evenodd" d="M90.7104 311.177C90.7104 311.177 91.8624 293.393 99.0122 285.464C101.737 282.442 103.366 280.888 104.338 280.123C105.281 279.381 105.424 280.231 104.82 281.268C103.57 283.414 101.314 287.603 99.517 292.683C96.8863 300.121 98.2511 311.178 98.2511 311.178L90.7104 311.177Z" fill="white"/>
<path fill-rule="evenodd" clip-rule="evenodd" d="M125.584 289.902C122.329 299.919 111.58 305.405 101.577 302.155C100.816 301.908 100.082 301.617 99.3755 301.287C99.3929 301.154 99.4103 301.019 99.4278 300.884C99.6896 298.864 99.9773 296.643 100.736 294.562C101.627 295.14 102.608 295.613 103.666 295.956C110.195 298.078 117.211 294.497 119.335 287.959C121.46 281.42 117.889 274.4 111.359 272.278C104.829 270.156 97.8138 273.737 95.6893 280.276C94.795 283.028 94.9099 285.866 95.8299 288.388C94.003 290.367 92.7518 292.693 91.8967 295.011C88.5647 290.271 87.4265 284.071 89.3566 278.131C92.6114 268.114 103.36 262.628 113.363 265.878C123.367 269.129 128.838 279.884 125.584 289.902Z" fill="white"/>
<path d="M198.43 126.879L203.118 126.61C205.082 127.06 206.95 127.712 208.722 128.567C220.56 80.1488 204.521 45.7938 160.605 25.5018C196.955 45.4713 209.563 79.2638 198.43 126.879ZM6.60943 64.495C11.7229 56.9613 18.4342 53.1592 26.7433 53.0887C6.70528 74.2426 3.60528 96.4269 17.4433 119.642C19.7313 119.976 22.2584 120.948 25.0247 122.559C10.7211 97.4551 17.0897 68.1682 44.1306 34.6985C22.6351 39.8447 10.1281 49.7768 6.60943 64.495Z" fill="#1B1B1B"/>
<path d="M213.483 151.053C219.432 145.293 219.721 139.129 214.349 132.559C212.956 131.14 211.397 129.963 209.672 129.028L208.718 128.579C206.945 127.724 205.077 127.072 203.113 126.622L198.425 126.891C193.08 127.882 188.049 131.475 183.33 137.669L182.563 148.073L189.015 142.386C193.356 138.922 198.129 136.734 203.335 135.822C198.129 136.734 193.356 138.922 189.015 142.386C194.788 149.536 195.082 154.18 189.896 156.319L189.199 156.733L189.896 156.319C195.082 154.18 194.788 149.536 189.015 142.386L182.563 148.073C182.021 156.48 182.002 164.06 182.504 170.813L182.473 172.284C192.951 167.273 203.287 160.196 213.483 151.053ZM17.4337 119.653L14.3394 119.466C12.7311 119.554 11.1843 119.992 9.69924 120.778C7.65255 122.083 6.03959 123.5 4.86036 125.028C-0.644982 131.533 1.18234 139.683 10.3423 149.479C19.5618 158.622 28.8733 164.436 38.277 166.923L38.1597 165.939L38.1456 163.303L38.8337 160.008C39.1743 156.868 38.8726 152.612 37.9285 147.239C36.2105 143.77 34.2512 140.868 32.0506 138.534L30.0268 136.53C22.411 142.99 22.5721 148.489 30.5102 153.029C22.5721 148.489 22.411 142.99 30.0268 136.53C25.6511 132.841 19.9663 130.311 12.9722 128.938C19.9663 130.311 25.6511 132.841 30.0268 136.53L32.0506 138.534C34.2512 140.868 36.2105 143.77 37.9285 147.239L36.8056 141.637C35.9227 137.736 35.2676 133.922 34.8401 130.195C31.3285 126.892 28.0536 124.351 25.0153 122.571C22.2489 120.96 19.7217 119.987 17.4337 119.653ZM124.272 97.1968C127.015 95.4973 129.748 94.3084 132.47 93.6301C110.854 86.8824 93.4898 76.5258 80.3773 62.5604L76.0059 57.5646C45.5094 76.1708 31.7875 100.381 34.8401 130.195C35.2676 133.922 35.9227 137.736 36.8056 141.637L37.9285 147.239C38.8726 152.612 39.1743 156.868 38.8337 160.008L38.1456 163.303L38.1597 165.939L38.277 166.923L38.4541 168.336C41.3026 188.093 54.266 202.607 77.3445 211.878C92.4109 217.957 106.939 220.142 120.927 218.434C127.784 217.597 134.498 215.859 141.071 213.218C158.938 205.993 171.883 194.884 179.906 179.892L182.162 173.994L182.473 172.284L182.504 170.813C182.002 164.06 182.021 156.48 182.563 148.073L183.33 137.669L183.598 134.732C186.666 124.008 184.816 113.631 178.048 103.599C155.252 96.1728 135.621 84.4609 119.154 68.4634C123.463 77.5851 130.248 85.7169 139.509 92.8586C145.424 93.1464 151.242 95.9046 156.962 101.133C145.736 95.7888 135.586 96.127 126.51 102.148L124.272 97.1968ZM91.9168 93.6968L90.0002 99.7863C80.5464 93.09 70.3752 93.3052 59.4867 100.432C69.3793 88.217 80.1894 85.972 91.9168 93.6968ZM97.1767 152.04L97.0888 152.957L92.3136 154.144L90.8607 154.482C82.9347 155.99 76.5846 155.653 71.8106 153.468L71.2638 153.273C68.5399 151.826 66.333 149.798 64.643 147.188L64.3066 146.813C64.6748 126.878 70.5976 117.951 82.0752 120.032C93.3224 122.148 98.3563 132.817 97.1767 152.04ZM98.7369 163.106C98.7539 162.289 98.9981 161.579 99.4696 160.976C100.081 160.254 100.898 159.596 101.92 159.005C104.054 157.946 106.566 157.448 109.456 157.508C112.392 157.57 114.881 158.174 116.923 159.32L119.088 161.144C119.715 161.892 120.02 162.696 120.002 163.553C119.968 165.187 118.884 166.533 116.751 167.592C114.662 168.733 112.149 169.273 109.213 169.211C106.322 169.15 103.834 168.505 101.748 167.276C99.7068 166.13 98.703 164.74 98.7369 163.106ZM87.2369 179.782L85.8262 181.408C84.9834 182.207 84.0306 182.78 82.9677 183.125C84.0306 182.78 84.9834 182.207 85.8262 181.408L87.2369 179.782C87.9506 178.572 88.3235 177.19 88.3558 175.638L88.371 174.903L88.3558 175.638C88.3235 177.19 87.9506 178.572 87.2369 179.782C90.9685 181.332 94.6151 182.553 98.1767 183.445C106.716 185.545 114.54 185.649 121.648 183.755C125.017 182.886 128.211 181.584 131.23 179.849C128.211 181.584 125.017 182.886 121.648 183.755L121.759 185.044C121.716 187.087 120.945 188.869 119.445 190.39L118.184 191.405C115.854 193.114 113.036 193.974 109.731 193.986C106.426 193.998 104.048 193.58 102.597 192.733L99.2079 190.148C98.4177 188.415 98.0434 186.548 98.085 184.547L98.1767 183.445C94.6151 182.553 90.9685 181.332 87.2369 179.782ZM156.202 147.703L155.775 148.368C153.979 150.864 151.646 152.695 148.776 153.86L148.359 154.036C143.499 155.977 137.094 156.067 129.144 154.306L127.776 153.909L123.055 152.461L122.96 150.437C122.354 133.179 127.631 123.319 138.79 120.856C150.317 118.32 156.121 127.269 156.202 147.703ZM131.988 179.804C130.688 178.346 130.012 176.616 129.962 174.612C130.012 176.616 130.688 178.346 131.988 179.804C132.932 180.805 133.95 181.5 135.043 181.891C133.95 181.5 132.932 180.805 131.988 179.804ZM101.292 199.203C106.53 201.152 111.118 201.248 115.056 199.492C111.118 201.248 106.53 201.152 101.292 199.203ZM101.639 162.616C103.725 163.844 106.213 164.489 109.103 164.55C112.039 164.612 114.552 164.072 116.641 162.931L119.088 161.144L116.923 159.32C114.881 158.174 112.392 157.57 109.456 157.508C106.566 157.448 104.054 157.946 101.92 159.005C100.898 159.596 100.081 160.254 99.4696 160.976L101.639 162.616Z" fill="#FFCC99"/>
<path d="M155.772 148.366L156.199 147.7C156.118 127.269 150.314 118.322 138.787 120.858C127.629 123.32 122.352 133.178 122.958 150.434C124.001 137.789 129.225 130.422 138.632 128.332C148.777 126.052 154.49 132.73 155.772 148.366ZM64.6436 147.185C66.1478 132.221 71.9065 125.662 81.9198 127.507C91.6144 129.223 96.6998 137.399 97.176 152.037C98.3555 132.817 93.3219 122.149 82.075 120.033C70.5979 117.953 64.6753 126.879 64.3071 146.81L64.6436 147.185Z" fill="#EEEAEA"/>
<path d="M146.034 139.889C148.033 143.077 148.986 146.896 148.894 151.348L148.773 153.858C151.643 152.693 153.975 150.862 155.771 148.367C154.49 132.732 148.777 126.055 138.632 128.334C129.225 130.424 124.001 137.791 122.958 150.435L123.053 152.459L127.774 153.907L127.629 150.901C127.722 146.449 128.856 142.673 131.032 139.573C133.162 136.472 135.695 134.952 138.631 135.014C141.521 135.075 143.989 136.7 146.034 139.889ZM89.5829 139.744C91.6279 142.933 92.6042 146.753 92.5117 151.204L92.313 154.142L97.088 152.955L97.1759 152.038C96.6997 137.401 91.6143 129.225 81.9197 127.509C71.9065 125.664 66.1478 132.224 64.6436 147.186C66.3335 149.796 68.5404 151.824 71.2641 153.27L71.2475 150.757C71.34 146.306 72.4511 142.529 74.581 139.428C76.7575 136.287 79.2909 134.747 82.1812 134.808C85.1173 134.869 87.5846 136.515 89.5829 139.744Z" fill="white"/>
<path d="M148.891 151.349C148.984 146.897 148.03 143.078 146.031 139.89C143.986 136.701 141.519 135.076 138.628 135.015C135.692 134.954 133.159 136.473 131.029 139.574C128.854 142.675 127.72 146.45 127.627 150.902L127.771 153.908L129.14 154.304C137.089 156.065 143.494 155.975 148.353 154.034L148.77 153.859L148.891 151.349ZM92.5093 151.205C92.6018 146.754 91.6255 142.934 89.5805 139.745C87.5822 136.516 85.115 134.871 82.1789 134.809C79.2886 134.748 76.7552 136.288 74.5786 139.429C72.4488 142.531 71.3377 146.307 71.2452 150.758L71.2618 153.271L71.8086 153.467C76.5824 155.651 82.9322 155.988 90.8578 154.48L92.3106 154.143L92.5093 151.205Z" fill="#3266CC"/>
<path d="M109.097 164.554C106.207 164.493 103.719 163.849 101.633 162.62L99.4643 160.981C98.9928 161.584 98.7486 162.293 98.7316 163.11C98.6977 164.744 99.7015 166.134 101.743 167.28C103.829 168.509 106.317 169.154 109.207 169.214C112.143 169.276 114.656 168.737 116.745 167.595C118.878 166.537 119.962 165.191 119.996 163.557C120.014 162.7 119.709 161.897 119.082 161.148L116.635 162.935C114.546 164.076 112.033 164.616 109.097 164.554Z" fill="#FAC08C"/>
<path d="M160.607 25.4964L157.813 24.1504L44.1323 34.6957M160.607 25.4964L179.163 30.4223C132.855 -5.08167 91.1972 -7.06029 54.1898 24.4864C45.6113 22.0586 34.4561 23.2545 20.724 28.0741C31.6456 28.181 39.4484 30.3882 44.1323 34.6957M160.607 25.4964C204.523 45.7892 220.562 80.1463 208.724 128.568L160.607 25.4964ZM44.1323 34.6957C22.6366 39.8426 10.1293 49.7756 6.61046 64.4949M76.0155 57.5553C45.5193 76.162 31.7973 100.372 34.8494 130.186L66.3924 43.5612C69.2267 48.5246 72.4344 53.1893 76.0155 57.5553ZM76.0155 57.5553L80.3868 62.551C93.4988 76.5163 110.863 86.8726 132.478 93.62M76.0155 57.5553L132.478 93.62M139.517 92.8484L143.72 96.0016C139.555 95.4237 135.808 94.6299 132.478 93.62M139.517 92.8484C145.432 93.1362 151.249 95.8942 156.97 101.123C145.744 95.7785 135.593 96.1169 126.518 102.138L124.28 97.1869C127.023 95.4874 129.756 94.2984 132.478 93.62M139.517 92.8484C130.256 85.7068 123.472 77.5751 119.163 68.4534C135.629 84.4507 155.26 96.1624 178.055 103.588C184.823 113.62 186.673 123.998 183.604 134.722L183.336 137.658L183.604 96.0016L151.708 80.4471L139.517 92.8484ZM6.61046 64.4949C11.7241 56.9605 18.4355 53.1581 26.7446 53.0875C6.70615 74.2432 3.60579 96.4291 17.4435 119.645L6.5289 65.1061L6.61046 64.4949ZM90.0089 99.7769C80.5554 93.0808 70.3844 93.2961 59.496 100.423C69.3886 88.2079 80.1985 85.9627 91.9256 93.6874L90.0089 99.7769Z" stroke="black" stroke-linecap="round" stroke-linejoin="round"/>
<path d="M25.0232 122.58C28.0614 124.36 31.3361 126.901 34.8475 130.203M25.0232 122.58L34.8475 130.203M25.0232 122.58C22.257 120.969 19.7299 119.996 17.4419 119.662L14.3477 119.475C12.7395 119.563 11.1928 120.001 9.70772 120.787C7.66108 122.092 6.04815 123.509 4.86894 125.037C-0.636309 131.541 1.19082 139.691 10.3503 149.486C19.5693 158.629 28.8804 164.443 38.2837 166.929M34.8475 130.203L38.2837 166.929M183.332 137.674C188.051 131.48 193.082 127.888 198.427 126.897M183.332 137.674L198.427 126.897M183.332 137.674L182.565 148.078M198.427 126.897L203.114 126.628C205.078 127.078 206.947 127.73 208.719 128.584M198.427 126.897L208.719 128.584M208.719 128.584L209.673 129.033C211.398 129.969 212.957 131.146 214.35 132.564C219.722 139.133 219.433 145.298 213.484 151.057C203.288 160.2 192.952 167.277 182.475 172.288M182.475 172.288L182.164 173.997L179.907 179.895C171.884 194.887 158.94 205.995 141.073 213.221C134.501 215.861 127.786 217.6 120.93 218.436C106.942 220.145 92.4148 217.96 77.349 211.882C54.2716 202.611 41.3088 188.098 38.4608 168.342L38.2837 166.929M182.475 172.288L182.505 170.817C182.003 164.064 182.023 156.485 182.565 148.078M182.475 172.288L182.565 148.078M38.2837 166.929L38.1664 165.946M92.3185 154.15L97.0936 152.964L97.1815 152.046M92.3185 154.15L97.1815 152.046M92.3185 154.15L90.8657 154.488C82.94 155.997 76.5901 155.659 71.8163 153.475L71.2696 153.279C68.5458 151.833 66.339 149.804 64.6491 147.194M92.3185 154.15L84.0159 155.231L73.7141 155.291L64.6491 147.194M97.1815 152.046C98.3614 132.824 93.3279 122.156 82.0811 120.04C70.604 117.96 64.6812 126.886 64.3127 146.82L64.6491 147.194M97.1815 152.046L84.9978 155.291L71.8163 154.488L64.6491 147.194M127.779 153.915L129.148 154.311C137.098 156.072 143.502 155.982 148.362 154.041M127.779 153.915L123.059 152.467L122.964 150.442M127.779 153.915L122.964 150.442M127.779 153.915L142.883 155.377L155.778 148.373M148.362 154.041L148.779 153.866C151.649 152.7 153.982 150.869 155.778 148.373M148.362 154.041L155.778 148.373M148.362 154.041L134.053 155.504L122.964 150.442M155.778 148.373L156.204 147.708C156.124 127.275 150.321 118.327 138.794 120.863C127.635 123.326 122.358 133.185 122.964 150.442M85.489 180.521C93.7917 181.992 106.091 189.352 132.582 180.522M99.4742 160.982C99.0027 161.585 98.7585 162.295 98.7415 163.112C98.7075 164.746 99.7113 166.136 101.753 167.282C103.839 168.511 106.327 169.155 109.217 169.216C112.153 169.278 114.666 168.738 116.755 167.597C118.888 166.538 119.972 165.192 120.006 163.559C120.024 162.701 119.719 161.898 119.092 161.149L116.927 159.326C114.885 158.18 112.396 157.576 109.46 157.514C106.57 157.453 104.058 157.952 101.925 159.011C100.903 159.602 100.086 160.259 99.4742 160.982ZM101.296 199.207C106.533 201.155 111.121 201.252 115.059 199.496L101.296 199.207Z" stroke="#E69216" stroke-width="0.5" stroke-linecap="round" stroke-linejoin="round"/>
<path d="M82.543 174.635C83.5241 176.106 85.1919 180.225 84.0147 184.935" stroke="#E69216" stroke-width="0.5"/>
<path d="M134.457 174.635C133.476 176.106 131.808 180.225 132.985 184.935" stroke="#E69216" stroke-width="0.5"/>
<path d="M98.0826 184.554C98.0411 186.555 98.4154 188.422 99.2055 190.155C103.009 188.233 106.64 188.002 110.098 189.464C112.37 188.327 115.485 188.638 119.441 190.396C120.942 188.875 121.713 187.094 121.755 185.052L121.644 183.762C114.537 185.656 106.714 185.553 98.1744 183.453L98.0826 184.554Z" fill="#990000"/>
<path d="M102.596 192.739C104.047 193.587 106.425 194.005 109.73 193.992C113.035 193.98 115.852 193.12 118.183 191.412L119.443 190.397C115.486 188.639 112.372 188.328 110.099 189.465C106.642 188.003 103.011 188.233 99.2073 190.155L102.596 192.739Z" fill="#BB2525"/>
<path d="M90.0097 99.7778L91.9263 93.6884C80.1988 85.9635 69.3888 88.2086 59.4962 100.423C70.3847 93.2967 80.5558 93.0815 90.0097 99.7778ZM143.721 96.0034C139.557 95.4254 135.809 94.6315 132.48 93.6216C129.758 94.2999 127.025 95.4889 124.281 97.1884L126.519 102.139C135.595 96.1186 145.746 95.7803 156.972 101.124C151.251 95.8961 145.433 93.138 139.518 92.8502L143.721 96.0034ZM160.608 25.4989L179.164 30.4251C132.855 -5.07936 91.1962 -7.05864 54.1887 24.4873C45.6101 22.0593 34.4546 23.255 20.7224 28.0744C31.6443 28.1814 39.4472 30.3887 44.1312 34.6963C17.0897 68.1681 2.00852 92.1343 16.3125 117.24C19.3508 119.02 31.3381 126.884 34.8497 130.186C41.3309 103.995 44.1312 98.108 69.293 64.2591L80.3868 62.552C93.4993 76.5174 110.864 86.8739 132.48 93.6216C135.809 94.6315 139.557 95.4254 143.721 96.0034L139.518 92.8502C130.257 85.7084 123.472 77.5767 119.164 68.455C135.631 84.4524 155.262 96.1643 178.057 103.591C184.825 113.622 186.675 124 183.607 134.724L183.339 137.66C188.058 131.466 199.343 125.589 204.688 124.598C215.821 76.9798 196.959 45.4697 160.608 25.4989Z" fill="black"/>
<path d="M185.555 136.371L209.102 133.428L209.102 145.201L191.441 145.201L185.555 136.371Z" fill="#FFCC99"/>
<path d="M85.7728 144.386L85.7753 144.264L85.1891 142.657L84.9903 142.285L82.9449 141.323C82.4819 141.518 82.0881 141.693 81.7635 141.85C81.2546 142.044 80.8366 142.28 80.5095 142.559C80.0881 142.959 79.8247 143.485 79.7193 144.137L79.7168 144.259C79.7006 145.035 80.0298 145.757 80.7044 146.425C81.2439 146.968 81.9495 147.248 82.8212 147.267C83.5552 147.282 84.2489 147.031 84.9023 146.513C85.4664 145.871 85.7566 145.162 85.7728 144.386Z" fill="white"/>
<path d="M85.7727 144.264L85.7701 144.387C85.754 145.163 85.4638 145.872 84.8997 146.514C84.2463 147.032 83.5526 147.283 82.8186 147.267C81.9469 147.249 81.2413 146.969 80.7018 146.426C80.0272 145.758 79.698 145.036 79.7142 144.26L79.7168 144.137C79.8221 143.485 80.0855 142.96 80.5069 142.56L79.5269 143.336C78.6875 143.972 78.0048 144.796 77.4789 145.807C76.9071 146.816 76.721 148.038 76.9206 149.473C77.0761 150.825 77.7867 151.964 79.0526 152.889C80.2752 153.691 81.5062 154.085 82.7458 154.07L85.6476 153.579C86.2975 153.225 86.9585 152.34 87.6306 150.924C88.2585 149.425 88.2912 147.852 87.7288 146.206C87.0755 144.516 86.2281 143.334 85.1865 142.658L85.7727 144.264Z" fill="#000065"/>
<path d="M141.258 144.689L141.259 144.628L140.673 143.022L140.474 142.65L138.36 141.686L137.248 142.214C136.74 142.367 136.322 142.603 135.994 142.924C135.527 143.282 135.264 143.807 135.204 144.501L135.202 144.562C135.185 145.379 135.515 146.101 136.19 146.728C136.729 147.312 137.411 147.612 138.237 147.63C139.017 147.646 139.734 147.375 140.388 146.816C140.951 146.215 141.241 145.506 141.258 144.689Z" fill="white"/>
<path d="M141.257 144.628L141.256 144.69C141.239 145.507 140.949 146.216 140.385 146.817C139.731 147.376 139.014 147.647 138.234 147.63C137.408 147.613 136.726 147.312 136.187 146.729C135.512 146.102 135.183 145.38 135.2 144.563L135.201 144.501C135.261 143.808 135.525 143.282 135.991 142.924L135.013 143.639C134.172 144.316 133.49 145.14 132.965 146.11C132.392 147.16 132.206 148.382 132.406 149.776C132.561 151.169 133.249 152.307 134.469 153.191C135.737 154.035 136.991 154.429 138.231 154.373L141.133 153.883C141.783 153.528 142.444 152.643 143.116 151.227C143.743 149.769 143.776 148.196 143.215 146.509C142.515 144.818 141.667 143.656 140.671 143.022L141.257 144.628Z" fill="#000065"/>
</svg>
