<svg width="15" height="14" viewBox="0 0 15 14" fill="none" xmlns="http://www.w3.org/2000/svg">
<path d="M10.9723 1.55469H4.99167C4.50458 1.55469 4.0769 1.97798 4.0769 2.47902V11.825C4.0769 11.9927 4.12109 12.1325 4.19231 12.2405C4.27747 12.3696 4.41461 12.4436 4.56165 12.4435C4.70068 12.4435 4.8487 12.3782 4.9854 12.2548L7.66115 9.85489C7.74379 9.78033 7.86249 9.73761 7.98592 9.73761C8.10929 9.73761 8.22776 9.78033 8.31064 9.8551L10.9774 12.2544C11.1146 12.3782 11.2524 12.4436 11.3912 12.4436C11.6259 12.4436 11.8547 12.2523 11.8547 11.825V2.47902C11.8547 1.97798 11.4594 1.55469 10.9723 1.55469Z" fill="#D30000"/>
</svg>
