<svg width="30" height="23" viewBox="0 0 30 23" fill="none" xmlns="http://www.w3.org/2000/svg">
<path d="M15.525 15.7525C16.2009 15.7525 16.75 15.2008 16.75 14.5242C16.75 13.849 16.2009 13.3011 15.525 13.3011L9.97461 9.21875L14.2999 14.603C14.34 15.2439 14.874 15.7525 15.525 15.7525Z" fill="#1D7DEA"/>
<path d="M21.1174 19.3711H8.88281V22.2745H21.1174V19.3711Z" fill="#1D7DEA"/>
<path d="M25.6066 4.3934C22.7734 1.56026 19.0066 0 15 0C10.9934 0 7.22647 1.56026 4.39333 4.3934C1.56019 7.22654 0 10.9934 0 15C0 17.587 0.651757 20.0733 1.87547 22.2734H4.67903L6.72956 21.0894L5.82399 19.5208L3.18731 21.0433C2.2558 19.2296 1.72958 17.1752 1.72958 15C1.72958 14.6151 1.74706 14.2341 1.77931 13.8573L4.92318 14.4117L5.2377 12.628L2.05682 12.0671C2.62521 9.55752 3.90677 7.31571 5.67649 5.56648L7.83165 8.13497L9.21916 6.97078L7.04764 4.38291C9.03886 2.88769 11.4627 1.9394 14.0944 1.76126V5.19643H15.9056V1.76126C18.5373 1.93954 20.9611 2.88776 22.9524 4.38298L20.7808 6.97078L22.1683 8.13497L24.3235 5.56641C26.0932 7.31571 27.3747 9.55752 27.9431 12.0671L24.7623 12.628L25.0769 14.4116L28.2206 13.8572C28.2528 14.234 28.2703 14.6149 28.2703 14.9999C28.2703 17.1752 27.7443 19.2297 26.8126 21.0432L24.1759 19.5209L23.2704 21.0894L25.3208 22.2733H28.1245C29.3483 20.0731 30 17.5869 30 14.9999C30.0001 10.9933 28.4397 7.2264 25.6066 4.3934Z" fill="#030104"/>
</svg>
