<svg width="14" height="14" viewBox="0 0 14 14" fill="none" xmlns="http://www.w3.org/2000/svg">
<path d="M10.0065 1.55469H4.02585C3.53876 1.55469 3.11108 1.97798 3.11108 2.47902V11.825C3.11108 11.9927 3.15527 12.1325 3.22649 12.2405C3.31165 12.3696 3.44879 12.4436 3.59583 12.4435C3.73486 12.4435 3.88288 12.3782 4.01958 12.2548L6.69533 9.85489C6.77797 9.78033 6.89667 9.73761 7.0201 9.73761C7.14347 9.73761 7.26194 9.78033 7.34482 9.8551L10.0116 12.2544C10.1488 12.3782 10.2866 12.4436 10.4254 12.4436C10.6601 12.4436 10.8889 12.2523 10.8889 11.825V2.47902C10.8889 1.97798 10.4936 1.55469 10.0065 1.55469Z" fill="#0029FA"/>
</svg>
