<svg width="174" height="174" viewBox="0 0 174 174" fill="none" xmlns="http://www.w3.org/2000/svg">
<path d="M164.095 127.781H154.968C151.964 127.781 149.531 125.348 149.531 122.344C149.531 119.34 151.964 116.906 154.968 116.906H156.089C159.185 116.906 162.075 114.946 162.877 111.955C164.09 107.434 160.667 103.312 156.328 103.312H114.187V73.4062H152.25C158.598 73.4062 163.723 67.8926 163.068 61.4166C162.497 55.7752 157.407 51.6562 151.736 51.6562H125.062C122.058 51.6562 119.625 49.223 119.625 46.2188C119.625 43.2145 122.058 40.7812 125.062 40.7812H142.345C145.901 40.7812 149.139 38.2229 149.496 34.6858C149.903 30.6158 146.72 27.1875 142.734 27.1875H120.984C118.733 27.1875 116.906 25.3605 116.906 23.1094C116.906 20.8582 118.733 19.0312 120.984 19.0312H131.47C135.026 19.0312 138.264 16.4729 138.621 12.9358C139.028 8.86584 135.845 5.4375 131.859 5.4375H42.5291C38.973 5.4375 35.735 7.99584 35.3788 11.5329C34.971 15.6029 38.1547 19.0312 42.1403 19.0312H51.656C54.6602 19.0312 57.0935 21.4645 57.0935 24.4688C57.0935 27.473 54.6602 29.9062 51.656 29.9062H16.8261C11.1547 29.9062 6.06525 34.0224 5.49431 39.6666C4.83909 46.1426 9.96393 51.6562 16.3122 51.6562H23.1091C28.3644 51.6562 32.6247 55.9165 32.6247 61.1719C32.6247 66.4272 28.3644 70.6875 23.1091 70.6875H19.031C13.3597 70.6875 8.27015 74.8037 7.69922 80.4478C7.044 86.9239 12.1688 92.4375 18.5171 92.4375H59.8122V125.062H20.6296C17.5329 125.062 14.6429 127.023 13.8409 130.013C12.6283 134.535 16.0512 138.656 20.3903 138.656H24.4685C27.4727 138.656 29.906 141.09 29.906 144.094C29.906 147.098 27.4727 149.531 24.4685 149.531H16.8261C11.1547 149.531 6.06525 153.647 5.49431 159.292C4.83909 165.768 9.96393 171.281 16.3122 171.281H149.017C154.688 171.281 159.778 167.165 160.349 161.521C161.004 155.045 155.879 149.531 149.531 149.531H148.172C145.92 149.531 144.093 147.704 144.093 145.453C144.093 143.202 145.92 141.375 148.172 141.375H164.484C168.47 141.375 171.653 137.947 171.246 133.877C170.892 130.34 167.651 127.781 164.095 127.781Z" fill="url(#paint0_radial)"/>
<path d="M149.531 35.3438H97.875V51.6562H76.125V35.3438H24.4688C15.4588 35.3438 8.15625 42.6463 8.15625 51.6562V127.781C8.15625 136.791 15.4588 144.094 24.4688 144.094H76.5083C77.7209 148.775 81.9377 152.25 87 152.25C92.0623 152.25 96.2764 148.775 97.4917 144.094H149.531C158.541 144.094 165.844 136.791 165.844 127.781V51.6562C165.844 42.6463 158.541 35.3438 149.531 35.3438Z" fill="url(#paint1_linear)"/>
<path d="M78.8438 133.219H27.1875C22.6825 133.219 19.0312 129.567 19.0312 125.062V35.3438C19.0312 30.8388 22.6825 27.1875 27.1875 27.1875H70.6875C79.6974 27.1875 87 34.4901 87 43.5V125.062C87 129.567 83.3487 133.219 78.8438 133.219Z" fill="url(#paint2_linear)"/>
<path d="M95.1562 133.219H146.812C151.317 133.219 154.969 129.567 154.969 125.062V35.3438C154.969 30.8388 151.317 27.1875 146.812 27.1875H103.312C94.3026 27.1875 87 34.4901 87 43.5V125.062C87 129.567 90.6513 133.219 95.1562 133.219Z" fill="url(#paint3_linear)"/>
<path d="M19.0312 35.3438C19.0312 30.8388 22.6825 27.1875 27.1875 27.1875H59.8125C63.1158 27.1875 65.7285 30.1319 65.1766 33.5385C64.7416 36.211 62.2295 38.0625 59.5216 38.0625H39.4219C37.1707 38.0625 35.3437 39.8895 35.3437 42.1406C35.3437 44.3918 37.1707 46.2188 39.4219 46.2188H43.5C46.8033 46.2188 49.416 49.1632 48.8641 52.5698C48.4291 55.2423 45.917 57.0938 43.2091 57.0938H19.0312V35.3438ZM43.5 73.4062C40.4958 73.4062 38.0625 75.8395 38.0625 78.8438C38.0625 81.848 40.4958 84.2812 43.5 84.2812C46.5042 84.2812 48.9375 81.848 48.9375 78.8438C48.9375 75.8395 46.5042 73.4062 43.5 73.4062Z" fill="url(#paint4_linear)"/>
<path d="M127.708 50.7427C127.273 48.0702 124.761 46.2188 122.053 46.2188H109.041H104.672C102.421 46.2188 100.594 44.3918 100.594 42.1406C100.594 39.8895 102.421 38.0625 104.672 38.0625H111.469C114.772 38.0625 117.385 35.1181 116.833 31.7115C116.398 29.039 113.886 27.1875 111.178 27.1875H103.313C94.3026 27.1875 87 34.4901 87 43.5V46.2188V48.9375V54.375V57.0938V76.125H100.303C103.011 76.125 105.523 74.2735 105.958 71.601C106.51 68.1944 103.897 65.25 100.594 65.25H98.9435C96.6923 65.25 94.8653 63.423 94.8653 61.1719C94.8653 58.9207 96.6923 57.0938 98.9435 57.0938H108.75H122.344C125.647 57.0938 128.26 54.1493 127.708 50.7427Z" fill="url(#paint5_linear)"/>
<path d="M132.104 100.594H132.088C131.071 100.594 130.095 100.189 129.377 99.4709L122.344 92.4375L115.31 99.4709C114.593 100.189 113.617 100.594 112.6 100.594H112.583C110.466 100.594 108.75 98.8782 108.75 96.7603V29.9062C108.75 25.4013 112.401 21.75 116.906 21.75H127.781C132.286 21.75 135.938 25.4013 135.938 29.9062V96.7603C135.938 98.8782 134.222 100.594 132.104 100.594Z" fill="url(#paint6_linear)"/>
<defs>
<radialGradient id="paint0_radial" cx="0" cy="0" r="1" gradientUnits="userSpaceOnUse" gradientTransform="translate(88.3591 88.3594) scale(82.9219)">
<stop stop-color="#B8EFFF"/>
<stop offset="0.642" stop-color="#D4F6FF"/>
<stop offset="1" stop-color="#E5FAFF"/>
</radialGradient>
<linearGradient id="paint1_linear" x1="87" y1="152.25" x2="87" y2="35.3438" gradientUnits="userSpaceOnUse">
<stop stop-color="#FF634D"/>
<stop offset="0.204" stop-color="#FE6464"/>
<stop offset="0.521" stop-color="#FC6581"/>
<stop offset="0.794" stop-color="#FA6694"/>
<stop offset="0.989" stop-color="#FA669A"/>
<stop offset="1" stop-color="#FA669A"/>
</linearGradient>
<linearGradient id="paint2_linear" x1="53.0156" y1="133.219" x2="53.0156" y2="27.1875" gradientUnits="userSpaceOnUse">
<stop stop-color="#FFD17A"/>
<stop offset="1" stop-color="#FFCFA4"/>
</linearGradient>
<linearGradient id="paint3_linear" x1="120.984" y1="133.219" x2="120.984" y2="27.1875" gradientUnits="userSpaceOnUse">
<stop stop-color="#FFD685"/>
<stop offset="1" stop-color="#FFD4AD"/>
</linearGradient>
<linearGradient id="paint4_linear" x1="42.1406" y1="84.2812" x2="42.1406" y2="27.1875" gradientUnits="userSpaceOnUse">
<stop stop-color="#FFD79F"/>
<stop offset="1" stop-color="#FFD5AF"/>
</linearGradient>
<linearGradient id="paint5_linear" x1="107.391" y1="76.125" x2="107.391" y2="27.1875" gradientUnits="userSpaceOnUse">
<stop stop-color="#FFDAB9"/>
<stop offset="1" stop-color="#FFDAB9"/>
</linearGradient>
<linearGradient id="paint6_linear" x1="122.344" y1="100.594" x2="122.344" y2="21.75" gradientUnits="userSpaceOnUse">
<stop stop-color="#FF634D"/>
<stop offset="0.204" stop-color="#FE6464"/>
<stop offset="0.521" stop-color="#FC6581"/>
<stop offset="0.794" stop-color="#FA6694"/>
<stop offset="0.989" stop-color="#FA669A"/>
<stop offset="1" stop-color="#FA669A"/>
</linearGradient>
</defs>
</svg>
