<svg width="30" height="30" viewBox="0 0 30 30" fill="none" xmlns="http://www.w3.org/2000/svg">
<g clip-path="url(#clip0)">
<path d="M23.3233 10.3657C23.2198 10.0475 22.9447 9.81568 22.6137 9.76762L18.5177 9.17252L16.6857 5.46074C16.5376 5.16068 16.232 4.9707 15.8974 4.9707C15.5628 4.9707 15.2575 5.16068 15.1094 5.46074L13.2774 9.17252L9.18132 9.76762C8.85013 9.81568 8.57524 10.0475 8.47179 10.3657C8.36833 10.6841 8.45462 11.0333 8.69403 11.2668L11.6581 14.1562L10.9584 18.2358C10.9018 18.5656 11.0373 18.8989 11.3081 19.0955C11.5786 19.2921 11.9375 19.318 12.2337 19.1623L15.8974 17.2363L19.5611 19.1623C19.6898 19.2301 19.8303 19.2635 19.9701 19.2635H19.9736C20.4579 19.2621 20.8502 18.8691 20.8502 18.3846C20.8502 18.3171 20.8426 18.2514 20.8282 18.1882L20.1368 14.1562L23.1008 11.2668C23.3404 11.0333 23.4265 10.6841 23.3233 10.3657ZM18.5788 13.2198C18.3716 13.4217 18.2771 13.7126 18.3261 13.9978L18.8028 16.7778L16.3064 15.4652C16.1783 15.3979 16.038 15.3642 15.8974 15.3642C15.7571 15.3642 15.6166 15.3979 15.4884 15.4652L12.992 16.7778L13.4687 13.9978C13.5177 13.7126 13.4232 13.4217 13.2161 13.2198L11.1964 11.2512L13.9874 10.8457C14.2737 10.804 14.5211 10.6243 14.6493 10.3648L15.8974 7.83562L17.1457 10.3648C17.2739 10.6243 17.5213 10.804 17.8077 10.8457L20.5987 11.2512L18.5788 13.2198Z" fill="#1D7DEA"/>
<path d="M15.8975 -0.0585938C9.23334 -0.0585938 3.80242 5.32243 3.72254 11.968L2.27303 16.1957C1.87501 17.3571 1.9011 18.3793 2.34467 19.0004C2.61063 19.3726 3.02102 19.5859 3.471 19.5859H3.72163V21.0606C3.72163 22.8429 5.17183 24.2929 6.95413 24.2929C7.76735 24.2929 8.42882 24.9546 8.42882 25.7676V26.709C8.42882 28.4913 9.87879 29.9415 11.6611 29.9415H18.2511C20.0334 29.9415 21.4836 28.4913 21.4836 26.709V22.9365C23.3503 21.9718 24.936 20.5417 26.093 18.7738C27.3885 16.7942 28.0733 14.4926 28.0733 12.117C28.0733 5.40346 22.6113 -0.0585938 15.8975 -0.0585938ZM20.2378 21.5889C19.9256 21.7322 19.7255 22.0443 19.7255 22.3877V26.709C19.7255 27.5222 19.0641 28.1837 18.2511 28.1837H11.6611C10.8481 28.1837 10.1866 27.5222 10.1866 26.709V25.7676C10.1866 23.9853 8.73644 22.5353 6.95413 22.5353C6.14091 22.5353 5.47944 21.8736 5.47944 21.0606V18.707C5.47944 18.2218 5.08599 17.8281 4.60054 17.8281H3.75482C3.73994 17.632 3.761 17.2763 3.93586 16.7659L5.43206 12.4022C5.46342 12.3104 5.47944 12.2141 5.47944 12.1173C5.47944 6.37277 10.153 1.69922 15.8975 1.69922C21.642 1.69922 26.3155 6.37277 26.3155 12.1173C26.3155 16.176 23.9299 19.894 20.2378 21.5889Z" fill="black"/>
</g>
<defs>
<clipPath id="clip0">
<rect width="30" height="30" fill="white"/>
</clipPath>
</defs>
</svg>
