<svg width="30" height="30" viewBox="0 0 30 30" fill="none" xmlns="http://www.w3.org/2000/svg">
<g clip-path="url(#clip0)">
<g opacity="0.1">
<path opacity="0.1" d="M27.0592 10.8268C24.8586 8.89027 22.0418 7.74595 18.8729 7.74595C12.0949 7.74595 6.54934 13.2915 6.54934 20.0695C6.54934 20.9498 6.63737 21.742 6.81344 22.5342C4.2607 20.2456 2.67627 16.9886 2.67627 13.3796C2.67627 6.60163 8.22186 1.05604 14.9998 1.05604C20.9855 0.968004 25.9149 5.19327 27.0592 10.8268Z" fill="#030303"/>
</g>
<path d="M7.42965 23.0633L7.25359 24.2076C7.07752 23.6795 6.90151 23.0633 6.81348 22.5352C7.07758 22.7112 7.25365 22.8872 7.42965 23.0633Z" fill="#77C587"/>
<path d="M6.10908 29.8406C5.84497 29.6645 5.66897 29.3125 5.66897 28.9603L6.54925 23.3267C3.5564 20.774 1.7959 17.1649 1.7959 13.2038C1.79584 5.89767 7.69351 0 14.9996 0C22.3057 0 28.2034 5.89767 28.2034 13.2038C28.2034 20.51 22.3057 26.4076 14.9996 26.4076C14.1193 26.4076 13.2391 26.3196 12.4469 26.1435L7.07733 29.7526C6.72525 30.0166 6.37312 30.1046 6.10908 29.8406ZM14.9996 1.84853C8.66176 1.84853 3.55634 6.95402 3.55634 13.2918C3.55634 16.8128 5.14076 20.1578 7.95761 22.3584C8.22171 22.5344 8.30968 22.8865 8.30968 23.1506L7.69351 27.2878L11.7426 24.559C11.9187 24.3829 12.1828 24.3829 12.4469 24.471C13.3271 24.647 14.1193 24.7351 14.9996 24.7351C21.3374 24.7351 26.4429 19.6296 26.4429 13.2918C26.4429 6.95402 21.3374 1.84853 14.9996 1.84853Z" fill="black"/>
<path d="M14.9997 18.0459C14.4716 18.0459 14.1195 17.6938 14.1195 17.1656V14.2608C14.1195 13.7327 14.4715 13.3805 14.9997 13.3805C16.2321 13.3805 17.2003 12.4123 17.2003 11.1799C17.2003 9.94756 16.2321 8.97931 14.9997 8.97931C13.7674 8.97931 12.7991 9.94756 12.7991 11.1799C12.7991 11.7081 12.4471 12.0602 11.9189 12.0602C11.3907 12.0602 11.0386 11.7081 11.0386 11.1799C11.0386 8.97931 12.7991 7.21875 14.9997 7.21875C17.2004 7.21875 18.9609 8.97925 18.9609 11.1799C18.9609 13.0284 17.6405 14.6129 15.88 15.053V17.1657C15.88 17.6057 15.5279 18.0459 14.9997 18.0459Z" fill="#1D7DEA"/>
<path d="M14.3832 20.3343C14.0311 19.9822 14.0311 19.3661 14.3832 19.1019C14.7353 18.7499 15.2635 18.7499 15.6155 19.1019C15.9676 19.454 15.9676 19.9822 15.6155 20.3343C15.2635 20.7744 14.7353 20.6864 14.3832 20.3343Z" fill="#1D7DEA"/>
</g>
<defs>
<clipPath id="clip0">
<rect width="30" height="30" fill="white"/>
</clipPath>
</defs>
</svg>
