<svg width="53" height="53" viewBox="0 0 53 53" fill="none" xmlns="http://www.w3.org/2000/svg">
<mask id="mask0" mask-type="alpha" maskUnits="userSpaceOnUse" x="0" y="0" width="53" height="53">
<rect width="53" height="53" fill="#C4C4C4"/>
</mask>
<g mask="url(#mask0)">
<path d="M30.2773 8.85815C30.2773 8.85815 33.2091 6.86614 33.2091 10.7852C33.1528 13.3532 32.6532 15.8921 31.7324 18.2899L30.2773 8.85815Z" fill="#2E2A29"/>
<path d="M16.6618 8.85815C16.6618 8.85815 13.7344 6.86614 13.7344 10.7852C13.7904 13.3528 14.2885 15.8915 15.2067 18.2899L16.6618 8.85815Z" fill="#2E2A29"/>
<path d="M17.9747 20.7886C17.9917 21.3931 17.8289 21.9891 17.507 22.5011C17.1852 23.0131 16.7187 23.4182 16.1667 23.6651C15.6146 23.9119 15.0017 23.9895 14.4055 23.888C13.8093 23.7865 13.2566 23.5105 12.8173 23.0948C12.3781 22.6792 12.0719 22.1426 11.9376 21.5529C11.8034 20.9632 11.847 20.347 12.063 19.7821C12.279 19.2172 12.6577 18.7291 13.1511 18.3795C13.6446 18.0299 14.2306 17.8344 14.8352 17.8179C15.2365 17.8064 15.6361 17.8741 16.0112 18.0172C16.3863 18.1604 16.7295 18.3761 17.0212 18.652C17.3128 18.928 17.5471 19.2587 17.7107 19.6253C17.8744 19.992 17.9641 20.3873 17.9747 20.7886Z" fill="#FDC3AB"/>
<path d="M32.1921 23.9498C33.8806 23.9498 35.2494 22.581 35.2494 20.8925C35.2494 19.204 33.8806 17.8352 32.1921 17.8352C30.5036 17.8352 29.1348 19.204 29.1348 20.8925C29.1348 22.581 30.5036 23.9498 32.1921 23.9498Z" fill="#FDC3AB"/>
<path d="M19.8379 27.163C19.8379 27.163 20.4918 31.0214 23.5794 30.9694C26.1171 30.9261 26.68 27.2885 26.68 27.2885L19.8379 27.163Z" fill="#FE9575"/>
<path d="M31.8059 15.3669C31.8153 18.0688 31.4968 20.7618 30.8575 23.3869C30.3855 25.327 29.0344 26.6867 27.1247 27.7867L26.7739 27.9859C25.7518 28.5594 24.6028 28.8693 23.4309 28.8874C22.259 28.9056 21.1011 28.6314 20.0617 28.0898C17.9787 26.9812 16.5194 25.4915 16.0603 23.4346C15.5266 20.812 15.2108 18.1498 15.1163 15.4752C15.1163 15.4752 14.1722 5.33756 23.1709 5.45015C32.1696 5.56274 31.8059 15.3669 31.8059 15.3669Z" fill="#FDC3AB"/>
<path d="M26.887 14.1716C26.887 14.1716 25.0336 13.8122 24.9513 14.8125C24.9513 14.8125 24.9037 15.4881 26.5276 15.7609C28.1515 16.0337 28.7924 15.9774 28.983 15.3538C29.1735 14.7302 27.7661 14.2539 26.887 14.1716Z" fill="#1D0300"/>
<path d="M18.9015 14.2149C18.9015 14.2149 17.0134 14.3015 17.1693 15.2889C17.1693 15.2889 17.2862 15.9601 18.9015 15.8432C20.5168 15.7263 21.1577 15.5227 21.1966 14.8732C21.2356 14.2236 19.7719 14.0893 18.9015 14.2149Z" fill="#1D0300"/>
<path d="M20.3086 18.7056C20.3085 18.8488 20.2662 18.9887 20.187 19.108C20.1078 19.2272 19.9952 19.3204 19.8633 19.376C19.7314 19.4315 19.586 19.4469 19.4454 19.4202C19.3047 19.3935 19.1751 19.3259 19.0727 19.2259C18.9703 19.1259 18.8997 18.9978 18.8697 18.8579C18.8397 18.7179 18.8516 18.5722 18.904 18.439C18.9565 18.3058 19.047 18.191 19.1644 18.1091C19.2817 18.0271 19.4206 17.9815 19.5637 17.9781C19.6607 17.9758 19.7572 17.9929 19.8474 18.0284C19.9377 18.064 20.02 18.1172 20.0894 18.185C20.1588 18.2528 20.2139 18.3337 20.2516 18.4232C20.2892 18.5126 20.3086 18.6086 20.3086 18.7056Z" fill="#1D0300"/>
<path d="M27.4531 18.7057C27.4531 18.8496 27.4104 18.9902 27.3305 19.1099C27.2505 19.2295 27.1369 19.3227 27.004 19.3778C26.871 19.4329 26.7248 19.4473 26.5836 19.4192C26.4425 19.3911 26.3129 19.3218 26.2111 19.2201C26.1094 19.1184 26.0401 18.9887 26.012 18.8476C25.984 18.7065 25.9984 18.5602 26.0534 18.4273C26.1085 18.2943 26.2017 18.1807 26.3214 18.1008C26.441 18.0208 26.5817 17.9781 26.7256 17.9781C26.9185 17.9781 27.1036 18.0548 27.24 18.1912C27.3764 18.3277 27.4531 18.5127 27.4531 18.7057Z" fill="#1D0300"/>
<path d="M22.4922 20.6803V21.7802H23.3366" stroke="#CD8670" stroke-width="0.94" stroke-linecap="round" stroke-linejoin="round"/>
<path d="M20.6992 23.3566C22.1992 23.8357 23.8112 23.8357 25.3112 23.3566" stroke="#CD8670" stroke-width="0.94" stroke-linecap="round" stroke-linejoin="round"/>
<path d="M31.7317 18.2898C31.7317 18.2898 29.8003 14.0546 29.9562 7.87073C29.9562 7.87073 32.0781 8.7628 32.3466 10.6336C32.6151 12.5043 32.5805 16.6616 31.7317 18.2898Z" fill="#2E2A29"/>
<path d="M15.2065 18.2898C15.2065 18.2898 16.8044 16.3325 16.6528 10.1486C16.6528 10.1486 14.8687 8.76283 14.6002 10.6336C14.3317 12.5044 14.3663 16.6616 15.2065 18.2898Z" fill="#2E2A29"/>
<path d="M31.2185 9.96244C31.2185 9.96244 24.2031 15.7393 12.29 9.5727L14.3687 8.35151C14.3687 8.35151 12.9656 7.74524 11.8613 5.06902C11.8613 5.06902 15.0312 6.08668 16.6595 5.93511C16.6595 5.93511 14.7324 3.93877 15.0875 2.61365C15.0875 2.61365 18.344 5.15996 20.2841 4.54936C22.2241 3.93877 30.478 1.31451 32.1669 8.44678L31.2185 9.96244Z" fill="#2E2A29"/>
<path d="M45.4158 63.7554L44.0907 44.8962L36.4258 47.1351L39.3272 64.2794L45.4158 63.7554Z" fill="#FDC3AB"/>
<path d="M31.582 31.9656C31.582 31.9656 45.4395 33.6588 47.8559 54.5922H34.3362L31.582 31.9656Z" fill="#F5F9FF"/>
<path d="M1.64453 63.7554L2.97398 44.8962L10.6346 47.1351L7.73749 64.2794L1.64453 63.7554Z" fill="#FDC3AB"/>
<path d="M15.0907 32.0477C15.0907 32.0477 1.64466 33.6673 -0.789062 54.5921H12.7306L15.0907 32.0477Z" fill="#F5F9FF"/>
<path d="M37.9352 35.0142L26.9267 29.233H19.7815L9.19389 35.0142C8.20222 35.5122 8.56165 36.5775 8.7392 37.6774L8.79549 75.4088H39.6717L38.3855 37.6774C38.5674 36.5775 38.9268 35.5122 37.9352 35.0142Z" fill="#F5F9FF"/>
<path d="M26.6466 26.5152C25.8601 26.9252 24.9827 27.2277 24.0552 27.4086C23.2052 27.4891 22.3434 27.3601 21.6001 27.0411L20.1544 26.4182L19.5645 31.7787L19.7247 31.8783L23.4755 33.78L27.0524 31.9778L27.3593 31.7915L26.6466 26.5152Z" fill="#FDC3AB"/>
<path d="M8.7679 54.5921L8.52539 42.7656" stroke="#D8E0EB" stroke-width="0.9" stroke-linecap="round" stroke-linejoin="round"/>
<path d="M39.0723 54.5921L39.3104 42.7656" stroke="#D8E0EB" stroke-width="0.9" stroke-linecap="round" stroke-linejoin="round"/>
<path d="M17.1816 30.5321L20.7238 36.5734L23.5317 33.9337L26.068 36.5734L29.5235 30.5321" stroke="#D8E0EB" stroke-width="0.8" stroke-linecap="round" stroke-linejoin="round"/>
<path d="M21.4375 35.9039L23.4305 37.8901L25.4235 35.9039L23.5316 33.9336L21.4375 35.9039Z" fill="#6953A8"/>
<path d="M22.8208 36.5734L20.3066 64.6823L23.5315 70.2302L26.4689 64.6823L23.9547 36.7091L22.8208 36.5734Z" fill="#6953A8"/>
</g>
</svg>
