<svg width="53" height="53" viewBox="0 0 53 53" fill="none" xmlns="http://www.w3.org/2000/svg">
<mask id="mask0" mask-type="alpha" maskUnits="userSpaceOnUse" x="0" y="0" width="53" height="53">
<rect width="53" height="53" fill="#C4C4C4"/>
</mask>
<g mask="url(#mask0)">
<path d="M8.95053 42.4856C8.95053 42.4856 3.58326 45.3806 3.36221 52.7485C3.14115 60.1165 1.59375 106.415 1.59375 106.415L9.10969 106.786L13.7254 55.3298L8.95053 42.4856Z" fill="#FCD281"/>
<path d="M45.3365 42.4591C47.1292 43.5113 48.6225 45.0049 49.6743 46.7976C50.726 48.5902 51.3011 50.6222 51.3448 52.7C51.6499 60.0679 53.7544 106.34 53.7544 106.34L46.2384 106.782L41.0215 55.4005L45.3365 42.4591Z" fill="#FCD281"/>
<path d="M45.3369 42.4591L32.2194 36.0149H22.0817L8.96421 42.4591C8.45255 42.7107 8.03561 43.1204 7.77521 43.6276C7.5148 44.1347 7.42478 44.7122 7.5185 45.2745L12.7576 68.7529L13.3765 85.9374H40.9423L41.5657 68.7529L46.7782 45.2745C46.8723 44.7127 46.783 44.1356 46.5234 43.6285C46.2638 43.1214 45.8478 42.7114 45.3369 42.4591Z" fill="#FCD281"/>
<path d="M12.7569 68.7529L9.42773 52.2889" stroke="#E0B35C" stroke-width="0.8" stroke-linecap="round" stroke-linejoin="round"/>
<path d="M41.6055 68.7529L44.9346 52.2889" stroke="#E0B35C" stroke-width="0.8" stroke-linecap="round" stroke-linejoin="round"/>
<path d="M18.4434 38.1674L23.2049 43.1751L27.1353 39.4801L30.6855 43.1751L34.9165 37.743" stroke="#E0B35C" stroke-width="0.8" stroke-linecap="round" stroke-linejoin="round"/>
<path d="M24.2031 42.238L26.9929 45.0181L29.7826 42.238L27.1343 39.48L24.2031 42.238Z" fill="#6953A8"/>
<path d="M26.1403 43.1751L22.6211 82.5208L27.1351 90.2865L31.2467 82.5208L27.7275 43.3652L26.1403 43.1751Z" fill="#6953A8"/>
<path d="M21.5637 19.1973C21.5809 19.8141 21.4148 20.4222 21.0864 20.9446C20.758 21.4671 20.2821 21.8805 19.7187 22.1326C19.1553 22.3846 18.5298 22.4641 17.9213 22.3608C17.3127 22.2575 16.7485 21.9762 16.2999 21.5524C15.8512 21.1287 15.5384 20.5814 15.4008 19.9799C15.2632 19.3783 15.3071 18.7495 15.527 18.1729C15.7468 17.5963 16.1327 17.0979 16.6359 16.7405C17.1391 16.3831 17.737 16.1829 18.354 16.1652C18.7639 16.1535 19.1721 16.2226 19.5553 16.3686C19.9386 16.5146 20.2892 16.7347 20.5873 17.0163C20.8854 17.2979 21.1251 17.6354 21.2926 18.0096C21.4601 18.3839 21.5523 18.7874 21.5637 19.1973Z" fill="#E4AC94"/>
<path d="M16.6699 18.8437C16.6699 18.8437 17.9123 18.2426 19.0927 20.3951" stroke="#D29175" stroke-width="0.94" stroke-linecap="round" stroke-linejoin="round"/>
<path d="M36.0784 22.4061C37.8022 22.4061 39.1997 21.009 39.1997 19.2857C39.1997 17.5623 37.8022 16.1652 36.0784 16.1652C34.3545 16.1652 32.957 17.5623 32.957 19.2857C32.957 21.009 34.3545 22.4061 36.0784 22.4061Z" fill="#E4AC94"/>
<path d="M37.8473 18.7951C37.8473 18.7951 36.5917 18.2249 35.4688 20.4128" stroke="#D29175" stroke-width="0.94" stroke-linecap="round" stroke-linejoin="round"/>
<path d="M31.2647 26.879C30.2449 27.589 29.1073 28.1127 27.9047 28.426C26.8026 28.5653 25.6851 28.3419 24.7215 27.7895L22.8469 26.7111L22.082 35.9928L22.2898 36.1652L27.1531 39.458L31.7909 36.3375L32.1888 36.0149L31.2647 26.879Z" fill="#E4AC94"/>
<path d="M21.7949 27.2414C21.7949 27.2414 23.4263 32.2447 27.4496 32.1784C30.7743 32.1297 32.1625 27.0867 32.1625 27.0867L21.7949 27.2414Z" fill="#D29175"/>
<path d="M35.6916 14.2558C35.7033 17.1942 35.3799 20.1243 34.7278 22.9895C34.2459 25.1066 32.8665 26.5917 30.9168 27.7939L30.5587 28.0105C29.5285 28.636 28.3502 28.976 27.1451 28.9954C25.9399 29.0148 24.7513 28.713 23.7015 28.121C21.5793 26.9099 20.085 25.3011 19.6163 23.0381C19.0706 20.1693 18.7469 17.2628 18.6481 14.3442C18.6481 14.3442 17.6843 5.22162 26.8758 4.91665C36.651 4.60726 35.6916 14.2558 35.6916 14.2558Z" fill="#E4AC94"/>
<path d="M30.6683 12.4304C30.6683 12.4304 28.776 12.0592 28.6876 13.0802C28.6876 13.0802 28.6434 13.7697 30.2969 14.0481C31.9504 14.3266 32.6092 14.2691 32.8037 13.6326C32.9982 12.9962 31.5614 12.5056 30.6683 12.4304Z" fill="#1D0300"/>
<path d="M22.5102 12.4702C22.5102 12.4702 20.5826 12.5542 20.7418 13.5664C20.7418 13.5664 20.8611 14.247 22.5323 14.1321C24.2035 14.0172 24.8357 13.805 24.8755 13.1376C24.9153 12.4702 23.3989 12.3376 22.5102 12.4702Z" fill="#1D0300"/>
<path d="M23.2056 17.7962C23.6159 17.7962 23.9484 17.4637 23.9484 17.0536C23.9484 16.6435 23.6159 16.3111 23.2056 16.3111C22.7954 16.3111 22.4629 16.6435 22.4629 17.0536C22.4629 17.4637 22.7954 17.7962 23.2056 17.7962Z" fill="#1D0300"/>
<path d="M30.4986 17.7962C30.9088 17.7962 31.2414 17.4637 31.2414 17.0536C31.2414 16.6435 30.9088 16.3111 30.4986 16.3111C30.0884 16.3111 29.7559 16.6435 29.7559 17.0536C29.7559 17.4637 30.0884 17.7962 30.4986 17.7962Z" fill="#1D0300"/>
<path d="M26.1758 18.1365V20.1918H27.5021" stroke="#D29175" stroke-width="0.94" stroke-linecap="round" stroke-linejoin="round"/>
<path d="M35.3459 18.7729L31.694 22.3575C31.694 22.3575 30.1378 20.9961 26.9899 21.0315C23.8421 21.0669 22.2284 22.2912 22.2284 22.2912L18.9611 18.8658L18.5234 24.3641C18.6605 29.8536 27.1712 29.9155 27.1712 29.9155C27.1712 29.9155 35.6863 29.8359 35.8234 24.3641L35.3459 18.7729Z" fill="#E2E2E2"/>
<path d="M24.3711 22.5254C24.3711 22.5254 25.9539 23.6701 29.0619 22.9364" stroke="#D29175" stroke-width="0.94" stroke-linecap="round" stroke-linejoin="round"/>
<path d="M17.5453 8.48795C17.5188 8.54541 17.4923 8.60287 17.4702 8.66475V8.70453C17.3015 9.19177 17.2207 9.70506 17.2314 10.2205C17.2314 13.0316 17.9742 14.4106 18.4163 15.7321C18.481 15.9688 18.5623 16.2007 18.6594 16.426L18.739 16.6249C18.739 16.6249 19.5879 16.4305 20.0654 10.3178C20.0654 10.3178 21.0867 6.58299 22.9966 5.74763C23.0099 5.75205 18.7523 5.53106 17.5453 8.48795Z" fill="#E2E2E2"/>
<path d="M36.7429 8.48799C36.7695 8.54545 36.7916 8.6029 36.8181 8.66478V8.70456C36.9867 9.1918 37.0676 9.7051 37.0568 10.2206C37.0568 13.0316 36.3141 14.4106 35.872 15.7322C35.8123 15.9707 35.734 16.2042 35.6376 16.4305C35.5934 16.5543 35.5625 16.6294 35.5625 16.6294C35.5625 16.6294 34.7136 16.4349 34.2361 10.3222C34.2361 10.3222 33.3519 6.55208 31.4553 5.71673C31.4243 5.71673 35.536 5.53109 36.7429 8.48799Z" fill="#E2E2E2"/>
<path d="M33.7806 9.52767C33.7806 9.52767 33.1716 5.9229 28.4653 6.12441C23.7589 6.32591 21.9901 8.58282 18.0674 8.72611L16.2986 4.06006C16.2825 4.02344 16.2775 3.98293 16.2841 3.94349C16.2906 3.90405 16.3085 3.86737 16.3356 3.83794C16.3627 3.8085 16.3977 3.78758 16.4365 3.77772C16.4752 3.76786 16.516 3.7695 16.5538 3.78242C17.6017 4.12723 19.9302 4.04214 22.0349 3.15103C25.2411 1.80763 28.0981 0.401546 31.3491 1.2658C33.9418 1.95093 35.4688 4.54368 34.1478 6.87671L33.7806 9.52767Z" fill="#E2E2E2"/>
</g>
</svg>
