<svg width="53" height="53" viewBox="0 0 53 53" fill="none" xmlns="http://www.w3.org/2000/svg">
<mask id="mask0" mask-type="alpha" maskUnits="userSpaceOnUse" x="0" y="0" width="53" height="53">
<rect width="53" height="53" fill="#C4C4C4"/>
</mask>
<g mask="url(#mask0)">
<path d="M7.02101 42.4369C7.02101 42.4369 -3.39687 46.4385 -5.67435 74.7332C-5.70179 75.0213 -5.71094 75.314 -5.71094 75.5976C-5.71108 77.6303 -5.09914 79.6159 -3.95481 81.2959L7.73901 93.3189L11.6309 87.1313V79.1144L7.0576 72.41L11.6309 62.3031L7.02101 42.4369Z" fill="#6953A8"/>
<path d="M44.9197 42.2402C44.9197 42.2402 56.4808 46.4385 58.7583 74.7104C58.7812 74.9985 58.7949 75.2912 58.7949 75.5747C58.7951 77.6074 58.1831 79.593 57.0388 81.273L45.3404 93.2961L41.4531 87.1085V78.4193L46.4517 71.8338L41.4531 62.2848L44.9197 42.2402Z" fill="#6953A8"/>
<path d="M33.377 5.56268C33.377 5.56268 36.4685 3.45898 36.4685 7.59778C36.4126 10.3171 35.8866 13.0062 34.9136 15.5461L33.377 5.56268Z" fill="#8A4A10"/>
<path d="M18.9848 5.56268C18.9848 5.56268 15.8887 3.45898 15.8887 7.59778C15.9491 10.3183 16.4815 13.0077 17.4619 15.5461L18.9848 5.56268Z" fill="#8A4A10"/>
<path d="M20.3799 18.1803C20.3986 18.8189 20.2275 19.4487 19.8882 19.99C19.5489 20.5313 19.0566 20.9597 18.4737 21.2212C17.8908 21.4826 17.2434 21.5652 16.6135 21.4585C15.9836 21.3519 15.3995 21.0607 14.9352 20.622C14.4708 20.1832 14.147 19.6166 14.0048 18.9937C13.8626 18.3709 13.9084 17.7199 14.1363 17.1231C14.3643 16.5263 14.7642 16.0105 15.2854 15.6411C15.8066 15.2716 16.4256 15.0651 17.0643 15.0476C17.4877 15.0354 17.9094 15.1068 18.3052 15.2577C18.7011 15.4085 19.0633 15.6359 19.3712 15.9269C19.6792 16.2178 19.9267 16.5665 20.0998 16.9532C20.2729 17.3399 20.368 17.7568 20.3799 18.1803Z" fill="#E4AC94"/>
<path d="M15.3262 17.8327C15.3262 17.8327 16.6113 17.2062 17.8323 19.4379" stroke="#D29175" stroke-width="0.94" stroke-linecap="round" stroke-linejoin="round"/>
<path d="M35.3928 21.5005C37.176 21.5005 38.6215 20.055 38.6215 18.2718C38.6215 16.4886 37.176 15.0431 35.3928 15.0431C33.6096 15.0431 32.1641 16.4886 32.1641 18.2718C32.1641 20.055 33.6096 21.5005 35.3928 21.5005Z" fill="#E4AC94"/>
<path d="M37.2143 17.7687C37.2143 17.7687 35.9064 17.1788 34.7539 19.4425" stroke="#D29175" stroke-width="0.94" stroke-linecap="round" stroke-linejoin="round"/>
<path d="M30.4185 26.124C29.3638 26.86 28.1871 27.4035 26.9429 27.7293C25.2828 28.0448 23.673 27.0799 23.6501 27.0707L21.7293 25.9548L20.9336 35.5587L21.1485 35.737C22.5245 36.8755 24.2472 37.5113 26.0329 37.5396C27.8186 37.5678 29.5606 36.9869 30.9719 35.8925L31.3881 35.5587L30.4185 26.124Z" fill="#E4AC94"/>
<path d="M20.6172 26.5219C20.6172 26.5219 22.3093 31.6942 26.471 31.6302C29.8918 31.5524 31.3323 26.3435 31.3323 26.3435L20.6172 26.5219Z" fill="#D29175"/>
<path d="M34.9916 13.072C35.0008 16.1122 34.6663 19.1437 33.9946 22.1088C33.4961 24.2948 32.0693 25.8314 30.0525 27.0753L29.682 27.2994C28.6193 27.948 27.4034 28.3025 26.1586 28.3266C24.9139 28.3507 23.6851 28.0435 22.5981 27.4366C20.3938 26.1835 18.848 24.5234 18.3632 22.1774C17.8016 19.2087 17.4683 16.2014 17.3663 13.1818C17.3663 13.1818 16.3647 3.28981 25.8725 3.41786C35.3803 3.54591 34.9916 13.072 34.9916 13.072Z" fill="#E4AC94"/>
<path d="M29.797 11.1787C29.797 11.1787 27.8396 10.7945 27.7482 11.851C27.7482 11.851 27.7024 12.5644 29.4128 12.8525C31.1232 13.1406 31.8046 13.0812 32.0059 12.4226C32.2071 11.7641 30.7208 11.261 29.797 11.1787Z" fill="#1D0300"/>
<path d="M21.3624 11.2244C21.3624 11.2244 19.3685 11.3113 19.5331 12.3586C19.5331 12.3586 19.652 13.0628 21.3853 12.9439C23.1185 12.825 23.7634 12.6055 23.8045 11.915C23.8457 11.2244 22.2771 11.0872 21.3624 11.2244Z" fill="#1D0300"/>
<path d="M22.8452 15.9623C22.8452 16.1142 22.8001 16.2628 22.7157 16.3891C22.6313 16.5155 22.5113 16.6139 22.3709 16.6721C22.2305 16.7303 22.076 16.7455 21.927 16.7158C21.778 16.6862 21.6411 16.613 21.5336 16.5056C21.4262 16.3981 21.353 16.2612 21.3234 16.1122C21.2937 15.9631 21.3089 15.8086 21.3671 15.6683C21.4252 15.5279 21.5237 15.4079 21.6501 15.3235C21.7764 15.239 21.9249 15.194 22.0769 15.194C22.2803 15.1952 22.475 15.2765 22.6189 15.4203C22.7627 15.5642 22.844 15.7589 22.8452 15.9623Z" fill="#1D0300"/>
<path d="M30.4168 15.9623C30.4177 16.1155 30.3731 16.2656 30.2885 16.3934C30.2039 16.5212 30.0833 16.621 29.9418 16.68C29.8004 16.7391 29.6447 16.7548 29.4943 16.7251C29.344 16.6954 29.2058 16.6217 29.0975 16.5134C28.9891 16.405 28.9154 16.2669 28.8857 16.1165C28.856 15.9662 28.8717 15.8104 28.9308 15.669C28.9899 15.5276 29.0896 15.4069 29.2174 15.3223C29.3452 15.2378 29.4953 15.1931 29.6485 15.194C29.8519 15.1952 30.0467 15.2765 30.1905 15.4203C30.3343 15.5642 30.4156 15.7589 30.4168 15.9623Z" fill="#1D0300"/>
<path d="M25.1543 17.0873V19.2093H26.5217" stroke="#D29175" stroke-width="0.94" stroke-linecap="round" stroke-linejoin="round"/>
<path d="M34.6291 17.7413L30.8744 21.4548C30.8744 21.4548 29.2647 20.0463 26.0131 20.0828C22.7615 20.1194 21.0877 21.3862 21.0877 21.3862L17.6897 17.8328L17.2324 23.5128C17.3788 29.1836 26.1777 29.2659 26.1777 29.2659C26.1777 29.2659 34.9904 29.1836 35.123 23.5082L34.6291 17.7413Z" fill="#8A4A10"/>
<path d="M23.2891 21.624C23.2891 21.624 24.9309 22.8085 28.1321 22.0493" stroke="#E2E2E2" stroke-width="0.86" stroke-linecap="round" stroke-linejoin="round"/>
<path d="M34.9146 15.5462C34.9146 15.5462 33.2316 13.4791 33.3871 6.95302C33.3871 6.95302 35.2713 5.48501 35.5548 7.46065C35.8384 9.4363 35.8064 13.8038 34.9146 15.5462Z" fill="#8A4A10"/>
<path d="M17.4613 15.5461C17.4613 15.5461 19.1442 13.4561 18.9842 6.93007C18.9842 6.93007 17.1 5.46206 16.8165 7.43771C16.5329 9.41335 16.5649 13.8037 17.4613 15.5461Z" fill="#8A4A10"/>
<path d="M33.8756 8.70911C33.8756 8.70911 33.2536 5.02764 28.4471 5.23344C23.6407 5.43923 21.8342 7.74415 17.828 7.8905L16.0216 3.12516C16.0052 3.08776 16.0001 3.0464 16.0068 3.00612C16.0135 2.96584 16.0318 2.92838 16.0594 2.89832C16.087 2.86825 16.1228 2.84689 16.1624 2.83682C16.202 2.82675 16.2436 2.82842 16.2823 2.84162C17.3524 3.19376 19.7305 3.10687 21.88 2.19679C25.1544 0.824816 28.0721 -0.611187 31.3923 0.271452C34.0402 0.97116 35.5997 3.61908 34.2506 6.00174L33.8756 8.70911Z" fill="#8A4A10"/>
<path d="M16.0078 87.2137H35.3938L31.3694 35.577C31.3694 35.577 26.444 39.693 20.9149 35.577L16.0078 87.2137Z" fill="white"/>
<path d="M20.9155 35.577L7.35575 42.2403C6.82563 42.5008 6.39376 42.9255 6.12433 43.4512C5.8549 43.9769 5.7623 44.5755 5.86029 45.158L9.97622 69.4374L9.68811 90.2732C9.68811 90.2732 19.7493 92.8616 21.4688 81.9407C23.1884 71.0198 20.9155 35.577 20.9155 35.577Z" fill="#6953A8"/>
<path d="M17.8281 37.0953L21.0751 33.6471C21.0751 33.6471 25.1453 38.1197 21.3084 43.2784L17.8281 37.0953Z" fill="#272729"/>
<path d="M9.54597 66.9038L6.82031 49.9142" stroke="#4E3C91" stroke-width="1.42" stroke-linecap="round" stroke-linejoin="round"/>
<path d="M31.3682 35.577L44.9188 42.2403C45.4506 42.4994 45.8844 42.9235 46.1556 43.4493C46.4267 43.9751 46.5206 44.5745 46.4234 45.158L42.3075 69.4374L42.5956 90.2732C42.5956 90.2732 32.5344 92.8616 30.8103 81.9407C29.0862 71.0198 31.3682 35.577 31.3682 35.577Z" fill="#6953A8"/>
<path d="M34.4377 37.0953L31.1907 33.6471C31.1907 33.6471 27.1205 38.1197 30.9574 43.2784L34.4377 37.0953Z" fill="#272729"/>
<path d="M43.0898 65.4175L45.3307 49.1962" stroke="#4E3C91" stroke-width="1.42" stroke-linecap="round" stroke-linejoin="round"/>
</g>
</svg>
