<svg width="378" height="646" viewBox="0 0 378 646" fill="none" xmlns="http://www.w3.org/2000/svg">
<mask id="mask0" mask-type="alpha" maskUnits="userSpaceOnUse" x="4" y="2" width="370" height="638">
<rect x="4.5" y="2.5" width="369" height="637" rx="7.5" fill="white" stroke="#E0E0E0"/>
</mask>
<g mask="url(#mask0)">
<path d="M374 2H4.00024V680.333H374V2Z" fill="url(#paint0_linear)"/>
<path d="M416.008 315.735C416.008 315.735 257.228 343.485 292.23 443.064C298.792 461.712 311.964 482.531 311.964 502.264C311.964 574.735 -5.59553 338.107 134.363 718.467C155.897 776.976 383.744 718.467 383.744 718.467L416.008 315.735Z" fill="url(#paint1_linear)"/>
<path d="M428.151 140.898L320.518 252.783L322.296 254.495L429.929 142.609L428.151 140.898Z" fill="white"/>
<path d="M140.901 -47.3335C140.901 -47.3335 78.0006 46.3997 139.667 93.2663C182.735 125.999 224.151 87.7903 251.901 92.033C320.351 102.516 298.767 200.566 371.534 194.4C444.301 188.233 371.534 -21.4335 371.534 -21.4335L140.901 -47.3335Z" fill="url(#paint2_linear)"/>
<path d="M-50.2664 299.233C-50.2664 299.233 22.9196 325.133 57.0336 389.266C107.058 483.295 14.8043 566.249 52.5196 609.613C111.3 677.249 155.084 557.616 251.9 552.066C365.17 545.579 416.55 706.849 416.55 706.849L190.234 706.233H-65.0664L-50.2664 304.166" fill="url(#paint3_linear)"/>
<path d="M204.615 159.348C205.977 159.348 207.081 158.244 207.081 156.882C207.081 155.52 205.977 154.415 204.615 154.415C203.252 154.415 202.148 155.52 202.148 156.882C202.148 158.244 203.252 159.348 204.615 159.348Z" fill="white"/>
<path d="M221.116 159.348C222.478 159.348 223.583 158.244 223.583 156.882C223.583 155.52 222.478 154.415 221.116 154.415C219.754 154.415 218.65 155.52 218.65 156.882C218.65 158.244 219.754 159.348 221.116 159.348Z" fill="white"/>
<path d="M204.615 188.652C205.977 188.652 207.081 187.548 207.081 186.185C207.081 184.823 205.977 183.719 204.615 183.719C203.252 183.719 202.148 184.823 202.148 186.185C202.148 187.548 203.252 188.652 204.615 188.652Z" fill="white"/>
<path d="M221.116 188.652C222.478 188.652 223.583 187.548 223.583 186.185C223.583 184.823 222.478 183.719 221.116 183.719C219.754 183.719 218.65 184.823 218.65 186.185C218.65 187.548 219.754 188.652 221.116 188.652Z" fill="white"/>
<path d="M204.615 173.852C205.977 173.852 207.081 172.748 207.081 171.386C207.081 170.023 205.977 168.919 204.615 168.919C203.252 168.919 202.148 170.023 202.148 171.386C202.148 172.748 203.252 173.852 204.615 173.852Z" fill="white"/>
<path d="M221.116 173.852C222.478 173.852 223.583 172.748 223.583 171.386C223.583 170.023 222.478 168.919 221.116 168.919C219.754 168.919 218.65 170.023 218.65 171.386C218.65 172.748 219.754 173.852 221.116 173.852Z" fill="white"/>
<path d="M43.7872 67.4902L51.4832 54.1455L59.1792 67.4902H43.7872Z" fill="white"/>
<path d="M33.1319 642.099C34.494 642.099 35.5985 640.994 35.5985 639.633C35.5985 638.271 34.494 637.166 33.1319 637.166C31.7695 637.166 30.6652 638.271 30.6652 639.633C30.6652 640.994 31.7695 642.099 33.1319 642.099Z" fill="white"/>
<path d="M49.6335 642.099C50.9959 642.099 52.1002 640.994 52.1002 639.633C52.1002 638.271 50.9959 637.166 49.6335 637.166C48.2712 637.166 47.1669 638.271 47.1669 639.633C47.1669 640.994 48.2712 642.099 49.6335 642.099Z" fill="white"/>
<path d="M319.117 425.033C320.479 425.033 321.584 423.928 321.584 422.566C321.584 421.205 320.479 420.1 319.117 420.1C317.756 420.1 316.651 421.205 316.651 422.566C316.651 423.928 317.756 425.033 319.117 425.033Z" fill="white"/>
<path d="M335.619 425.033C336.98 425.033 338.085 423.928 338.085 422.566C338.085 421.205 336.98 420.1 335.619 420.1C334.257 420.1 333.152 421.205 333.152 422.566C333.152 423.928 334.257 425.033 335.619 425.033Z" fill="white"/>
<path d="M319.117 441.066C320.479 441.066 321.584 439.961 321.584 438.599C321.584 437.238 320.479 436.133 319.117 436.133C317.756 436.133 316.651 437.238 316.651 438.599C316.651 439.961 317.756 441.066 319.117 441.066Z" fill="white"/>
<path d="M332.563 624.986L224.929 736.871L226.707 738.581L334.339 626.696L332.563 624.986Z" fill="white"/>
<path d="M298.042 629.282L190.41 741.17L192.187 742.879L299.82 630.994L298.042 629.282Z" fill="white"/>
<path d="M82.4205 127.712L-25.212 239.598L-23.4342 241.308L84.1982 129.423L82.4205 127.712Z" fill="white"/>
<path d="M82.4075 80.4521L-25.225 192.338L-23.4476 194.048L84.185 82.162L82.4075 80.4521Z" fill="white"/>
<path d="M392.786 147.449L285.153 259.334L286.932 261.044L394.562 149.159L392.786 147.449Z" fill="white"/>
<path d="M54.0299 228.686C53.5274 228.686 53.099 228.538 52.7445 228.243C52.4194 227.917 52.2568 227.504 52.2568 227.001V199.076C52.2568 198.515 52.4194 198.071 52.7445 197.746C53.0694 197.392 53.5126 197.214 54.0743 197.214C54.6357 197.214 55.0789 197.392 55.4041 197.746C55.7289 198.071 55.8915 198.515 55.8915 199.076V225.583H70.2087C70.7408 225.583 71.1544 225.716 71.45 225.982C71.7455 226.248 71.8932 226.632 71.8932 227.135C71.8932 227.637 71.7455 228.021 71.45 228.287C71.1544 228.553 70.7408 228.686 70.2087 228.686H54.0299ZM102.451 226.602C102.569 226.839 102.628 227.09 102.628 227.356C102.628 227.799 102.451 228.169 102.097 228.464C101.771 228.76 101.373 228.908 100.9 228.908C100.161 228.908 99.6437 228.553 99.3482 227.844L96.2012 220.663H79.4903L76.2987 227.844C76.0032 228.553 75.4862 228.908 74.7474 228.908C74.2745 228.908 73.8609 228.76 73.5062 228.464C73.1517 228.139 72.9744 227.755 72.9744 227.312C72.9744 227.075 73.0336 226.839 73.1517 226.602L85.8289 198.411C86.0062 197.998 86.2721 197.687 86.6269 197.48C86.9813 197.274 87.3656 197.17 87.7793 197.17C88.2225 197.17 88.6214 197.288 88.9761 197.525C89.3306 197.732 89.5965 198.027 89.7738 198.411L102.451 226.602ZM80.8201 217.649H94.8714L87.8234 201.736L80.8201 217.649ZM117.464 229.041C115.248 229.041 113.121 228.715 111.082 228.065C109.072 227.386 107.462 226.484 106.25 225.362C105.807 224.948 105.585 224.431 105.585 223.81C105.585 223.396 105.703 223.042 105.94 222.746C106.176 222.421 106.457 222.259 106.782 222.259C107.166 222.259 107.58 222.421 108.023 222.746C110.771 224.874 113.904 225.938 117.42 225.938C119.962 225.938 121.912 225.45 123.271 224.475C124.631 223.5 125.31 222.111 125.31 220.308C125.31 219.274 124.985 218.446 124.335 217.826C123.685 217.176 122.828 216.659 121.764 216.275C120.7 215.891 119.267 215.491 117.464 215.078C115.041 214.516 113.047 213.925 111.48 213.305C109.944 212.684 108.688 211.798 107.713 210.645C106.767 209.493 106.294 207.986 106.294 206.124C106.294 204.351 106.767 202.785 107.713 201.426C108.688 200.037 110.033 198.973 111.746 198.234C113.49 197.466 115.47 197.082 117.686 197.082C119.755 197.082 121.675 197.407 123.448 198.057C125.251 198.677 126.758 199.579 127.97 200.761C128.442 201.233 128.679 201.75 128.679 202.312C128.679 202.726 128.561 203.095 128.324 203.42C128.088 203.716 127.807 203.863 127.482 203.863C127.157 203.863 126.729 203.701 126.197 203.376C124.749 202.194 123.404 201.366 122.163 200.894C120.922 200.421 119.43 200.184 117.686 200.184C115.233 200.184 113.327 200.701 111.968 201.736C110.609 202.741 109.929 204.159 109.929 205.991C109.929 207.557 110.52 208.739 111.702 209.537C112.914 210.305 114.761 210.985 117.243 211.576C119.932 212.226 122.045 212.832 123.581 213.394C125.118 213.925 126.389 214.738 127.393 215.831C128.428 216.925 128.945 218.388 128.945 220.22C128.945 221.963 128.457 223.5 127.482 224.829C126.536 226.159 125.192 227.193 123.448 227.932C121.705 228.671 119.71 229.041 117.464 229.041ZM143.596 228.908C143.035 228.908 142.577 228.745 142.222 228.42C141.897 228.065 141.735 227.607 141.735 227.046V200.539H132.205C131.673 200.539 131.259 200.406 130.963 200.14C130.668 199.874 130.52 199.49 130.52 198.988C130.52 198.485 130.668 198.101 130.963 197.835C131.259 197.569 131.673 197.436 132.205 197.436H154.944C155.476 197.436 155.889 197.569 156.185 197.835C156.48 198.101 156.628 198.485 156.628 198.988C156.628 199.49 156.48 199.874 156.185 200.14C155.889 200.406 155.476 200.539 154.944 200.539H145.414V227.046C145.414 227.607 145.251 228.065 144.926 228.42C144.601 228.745 144.158 228.908 143.596 228.908Z" fill="white"/>
<path d="M54.128 455.866C53.5656 455.866 53.1068 455.704 52.7516 455.378C52.426 455.052 52.2632 454.623 52.2632 454.09V426.34C52.2632 425.808 52.426 425.378 52.7516 425.053C53.1068 424.727 53.5656 424.564 54.128 424.564H62.786C67.7884 424.564 71.6512 425.926 74.3744 428.649C77.1272 431.343 78.5036 435.191 78.5036 440.193C78.5036 445.196 77.1272 449.058 74.3744 451.782C71.6216 454.505 67.7588 455.866 62.786 455.866H54.128ZM62.564 452.758C70.6744 452.758 74.7296 448.57 74.7296 440.193C74.7296 431.846 70.6744 427.672 62.564 427.672H55.904V452.758H62.564ZM86.3738 456.088C85.841 456.088 85.397 455.94 85.0418 455.644C84.7162 455.319 84.5534 454.875 84.5534 454.312V435.576C84.5534 435.013 84.7162 434.584 85.0418 434.288C85.397 433.962 85.841 433.8 86.3738 433.8C86.9066 433.8 87.3358 433.962 87.6614 434.288C87.987 434.584 88.1498 435.013 88.1498 435.576V454.312C88.1498 454.904 87.987 455.348 87.6614 455.644C87.3358 455.94 86.9066 456.088 86.3738 456.088ZM86.3738 429.138C85.6634 429.138 85.0862 428.93 84.6422 428.516C84.1982 428.102 83.9762 427.554 83.9762 426.873C83.9762 426.222 84.1982 425.689 84.6422 425.275C85.0862 424.86 85.6634 424.653 86.3738 424.653C87.0842 424.653 87.6614 424.86 88.1054 425.275C88.5494 425.689 88.7714 426.222 88.7714 426.873C88.7714 427.554 88.5494 428.102 88.1054 428.516C87.6614 428.93 87.0842 429.138 86.3738 429.138ZM102.155 456.177C100.793 456.177 99.4905 456.014 98.2473 455.689C97.0337 455.363 95.9533 454.904 95.0061 454.312C94.4733 453.957 94.0885 453.632 93.8517 453.336C93.6445 453.01 93.5409 452.625 93.5409 452.181C93.5409 451.796 93.6445 451.486 93.8517 451.249C94.0885 450.982 94.3845 450.849 94.7397 450.849C95.0949 450.849 95.6129 451.071 96.2937 451.515C97.1817 452.048 98.0549 452.477 98.9133 452.803C99.8013 453.099 100.897 453.247 102.199 453.247C103.797 453.247 105.041 452.966 105.929 452.403C106.817 451.841 107.261 451.027 107.261 449.961C107.261 449.31 107.098 448.792 106.772 448.407C106.447 447.993 105.884 447.638 105.085 447.342C104.286 447.016 103.117 446.69 101.577 446.365C98.9725 445.802 97.1077 445.048 95.9829 444.1C94.8581 443.153 94.2957 441.866 94.2957 440.238C94.2957 438.965 94.6509 437.84 95.3613 436.863C96.0717 435.886 97.0485 435.117 98.2917 434.554C99.5645 433.992 101 433.711 102.599 433.711C103.753 433.711 104.863 433.874 105.929 434.199C107.024 434.495 107.986 434.924 108.815 435.487C109.821 436.197 110.324 436.937 110.324 437.707C110.324 438.092 110.206 438.417 109.969 438.684C109.732 438.95 109.451 439.083 109.125 439.083C108.77 439.083 108.237 438.832 107.527 438.328C106.698 437.796 105.914 437.381 105.174 437.085C104.434 436.789 103.516 436.641 102.421 436.641C101.03 436.641 99.9049 436.952 99.0465 437.574C98.2177 438.195 97.8033 439.024 97.8033 440.06C97.8033 440.711 97.9513 441.244 98.2473 441.658C98.5729 442.043 99.0909 442.398 99.8013 442.724C100.541 443.02 101.592 443.316 102.954 443.612C104.967 444.056 106.521 444.544 107.616 445.077C108.741 445.61 109.54 446.261 110.013 447.031C110.487 447.8 110.724 448.777 110.724 449.961C110.724 451.826 109.939 453.336 108.371 454.49C106.802 455.615 104.73 456.177 102.155 456.177ZM125.13 456.177C123.118 456.177 121.327 455.718 119.758 454.801C118.219 453.883 117.02 452.581 116.161 450.894C115.333 449.206 114.918 447.253 114.918 445.033C114.918 442.813 115.347 440.844 116.206 439.128C117.094 437.411 118.322 436.079 119.891 435.132C121.46 434.184 123.265 433.711 125.308 433.711C126.433 433.711 127.543 433.874 128.638 434.199C129.763 434.495 130.74 434.939 131.568 435.531C132.101 435.886 132.471 436.242 132.678 436.597C132.915 436.922 133.033 437.292 133.033 437.707C133.033 438.121 132.915 438.462 132.678 438.728C132.471 438.994 132.19 439.128 131.835 439.128C131.627 439.128 131.405 439.068 131.169 438.95C130.932 438.832 130.725 438.713 130.547 438.595C130.399 438.476 130.296 438.402 130.236 438.373C129.467 437.87 128.727 437.47 128.016 437.174C127.335 436.878 126.492 436.73 125.486 436.73C123.325 436.73 121.637 437.47 120.424 438.95C119.24 440.4 118.648 442.428 118.648 445.033C118.648 447.638 119.24 449.65 120.424 451.071C121.637 452.492 123.325 453.202 125.486 453.202C126.492 453.202 127.35 453.054 128.061 452.758C128.801 452.462 129.541 452.063 130.281 451.56C130.606 451.352 130.917 451.175 131.213 451.027C131.509 450.879 131.761 450.805 131.968 450.805C132.293 450.805 132.56 450.938 132.767 451.204C133.004 451.471 133.122 451.811 133.122 452.226C133.122 452.61 133.019 452.966 132.812 453.291C132.604 453.587 132.219 453.928 131.657 454.312C130.828 454.875 129.822 455.334 128.638 455.689C127.484 456.014 126.314 456.177 125.13 456.177ZM146.421 456.177C144.378 456.177 142.573 455.718 141.004 454.801C139.465 453.883 138.266 452.581 137.408 450.894C136.579 449.177 136.164 447.194 136.164 444.944C136.164 442.694 136.579 440.726 137.408 439.039C138.266 437.322 139.465 436.005 141.004 435.087C142.573 434.17 144.378 433.711 146.421 433.711C148.463 433.711 150.269 434.17 151.838 435.087C153.406 436.005 154.605 437.322 155.434 439.039C156.292 440.726 156.722 442.694 156.722 444.944C156.722 447.194 156.292 449.177 155.434 450.894C154.605 452.581 153.406 453.883 151.838 454.801C150.269 455.718 148.463 456.177 146.421 456.177ZM146.421 453.202C148.552 453.202 150.18 452.507 151.305 451.116C152.459 449.695 153.036 447.638 153.036 444.944C153.036 442.31 152.459 440.282 151.305 438.861C150.15 437.411 148.522 436.686 146.421 436.686C144.319 436.686 142.691 437.411 141.537 438.861C140.382 440.282 139.805 442.31 139.805 444.944C139.805 447.608 140.368 449.65 141.492 451.071C142.647 452.492 144.29 453.202 146.421 453.202ZM178.508 433.8C179.07 433.8 179.5 433.962 179.796 434.288C180.121 434.614 180.284 435.043 180.284 435.576V454.357C180.284 454.86 180.121 455.274 179.796 455.6C179.5 455.926 179.07 456.088 178.508 456.088C177.975 456.088 177.546 455.94 177.22 455.644C176.924 455.319 176.776 454.904 176.776 454.401V452.181C176.096 453.484 175.134 454.475 173.89 455.156C172.677 455.837 171.3 456.177 169.761 456.177C167.186 456.177 165.247 455.467 163.945 454.046C162.642 452.596 161.991 450.464 161.991 447.652V435.576C161.991 435.043 162.154 434.614 162.48 434.288C162.805 433.962 163.249 433.8 163.812 433.8C164.374 433.8 164.803 433.962 165.099 434.288C165.425 434.614 165.588 435.043 165.588 435.576V447.564C165.588 449.488 165.972 450.908 166.742 451.826C167.512 452.714 168.725 453.158 170.383 453.158C172.277 453.158 173.802 452.551 174.956 451.338C176.11 450.094 176.688 448.466 176.688 446.454V435.576C176.688 435.043 176.85 434.614 177.176 434.288C177.502 433.962 177.946 433.8 178.508 433.8ZM197.846 433.711C203.026 433.711 205.616 436.567 205.616 442.28V454.312C205.616 454.875 205.454 455.319 205.128 455.644C204.832 455.94 204.403 456.088 203.84 456.088C203.278 456.088 202.834 455.94 202.508 455.644C202.183 455.319 202.02 454.875 202.02 454.312V442.502C202.02 440.489 201.62 439.024 200.821 438.106C200.052 437.189 198.808 436.73 197.092 436.73C195.108 436.73 193.525 437.337 192.341 438.55C191.157 439.764 190.565 441.407 190.565 443.479V454.312C190.565 454.875 190.402 455.319 190.076 455.644C189.78 455.94 189.351 456.088 188.789 456.088C188.226 456.088 187.782 455.94 187.457 455.644C187.131 455.319 186.968 454.875 186.968 454.312V435.576C186.968 435.043 187.131 434.614 187.457 434.288C187.782 433.962 188.226 433.8 188.789 433.8C189.322 433.8 189.736 433.962 190.032 434.288C190.358 434.614 190.52 435.028 190.52 435.531V437.796C191.231 436.464 192.222 435.457 193.495 434.776C194.768 434.066 196.218 433.711 197.846 433.711ZM222.193 453.247C223.229 453.336 223.747 453.809 223.747 454.668C223.747 455.171 223.555 455.556 223.17 455.822C222.815 456.059 222.267 456.148 221.527 456.088L220.329 456C217.961 455.822 216.214 455.112 215.089 453.868C213.965 452.625 213.402 450.746 213.402 448.23V437.085H210.427C209.924 437.085 209.525 436.967 209.229 436.73C208.962 436.464 208.829 436.123 208.829 435.709C208.829 435.265 208.962 434.91 209.229 434.643C209.525 434.377 209.924 434.244 210.427 434.244H213.402V429.226C213.402 428.664 213.565 428.235 213.891 427.939C214.216 427.613 214.66 427.45 215.223 427.45C215.755 427.45 216.185 427.613 216.51 427.939C216.836 428.235 216.999 428.664 216.999 429.226V434.244H221.927C222.401 434.244 222.771 434.377 223.037 434.643C223.333 434.91 223.481 435.265 223.481 435.709C223.481 436.123 223.333 436.464 223.037 436.73C222.771 436.967 222.401 437.085 221.927 437.085H216.999V448.407C216.999 450.035 217.324 451.219 217.975 451.959C218.656 452.67 219.663 453.069 220.995 453.158L222.193 453.247Z" fill="white"/>
<path d="M62.1743 574.256C60.2404 574.256 58.5532 573.822 57.1127 572.954C55.6919 572.085 54.5967 570.852 53.8271 569.254C53.0575 567.655 52.6727 565.771 52.6727 563.6C52.6727 561.41 53.0476 559.515 53.7975 557.917C54.5671 556.299 55.6623 555.065 57.0831 554.217C58.5236 553.349 60.2207 552.915 62.1743 552.915C64.1279 552.915 65.8151 553.349 67.2359 554.217C68.6764 555.065 69.7716 556.299 70.5215 557.917C71.2911 559.515 71.6759 561.4 71.6759 563.571C71.6759 565.741 71.2911 567.636 70.5215 569.254C69.7519 570.852 68.6468 572.085 67.2063 572.954C65.7855 573.822 64.1081 574.256 62.1743 574.256ZM62.1743 572.184C64.3844 572.184 66.1012 571.444 67.3247 569.964C68.5679 568.464 69.1895 566.333 69.1895 563.571C69.1895 560.808 68.5777 558.687 67.3543 557.207C66.1308 555.727 64.4041 554.987 62.1743 554.987C59.9641 554.987 58.2375 555.736 56.9943 557.236C55.7708 558.716 55.1591 560.828 55.1591 563.571C55.1591 566.313 55.7708 568.435 56.9943 569.935C58.2375 571.434 59.9641 572.184 62.1743 572.184ZM91.6462 553.003C92.0014 553.003 92.2777 553.122 92.475 553.359C92.6724 553.576 92.771 553.872 92.771 554.247V572.924C92.771 573.299 92.6625 573.605 92.4454 573.842C92.2481 574.059 91.962 574.167 91.587 574.167C91.2121 574.167 90.8865 574 90.6102 573.664L78.3262 557.236V572.924C78.3262 573.299 78.2177 573.605 78.0006 573.842C77.8033 574.059 77.527 574.167 77.1718 574.167C76.8166 574.167 76.5404 574.059 76.343 573.842C76.1457 573.605 76.047 573.299 76.047 572.924V554.247C76.047 553.872 76.1457 553.576 76.343 553.359C76.5601 553.122 76.8561 553.003 77.231 553.003C77.6257 553.003 77.9612 553.171 78.2374 553.507L90.4918 569.935V554.247C90.4918 553.872 90.5905 553.576 90.7878 553.359C91.0049 553.122 91.291 553.003 91.6462 553.003ZM99.1131 574.019C98.7776 574.019 98.4915 573.921 98.2547 573.723C98.0376 573.506 97.9291 573.23 97.9291 572.895V554.247C97.9291 553.872 98.0376 553.576 98.2547 553.359C98.4717 553.122 98.7677 553.003 99.1427 553.003C99.5176 553.003 99.8136 553.122 100.031 553.359C100.248 553.576 100.356 553.872 100.356 554.247V571.947H109.917C110.272 571.947 110.549 572.036 110.746 572.214C110.943 572.391 111.042 572.648 111.042 572.983C111.042 573.319 110.943 573.575 110.746 573.753C110.549 573.931 110.272 574.019 109.917 574.019H99.1131ZM123.383 553.477C123.62 553.181 123.906 553.033 124.242 553.033C124.518 553.033 124.765 553.142 124.982 553.359C125.199 553.576 125.307 553.842 125.307 554.158C125.307 554.454 125.219 554.7 125.041 554.898L117.848 563.985V572.924C117.848 573.319 117.73 573.625 117.493 573.842C117.276 574.059 116.99 574.167 116.635 574.167C116.279 574.167 115.983 574.059 115.747 573.842C115.529 573.625 115.421 573.319 115.421 572.924V563.955L108.228 554.898C108.031 554.681 107.932 554.434 107.932 554.158C107.932 553.842 108.041 553.576 108.258 553.359C108.495 553.142 108.761 553.033 109.057 553.033C109.392 553.033 109.679 553.181 109.915 553.477L116.664 562.091L123.383 553.477ZM142.014 574.167C141.639 574.167 141.333 574.059 141.096 573.842C140.879 573.605 140.77 573.299 140.77 572.924V555.223H134.406C134.051 555.223 133.775 555.135 133.578 554.957C133.38 554.779 133.282 554.523 133.282 554.187C133.282 553.852 133.38 553.595 133.578 553.418C133.775 553.24 134.051 553.151 134.406 553.151H149.591C149.946 553.151 150.223 553.24 150.42 553.418C150.617 553.595 150.716 553.852 150.716 554.187C150.716 554.523 150.617 554.779 150.42 554.957C150.223 555.135 149.946 555.223 149.591 555.223H143.227V572.924C143.227 573.299 143.119 573.605 142.902 573.842C142.685 574.059 142.389 574.167 142.014 574.167ZM169.531 553.003C169.906 553.003 170.193 553.122 170.39 553.359C170.607 553.576 170.715 553.872 170.715 554.247V572.924C170.715 573.299 170.607 573.605 170.39 573.842C170.193 574.059 169.906 574.167 169.531 574.167C169.157 574.167 168.861 574.059 168.643 573.842C168.426 573.605 168.318 573.299 168.318 572.924V564.459H155.827V572.924C155.827 573.299 155.718 573.605 155.501 573.842C155.284 574.059 154.988 574.167 154.613 574.167C154.238 574.167 153.942 574.059 153.725 573.842C153.528 573.605 153.429 573.299 153.429 572.924V554.247C153.429 553.872 153.528 553.576 153.725 553.359C153.942 553.122 154.238 553.003 154.613 553.003C154.988 553.003 155.284 553.122 155.501 553.359C155.718 553.576 155.827 553.872 155.827 554.247V562.387H168.318V554.247C168.318 553.872 168.426 553.576 168.643 553.359C168.861 553.122 169.157 553.003 169.531 553.003ZM182.52 574.256C181.04 574.256 179.619 574.039 178.258 573.605C176.916 573.151 175.84 572.549 175.031 571.799C174.735 571.523 174.587 571.178 174.587 570.763C174.587 570.487 174.666 570.25 174.824 570.053C174.982 569.836 175.17 569.727 175.387 569.727C175.643 569.727 175.919 569.836 176.215 570.053C178.051 571.474 180.142 572.184 182.491 572.184C184.188 572.184 185.49 571.859 186.398 571.207C187.306 570.556 187.759 569.629 187.759 568.425C187.759 567.734 187.542 567.182 187.108 566.767C186.674 566.333 186.102 565.988 185.391 565.731C184.681 565.475 183.724 565.208 182.52 564.932C180.902 564.557 179.57 564.163 178.524 563.748C177.498 563.334 176.659 562.742 176.008 561.972C175.377 561.203 175.061 560.196 175.061 558.953C175.061 557.769 175.377 556.723 176.008 555.815C176.659 554.888 177.557 554.178 178.702 553.684C179.866 553.171 181.188 552.915 182.668 552.915C184.05 552.915 185.332 553.132 186.516 553.566C187.72 553.98 188.726 554.582 189.535 555.371C189.851 555.687 190.009 556.032 190.009 556.407C190.009 556.684 189.93 556.93 189.772 557.147C189.614 557.345 189.427 557.443 189.21 557.443C188.993 557.443 188.707 557.335 188.351 557.118C187.384 556.328 186.487 555.776 185.658 555.46C184.829 555.144 183.832 554.987 182.668 554.987C181.03 554.987 179.758 555.332 178.85 556.023C177.942 556.694 177.488 557.641 177.488 558.864C177.488 559.91 177.883 560.699 178.672 561.232C179.481 561.745 180.715 562.199 182.372 562.594C184.168 563.028 185.579 563.432 186.605 563.807C187.631 564.163 188.48 564.705 189.151 565.435C189.841 566.165 190.187 567.142 190.187 568.366C190.187 569.53 189.861 570.556 189.21 571.444C188.578 572.332 187.68 573.023 186.516 573.516C185.352 574.009 184.02 574.256 182.52 574.256ZM228.43 553.743C228.509 553.487 228.647 553.299 228.844 553.181C229.042 553.043 229.259 552.974 229.495 552.974C229.811 552.974 230.077 553.072 230.295 553.27C230.531 553.447 230.65 553.694 230.65 554.01C230.65 554.148 230.62 554.306 230.561 554.483L223.871 573.339C223.773 573.615 223.605 573.832 223.368 573.99C223.131 574.128 222.865 574.197 222.569 574.197C222.293 574.197 222.036 574.128 221.799 573.99C221.563 573.832 221.395 573.615 221.296 573.339L215.495 556.94L209.634 573.339C209.535 573.615 209.367 573.832 209.131 573.99C208.894 574.128 208.637 574.197 208.361 574.197C208.085 574.197 207.828 574.128 207.591 573.99C207.355 573.832 207.187 573.615 207.088 573.339L200.369 554.483C200.31 554.325 200.28 554.178 200.28 554.039C200.28 553.724 200.399 553.467 200.635 553.27C200.892 553.072 201.178 552.974 201.494 552.974C201.731 552.974 201.948 553.043 202.145 553.181C202.362 553.299 202.51 553.487 202.589 553.743L208.42 570.556L214.34 553.921C214.439 553.625 214.597 553.408 214.814 553.27C215.031 553.112 215.268 553.033 215.524 553.033C215.781 553.033 216.018 553.112 216.235 553.27C216.452 553.428 216.61 553.655 216.708 553.951L222.539 570.615L228.43 553.743ZM235.581 574.019C235.206 574.019 234.9 573.911 234.663 573.694C234.446 573.477 234.337 573.191 234.337 572.835V554.335C234.337 553.98 234.446 553.694 234.663 553.477C234.9 553.26 235.206 553.151 235.581 553.151H246.651C247.006 553.151 247.283 553.24 247.48 553.418C247.677 553.595 247.776 553.842 247.776 554.158C247.776 554.474 247.677 554.72 247.48 554.898C247.283 555.075 247.006 555.164 246.651 555.164H236.735V562.416H246.059C246.414 562.416 246.691 562.505 246.888 562.683C247.085 562.86 247.184 563.107 247.184 563.423C247.184 563.738 247.085 563.985 246.888 564.163C246.691 564.34 246.414 564.429 246.059 564.429H236.735V572.007H246.651C247.006 572.007 247.283 572.095 247.48 572.273C247.677 572.431 247.776 572.678 247.776 573.013C247.776 573.329 247.677 573.575 247.48 573.753C247.283 573.931 247.006 574.019 246.651 574.019H235.581ZM252.808 574.019C252.433 574.019 252.127 573.911 251.89 573.694C251.673 573.477 251.565 573.191 251.565 572.835V554.335C251.565 553.98 251.673 553.694 251.89 553.477C252.127 553.26 252.433 553.151 252.808 553.151H263.878C264.234 553.151 264.51 553.24 264.707 553.418C264.905 553.595 265.003 553.842 265.003 554.158C265.003 554.474 264.905 554.72 264.707 554.898C264.51 555.075 264.234 555.164 263.878 555.164H253.962V562.416H263.286C263.642 562.416 263.918 562.505 264.115 562.683C264.313 562.86 264.411 563.107 264.411 563.423C264.411 563.738 264.313 563.985 264.115 564.163C263.918 564.34 263.642 564.429 263.286 564.429H253.962V572.007H263.878C264.234 572.007 264.51 572.095 264.707 572.273C264.905 572.431 265.003 572.678 265.003 573.013C265.003 573.329 264.905 573.575 264.707 573.753C264.51 573.931 264.234 574.019 263.878 574.019H252.808ZM283.802 572.184C284.078 572.441 284.216 572.727 284.216 573.043C284.216 573.319 284.098 573.575 283.861 573.812C283.644 574.029 283.387 574.138 283.091 574.138C282.835 574.138 282.568 574.019 282.292 573.783L271.222 564.103V572.924C271.222 573.299 271.113 573.605 270.896 573.842C270.679 574.059 270.383 574.167 270.008 574.167C269.633 574.167 269.337 574.059 269.12 573.842C268.903 573.605 268.795 573.299 268.795 572.924V554.247C268.795 553.872 268.903 553.576 269.12 553.359C269.337 553.122 269.633 553.003 270.008 553.003C270.383 553.003 270.679 553.122 270.896 553.359C271.113 553.576 271.222 553.872 271.222 554.247V562.742L281.789 553.359C282.006 553.142 282.263 553.033 282.559 553.033C282.855 553.033 283.111 553.151 283.328 553.388C283.545 553.605 283.654 553.852 283.654 554.128C283.654 554.424 283.525 554.7 283.269 554.957L273.708 563.363L283.802 572.184Z" fill="white"/>
<path d="M71.5474 298.829C67.5218 298.829 63.9896 297.96 60.9506 296.224C57.9512 294.487 55.6424 292.001 54.0242 288.765C52.4061 285.528 51.597 281.739 51.597 277.398C51.597 273.057 52.4061 269.288 54.0242 266.091C55.6424 262.855 57.9512 260.368 60.9506 258.632C63.9896 256.895 67.5218 256.027 71.5474 256.027C74.1522 256.027 76.5992 256.422 78.8882 257.211C81.1773 257.961 83.2098 259.066 84.9858 260.526C85.4989 260.921 85.8541 261.335 86.0514 261.769C86.2488 262.203 86.3474 262.736 86.3474 263.368C86.3474 264.236 86.1106 264.966 85.637 265.558C85.1634 266.15 84.5912 266.446 83.9202 266.446C83.1309 266.446 82.3218 266.17 81.493 265.617C79.796 264.354 78.2173 263.486 76.757 263.012C75.2968 262.499 73.6786 262.243 71.9026 262.243C67.7981 262.243 64.6802 263.526 62.549 266.091C60.4573 268.656 59.4114 272.425 59.4114 277.398C59.4114 282.41 60.4573 286.199 62.549 288.765C64.6802 291.33 67.7981 292.613 71.9026 292.613C73.5997 292.613 75.1586 292.356 76.5794 291.843C78.0397 291.33 79.6776 290.462 81.493 289.238C81.8877 289.001 82.2824 288.804 82.677 288.646C83.0717 288.488 83.4861 288.409 83.9202 288.409C84.5912 288.409 85.1634 288.705 85.637 289.297C86.1106 289.889 86.3474 290.62 86.3474 291.488C86.3474 292.08 86.2488 292.613 86.0514 293.086C85.8541 293.52 85.4989 293.935 84.9858 294.329C83.2098 295.79 81.1773 296.914 78.8882 297.704C76.5992 298.454 74.1522 298.829 71.5474 298.829ZM128.6 256.264C129.745 256.264 130.653 256.619 131.324 257.329C131.995 258 132.33 258.908 132.33 260.052V294.803C132.33 295.948 131.975 296.875 131.264 297.585C130.593 298.296 129.705 298.651 128.6 298.651C127.456 298.651 126.548 298.296 125.877 297.585C125.206 296.875 124.871 295.948 124.871 294.803V280.181H103.5V294.803C103.5 295.948 103.144 296.875 102.434 297.585C101.763 298.296 100.855 298.651 99.7108 298.651C98.6058 298.651 97.698 298.296 96.9876 297.585C96.3167 296.875 95.9812 295.948 95.9812 294.803V260.052C95.9812 258.908 96.3167 258 96.9876 257.329C97.6586 256.619 98.5663 256.264 99.7108 256.264C100.855 256.264 101.763 256.619 102.434 257.329C103.144 258 103.5 258.908 103.5 260.052V274.024H124.871V260.052C124.871 258.908 125.206 258 125.877 257.329C126.548 256.619 127.456 256.264 128.6 256.264ZM182.095 293.737C182.332 294.25 182.45 294.764 182.45 295.277C182.45 296.184 182.075 296.954 181.325 297.585C180.615 298.217 179.786 298.533 178.839 298.533C178.208 298.533 177.616 298.375 177.063 298.059C176.51 297.704 176.076 297.171 175.761 296.461L172.209 288.528H151.37L147.818 296.461C147.502 297.171 147.068 297.704 146.516 298.059C145.963 298.375 145.352 298.533 144.681 298.533C143.773 298.533 142.944 298.217 142.194 297.585C141.444 296.954 141.069 296.184 141.069 295.277C141.069 294.764 141.188 294.25 141.425 293.737L157.764 258.632C158.119 257.842 158.652 257.25 159.362 256.856C160.112 256.422 160.901 256.204 161.73 256.204C162.559 256.204 163.329 256.422 164.039 256.856C164.789 257.25 165.341 257.842 165.697 258.632L182.095 293.737ZM153.975 282.608H169.604L161.789 265.025L153.975 282.608ZM222.776 256.264C223.882 256.264 224.75 256.619 225.381 257.329C226.052 258 226.388 258.908 226.388 260.052V294.803C226.388 295.948 226.052 296.875 225.381 297.585C224.71 298.296 223.842 298.651 222.776 298.651C221.514 298.651 220.547 298.197 219.876 297.289L198.268 269.169V294.803C198.268 295.948 197.952 296.875 197.32 297.585C196.689 298.296 195.821 298.651 194.716 298.651C193.611 298.651 192.742 298.296 192.111 297.585C191.479 296.875 191.164 295.948 191.164 294.803V260.052C191.164 258.908 191.499 258 192.17 257.329C192.841 256.619 193.729 256.264 194.834 256.264C196.058 256.264 197.005 256.718 197.676 257.625L219.224 285.627V260.052C219.224 258.908 219.54 258 220.172 257.329C220.843 256.619 221.711 256.264 222.776 256.264ZM256.999 298.829C252.973 298.829 249.44 297.96 246.401 296.224C243.402 294.487 241.093 292.001 239.475 288.765C237.857 285.528 237.048 281.739 237.048 277.398C237.048 273.057 237.857 269.288 239.475 266.091C241.093 262.855 243.402 260.368 246.401 258.632C249.44 256.895 252.973 256.027 256.999 256.027C259.604 256.027 262.05 256.422 264.34 257.211C266.629 257.961 268.661 259.066 270.437 260.526C270.95 260.921 271.305 261.335 271.503 261.769C271.7 262.203 271.799 262.736 271.799 263.368C271.799 264.236 271.562 264.966 271.088 265.558C270.615 266.15 270.042 266.446 269.372 266.446C268.582 266.446 267.773 266.17 266.944 265.617C265.247 264.354 263.669 263.486 262.208 263.012C260.748 262.499 259.13 262.243 257.354 262.243C253.249 262.243 250.131 263.526 248 266.091C245.908 268.656 244.862 272.425 244.862 277.398C244.862 282.41 245.908 286.199 248 288.765C250.131 291.33 253.249 292.613 257.354 292.613C259.051 292.613 260.61 292.356 262.031 291.843C263.491 291.33 265.129 290.462 266.944 289.238C267.339 289.001 267.734 288.804 268.128 288.646C268.523 288.488 268.937 288.409 269.372 288.409C270.042 288.409 270.615 288.705 271.088 289.297C271.562 289.889 271.799 290.62 271.799 291.488C271.799 292.08 271.7 292.613 271.503 293.086C271.305 293.52 270.95 293.935 270.437 294.329C268.661 295.79 266.629 296.914 264.34 297.704C262.05 298.454 259.604 298.829 256.999 298.829ZM285.101 298.296C283.957 298.296 283.049 297.98 282.378 297.349C281.747 296.717 281.431 295.829 281.431 294.685V260.171C281.431 259.026 281.747 258.138 282.378 257.507C283.049 256.875 283.957 256.56 285.101 256.56H306.473C307.617 256.56 308.505 256.816 309.137 257.329C309.768 257.842 310.084 258.572 310.084 259.52C310.084 260.506 309.768 261.276 309.137 261.828C308.505 262.342 307.617 262.598 306.473 262.598H288.89V274.083H305.289C306.433 274.083 307.321 274.339 307.953 274.853C308.584 275.366 308.9 276.115 308.9 277.102C308.9 278.049 308.584 278.779 307.953 279.293C307.321 279.806 306.433 280.062 305.289 280.062H288.89V292.257H306.473C307.617 292.257 308.505 292.534 309.137 293.086C309.768 293.599 310.084 294.349 310.084 295.336C310.084 296.283 309.768 297.013 309.137 297.526C308.505 298.039 307.617 298.296 306.473 298.296H285.101ZM322.094 286.219C321.502 286.219 320.989 286.022 320.555 285.627C320.16 285.232 319.923 284.66 319.844 283.91L317.654 260.881L317.595 260.289C317.595 259.066 318.009 258.099 318.838 257.388C319.706 256.639 320.792 256.264 322.094 256.264C323.396 256.264 324.462 256.639 325.291 257.388C326.159 258.099 326.593 259.066 326.593 260.289L326.534 260.94L324.344 283.91C324.265 284.66 324.008 285.232 323.574 285.627C323.179 286.022 322.686 286.219 322.094 286.219ZM322.094 298.651C320.831 298.651 319.785 298.237 318.956 297.408C318.128 296.54 317.713 295.474 317.713 294.211C317.713 292.948 318.128 291.902 318.956 291.073C319.785 290.205 320.831 289.771 322.094 289.771C323.357 289.771 324.403 290.205 325.232 291.073C326.06 291.902 326.475 292.948 326.475 294.211C326.475 295.474 326.06 296.54 325.232 297.408C324.403 298.237 323.357 298.651 322.094 298.651Z" fill="white"/>
<path d="M90.1561 394.83C93.7081 394.83 95.4841 396.34 95.4841 399.359C95.4841 402.497 93.7081 404.066 90.1561 404.066H56.4121C54.8729 404.066 53.6593 403.622 52.7713 402.734C51.8833 401.786 51.4393 400.632 51.4393 399.27C51.4393 397.494 52.1201 395.896 53.4817 394.475L73.7281 372.719C76.2145 369.996 78.0201 367.51 79.1449 365.26C80.3289 362.952 80.9209 360.672 80.9209 358.423C80.9209 355.64 80.1217 353.509 78.5233 352.029C76.9249 350.549 74.6457 349.809 71.6857 349.809C69.2585 349.809 66.8905 350.283 64.5817 351.23C62.3321 352.118 60.0529 353.361 57.7441 354.96C57.1521 355.374 56.5601 355.729 55.9681 356.025C55.3761 356.262 54.7841 356.38 54.1921 356.38C53.1857 356.38 52.2977 355.907 51.5281 354.96C50.8177 354.012 50.4625 352.888 50.4625 351.585C50.4625 350.697 50.6105 349.928 50.9065 349.276C51.2617 348.625 51.7945 348.004 52.5049 347.412C55.1097 345.34 58.1585 343.712 61.6513 342.528C65.1441 341.285 68.6369 340.663 72.1297 340.663C78.2273 340.663 83.0817 342.202 86.6929 345.281C90.3633 348.359 92.1985 352.503 92.1985 357.712C92.1985 361.324 91.4289 364.728 89.8897 367.924C88.3505 371.062 85.7457 374.584 82.0753 378.491L66.7129 394.83H90.1561ZM125.906 404.865C118.506 404.865 112.852 402.142 108.945 396.695C105.038 391.19 103.084 383.198 103.084 372.719C103.084 362.3 105.038 354.368 108.945 348.921C112.852 343.416 118.506 340.663 125.906 340.663C133.306 340.663 138.959 343.416 142.867 348.921C146.774 354.368 148.727 362.3 148.727 372.719C148.727 383.139 146.774 391.101 142.867 396.606C138.959 402.112 133.306 404.865 125.906 404.865ZM125.906 395.896C129.931 395.896 132.862 394.061 134.697 390.39C136.532 386.661 137.45 380.771 137.45 372.719C137.45 364.609 136.532 358.748 134.697 355.137C132.862 351.467 129.931 349.632 125.906 349.632C121.88 349.632 118.95 351.467 117.115 355.137C115.279 358.808 114.362 364.668 114.362 372.719C114.362 380.771 115.279 386.661 117.115 390.39C118.95 394.061 121.88 395.896 125.906 395.896ZM181.993 402.822C181.46 403.77 180.809 404.48 180.039 404.954C179.269 405.427 178.5 405.664 177.73 405.664C176.665 405.664 175.717 405.279 174.889 404.51C174.119 403.74 173.734 402.763 173.734 401.579C173.734 400.573 174.03 399.566 174.622 398.56L206.945 342.705C207.478 341.758 208.129 341.048 208.899 340.574C209.669 340.101 210.438 339.864 211.208 339.864C212.273 339.864 213.191 340.249 213.961 341.018C214.789 341.788 215.204 342.765 215.204 343.949C215.204 344.955 214.908 345.961 214.316 346.968L181.993 402.822ZM172.136 378.847C167.163 378.847 163.285 377.219 160.503 373.963C157.721 370.707 156.329 365.941 156.329 359.666C156.329 353.45 157.721 348.714 160.503 345.458C163.285 342.202 167.163 340.574 172.136 340.574C177.109 340.574 180.986 342.202 183.769 345.458C186.61 348.714 188.031 353.45 188.031 359.666C188.031 365.941 186.61 370.707 183.769 373.963C180.986 377.219 177.109 378.847 172.136 378.847ZM172.136 371.654C174.385 371.654 176.013 370.736 177.02 368.901C178.085 367.007 178.618 363.928 178.618 359.666C178.618 355.522 178.085 352.503 177.02 350.608C175.954 348.714 174.326 347.767 172.136 347.767C169.945 347.767 168.317 348.714 167.252 350.608C166.245 352.444 165.742 355.463 165.742 359.666C165.742 363.928 166.245 367.007 167.252 368.901C168.317 370.736 169.945 371.654 172.136 371.654ZM216.802 404.687C211.829 404.687 207.952 403.059 205.169 399.803C202.387 396.547 200.996 391.752 200.996 385.418C200.996 379.202 202.387 374.495 205.169 371.299C208.011 368.043 211.889 366.415 216.802 366.415C221.775 366.415 225.653 368.043 228.435 371.299C231.217 374.555 232.609 379.291 232.609 385.507C232.609 391.782 231.217 396.547 228.435 399.803C225.653 403.059 221.775 404.687 216.802 404.687ZM216.802 397.494C218.993 397.494 220.621 396.577 221.686 394.742C222.752 392.847 223.285 389.769 223.285 385.507C223.285 381.363 222.752 378.343 221.686 376.449C220.621 374.555 218.993 373.607 216.802 373.607C214.612 373.607 212.984 374.555 211.918 376.449C210.853 378.343 210.32 381.363 210.32 385.507C210.32 389.769 210.853 392.847 211.918 394.742C212.984 396.577 214.612 397.494 216.802 397.494Z" fill="white"/>
</g>
<defs>
<linearGradient id="paint0_linear" x1="117.797" y1="630.462" x2="117.797" y2="-47.8708" gradientUnits="userSpaceOnUse">
<stop stop-color="#2961F1"/>
<stop offset="0.99" stop-color="#CD60F1"/>
</linearGradient>
<linearGradient id="paint1_linear" x1="12329.6" y1="92018.2" x2="53140.2" y2="92018.2" gradientUnits="userSpaceOnUse">
<stop stop-color="#2961F1"/>
<stop offset="0.99" stop-color="#CD60F1"/>
</linearGradient>
<linearGradient id="paint2_linear" x1="12979.2" y1="6939.54" x2="47366.9" y2="6939.54" gradientUnits="userSpaceOnUse">
<stop stop-color="#2961F1"/>
<stop offset="0.99" stop-color="#CD60F1"/>
</linearGradient>
<linearGradient id="paint3_linear" x1="-13478.1" y1="83020.8" x2="80557.4" y2="83020.8" gradientUnits="userSpaceOnUse">
<stop stop-color="#2961F1"/>
<stop offset="0.99" stop-color="#CD60F1"/>
</linearGradient>
</defs>
</svg>
