<svg width="1148" height="123" viewBox="0 0 1148 123" fill="none" xmlns="http://www.w3.org/2000/svg">
<g filter="url(#filter0_d)">
<rect x="4" y="2" width="1140" height="115" rx="8" fill="url(#paint0_linear)"/>
<rect x="4.5" y="2.5" width="1139" height="114" rx="7.5" stroke="#E0E0E0"/>
</g>
<mask id="mask0" mask-type="alpha" maskUnits="userSpaceOnUse" x="5" y="3" width="1138" height="113">
<rect x="5" y="3" width="1138" height="113" rx="8" fill="url(#paint1_linear)"/>
</mask>
<g mask="url(#mask0)">
<path d="M804.325 -80C804.325 -80 741.425 13.7332 803.091 60.5998C846.159 93.3325 887.575 55.1238 915.325 59.3665C983.775 69.8498 962.191 167.9 1034.96 161.733C1107.72 155.566 1034.96 -54.1 1034.96 -54.1L804.325 -80Z" fill="url(#paint2_linear)"/>
<path d="M509.014 127.048C509.014 127.048 410.852 30.2915 358.909 104.106C349.186 117.933 341.233 137.441 327.496 147.24C277.044 183.226 284.087 -155.346 88.7943 130.959C58.7554 175.004 212.627 304.568 212.627 304.568L509.014 127.048Z" fill="url(#paint3_linear)"/>
<path d="M544.998 56L437.365 167.885L439.143 169.597L546.776 57.7101L544.998 56Z" fill="white"/>
<path d="M509.633 62.5508L402 174.436L403.778 176.145L511.409 64.2609L509.633 62.5508Z" fill="white"/>
<path d="M18.4667 87.9332C19.8291 87.9332 20.9334 86.8289 20.9334 85.4666C20.9334 84.1045 19.8291 83 18.4667 83C17.1044 83 16 84.1045 16 85.4666C16 86.8289 17.1044 87.9332 18.4667 87.9332Z" fill="white"/>
<path d="M34.9683 87.9332C36.3307 87.9332 37.435 86.8289 37.435 85.4666C37.435 84.1045 36.3307 83 34.9683 83C33.606 83 32.5017 84.1045 32.5017 85.4666C32.5017 86.8289 33.606 87.9332 34.9683 87.9332Z" fill="white"/>
<path d="M18.4667 117.237C19.8291 117.237 20.9334 116.133 20.9334 114.77C20.9334 113.408 19.8291 112.304 18.4667 112.304C17.1044 112.304 16 113.408 16 114.77C16 116.133 17.1044 117.237 18.4667 117.237Z" fill="white"/>
<path d="M34.9683 117.237C36.3307 117.237 37.435 116.133 37.435 114.77C37.435 113.408 36.3307 112.304 34.9683 112.304C33.606 112.304 32.5017 113.408 32.5017 114.77C32.5017 116.133 33.606 117.237 34.9683 117.237Z" fill="white"/>
<path d="M18.4667 102.437C19.8291 102.437 20.9334 101.333 20.9334 99.9705C20.9334 98.6082 19.8291 97.5039 18.4667 97.5039C17.1044 97.5039 16 98.6082 16 99.9705C16 101.333 17.1044 102.437 18.4667 102.437Z" fill="white"/>
<path d="M34.9683 102.437C36.3307 102.437 37.435 101.333 37.435 99.9705C37.435 98.6082 36.3307 97.5039 34.9683 97.5039C33.606 97.5039 32.5017 98.6082 32.5017 99.9705C32.5017 101.333 33.606 102.437 34.9683 102.437Z" fill="white"/>
<path d="M650.546 79.5192L664.633 73.2852L662.973 88.6004L650.546 79.5192Z" fill="white"/>
<path d="M788.998 -85L681.365 26.8847L683.143 28.5966L790.776 -83.2899L788.998 -85Z" fill="white"/>
<path d="M753.633 -78.4492L646 33.436L647.778 35.1454L755.409 -76.7391L753.633 -78.4492Z" fill="white"/>
<path d="M956.642 58.7247C956.147 58.7247 955.743 58.5805 955.43 58.2921C955.143 58.0037 955 57.6236 955 57.1517V32.573C955 32.1011 955.143 31.721 955.43 31.4326C955.743 31.1442 956.147 31 956.642 31H964.266C968.671 31 972.072 32.206 974.47 34.618C976.894 37.0038 978.106 40.412 978.106 44.8427C978.106 49.2734 976.894 52.6947 974.47 55.1067C972.046 57.5187 968.645 58.7247 964.266 58.7247H956.642ZM964.07 55.9719C971.212 55.9719 974.783 52.2622 974.783 44.8427C974.783 37.4494 971.212 33.7528 964.07 33.7528H958.206V55.9719H964.07ZM985.036 58.9213C984.567 58.9213 984.176 58.7903 983.863 58.5281C983.576 58.2397 983.433 57.8464 983.433 57.3483V40.7528C983.433 40.2547 983.576 39.8745 983.863 39.6124C984.176 39.324 984.567 39.1798 985.036 39.1798C985.505 39.1798 985.883 39.324 986.17 39.6124C986.456 39.8745 986.6 40.2547 986.6 40.7528V57.3483C986.6 57.8726 986.456 58.2659 986.17 58.5281C985.883 58.7903 985.505 58.9213 985.036 58.9213ZM985.036 35.0506C984.41 35.0506 983.902 34.867 983.511 34.5C983.12 34.133 982.925 33.6479 982.925 33.045C982.925 32.4682 983.12 31.9963 983.511 31.6292C983.902 31.2622 984.41 31.0786 985.036 31.0786C985.662 31.0786 986.17 31.2622 986.561 31.6292C986.952 31.9963 987.147 32.4682 987.147 33.045C987.147 33.6479 986.952 34.133 986.561 34.5C986.17 34.867 985.662 35.0506 985.036 35.0506ZM998.932 59C997.733 59 996.586 58.8558 995.491 58.5674C994.423 58.279 993.471 57.8726 992.637 57.3483C992.168 57.0337 991.829 56.7453 991.621 56.4831C991.438 56.1947 991.347 55.8539 991.347 55.4607C991.347 55.1198 991.438 54.8446 991.621 54.6348C991.829 54.3989 992.09 54.2809 992.403 54.2809C992.715 54.2809 993.171 54.4775 993.771 54.8708C994.553 55.3427 995.322 55.7228 996.078 56.0112C996.86 56.2734 997.824 56.4045 998.971 56.4045C1000.38 56.4045 1001.47 56.1554 1002.25 55.6573C1003.04 55.1591 1003.43 54.4382 1003.43 53.4944C1003.43 52.9176 1003.28 52.4588 1003 52.118C1002.71 51.7509 1002.22 51.4363 1001.51 51.1742C1000.81 50.8858 999.779 50.5974 998.423 50.309C996.13 49.8108 994.488 49.1423 993.497 48.3034C992.507 47.4644 992.012 46.324 992.012 44.882C992.012 43.7547 992.324 42.7584 992.95 41.8933C993.575 41.0281 994.436 40.3464 995.53 39.8483C996.651 39.3502 997.915 39.1011 999.323 39.1011C1000.34 39.1011 1001.32 39.2453 1002.25 39.5337C1003.22 39.7959 1004.07 40.176 1004.8 40.6742C1005.68 41.3034 1006.13 41.9588 1006.13 42.6404C1006.13 42.9813 1006.02 43.2697 1005.81 43.5056C1005.6 43.7416 1005.36 43.8595 1005.07 43.8595C1004.76 43.8595 1004.29 43.6367 1003.66 43.191C1002.93 42.7191 1002.24 42.3521 1001.59 42.0899C1000.94 41.8277 1000.13 41.6966 999.166 41.6966C997.941 41.6966 996.951 41.9719 996.195 42.5225C995.465 43.073 995.1 43.8071 995.1 44.7247C995.1 45.3015 995.231 45.7734 995.491 46.1405C995.778 46.4813 996.234 46.7959 996.86 47.0843C997.511 47.3464 998.436 47.6086 999.635 47.8708C1001.41 48.264 1002.78 48.6966 1003.74 49.1685C1004.73 49.6405 1005.43 50.2172 1005.85 50.8989C1006.27 51.5805 1006.48 52.4457 1006.48 53.4944C1006.48 55.1461 1005.79 56.4831 1004.41 57.5056C1003.02 58.5019 1001.2 59 998.932 59ZM1019.16 59C1017.39 59 1015.81 58.5936 1014.43 57.7809C1013.08 56.9681 1012.02 55.8146 1011.27 54.3202C1010.54 52.8258 1010.17 51.0955 1010.17 49.1292C1010.17 47.1629 1010.55 45.4195 1011.3 43.8989C1012.09 42.3783 1013.17 41.1985 1014.55 40.3595C1015.93 39.5206 1017.52 39.1011 1019.32 39.1011C1020.31 39.1011 1021.29 39.2453 1022.25 39.5337C1023.24 39.7959 1024.1 40.1891 1024.83 40.7135C1025.3 41.0281 1025.63 41.3427 1025.81 41.6573C1026.02 41.9457 1026.12 42.2734 1026.12 42.6404C1026.12 43.0075 1026.02 43.309 1025.81 43.5449C1025.63 43.7809 1025.38 43.8989 1025.07 43.8989C1024.88 43.8989 1024.69 43.8464 1024.48 43.7416C1024.27 43.6367 1024.09 43.5318 1023.93 43.427C1023.8 43.3221 1023.71 43.2566 1023.66 43.2303C1022.98 42.7847 1022.33 42.4307 1021.7 42.1685C1021.1 41.9064 1020.36 41.7753 1019.48 41.7753C1017.57 41.7753 1016.09 42.4307 1015.02 43.7416C1013.98 45.0262 1013.45 46.8221 1013.45 49.1292C1013.45 51.4363 1013.98 53.2191 1015.02 54.4775C1016.09 55.7359 1017.57 56.3652 1019.48 56.3652C1020.36 56.3652 1021.12 56.2341 1021.74 55.9719C1022.39 55.7097 1023.05 55.3558 1023.7 54.9101C1023.98 54.7266 1024.26 54.5693 1024.52 54.4382C1024.78 54.3071 1025 54.2416 1025.18 54.2416C1025.47 54.2416 1025.71 54.3595 1025.89 54.5955C1026.1 54.8314 1026.2 55.133 1026.2 55.5C1026.2 55.8408 1026.11 56.1554 1025.93 56.4438C1025.74 56.706 1025.41 57.0075 1024.91 57.3483C1024.18 57.8464 1023.29 58.2528 1022.25 58.5674C1021.24 58.8558 1020.21 59 1019.16 59ZM1037.91 59C1036.11 59 1034.52 58.5936 1033.14 57.7809C1031.79 56.9681 1030.73 55.8146 1029.97 54.3202C1029.24 52.7996 1028.88 51.0431 1028.88 49.0506C1028.88 47.0581 1029.24 45.3146 1029.97 43.8202C1030.73 42.2996 1031.79 41.133 1033.14 40.3202C1034.52 39.5075 1036.11 39.1011 1037.91 39.1011C1039.71 39.1011 1041.3 39.5075 1042.68 40.3202C1044.06 41.133 1045.12 42.2996 1045.85 43.8202C1046.6 45.3146 1046.98 47.0581 1046.98 49.0506C1046.98 51.0431 1046.6 52.7996 1045.85 54.3202C1045.12 55.8146 1044.06 56.9681 1042.68 57.7809C1041.3 58.5936 1039.71 59 1037.91 59ZM1037.91 56.3652C1039.79 56.3652 1041.22 55.7491 1042.21 54.5169C1043.23 53.2584 1043.74 51.4363 1043.74 49.0506C1043.74 46.7172 1043.23 44.9213 1042.21 43.6629C1041.19 42.3783 1039.76 41.736 1037.91 41.736C1036.06 41.736 1034.63 42.3783 1033.61 43.6629C1032.59 44.9213 1032.08 46.7172 1032.08 49.0506C1032.08 51.4101 1032.58 53.2191 1033.57 54.4775C1034.59 55.7359 1036.03 56.3652 1037.91 56.3652ZM1066.16 39.1798C1066.66 39.1798 1067.04 39.324 1067.3 39.6124C1067.59 39.9007 1067.73 40.2809 1067.73 40.7528V57.3876C1067.73 57.8333 1067.59 58.2004 1067.3 58.4887C1067.04 58.7771 1066.66 58.9213 1066.16 58.9213C1065.7 58.9213 1065.32 58.7903 1065.03 58.5281C1064.77 58.2397 1064.64 57.8727 1064.64 57.427V55.4607C1064.04 56.6142 1063.19 57.4925 1062.1 58.0955C1061.03 58.6985 1059.82 59 1058.46 59C1056.19 59 1054.49 58.3708 1053.34 57.1123C1052.19 55.8277 1051.62 53.9401 1051.62 51.4494V40.7528C1051.62 40.2809 1051.76 39.9007 1052.05 39.6124C1052.34 39.324 1052.73 39.1798 1053.22 39.1798C1053.72 39.1798 1054.1 39.324 1054.36 39.6124C1054.64 39.9007 1054.79 40.2809 1054.79 40.7528V51.3708C1054.79 53.0749 1055.13 54.3333 1055.8 55.1461C1056.48 55.9326 1057.55 56.3258 1059.01 56.3258C1060.68 56.3258 1062.02 55.7884 1063.04 54.7135C1064.05 53.6124 1064.56 52.1704 1064.56 50.3876V40.7528C1064.56 40.2809 1064.7 39.9007 1064.99 39.6124C1065.28 39.324 1065.67 39.1798 1066.16 39.1798ZM1083.19 39.1011C1087.75 39.1011 1090.03 41.6311 1090.03 46.691V57.3483C1090.03 57.8464 1089.89 58.2397 1089.6 58.5281C1089.34 58.7903 1088.97 58.9213 1088.47 58.9213C1087.98 58.9213 1087.58 58.7903 1087.3 58.5281C1087.01 58.2397 1086.87 57.8464 1086.87 57.3483V46.8876C1086.87 45.1049 1086.52 43.8071 1085.81 42.9944C1085.13 42.1817 1084.04 41.7753 1082.53 41.7753C1080.78 41.7753 1079.39 42.3127 1078.34 43.3876C1077.3 44.4625 1076.78 45.9176 1076.78 47.7528V57.3483C1076.78 57.8464 1076.64 58.2397 1076.35 58.5281C1076.09 58.7903 1075.71 58.9213 1075.22 58.9213C1074.72 58.9213 1074.33 58.7903 1074.04 58.5281C1073.76 58.2397 1073.61 57.8464 1073.61 57.3483V40.7528C1073.61 40.2809 1073.76 39.9007 1074.04 39.6124C1074.33 39.324 1074.72 39.1798 1075.22 39.1798C1075.69 39.1798 1076.05 39.324 1076.31 39.6124C1076.6 39.9007 1076.74 40.2678 1076.74 40.7135V42.7191C1077.37 41.5393 1078.24 40.6479 1079.36 40.0449C1080.48 39.4157 1081.76 39.1011 1083.19 39.1011ZM1104.63 56.4045C1105.54 56.4831 1106 56.9026 1106 57.6629C1106 58.1086 1105.83 58.4494 1105.49 58.6854C1105.18 58.8951 1104.7 58.9738 1104.05 58.9213L1102.99 58.8427C1100.9 58.6854 1099.37 58.0562 1098.38 56.955C1097.39 55.8539 1096.89 54.1891 1096.89 51.9607V42.0899H1094.27C1093.83 42.0899 1093.48 41.985 1093.22 41.7753C1092.98 41.5393 1092.86 41.2378 1092.86 40.8708C1092.86 40.4775 1092.98 40.1629 1093.22 39.927C1093.48 39.691 1093.83 39.573 1094.27 39.573H1096.89V35.1292C1096.89 34.6311 1097.03 34.2509 1097.32 33.9888C1097.61 33.7004 1098 33.5562 1098.49 33.5562C1098.96 33.5562 1099.34 33.7004 1099.63 33.9888C1099.91 34.2509 1100.06 34.6311 1100.06 35.1292V39.573H1104.4C1104.81 39.573 1105.14 39.691 1105.37 39.927C1105.64 40.1629 1105.77 40.4775 1105.77 40.8708C1105.77 41.2378 1105.64 41.5393 1105.37 41.7753C1105.14 41.985 1104.81 42.0899 1104.4 42.0899H1100.06V52.118C1100.06 53.5599 1100.34 54.6086 1100.92 55.264C1101.52 55.8932 1102.4 56.2472 1103.58 56.3258L1104.63 56.4045Z" fill="white"/>
<path d="M959.278 89C958.001 89 956.886 88.6949 955.934 88.0846C954.995 87.4743 954.271 86.6075 953.763 85.4841C953.254 84.3606 953 83.0361 953 81.5104C953 79.9709 953.248 78.6394 953.743 77.5159C954.252 76.3786 954.975 75.5118 955.914 74.9154C956.866 74.3051 957.988 74 959.278 74C960.569 74 961.684 74.3051 962.623 74.9154C963.575 75.5118 964.299 76.3786 964.794 77.5159C965.303 78.6394 965.557 79.9639 965.557 81.4896C965.557 83.0153 965.303 84.3467 964.794 85.4841C964.286 86.6075 963.555 87.4743 962.604 88.0846C961.665 88.6949 960.556 89 959.278 89ZM959.278 87.5437C960.739 87.5437 961.873 87.0236 962.682 85.9833C963.503 84.9293 963.914 83.4313 963.914 81.4896C963.914 79.5479 963.51 78.0569 962.701 77.0167C961.893 75.9764 960.752 75.4563 959.278 75.4563C957.818 75.4563 956.677 75.9834 955.856 77.0374C955.047 78.0777 954.643 79.5617 954.643 81.4896C954.643 83.4175 955.047 84.9085 955.856 85.9626C956.677 87.0166 957.818 87.5437 959.278 87.5437ZM978.753 74.0624C978.988 74.0624 979.17 74.1456 979.301 74.3121C979.431 74.4646 979.496 74.6727 979.496 74.9362V88.0638C979.496 88.3273 979.425 88.5423 979.281 88.7087C979.151 88.8613 978.962 88.9376 978.714 88.9376C978.466 88.9376 978.251 88.8197 978.069 88.5839L969.951 77.0374V88.0638C969.951 88.3273 969.88 88.5423 969.736 88.7087C969.606 88.8613 969.423 88.9376 969.189 88.9376C968.954 88.9376 968.771 88.8613 968.641 88.7087C968.511 88.5423 968.445 88.3273 968.445 88.0638V74.9362C968.445 74.6727 968.511 74.4646 968.641 74.3121C968.784 74.1456 968.98 74.0624 969.228 74.0624C969.489 74.0624 969.71 74.1803 969.893 74.4161L977.99 85.9626V74.9362C977.99 74.6727 978.055 74.4646 978.186 74.3121C978.329 74.1456 978.518 74.0624 978.753 74.0624ZM983.687 88.8336C983.465 88.8336 983.276 88.7642 983.12 88.6255C982.976 88.4729 982.905 88.2788 982.905 88.043V74.9362C982.905 74.6727 982.976 74.4646 983.12 74.3121C983.263 74.1456 983.459 74.0624 983.707 74.0624C983.954 74.0624 984.15 74.1456 984.293 74.3121C984.437 74.4646 984.509 74.6727 984.509 74.9362V87.3772H990.826C991.061 87.3772 991.243 87.4397 991.374 87.5645C991.504 87.6893 991.569 87.8696 991.569 88.1054C991.569 88.3412 991.504 88.5215 991.374 88.6463C991.243 88.7712 991.061 88.8336 990.826 88.8336H983.687ZM999.724 74.3953C999.881 74.1873 1000.07 74.0832 1000.29 74.0832C1000.47 74.0832 1000.64 74.1595 1000.78 74.3121C1000.92 74.4646 1001 74.6519 1001 74.8738C1001 75.0819 1000.94 75.2552 1000.82 75.3939L996.067 81.7809V88.0638C996.067 88.3412 995.989 88.5562 995.832 88.7087C995.689 88.8613 995.5 88.9376 995.265 88.9376C995.03 88.9376 994.835 88.8613 994.678 88.7087C994.535 88.5562 994.463 88.3412 994.463 88.0638V81.7601L989.71 75.3939C989.58 75.2413 989.515 75.068 989.515 74.8738C989.515 74.6519 989.586 74.4646 989.73 74.3121C989.886 74.1595 990.062 74.0832 990.258 74.0832C990.479 74.0832 990.669 74.1873 990.825 74.3953L995.284 80.4494L999.724 74.3953ZM1012.03 88.9376C1011.79 88.9376 1011.59 88.8613 1011.43 88.7087C1011.29 88.5423 1011.21 88.3273 1011.21 88.0638V75.6228H1007.01C1006.77 75.6228 1006.59 75.5603 1006.46 75.4355C1006.33 75.3107 1006.27 75.1304 1006.27 74.8946C1006.27 74.6588 1006.33 74.4785 1006.46 74.3537C1006.59 74.2289 1006.77 74.1664 1007.01 74.1664H1017.04C1017.28 74.1664 1017.46 74.2289 1017.59 74.3537C1017.72 74.4785 1017.79 74.6588 1017.79 74.8946C1017.79 75.1304 1017.72 75.3107 1017.59 75.4355C1017.46 75.5603 1017.28 75.6228 1017.04 75.6228H1012.84V88.0638C1012.84 88.3273 1012.77 88.5423 1012.62 88.7087C1012.48 88.8613 1012.28 88.9376 1012.03 88.9376ZM1030.22 74.0624C1030.47 74.0624 1030.66 74.1456 1030.79 74.3121C1030.93 74.4646 1031 74.6727 1031 74.9362V88.0638C1031 88.3273 1030.93 88.5423 1030.79 88.7087C1030.66 88.8613 1030.47 88.9376 1030.22 88.9376C1029.97 88.9376 1029.77 88.8613 1029.63 88.7087C1029.49 88.5423 1029.42 88.3273 1029.42 88.0638V82.1137H1021.16V88.0638C1021.16 88.3273 1021.09 88.5423 1020.95 88.7087C1020.8 88.8613 1020.61 88.9376 1020.36 88.9376C1020.11 88.9376 1019.92 88.8613 1019.77 88.7087C1019.64 88.5423 1019.58 88.3273 1019.58 88.0638V74.9362C1019.58 74.6727 1019.64 74.4646 1019.77 74.3121C1019.92 74.1456 1020.11 74.0624 1020.36 74.0624C1020.61 74.0624 1020.8 74.1456 1020.95 74.3121C1021.09 74.4646 1021.16 74.6727 1021.16 74.9362V80.6574H1029.42V74.9362C1029.42 74.6727 1029.49 74.4646 1029.63 74.3121C1029.77 74.1456 1029.97 74.0624 1030.22 74.0624ZM1038.8 89C1037.82 89 1036.88 88.8474 1035.98 88.5423C1035.1 88.2233 1034.39 87.8003 1033.85 87.2732C1033.66 87.0791 1033.56 86.8363 1033.56 86.5451C1033.56 86.3509 1033.61 86.1845 1033.72 86.0458C1033.82 85.8932 1033.94 85.8169 1034.09 85.8169C1034.26 85.8169 1034.44 85.8932 1034.63 86.0458C1035.85 87.0444 1037.23 87.5437 1038.78 87.5437C1039.9 87.5437 1040.76 87.3148 1041.36 86.8571C1041.96 86.3994 1042.26 85.7476 1042.26 84.9015C1042.26 84.4161 1042.12 84.0278 1041.83 83.7365C1041.55 83.4314 1041.17 83.1886 1040.7 83.0083C1040.23 82.828 1039.6 82.6408 1038.8 82.4466C1037.73 82.1831 1036.85 81.9057 1036.16 81.6144C1035.48 81.3232 1034.93 80.9071 1034.5 80.3662C1034.08 79.8253 1033.87 79.1179 1033.87 78.2441C1033.87 77.4119 1034.08 76.6769 1034.5 76.0389C1034.93 75.387 1035.52 74.8877 1036.28 74.5409C1037.05 74.1803 1037.92 74 1038.9 74C1039.81 74 1040.66 74.1526 1041.44 74.4577C1042.24 74.749 1042.9 75.172 1043.44 75.7268C1043.65 75.9487 1043.75 76.1914 1043.75 76.4549C1043.75 76.6491 1043.7 76.8225 1043.59 76.975C1043.49 77.1137 1043.36 77.1831 1043.22 77.1831C1043.08 77.1831 1042.89 77.1068 1042.65 76.9542C1042.02 76.3995 1041.42 76.0111 1040.87 75.7892C1040.33 75.5673 1039.67 75.4563 1038.9 75.4563C1037.82 75.4563 1036.98 75.699 1036.38 76.1845C1035.78 76.656 1035.48 77.3218 1035.48 78.1817C1035.48 78.9168 1035.74 79.4716 1036.26 79.8461C1036.79 80.2067 1037.61 80.5257 1038.7 80.8031C1039.89 81.1082 1040.82 81.3925 1041.5 81.656C1042.18 81.9057 1042.74 82.2871 1043.18 82.8003C1043.64 83.3135 1043.87 84 1043.87 84.8599C1043.87 85.6782 1043.65 86.3994 1043.22 87.0236C1042.8 87.6477 1042.21 88.1331 1041.44 88.4799C1040.67 88.8266 1039.79 89 1038.8 89ZM1069.14 74.5825C1069.19 74.4022 1069.28 74.2705 1069.41 74.1872C1069.54 74.0902 1069.68 74.0416 1069.84 74.0416C1070.05 74.0416 1070.23 74.111 1070.37 74.2497C1070.53 74.3745 1070.6 74.5479 1070.6 74.7698C1070.6 74.8669 1070.58 74.9778 1070.55 75.1026L1066.13 88.355C1066.06 88.5492 1065.95 88.7018 1065.79 88.8128C1065.64 88.9098 1065.46 88.9584 1065.26 88.9584C1065.08 88.9584 1064.91 88.9098 1064.76 88.8128C1064.6 88.7018 1064.49 88.5492 1064.42 88.355L1060.59 76.8294L1056.72 88.355C1056.65 88.5492 1056.54 88.7018 1056.38 88.8128C1056.23 88.9098 1056.06 88.9584 1055.88 88.9584C1055.69 88.9584 1055.52 88.9098 1055.37 88.8128C1055.21 88.7018 1055.1 88.5492 1055.04 88.355L1050.6 75.1026C1050.56 74.9917 1050.54 74.8877 1050.54 74.7906C1050.54 74.5687 1050.61 74.3884 1050.77 74.2497C1050.94 74.111 1051.13 74.0416 1051.34 74.0416C1051.49 74.0416 1051.64 74.0902 1051.77 74.1872C1051.91 74.2705 1052.01 74.4022 1052.06 74.5825L1055.92 86.3994L1059.83 74.7074C1059.89 74.4993 1060 74.3468 1060.14 74.2497C1060.28 74.1387 1060.44 74.0832 1060.61 74.0832C1060.78 74.0832 1060.94 74.1387 1061.08 74.2497C1061.22 74.3606 1061.33 74.5201 1061.39 74.7282L1065.25 86.4411L1069.14 74.5825ZM1073.86 88.8336C1073.61 88.8336 1073.41 88.7573 1073.26 88.6047C1073.11 88.4522 1073.04 88.251 1073.04 88.0014V74.9986C1073.04 74.749 1073.11 74.5479 1073.26 74.3953C1073.41 74.2427 1073.61 74.1664 1073.86 74.1664H1081.18C1081.41 74.1664 1081.59 74.2289 1081.73 74.3537C1081.86 74.4785 1081.92 74.6519 1081.92 74.8738C1081.92 75.0957 1081.86 75.2691 1081.73 75.3939C1081.59 75.5187 1081.41 75.5811 1081.18 75.5811H1074.63V80.6782H1080.79C1081.02 80.6782 1081.2 80.7406 1081.33 80.8655C1081.46 80.9903 1081.53 81.1637 1081.53 81.3856C1081.53 81.6075 1081.46 81.7809 1081.33 81.9057C1081.2 82.0305 1081.02 82.0929 1080.79 82.0929H1074.63V87.4189H1081.18C1081.41 87.4189 1081.59 87.4813 1081.73 87.6061C1081.86 87.7171 1081.92 87.8904 1081.92 88.1262C1081.92 88.3481 1081.86 88.5215 1081.73 88.6463C1081.59 88.7712 1081.41 88.8336 1081.18 88.8336H1073.86ZM1085.25 88.8336C1085 88.8336 1084.8 88.7573 1084.64 88.6047C1084.5 88.4522 1084.42 88.251 1084.42 88.0014V74.9986C1084.42 74.749 1084.5 74.5479 1084.64 74.3953C1084.8 74.2427 1085 74.1664 1085.25 74.1664H1092.56C1092.8 74.1664 1092.98 74.2289 1093.11 74.3537C1093.24 74.4785 1093.3 74.6519 1093.3 74.8738C1093.3 75.0957 1093.24 75.2691 1093.11 75.3939C1092.98 75.5187 1092.8 75.5811 1092.56 75.5811H1086.01V80.6782H1092.17C1092.4 80.6782 1092.59 80.7406 1092.72 80.8655C1092.85 80.9903 1092.91 81.1637 1092.91 81.3856C1092.91 81.6075 1092.85 81.7809 1092.72 81.9057C1092.59 82.0305 1092.4 82.0929 1092.17 82.0929H1086.01V87.4189H1092.56C1092.8 87.4189 1092.98 87.4813 1093.11 87.6061C1093.24 87.7171 1093.3 87.8904 1093.3 88.1262C1093.3 88.3481 1093.24 88.5215 1093.11 88.6463C1092.98 88.7712 1092.8 88.8336 1092.56 88.8336H1085.25ZM1105.73 87.5437C1105.91 87.724 1106 87.9251 1106 88.147C1106 88.3412 1105.92 88.5215 1105.77 88.6879C1105.62 88.8405 1105.45 88.9168 1105.26 88.9168C1105.09 88.9168 1104.91 88.8336 1104.73 88.6671L1097.41 81.8641V88.0638C1097.41 88.3273 1097.34 88.5423 1097.2 88.7087C1097.05 88.8613 1096.86 88.9376 1096.61 88.9376C1096.36 88.9376 1096.17 88.8613 1096.02 88.7087C1095.88 88.5423 1095.81 88.3273 1095.81 88.0638V74.9362C1095.81 74.6727 1095.88 74.4646 1096.02 74.3121C1096.17 74.1456 1096.36 74.0624 1096.61 74.0624C1096.86 74.0624 1097.05 74.1456 1097.2 74.3121C1097.34 74.4646 1097.41 74.6727 1097.41 74.9362V80.9071L1104.4 74.3121C1104.54 74.1595 1104.71 74.0832 1104.9 74.0832C1105.1 74.0832 1105.27 74.1664 1105.41 74.3329C1105.56 74.4854 1105.63 74.6588 1105.63 74.853C1105.63 75.061 1105.54 75.2552 1105.37 75.4355L1099.06 81.344L1105.73 87.5437Z" fill="white"/>
<path d="M783.739 79.2861C786.937 79.2861 788.536 80.6397 788.536 83.3468C788.536 86.1601 786.937 87.5668 783.739 87.5668H753.357C751.971 87.5668 750.878 87.1687 750.079 86.3725C749.279 85.5232 748.879 84.4881 748.879 83.2672C748.879 81.6748 749.492 80.2416 750.718 78.9676L768.948 59.4602C771.186 57.0185 772.812 54.789 773.825 52.7719C774.891 50.7018 775.424 48.6581 775.424 46.641C775.424 44.1462 774.704 42.2353 773.265 40.9082C771.826 39.5812 769.774 38.9177 767.109 38.9177C764.923 38.9177 762.791 39.3423 760.713 40.1916C758.687 40.9879 756.635 42.1026 754.556 43.5358C754.023 43.9073 753.49 44.2258 752.957 44.4912C752.424 44.7036 751.891 44.8097 751.358 44.8097C750.452 44.8097 749.652 44.3851 748.959 43.5358C748.32 42.6865 748 41.6779 748 40.5101C748 39.7139 748.133 39.0238 748.4 38.4399C748.72 37.856 749.199 37.2987 749.839 36.7679C752.184 34.91 754.929 33.4503 758.074 32.3887C761.219 31.274 764.364 30.7166 767.509 30.7166C772.999 30.7166 777.37 32.0967 780.621 34.8569C783.926 37.6172 785.578 41.3329 785.578 46.004C785.578 49.242 784.885 52.2942 783.499 55.1606C782.113 57.9739 779.768 61.1323 776.463 64.6356L762.631 79.2861H783.739ZM815.927 88.2834C809.265 88.2834 804.174 85.8417 800.656 80.9582C797.138 76.0216 795.379 68.8556 795.379 59.4602C795.379 50.1179 797.138 43.0049 800.656 38.1215C804.174 33.1849 809.265 30.7166 815.927 30.7166C822.59 30.7166 827.68 33.1849 831.198 38.1215C834.716 43.0049 836.475 50.1179 836.475 59.4602C836.475 68.8025 834.716 75.942 831.198 80.8785C827.68 85.8151 822.59 88.2834 815.927 88.2834ZM815.927 80.2416C819.552 80.2416 822.19 78.596 823.843 75.305C825.495 71.9609 826.321 66.6793 826.321 59.4602C826.321 52.1881 825.495 46.933 823.843 43.695C822.19 40.404 819.552 38.7585 815.927 38.7585C812.303 38.7585 809.664 40.404 808.012 43.695C806.36 46.9861 805.533 52.2411 805.533 59.4602C805.533 66.6793 806.36 71.9609 808.012 75.305C809.664 78.596 812.303 80.2416 815.927 80.2416ZM866.427 86.4521C865.947 87.3014 865.361 87.9384 864.668 88.363C863.975 88.7877 863.282 89 862.589 89C861.629 89 860.777 88.655 860.03 87.9649C859.337 87.2748 858.991 86.399 858.991 85.3374C858.991 84.435 859.257 83.5326 859.79 82.6302L888.893 32.5479C889.373 31.6986 889.96 31.0616 890.652 30.637C891.345 30.2123 892.038 30 892.731 30C893.691 30 894.517 30.345 895.21 31.0351C895.956 31.7252 896.329 32.601 896.329 33.6626C896.329 34.565 896.063 35.4674 895.53 36.3698L866.427 86.4521ZM857.552 64.9541C853.074 64.9541 849.583 63.4944 847.078 60.5749C844.573 57.6554 843.32 53.3824 843.32 47.7557C843.32 42.1822 844.573 37.9357 847.078 35.0162C849.583 32.0967 853.074 30.637 857.552 30.637C862.029 30.637 865.52 32.0967 868.026 35.0162C870.584 37.9357 871.863 42.1822 871.863 47.7557C871.863 53.3824 870.584 57.6554 868.026 60.5749C865.52 63.4944 862.029 64.9541 857.552 64.9541ZM857.552 58.5047C859.577 58.5047 861.043 57.682 861.949 56.0364C862.909 54.3378 863.388 51.5776 863.388 47.7557C863.388 44.04 862.909 41.3329 861.949 39.6343C860.99 37.9357 859.524 37.0864 857.552 37.0864C855.58 37.0864 854.114 37.9357 853.154 39.6343C852.248 41.2798 851.795 43.987 851.795 47.7557C851.795 51.5776 852.248 54.3378 853.154 56.0364C854.114 57.682 855.58 58.5047 857.552 58.5047ZM897.768 88.1242C893.291 88.1242 889.8 86.6644 887.294 83.745C884.789 80.8255 883.537 76.5259 883.537 70.8462C883.537 65.2726 884.789 61.0526 887.294 58.1862C889.853 55.2668 893.344 53.807 897.768 53.807C902.246 53.807 905.737 55.2668 908.242 58.1862C910.747 61.1057 912 65.3522 912 70.9258C912 76.5524 910.747 80.8255 908.242 83.745C905.737 86.6644 902.246 88.1242 897.768 88.1242ZM897.768 81.6748C899.74 81.6748 901.206 80.852 902.166 79.2065C903.125 77.5079 903.605 74.7476 903.605 70.9258C903.605 67.2101 903.125 64.5029 902.166 62.8043C901.206 61.1057 899.74 60.2564 897.768 60.2564C895.796 60.2564 894.33 61.1057 893.371 62.8043C892.411 64.5029 891.932 67.2101 891.932 70.9258C891.932 74.7476 892.411 77.5079 893.371 79.2065C894.33 80.852 895.796 81.6748 897.768 81.6748Z" fill="white"/>
</g>
<path d="M53.0725 77.5893C52.4852 77.5893 51.9844 77.4183 51.57 77.0762C51.19 76.6998 51 76.2209 51 75.6392V43.3091C51 42.6592 51.19 42.146 51.57 41.7696C51.9498 41.3592 52.4679 41.1539 53.1244 41.1539C53.7806 41.1539 54.2988 41.3592 54.6788 41.7696C55.0585 42.146 55.2485 42.6592 55.2485 43.3091V73.9971H71.984C72.606 73.9971 73.0895 74.1511 73.4349 74.4589C73.7803 74.767 73.953 75.2117 73.953 75.7934C73.953 76.3748 73.7803 76.8197 73.4349 77.1276C73.0895 77.4354 72.606 77.5893 71.984 77.5893H53.0725ZM109.672 75.1774C109.811 75.4512 109.879 75.742 109.879 76.0498C109.879 76.563 109.672 76.9908 109.258 77.3329C108.878 77.675 108.412 77.8461 107.859 77.8461C106.995 77.8461 106.391 77.4354 106.045 76.6144L102.367 68.3008H82.8333L79.1026 76.6144C78.7572 77.4354 78.1529 77.8461 77.2893 77.8461C76.7366 77.8461 76.2531 77.675 75.8384 77.3329C75.4241 76.9565 75.2168 76.5116 75.2168 75.9984C75.2168 75.7248 75.286 75.4512 75.4241 75.1774L90.2425 42.5395C90.4498 42.0606 90.7606 41.7014 91.1753 41.4618C91.5896 41.2225 92.0388 41.1025 92.5223 41.1025C93.0405 41.1025 93.5067 41.2396 93.9213 41.5132C94.3356 41.7528 94.6465 42.0949 94.8538 42.5395L109.672 75.1774ZM84.3877 64.8114H100.812L92.5739 46.3882L84.3877 64.8114ZM127.221 78C124.631 78 122.144 77.6236 119.761 76.8708C117.412 76.0841 115.529 75.0406 114.113 73.7407C113.595 73.2615 113.336 72.6629 113.336 71.9444C113.336 71.4655 113.474 71.0548 113.75 70.7127C114.027 70.3363 114.355 70.1484 114.735 70.1484C115.184 70.1484 115.667 70.3363 116.185 70.7127C119.398 73.1761 123.059 74.4078 127.17 74.4078C130.14 74.4078 132.42 73.8432 134.009 72.7143C135.598 71.5852 136.392 69.9774 136.392 67.8904C136.392 66.693 136.013 65.7349 135.252 65.0167C134.492 64.2639 133.491 63.6651 132.247 63.2204C131.004 62.7758 129.328 62.3138 127.221 61.8348C124.389 61.1849 122.057 60.5006 120.227 59.7821C118.43 59.0636 116.963 58.0373 115.823 56.7031C114.717 55.3689 114.165 53.624 114.165 51.4688C114.165 49.4161 114.717 47.6027 115.823 46.0292C116.963 44.4211 118.534 43.1895 120.538 42.3342C122.576 41.4446 124.89 41 127.481 41C129.898 41 132.144 41.3764 134.216 42.1289C136.323 42.8474 138.085 43.8908 139.501 45.2593C140.054 45.8067 140.33 46.4053 140.33 47.0556C140.33 47.5345 140.192 47.962 139.916 48.3384C139.639 48.6805 139.311 48.8515 138.931 48.8515C138.551 48.8515 138.05 48.6633 137.429 48.287C135.736 46.9185 134.164 45.9607 132.714 45.4132C131.263 44.8658 129.518 44.5922 127.481 44.5922C124.614 44.5922 122.385 45.1908 120.797 46.3882C119.208 47.5516 118.413 49.1937 118.413 51.3149C118.413 53.128 119.104 54.4965 120.486 55.4203C121.902 56.3096 124.061 57.0966 126.962 57.7808C130.106 58.5333 132.575 59.2347 134.372 59.885C136.168 60.5006 137.653 61.4413 138.827 62.7073C140.036 63.9732 140.641 65.6667 140.641 67.7876C140.641 69.8063 140.071 71.5852 138.931 73.1247C137.826 74.6642 136.254 75.8616 134.216 76.7169C132.178 77.5722 129.847 78 127.221 78ZM157.767 77.8461C157.111 77.8461 156.575 77.6579 156.161 77.2815C155.781 76.8708 155.591 76.3405 155.591 75.6906V45.0029H144.451C143.829 45.0029 143.346 44.8487 143 44.5408C142.655 44.233 142.482 43.7883 142.482 43.2066C142.482 42.6249 142.655 42.1803 143 41.8724C143.346 41.5646 143.829 41.4107 144.451 41.4107H171.031C171.653 41.4107 172.136 41.5646 172.482 41.8724C172.827 42.1803 173 42.6249 173 43.2066C173 43.7883 172.827 44.233 172.482 44.5408C172.136 44.8487 171.653 45.0029 171.031 45.0029H159.891V75.6906C159.891 76.3405 159.701 76.8708 159.322 77.2815C158.942 77.6579 158.424 77.8461 157.767 77.8461Z" fill="white"/>
<path d="M208.064 79C204.419 79 201.221 78.2291 198.469 76.6874C195.753 75.1457 193.663 72.9382 192.198 70.065C190.733 67.1918 190 63.828 190 59.9737C190 56.1194 190.733 52.7732 192.198 49.935C193.663 47.0618 195.753 44.8543 198.469 43.3126C201.221 41.7709 204.419 41 208.064 41C210.423 41 212.639 41.3504 214.711 42.0512C216.784 42.7169 218.624 43.698 220.232 44.9945C220.697 45.3449 221.019 45.7128 221.197 46.0982C221.376 46.4836 221.465 46.9567 221.465 47.5173C221.465 48.2881 221.251 48.9364 220.822 49.462C220.393 49.9875 219.875 50.2503 219.268 50.2503C218.553 50.2503 217.82 50.0051 217.07 49.5145C215.533 48.3933 214.104 47.6224 212.782 47.2019C211.459 46.7464 209.994 46.5187 208.386 46.5187C204.67 46.5187 201.846 47.6575 199.917 49.935C198.023 52.2125 197.076 55.5588 197.076 59.9737C197.076 64.4237 198.023 67.7875 199.917 70.065C201.846 72.3426 204.67 73.4813 208.386 73.4813C209.923 73.4813 211.334 73.2536 212.621 72.7981C213.943 72.3426 215.426 71.5717 217.07 70.4855C217.427 70.2752 217.785 70.1 218.142 69.9599C218.499 69.8197 218.874 69.7497 219.268 69.7497C219.875 69.7497 220.393 70.0125 220.822 70.538C221.251 71.0636 221.465 71.7119 221.465 72.4827C221.465 73.0083 221.376 73.4813 221.197 73.9018C221.019 74.2872 220.697 74.6551 220.232 75.0055C218.624 76.302 216.784 77.3006 214.711 78.0014C212.639 78.6671 210.423 79 208.064 79ZM259.724 41.2102C260.76 41.2102 261.582 41.5256 262.19 42.1563C262.797 42.752 263.101 43.5579 263.101 44.574V75.426C263.101 76.4421 262.779 77.2656 262.136 77.8963C261.529 78.527 260.725 78.8423 259.724 78.8423C258.688 78.8423 257.866 78.527 257.258 77.8963C256.651 77.2656 256.347 76.4421 256.347 75.426V62.444H236.996V75.426C236.996 76.4421 236.674 77.2656 236.031 77.8963C235.424 78.527 234.602 78.8423 233.565 78.8423C232.565 78.8423 231.743 78.527 231.1 77.8963C230.492 77.2656 230.188 76.4421 230.188 75.426V44.574C230.188 43.5579 230.492 42.752 231.1 42.1563C231.707 41.5256 232.529 41.2102 233.565 41.2102C234.602 41.2102 235.424 41.5256 236.031 42.1563C236.674 42.752 236.996 43.5579 236.996 44.574V56.9779H256.347V44.574C256.347 43.5579 256.651 42.752 257.258 42.1563C257.866 41.5256 258.688 41.2102 259.724 41.2102ZM308.162 74.48C308.376 74.9355 308.483 75.391 308.483 75.8465C308.483 76.6524 308.144 77.3356 307.465 77.8963C306.822 78.4569 306.071 78.7372 305.213 78.7372C304.642 78.7372 304.106 78.5971 303.605 78.3167C303.105 78.0014 302.712 77.5284 302.426 76.8977L299.21 69.8548H280.341L277.125 76.8977C276.839 77.5284 276.446 78.0014 275.946 78.3167C275.446 78.5971 274.892 78.7372 274.284 78.7372C273.462 78.7372 272.712 78.4569 272.033 77.8963C271.354 77.3356 271.014 76.6524 271.014 75.8465C271.014 75.391 271.121 74.9355 271.336 74.48L286.131 43.3126C286.452 42.6118 286.935 42.0862 287.578 41.7358C288.257 41.3504 288.971 41.1577 289.722 41.1577C290.472 41.1577 291.169 41.3504 291.812 41.7358C292.491 42.0862 292.992 42.6118 293.313 43.3126L308.162 74.48ZM282.7 64.5989H296.851L289.776 48.9889L282.7 64.5989ZM344.997 41.2102C345.998 41.2102 346.784 41.5256 347.356 42.1563C347.963 42.752 348.267 43.5579 348.267 44.574V75.426C348.267 76.4421 347.963 77.2656 347.356 77.8963C346.748 78.527 345.962 78.8423 344.997 78.8423C343.854 78.8423 342.978 78.4394 342.371 77.6335L322.805 52.668V75.426C322.805 76.4421 322.52 77.2656 321.948 77.8963C321.376 78.527 320.59 78.8423 319.589 78.8423C318.589 78.8423 317.802 78.527 317.231 77.8963C316.659 77.2656 316.373 76.4421 316.373 75.426V44.574C316.373 43.5579 316.677 42.752 317.284 42.1563C317.892 41.5256 318.696 41.2102 319.696 41.2102C320.804 41.2102 321.662 41.6132 322.269 42.4191L341.781 67.2794V44.574C341.781 43.5579 342.067 42.752 342.639 42.1563C343.246 41.5256 344.032 41.2102 344.997 41.2102ZM375.984 79C372.339 79 369.141 78.2291 366.389 76.6874C363.673 75.1457 361.583 72.9382 360.117 70.065C358.652 67.1918 357.92 63.828 357.92 59.9737C357.92 56.1194 358.652 52.7732 360.117 49.935C361.583 47.0618 363.673 44.8543 366.389 43.3126C369.141 41.7709 372.339 41 375.984 41C378.343 41 380.559 41.3504 382.631 42.0512C384.704 42.7169 386.544 43.698 388.152 44.9945C388.617 45.3449 388.939 45.7128 389.117 46.0982C389.296 46.4836 389.385 46.9567 389.385 47.5173C389.385 48.2881 389.171 48.9364 388.742 49.462C388.313 49.9875 387.795 50.2503 387.188 50.2503C386.473 50.2503 385.74 50.0051 384.99 49.5145C383.453 48.3933 382.024 47.6224 380.702 47.2019C379.379 46.7464 377.914 46.5187 376.306 46.5187C372.59 46.5187 369.766 47.6575 367.836 49.935C365.942 52.2125 364.995 55.5588 364.995 59.9737C364.995 64.4237 365.942 67.7875 367.836 70.065C369.766 72.3426 372.59 73.4813 376.306 73.4813C377.843 73.4813 379.254 73.2536 380.541 72.7981C381.863 72.3426 383.346 71.5717 384.99 70.4855C385.347 70.2752 385.705 70.1 386.062 69.9599C386.419 69.8197 386.795 69.7497 387.188 69.7497C387.795 69.7497 388.313 70.0125 388.742 70.538C389.171 71.0636 389.385 71.7119 389.385 72.4827C389.385 73.0083 389.296 73.4813 389.117 73.9018C388.939 74.2872 388.617 74.6551 388.152 75.0055C386.544 76.302 384.704 77.3006 382.631 78.0014C380.559 78.6671 378.343 79 375.984 79ZM401.431 78.527C400.394 78.527 399.572 78.2467 398.965 77.686C398.393 77.1254 398.107 76.337 398.107 75.3209V44.6791C398.107 43.663 398.393 42.8746 398.965 42.314C399.572 41.7533 400.394 41.473 401.431 41.473H420.781C421.818 41.473 422.622 41.7008 423.194 42.1563C423.765 42.6118 424.051 43.26 424.051 44.101C424.051 44.9769 423.765 45.6602 423.194 46.1508C422.622 46.6063 421.818 46.834 420.781 46.834H404.861V57.0304H419.709C420.746 57.0304 421.55 57.2582 422.122 57.7137C422.693 58.1692 422.979 58.8349 422.979 59.7109C422.979 60.5519 422.693 61.2001 422.122 61.6556C421.55 62.1111 420.746 62.3389 419.709 62.3389H404.861V73.166H420.781C421.818 73.166 422.622 73.4113 423.194 73.9018C423.765 74.3573 424.051 75.0231 424.051 75.899C424.051 76.74 423.765 77.3882 423.194 77.8437C422.622 78.2992 421.818 78.527 420.781 78.527H401.431ZM434.926 67.805C434.39 67.805 433.926 67.6298 433.532 67.2794C433.175 66.929 432.961 66.4209 432.889 65.7552L430.906 45.3098L430.852 44.7842C430.852 43.698 431.227 42.8396 431.978 42.2089C432.764 41.5431 433.747 41.2102 434.926 41.2102C436.105 41.2102 437.07 41.5431 437.821 42.2089C438.607 42.8396 439 43.698 439 44.7842L438.946 45.3624L436.963 65.7552C436.892 66.4209 436.659 66.929 436.266 67.2794C435.909 67.6298 435.462 67.805 434.926 67.805ZM434.926 78.8423C433.783 78.8423 432.836 78.4744 432.085 77.7386C431.335 76.9677 430.959 76.0217 430.959 74.9004C430.959 73.7792 431.335 72.8506 432.085 72.1148C432.836 71.3439 433.783 70.9585 434.926 70.9585C436.07 70.9585 437.017 71.3439 437.767 72.1148C438.518 72.8506 438.893 73.7792 438.893 74.9004C438.893 76.0217 438.518 76.9677 437.767 77.7386C437.017 78.4744 436.07 78.8423 434.926 78.8423Z" fill="white"/>
<defs>
<filter id="filter0_d" x="0" y="0" width="1148" height="123" filterUnits="userSpaceOnUse" color-interpolation-filters="sRGB">
<feFlood flood-opacity="0" result="BackgroundImageFix"/>
<feColorMatrix in="SourceAlpha" type="matrix" values="0 0 0 0 0 0 0 0 0 0 0 0 0 0 0 0 0 0 127 0"/>
<feOffset dy="2"/>
<feGaussianBlur stdDeviation="2"/>
<feColorMatrix type="matrix" values="0 0 0 0 0.772082 0 0 0 0 0.772082 0 0 0 0 0.772082 0 0 0 0.5 0"/>
<feBlend mode="normal" in2="BackgroundImageFix" result="effect1_dropShadow"/>
<feBlend mode="normal" in="SourceGraphic" in2="effect1_dropShadow" result="shape"/>
</filter>
<linearGradient id="paint0_linear" x1="-156.5" y1="192.5" x2="1297" y2="-229.5" gradientUnits="userSpaceOnUse">
<stop stop-color="#2961F1"/>
<stop offset="0.99" stop-color="#CD60F1"/>
</linearGradient>
<linearGradient id="paint1_linear" x1="355.003" y1="107.692" x2="355.003" y2="-5.30772" gradientUnits="userSpaceOnUse">
<stop stop-color="#2961F1"/>
<stop offset="0.99" stop-color="#CD60F1"/>
</linearGradient>
<linearGradient id="paint2_linear" x1="13642.7" y1="6906.87" x2="48030.4" y2="6906.87" gradientUnits="userSpaceOnUse">
<stop stop-color="#2961F1"/>
<stop offset="0.99" stop-color="#CD60F1"/>
</linearGradient>
<linearGradient id="paint3_linear" x1="-57414.8" y1="53956.6" x2="-37149.8" y2="82367.4" gradientUnits="userSpaceOnUse">
<stop stop-color="#2961F1"/>
<stop offset="0.99" stop-color="#CD60F1"/>
</linearGradient>
</defs>
</svg>
