<svg width="14" height="18" viewBox="0 0 14 18" fill="none" xmlns="http://www.w3.org/2000/svg">
<path d="M10.9321 3.29576C10.6079 3.29576 10.345 3.05873 10.345 2.76635V0H0.508835C0.227801 0 0 0.205412 0 0.458824V17.5412C0 17.7946 0.227801 18 0.508835 18H13.4912C13.7722 18 14 17.7946 14 17.5412V3.29576H10.9321Z" fill="#DA3019"/>
<path d="M6.9998 3.77344L6.32892 5.11214H7.67068L6.9998 3.77344Z" fill="black"/>
<path d="M11.5186 0.748047V2.2364H13.1688L11.5186 0.748047Z" fill="white"/>
<path d="M6.90796 10.2792C6.82692 9.64803 6.74587 9.10989 6.66482 8.66476C6.59115 8.21299 6.52115 7.82433 6.45484 7.49879C6.38853 7.17325 6.3259 6.89422 6.26696 6.66169C6.20802 6.42251 6.15644 6.19995 6.11224 5.99399C6.06803 5.7814 6.03487 5.5688 6.01277 5.3562C5.99067 5.13696 5.97961 4.8845 5.97961 4.59882C5.97961 4.33971 6.01645 4.10718 6.09013 3.90123C6.17118 3.69527 6.27433 3.52254 6.39958 3.38302C6.52484 3.23686 6.66482 3.12724 6.81955 3.05416C6.98164 2.97443 7.14742 2.93457 7.31688 2.93457C7.47897 2.93457 7.64107 2.97443 7.80316 3.05416C7.96525 3.12724 8.10524 3.23686 8.22313 3.38302C8.34838 3.52254 8.44785 3.69527 8.52152 3.90123C8.60257 4.10718 8.64309 4.33971 8.64309 4.59882C8.64309 4.8845 8.63204 5.13696 8.60994 5.3562C8.58783 5.5688 8.55468 5.7814 8.51047 5.99399C8.46627 6.19995 8.41469 6.42251 8.35575 6.66169C8.30417 6.89422 8.24523 7.17325 8.17892 7.49879C8.11261 7.82433 8.03893 8.21299 7.95788 8.66476C7.8842 9.10989 7.81053 9.64803 7.73685 10.2792H6.90796ZM6.20065 12.063C6.20065 12.2025 6.23012 12.3354 6.28906 12.4616C6.34801 12.5812 6.42537 12.6875 6.52115 12.7805C6.6243 12.8669 6.74219 12.9333 6.87481 12.9798C7.0148 13.033 7.16215 13.0596 7.31688 13.0596C7.4716 13.0596 7.61896 13.033 7.75895 12.9798C7.89894 12.9333 8.01683 12.8669 8.11261 12.7805C8.21576 12.6875 8.2968 12.5812 8.35575 12.4616C8.41469 12.3354 8.44416 12.2025 8.44416 12.063C8.44416 11.9235 8.41469 11.7939 8.35575 11.6744C8.2968 11.5481 8.21576 11.4385 8.11261 11.3455C8.01683 11.2525 7.89894 11.1794 7.75895 11.1263C7.61896 11.0731 7.4716 11.0465 7.31688 11.0465C7.16215 11.0465 7.0148 11.0731 6.87481 11.1263C6.74219 11.1794 6.6243 11.2525 6.52115 11.3455C6.42537 11.4385 6.34801 11.5481 6.28906 11.6744C6.23012 11.7939 6.20065 11.9235 6.20065 12.063Z" fill="white"/>
<rect x="1.81476" y="14.7646" width="10.5268" height="0.457031" rx="0.228516" fill="white"/>
<rect x="1.81476" y="16.2061" width="10.5268" height="0.457031" rx="0.228516" fill="white"/>
</svg>
