<svg width="20" height="20" viewBox="0 0 20 20" fill="none" xmlns="http://www.w3.org/2000/svg">
<path d="M18.9701 17.1746L11.7032 10.0003L18.9474 2.82603C19.3788 2.35374 19.3788 1.65655 18.9474 1.25173C18.7203 1.02683 18.4251 0.914382 18.1071 0.914382C17.8119 0.914382 17.5394 1.04932 17.335 1.25173L10.0909 8.42603L2.61971 1.00434C2.39262 0.779442 2.09741 0.666992 1.77948 0.666992C1.48427 0.666992 1.21176 0.801932 1.00738 1.00434C0.803001 1.22924 0.666748 1.52161 0.689457 1.81398C0.689457 2.10635 0.82571 2.37623 1.03009 2.57864L8.5013 10.0003L1.00738 17.422C0.780292 17.6469 0.666748 17.9393 0.666748 18.2541C0.666748 18.5465 0.803001 18.8164 1.00738 19.0188C1.16634 19.1537 1.41614 19.3337 1.80219 19.3337C2.21095 19.3337 2.46075 19.1537 2.61971 19.0188L10.1136 11.5971L17.3577 18.7714C17.5167 18.9288 17.7665 19.0863 18.1753 19.0863C18.584 19.0863 18.8338 18.9064 18.9928 18.7714C19.2199 18.5465 19.3334 18.2541 19.3334 17.9393C19.3107 17.6469 19.1972 17.377 18.9701 17.1746Z" fill="white"/>
</svg>
