<svg width="16" height="9" viewBox="0 0 16 9" fill="none" xmlns="http://www.w3.org/2000/svg">
<path d="M14.6763 0.498117C14.7936 0.382311 14.9519 0.317383 15.1168 0.317383C15.2817 0.317383 15.44 0.382311 15.5574 0.498117C15.6152 0.555063 15.6611 0.622942 15.6924 0.697802C15.7238 0.772662 15.7399 0.85301 15.7399 0.934167C15.7399 1.01532 15.7238 1.09567 15.6924 1.17053C15.6611 1.24539 15.6152 1.31327 15.5574 1.37022L8.44015 8.41722C8.32277 8.53302 8.1645 8.59795 7.9996 8.59795C7.83471 8.59795 7.67644 8.53302 7.55905 8.41722L0.441854 1.37022C0.384029 1.31327 0.338108 1.24539 0.306764 1.17053C0.275419 1.09567 0.259277 1.01532 0.259277 0.934167C0.259277 0.85301 0.275419 0.772662 0.306764 0.697802C0.338108 0.622942 0.384029 0.555063 0.441854 0.498117C0.559242 0.382311 0.717507 0.317383 0.882404 0.317383C1.0473 0.317383 1.20557 0.382311 1.32295 0.498117L8.00005 6.92502L14.6763 0.498117Z" fill="#666666"/>
</svg>
