<svg width="80" height="80" viewBox="0 0 80 80" fill="none" xmlns="http://www.w3.org/2000/svg">
<path d="M19.3103 9.27637H68.9655C74.5074 9.27637 79 13.769 79 19.3108V68.966C79 74.5079 74.5074 79.0005 68.9655 79.0005H11.0345C5.49259 79.0005 1 74.5079 1 68.966V19.3108C1 13.769 5.49259 9.27637 11.0345 9.27637H19.3103Z" fill="white" stroke="#1D7DEA" stroke-width="2"/>
<path d="M80 19.3108V22.0695H0V19.3108C0 13.2167 4.94031 8.27637 11.0345 8.27637H68.9655C75.0597 8.27637 80 13.2167 80 19.3108Z" fill="#1D7DEA"/>
<path d="M19.3105 4.13793C19.3105 1.85262 17.4579 0 15.1726 0C12.8873 0 11.0347 1.85262 11.0347 4.13793V12.4138C11.0347 14.6991 12.8873 16.5517 15.1726 16.5517C17.4579 16.5517 19.3105 14.6991 19.3105 12.4138V4.13793Z" fill="#95A5A5"/>
<path d="M35.8628 4.13793C35.8628 1.85262 34.0102 0 31.7248 0C29.4395 0 27.5869 1.85262 27.5869 4.13793V12.4138C27.5869 14.6991 29.4395 16.5517 31.7248 16.5517C34.0102 16.5517 35.8628 14.6991 35.8628 12.4138V4.13793Z" fill="#95A5A5"/>
<path d="M52.414 4.13793C52.414 1.85262 50.5614 0 48.2761 0C45.9908 0 44.1382 1.85262 44.1382 4.13793V12.4138C44.1382 14.6991 45.9908 16.5517 48.2761 16.5517C50.5614 16.5517 52.414 14.6991 52.414 12.4138V4.13793Z" fill="#95A5A5"/>
<path d="M68.9658 4.13793C68.9658 1.85262 67.1132 0 64.8279 0C62.5426 0 60.6899 1.85262 60.6899 4.13793V12.4138C60.6899 14.6991 62.5426 16.5517 64.8279 16.5517C67.1132 16.5517 68.9658 14.6991 68.9658 12.4138V4.13793Z" fill="#95A5A5"/>
<path d="M35.6055 52H32.2188V38.9453L28.1758 40.1992V37.4453L35.2422 34.9141H35.6055V52ZM51.1797 45.5781H53.1133V48.3086H51.1797V52H47.793V48.3086H40.7969L40.6445 46.1758L47.7578 34.9375H51.1797V45.5781ZM44.0195 45.5781H47.793V39.5547L47.5703 39.9414L44.0195 45.5781Z" fill="#1D7DEA"/>
<path d="M26.3838 66V56.0469H29.1934C30.0592 56.0469 30.8249 56.2383 31.4902 56.6211C32.1556 57.0039 32.6683 57.5485 33.0283 58.2549C33.3929 58.9613 33.5775 59.7725 33.582 60.6885V61.3242C33.582 62.263 33.3997 63.0856 33.0352 63.792C32.6751 64.4984 32.1579 65.0407 31.4834 65.4189C30.8135 65.7972 30.0319 65.9909 29.1387 66H26.3838ZM27.6963 57.127V64.9268H29.0771C30.0889 64.9268 30.875 64.6123 31.4355 63.9834C32.0007 63.3545 32.2832 62.459 32.2832 61.2969V60.7158C32.2832 59.5856 32.0166 58.7083 31.4834 58.084C30.9548 57.4551 30.2028 57.1361 29.2275 57.127H27.6963ZM39.9395 66C39.8665 65.8542 39.8073 65.5944 39.7617 65.2207C39.1738 65.8314 38.472 66.1367 37.6562 66.1367C36.9271 66.1367 36.3278 65.9316 35.8584 65.5215C35.3936 65.1068 35.1611 64.5827 35.1611 63.9492C35.1611 63.179 35.4528 62.582 36.0361 62.1582C36.624 61.7298 37.4489 61.5156 38.5107 61.5156H39.7412V60.9346C39.7412 60.4925 39.609 60.1416 39.3447 59.8818C39.0804 59.6175 38.6908 59.4854 38.1758 59.4854C37.7246 59.4854 37.3464 59.5993 37.041 59.8271C36.7357 60.055 36.583 60.3307 36.583 60.6543H35.3115C35.3115 60.2852 35.4414 59.9297 35.7012 59.5879C35.9655 59.2415 36.321 58.9681 36.7676 58.7676C37.2188 58.5671 37.7132 58.4668 38.251 58.4668C39.1032 58.4668 39.7708 58.681 40.2539 59.1094C40.737 59.5332 40.9876 60.1188 41.0059 60.8662V64.2705C41.0059 64.9495 41.0924 65.4896 41.2656 65.8906V66H39.9395ZM37.8408 65.0361C38.2373 65.0361 38.6133 64.9336 38.9688 64.7285C39.3242 64.5234 39.5817 64.2568 39.7412 63.9287V62.4111H38.75C37.2005 62.4111 36.4258 62.8646 36.4258 63.7715C36.4258 64.168 36.5579 64.4779 36.8223 64.7012C37.0866 64.9245 37.4261 65.0361 37.8408 65.0361ZM45.2988 64.1475L47.0215 58.6035H48.375L45.4014 67.1416C44.9411 68.3721 44.2096 68.9873 43.207 68.9873L42.9678 68.9668L42.4961 68.8779V67.8525L42.8379 67.8799C43.2663 67.8799 43.599 67.7933 43.8359 67.6201C44.0775 67.4469 44.2757 67.1302 44.4307 66.6699L44.7109 65.918L42.0723 58.6035H43.4531L45.2988 64.1475ZM53.8164 64.0381C53.8164 63.6963 53.6865 63.432 53.4268 63.2451C53.1715 63.0537 52.7227 62.8896 52.0801 62.7529C51.4421 62.6162 50.9339 62.4521 50.5557 62.2607C50.182 62.0693 49.904 61.8415 49.7217 61.5771C49.5439 61.3128 49.4551 60.9984 49.4551 60.6338C49.4551 60.0277 49.7103 59.515 50.2207 59.0957C50.7357 58.6764 51.3919 58.4668 52.1895 58.4668C53.028 58.4668 53.707 58.6833 54.2266 59.1162C54.7507 59.5492 55.0127 60.1029 55.0127 60.7773H53.7412C53.7412 60.431 53.5931 60.1325 53.2969 59.8818C53.0052 59.6312 52.6361 59.5059 52.1895 59.5059C51.7292 59.5059 51.3691 59.6061 51.1094 59.8066C50.8496 60.0072 50.7197 60.2692 50.7197 60.5928C50.7197 60.8981 50.8405 61.1283 51.082 61.2832C51.3236 61.4382 51.7588 61.5863 52.3877 61.7275C53.0212 61.8688 53.5339 62.0374 53.9258 62.2334C54.3177 62.4294 54.6071 62.6663 54.7939 62.9443C54.9854 63.2178 55.0811 63.5527 55.0811 63.9492C55.0811 64.61 54.8167 65.141 54.2881 65.542C53.7594 65.9385 53.0736 66.1367 52.2305 66.1367C51.638 66.1367 51.1139 66.0319 50.6582 65.8223C50.2025 65.6126 49.8447 65.321 49.585 64.9473C49.3298 64.569 49.2021 64.1611 49.2021 63.7236H50.4668C50.4896 64.1475 50.6582 64.4847 50.9727 64.7354C51.2917 64.9814 51.7109 65.1045 52.2305 65.1045C52.709 65.1045 53.0918 65.0088 53.3789 64.8174C53.6706 64.6214 53.8164 64.3617 53.8164 64.0381Z" fill="#666666"/>
</svg>
