<svg width="14" height="14" viewBox="0 0 14 14" fill="none" xmlns="http://www.w3.org/2000/svg">
<path fill-rule="evenodd" clip-rule="evenodd" d="M0 7C0 3.13956 3.13953 0 7 0C10.8605 0 14 3.13956 14 7C14 10.8605 10.8605 14 7 14C3.13953 14 0 10.8605 0 7ZM13.0667 7.00002C13.0667 3.64399 10.3561 0.93335 7.00002 0.93335C3.64397 0.93335 0.93335 3.64399 0.93335 7.00002C0.93335 10.3561 3.64397 13.0667 7.00002 13.0667C10.3561 13.0667 13.0667 10.3561 13.0667 7.00002ZM8.08881 2.17792C7.65925 2.17792 7.31104 2.52614 7.31104 2.95569C7.31104 3.38525 7.65925 3.73347 8.08881 3.73347C8.51836 3.73347 8.86659 3.38525 8.86659 2.95569C8.86659 2.52614 8.51836 2.17792 8.08881 2.17792ZM5.48342 4.57415C5.98397 4.19017 6.58028 3.91391 7.14105 3.88874C7.47754 3.87363 7.80204 3.95103 8.08412 4.14638C9.1964 4.91654 8.06081 7.36004 7.49989 8.56699C7.38145 8.82183 7.28864 9.02155 7.24801 9.13874C6.76431 10.5324 7.36406 10.8542 8.20079 10.5922L8.14246 11.2241C6.60451 12.3236 4.44921 12.0154 5.34731 9.34776C5.43981 9.07303 5.60083 8.72854 5.77716 8.35132C6.2319 7.37847 6.78838 6.18797 6.53342 5.41513C6.38812 4.97423 5.90286 4.97229 5.42994 5.15749L5.48342 4.57415Z" fill="#898989"/>
</svg>
