<svg width="11" height="18" viewBox="0 0 11 18" fill="none" xmlns="http://www.w3.org/2000/svg">
<path d="M7.92502 8.99998L1.49812 2.32198C1.38231 2.20459 1.31738 2.04632 1.31738 1.88143C1.31738 1.71653 1.38231 1.55826 1.49812 1.44088C1.55506 1.38305 1.62294 1.33713 1.6978 1.30579C1.77266 1.27444 1.85301 1.2583 1.93417 1.2583C2.01532 1.2583 2.09567 1.27444 2.17053 1.30579C2.24539 1.33713 2.31327 1.38305 2.37022 1.44088L9.41722 8.55808C9.53302 8.67546 9.59795 8.83373 9.59795 8.99863C9.59795 9.16352 9.53302 9.32179 9.41722 9.43918L2.37022 16.5564C2.31327 16.6142 2.24539 16.6601 2.17053 16.6915C2.09567 16.7228 2.01532 16.739 1.93417 16.739C1.85301 16.739 1.77266 16.7228 1.6978 16.6915C1.62294 16.6601 1.55506 16.6142 1.49812 16.5564C1.38231 16.439 1.31738 16.2807 1.31738 16.1158C1.31738 15.9509 1.38231 15.7927 1.49812 15.6753L7.92502 8.99998Z" fill="#999999" stroke="#999999"/>
</svg>
