<svg width="80" height="80" viewBox="0 0 80 80" fill="none" xmlns="http://www.w3.org/2000/svg">
<circle cx="40" cy="40" r="40" fill="#EEF2F9"/>
<mask id="mask0" mask-type="alpha" maskUnits="userSpaceOnUse" x="0" y="0" width="80" height="80">
<circle cx="40" cy="40" r="40" fill="#C4C4C4"/>
</mask>
<g mask="url(#mask0)">
<rect x="13.8403" y="18.2043" width="52.5115" height="64.1897" rx="5.25" fill="#F9FAFE" stroke="#707791" stroke-width="1.5"/>
<rect x="16.1353" y="20.136" width="48.0909" height="60.4545" fill="white" stroke="#707791"/>
<line x1="21.0005" y1="33.5002" x2="60.0005" y2="33.5002" stroke="#707791" stroke-dasharray="1 1"/>
<line x1="21.0005" y1="36.5002" x2="60.0005" y2="36.5002" stroke="#707791" stroke-dasharray="1 1"/>
<line x1="21.0005" y1="39.5002" x2="60.0005" y2="39.5002" stroke="#707791" stroke-dasharray="1 1"/>
<line x1="21.0005" y1="42.5002" x2="60.0005" y2="42.5002" stroke="#707791" stroke-dasharray="1 1"/>
<line x1="21.0005" y1="45.5002" x2="60.0005" y2="45.5002" stroke="#707791" stroke-dasharray="1 1"/>
<line x1="21.0005" y1="48.5002" x2="60.0005" y2="48.5002" stroke="#707791" stroke-dasharray="1 1"/>
<line x1="21.0005" y1="51.5002" x2="60.0005" y2="51.5002" stroke="#707791" stroke-dasharray="1 1"/>
<line x1="21.0005" y1="54.5002" x2="60.0005" y2="54.5002" stroke="#707791" stroke-dasharray="1 1"/>
<line x1="21.0005" y1="57.5002" x2="60.0005" y2="57.5002" stroke="#707791" stroke-dasharray="1 1"/>
<line x1="21.0005" y1="60.5002" x2="60.0005" y2="60.5002" stroke="#707791" stroke-dasharray="1 1"/>
<line x1="21.0005" y1="63.5002" x2="60.0005" y2="63.5002" stroke="#707791" stroke-dasharray="1 1"/>
<rect x="27.0364" y="15.2727" width="26.2759" height="7.27273" rx="3.63636" fill="#707791"/>
</g>
<circle r="11" transform="matrix(-1 0 0 1 68 64)" fill="white"/>
<path d="M72.0639 60.3154C72.0639 60.2123 71.9795 60.1279 71.8764 60.1279L70.3295 60.135L67.9999 62.9123L65.6725 60.1373L64.1233 60.1303C64.0202 60.1303 63.9358 60.2123 63.9358 60.3178C63.9358 60.3623 63.9522 60.4045 63.9803 60.4396L67.0295 64.0725L63.9803 67.7029C63.952 67.7373 63.9363 67.7803 63.9358 67.8248C63.9358 67.9279 64.0202 68.0123 64.1233 68.0123L65.6725 68.0053L67.9999 65.2279L70.3272 68.0029L71.8741 68.01C71.9772 68.01 72.0616 67.9279 72.0616 67.8225C72.0616 67.7779 72.0452 67.7357 72.017 67.7006L68.9725 64.0701L72.0217 60.4373C72.0499 60.4045 72.0639 60.36 72.0639 60.3154Z" fill="#707791"/>
<path d="M68 53.5234C62.2016 53.5234 57.5 58.225 57.5 64.0234C57.5 69.8219 62.2016 74.5234 68 74.5234C73.7984 74.5234 78.5 69.8219 78.5 64.0234C78.5 58.225 73.7984 53.5234 68 53.5234ZM68 72.7422C63.1859 72.7422 59.2812 68.8375 59.2812 64.0234C59.2812 59.2094 63.1859 55.3047 68 55.3047C72.8141 55.3047 76.7188 59.2094 76.7188 64.0234C76.7188 68.8375 72.8141 72.7422 68 72.7422Z" fill="#707791"/>
</svg>
