<svg width="230" height="206" viewBox="0 0 230 206" fill="none" xmlns="http://www.w3.org/2000/svg">
<path opacity="0.1" d="M229.457 200.522C229.457 205.67 178.06 205.046 114.729 205.046C51.3979 205.046 0 205.67 0 200.522C0 195.374 51.3979 191.241 114.729 191.241C178.06 191.241 229.457 195.374 229.457 200.522Z" fill="#828282"/>
<path d="M155.051 73.9383C155.051 97.0244 136.333 115.665 113.325 115.665C90.2387 115.665 71.5982 96.9464 71.5982 73.9383C71.5982 50.8522 90.3167 32.2117 113.325 32.2117C136.333 32.1337 155.051 50.8522 155.051 73.9383Z" fill="#F1F1F1"/>
<path d="M141.013 39.5428C141.013 61.381 123.308 79.0856 101.392 79.0856C79.5536 79.0856 61.849 61.381 61.849 39.5428C61.849 17.7046 79.5536 0 101.47 0C123.308 0 141.013 17.7046 141.013 39.5428Z" fill="#F1F1F1"/>
<path d="M163.553 37.0471C163.553 49.1361 153.726 58.9633 141.637 58.9633C129.548 58.9633 119.72 49.1361 119.72 37.0471C119.72 24.9581 129.548 15.1309 141.637 15.1309C153.726 15.1309 163.553 24.9581 163.553 37.0471Z" fill="#F1F1F1"/>
<path d="M127.13 68.2445C127.13 90.5507 109.035 108.645 86.729 108.645C64.4228 108.645 46.3283 90.5507 46.3283 68.2445C46.3283 45.9383 64.4228 27.8438 86.729 27.8438C109.035 27.9217 127.13 45.9383 127.13 68.2445Z" fill="#F1F1F1"/>
<path d="M184.611 71.2082C184.611 91.7986 167.92 108.489 147.33 108.489C126.74 108.489 110.049 91.7986 110.049 71.2082C110.049 50.6179 126.74 33.9272 147.33 33.9272C167.92 33.9272 184.611 50.6179 184.611 71.2082Z" fill="#F1F1F1"/>
<path d="M131.653 25.6602H81.5034V103.888H146.55V40.5569L131.653 25.6602Z" fill="white"/>
<path d="M134.929 31.666H85.2471V32.5239H134.929V31.666Z" fill="#E6E7E8"/>
<path d="M142.962 39.3877H85.2471V40.2456H142.962V39.3877Z" fill="#E6E7E8"/>
<path d="M142.962 47.0308H85.2471V47.8887H142.962V47.0308Z" fill="#E6E7E8"/>
<path d="M142.962 54.752H85.2471V55.6099H142.962V54.752Z" fill="#E6E7E8"/>
<path d="M142.962 62.4736H85.2471V63.3316H142.962V62.4736Z" fill="#E6E7E8"/>
<path d="M142.962 70.1167H85.2471V70.9746H142.962V70.1167Z" fill="#E6E7E8"/>
<path d="M142.962 77.8384H85.2471V78.6963H142.962V77.8384Z" fill="#E6E7E8"/>
<path d="M142.962 85.5591H85.2471V86.417H142.962V85.5591Z" fill="#E6E7E8"/>
<path d="M142.962 93.2031H85.2471V94.0611H142.962V93.2031Z" fill="#E6E7E8"/>
<path d="M142.962 100.924H85.2471V101.782H142.962V100.924Z" fill="#E6E7E8"/>
<path d="M146.55 40.5569H131.653V25.6602L146.55 40.5569Z" fill="white"/>
<path d="M115.363 48.0015C113.469 47.9736 111.589 48.3259 109.834 49.0377C108.079 49.7494 106.485 50.806 105.146 52.145C103.831 53.4594 102.789 55.0198 102.077 56.7371C101.366 58.4544 101 60.2951 101 62.1539C101 64.0127 101.366 65.8534 102.077 67.5707C102.789 69.288 103.831 70.8484 105.146 72.1628C106.46 73.4772 108.021 74.5199 109.738 75.2312C111.455 75.9426 113.296 76.3087 115.155 76.3087C117.014 76.3087 118.854 75.9426 120.572 75.2312C122.289 74.5199 123.849 73.4772 125.164 72.1628C126.478 70.8484 127.521 69.288 128.232 67.5707C128.943 65.8534 129.31 64.0127 129.31 62.1539C129.31 60.2951 128.943 58.4544 128.232 56.7371C127.521 55.0198 126.478 53.4594 125.164 52.145C122.56 49.5417 119.044 48.0554 115.363 48.0015ZM115.331 50.1215C118.462 50.1672 121.451 51.4311 123.665 53.6449C124.783 54.7624 125.669 56.089 126.274 57.5492C126.879 59.0093 127.19 60.5742 127.19 62.1546C127.19 63.735 126.879 65.3 126.274 66.7601C125.669 68.2202 124.783 69.5469 123.665 70.6644C122.548 71.7819 121.221 72.6684 119.761 73.2733C118.301 73.8781 116.736 74.1894 115.155 74.1894C113.575 74.1894 112.01 73.8781 110.55 73.2733C109.09 72.6684 107.763 71.7819 106.646 70.6644C105.528 69.5469 104.642 68.2202 104.037 66.7601C103.432 65.3 103.121 63.735 103.121 62.1546C103.121 60.5742 103.432 59.0093 104.037 57.5492C104.642 56.089 105.528 54.7624 106.646 53.6449C107.784 52.5065 109.14 51.608 110.631 51.0028C112.123 50.3976 113.722 50.0979 115.331 50.1215Z" fill="#666666"/>
<path d="M126.181 70.9121C125.555 70.2859 124.539 70.2859 123.913 70.9121C123.287 71.5383 123.287 72.5535 123.913 73.1797L134.157 83.4231C134.783 84.0493 135.798 84.0493 136.424 83.4231C137.05 82.7969 137.05 81.7816 136.424 81.1555L126.181 70.9121Z" fill="#666666"/>
<path d="M131.459 75.5648L128.566 78.458C127.94 79.0842 127.94 80.0994 128.566 80.7256L138.184 90.3434C138.81 90.9696 139.825 90.9696 140.451 90.3434L143.344 87.4503C143.971 86.8241 143.971 85.8088 143.344 85.1826L133.727 75.5648C133.1 74.9386 132.085 74.9386 131.459 75.5648Z" fill="#666666"/>
<path d="M119.16 64.6531C119.576 65.0689 119.576 65.7432 119.16 66.1591C118.744 66.575 118.069 66.575 117.654 66.1591L111.15 59.6558C110.734 59.2399 110.734 58.5656 111.15 58.1497C111.566 57.7339 112.24 57.7339 112.656 58.1497L119.16 64.6531Z" fill="#666666"/>
<path d="M112.656 66.1598C112.24 66.5756 111.566 66.5756 111.15 66.1598C110.734 65.7439 110.734 65.0696 111.15 64.6537L117.654 58.1504C118.069 57.7345 118.744 57.7345 119.16 58.1504C119.576 58.5663 119.576 59.2406 119.16 59.6564L112.656 66.1598Z" fill="#666666"/>
<path d="M190.617 199.899H37.3589V81.8164H190.617V199.899Z" fill="#B2875D"/>
<g opacity="0.1">
<path opacity="0.1" d="M53.0357 131.265H37.4369V139.766H53.0357V131.265Z" fill="#B2875D"/>
</g>
<g opacity="0.1">
<path opacity="0.1" d="M53.0357 151.154H37.437V159.655H53.0357V151.154Z" fill="#B2875D"/>
</g>
<g opacity="0.1">
<path opacity="0.1" d="M53.0357 171.042H37.437V179.544H53.0357V171.042Z" fill="#B2875D"/>
</g>
<g opacity="0.1">
<path opacity="0.1" d="M190.617 131.266H175.018V139.767H190.617V131.266Z" fill="#B2875D"/>
</g>
<g opacity="0.1">
<path opacity="0.1" d="M190.617 151.154H175.018V159.655H190.617V151.154Z" fill="#B2875D"/>
</g>
<g opacity="0.1">
<path opacity="0.1" d="M190.617 171.042H175.018V179.544H190.617V171.042Z" fill="#B2875D"/>
</g>
<path fill-rule="evenodd" clip-rule="evenodd" d="M127.581 152.943C125.81 158.394 119.961 161.38 114.517 159.611C114.104 159.477 113.704 159.319 113.321 159.139C113.33 159.067 113.339 158.994 113.349 158.92C113.492 157.82 113.648 156.611 114.062 155.478C114.548 155.793 115.082 156.05 115.659 156.238C119.212 157.392 123.029 155.444 124.186 151.886C125.342 148.328 123.398 144.507 119.845 143.353C116.292 142.198 112.474 144.147 111.318 147.705C110.832 149.202 110.894 150.745 111.394 152.117C110.398 153.195 109.716 154.462 109.25 155.725C107.436 153.145 106.817 149.771 107.867 146.538C109.638 141.087 115.487 138.101 120.931 139.87C126.375 141.639 129.352 147.492 127.581 152.943Z" fill="white"/>
<path fill-rule="evenodd" clip-rule="evenodd" d="M108.997 165.453C108.784 165.453 108.617 165.277 108.636 165.065C108.801 163.22 109.696 155.261 113.122 151.461C115.829 148.459 116.548 148.12 116.735 148.192C116.838 148.231 116.765 148.38 116.707 148.474C116.306 149.112 114.647 151.854 113.397 155.389C112.19 158.802 112.528 163.614 112.664 165.04C112.685 165.26 112.513 165.454 112.292 165.454L108.997 165.453Z" fill="white"/>
<path fill-rule="evenodd" clip-rule="evenodd" d="M81.6654 160.989C81.6457 161.226 81.6357 161.409 81.6357 161.538C81.6357 161.845 81.653 162.161 81.6876 162.488C81.7222 162.814 81.7913 163.113 81.8951 163.385C81.9988 163.657 82.1445 163.88 82.3322 164.053C82.5198 164.226 82.7718 164.313 83.0878 164.313C83.5027 164.313 83.8682 164.241 84.1843 164.097C84.5004 163.954 84.7868 163.675 85.0437 163.259L88.0515 155.588H88.2738C88.1948 156.3 88.133 157.005 88.0886 157.703C88.0442 158.4 88.0219 159.06 88.0219 159.683C88.0219 160.346 88.054 160.959 88.1182 161.523C88.1824 162.087 88.2887 162.577 88.4367 162.992C88.5849 163.407 88.78 163.731 89.0221 163.964C89.2641 164.196 89.5628 164.313 89.9185 164.313C90.6396 164.313 91.2866 164.216 91.8596 164.023C92.4325 163.83 92.9584 163.583 93.4376 163.281C93.6457 163.15 93.8492 163.013 94.048 162.869C94.1408 162.994 94.2401 163.112 94.3459 163.222C94.6916 163.583 95.0891 163.86 95.5386 164.053C95.9881 164.246 96.4499 164.342 96.924 164.342C97.4673 164.342 98.0279 164.196 98.6058 163.905C99.1836 163.613 99.7392 163.23 100.273 162.755L99.8726 164.135C99.1613 164.718 98.4576 165.331 97.7611 165.974C97.0648 166.617 96.398 167.27 95.7609 167.933C95.1237 168.596 94.5335 169.261 93.9903 169.928C93.4469 170.596 92.9778 171.239 92.5826 171.857C92.1875 172.476 91.8763 173.064 91.6491 173.623C91.4219 174.182 91.3083 174.684 91.3083 175.129C91.3083 175.772 91.417 176.286 91.6343 176.672C91.8517 177.058 92.1258 177.354 92.4567 177.562C92.7875 177.77 93.1481 177.908 93.5383 177.978C93.9285 178.047 94.2915 178.082 94.6274 178.082C95.4768 178.082 96.2523 177.936 96.9536 177.644C97.655 177.352 98.2896 176.944 98.8576 176.42C99.4256 175.895 99.9343 175.267 100.384 174.535C100.833 173.803 101.233 173 101.584 172.124C101.935 171.249 102.238 170.309 102.495 169.305C102.752 168.301 102.974 167.27 103.162 166.212L103.636 162.918C103.893 161.236 104.145 159.664 104.392 158.2C104.491 157.576 104.594 156.951 104.703 156.323C104.812 155.695 104.918 155.099 105.022 154.535C105.125 153.971 105.222 153.467 105.311 153.021C105.399 152.576 105.473 152.225 105.533 151.968C105.562 151.849 105.577 151.745 105.577 151.656C105.577 151.37 105.473 151.159 105.266 151.026C105.059 150.892 104.802 150.826 104.495 150.826C104.239 150.826 103.967 150.87 103.681 150.959C103.394 151.048 103.12 151.182 102.858 151.36C102.596 151.538 102.364 151.758 102.162 152.02C101.959 152.282 101.819 152.581 101.74 152.918L100.702 157.28C100.663 157.596 100.576 157.992 100.443 158.467C100.31 158.942 100.134 159.401 99.917 159.847C99.6998 160.292 99.4429 160.672 99.1465 160.989C98.8503 161.306 98.5193 161.464 98.1538 161.464C97.9266 161.464 97.739 161.407 97.5908 161.293C97.4426 161.179 97.324 161.031 97.2352 160.848C97.1462 160.665 97.0845 160.457 97.0499 160.225C97.0154 159.992 96.9981 159.753 96.9981 159.505C96.9981 159.031 97.0376 158.482 97.1166 157.858C97.1956 157.235 97.3019 156.6 97.4352 155.952C97.5685 155.304 97.7217 154.671 97.8945 154.053C98.0674 153.434 98.2427 152.898 98.4205 152.443C98.4798 152.294 98.5218 152.156 98.5465 152.027C98.5712 151.899 98.5835 151.78 98.5835 151.671C98.5835 151.305 98.4601 151.036 98.2131 150.863C97.9662 150.69 97.6698 150.603 97.324 150.603C96.9191 150.603 96.5041 150.719 96.0794 150.952C95.6547 151.184 95.3287 151.523 95.1015 151.968C94.7953 152.591 94.5237 153.207 94.2865 153.815C94.0495 154.424 93.8519 155.054 93.6939 155.707C93.5358 156.36 93.4148 157.047 93.3309 157.769C93.2469 158.491 93.2049 159.283 93.2049 160.143C93.2049 160.163 93.205 160.184 93.2052 160.203C93.1569 160.234 93.1085 160.263 93.0597 160.292C92.8227 160.43 92.5905 160.544 92.3633 160.633C92.1362 160.722 91.9188 160.766 91.7114 160.766C91.5138 160.766 91.3459 160.598 91.2076 160.262C91.0693 159.926 91.0001 159.49 91.0001 158.956C91.0001 158.274 91.0347 157.628 91.1039 157.02C91.173 156.412 91.252 155.811 91.3409 155.217C91.4298 154.624 91.5089 154.02 91.578 153.407C91.6472 152.794 91.6818 152.146 91.6818 151.464C91.6818 151.018 91.5212 150.675 91.2002 150.432C90.8792 150.19 90.4865 150.069 90.0222 150.069C89.6074 150.069 89.2566 150.205 88.9702 150.477C88.6837 150.749 88.3973 151.083 88.1108 151.478C87.8145 151.884 87.4959 152.354 87.1551 152.888C86.8143 153.422 86.4933 153.931 86.192 154.416C85.8908 154.901 85.6364 155.314 85.4289 155.655C85.2215 155.996 85.1079 156.182 85.0882 156.211L84.9252 156.033C84.9252 156.014 84.93 155.974 84.94 155.915C84.9498 155.855 84.9794 155.712 85.0288 155.484C85.098 155.158 85.1721 154.839 85.2511 154.527C85.3302 154.216 85.4067 153.897 85.4808 153.57C85.5549 153.244 85.6166 152.908 85.666 152.561C85.7154 152.215 85.7401 151.849 85.7401 151.464C85.7401 151.018 85.5919 150.675 85.2956 150.432C84.9992 150.19 84.6436 150.069 84.2287 150.069C83.7843 150.069 83.4014 150.202 83.0804 150.469C82.7594 150.737 82.4556 151.073 82.1692 151.478C81.8728 151.884 81.5617 152.351 81.2357 152.88C80.9097 153.41 80.606 153.917 80.3245 154.401C80.0429 154.886 79.8059 155.301 79.6132 155.648C79.4206 155.994 79.3144 156.182 79.2947 156.211L79.1317 156.033C79.2305 155.41 79.3243 154.807 79.4132 154.223C79.4527 153.976 79.4898 153.721 79.5243 153.459C79.5589 153.197 79.591 152.942 79.6206 152.695C79.6503 152.448 79.6725 152.215 79.6873 151.998C79.7021 151.78 79.7096 151.587 79.7096 151.419C79.7096 151.112 79.6997 150.87 79.6799 150.692C79.6602 150.514 79.5984 150.378 79.4947 150.284C79.391 150.19 79.233 150.131 79.0206 150.106C78.8082 150.081 78.5143 150.069 78.139 150.069C77.892 150.069 77.6894 150.086 77.5314 150.121C77.3734 150.155 77.2376 150.225 77.124 150.329C77.0104 150.432 76.9091 150.578 76.8202 150.766C76.7313 150.954 76.6375 151.206 76.5387 151.523C76.4399 151.83 76.3313 152.225 76.2127 152.71C76.0942 153.195 75.9781 153.729 75.8645 154.312C75.7509 154.896 75.6423 155.507 75.5385 156.145C75.4349 156.783 75.3434 157.408 75.2644 158.022C75.1854 158.635 75.1212 159.218 75.0718 159.772C75.0224 160.326 74.9977 160.806 74.9977 161.212C74.9977 161.607 75.0199 161.991 75.0644 162.361C75.1089 162.732 75.1977 163.064 75.3311 163.356C75.4645 163.647 75.6546 163.88 75.9016 164.053C76.1485 164.226 76.4745 164.313 76.8795 164.313C77.1956 164.313 77.4845 164.241 77.7463 164.097C78.0081 163.954 78.2377 163.68 78.4353 163.274C79.1169 161.899 79.6725 160.754 80.1022 159.839C80.5319 158.924 80.885 158.18 81.1617 157.606C81.4382 157.032 81.653 156.597 81.8062 156.3C81.9593 156.004 82.0951 155.781 82.2136 155.633H82.4358C82.2778 156.543 82.1445 157.394 82.0358 158.185C81.9864 158.521 81.937 158.86 81.8877 159.201C81.8383 159.542 81.7938 159.866 81.7543 160.173C81.7148 160.48 81.6851 160.752 81.6654 160.989ZM94.8052 175.233C95.22 175.233 95.6127 175.112 95.9831 174.869C96.3536 174.627 96.6944 174.308 97.0055 173.912C97.3167 173.517 97.6006 173.067 97.8574 172.562C98.1143 172.058 98.3415 171.541 98.5391 171.012C98.7367 170.482 98.9045 169.966 99.0429 169.461C99.1811 168.957 99.2898 168.507 99.3688 168.111C98.9835 168.368 98.591 168.675 98.1909 169.031C97.7908 169.387 97.4007 169.77 97.0203 170.181C96.64 170.591 96.2794 171.014 95.9387 171.449C95.5979 171.884 95.299 172.302 95.0422 172.703C94.7854 173.104 94.5829 173.477 94.4347 173.823C94.2865 174.169 94.2125 174.456 94.2125 174.684C94.2125 175.05 94.4101 175.233 94.8052 175.233Z" fill="white"/>
<path d="M122.585 165.616C122.418 165.616 122.289 165.569 122.196 165.477C122.103 165.384 122.057 165.264 122.057 165.116C122.057 165.005 122.085 164.894 122.14 164.782L132.64 146.866C132.918 146.403 133.288 146.171 133.751 146.171H136.974C137.455 146.171 137.733 146.403 137.807 146.866L140.696 164.782C140.714 164.838 140.724 164.903 140.724 164.977C140.724 165.144 140.677 165.282 140.585 165.394C140.455 165.542 140.288 165.616 140.085 165.616H137.724C137.261 165.616 137.001 165.403 136.946 164.977L136.335 161.699H128.085L126.057 165.088C125.816 165.44 125.511 165.616 125.14 165.616H122.585ZM136.057 158.505L134.724 149.921L129.724 158.505H136.057ZM141.945 165.616C141.741 165.616 141.593 165.551 141.5 165.421C141.426 165.329 141.389 165.218 141.389 165.088C141.389 165.051 141.398 165.005 141.417 164.949L144.695 149.588H139.556C139.352 149.588 139.195 149.523 139.084 149.394C138.991 149.264 138.963 149.107 139 148.921L139.445 146.866C139.482 146.662 139.574 146.495 139.722 146.366C139.871 146.236 140.046 146.171 140.25 146.171H154.417C154.62 146.171 154.778 146.236 154.889 146.366C154.963 146.458 155 146.569 155 146.699C155 146.755 154.991 146.81 154.972 146.866L154.528 148.921C154.491 149.125 154.389 149.292 154.222 149.421C154.074 149.532 153.908 149.588 153.722 149.588H148.584L145.306 164.949C145.269 165.153 145.176 165.319 145.028 165.449C144.88 165.56 144.704 165.616 144.5 165.616H141.945Z" fill="white"/>
<path d="M108.51 170.771C108.51 169.667 109.406 168.771 110.51 168.771H151.217C152.322 168.771 153.217 169.667 153.217 170.771V176.438C153.217 177.542 152.322 178.438 151.217 178.438H110.51C109.406 178.438 108.51 177.542 108.51 176.438V170.771Z" fill="white"/>
<path d="M115.104 176.08C114.368 176.08 113.798 175.891 113.392 175.512C112.992 175.134 112.779 174.6 112.752 173.912C112.747 173.768 112.744 173.534 112.744 173.208C112.744 172.878 112.747 172.638 112.752 172.488C112.779 171.806 112.995 171.275 113.4 170.896C113.811 170.512 114.379 170.32 115.104 170.32C115.579 170.32 115.992 170.403 116.344 170.568C116.696 170.728 116.968 170.95 117.16 171.232C117.352 171.51 117.454 171.824 117.464 172.176V172.192C117.464 172.235 117.446 172.272 117.408 172.304C117.376 172.331 117.339 172.344 117.296 172.344H116.536C116.472 172.344 116.424 172.331 116.392 172.304C116.36 172.278 116.334 172.227 116.312 172.152C116.227 171.816 116.086 171.582 115.888 171.448C115.691 171.31 115.427 171.24 115.096 171.24C114.328 171.24 113.928 171.67 113.896 172.528C113.891 172.672 113.888 172.894 113.888 173.192C113.888 173.491 113.891 173.718 113.896 173.872C113.928 174.731 114.328 175.16 115.096 175.16C115.427 175.16 115.691 175.091 115.888 174.952C116.091 174.814 116.232 174.579 116.312 174.248C116.328 174.174 116.352 174.123 116.384 174.096C116.422 174.07 116.472 174.056 116.536 174.056H117.296C117.344 174.056 117.384 174.072 117.416 174.104C117.454 174.136 117.47 174.176 117.464 174.224C117.454 174.576 117.352 174.894 117.16 175.176C116.968 175.454 116.696 175.675 116.344 175.84C115.992 176 115.579 176.08 115.104 176.08ZM120.565 176.08C119.84 176.08 119.274 175.896 118.869 175.528C118.464 175.16 118.25 174.614 118.229 173.888C118.224 173.734 118.221 173.507 118.221 173.208C118.221 172.904 118.224 172.675 118.229 172.52C118.25 171.811 118.469 171.267 118.885 170.888C119.301 170.51 119.861 170.32 120.565 170.32C121.269 170.32 121.829 170.51 122.245 170.888C122.666 171.267 122.888 171.811 122.909 172.52C122.92 172.83 122.925 173.059 122.925 173.208C122.925 173.352 122.92 173.579 122.909 173.888C122.882 174.614 122.666 175.16 122.261 175.528C121.856 175.896 121.29 176.08 120.565 176.08ZM120.565 175.16C120.922 175.16 121.208 175.054 121.421 174.84C121.634 174.622 121.749 174.291 121.765 173.848C121.776 173.528 121.781 173.312 121.781 173.2C121.781 173.078 121.776 172.862 121.765 172.552C121.749 172.11 121.634 171.782 121.421 171.568C121.208 171.35 120.922 171.24 120.565 171.24C120.213 171.24 119.93 171.35 119.717 171.568C119.504 171.782 119.389 172.11 119.373 172.552C119.368 172.707 119.365 172.923 119.365 173.2C119.365 173.472 119.368 173.688 119.373 173.848C119.389 174.291 119.501 174.622 119.709 174.84C119.922 175.054 120.208 175.16 120.565 175.16ZM126.208 176.08C125.488 176.08 124.928 175.896 124.528 175.528C124.128 175.16 123.928 174.603 123.928 173.856V170.6C123.928 170.542 123.944 170.494 123.976 170.456C124.013 170.419 124.061 170.4 124.12 170.4H124.848C124.906 170.4 124.952 170.419 124.984 170.456C125.021 170.494 125.04 170.542 125.04 170.6V173.856C125.04 174.283 125.141 174.606 125.344 174.824C125.546 175.038 125.834 175.144 126.208 175.144C126.581 175.144 126.866 175.038 127.064 174.824C127.266 174.606 127.368 174.283 127.368 173.856V170.6C127.368 170.542 127.386 170.494 127.424 170.456C127.461 170.419 127.509 170.4 127.568 170.4H128.288C128.346 170.4 128.392 170.419 128.424 170.456C128.461 170.494 128.48 170.542 128.48 170.6V173.856C128.48 174.603 128.28 175.16 127.88 175.528C127.485 175.896 126.928 176.08 126.208 176.08ZM129.871 176C129.817 176 129.772 175.982 129.735 175.944C129.697 175.907 129.679 175.862 129.679 175.808V170.6C129.679 170.542 129.695 170.494 129.727 170.456C129.764 170.419 129.812 170.4 129.871 170.4H131.943C132.593 170.4 133.103 170.552 133.471 170.856C133.844 171.16 134.031 171.592 134.031 172.152C134.031 172.542 133.935 172.87 133.743 173.136C133.556 173.398 133.295 173.587 132.959 173.704L134.127 175.744C134.143 175.776 134.151 175.806 134.151 175.832C134.151 175.88 134.132 175.92 134.095 175.952C134.063 175.984 134.025 176 133.983 176H133.255C133.169 176 133.103 175.982 133.055 175.944C133.012 175.907 132.972 175.854 132.935 175.784L131.903 173.888H130.791V175.808C130.791 175.862 130.772 175.907 130.735 175.944C130.703 175.982 130.657 176 130.599 176H129.871ZM131.919 172.984C132.239 172.984 132.479 172.912 132.639 172.768C132.804 172.624 132.887 172.416 132.887 172.144C132.887 171.872 132.804 171.662 132.639 171.512C132.479 171.363 132.239 171.288 131.919 171.288H130.791V172.984H131.919ZM137.006 176.08C136.531 176.08 136.123 176.008 135.782 175.864C135.44 175.72 135.182 175.531 135.006 175.296C134.83 175.062 134.736 174.808 134.726 174.536C134.726 174.488 134.742 174.448 134.774 174.416C134.806 174.384 134.846 174.368 134.894 174.368H135.606C135.67 174.368 135.718 174.382 135.75 174.408C135.787 174.43 135.822 174.467 135.854 174.52C135.907 174.702 136.03 174.854 136.222 174.976C136.414 175.099 136.675 175.16 137.006 175.16C137.384 175.16 137.67 175.099 137.862 174.976C138.054 174.848 138.15 174.672 138.15 174.448C138.15 174.299 138.099 174.176 137.998 174.08C137.902 173.984 137.755 173.902 137.558 173.832C137.366 173.763 137.078 173.678 136.694 173.576C136.064 173.427 135.603 173.23 135.31 172.984C135.022 172.734 134.878 172.379 134.878 171.92C134.878 171.611 134.96 171.336 135.126 171.096C135.296 170.856 135.539 170.667 135.854 170.528C136.174 170.39 136.544 170.32 136.966 170.32C137.403 170.32 137.782 170.398 138.102 170.552C138.422 170.707 138.664 170.902 138.83 171.136C139 171.366 139.091 171.595 139.102 171.824C139.102 171.872 139.086 171.912 139.054 171.944C139.022 171.976 138.982 171.992 138.934 171.992H138.19C138.078 171.992 138 171.942 137.958 171.84C137.926 171.67 137.819 171.528 137.638 171.416C137.456 171.299 137.232 171.24 136.966 171.24C136.667 171.24 136.432 171.296 136.262 171.408C136.091 171.52 136.006 171.683 136.006 171.896C136.006 172.046 136.048 172.168 136.134 172.264C136.219 172.36 136.352 172.446 136.534 172.52C136.72 172.595 136.987 172.678 137.334 172.768C137.803 172.875 138.176 172.995 138.454 173.128C138.736 173.262 138.944 173.43 139.078 173.632C139.211 173.835 139.278 174.094 139.278 174.408C139.278 174.75 139.182 175.048 138.99 175.304C138.803 175.555 138.536 175.747 138.19 175.88C137.848 176.014 137.454 176.08 137.006 176.08ZM140.386 176C140.333 176 140.288 175.982 140.25 175.944C140.213 175.907 140.194 175.862 140.194 175.808V170.6C140.194 170.542 140.21 170.494 140.242 170.456C140.28 170.419 140.328 170.4 140.386 170.4H143.906C143.965 170.4 144.013 170.419 144.05 170.456C144.088 170.494 144.106 170.542 144.106 170.6V171.128C144.106 171.187 144.088 171.235 144.05 171.272C144.013 171.304 143.965 171.32 143.906 171.32H141.274V172.736H143.73C143.789 172.736 143.837 172.755 143.874 172.792C143.912 172.824 143.93 172.87 143.93 172.928V173.424C143.93 173.483 143.912 173.531 143.874 173.568C143.837 173.6 143.789 173.616 143.73 173.616H141.274V175.08H143.97C144.029 175.08 144.077 175.099 144.114 175.136C144.152 175.174 144.17 175.222 144.17 175.28V175.808C144.17 175.867 144.152 175.915 144.114 175.952C144.077 175.984 144.029 176 143.97 176H140.386ZM147.115 176.08C146.64 176.08 146.232 176.008 145.891 175.864C145.55 175.72 145.291 175.531 145.115 175.296C144.939 175.062 144.846 174.808 144.835 174.536C144.835 174.488 144.851 174.448 144.883 174.416C144.915 174.384 144.955 174.368 145.003 174.368H145.715C145.779 174.368 145.827 174.382 145.859 174.408C145.896 174.43 145.931 174.467 145.963 174.52C146.016 174.702 146.139 174.854 146.331 174.976C146.523 175.099 146.784 175.16 147.115 175.16C147.494 175.16 147.779 175.099 147.971 174.976C148.163 174.848 148.259 174.672 148.259 174.448C148.259 174.299 148.208 174.176 148.107 174.08C148.011 173.984 147.864 173.902 147.667 173.832C147.475 173.763 147.187 173.678 146.803 173.576C146.174 173.427 145.712 173.23 145.419 172.984C145.131 172.734 144.987 172.379 144.987 171.92C144.987 171.611 145.07 171.336 145.235 171.096C145.406 170.856 145.648 170.667 145.963 170.528C146.283 170.39 146.654 170.32 147.075 170.32C147.512 170.32 147.891 170.398 148.211 170.552C148.531 170.707 148.774 170.902 148.939 171.136C149.11 171.366 149.2 171.595 149.211 171.824C149.211 171.872 149.195 171.912 149.163 171.944C149.131 171.976 149.091 171.992 149.043 171.992H148.299C148.187 171.992 148.11 171.942 148.067 171.84C148.035 171.67 147.928 171.528 147.747 171.416C147.566 171.299 147.342 171.24 147.075 171.24C146.776 171.24 146.542 171.296 146.371 171.408C146.2 171.52 146.115 171.683 146.115 171.896C146.115 172.046 146.158 172.168 146.243 172.264C146.328 172.36 146.462 172.446 146.643 172.52C146.83 172.595 147.096 172.678 147.443 172.768C147.912 172.875 148.286 172.995 148.563 173.128C148.846 173.262 149.054 173.43 149.187 173.632C149.32 173.835 149.387 174.094 149.387 174.408C149.387 174.75 149.291 175.048 149.099 175.304C148.912 175.555 148.646 175.747 148.299 175.88C147.958 176.014 147.563 176.08 147.115 176.08Z" fill="#B2875D"/>
<path d="M220.254 113.404L188.745 83.7662L190.617 81.8164L222.126 111.454L220.254 113.404Z" fill="#C49A6C"/>
<path d="M7.72134 113.403L39.2308 83.7658L37.3589 81.8159L5.84949 111.454L7.72134 113.403Z" fill="#C49A6C"/>
<path d="M200.834 121.047H27.1417L37.3589 81.8164H190.617L200.834 121.047Z" fill="#C49A6C"/>
</svg>
