<svg width="259" height="193" viewBox="0 0 259 193" fill="none" xmlns="http://www.w3.org/2000/svg">
<g clip-path="url(#clip0)">
<path d="M258.984 169.608H0V169.738H258.984V169.608Z" fill="#EBEBEB"/>
<path d="M233.034 177.943H215.879V178.072H233.034V177.943Z" fill="#EBEBEB"/>
<path d="M171.562 179.352H167.061V179.481H171.562V179.352Z" fill="#EBEBEB"/>
<path d="M215.361 173.136H205.421V173.265H215.361V173.136Z" fill="#EBEBEB"/>
<path d="M49.5429 174.006H27.1719V174.136H49.5429V174.006Z" fill="#EBEBEB"/>
<path d="M57.4369 174.006H54.1582V174.136H57.4369V174.006Z" fill="#EBEBEB"/>
<path d="M116.62 176.192H68.0967V176.321H116.62V176.192Z" fill="#EBEBEB"/>
<path d="M122.757 146.507H22.7429C21.9594 146.506 21.2085 146.194 20.655 145.639C20.1014 145.085 19.7905 144.333 19.7905 143.55V2.9576C19.7905 2.17409 20.1014 1.4226 20.655 0.868089C21.2085 0.313581 21.9594 0.00137217 22.7429 0L122.757 0C123.542 0 124.294 0.311603 124.849 0.86626C125.403 1.42092 125.715 2.17319 125.715 2.9576V143.55C125.715 143.938 125.638 144.323 125.49 144.681C125.341 145.04 125.123 145.366 124.849 145.641C124.574 145.916 124.248 146.133 123.889 146.282C123.53 146.431 123.146 146.507 122.757 146.507ZM22.7429 0.129492C21.9938 0.130864 21.2758 0.42943 20.7465 0.959654C20.2173 1.48988 19.92 2.20843 19.92 2.9576V143.55C19.92 144.299 20.2173 145.017 20.7465 145.548C21.2758 146.078 21.9938 146.376 22.7429 146.378H122.757C123.507 146.376 124.226 146.078 124.756 145.548C125.286 145.018 125.584 144.299 125.585 143.55V2.9576C125.584 2.20796 125.286 1.48941 124.756 0.959337C124.226 0.429261 123.507 0.130861 122.757 0.129492H22.7429Z" fill="#EBEBEB"/>
<path d="M234.8 146.507H134.78C133.996 146.506 133.245 146.194 132.691 145.639C132.136 145.085 131.824 144.334 131.823 143.55V2.9576C131.824 2.17361 132.136 1.42213 132.691 0.867773C133.245 0.313412 133.996 0.00136941 134.78 0L234.8 0C235.583 0.0027412 236.332 0.315554 236.885 0.869914C237.437 1.42427 237.747 2.17498 237.747 2.9576V143.55C237.747 144.332 237.437 145.083 236.885 145.637C236.332 146.192 235.583 146.504 234.8 146.507ZM134.78 0.129492C134.031 0.130861 133.312 0.429261 132.782 0.959337C132.252 1.48941 131.954 2.20796 131.952 2.9576V143.55C131.954 144.299 132.252 145.018 132.782 145.548C133.312 146.078 134.031 146.376 134.78 146.378H234.8C235.55 146.376 236.268 146.078 236.798 145.548C237.328 145.018 237.627 144.299 237.628 143.55V2.9576C237.627 2.20796 237.328 1.48941 236.798 0.959337C236.268 0.429261 235.55 0.130861 234.8 0.129492H134.78Z" fill="#EBEBEB"/>
<path d="M150.049 61.6953L221.415 61.6953V14.9591L150.049 14.9591V61.6953Z" fill="#E6E6E6"/>
<path d="M147.87 61.6953L220.396 61.6953V14.9591L147.87 14.9591V61.6953Z" fill="#F0F0F0"/>
<path d="M150.049 70.8633L221.415 70.8633V61.6901L150.049 61.6901V70.8633Z" fill="#E6E6E6"/>
<path d="M144.249 70.8633L216.775 70.8633V61.6901L144.249 61.6901V70.8633Z" fill="#F0F0F0"/>
<path d="M217.351 58.6495V18.0098L150.921 18.0098V58.6495L217.351 58.6495Z" fill="#FAFAFA"/>
<path d="M202.37 58.6443L193.886 18.0098H180.646L189.131 58.6443H202.37Z" fill="white"/>
<path d="M215.94 55.6092C215.998 55.6092 216.053 55.5863 216.094 55.5455C216.135 55.5047 216.158 55.4493 216.158 55.3917V19.9885C216.158 19.96 216.152 19.9317 216.141 19.9053C216.13 19.8789 216.114 19.8549 216.094 19.8347C216.074 19.8145 216.05 19.7985 216.023 19.7876C215.997 19.7766 215.969 19.771 215.94 19.771C215.912 19.771 215.883 19.7766 215.857 19.7876C215.831 19.7985 215.807 19.8145 215.786 19.8347C215.766 19.8549 215.75 19.8789 215.739 19.9053C215.728 19.9317 215.723 19.96 215.723 19.9885V55.3917C215.723 55.4202 215.728 55.4485 215.739 55.4749C215.75 55.5013 215.766 55.5253 215.786 55.5455C215.807 55.5657 215.831 55.5817 215.857 55.5926C215.883 55.6036 215.912 55.6092 215.94 55.6092Z" fill="#F0F0F0"/>
<path d="M186.286 58.6443L177.802 18.0098H172.638L181.127 58.6443H186.286Z" fill="white"/>
<path d="M151.31 58.6495V18.0098H150.921V58.6495H151.31Z" fill="#E6E6E6"/>
<path opacity="0.6" d="M147.155 22.6043H218.521L218.801 19.1909H147.435L147.155 22.6043Z" fill="#EBEBEB"/>
<path opacity="0.6" d="M147.155 28.1981H218.521L218.801 24.7847H147.435L147.155 28.1981Z" fill="#EBEBEB"/>
<path opacity="0.6" d="M147.155 33.792H218.521L218.801 30.3838H147.435L147.155 33.792Z" fill="#EBEBEB"/>
<path opacity="0.6" d="M147.155 39.3914H218.521L218.801 35.978H147.435L147.155 39.3914Z" fill="#EBEBEB"/>
<path opacity="0.6" d="M147.155 44.9857H218.521L218.801 41.5723H147.435L147.155 44.9857Z" fill="#EBEBEB"/>
<path opacity="0.6" d="M147.155 50.5794H218.521L218.801 47.166H147.435L147.155 50.5794Z" fill="#EBEBEB"/>
<path d="M211.17 135.62H196.206V138.572H211.17V135.62Z" fill="#E6E6E6"/>
<path d="M167.981 169.608H170.742V101.718H167.981V169.608Z" fill="#E6E6E6"/>
<path d="M158.411 138.567H196.202V135.614H158.411V138.567Z" fill="#F5F5F5"/>
<path d="M211.17 151.765H196.206V154.717H211.17V151.765Z" fill="#E6E6E6"/>
<path d="M158.411 154.712H196.202V151.759H158.411V154.712Z" fill="#F5F5F5"/>
<path d="M211.17 103.334H196.206V106.287H211.17V103.334Z" fill="#E6E6E6"/>
<path d="M158.411 106.282H196.202V103.329H158.411V106.282Z" fill="#F5F5F5"/>
<path d="M211.17 119.475H196.206V122.427H211.17V119.475Z" fill="#E6E6E6"/>
<path d="M158.411 122.427H196.202V119.474H158.411V122.427Z" fill="#F5F5F5"/>
<path d="M205.779 169.608H208.54V101.718H205.779V169.608Z" fill="#E6E6E6"/>
<path d="M193.441 169.608H196.202V101.718H193.441V169.608Z" fill="#F5F5F5"/>
<path d="M158.41 169.608H161.171V101.718H158.41V169.608Z" fill="#F5F5F5"/>
<path d="M33.8641 169.608H62.1348L62.1348 114.761H33.8641L33.8641 169.608Z" fill="#E6E6E6"/>
<path d="M41.4123 169.609H33.8604V162.036H49.3269L41.4123 169.609Z" fill="#FAFAFA"/>
<path d="M110.939 169.608H139.209V114.761H110.939V169.608Z" fill="#E6E6E6"/>
<path d="M33.8644 167.003H117.532V114.761H33.8644V167.003Z" fill="#FAFAFA"/>
<path d="M109.979 169.609H117.526V162.036H102.065L109.979 169.609Z" fill="#FAFAFA"/>
<path d="M39.7182 147.3H111.674V134.226H39.7182V147.3Z" fill="#F0F0F0"/>
<path d="M39.7182 163.17H111.674V150.097H39.7182V163.17Z" fill="#F0F0F0"/>
<path d="M98.0001 135.599H53.3979C52.7687 135.599 52.1653 135.349 51.7204 134.904C51.2755 134.459 51.0256 133.856 51.0256 133.226V133.066H100.367V133.226C100.367 133.855 100.118 134.457 99.6742 134.902C99.2304 135.347 98.6283 135.597 98.0001 135.599Z" fill="#FAFAFA"/>
<path d="M39.7182 131.434H111.674V118.361L39.7182 118.361V131.434Z" fill="#F0F0F0"/>
<path d="M98.0001 119.754H53.3979C52.7687 119.754 52.1653 119.504 51.7204 119.059C51.2755 118.614 51.0256 118.011 51.0256 117.382V117.221H100.367V117.382C100.367 118.01 100.118 118.613 99.6742 119.057C99.2304 119.502 98.6283 119.753 98.0001 119.754Z" fill="#FAFAFA"/>
<path d="M98.0001 151.49H53.3979C52.7687 151.49 52.1653 151.24 51.7204 150.795C51.2755 150.351 51.0256 149.747 51.0256 149.118V148.957H100.367V149.118C100.367 149.746 100.118 150.349 99.6742 150.794C99.2304 151.238 98.6283 151.489 98.0001 151.49Z" fill="#FAFAFA"/>
<path d="M38.3663 61.6953L109.732 61.6953V14.9591L38.3663 14.9591V61.6953Z" fill="#E6E6E6"/>
<path d="M36.19 61.6953L108.716 61.6953V14.9591L36.19 14.9591V61.6953Z" fill="#F0F0F0"/>
<path d="M38.3663 70.8633L109.732 70.8633V61.6901L38.3663 61.6901V70.8633Z" fill="#E6E6E6"/>
<path d="M32.5586 70.8633L105.084 70.8633V61.6901L32.5586 61.6901V70.8633Z" fill="#F0F0F0"/>
<path d="M105.666 58.6495V18.0098L39.2361 18.0098V58.6495L105.666 58.6495Z" fill="#FAFAFA"/>
<path d="M90.685 58.6443L82.2007 18.0098H68.9614L77.4457 58.6443H90.685Z" fill="white"/>
<path d="M104.252 55.6092C104.309 55.6092 104.365 55.5863 104.406 55.5455C104.446 55.5047 104.469 55.4493 104.469 55.3917V19.9885C104.469 19.96 104.464 19.9317 104.453 19.9053C104.442 19.8789 104.426 19.8549 104.406 19.8347C104.385 19.8145 104.361 19.7985 104.335 19.7876C104.309 19.7766 104.28 19.771 104.252 19.771C104.194 19.771 104.139 19.7939 104.098 19.8347C104.057 19.8755 104.034 19.9308 104.034 19.9885V55.3917C104.034 55.4493 104.057 55.5047 104.098 55.5455C104.139 55.5863 104.194 55.6092 104.252 55.6092Z" fill="#F0F0F0"/>
<path d="M74.603 58.6443L66.1187 18.0098H60.9546L69.4389 58.6443H74.603Z" fill="white"/>
<path d="M39.6245 58.6495V18.0098H39.236V58.6495H39.6245Z" fill="#E6E6E6"/>
<path opacity="0.6" d="M35.4648 22.6043H106.83L107.11 19.1909H35.7445L35.4648 22.6043Z" fill="#EBEBEB"/>
<path opacity="0.6" d="M35.4648 24.5259H106.83L107.11 21.1177H35.7445L35.4648 24.5259Z" fill="#EBEBEB"/>
<path opacity="0.6" d="M35.4648 26.4525H106.83L107.11 23.0391H35.7445L35.4648 26.4525Z" fill="#EBEBEB"/>
<path opacity="0.6" d="M35.4648 28.374H106.83L107.11 24.9658H35.7445L35.4648 28.374Z" fill="#EBEBEB"/>
<path opacity="0.6" d="M35.4648 30.3011H106.83L107.11 26.8877H35.7445L35.4648 30.3011Z" fill="#EBEBEB"/>
<path opacity="0.6" d="M35.4648 32.2279H106.83L107.11 28.8145H35.7445L35.4648 32.2279Z" fill="#EBEBEB"/>
<path d="M49.7357 113.078H52.2012V85.5787H49.7357V113.078Z" fill="#F5F5F5"/>
<path d="M50.0454 113.062H50.7446V85.5631H50.0454V113.062Z" fill="#FAFAFA"/>
<path d="M51.035 113.062H51.3096V85.5631H51.035V113.062Z" fill="#FAFAFA"/>
<path d="M60.1006 114.761H41.8474C41.8474 114.151 42.0897 113.566 42.521 113.135C42.9523 112.703 43.5372 112.461 44.1472 112.461H57.7956C58.4056 112.461 58.9905 112.703 59.4218 113.135C59.8531 113.566 60.0954 114.151 60.0954 114.761H60.1006Z" fill="#F0F0F0"/>
<path d="M46.5336 102.656C46.7214 102.655 46.9011 102.58 47.0339 102.447C47.1667 102.314 47.2419 102.134 47.2433 101.946V83.9108C47.2433 83.7226 47.1685 83.5421 47.0354 83.409C46.9023 83.276 46.7218 83.2012 46.5336 83.2012C46.44 83.2005 46.3472 83.2184 46.2605 83.2537C46.1738 83.2891 46.095 83.3412 46.0285 83.4072C45.9621 83.4732 45.9093 83.5516 45.8734 83.638C45.8374 83.7245 45.8188 83.8172 45.8188 83.9108V101.941C45.8188 102.131 45.8942 102.313 46.0282 102.447C46.1623 102.581 46.3441 102.656 46.5336 102.656Z" fill="#F0F0F0"/>
<path d="M39.9194 92.1205H62.0108L59.4675 76.6851H42.4627L39.9194 92.1205Z" fill="#E0E0E0"/>
<path d="M129.493 193C184.958 193 229.922 190.375 229.922 187.137C229.922 183.899 184.958 181.273 129.493 181.273C74.0275 181.273 29.064 183.899 29.064 187.137C29.064 190.375 74.0275 193 129.493 193Z" fill="#F5F5F5"/>
<path d="M53.9317 76.3544L53.415 76.3916L54.1031 85.9441L54.6198 85.9069L53.9317 76.3544Z" fill="#407BFF"/>
<path d="M54.9707 90.8383L54.4541 90.8755L54.7131 94.4712L55.2297 94.434L54.9707 90.8383Z" fill="#407BFF"/>
<path d="M174.922 134.78H63.994C62.7592 134.758 61.5764 134.279 60.6735 133.437C59.7707 132.594 59.2117 131.447 59.1044 130.217L53.6554 54.5262C53.6047 53.9425 53.6768 53.3546 53.8672 52.8004C54.0575 52.2463 54.3618 51.7381 54.7605 51.3087C55.1591 50.8793 55.6433 50.5382 56.1818 50.3073C56.7204 50.0764 57.3013 49.9608 57.8872 49.9681H168.815C170.049 49.9902 171.231 50.468 172.134 51.3095C173.037 52.1511 173.596 53.2968 173.705 54.5262L179.154 130.217C179.204 130.801 179.132 131.389 178.942 131.943C178.752 132.498 178.447 133.006 178.049 133.436C177.65 133.866 177.166 134.208 176.628 134.439C176.089 134.67 175.508 134.787 174.922 134.78Z" fill="#407BFF"/>
<path d="M175.348 134.78H64.4203C63.1855 134.758 62.0027 134.279 61.0998 133.437C60.1969 132.594 59.638 131.447 59.5307 130.217L54.0816 54.5262C54.031 53.9425 54.1031 53.3546 54.2934 52.8004C54.4838 52.2463 54.7881 51.7381 55.1867 51.3087C55.5854 50.8793 56.0696 50.5382 56.6081 50.3073C57.1466 50.0764 57.7275 49.9608 58.3134 49.9681H169.241C170.475 49.9902 171.658 50.468 172.56 51.3095C173.463 52.1511 174.023 53.2968 174.131 54.5262L179.58 130.217C179.632 130.801 179.56 131.389 179.37 131.944C179.18 132.499 178.876 133.008 178.477 133.438C178.078 133.868 177.594 134.209 177.055 134.441C176.516 134.672 175.935 134.787 175.348 134.78Z" fill="#407BFF"/>
<path opacity="0.5" d="M175.348 134.78H64.4203C63.1855 134.758 62.0027 134.279 61.0998 133.437C60.1969 132.594 59.638 131.447 59.5307 130.217L54.0816 54.5262C54.031 53.9425 54.1031 53.3546 54.2934 52.8004C54.4838 52.2463 54.7881 51.7381 55.1867 51.3087C55.5854 50.8793 56.0696 50.5382 56.6081 50.3073C57.1466 50.0764 57.7275 49.9608 58.3134 49.9681H169.241C170.475 49.9902 171.658 50.468 172.56 51.3095C173.463 52.1511 174.023 53.2968 174.131 54.5262L179.58 130.217C179.632 130.801 179.56 131.389 179.37 131.944C179.18 132.499 178.876 133.008 178.477 133.438C178.078 133.868 177.594 134.209 177.055 134.441C176.516 134.672 175.935 134.787 175.348 134.78Z" fill="#3E89CC"/>
<path d="M169.407 52.2476H58.4786C58.3543 52.2476 58.23 52.2476 58.1057 52.2476C55.2724 52.4806 55.8525 56.7953 58.7117 56.7953H169.826C172.69 56.7953 172.649 52.4806 169.78 52.2476C169.655 52.2476 169.531 52.2476 169.407 52.2476Z" fill="#407BFF"/>
<path d="M61.3683 54.5262C61.3792 54.6597 61.3619 54.7941 61.3177 54.9205C61.2734 55.047 61.2032 55.1628 61.1114 55.2604C61.0196 55.358 60.9084 55.4353 60.7849 55.4873C60.6615 55.5393 60.5284 55.5648 60.3945 55.5621C60.113 55.5582 59.8429 55.4502 59.6363 55.2589C59.4297 55.0676 59.3013 54.8066 59.2757 54.5262C59.2656 54.3933 59.2833 54.2597 59.3275 54.134C59.3718 54.0082 59.4416 53.893 59.5326 53.7957C59.6237 53.6983 59.7339 53.6209 59.8564 53.5683C59.9789 53.5158 60.111 53.4892 60.2443 53.4903C60.5264 53.4941 60.7971 53.602 61.0045 53.7931C61.212 53.9843 61.3415 54.2454 61.3683 54.5262Z" fill="#FAFAFA"/>
<path d="M64.9274 54.5262C64.9382 54.6597 64.921 54.7941 64.8768 54.9205C64.8325 55.047 64.7622 55.1628 64.6705 55.2604C64.5787 55.358 64.4675 55.4353 64.344 55.4873C64.2205 55.5393 64.0875 55.5648 63.9536 55.5621C63.6721 55.5582 63.402 55.4502 63.1954 55.2589C62.9888 55.0676 62.8603 54.8066 62.8348 54.5262C62.8247 54.3933 62.8424 54.2597 62.8866 54.134C62.9308 54.0082 63.0007 53.893 63.0917 53.7957C63.1828 53.6983 63.293 53.6209 63.4155 53.5683C63.538 53.5158 63.6701 53.4892 63.8034 53.4903C64.0854 53.4941 64.3562 53.602 64.5636 53.7931C64.771 53.9843 64.9006 54.2454 64.9274 54.5262Z" fill="#FAFAFA"/>
<path d="M68.4807 54.5263C68.4916 54.6594 68.4745 54.7933 68.4305 54.9194C68.3866 55.0454 68.3168 55.161 68.2256 55.2585C68.1344 55.3561 68.0238 55.4335 67.9009 55.4858C67.7781 55.5381 67.6456 55.5641 67.5121 55.5622C67.2303 55.5594 66.9595 55.4518 66.7527 55.2603C66.5459 55.0687 66.4177 54.8071 66.3933 54.5263C66.3825 54.3932 66.3996 54.2593 66.4435 54.1332C66.4874 54.0071 66.5572 53.8916 66.6484 53.794C66.7396 53.6965 66.8502 53.6191 66.9731 53.5668C67.0959 53.5145 67.2284 53.4884 67.3619 53.4903C67.6431 53.4954 67.9125 53.6038 68.1189 53.7949C68.3252 53.986 68.454 54.2463 68.4807 54.5263Z" fill="#FAFAFA"/>
<path d="M172.405 127.223H66.2994C65.852 127.216 65.4232 127.043 65.096 126.738C64.7688 126.433 64.5664 126.017 64.528 125.571L60.0476 63.3269C60.0276 63.1133 60.0533 62.8979 60.123 62.695C60.1927 62.4921 60.3047 62.3064 60.4517 62.1501C60.5987 61.9939 60.7772 61.8706 60.9754 61.7887C61.1737 61.7067 61.3871 61.6678 61.6015 61.6746H167.733C168.181 61.6808 168.61 61.8534 168.938 62.1588C169.265 62.4643 169.467 62.8807 169.505 63.3269L173.99 125.571C174.009 125.787 173.981 126.004 173.909 126.209C173.837 126.413 173.722 126.6 173.572 126.756C173.422 126.913 173.24 127.035 173.039 127.116C172.838 127.196 172.622 127.233 172.405 127.223Z" fill="white"/>
<path d="M127.695 103.516L125.965 79.5236L120.734 76.3691H106.329L108.287 103.516H127.695Z" fill="white"/>
<path d="M127.695 103.765H108.287C108.223 103.765 108.161 103.741 108.114 103.698C108.067 103.655 108.038 103.595 108.033 103.531L106.08 76.39C106.078 76.3552 106.083 76.3202 106.094 76.2873C106.106 76.2544 106.124 76.2241 106.147 76.1983C106.171 76.1735 106.199 76.1537 106.23 76.1403C106.261 76.1269 106.295 76.1202 106.329 76.1207H120.733C120.779 76.1198 120.824 76.1324 120.863 76.1569L126.094 79.3061C126.13 79.326 126.16 79.3544 126.182 79.3887C126.203 79.4231 126.216 79.4624 126.219 79.503L127.938 103.495C127.942 103.53 127.937 103.565 127.926 103.598C127.914 103.631 127.895 103.662 127.871 103.687C127.824 103.734 127.761 103.762 127.695 103.765ZM108.53 103.247H127.42L125.721 79.6532L120.687 76.6231H106.598L108.53 103.247Z" fill="#E8505B"/>
<path d="M125.965 79.5236L120.733 76.3691L122.655 80.544L125.965 79.5236Z" fill="#EBEBEB"/>
<path d="M122.655 80.803C122.606 80.8029 122.559 80.7886 122.518 80.7619C122.478 80.7352 122.446 80.6973 122.427 80.6528L120.505 76.509C120.48 76.4602 120.472 76.4046 120.482 76.3507C120.492 76.2968 120.52 76.2478 120.56 76.2111C120.601 76.1745 120.653 76.1524 120.708 76.1482C120.762 76.144 120.817 76.1579 120.863 76.1879L126.094 79.3371C126.136 79.3625 126.17 79.3993 126.192 79.4434C126.214 79.4874 126.223 79.5368 126.218 79.5857C126.211 79.633 126.19 79.6773 126.159 79.7137C126.128 79.7502 126.088 79.7776 126.042 79.7929L122.727 80.8289L122.655 80.803ZM121.303 77.0115L122.789 80.2436L125.379 79.4511L121.303 77.0115Z" fill="#E8505B"/>
<path d="M114.472 88.5986C114.48 88.7398 114.46 88.8812 114.411 89.0142C114.363 89.1471 114.288 89.2688 114.191 89.3717C114.094 89.4745 113.977 89.5565 113.847 89.6124C113.717 89.6683 113.577 89.697 113.436 89.6967C113.139 89.6913 112.855 89.576 112.639 89.3731C112.423 89.1702 112.29 88.8942 112.265 88.5986C112.252 88.4566 112.269 88.3134 112.315 88.1785C112.362 88.0437 112.437 87.9204 112.535 87.8168C112.633 87.7133 112.752 87.632 112.884 87.5783C113.016 87.5247 113.159 87.4999 113.301 87.5057C113.597 87.511 113.88 87.6256 114.096 87.8274C114.312 88.0293 114.446 88.304 114.472 88.5986Z" fill="#E8505B"/>
<path d="M121.568 88.5984C121.581 88.7407 121.564 88.8841 121.517 89.0192C121.471 89.1543 121.396 89.2779 121.298 89.3818C121.2 89.4857 121.081 89.5676 120.949 89.6218C120.817 89.6761 120.675 89.7016 120.532 89.6965C120.235 89.6912 119.95 89.576 119.733 89.3733C119.516 89.1705 119.382 88.8944 119.356 88.5984C119.343 88.4566 119.361 88.3137 119.408 88.1792C119.455 88.0448 119.53 87.9218 119.628 87.8185C119.726 87.7151 119.844 87.6338 119.976 87.5798C120.108 87.5259 120.25 87.5005 120.392 87.5055C120.689 87.5084 120.974 87.622 121.192 87.8242C121.409 88.0264 121.543 88.3025 121.568 88.5984Z" fill="#E8505B"/>
<path d="M123.576 95.7102C123.513 95.7103 123.452 95.6862 123.406 95.6429C123.359 95.5996 123.332 95.5403 123.328 95.4771C123.198 93.716 120.432 92.2812 117.164 92.2812C114.993 92.2812 113.046 92.9235 112.082 93.9646C111.885 94.1549 111.731 94.3849 111.629 94.6394C111.527 94.8938 111.48 95.167 111.492 95.4408C111.494 95.4748 111.49 95.509 111.479 95.5413C111.468 95.5737 111.451 95.6035 111.429 95.6293C111.384 95.6812 111.32 95.7131 111.251 95.7179C111.182 95.7227 111.115 95.7001 111.063 95.6549C111.011 95.6097 110.979 95.5458 110.974 95.4771C110.959 95.1345 111.016 94.7926 111.141 94.4733C111.266 94.154 111.456 93.8643 111.699 93.6228C112.735 92.4832 114.843 91.7788 117.148 91.7788C120.738 91.7788 123.664 93.3897 123.809 95.4408C123.812 95.4739 123.808 95.5072 123.798 95.5388C123.788 95.5704 123.771 95.5996 123.75 95.6247C123.728 95.6498 123.701 95.6703 123.672 95.685C123.642 95.6996 123.609 95.7082 123.576 95.7102Z" fill="#E8505B"/>
<path d="M110.415 86.3764C110.383 86.377 110.352 86.3714 110.323 86.3599C110.293 86.3483 110.267 86.331 110.244 86.309C110.221 86.2859 110.202 86.2585 110.19 86.2283C110.177 86.1981 110.171 86.1657 110.171 86.1329C110.171 86.1002 110.177 86.0678 110.19 86.0376C110.202 86.0074 110.221 85.9799 110.244 85.9568L111.347 84.7707C111.37 84.7469 111.397 84.7279 111.428 84.7149C111.458 84.702 111.49 84.6953 111.523 84.6953C111.556 84.6953 111.589 84.702 111.619 84.7149C111.649 84.7279 111.677 84.7469 111.7 84.7707C111.723 84.7938 111.741 84.8212 111.754 84.8514C111.766 84.8817 111.773 84.9141 111.773 84.9468C111.773 84.9795 111.766 85.0119 111.754 85.0421C111.741 85.0723 111.723 85.0998 111.7 85.1229L110.596 86.309C110.572 86.3321 110.544 86.3499 110.513 86.3615C110.481 86.3731 110.448 86.3781 110.415 86.3764Z" fill="#E8505B"/>
<path d="M123.058 86.3764C122.995 86.3756 122.934 86.3516 122.887 86.309L121.618 85.1281C121.594 85.1049 121.575 85.0771 121.562 85.0464C121.549 85.0157 121.542 84.9827 121.542 84.9494C121.542 84.916 121.549 84.883 121.562 84.8523C121.575 84.8216 121.594 84.7939 121.618 84.7707C121.641 84.7469 121.668 84.7279 121.699 84.7149C121.729 84.702 121.761 84.6953 121.794 84.6953C121.827 84.6953 121.86 84.702 121.89 84.7149C121.92 84.7279 121.948 84.7469 121.97 84.7707L123.239 85.9568C123.263 85.9799 123.281 86.0074 123.294 86.0376C123.306 86.0678 123.313 86.1002 123.313 86.1329C123.313 86.1656 123.306 86.1981 123.294 86.2283C123.281 86.2585 123.263 86.2859 123.239 86.309C123.19 86.3536 123.125 86.3776 123.058 86.3764Z" fill="#E8505B"/>
<path d="M104.765 108.877H105.935L107.624 111.12L107.463 108.877H108.644L108.934 112.933H107.738L106.06 110.705L106.22 112.933H105.039L104.765 108.877Z" fill="#E8505B"/>
<path d="M109.462 110.907C109.421 110.632 109.44 110.35 109.517 110.083C109.594 109.815 109.727 109.566 109.907 109.354C110.103 109.159 110.339 109.009 110.598 108.913C110.857 108.817 111.134 108.779 111.409 108.799C111.993 108.768 112.566 108.963 113.01 109.343C113.416 109.748 113.651 110.293 113.667 110.866C113.709 111.261 113.656 111.661 113.512 112.031C113.378 112.33 113.153 112.578 112.87 112.741C112.529 112.921 112.147 113.009 111.761 112.995C111.364 113.008 110.97 112.932 110.606 112.772C110.287 112.621 110.018 112.382 109.829 112.083C109.607 111.73 109.48 111.325 109.462 110.907ZM110.72 110.907C110.716 111.227 110.818 111.538 111.01 111.793C111.092 111.881 111.192 111.951 111.302 111.997C111.413 112.044 111.533 112.066 111.653 112.063C111.767 112.071 111.882 112.051 111.988 112.005C112.093 111.959 112.186 111.888 112.259 111.798C112.414 111.507 112.464 111.17 112.398 110.845C112.401 110.541 112.298 110.244 112.108 110.006C112.025 109.919 111.925 109.85 111.813 109.804C111.701 109.759 111.581 109.738 111.461 109.742C111.348 109.737 111.236 109.759 111.133 109.806C111.031 109.853 110.941 109.923 110.87 110.011C110.712 110.283 110.658 110.604 110.72 110.913V110.907Z" fill="#E8505B"/>
<path d="M116.102 108.877H117.967C118.274 108.867 118.58 108.918 118.868 109.027C119.096 109.122 119.298 109.269 119.458 109.457C119.622 109.647 119.746 109.867 119.826 110.104C119.91 110.359 119.962 110.624 119.982 110.892C120.021 111.23 119.995 111.573 119.904 111.902C119.833 112.129 119.706 112.335 119.536 112.502C119.394 112.653 119.216 112.763 119.018 112.824C118.777 112.892 118.528 112.928 118.278 112.932H116.418L116.102 108.877ZM117.423 109.809L117.583 112.026H117.889C118.078 112.039 118.267 112.011 118.443 111.943C118.557 111.873 118.641 111.764 118.682 111.637C118.741 111.407 118.755 111.168 118.723 110.933C118.732 110.616 118.635 110.304 118.448 110.047C118.352 109.961 118.238 109.896 118.115 109.855C117.993 109.814 117.863 109.798 117.734 109.809H117.423Z" fill="#E8505B"/>
<path d="M122.992 112.264H121.567L121.417 112.933H120.138L121.37 108.877H122.759L124.577 112.933H123.261L122.992 112.264ZM122.665 111.389L122.116 109.928L121.774 111.389H122.665Z" fill="#E8505B"/>
<path d="M123.987 108.877H127.799L127.872 109.877H126.592L126.81 112.933H125.556L125.339 109.877H124.059L123.987 108.877Z" fill="#E8505B"/>
<path d="M130.72 112.264H129.296L129.146 112.933H127.866L129.099 108.877H130.466L132.279 112.933H130.969L130.72 112.264ZM130.394 111.389L129.84 109.928L129.503 111.389H130.394Z" fill="#E8505B"/>
<path d="M183.201 61.1873C183.662 60.9542 184.237 60.6693 184.724 60.3741C185.21 60.0788 185.759 59.7888 186.277 59.4832C187.287 58.8564 188.313 58.24 189.282 57.5511C191.228 56.2234 193.052 54.724 194.731 53.0707C194.943 52.8739 195.129 52.6512 195.331 52.444L195.627 52.128L195.772 51.9674L195.844 51.8897C195.772 52.0296 195.844 51.9882 195.844 51.8535C195.89 51.6685 195.916 51.4793 195.922 51.2889C195.91 50.1875 195.784 49.0904 195.544 48.0153C195.083 45.6897 194.384 43.3018 193.695 40.9606L195.704 40.0801C196.974 42.3291 198.034 44.6908 198.869 47.1348C199.34 48.4533 199.639 49.8268 199.76 51.2216C199.792 51.6552 199.778 52.0909 199.719 52.5217C199.642 53.1291 199.425 53.7106 199.087 54.2206L198.999 54.3397L198.931 54.4278L198.854 54.5262L198.693 54.7179L198.372 55.1063C198.16 55.3653 197.952 55.6243 197.724 55.8729C195.953 57.8274 193.977 59.5865 191.83 61.1199C190.794 61.8917 189.696 62.6272 188.572 63.2902C188.02 63.6355 187.455 63.9619 186.878 64.2692C186.293 64.5903 185.744 64.8752 185.081 65.1808L183.201 61.1873Z" fill="#FFB573"/>
<path d="M178.59 182.962C178.978 182.952 179.364 182.9 179.74 182.806C179.759 182.801 179.776 182.79 179.79 182.775C179.804 182.761 179.813 182.743 179.818 182.724C179.82 182.704 179.817 182.684 179.809 182.665C179.801 182.647 179.788 182.631 179.771 182.62C179.621 182.522 178.305 181.672 177.798 181.9C177.741 181.926 177.693 181.967 177.658 182.018C177.622 182.069 177.601 182.128 177.596 182.19C177.576 182.288 177.581 182.389 177.611 182.484C177.641 182.579 177.695 182.665 177.767 182.734C178.006 182.904 178.297 182.985 178.59 182.962ZM179.445 182.656C178.694 182.806 178.124 182.781 177.891 182.584C177.844 182.536 177.81 182.477 177.792 182.413C177.774 182.349 177.772 182.281 177.787 182.216C177.787 182.128 177.839 182.102 177.875 182.086C178.15 181.967 178.911 182.325 179.445 182.656Z" fill="#407BFF"/>
<path d="M179.735 182.806C179.762 182.805 179.787 182.794 179.807 182.775C179.826 182.755 179.837 182.73 179.838 182.703C179.838 182.651 179.838 181.403 179.362 180.983C179.303 180.931 179.234 180.891 179.159 180.868C179.084 180.845 179.005 180.838 178.927 180.848C178.845 180.849 178.766 180.878 178.703 180.93C178.64 180.981 178.596 181.053 178.58 181.133C178.481 181.62 179.269 182.558 179.683 182.796L179.735 182.806ZM178.994 181.05C179.036 181.049 179.078 181.056 179.117 181.072C179.156 181.087 179.192 181.109 179.222 181.139C179.496 181.541 179.637 182.019 179.626 182.506C179.212 182.174 178.72 181.47 178.782 181.175C178.782 181.123 178.818 181.066 178.947 181.05H178.994Z" fill="#407BFF"/>
<path d="M179.33 48.228C178.812 50.8179 177.776 55.9975 179.563 57.7379C179.563 57.7379 178.859 60.3278 174.078 60.3278C168.816 60.3278 171.566 57.7379 171.566 57.7379C174.436 57.0542 174.358 54.9202 173.861 52.9208L179.33 48.228Z" fill="#FFB573"/>
<path d="M170.556 58.7739C169.733 58.8879 170.437 56.7487 170.769 56.526C171.546 56.008 181.573 55.288 181.506 56.526C181.465 57.0439 181.216 58.0799 180.781 58.4165C180.346 58.7532 177.766 57.6966 170.556 58.7739Z" fill="#263238"/>
<path d="M172.193 58.054C171.536 58.2768 171.598 56.122 171.82 55.863C172.338 55.2622 180.455 53.1748 180.693 54.3557C180.786 54.8737 180.833 55.9097 180.553 56.2774C180.274 56.6452 177.891 56.0184 172.193 58.054Z" fill="#263238"/>
<path d="M169.174 43.5922C169.142 43.5925 169.11 43.5857 169.08 43.5723C169.051 43.5589 169.024 43.5392 169.003 43.5145C168.845 43.3107 168.641 43.1469 168.408 43.0362C168.175 42.9256 167.92 42.8712 167.662 42.8774C167.635 42.881 167.607 42.8792 167.581 42.8719C167.555 42.8647 167.53 42.8522 167.509 42.8353C167.488 42.8184 167.47 42.7973 167.457 42.7734C167.444 42.7495 167.436 42.7232 167.434 42.6961C167.429 42.6422 167.446 42.5886 167.479 42.5462C167.513 42.5039 167.562 42.476 167.615 42.4682C167.941 42.4561 168.265 42.521 168.561 42.6578C168.858 42.7946 169.117 42.9994 169.319 43.2556C169.354 43.2976 169.371 43.3516 169.366 43.4059C169.361 43.4602 169.335 43.5104 169.293 43.5456C169.258 43.5709 169.217 43.5869 169.174 43.5922Z" fill="#263238"/>
<path d="M168.169 46.125C167.934 46.9513 167.585 47.741 167.133 48.4714C167.323 48.5806 167.534 48.6469 167.753 48.6657C167.971 48.6845 168.191 48.6553 168.397 48.5802L168.169 46.125Z" fill="#FF5652"/>
<path d="M168.422 45.4931C168.459 45.8453 168.298 46.1457 168.07 46.1664C167.842 46.1872 167.63 45.923 167.599 45.576C167.568 45.2289 167.723 44.9285 167.946 44.9026C168.168 44.8767 168.386 45.146 168.422 45.4931Z" fill="#263238"/>
<path d="M168.05 44.9132L167.19 44.7578C167.19 44.7578 167.683 45.369 168.05 44.9132Z" fill="#263238"/>
<path d="M184.759 182.703H180.418L180.76 172.654H185.101L184.759 182.703Z" fill="#FFB573"/>
<path d="M180.076 182.2H184.95C185.035 182.199 185.117 182.23 185.18 182.285C185.244 182.34 185.286 182.417 185.297 182.501L185.851 186.354C185.862 186.452 185.851 186.55 185.821 186.643C185.791 186.736 185.741 186.822 185.676 186.894C185.61 186.967 185.53 187.025 185.441 187.065C185.352 187.105 185.255 187.126 185.157 187.126C183.458 187.095 182.64 186.997 180.496 186.997C179.175 186.997 177.248 187.136 175.43 187.136C173.612 187.136 173.508 185.334 174.27 185.168C177.668 184.438 178.206 183.433 179.351 182.47C179.553 182.297 179.81 182.201 180.076 182.2Z" fill="#263238"/>
<g opacity="0.2">
<path opacity="0.2" d="M185.101 172.659H180.76L180.584 177.839H184.925L185.101 172.659Z" fill="black"/>
</g>
<path d="M167.495 63.7564C164.811 62.7205 162.253 61.5654 159.699 60.2601C157.078 58.9776 154.581 57.4551 152.24 55.7124C151.613 55.2255 151.021 54.694 150.469 54.1222C150.324 53.9668 150.179 53.827 150.039 53.6457C149.875 53.4604 149.723 53.2649 149.583 53.0604C149.202 52.5035 148.964 51.8613 148.889 51.1905C148.832 50.5544 148.919 49.9135 149.143 49.3155C149.324 48.8337 149.569 48.3788 149.873 47.9636C150.376 47.2817 150.967 46.6687 151.629 46.1403C152.802 45.2055 154.069 44.3965 155.41 43.7266C156.053 43.3847 156.705 43.0791 157.368 42.7943C158.031 42.5094 158.684 42.24 159.394 41.9966L160.31 43.9908C158.052 45.4152 155.711 46.9794 153.991 48.7353C153.606 49.1253 153.267 49.558 152.981 50.0251C152.732 50.4343 152.738 50.7399 152.779 50.714C152.82 50.6881 152.779 50.714 152.852 50.7658L153.059 50.9885C153.149 51.0869 153.244 51.1802 153.344 51.2682C153.781 51.6753 154.247 52.0509 154.737 52.3922C155.807 53.1474 156.921 53.8392 158.073 54.4641C159.238 55.1115 160.44 55.7331 161.662 56.3236C164.107 57.489 166.635 58.6182 169.116 59.6437L167.495 63.7564Z" fill="#FFB573"/>
<path d="M161.606 42.5772L162.321 41.0233L159.047 39.8838C159.047 39.8838 158.011 42.9398 159.239 44.3538C159.749 44.2756 160.232 44.0725 160.645 43.7626C161.058 43.4526 161.388 43.0454 161.606 42.5772Z" fill="#FFB573"/>
<path d="M162.305 37.6563L159.7 36.9053L159.047 39.8888L162.305 41.0231V37.6563Z" fill="#FFB573"/>
<path d="M195.973 41.1731L196.351 37.5474L192.995 38.3295C192.995 38.3295 192.943 41.7377 194.72 42.2816L195.973 41.1731Z" fill="#FFB573"/>
<path d="M194.735 34.9888L192.544 36.0143L192.995 38.3245L196.351 37.5372L194.735 34.9888Z" fill="#FFB573"/>
<path d="M180.015 43.1467C180.175 47.451 180.331 49.2691 178.388 51.6777C175.462 55.3034 170.142 54.5524 168.702 50.3827C167.407 46.6275 167.366 40.2254 171.385 38.1069C172.269 37.6369 173.259 37.4006 174.26 37.4206C175.261 37.4406 176.24 37.7162 177.105 38.2211C177.97 38.7261 178.691 39.4437 179.2 40.3057C179.709 41.1678 179.99 42.1458 180.015 43.1467Z" fill="#FFB573"/>
<path d="M178.139 51.6671C182.366 49.8438 185.142 45.9694 183.972 39.9766C182.843 34.2168 178.963 33.6677 177.357 34.8435C175.752 36.0193 171.748 34.2582 169.344 36.2575C165.201 39.759 169.116 43.5091 171.168 45.7726C172.39 48.3107 173.996 53.4593 178.139 51.6671Z" fill="#263238"/>
<path d="M176.384 38.9408C176.899 39.603 177.597 40.0997 178.391 40.3697C179.186 40.6397 180.042 40.6711 180.854 40.46C181.666 40.2489 182.398 39.8046 182.96 39.182C183.523 38.5593 183.89 37.7856 184.017 36.9563C184.145 36.1271 184.027 35.2787 183.677 34.516C183.328 33.7532 182.763 33.1096 182.051 32.6644C181.34 32.2193 180.514 31.9923 179.676 32.0114C178.837 32.0304 178.022 32.2948 177.332 32.7718C176.39 33.4658 175.762 34.5045 175.585 35.6606C175.407 36.8167 175.694 37.9961 176.384 38.9408Z" fill="#3C8EED"/>
<path d="M177.482 35.2478C176.876 31.7775 180.155 29.1047 184.548 30.3945C188.94 31.6842 186.619 35.5742 185.713 38.682C184.807 41.7898 187.179 44.7525 188.163 42.3854C189.147 40.0183 187.49 39.2776 187.49 39.2776C187.49 39.2776 192.151 40.4845 187.821 45.7367C183.491 50.9889 179.57 45.2187 180.632 41.769C181.492 39.0135 178.057 38.5266 177.482 35.2478Z" fill="#263238"/>
<path d="M173.095 36.558C171.09 35.522 167.698 34.6674 165.765 37.915C164.854 39.4689 165.206 41.5408 165.206 41.5408L171.106 41.9345L173.095 36.558Z" fill="#263238"/>
<path d="M164.512 40.5155C164.495 40.5156 164.478 40.5121 164.462 40.5052C164.446 40.4983 164.432 40.4882 164.42 40.4755C164.408 40.4629 164.4 40.4479 164.394 40.4316C164.388 40.4153 164.386 40.398 164.388 40.3808C164.388 40.2928 164.538 38.2106 165.797 36.9001C168.837 33.7405 172.401 36.3821 173.416 37.242C173.438 37.2651 173.45 37.2954 173.451 37.3272C173.452 37.359 173.441 37.39 173.421 37.4143C173.4 37.4387 173.372 37.4546 173.34 37.4591C173.309 37.4636 173.277 37.4564 173.25 37.4388C172.271 36.5945 168.863 34.0875 165.999 37.0814C164.807 38.3193 164.662 40.3757 164.662 40.3964C164.661 40.4144 164.656 40.432 164.648 40.4479C164.639 40.4639 164.628 40.478 164.613 40.4892C164.599 40.5004 164.583 40.5086 164.565 40.5131C164.548 40.5176 164.53 40.5184 164.512 40.5155Z" fill="#263238"/>
<path d="M171.888 45.6228C171.863 46.4375 171.562 47.2196 171.033 47.8397C170.318 48.6736 169.479 48.2644 169.308 47.3217C169.137 46.4826 169.308 45.0426 170.209 44.535C171.111 44.0274 171.898 44.6645 171.888 45.6228Z" fill="#FFB573"/>
<path d="M170.955 85.0347C170.955 85.0347 171.234 115.149 173.845 131.931C175.958 145.487 179.858 176.834 179.858 176.834H185.779C185.779 176.834 186.354 146.574 185.261 133.164C182.552 99.2425 189.55 92.8974 183.904 85.0347H170.955Z" fill="#263238"/>
<path opacity="0.1" d="M170.955 85.0347C170.955 85.0347 171.234 115.149 173.845 131.931C175.958 145.487 179.858 176.834 179.858 176.834H185.779C185.779 176.834 186.354 146.574 185.261 133.164C182.552 99.2425 189.55 92.8974 183.904 85.0347H170.955Z" fill="white"/>
<path opacity="0.3" d="M174.069 98.6988C176.141 107.789 174.489 122.106 173.354 128.409C172.153 118.837 171.547 106.432 171.246 97.3314C172.318 95.6014 173.334 95.4874 174.069 98.6988Z" fill="black"/>
<path d="M179.052 176.953H186.588L186.982 174.306L179.01 174.037L179.052 176.953Z" fill="#407BFF"/>
<path d="M181.2 59.613C181.91 58.2041 185.722 57.3184 187.804 57.3184L189.358 64.2436C189.358 64.2436 185.214 70.4022 183.484 69.7496C181.449 68.9778 179.683 62.6327 181.2 59.613Z" fill="#407BFF"/>
<path opacity="0.4" d="M181.2 59.613C181.91 58.2041 185.722 57.3184 187.804 57.3184L189.358 64.2436C189.358 64.2436 185.214 70.4022 183.484 69.7496C181.449 68.9778 179.683 62.6327 181.2 59.613Z" fill="#35AAD3"/>
<path d="M176.809 175.26C176.818 175.244 176.823 175.226 176.823 175.208C176.823 175.19 176.818 175.172 176.809 175.156C176.798 175.138 176.782 175.123 176.763 175.114C176.743 175.104 176.722 175.101 176.7 175.104C176.483 175.135 174.566 175.441 174.307 175.99C174.28 176.039 174.265 176.094 174.265 176.15C174.265 176.207 174.28 176.262 174.307 176.311C174.351 176.394 174.414 176.464 174.492 176.516C174.57 176.567 174.66 176.599 174.753 176.606C175.38 176.674 176.307 175.803 176.773 175.275L176.809 175.26ZM174.509 176.057C174.685 175.767 175.68 175.498 176.436 175.358C175.753 176.052 175.152 176.44 174.799 176.394C174.739 176.387 174.681 176.365 174.63 176.331C174.58 176.297 174.538 176.251 174.509 176.197C174.498 176.177 174.492 176.155 174.492 176.132C174.492 176.11 174.498 176.087 174.509 176.068C174.509 176.068 174.504 176.062 174.509 176.057Z" fill="#407BFF"/>
<path d="M176.809 175.26C176.817 175.245 176.822 175.228 176.822 175.211C176.822 175.193 176.817 175.176 176.809 175.161C176.777 175.12 176.011 174.239 175.301 174.193C175.199 174.183 175.096 174.195 174.998 174.228C174.901 174.261 174.812 174.314 174.737 174.384C174.661 174.431 174.605 174.503 174.579 174.588C174.553 174.673 174.56 174.765 174.597 174.845C174.82 175.291 176.197 175.441 176.752 175.327C176.766 175.322 176.779 175.312 176.788 175.301C176.798 175.289 176.805 175.275 176.809 175.26ZM174.783 174.607C174.806 174.572 174.834 174.541 174.866 174.514C174.92 174.463 174.985 174.423 175.055 174.399C175.126 174.375 175.201 174.367 175.275 174.374C175.756 174.493 176.188 174.757 176.513 175.13C175.897 175.182 174.902 174.996 174.768 174.732C174.759 174.711 174.756 174.689 174.759 174.667C174.761 174.645 174.77 174.625 174.783 174.607Z" fill="#407BFF"/>
<path d="M181.331 173.421L177.363 175.182L175.597 171.505L173.287 166.687L173.012 166.128L176.98 164.362L177.285 164.989L179.523 169.655L181.331 173.421Z" fill="#FFB573"/>
<path opacity="0.2" d="M179.522 169.655L175.596 171.504L173.286 166.687L177.284 164.988L179.522 169.655Z" fill="black"/>
<path d="M166.305 85.0347C166.305 85.0347 153.63 116.543 157.064 131.382C160.172 144.793 173.898 170.189 173.898 170.189L179.218 167.526C179.218 167.526 170.728 136.868 169.811 130.207C168.019 117.257 179.534 98.9576 179.534 85.0347H166.305Z" fill="#263238"/>
<path opacity="0.1" d="M166.305 85.0347C166.305 85.0347 153.63 116.543 157.064 131.382C160.172 144.793 173.898 170.189 173.898 170.189L179.218 167.526C179.218 167.526 170.728 136.868 169.811 130.207C168.019 117.257 179.534 98.9576 179.534 85.0347H166.305Z" fill="white"/>
<path d="M176.658 174.633L180.595 171.763C180.662 171.713 180.746 171.689 180.829 171.696C180.913 171.703 180.992 171.739 181.05 171.8L183.77 174.592C183.836 174.664 183.886 174.75 183.916 174.844C183.947 174.937 183.957 175.036 183.947 175.134C183.937 175.232 183.906 175.326 183.857 175.411C183.807 175.496 183.741 175.57 183.661 175.628C182.268 176.601 181.548 177.005 179.818 178.264C178.751 179.041 176.627 180.755 175.156 181.828C173.685 182.9 172.566 181.501 173.084 180.921C175.405 178.331 175.892 176.726 176.254 175.275C176.31 175.021 176.453 174.794 176.658 174.633Z" fill="#263238"/>
<path d="M173.556 171.313L180.409 168.179L179.533 165.387L172.194 168.733L173.556 171.313Z" fill="#407BFF"/>
<path d="M169.665 59.2605C169.101 57.7895 164.149 56.1527 161.663 55.6348L160.57 63.7772C160.57 63.7772 164.631 69.6095 166.407 69.1226C168.51 68.5581 170.888 62.4098 169.665 59.2605Z" fill="#407BFF"/>
<path opacity="0.4" d="M169.665 59.2605C169.101 57.7895 164.149 56.1527 161.663 55.6348L160.57 63.7772C160.57 63.7772 164.631 69.6095 166.407 69.1226C168.51 68.5581 170.888 62.4098 169.665 59.2605Z" fill="#35AAD3"/>
<path d="M164.232 58.8461C164.232 58.8461 162.16 59.5764 166.304 85.0346H183.915C183.619 77.8607 183.609 73.4424 187.022 58.7218C184.555 58.2126 182.053 57.8837 179.538 57.7377C176.875 57.5458 174.203 57.5458 171.54 57.7377C168.127 58.0484 164.232 58.8461 164.232 58.8461Z" fill="#407BFF"/>
<path opacity="0.4" d="M164.232 58.8461C164.232 58.8461 162.16 59.5764 166.304 85.0346H183.915C183.619 77.8607 183.609 73.4424 187.022 58.7218C184.555 58.2126 182.053 57.8837 179.538 57.7377C176.875 57.5458 174.203 57.5458 171.54 57.7377C168.127 58.0484 164.232 58.8461 164.232 58.8461Z" fill="#35AAD3"/>
<path d="M184.189 83.9991L184.982 85.5789C185.044 85.698 184.899 85.8223 184.697 85.8223H166.216C166.055 85.8223 165.926 85.7446 165.915 85.6462L165.755 84.0923C165.755 83.9835 165.884 83.8903 166.055 83.8903H183.879C183.935 83.8792 183.994 83.8835 184.049 83.9026C184.103 83.9217 184.152 83.955 184.189 83.9991Z" fill="#407BFF"/>
<path opacity="0.3" d="M184.189 83.9991L184.982 85.5789C185.044 85.698 184.899 85.8223 184.697 85.8223H166.216C166.055 85.8223 165.926 85.7446 165.915 85.6462L165.755 84.0923C165.755 83.9835 165.884 83.8903 166.055 83.8903H183.879C183.935 83.8792 183.994 83.8835 184.049 83.9026C184.103 83.9217 184.152 83.955 184.189 83.9991Z" fill="white"/>
<path d="M181.807 85.9828H182.284C182.382 85.9828 182.455 85.9361 182.444 85.874L182.222 83.828C182.222 83.7659 182.134 83.7192 182.04 83.7192H181.559C181.466 83.7192 181.393 83.7659 181.398 83.828L181.621 85.874C181.616 85.9465 181.699 85.9828 181.807 85.9828Z" fill="#263238"/>
<path d="M170.209 85.9828H170.685C170.779 85.9828 170.851 85.9361 170.846 85.874L170.623 83.828C170.623 83.7659 170.535 83.7192 170.437 83.7192H169.96C169.862 83.7192 169.794 83.7659 169.8 83.828L170.022 85.874C170.027 85.9465 170.11 85.9828 170.209 85.9828Z" fill="#263238"/>
</g>
<defs>
<clipPath id="clip0">
<rect width="258.984" height="193" fill="white"/>
</clipPath>
</defs>
</svg>
