<svg width="16" height="16" viewBox="0 0 16 16" fill="none" xmlns="http://www.w3.org/2000/svg">
<path d="M14.074 12.6677C14.0779 12.6628 14.0818 12.6578 14.0853 12.6526C14.0862 12.6512 14.087 12.6497 14.0879 12.6482C14.0915 12.6427 14.095 12.637 14.0981 12.6311C14.0987 12.6301 14.0991 12.6289 14.0997 12.6279C14.1029 12.6215 14.1061 12.6151 14.1088 12.6085C14.1091 12.6078 14.1093 12.607 14.1096 12.6063C14.1124 12.5993 14.1151 12.5923 14.1172 12.5851C14.1175 12.5842 14.1176 12.5833 14.1179 12.5824C14.12 12.5754 14.1219 12.5682 14.1233 12.5609C14.1237 12.5588 14.1239 12.5568 14.1243 12.5547C14.1253 12.5485 14.1264 12.5424 14.127 12.5361C14.1279 12.5277 14.1283 12.5192 14.1283 12.5106V0.255319C14.1283 0.114281 14.014 0 13.873 0H2.12833C1.98736 0 1.87305 0.114281 1.87305 0.255319V15.7447C1.87305 15.8857 1.98736 16 2.12837 16H10.639C10.6475 16 10.6561 15.9996 10.6645 15.9987C10.6708 15.9981 10.677 15.997 10.6832 15.9959C10.6852 15.9956 10.6872 15.9954 10.6893 15.995C10.6965 15.9936 10.7037 15.9917 10.7107 15.9897C10.7116 15.9894 10.7125 15.9892 10.7134 15.9889C10.7205 15.9868 10.7274 15.9842 10.7342 15.9815C10.7351 15.9811 10.736 15.9809 10.7369 15.9805C10.7433 15.9778 10.7495 15.9748 10.7557 15.9716C10.757 15.971 10.7583 15.9705 10.7595 15.9698C10.7651 15.9668 10.7705 15.9634 10.7759 15.96C10.7776 15.9589 10.7793 15.958 10.781 15.9569C10.786 15.9535 10.7907 15.9499 10.7954 15.9462C10.7973 15.9447 10.7992 15.9435 10.8011 15.942C10.8068 15.9372 10.8123 15.9322 10.8176 15.927C10.8182 15.9264 10.819 15.9259 10.8196 15.9252L14.0536 12.6912C14.0541 12.6907 14.0545 12.6901 14.055 12.6896C14.0604 12.6842 14.0655 12.6786 14.0704 12.6727C14.0717 12.6711 14.0728 12.6693 14.074 12.6677ZM2.38369 0.510638H13.6177V12.2553H10.639C10.498 12.2553 10.3837 12.3696 10.3837 12.5106V15.4894H2.38369V0.510638ZM13.2567 12.766L10.8943 15.1283V12.766H13.2567Z" fill="#333333"/>
<path d="M6.93696 4.23378H11.8318C11.9728 4.23378 12.0872 4.1195 12.0872 3.97846C12.0872 3.83743 11.9728 3.72314 11.8318 3.72314H6.93696C6.79596 3.72314 6.68164 3.83743 6.68164 3.97846C6.68164 4.1195 6.79596 4.23378 6.93696 4.23378Z" fill="#333333"/>
<path d="M4.67331 4.84003C4.72315 4.88987 4.78851 4.91479 4.85384 4.91479C4.91917 4.91479 4.98453 4.88987 5.03437 4.84003L6.39607 3.47833C6.49578 3.37858 6.49578 3.21695 6.39607 3.11724C6.29636 3.01756 6.13469 3.01756 6.03501 3.11724L4.85384 4.29841L4.52373 3.9683C4.42402 3.86862 4.26235 3.86862 4.16267 3.9683C4.06296 4.06805 4.06296 4.22968 4.16267 4.32939L4.67331 4.84003Z" fill="#333333"/>
<path d="M6.29883 7.85102C6.29883 7.99206 6.41314 8.10634 6.55415 8.10634H11.8307C11.9717 8.10634 12.0861 7.99206 12.0861 7.85102C12.0861 7.70998 11.9717 7.5957 11.8307 7.5957H6.55415C6.41314 7.5957 6.29883 7.70998 6.29883 7.85102Z" fill="#333333"/>
<path d="M5.53304 6.91455H4.17133C4.03033 6.91455 3.91602 7.02883 3.91602 7.16987V8.53157C3.91602 8.67261 4.03033 8.78689 4.17133 8.78689H5.53304C5.67404 8.78689 5.78836 8.67261 5.78836 8.53157V7.16987C5.78836 7.02883 5.67404 6.91455 5.53304 6.91455ZM5.27772 8.27625H4.42665V7.42519H5.27772V8.27625Z" fill="#333333"/>
<path d="M9.61798 11.4678H6.55415C6.41314 11.4678 6.29883 11.5821 6.29883 11.7231C6.29883 11.8641 6.41314 11.9784 6.55415 11.9784H9.61798C9.75898 11.9784 9.87329 11.8641 9.87329 11.7231C9.87329 11.5821 9.75898 11.4678 9.61798 11.4678Z" fill="#333333"/>
<path d="M5.53304 10.7871H4.17133C4.03033 10.7871 3.91602 10.9014 3.91602 11.0424V12.4041C3.91602 12.5452 4.03033 12.6594 4.17133 12.6594H5.53304C5.67404 12.6594 5.78836 12.5452 5.78836 12.4041V11.0424C5.78836 10.9014 5.67404 10.7871 5.53304 10.7871ZM5.27772 12.1488H4.42665V11.2977H5.27772V12.1488Z" fill="#333333"/>
</svg>
