<svg width="16" height="16" viewBox="0 0 16 16" fill="none" xmlns="http://www.w3.org/2000/svg">
<g clip-path="url(#clip0)">
<path d="M15.9895 2.38619C15.9762 2.34049 15.9509 2.2992 15.9163 2.26664C15.8816 2.23408 15.8387 2.21146 15.7923 2.20115L14.1656 1.83364L13.7981 0.206938C13.7877 0.160613 13.765 0.117941 13.7324 0.0833762C13.6998 0.0488111 13.6586 0.0236204 13.613 0.0104335C13.5674 -0.00275342 13.519 -0.00345294 13.4731 0.00840797C13.4271 0.0202689 13.3851 0.0442553 13.3516 0.0778634L11.4807 1.94906C9.89749 0.993732 8.01939 0.650919 6.20079 0.985321C4.38219 1.31972 2.74889 2.30821 1.6091 3.76424C0.469321 5.22026 -0.0981042 7.04312 0.013911 8.88881C0.125926 10.7345 0.909634 12.4754 2.21714 13.7829C3.52464 15.0904 5.2655 15.8741 7.11119 15.9861C8.95688 16.0981 10.7797 15.5307 12.2358 14.3909C13.6918 13.2511 14.6803 11.6178 15.0147 9.79921C15.3491 7.98061 15.0063 6.10251 14.0509 4.51933L15.9226 2.64768C15.9561 2.61404 15.98 2.57205 15.9917 2.52606C16.0035 2.48007 16.0027 2.43177 15.9895 2.38619ZM14.6083 8.43115C14.6081 9.98075 14.0965 11.487 13.1529 12.7162C12.2094 13.9453 10.8865 14.8288 9.38959 15.2294C7.89268 15.6301 6.30539 15.5256 4.87395 14.932C3.44251 14.3385 2.24694 13.2892 1.4727 11.9469C0.698457 10.6046 0.388828 9.04431 0.59184 7.50806C0.794852 5.97182 1.49916 4.54551 2.5955 3.45038C3.69185 2.35526 5.11894 1.65254 6.65541 1.45124C8.19188 1.24994 9.75184 1.56131 11.0933 2.33705L10.2341 3.19628C10.2267 3.20468 10.2198 3.21355 10.2136 3.22282C8.97292 2.59119 7.54765 2.42279 6.19395 2.7479C4.84025 3.07301 3.64689 3.8703 2.82838 4.99646C2.00988 6.12263 1.61989 7.50381 1.72853 8.89176C1.83717 10.2797 2.4373 11.5834 3.42106 12.5685C4.40482 13.5536 5.70769 14.1555 7.09549 14.266C8.48329 14.3766 9.865 13.9884 10.9923 13.1715C12.1196 12.3545 12.9185 11.1622 13.2454 9.80897C13.5724 8.45571 13.4059 7.03021 12.776 5.78869C12.7857 5.7818 12.795 5.77425 12.8037 5.76609L13.663 4.90686C14.2834 5.97766 14.6096 7.19356 14.6083 8.43115ZM12.1461 5.7444C12.7979 6.85718 13.0219 8.16936 12.7761 9.43537C12.5304 10.7014 11.8317 11.8344 10.8108 12.6225C9.78999 13.4106 8.51694 13.7996 7.22996 13.7168C5.94297 13.634 4.73026 13.0851 3.81878 12.1728C2.90731 11.2604 2.35954 10.0472 2.27799 8.7601C2.19645 7.47303 2.58672 6.20036 3.37576 5.18027C4.1648 4.16017 5.29854 3.46257 6.56478 3.21803C7.83103 2.97348 9.14299 3.19874 10.2551 3.85166L10.5347 5.08993L10.2665 5.35809C9.46683 4.65586 8.4254 4.29214 7.36241 4.34384C6.29942 4.39554 5.2982 4.8586 4.57043 5.63512C3.84267 6.41164 3.44541 7.44074 3.46265 8.50485C3.47989 9.56896 3.91027 10.5847 4.66281 11.3372C5.41535 12.0897 6.43104 12.5201 7.49515 12.5374C8.55926 12.5546 9.58836 12.1573 10.3649 11.4296C11.1414 10.7018 11.6045 9.70058 11.6562 8.63759C11.7079 7.5746 11.3441 6.53317 10.6419 5.73348L10.9101 5.46532L12.1461 5.7444ZM8.71019 8.43115C8.71113 8.68489 8.6278 8.93176 8.47329 9.13302C8.31877 9.33428 8.1018 9.47855 7.85644 9.54319C7.61107 9.60783 7.35119 9.58917 7.11757 9.49016C6.88395 9.39114 6.68981 9.21737 6.56562 8.9961C6.44142 8.77484 6.39421 8.5186 6.43137 8.2676C6.46853 8.0166 6.58798 7.78504 6.77096 7.60925C6.95394 7.43347 7.1901 7.3234 7.44239 7.29633C7.69468 7.26926 7.94882 7.32672 8.16493 7.45968L7.38107 8.24353C7.35573 8.26802 7.33551 8.29732 7.32161 8.3297C7.3077 8.36209 7.30039 8.39692 7.30009 8.43216C7.29979 8.46741 7.30651 8.50236 7.31987 8.53498C7.33322 8.56759 7.35293 8.59722 7.37786 8.62214C7.40279 8.64706 7.43243 8.66676 7.46505 8.6801C7.49767 8.69344 7.53263 8.70015 7.56787 8.69983C7.60311 8.69952 7.63794 8.69219 7.67032 8.67828C7.7027 8.66436 7.73199 8.64413 7.75647 8.61877L8.54032 7.83492C8.6513 8.014 8.71013 8.22048 8.71019 8.43115ZM8.54699 7.07762C8.20502 6.82991 7.78226 6.72015 7.36298 6.77022C6.94369 6.82028 6.55866 7.02649 6.28462 7.34776C6.01059 7.66902 5.86766 8.08174 5.88432 8.50368C5.90099 8.92561 6.07603 9.32577 6.37455 9.62442C6.67308 9.92306 7.07317 10.0983 7.4951 10.1151C7.91703 10.1319 8.32981 9.98918 8.65118 9.71527C8.97255 9.44136 9.17892 9.05642 9.22915 8.63715C9.27939 8.21789 9.1698 7.79509 8.92223 7.45301L10.2658 6.10948C10.8677 6.80885 11.1752 7.71435 11.1235 8.63567C11.0718 9.557 10.6649 10.4224 9.98845 11.05C9.31198 11.6776 8.41856 12.0186 7.49595 12.0012C6.57334 11.9838 5.69339 11.6095 5.04102 10.9569C4.38865 10.3042 4.01467 9.42413 3.99768 8.50152C3.98068 7.5789 4.32199 6.68562 4.94988 6.0094C5.57776 5.33318 6.44333 4.92669 7.36468 4.87535C8.28602 4.82401 9.19139 5.13182 9.89052 5.73409L8.54699 7.07762ZM13.5286 4.29046L12.5324 5.2865L12.383 5.25283L12.3772 5.25146L11.0478 4.95221L10.7127 3.46838L13.3871 0.793613L13.6854 2.11409C13.6965 2.16304 13.7212 2.20786 13.7567 2.24334C13.7921 2.27883 13.837 2.30354 13.8859 2.3146L15.2064 2.61294L13.5286 4.29046Z" fill="#333333"/>
</g>
<defs>
<clipPath id="clip0">
<rect width="16" height="16" fill="white"/>
</clipPath>
</defs>
</svg>
