<svg width="42" height="42" viewBox="0 0 42 42" fill="none" xmlns="http://www.w3.org/2000/svg">
<path d="M37.5503 12.4277C38.0971 13.207 38.2202 14.0889 37.9194 15.0732L32.2797 33.6533C32.02 34.5283 31.497 35.2632 30.7109 35.8579C29.9248 36.4526 29.0874 36.75 28.1987 36.75H9.26998C8.21724 36.75 7.20211 36.3843 6.22457 35.6528C5.24703 34.9214 4.56685 34.0225 4.18404 32.9561C3.85591 32.04 3.84224 31.1719 4.14302 30.3516C4.14302 30.2969 4.16353 30.1123 4.20455 29.7979C4.24556 29.4834 4.27291 29.2305 4.28658 29.0391C4.30025 28.9297 4.27974 28.7827 4.22506 28.5981C4.17037 28.4136 4.14986 28.2803 4.16353 28.1982C4.19088 28.0479 4.24556 27.9043 4.32759 27.7676C4.40963 27.6309 4.52242 27.4702 4.66597 27.2856C4.80953 27.1011 4.92232 26.9404 5.00435 26.8037C5.31881 26.2842 5.62642 25.6587 5.9272 24.9272C6.22798 24.1958 6.43306 23.5703 6.54244 23.0508C6.58345 22.9141 6.58687 22.709 6.55269 22.4355C6.51851 22.1621 6.51509 21.9707 6.54244 21.8613C6.58345 21.7109 6.69966 21.5195 6.89107 21.2871C7.08248 21.0547 7.19869 20.8975 7.2397 20.8154C7.52681 20.3232 7.81392 19.6943 8.10103 18.9287C8.38814 18.1631 8.55904 17.5479 8.61373 17.083C8.6274 16.96 8.61031 16.7412 8.56246 16.4268C8.51461 16.1123 8.51802 15.9209 8.57271 15.8525C8.6274 15.6748 8.77779 15.4663 9.02388 15.2271C9.26998 14.9878 9.42037 14.834 9.47505 14.7656C9.73482 14.4102 10.0253 13.8325 10.3466 13.0327C10.6679 12.2329 10.8559 11.5732 10.9106 11.0537C10.9243 10.9443 10.9038 10.77 10.8491 10.5308C10.7944 10.2915 10.7807 10.1104 10.8081 9.9873C10.8354 9.87793 10.8969 9.75488 10.9926 9.61816C11.0883 9.48145 11.2114 9.32422 11.3618 9.14648C11.5122 8.96875 11.6284 8.8252 11.7104 8.71582C11.8198 8.55176 11.9326 8.34326 12.0488 8.09033C12.165 7.8374 12.2675 7.59814 12.3564 7.37256C12.4453 7.14697 12.5546 6.90088 12.6845 6.63428C12.8144 6.36768 12.9477 6.14893 13.0844 5.97803C13.2211 5.80713 13.4023 5.64648 13.6279 5.49609C13.8535 5.3457 14.0996 5.26709 14.3662 5.26025C14.6328 5.25342 14.9575 5.29102 15.3403 5.37305L15.3198 5.43457C15.8393 5.31152 16.1879 5.25 16.3657 5.25H31.9721C32.9838 5.25 33.7631 5.63281 34.31 6.39844C34.8569 7.16406 34.9799 8.05273 34.6792 9.06445L29.06 27.6445C28.5678 29.2715 28.0791 30.3208 27.5937 30.7925C27.1084 31.2642 26.2299 31.5 24.9585 31.5H7.13716C6.76802 31.5 6.50826 31.6025 6.35787 31.8076C6.20748 32.0264 6.20064 32.3203 6.33736 32.6895C6.66548 33.6465 7.64986 34.125 9.29048 34.125H28.2192C28.6157 34.125 28.9985 34.019 29.3676 33.8071C29.7368 33.5952 29.976 33.3115 30.0854 32.9561L36.2378 12.7148C36.3335 12.4141 36.3676 12.0244 36.3403 11.5459C36.8598 11.751 37.2631 12.0449 37.5503 12.4277ZM15.7299 12.4688C15.6753 12.6465 15.6889 12.8003 15.771 12.9302C15.853 13.0601 15.9897 13.125 16.1811 13.125H28.6499C28.8276 13.125 29.0019 13.0601 29.1728 12.9302C29.3437 12.8003 29.4565 12.6465 29.5112 12.4688L29.9419 11.1562C29.9965 10.9785 29.9829 10.8247 29.9008 10.6948C29.8188 10.5649 29.6821 10.5 29.4907 10.5H17.0219C16.8442 10.5 16.6699 10.5649 16.499 10.6948C16.3281 10.8247 16.2153 10.9785 16.1606 11.1562L15.7299 12.4688ZM14.0278 17.7188C13.9731 17.8965 13.9868 18.0503 14.0688 18.1802C14.1508 18.3101 14.2876 18.375 14.479 18.375H26.9477C27.1254 18.375 27.2998 18.3101 27.4707 18.1802C27.6416 18.0503 27.7544 17.8965 27.809 17.7188L28.2397 16.4062C28.2944 16.2285 28.2807 16.0747 28.1987 15.9448C28.1167 15.8149 27.9799 15.75 27.7885 15.75H15.3198C15.142 15.75 14.9677 15.8149 14.7968 15.9448C14.6259 16.0747 14.5131 16.2285 14.4585 16.4062L14.0278 17.7188Z" fill="#333333"/>
</svg>
