<svg width="16" height="16" viewBox="0 0 16 16" fill="none" xmlns="http://www.w3.org/2000/svg">
<path d="M14.6667 2.13333H14.4V0.8C14.4 0.358933 14.0411 0 13.6 0H13.0667C12.6256 0 12.2667 0.358933 12.2667 0.8V2.13333H3.73333V0.8C3.73333 0.358933 3.3744 0 2.93333 0H2.4C1.95893 0 1.6 0.358933 1.6 0.8V2.13333H1.33333C0.598133 2.13333 0 2.73147 0 3.46667V14.6667C0 15.4019 0.598133 16 1.33333 16H14.6667C15.4019 16 16 15.4019 16 14.6667V3.46667C16 2.73147 15.4019 2.13333 14.6667 2.13333ZM12.8 2.4V0.8C12.8 0.6528 12.9195 0.533333 13.0667 0.533333H13.6C13.7472 0.533333 13.8667 0.6528 13.8667 0.8V2.4V3.46667C13.8667 3.61387 13.7472 3.73333 13.6 3.73333H13.0667C12.9195 3.73333 12.8 3.61387 12.8 3.46667V2.4ZM2.13333 2.4V0.8C2.13333 0.6528 2.2528 0.533333 2.4 0.533333H2.93333C3.08053 0.533333 3.2 0.6528 3.2 0.8V2.4V3.46667C3.2 3.61387 3.08053 3.73333 2.93333 3.73333H2.4C2.2528 3.73333 2.13333 3.61387 2.13333 3.46667V2.4ZM15.4667 14.6667C15.4667 15.1077 15.1077 15.4667 14.6667 15.4667H1.33333C0.892267 15.4667 0.533333 15.1077 0.533333 14.6667V6.93333H15.4667V14.6667ZM15.4667 6.4H0.533333V3.46667C0.533333 3.0256 0.892267 2.66667 1.33333 2.66667H1.6V3.46667C1.6 3.90773 1.95893 4.26667 2.4 4.26667H2.93333C3.3744 4.26667 3.73333 3.90773 3.73333 3.46667V2.66667H12.2667V3.46667C12.2667 3.90773 12.6256 4.26667 13.0667 4.26667H13.6C14.0411 4.26667 14.4 3.90773 14.4 3.46667V2.66667H14.6667C15.1077 2.66667 15.4667 3.0256 15.4667 3.46667V6.4Z" fill="#333333"/>
<path d="M10.9341 3.46661H5.06745C4.91998 3.46661 4.80078 3.58581 4.80078 3.73328V5.33328C4.80078 5.48075 4.91998 5.59995 5.06745 5.59995H10.9341C11.0816 5.59995 11.2008 5.48075 11.2008 5.33328V3.73328C11.2008 3.58581 11.0816 3.46661 10.9341 3.46661ZM10.6674 5.06661H5.33411V3.99995H10.6674V5.06661Z" fill="#333333"/>
<path d="M4.86667 10.1699H3.26667C3.1192 10.1699 3 10.2891 3 10.4366V11.7699C3 11.9174 3.1192 12.0366 3.26667 12.0366H4.86667C5.01413 12.0366 5.13333 11.9174 5.13333 11.7699V10.4366C5.13333 10.2891 5.01413 10.1699 4.86667 10.1699ZM4.6 11.5033H3.53333V10.7033H4.6V11.5033Z" fill="#333333"/>
<path d="M9.24988 10L8.10348 11.3757L7.50988 10.7821L7.13281 11.1592L7.93281 11.9592C7.98268 12.0096 8.05068 12.0373 8.12135 12.0373C8.12535 12.0373 8.12935 12.0373 8.13335 12.0371C8.20828 12.0336 8.27815 11.9989 8.32641 11.9416L9.65975 10.3416L9.24988 10Z" fill="#333333"/>
<path d="M13.7772 10L12.6308 11.3757L12.0372 10.7821L11.6602 11.1592L12.4602 11.9592C12.51 12.0096 12.578 12.0373 12.6487 12.0373C12.6527 12.0373 12.6567 12.0373 12.6607 12.0371C12.7356 12.0336 12.8055 11.9989 12.8538 11.9416L14.1871 10.3416L13.7772 10Z" fill="#333333"/>
</svg>
