<svg width="20" height="24" viewBox="0 0 20 24" fill="none" xmlns="http://www.w3.org/2000/svg">
<path d="M2.38333 0C1.71297 0 1.06903 0.2648 0.6162 0.7268C0.171167 1.1816 -0.0481 1.7904 0.0108334 2.4H0V21.9832C0 23.0952 0.9802 24 2.18487 24H19.5V0H2.38333ZM0.866667 21.9832V3.9992C1.22893 4.2508 1.67917 4.4 2.16667 4.4V23.1984C1.4482 23.1892 0.866667 22.6484 0.866667 21.9832ZM18.6333 23.2H3.03333V4.4H4.33333V14.4804C4.33333 14.7532 4.52443 14.9852 4.80957 15.058C4.86893 15.0728 4.92787 15.0804 4.98637 15.0804C4.99287 15.0804 4.99893 15.0784 5.00543 15.078C5.02493 15.0776 5.04357 15.0732 5.06307 15.0712C5.1077 15.0664 5.1506 15.058 5.19263 15.0448C5.21343 15.0384 5.23293 15.0308 5.25243 15.0224C5.29317 15.0052 5.33043 14.9836 5.3664 14.9588C5.382 14.948 5.39803 14.9388 5.41233 14.9268C5.46043 14.8872 5.5042 14.8424 5.53887 14.7884L7.36623 11.9772L9.1936 14.7888C9.3353 15.0068 9.6005 15.1092 9.86527 15.0636C9.88477 15.0604 9.90383 15.0628 9.92333 15.058C10.208 14.9848 10.3996 14.7528 10.3996 14.4804V4.4H18.6329V23.2H18.6333ZM9.594 3.7932L9.5927 3.796L9.53333 3.9056V3.9224L9.49 4.0144L9.53333 4.0752V13.756L7.36667 10.4228L5.2 13.756V4.0944L5.90113 2.8H10.1322L9.594 3.7932ZM10.6678 3.6L11.5345 2H5.36553L4.49887 3.6H2.4752C1.65447 3.6 0.9516 3.0484 0.8749 2.344C0.831133 1.9448 0.967633 1.5612 1.25927 1.2636C1.54743 0.9688 1.95737 0.8 2.38333 0.8H18.6333V1.2H16.4667C16.227 1.2 16.0333 1.3788 16.0333 1.6C16.0333 1.8212 16.227 2 16.4667 2H18.6333V2.4H16.9C16.6604 2.4 16.4667 2.5788 16.4667 2.8C16.4667 3.0212 16.6604 3.2 16.9 3.2H18.6333V3.6H10.6678Z" fill="#129999"/>
<path d="M6.50435 8.61815H7.4261C7.59345 8.61815 7.74473 8.5946 7.87995 8.54752C8.0165 8.50043 8.12695 8.43764 8.21129 8.35917C8.29564 8.27926 8.3599 8.19079 8.40408 8.09376C8.4496 7.9953 8.47235 7.89257 8.47235 7.78555C8.47235 7.56581 8.41345 7.3903 8.29564 7.25902C8.17916 7.12775 8.01784 7.04641 7.81167 7.01502V7.00646C7.98839 6.97221 8.12226 6.89231 8.2133 6.76674C8.30434 6.64117 8.34986 6.4835 8.34986 6.29372C8.34986 5.78574 8.00579 5.53175 7.31766 5.53175H6.50435C6.42001 5.53175 6.34838 5.55958 6.28948 5.61523C6.23191 5.67087 6.20313 5.74436 6.20313 5.83568V8.26285C6.20313 8.38128 6.2299 8.47046 6.28345 8.53039C6.33834 8.5889 6.41198 8.61815 6.50435 8.61815ZM6.77345 8.16653V7.25046H7.16102C7.26143 7.25046 7.34577 7.25403 7.41405 7.26116C7.48233 7.26687 7.54793 7.279 7.61085 7.29755C7.67511 7.3161 7.72532 7.34249 7.76146 7.37674C7.79895 7.40956 7.8284 7.45379 7.84982 7.50944C7.87124 7.56509 7.88195 7.63287 7.88195 7.71278C7.88195 7.80838 7.86924 7.88686 7.8438 7.94822C7.8197 8.00815 7.78021 8.05452 7.72532 8.08734C7.67043 8.11873 7.60951 8.14013 7.54257 8.15155C7.47563 8.16154 7.38928 8.16653 7.28352 8.16653H6.77345ZM6.77345 6.82881V5.98123H7.27147C7.34109 5.98123 7.39999 5.98408 7.44819 5.98979C7.49639 5.99407 7.54391 6.00406 7.59077 6.01975C7.63763 6.03545 7.67511 6.05757 7.70323 6.0861C7.73134 6.11322 7.75343 6.15031 7.7695 6.1974C7.7869 6.24449 7.7956 6.30157 7.7956 6.36863C7.7956 6.53986 7.75142 6.65972 7.66306 6.72821C7.5747 6.79528 7.42677 6.82881 7.21926 6.82881H6.77345Z" fill="#129999"/>
</svg>
