<svg width="12" height="16" viewBox="0 0 12 16" fill="none" xmlns="http://www.w3.org/2000/svg">
<path d="M10.948 14.4405C10.8237 11.6017 9.6791 9.12934 8.0069 7.99978C9.67996 6.87066 10.8246 4.39784 10.948 1.55954C11.2227 1.42453 11.3745 1.27704 11.3745 1.12096C11.3745 0.501787 8.96877 0 5.99976 0C3.03117 0 0.625 0.501787 0.625 1.12139C0.625 1.27704 0.777213 1.42496 1.05154 1.55954C1.1758 4.39741 2.32041 6.87066 3.99261 8.00022C2.31998 9.12891 1.17537 11.6022 1.05154 14.4405C0.777213 14.575 0.625 14.723 0.625 14.8795C0.625 15.4982 3.03117 16.0004 5.99976 16.0004C8.96834 16.0004 11.3745 15.4986 11.3745 14.8795C11.3745 14.7225 11.2227 14.5746 10.948 14.4405ZM4.99102 8.40827C5.13937 8.34979 5.23955 8.18511 5.23955 8.00022C5.23955 7.81446 5.13937 7.65021 4.99102 7.5913C3.25046 6.9085 1.99363 4.59133 1.79412 1.81839C2.77877 2.07681 4.29488 2.24278 5.99976 2.24278C7.70463 2.24278 9.22074 2.07681 10.2054 1.81839C10.0059 4.59133 8.74948 6.9085 7.00849 7.5913C6.85972 7.64978 6.75996 7.81446 6.75996 8.00022C6.75996 8.18554 6.85972 8.34979 7.00849 8.40827C8.74948 9.09108 10.0059 11.4082 10.2058 14.1812C10.0476 14.1395 9.87474 14.1008 9.69028 14.0647C9.12356 11.7707 6.00019 9.75926 6.00019 9.75926C6.00019 9.75926 2.87724 11.7707 2.31009 14.0647C2.12563 14.1008 1.95278 14.1399 1.79455 14.1812C1.99406 11.4078 3.25046 9.09108 4.99102 8.40827ZM5.99976 7.47177C5.99976 7.47177 5.3234 6.93988 4.54341 6.08895C6.66666 5.6336 8.39561 4.62573 9.33339 3.32719C8.33283 5.63575 5.99976 7.47177 5.99976 7.47177Z" fill="#FF4040"/>
</svg>
