<svg width="8" height="12" viewBox="0 0 8 12" fill="none" xmlns="http://www.w3.org/2000/svg">
<path d="M7.00652 0.554688H1.02585C0.538765 0.554688 0.111084 0.977978 0.111084 1.47902V10.825C0.111084 10.9927 0.155271 11.1325 0.226487 11.2405C0.311653 11.3696 0.448785 11.4436 0.595834 11.4435C0.734862 11.4435 0.882883 11.3782 1.01958 11.2548L3.69533 8.85489C3.77797 8.78033 3.89667 8.73761 4.0201 8.73761C4.14347 8.73761 4.26194 8.78033 4.34482 8.8551L7.01163 11.2544C7.14881 11.3782 7.28662 11.4436 7.4254 11.4436C7.6601 11.4436 7.88886 11.2523 7.88886 10.825V1.47902C7.88886 0.977978 7.49361 0.554688 7.00652 0.554688Z" fill="#FF8A00"/>
</svg>
