<svg width="13" height="16" viewBox="0 0 13 16" fill="none" xmlns="http://www.w3.org/2000/svg">
<path d="M10.7521 1H2.29374C1.60486 1 1 1.54423 1 2.18842V14.2047C1 14.4203 1.06249 14.6 1.16321 14.7389C1.28366 14.9049 1.47761 15 1.68558 14.9999C1.8822 14.9999 2.09154 14.9159 2.28487 14.7573L6.06914 11.6717C6.18602 11.5758 6.35391 11.5209 6.52846 11.5209C6.70295 11.5209 6.87049 11.5758 6.98771 11.672L10.7593 14.7568C10.9533 14.9159 11.1483 15 11.3445 15C11.6765 15 12 14.7541 12 14.2047V2.18842C12 1.54423 11.441 1 10.7521 1Z" stroke="#999999"/>
</svg>
