<svg width="92" height="110" viewBox="0 0 92 110" fill="none" xmlns="http://www.w3.org/2000/svg">
<path d="M84.5691 66.3415C85.8072 66.3483 86.8164 65.3501 86.8232 64.112C86.83 62.8739 85.8319 61.8647 84.5938 61.8579H84.5691C83.331 61.8579 82.3273 62.8616 82.3273 64.0997C82.3273 65.3378 83.331 66.3415 84.5691 66.3415Z" fill="#428DFF"/>
<path d="M91.097 77.4455C89.9085 79.5453 87.6765 80.8371 85.2639 80.8216H48.2343V81.6539C55.129 82.8193 59.9808 89.0732 59.396 96.0412C58.8113 103.009 52.985 108.367 45.9925 108.367C39 108.367 33.1738 103.009 32.589 96.0412C32.0042 89.0732 36.856 82.8193 43.7507 81.6539V80.8216H6.72115C4.315 80.8202 2.09297 79.5333 0.894157 77.4471C-0.304657 75.3608 -0.297569 72.7931 0.91272 70.7135L40.1841 3.46033C41.3895 1.39492 43.6011 0.125 45.9925 0.125C48.384 0.125 50.5955 1.39492 51.8009 3.46033L82.029 55.2453C82.6536 56.3144 82.2933 57.6874 81.2242 58.312C80.1551 58.9366 78.7821 58.5763 78.1575 57.5072L47.9294 5.72228C47.5278 5.03309 46.7902 4.60922 45.9925 4.60922C45.1948 4.60922 44.4572 5.03309 44.0556 5.72228L4.78425 72.9754C4.3842 73.6683 4.38378 74.5219 4.78313 75.2152C5.18247 75.9086 5.92105 76.3365 6.72115 76.3381H85.2639C86.064 76.3365 86.8026 75.9086 87.2019 75.2152C87.6012 74.5219 87.6008 73.6683 87.2008 72.9754C86.7967 72.2839 86.7923 71.4292 87.1892 70.7335C87.5861 70.0378 88.324 69.6067 89.125 69.6026C89.9259 69.5984 90.6682 70.0219 91.0723 70.7135C92.3003 72.7871 92.3098 75.363 91.097 77.4455ZM37.0254 94.9028C37.0254 99.8552 41.0401 103.87 45.9925 103.87C50.9449 103.87 54.9596 99.8552 54.9596 94.9028C54.9596 89.9504 50.9449 85.9357 45.9925 85.9357C41.0401 85.9357 37.0254 89.9504 37.0254 94.9028Z" fill="#428DFF"/>
<path d="M36.0754 29.485C35.5204 25.6041 37.2801 21.756 40.5787 19.6373C43.8773 17.5187 48.1086 17.5187 51.4072 19.6373C54.7058 21.756 56.4655 25.6041 55.9106 29.485L53.328 47.5514C52.8081 51.203 49.6814 53.9161 45.993 53.9161C42.3045 53.9161 39.1778 51.203 38.6579 47.5514L36.0754 29.485ZM40.5118 28.8505L43.0943 46.9215C43.2995 48.3647 44.5352 49.4372 45.993 49.4372C47.4507 49.4372 48.6864 48.3647 48.8916 46.9215L51.4718 28.8528C51.776 26.7097 50.8031 24.586 48.9814 23.4169C47.1598 22.2478 44.8238 22.2478 43.0022 23.4169C41.1806 24.586 40.2076 26.7097 40.5118 28.8528V28.8505Z" fill="#428DFF"/>
<path d="M27.6006 80.625H64.4006V109.758H27.6006V80.625Z" fill="white"/>
<path d="M45.9915 58.4033C49.7058 58.4033 52.7168 61.4143 52.7168 65.1286C52.7168 68.8429 49.7058 71.854 45.9915 71.854C42.2772 71.854 39.2662 68.8429 39.2662 65.1286C39.2662 61.4143 42.2772 58.4033 45.9915 58.4033ZM45.9915 67.3704C47.2296 67.3704 48.2333 66.3667 48.2333 65.1286C48.2333 63.8905 47.2296 62.8869 45.9915 62.8869C44.7534 62.8869 43.7497 63.8905 43.7497 65.1286C43.7497 66.3667 44.7534 67.3704 45.9915 67.3704Z" fill="#428DFF"/>
</svg>
