<svg width="109" height="95" viewBox="0 0 109 95" fill="none" xmlns="http://www.w3.org/2000/svg">
<path d="M101.793 9.74072H93.5952V1.90546C93.5952 0.853647 92.6423 0 91.4681 0H17.4427C16.2686 0 15.3156 0.853647 15.3156 1.90546V9.74072H7.11962C3.19287 9.74072 0 12.6008 0 16.1164V88.0304C0 91.546 3.19287 94.4061 7.11962 94.4061H101.793C105.718 94.4061 108.911 91.546 108.911 88.0304V16.1164C108.911 12.6008 105.718 9.74072 101.793 9.74072ZM101.793 13.5516C103.372 13.5516 104.657 14.7025 104.657 16.1164V76.1346H100.396V19.2737C100.396 18.2219 99.4428 17.3683 98.2686 17.3683H93.5952V13.5516H101.793ZM17.4427 51.1197H91.4681C92.6423 51.1197 93.5952 50.2661 93.5952 49.2142V21.1792H96.1415V76.1346H12.7694V21.1792H15.3156V49.2142C15.3156 50.2661 16.2686 51.1197 17.4427 51.1197ZM19.5699 3.81092H89.3409V47.3088H19.5699V3.81092ZM4.25433 16.1164C4.25433 14.7025 5.53914 13.5516 7.11962 13.5516H15.3156V17.3683H10.6422C9.46801 17.3683 8.51504 18.2219 8.51504 19.2737V76.1346H4.25433V16.1164ZM104.657 88.0304C104.657 89.4442 103.372 90.5952 101.793 90.5952H7.11962C5.54126 90.5952 4.25433 89.4442 4.25433 88.0304V79.9436H104.657V88.0304Z" fill="white"/>
<path d="M78.205 84.5206C78.1518 84.4044 78.0858 84.2939 78.0093 84.191C77.9306 84.0862 77.8412 83.989 77.7434 83.9013C77.6455 83.8137 77.537 83.7337 77.42 83.6651C77.3052 83.5965 77.1818 83.5374 77.0542 83.4898C76.9244 83.4421 76.7904 83.4059 76.6564 83.3812C76.382 83.3316 76.0991 83.3316 75.8247 83.3812C75.6885 83.4059 75.5545 83.4421 75.4269 83.4898C75.2971 83.5374 75.1738 83.5965 75.0589 83.6651C74.9419 83.7337 74.8334 83.8137 74.7356 83.9013C74.6377 83.989 74.5484 84.0862 74.4718 84.191C74.3952 84.2939 74.3293 84.4044 74.2761 84.5206C74.2229 84.6349 74.1804 84.755 74.1548 84.8769C74.1272 84.9989 74.1123 85.1247 74.1123 85.2485C74.1123 85.3724 74.1272 85.4981 74.1548 85.622C74.1825 85.742 74.2229 85.8621 74.2761 85.9783C74.3293 86.0926 74.3952 86.2031 74.4718 86.306C74.5484 86.4108 74.6377 86.508 74.7356 86.5957C74.8334 86.6833 74.9419 86.7633 75.0589 86.8338C75.1738 86.9024 75.2971 86.9615 75.4269 87.0092C75.5545 87.0568 75.6885 87.093 75.8247 87.1178C75.9608 87.1425 76.1012 87.154 76.2395 87.154C76.3777 87.154 76.5181 87.1425 76.6564 87.1178C76.7904 87.093 76.9244 87.0568 77.0542 87.0092C77.1818 86.9615 77.3052 86.9024 77.42 86.8338C77.537 86.7633 77.6455 86.6833 77.7434 86.5957C77.8412 86.508 77.9306 86.4108 78.0093 86.306C78.0858 86.2031 78.1518 86.0926 78.205 85.9783C78.2581 85.8621 78.2986 85.742 78.3262 85.622C78.3539 85.4981 78.3666 85.3724 78.3666 85.2485C78.3666 85.1247 78.3539 84.9989 78.3262 84.8769C78.2986 84.755 78.2581 84.6349 78.205 84.5206Z" fill="white"/>
<path d="M68.1501 83.3428H32.6711C31.4969 83.3428 30.5439 84.1964 30.5439 85.2482C30.5439 86.3 31.4969 87.1537 32.6711 87.1537H68.1501C69.3243 87.1537 70.2773 86.3 70.2773 85.2482C70.2773 84.1964 69.3243 83.3428 68.1501 83.3428Z" fill="white"/>
<path d="M15.3154 69.9951C15.3154 71.047 16.2684 71.9006 17.4426 71.9006H37.5166C38.6908 71.9006 39.6438 71.047 39.6438 69.9951V56.2663C39.6438 55.2145 38.6908 54.3608 37.5166 54.3608H17.4426C16.2684 54.3608 15.3154 55.2145 15.3154 56.2663V69.9951ZM19.5698 58.1718H35.3895V68.0897H19.5698V58.1718Z" fill="white"/>
<path d="M44.4172 71.9006H64.4913C65.6655 71.9006 66.6184 71.047 66.6184 69.9951V56.2663C66.6184 55.2145 65.6655 54.3608 64.4913 54.3608H44.4172C43.243 54.3608 42.29 55.2145 42.29 56.2663V69.9951C42.29 71.047 43.243 71.9006 44.4172 71.9006ZM46.5444 58.1718H62.3641V68.0897H46.5444V58.1718Z" fill="white"/>
<path d="M71.3916 71.9006H91.4678C92.642 71.9006 93.595 71.047 93.595 69.9951V56.2663C93.595 55.2145 92.642 54.3608 91.4678 54.3608H71.3938C70.2196 54.3608 69.2666 55.2145 69.2666 56.2663V69.9951C69.2645 71.047 70.2174 71.9006 71.3916 71.9006ZM73.5188 58.1718H89.3407V68.0897H73.5209V58.1718H73.5188Z" fill="white"/>
<path d="M25.8195 42.5509H34.8728C36.047 42.5509 36.9999 41.6973 36.9999 40.6454V31.9489C36.9999 30.8971 36.047 30.0435 34.8728 30.0435H25.8195C24.6454 30.0435 23.6924 30.8971 23.6924 31.9489V40.6454C23.6924 41.6992 24.6454 42.5509 25.8195 42.5509ZM27.9467 33.8544H32.7456V38.74H27.9467V33.8544Z" fill="white"/>
<path d="M71.9087 20.9904V40.6472C71.9087 41.699 72.8617 42.5526 74.0359 42.5526H83.0891C84.2633 42.5526 85.2162 41.699 85.2162 40.6472V20.9904C85.2162 19.9386 84.2633 19.085 83.0891 19.085H74.0359C72.8617 19.085 71.9087 19.9367 71.9087 20.9904ZM76.163 22.8959H80.9619V38.7417H76.163V22.8959Z" fill="white"/>
<path d="M51.1607 22.7988H41.6799C40.5057 22.7988 39.5527 23.6525 39.5527 24.7043V40.6473C39.5527 41.6991 40.5057 42.5528 41.6799 42.5528H51.1607C52.3349 42.5528 53.2878 41.6991 53.2878 40.6473V24.7043C53.2878 23.6506 52.3349 22.7988 51.1607 22.7988ZM49.0335 38.7418H43.8071V26.6098H49.0335V38.7418Z" fill="white"/>
<path d="M67.0183 26.9946H57.9651C56.7909 26.9946 55.8379 27.8483 55.8379 28.9001V40.6454C55.8379 41.6972 56.7909 42.5508 57.9651 42.5508H67.0183C68.1925 42.5508 69.1454 41.6972 69.1454 40.6454V28.9001C69.1454 27.8483 68.1925 26.9946 67.0183 26.9946ZM64.8911 38.7399H60.0922V30.8056H64.8911V38.7399Z" fill="white"/>
<path d="M37.185 21.5469L46.5509 14.0889L61.2369 23.6734C61.6134 23.9192 62.0516 24.0393 62.4898 24.0393C63.0407 24.0393 63.5874 23.8487 64.0001 23.4771L80.0729 8.9842C80.9004 8.23726 80.8961 7.03111 80.0623 6.28988C79.2284 5.54866 77.8819 5.55247 77.0545 6.29941L62.2685 19.6319L47.6719 10.1065C46.8636 9.57871 45.7532 9.62634 45.0066 10.2228L34.3601 18.7002C33.4816 19.3995 33.4029 20.6037 34.1836 21.3907C34.9621 22.1757 36.3086 22.2462 37.185 21.5469Z" fill="white"/>
<path d="M29.1653 26.0267C29.2802 26.0953 29.4057 26.1544 29.5333 26.202C29.661 26.2497 29.795 26.2878 29.9311 26.3125C30.0673 26.3354 30.2076 26.3487 30.3459 26.3487C30.4863 26.3487 30.6246 26.3354 30.7628 26.3125C30.899 26.2878 31.033 26.2497 31.1606 26.202C31.2882 26.1544 31.4116 26.0953 31.5265 26.0267C31.6435 25.9581 31.752 25.8781 31.8498 25.7904C32.2476 25.436 32.4731 24.9444 32.4731 24.4433C32.4731 24.3194 32.4603 24.1937 32.4327 24.0717C32.405 23.9498 32.3646 23.8297 32.3114 23.7154C32.2582 23.5992 32.1923 23.4886 32.1157 23.3858C32.037 23.281 31.9498 23.1838 31.8498 23.0961C31.752 23.0085 31.6435 22.9284 31.5265 22.8579C31.4116 22.7893 31.2882 22.7303 31.1606 22.6826C31.033 22.635 30.899 22.5988 30.7628 22.574C30.4884 22.5245 30.2055 22.5245 29.9311 22.574C29.795 22.5988 29.661 22.635 29.5333 22.6826C29.4057 22.7303 29.2802 22.7893 29.1653 22.8579C29.0483 22.9284 28.9399 23.0085 28.842 23.0961C28.7442 23.1838 28.6548 23.281 28.5782 23.3858C28.5017 23.4886 28.4357 23.5992 28.3825 23.7154C28.3294 23.8297 28.2889 23.9498 28.2613 24.0717C28.2336 24.1937 28.2188 24.3194 28.2188 24.4433C28.2188 24.9444 28.4464 25.436 28.842 25.7904C28.9399 25.8781 29.0483 25.9581 29.1653 26.0267Z" fill="white"/>
</svg>
