<svg width="36" height="36" viewBox="0 0 36 36" fill="none" xmlns="http://www.w3.org/2000/svg">
<g filter="url(#filter0_d)">
<path d="M2 18C2 9.16344 9.16344 2 18 2C26.8366 2 34 9.16344 34 18C34 26.8366 26.8366 34 18 34C9.16344 34 2 26.8366 2 18Z" fill="white"/>
<path d="M2.5 18C2.5 9.43959 9.43959 2.5 18 2.5C26.5604 2.5 33.5 9.43959 33.5 18C33.5 26.5604 26.5604 33.5 18 33.5C9.43959 33.5 2.5 26.5604 2.5 18Z" stroke="#2E93FB"/>
</g>
<path d="M10 17.5895C10 18.0551 10.3775 18.4326 10.8431 18.4326H23.1471L17.8284 23.7463C17.6667 23.9081 17.5833 24.1238 17.5833 24.3395C17.5833 24.5551 17.6667 24.7708 17.8284 24.9326C18.1569 25.261 18.6912 25.261 19.0196 24.9326L25.7647 18.1826C26.0784 17.8689 26.0784 17.31 25.7647 16.9914L19.0147 10.2463C18.6863 9.91789 18.152 9.91789 17.8235 10.2463C17.4951 10.5748 17.4951 11.1091 17.8235 11.4375L23.1373 16.7512H10.8382C10.3725 16.7463 10 17.1238 10 17.5895Z" fill="#1D7DEA"/>
<defs>
<filter id="filter0_d" x="0" y="0" width="36" height="36" filterUnits="userSpaceOnUse" color-interpolation-filters="sRGB">
<feFlood flood-opacity="0" result="BackgroundImageFix"/>
<feColorMatrix in="SourceAlpha" type="matrix" values="0 0 0 0 0 0 0 0 0 0 0 0 0 0 0 0 0 0 127 0"/>
<feOffset/>
<feGaussianBlur stdDeviation="1"/>
<feColorMatrix type="matrix" values="0 0 0 0 0 0 0 0 0 0 0 0 0 0 0 0 0 0 0.267295 0"/>
<feBlend mode="normal" in2="BackgroundImageFix" result="effect1_dropShadow"/>
<feBlend mode="normal" in="SourceGraphic" in2="effect1_dropShadow" result="shape"/>
</filter>
</defs>
</svg>
