<svg width="22" height="26" viewBox="0 0 22 26" fill="none" xmlns="http://www.w3.org/2000/svg">
<path d="M16.0547 5.75512V12.0176C16.0547 12.3512 16.3251 12.6215 16.6587 12.6215C16.9923 12.6215 17.2626 12.3512 17.2626 12.0176V5.15119C17.2626 4.99103 17.199 4.83747 17.0858 4.72409L12.5384 0.17683C12.4251 0.0636138 12.2716 0 12.1113 0H1.18498C0.851373 0 0.581055 0.270318 0.581055 0.603928V20.8809C0.581055 21.2145 0.851373 21.4848 1.18498 21.4848H10.6155C10.9491 21.4848 11.2195 21.2145 11.2195 20.8809C11.2195 20.5473 10.9491 20.2769 10.6155 20.2769H1.78891V1.20786H11.4608V5.15119C11.4608 5.4848 11.7311 5.75512 12.0647 5.75512H16.0547ZM12.6686 4.54726V2.06189L15.154 4.54718H12.6686V4.54726Z" fill="white"/>
<path d="M20.8147 14.0215H12.4091C12.0755 14.0215 11.8052 14.2918 11.8052 14.6254C11.8052 14.959 12.0755 15.2293 12.4091 15.2293H12.9381V25.3955C12.9381 25.6481 13.0952 25.8739 13.3321 25.9617C13.5693 26.0496 13.8354 25.9806 14 25.7891L16.6517 22.7042L19.2182 25.7821C19.3352 25.9225 19.5063 25.9994 19.6822 25.9993C19.7509 25.9993 19.8205 25.9876 19.8877 25.9632C20.1267 25.8767 20.2859 25.6496 20.2859 25.3954V15.2293H20.8148C21.1484 15.2293 21.4187 14.9589 21.4187 14.6253C21.4187 14.2917 21.1483 14.0215 20.8147 14.0215ZM19.078 23.7281L17.1225 21.3829C17.0087 21.2465 16.8407 21.167 16.6632 21.1657C16.4817 21.1658 16.3164 21.2412 16.2006 21.376L14.1459 23.7664V15.2293H19.078V23.7281Z" fill="white"/>
</svg>
