<?xml version="1.0" encoding="utf-8"?>
<!-- Generator: Adobe Illustrator 22.0.1, SVG Export Plug-In . SVG Version: 6.00 Build 0)  -->
<svg version="1.1" id="Layer_1" xmlns="http://www.w3.org/2000/svg" xmlns:xlink="http://www.w3.org/1999/xlink" x="0px" y="0px"
	 viewBox="0 0 177.9 254" style="enable-background:new 0 0 177.9 254;" xml:space="preserve">
<style type="text/css">
	.st0{fill:#333333;}
	.st1{fill:#E3E3E3;}
	.st2{fill:#33455E;}
	.st3{fill:#E04549;}
	.st4{fill:#CC2233;}
	.st5{fill:#FEBE81;}
	.st6{fill:#1D2838;}
	.st7{fill:#29384E;}
	.st8{fill:#FFCC99;}
	.st9{fill:#1A2433;}
	.st10{fill:#F2F2F2;}
	.st11{fill:none;stroke:#000000;stroke-width:5.000000e-02;stroke-linecap:round;stroke-linejoin:round;stroke-opacity:0.4;}
	.st12{fill:none;stroke:#000000;stroke-width:5.000000e-02;stroke-linecap:round;stroke-linejoin:round;}
	.st13{fill:none;stroke:#000000;stroke-width:5.000000e-02;stroke-linecap:round;stroke-linejoin:round;stroke-opacity:0.6;}
	.st14{fill:none;stroke:#E69216;stroke-width:0.2;stroke-linecap:round;stroke-linejoin:round;}
	.st15{fill:#D8FC6A;}
	.st16{fill:#1D7DEA;}
	.st17{fill:#FFDEC2;}
	.st18{fill:none;stroke:#E69216;stroke-linecap:round;stroke-linejoin:round;}
	.st19{fill:#FDD1A6;}
	.st20{fill:#FDCC9B;}
	.st21{fill:none;stroke:#E69216;stroke-width:0.5;stroke-linecap:round;stroke-linejoin:round;}
	.st22{fill:#FFFFFF;}
	.st23{fill:#1B1B1B;}
	.st24{fill:#EEEAEA;}
	.st25{fill:#3266CC;}
	.st26{fill:#FAC08C;}
	.st27{fill:none;stroke:#000000;stroke-linecap:round;stroke-linejoin:round;}
	.st28{fill:none;stroke:#E69216;stroke-width:0.5;}
	.st29{fill:#990000;}
	.st30{fill:#BB2525;}
	.st31{fill:#000065;}
	.st32{fill:#DA3019;}
</style>
<path class="st0" d="M48.6,251.3L48.6,251.3H48l-2,0.5l-10.2,0.3c-1.4-0.1-2.8-0.5-4.2-1h-0.3c-0.2,0.4-0.3,0.9-0.1,1.6
	c-0.1,0.1,0.3,0.3,1.3,0.5l7.7,0.9l8-1.1L48.6,251.3z M67.2,253.1c0.9-0.2,1.4-0.3,1.4-0.5c0-0.6,0-1.1-0.1-1.6H68
	c-1.3,0.5-2.7,0.8-4.2,1l-10.2-0.3l-1.9-0.5h-0.5h-0.1l0.3,1.6l8.1,1.1L67.2,253.1z"/>
<path class="st1" d="M48,250.9c-0.1-0.8-0.3-1.4-0.5-1.8c-0.2-0.4-0.5-0.6-0.8-0.5c-0.1-0.7-0.3-1.2-0.7-1.4c-0.3-0.2-1-0.3-1.9-0.4
	l-7.2,0.2c-1.1,0.1-1.9,0.7-2.5,1.6c-1.4,0-2.3,0.9-2.8,2.5c1.4,0.5,2.8,0.8,4.2,1l10.2-0.3l2-0.5l-0.1-0.3C48,251,48,251,48,250.9z
	 M65.2,248.6c-0.5-0.9-1.3-1.5-2.4-1.6l-7.2-0.2c-0.9,0.1-1.6,0.2-1.9,0.4c-0.3,0.2-0.6,0.7-0.7,1.4c-0.3,0-0.6,0.1-0.8,0.5
	c-0.2,0.4-0.4,1-0.5,1.8c0,0.1,0,0.2,0,0.2v0.3l1.9,0.5l10.2,0.3c1.5-0.1,2.9-0.5,4.2-1C67.6,249.4,66.6,248.6,65.2,248.6z
	 M55.5,244.2L55.5,244.2v1.2c2.8-1.6,5.6-1.5,8.5,0.1v-1.2C61.2,242.7,58.3,242.7,55.5,244.2z M65.4,235.9v-0.5h-0.1
	c-0.5,0.1-0.9,0.2-1.4,0.3c-2.8,0.4-5.2,0.2-7.3-0.8l-2.4-0.8c0,0.2,0,0.4,0.1,0.6l0.1,1.9l0.3,1.4l0.1,0.3v0.1l-0.5,0.5l0.1,0.1
	l0.6,0.4c1.9,0.7,3.5,1.1,4.7,1.2h3l1.2-0.2c0.3-0.1,0.7-0.5,1.4-1.1c0.1,0.1,0.2-0.5,0.3-1.7L65.4,235.9z M65.4,235.9l0.1-0.4
	l-0.1-0.1V235.9z M35.7,244.4v1.2c2.8-1.6,5.6-1.7,8.4-0.1l0.1-1.2C41.4,242.7,38.6,242.7,35.7,244.4z M34.2,235.4v0.5l-0.1,1.4
	c0.1,1.2,0.2,1.8,0.3,1.7c0.6,0.6,1.1,1,1.4,1.1l1.2,0.2h3c1.2,0,2.8-0.4,4.7-1.2l0.6-0.4l0.1-0.1l-0.5-0.5v-0.1l0.1-0.3l0.4-1.4
	v-1.9c0-0.2,0.1-0.4,0.1-0.6l-2.4,0.8c-2,0.9-4.3,1.2-7.1,0.8c0,0-0.1-0.1-0.1-0.1C35.3,235.6,34.8,235.5,34.2,235.4L34.2,235.4z
	 M34.2,235.9v-0.5l-0.1,0.1L34.2,235.9z"/>
<path class="st2" d="M69.7,190.7c-0.1,0-0.3,0-0.5,0.1c0.1,0.4,0.1,1,0.1,1.7c0,0.2,0.1,0.5,0.1,0.8c0,1.1,0.1,2.4,0.1,3.9
	c0,3.7-0.1,5.8-0.2,6.3c-0.2,0.7-0.9,2-2.3,3.7l0.6-0.1l0.3-0.1c0.3-0.2,0.6-0.4,0.8-0.5l0.8-0.1c0.4-0.1,0.7-0.3,1-0.6
	c0.5-0.4,0.8-1.1,0.9-1.9c0.1-0.2,0.2-0.5,0.2-0.8c0-0.7,0-1.6-0.1-2.6c-0.1-0.3-0.2-0.7-0.2-1.1c0.3-1.5,0.3-3.1,0.1-4.7l-0.4-2.3
	v-0.2c-0.2-0.8-0.3-1.8-0.3-3C70.7,189.9,70.3,190.4,69.7,190.7z M30.4,190.8c-0.1-0.1-0.3-0.1-0.5-0.1c-0.5-0.3-0.9-0.8-1.1-1.4
	c0,1.2-0.1,2.2-0.3,3v0.2l-0.5,2.3c-0.3,1.6-0.2,3.1,0.1,4.7c-0.1,0.4-0.1,0.8-0.1,1.1c-0.2,1-0.2,1.9-0.1,2.6
	c0,0.3,0.1,0.6,0.1,0.8c0.2,0.9,0.5,1.5,1,1.9c0.3,0.3,0.6,0.5,1,0.6l0.9,0.1c0.2,0.1,0.5,0.2,0.9,0.5l0.3,0.1l0.5,0.1
	c-1.3-1.8-2.1-3-2.3-3.7c-0.1-0.5-0.1-2.6-0.1-6.3C30.2,194.1,30.3,191.9,30.4,190.8z M34.2,169.8c-0.8-0.2-1.5-0.3-2.1-0.5v0.1
	c0,0.3-0.1,0.6-0.1,1c0,0.2,0,0.4-0.1,0.6c-0.1,0.5-0.3,1.1-0.4,1.8c-0.3,1.8-0.7,3.4-1,4.9c-0.2,0.9-0.3,1.7-0.5,2.5v0.1
	c-0.1,0.2-0.2,0.4-0.2,0.6c-0.1,0.3-0.2,0.7-0.2,1c-0.1,0.1-0.1,0.2-0.1,0.3c-0.1,0.4-0.2,0.8-0.3,1.2c0,0.1-0.1,0.2-0.1,0.3
	s0,0.2,0.1,0.2l1.8,0.4c0.3-1.9,0.8-4.3,1.5-7.1C33.3,173.7,33.9,171.2,34.2,169.8z M69.1,177.7c-0.3-1.5-0.6-3.1-1-4.9
	c-0.1-0.7-0.2-1.3-0.3-1.8c0-0.3,0-0.5-0.1-0.6c0-0.3-0.1-0.7-0.1-1c-0.6,0.1-1.3,0.2-2.2,0.4c0.3,1.5,0.9,3.9,1.7,7.4
	c0.6,2.8,1.2,5.2,1.5,7.1l1.7-0.4c0,0,0.1-0.1,0.1-0.2s0-0.2,0-0.3c-0.1-0.3-0.2-0.7-0.3-1.2c0-0.1-0.1-0.2-0.1-0.3
	c-0.1-0.3-0.2-0.7-0.3-1c0-0.2-0.1-0.4-0.1-0.6v-0.1C69.5,179.4,69.3,178.6,69.1,177.7z"/>
<path class="st3" d="M65.2,239.1c-0.6,0.6-1.1,1-1.4,1.1c0.9,1.5,0.6,2.2-0.8,1.9c2.2,1.6,3,3.8,2.3,6.5c1.4,0,2.3,0.9,2.8,2.5
	l0.4-0.1C67.9,246.1,66.8,242.2,65.2,239.1z M54.3,238.8L54.3,238.8l-1.4,3c-0.4,1-0.8,2.2-1.1,3.7c-0.1,0.5-0.2,1.1-0.3,1.6
	c-0.1,0.6-0.2,1.2-0.2,1.6c-0.2,1.2-0.2,2-0.1,2.1c0,0.3,0,0.4,0,0.5h0.5v-0.3c0,0,0-0.1,0-0.2c0.1-0.8,0.3-1.4,0.5-1.8
	c0.2-0.4,0.5-0.6,0.8-0.5c0.1-3.7,1.3-5.9,3.6-6.5c-1.6-0.3-2.3-0.8-2.1-1.4l0.4-1.5L54.3,238.8z M45.4,238.7L45.4,238.7l-0.7,0.5
	l0.5,1.5c0.2,0.6-0.5,1.1-2.1,1.4c2.3,0.6,3.5,2.8,3.6,6.5c0.3,0,0.6,0.1,0.8,0.5c0.2,0.4,0.4,1,0.5,1.8c0,0.1,0,0.2,0,0.2l0.1,0.3
	h0.5c0,0,0-0.2,0-0.5c0-0.2,0-0.9-0.2-2.1c0-0.4-0.1-1-0.2-1.6c-0.1-0.6-0.2-1.1-0.2-1.6c-0.3-1.5-0.7-2.8-1.1-3.7L45.4,238.7z
	 M36.7,242.1c-1.5,0.2-1.7-0.4-0.8-1.9c-0.3-0.1-0.7-0.5-1.4-1.1c-1.6,3.1-2.7,7.1-3.1,12l0.3,0.1c0.4-1.6,1.4-2.5,2.8-2.5
	C33.7,245.9,34.5,243.7,36.7,242.1z"/>
<path class="st4" d="M54.6,240.7c-0.2,0.6,0.5,1.1,2.1,1.4c-2.3,0.6-3.5,2.8-3.6,6.5c0.1-0.7,0.4-1.2,0.7-1.4c0.3-0.2,1-0.3,1.9-0.4
	l7.2,0.2c1.1,0.1,1.9,0.7,2.4,1.6c0.7-2.7,0-4.8-2.3-6.5c1.5,0.2,1.7-0.4,0.8-1.9l-1.2,0.2h-3c-1.2,0-2.8-0.4-4.7-1.2L54.6,240.7z
	 M55.5,244.2L55.5,244.2c2.9-1.5,5.7-1.4,8.5,0.2v1.2c-2.8-1.6-5.7-1.7-8.5-0.1L55.5,244.2z M37,240.4l-1.2-0.2
	c-0.9,1.5-0.6,2.2,0.8,1.9c-2.2,1.6-2.9,3.8-2.3,6.5c0.5-0.9,1.3-1.5,2.5-1.6l7.2-0.2c0.9,0.1,1.5,0.2,1.9,0.4
	c0.4,0.2,0.6,0.7,0.7,1.4c-0.1-3.7-1.3-5.9-3.6-6.5c1.5-0.3,2.2-0.8,2.1-1.4l-0.5-1.5c-1.9,0.7-3.5,1.1-4.7,1.2H37z M35.7,245.5
	v-1.2c2.8-1.6,5.7-1.7,8.5-0.2l-0.1,1.2C41.3,243.8,38.5,243.9,35.7,245.5z"/>
<path class="st5" d="M54.8,238.2l-0.1-0.3C54.7,238,54.7,238.1,54.8,238.2L54.8,238.2z M44.9,237.9l-0.1,0.3v0.1
	C44.9,238.1,44.9,238,44.9,237.9z M47.2,213.3L47.2,213.3c-0.1,0.2,0,0.4,0,0.6C47.2,213.7,47.2,213.6,47.2,213.3z"/>
<path class="st6" d="M37.8,208.1h-0.3l0.5,0.1C38,208.1,37.9,208.1,37.8,208.1z M61.9,208.1c0,0-0.1,0-0.3,0.1l0.5-0.1H61.9z"/>
<path class="st7" d="M35.3,187.5c0.1-0.6,0.2-1.4,0.3-2.2l-4.5-1l-1.8-0.4c-0.1,0.4-0.2,0.8-0.3,1.1v0.1c0,0.2-0.1,0.4-0.1,0.6
	c-0.3,1.6-0.3,2.8,0,3.7c0.2,0.6,0.6,1.1,1.1,1.4c0.2,0,0.4,0,0.5,0.1c2,0.1,3.1,0.1,3.4-0.2C34.5,190,35,189,35.3,187.5z
	 M64.3,187.5c0.3,1.5,0.9,2.5,1.5,3.1c0.3,0.3,1.4,0.3,3.4,0.2c0.2-0.1,0.4-0.1,0.5-0.1c0.6-0.3,0.9-0.8,1.1-1.4
	c0.3-0.9,0.3-2.1,0-3.7c0-0.2-0.1-0.4-0.1-0.6V185c-0.1-0.3-0.2-0.7-0.3-1.1l-1.7,0.4l-4.6,1C64.1,186.1,64.2,186.8,64.3,187.5z
	 M50.1,170.5L50.1,170.5c-0.2,0-0.2,0-0.3,0.1h-0.1c0,0-0.1-0.1-0.1-0.1c0,0.2,0,0.3,0,0.5c0.1,0.4,0.1,0.9,0.1,1.3v0.3
	c0,0,0-0.1,0.1-0.1c0-0.1,0-0.2,0-0.3c0-0.4,0.1-0.8,0.1-1.2C50,170.9,50,170.7,50.1,170.5z M34.2,169.8c-0.3,1.4-0.9,3.9-1.7,7.4
	c-0.6,2.8-1.1,5.2-1.5,7.1l4.5,1c0,0.8-0.1,1.6-0.3,2.2c-0.3,1.5-0.8,2.5-1.5,3.1c-0.3,0.3-1.4,0.3-3.4,0.2
	c-0.1,1.2-0.2,3.3-0.2,6.4c0,3.7,0,5.8,0.1,6.3c0.2,0.7,0.9,2,2.3,3.7l0.5,0.2h0.5l1.9,0.6l1.1,0.1l0.8-0.1h0.3c0.1,0,0.2,0,0.3,0.1
	c0.1,0,0.3,0.1,0.6,0.1l6.3-0.3c0.3,0,0.7,0,1,0c0,0,0.1,0,0.2,0c0.1,0,0.2,0,0.3,0h0.1c0.3,0,0.5-0.1,0.8-0.2c0.1,0,0.2,0,0.2,0
	c0,0,0.1,0,0.1,0c0.1,0,0.2-0.1,0.3-0.1c1.7-0.6,2-5.2,0.9-13.9l1.1-4l1.2,4c-1.1,8.7-0.8,13.3,0.9,13.9c0.1,0,0.2,0,0.3,0.1h0.2
	c0,0,0.1,0,0.2,0c0.3,0.1,0.5,0.1,0.7,0.2c0,0,0.1,0,0.2,0c0,0,0.1,0,0.1,0c0.1,0,0.2,0,0.2,0c0.3,0,0.7,0,1,0l6.3,0.3
	c0.3,0,0.5-0.1,0.6-0.1c0.1-0.1,0.2-0.1,0.3-0.1h0.3l0.9,0.1l1-0.1l1.9-0.6h0.6l0.5-0.2c1.3-1.8,2.1-3,2.3-3.7
	c0.1-0.5,0.2-2.6,0.2-6.3c0-1.6,0-2.9-0.1-3.9c0-0.3,0-0.5-0.1-0.8c0-0.7-0.1-1.3-0.1-1.7c-1.9,0.1-3.1,0.1-3.4-0.2
	c-0.7-0.6-1.2-1.6-1.5-3.1c-0.1-0.6-0.2-1.4-0.3-2.2l4.6-1c-0.4-1.9-0.9-4.3-1.5-7.1c-0.8-3.4-1.3-5.9-1.7-7.4
	c-3,0.4-7.1,0.7-12.5,0.8c0,0.1,0,0.2,0,0.3c0.3,2.3,0.2,4.6-0.5,6.9c0.6-2.3,0.8-4.6,0.5-6.9c0-0.1,0-0.2,0-0.3c-0.9,0-1.7,0-2.5,0
	c0,0.2-0.1,0.3-0.1,0.5c-0.8,6.5,0.1,9.4,2.7,8.9v0.6c-0.7,0.1-1.3,0-1.8-0.3c-0.7-0.5-1.2-1.4-1.4-2.8v-0.1c0,0-0.1-0.1-0.1-0.1
	v0.3c-0.2,1.4-0.6,2.3-1.4,2.8c-0.5,0.3-1.1,0.3-1.9,0.3v-0.6c2.6,0.5,3.5-2.5,2.7-8.9c0-0.1,0-0.3-0.1-0.5c-0.8,0-1.6,0-2.4,0
	c0,0.1-0.1,0.2-0.1,0.3c-0.3,2.3-0.2,4.6,0.4,6.9c-0.6-2.3-0.7-4.6-0.4-6.9c0-0.1,0-0.2,0.1-0.3C41.4,170.5,37.2,170.2,34.2,169.8z"
	/>
<path class="st8" d="M53.2,208c-0.2,0-0.5-0.1-0.7-0.2c0,0.3,0,2.2,0,5.5c0,0.2,0,0.4,0,0.6c0,1.3,0,2.7,0.1,4.1
	c0,0.8,0.1,1.6,0.1,2.3c0.3,3.6,0.8,8.1,1.5,13.7l2.4,0.8c2.1,0.9,4.5,1.2,7.3,0.8c0.5-0.1,0.9-0.2,1.4-0.3
	c1.1-7.1,1.8-12.3,2.1-15.8c0.1-0.6,0.1-1.1,0.1-1.6c0.1-1.6,0.2-3,0.2-4.5c0-0.1,0-0.2-0.1-0.3c0-3.4,0-5.3-0.1-5.8
	c0-0.2,0-0.3,0-0.4l-0.6,0.1c-0.1,0.2-0.2,0.4-0.3,0.5c0.1-0.1,0.2-0.3,0.3-0.5l-0.5,0.2H66l-1.9,0.6l-1,0.1l-0.9-0.1l-0.5,0.1
	c-0.1,0-0.3,0.1-0.6,0.1l-6.3-0.3c-0.3,0-0.7,0-1,0c0,0-0.1,0-0.2,0c0,0-0.1,0-0.1,0C53.3,208,53.3,208,53.2,208z M45.9,208
	c-0.3,0-0.7,0-1,0l-6.3,0.3c-0.3,0-0.5-0.1-0.6-0.1l-0.5-0.1l-0.8,0.1l-1.1-0.1l-1.9-0.6h-0.5l-0.5-0.2c0.1,0.2,0.2,0.4,0.4,0.5
	c-0.2-0.1-0.3-0.3-0.4-0.5l-0.5-0.1c0,0.1-0.1,0.2-0.1,0.4c0,0.5-0.1,2.4-0.1,5.8c0,0.1,0,0.2,0,0.3c0,1.4,0,2.9,0.1,4.5
	c0,0.5,0.1,1,0.1,1.6c0.3,3.4,1.1,8.7,2.1,15.8c0.5,0.1,1,0.2,1.5,0.3c0,0,0.1,0,0.1,0.1c2.8,0.4,5.1,0.1,7.1-0.8l2.4-0.8
	c0.7-5.6,1.2-10.1,1.5-13.7c0-0.8,0.1-1.6,0.2-2.3c0-1.5,0.1-2.8,0.1-4.1c0-0.2-0.1-0.4-0.1-0.6c0-3.3,0.1-5.1,0.1-5.5
	c-0.3,0.1-0.5,0.1-0.8,0.2h-0.1c-0.1,0-0.2,0-0.3,0C46,208,46,208,45.9,208z"/>
<path class="st9" d="M50.1,170.5c-0.1,0.2-0.1,0.3-0.1,0.5c0,0.4-0.1,0.8-0.1,1.2c0,0,0,0.1,0,0.3c0,0-0.1,0.1-0.1,0.1v-0.3
	c0-0.4,0-0.9-0.1-1.3c0-0.1,0-0.3,0-0.5h-0.5c0,0.2,0.1,0.3,0.1,0.5c0.8,6.5-0.1,9.4-2.7,8.9v0.6c0.7,0.1,1.4,0,1.9-0.3
	c0.7-0.5,1.2-1.4,1.4-2.8v-0.3c0,0,0,0.1,0.1,0.1v0.1c0.3,1.4,0.7,2.3,1.4,2.8c0.5,0.3,1.1,0.3,1.8,0.3v-0.6
	c-2.6,0.5-3.5-2.5-2.7-8.9c0-0.1,0-0.3,0.1-0.5C50.3,170.5,50.2,170.5,50.1,170.5z"/>
<path class="st10" d="M50.1,170.5h-0.4c0,0,0.1,0,0.1,0.1h0.1C49.9,170.6,50,170.6,50.1,170.5z"/>
<path class="st11" d="M70.4,183.9c0,0,0.1-0.1,0.1-0.2c0-0.1,0-0.2,0-0.3c-0.1-0.3-0.2-0.7-0.3-1.2c0-0.1-0.1-0.2-0.1-0.3
	c-0.1-0.3-0.2-0.7-0.3-1c0-0.2-0.1-0.4-0.1-0.6v-0.1c-0.2-0.8-0.4-1.7-0.6-2.5c-0.3-1.5-0.6-3.1-1-4.9c-0.1-0.7-0.2-1.3-0.3-1.8
	c0-0.3,0-0.5-0.1-0.6c0-0.3-0.1-0.7-0.1-1L70.4,183.9z M70.4,183.9l-1.7,0.4 M70.4,183.9c0.1,0.4,0.2,0.8,0.3,1.1v0.1
	c0,0.2,0.1,0.4,0.1,0.6c0.3,1.6,0.3,2.8,0,3.7 M68.6,184.3l-4.6,1c0.1,0.8,0.2,1.6,0.3,2.2c0.3,1.5,0.9,2.5,1.5,3.1
	c0.3,0.3,1.4,0.3,3.4,0.2c0.2-0.1,0.4-0.1,0.5-0.1c0.6-0.3,0.9-0.8,1.1-1.4 M68.6,184.3l2.2,5 M70.8,189.3c0,1.2,0.1,2.2,0.3,3v0.2
	l0.4,2.3c0.3,1.6,0.2,3.1-0.1,4.7c0,0.4,0.1,0.8,0.2,1.1c0.1,1,0.1,1.9,0.1,2.7c0,0.3-0.1,0.6-0.2,0.8c-0.1,0.9-0.4,1.5-0.9,1.9
	c-0.3,0.3-0.6,0.5-1,0.6l-0.8,0.1c-0.2,0.1-0.5,0.2-0.8,0.5l-0.3,0.1 M67.6,207.1l-0.6,0.1 M67.6,207.1l-0.9,0.6
	c0.1-0.1,0.2-0.3,0.3-0.5 M65.4,235.4L65.4,235.4c-0.5,0.1-1,0.2-1.5,0.3c-2.8,0.4-5.2,0.2-7.3-0.8l-2.4-0.8c0,0.2,0,0.4,0.1,0.6
	l0.1,1.9l0.3,1.4 M65.4,235.4l0.1,0.1l-0.1,0.4 M65.4,235.4v0.5 M65.4,235.9l0.1,1.4c-0.1,1.2-0.2,1.8-0.3,1.7 M65.2,239.1
	c1.6,3.1,2.7,7.1,3.2,12v0.1 M65.2,239.1c-0.6,0.6-1.1,1-1.4,1.1 M65.2,239.1l-10.9-0.3 M68.4,251.1c0.1,0.4,0.2,0.9,0.1,1.6
	c0,0.1-0.5,0.3-1.4,0.5l-7.7,0.9l-8.1-1.1l-0.3-1.6h0.1 M68.4,251.1H68 M68.4,251.1l-17.2,0.3 M51.2,251.3c0,0,0-0.2,0-0.5
	c-0.1-0.2,0-0.9,0.1-2.1c0-0.4,0.1-1,0.2-1.6c0.1-0.6,0.2-1.1,0.3-1.6c0.3-1.5,0.7-2.8,1.1-3.7l1.3-3 M51.2,251.3h0.5 M54.2,238.7
	l0.5-0.5 M54.2,238.7L54.2,238.7l0.7,0.5 M54.8,238.2c0-0.1-0.1-0.2-0.1-0.3 M54.8,238.2L54.8,238.2l-0.1-0.3 M54.8,238.2l-0.1-0.3
	 M47.2,213.9c0-0.2,0-0.4,0-0.6V213.9z M47.2,213.9c0-0.2-0.1-0.4-0.1-0.6L47.2,213.9z M44.9,237.9l0.4-1.4v-1.9
	c0-0.2,0.1-0.4,0.1-0.6l-2.4,0.8c-2,0.9-4.3,1.2-7.1,0.8c0,0-0.1-0.1-0.1-0.1c-0.5-0.1-1-0.2-1.5-0.3h-0.1 M44.9,237.9
	c0,0.1,0,0.2-0.1,0.3 M44.9,237.9l-0.1,0.3v0.1 M44.9,237.9l-0.1,0.3 M44.9,238.2l0.5,0.5 M45.4,238.7l1.4,3c0.4,1,0.8,2.2,1.1,3.7
	c0,0.5,0.1,1.1,0.2,1.6c0.1,0.6,0.2,1.2,0.2,1.6c0.2,1.2,0.2,2,0.2,2.1c0,0.3,0,0.4,0,0.5 M45.4,238.7L45.4,238.7l-0.7,0.5
	 M45.4,238.7l-0.7,0.5 M48.5,251.3L48.5,251.3l-0.2,1.6l-8,1.1l-7.7-0.9c-0.9-0.2-1.4-0.3-1.3-0.5c-0.1-0.6-0.1-1.1,0.1-1.6
	 M48.5,251.3H48 M48.5,251.3l-1.9-2.8 M31.4,251.1L31.4,251.1c0.4-4.9,1.5-8.9,3.1-12 M31.4,251.1h0.3 M31.4,251.1l3-2.5
	 M34.5,239.1c-0.1,0.1-0.2-0.5-0.3-1.7l0.1-1.4 M34.5,239.1c0.6,0.6,1.1,1,1.4,1.1 M34.5,239.1l1.4,1.1 M34.2,235.9l-0.1-0.4
	l0.1-0.1 M34.2,235.9v-0.5 M32.1,207.1l-0.3-0.1c-0.4-0.2-0.7-0.4-0.9-0.5l-0.9-0.1c-0.4-0.1-0.7-0.3-1-0.6c-0.5-0.4-0.8-1.1-1-1.9
	c0-0.2-0.1-0.5-0.1-0.8c-0.1-0.7,0-1.6,0.1-2.7c0-0.3,0-0.7,0.1-1.1c-0.3-1.5-0.4-3.1-0.1-4.7l0.5-2.3v-0.2c0.2-0.8,0.3-1.8,0.3-3
	 M32.1,207.1l0.5,0.1 M32.1,207.1l0.9,0.6c-0.2-0.1-0.3-0.3-0.4-0.5 M28.8,189.3c-0.3-0.9-0.3-2.1,0-3.7c0-0.2,0.1-0.4,0.1-0.6V185
	c0.1-0.3,0.2-0.7,0.3-1.1 M28.8,189.3c0.2,0.6,0.6,1.1,1.1,1.4c0.2,0,0.4,0,0.5,0.1 M28.8,189.3l1.6,1.5 M29.3,183.9
	c0,0-0.1-0.1-0.1-0.2c0-0.1,0-0.2,0.1-0.3c0.1-0.3,0.2-0.7,0.3-1.2c0-0.1,0-0.2,0.1-0.3c0-0.3,0.1-0.7,0.2-1c0-0.2,0.1-0.4,0.2-0.6
	v-0.1c0.2-0.8,0.3-1.7,0.5-2.5c0.3-1.5,0.6-3.1,1-4.9c0.1-0.7,0.3-1.3,0.4-1.8c0-0.3,0.1-0.5,0.1-0.6c0-0.3,0.1-0.7,0.1-1v-0.1
	 M29.3,183.9l1.8,0.4 M49.2,170.5h0.5 M49.2,170.5c0,0.2,0.1,0.3,0.1,0.5c0.8,6.5-0.1,9.4-2.7,8.9v0.6c0.7,0.1,1.4,0,1.9-0.3
	c0.7-0.5,1.2-1.4,1.4-2.8L49.2,170.5z M49.7,170.5c0,0,0.1,0,0.1,0.1h0.1c0,0,0.1-0.1,0.2-0.1H49.7z M49.7,170.5c0,0.2,0,0.3,0,0.5
	c0.1,0.4,0.1,0.9,0.1,1.3L49.7,170.5z M31.1,184.3l4.5,1c0,0.8-0.1,1.6-0.3,2.2c-0.3,1.5-0.8,2.5-1.5,3.1c-0.3,0.3-1.4,0.3-3.4,0.2
	 M31.1,184.3l-0.6,6.5 M32.6,207.3l0.5,0.2h0.5l1.9,0.6l1.1,0.1l0.8-0.1 M32.6,207.3l14.6,0.6c-0.3,0.1-0.5,0.2-0.8,0.2h-0.1
	c-0.1,0-0.2,0-0.3,0s-0.2,0-0.2,0c-0.3,0-0.7,0-1,0l-6.3,0.3c-0.3,0-0.5-0.1-0.6-0.1 M37.5,208.1h0.3c0.1,0,0.2,0,0.3,0.1
	 M37.5,208.1l0.5,0.1 M61.6,208.2c-0.1,0-0.3,0.1-0.6,0.1l-6.3-0.3c-0.3,0-0.7,0-1,0c0,0-0.1,0-0.2,0c0,0-0.1,0-0.1,0
	c-0.1,0-0.2,0-0.2,0c-0.2,0-0.5-0.1-0.7-0.2L61.6,208.2z M61.6,208.2c0.1-0.1,0.2-0.1,0.3-0.1h0.3 M61.6,208.2l0.5-0.1 M62.1,208.1
	l0.9,0.1l1-0.1l1.9-0.6h0.6l0.5-0.2 M62.1,208.1l4.9-0.8 M44.7,239.2c-1.9,0.7-3.5,1.1-4.7,1.2h-3l-1.2-0.2 M44.7,239.2l0.5,1.5
	c0.2,0.6-0.5,1.1-2.1,1.4c2.3,0.6,3.5,2.8,3.6,6.5 M35.8,240.2c-0.9,1.5-0.6,2.2,0.8,1.9c-2.2,1.6-2.9,3.8-2.3,6.5 M34.4,248.6
	c0.5-0.9,1.3-1.5,2.5-1.6l7.2-0.2c0.9,0.1,1.5,0.2,1.9,0.4c0.4,0.2,0.6,0.7,0.7,1.4 M34.4,248.6c-1.4,0-2.3,0.9-2.8,2.5 M46.6,248.6
	c0.3,0,0.6,0.1,0.8,0.5c0.2,0.4,0.4,1,0.5,1.8c0,0.1,0,0.1,0,0.2l0.1,0.3 M55,239.2c1.9,0.7,3.5,1.1,4.7,1.2h3l1.2-0.2 M55,239.2
	l-0.4,1.5c-0.2,0.6,0.5,1.1,2.1,1.4c-2.3,0.6-3.5,2.8-3.6,6.5 M55,239.2l8.8,1 M63.8,240.2c0.9,1.5,0.6,2.2-0.8,1.9
	c2.2,1.6,3,3.8,2.3,6.5 M53,248.6c0.1-0.7,0.4-1.2,0.7-1.4c0.3-0.2,1-0.3,1.9-0.4l7.2,0.2c1.1,0.1,1.9,0.7,2.4,1.6 M53,248.6
	c-0.3,0-0.6,0.1-0.8,0.5c-0.2,0.4-0.4,1-0.5,1.8c0,0.1,0,0.1,0,0.2v0.3 M53,248.6l-1.4,2.8 M65.2,248.6c1.4,0,2.3,0.9,2.8,2.5
	 M68,251.1c-1.3,0.5-2.7,0.8-4.2,1l-10.2-0.3l-1.9-0.5 M48,251.3l-2,0.5l-10.2,0.3c-1.4-0.1-2.8-0.5-4.2-1 M48,251.3l-16.4-0.3
	 M52.3,207.8h-0.2c-0.1,0-0.2-0.1-0.3-0.1L52.3,207.8z M47.8,207.8c-0.1,0-0.2,0-0.3,0.1c0,0-0.1,0-0.1,0L47.8,207.8z M50.1,170.5
	c-0.1,0.2-0.1,0.3-0.1,0.5c0,0.4-0.1,0.8-0.1,1.2c0,0,0,0.1,0,0.3c0,0-0.1,0.1-0.1,0.1L50.1,170.5z M53,170.5c0,0.1,0,0.2,0,0.3
	c0.3,2.3,0.2,4.6-0.5,6.9L53,170.5z M49.8,177.2c0,0,0,0.1,0.1,0.1v0.1c0.3,1.4,0.7,2.3,1.4,2.8c0.5,0.3,1.1,0.3,1.8,0.3v-0.6
	c-2.6,0.5-3.5-2.5-2.7-8.9c0-0.1,0-0.3,0.1-0.5L49.8,177.2z M46.8,170.5c0,0.1-0.1,0.2-0.1,0.3c-0.3,2.3-0.2,4.6,0.4,6.9L46.8,170.5
	z M65.6,168.9c-0.2,0-0.3,0-0.4,0.1L65.6,168.9z M64,244.4c-2.8-1.6-5.7-1.7-8.5-0.2h-0.1l0.1,1.2c2.8-1.6,5.6-1.5,8.5,0.1V244.4z
	 M35.7,244.4c2.8-1.6,5.7-1.7,8.5-0.2l-0.1,1.2c-2.8-1.6-5.6-1.5-8.4,0.1V244.4z"/>
<path class="st12" d="M49.7,170.5h0.4h0"/>
<path class="st13" d="M50.1,170.5c0.1,0,0.2,0,0.3,0"/>
<path class="st14" d="M67.6,207.5c0-0.2,0-0.3,0-0.4c0,1.4,0.1,9.4,0,10.9c0,0.5,0,1-0.1,1.6c-0.3,3.4-1.1,8.7-2.1,15.8 M54.2,234.1
	c-0.7-5.6-1.2-10.1-1.5-13.7c0-0.8-0.1-1.6-0.1-2.3c-0.1-1.5-0.1-2.8-0.1-4.1c0-0.2,0-0.4,0-0.6c0-3.3,0-5.1,0-5.5 M34.3,235.4
	c-1.1-7.1-1.8-12.3-2.1-15.8c0-0.6-0.1-1.1-0.1-1.6c-0.1-1.6-0.1-3-0.1-4.5c0-0.1,0-0.2,0-0.3c0-3.4,0-5.3,0.1-5.8
	c0-0.2,0-0.3,0.1-0.4 M47.2,207.8c0,0.3,0,2.2-0.1,5.5L47.2,207.8z M47.2,213.9c0,1.3-0.1,2.7-0.1,4.1c-0.1,0.8-0.2,1.6-0.2,2.3
	c-0.3,3.6-0.8,8.1-1.5,13.7L47.2,213.9z"/>
<path class="st15" d="M71.3,146.8L71.3,146.8l0-0.4L71.3,146.8z M76.4,118.5l-0.1-0.4L76.4,118.5L76.4,118.5z"/>
<path class="st16" d="M46,113c5,1.2,9.9,0.9,14.8-0.9l1.9-0.9l0.1-0.3l0.1-1.6c0.3-4.2-0.8-6.5-3.3-7l0,2.2
	c-5,3.7-10.6,3.6-16.7-0.5l0-2.1c-2.8-0.3-4,1.9-3.7,6.4l0.2,2.1l0,0.1l1.2,0.6C42.4,112,44.2,112.6,46,113z M71.7,132.7l0.6-3.3
	c0.7-0.6,1.3-1.3,1.8-1.9c2.1-2.7,2.8-5.7,2.3-9l0,0l0-0.4l-0.7-2.6l-0.9-2.1c-2.3-2.3-6.3-3.7-11.9-4l-0.1,1.6l-0.1,0.3l-1.9,0.9
	c-4.8,1.8-9.7,2.1-14.8,0.9c-1.8-0.4-3.6-1-5.4-1.8l-1.2-0.6l0-0.1l-0.2-2.1c-4.2,0.7-7.9,1.8-11.3,3.3c-1.7,1.8-2.7,3.8-3,5.9
	c-0.5,3.5,0.7,7.3,3.8,11.5c0.9,5,1.3,10,1.2,15.3l-0.4,14.2L29,169.4c5.8,1.7,11.5,2.9,17.3,3.4c0,0,0.1,0,0.1,0
	c8.1,0.8,16.3,0.4,24.6-1.2l0.4-24.8l0-0.4l0-0.2C70.9,141.7,71.1,137.2,71.7,132.7z"/>
<path class="st17" d="M59.6,102.3l0.2-8.5c-4.9-2.3-10.5-2.2-16.7,0.2l-0.2,8l0,2.1c6.1,4.1,11.7,4.2,16.7,0.5L59.6,102.3z"/>
<path class="st18" d="M42.9,101.9l0.2-8c6.2-2.4,11.8-2.5,16.7-0.2l-0.2,8.5"/>
<path class="st19" d="M13.6,142.2c0,0.9-0.1,1.7-0.2,2.6c-0.3,1-0.5,2-0.5,2.9c-0.1,0.9-0.2,1.7-0.3,2.6c-0.1,0.9-0.2,1.8-0.2,2.7
	c0.1,0.9,0.1,1.9,0.1,2.8c0,1,0,2,0.2,3c0.1,0.9,0.2,1.8,0.4,2.7c0.2,1,0.4,2.1,0.8,3.1c0.2,0.9,0.4,1.7,0.5,2.6
	c0.1,0.8,0.2,1.5,0.4,2.2c0.1-3,0.1-7.8,0-14.3c-0.8-1-0.9-3.1-0.3-6.3c0.6-3.2,1.1-7.1,1.3-11.6c-0.5-0.2-1-0.4-1.4-0.7
	c-0.2,1.2-0.4,2.4-0.5,3.6c-0.1,0.6-0.2,1.2-0.2,1.7L13.6,142.2z"/>
<path class="st20" d="M24.4,181.6c0.1-0.4,0.1-0.9-0.1-1.3l0.1-3.6c-0.3-0.9-0.6-1.7-0.8-2.5c-0.4-0.9-0.8-1.7-1.4-2.5
	c-0.1-0.1-0.2-0.2-0.3-0.4l-0.3-0.4c0-0.4,0.1-0.7,0.2-0.9c0.1-1,0.2-2,0.2-3l1.4-11c0-0.7,0-1.3,0-1.9c0-1.5,0-2.6-0.1-3.5l1-11.3
	c-0.6,0-1.2-0.1-1.8-0.2c-2.4-0.3-4.7-0.9-6.7-1.9c-0.2,4.5-0.6,8.3-1.3,11.6c-0.6,3.2-0.5,5.3,0.3,6.3c0.1,6.5,0.1,11.3,0,14.3
	c0,0.2,0,0.3,0,0.4c0,0.2,0,0.3,0.1,0.5c0,0.4-0.1,0.9-0.3,1.3c-0.4,1-0.7,2-0.9,3.1c-0.3,0.9-0.5,1.8-0.5,2.7c0,0.8,0,1.5,0,2.2
	c0.1,1,0.3,1.8,0.7,2.6c0.3,0.5,0.7,1.1,1.3,1.7c0.7,0.7,1.5,1.2,2.4,1.6c-0.7-0.7-1.3-1.5-2-2.2c-0.6-0.7-0.9-1.5-1-2.5
	c-0.1-0.8-0.1-1.5-0.1-2.2c0,0.7,0,1.4,0.1,2.2c0.1,0.9,0.4,1.8,1,2.5c0.7,0.8,1.3,1.5,2,2.2c0.1,0.1,0.2,0.2,0.4,0.4
	c0.4,0.1,0.8,0.2,1.2,0.4c-0.9-0.8-1.6-1.6-2.3-2.4c-0.4-0.5-0.6-1.1-0.7-1.7c-0.2-0.9-0.3-1.9-0.4-2.8c0.1,0.9,0.2,1.9,0.4,2.8
	c0.1,0.6,0.3,1.2,0.7,1.7c0.7,0.8,1.4,1.6,2.3,2.4c0.5,0.3,1,0.6,1.7,0.7l0.5-0.8c-0.9-0.6-1.7-1.3-2.4-2c-0.3-0.3-0.6-0.6-0.8-0.9
	c-0.4-0.7-0.6-1.5-0.7-2.3c-0.1-0.7-0.2-1.3-0.3-1.9c0.1,0.6,0.2,1.3,0.3,1.9c0.1,0.9,0.3,1.6,0.7,2.3c0.3,0.4,0.6,0.7,0.8,0.9
	c0.8,0.7,1.6,1.4,2.4,2l0.9,0.2c0.2-0.2,0.3-0.3,0.3-0.5c0-0.2,0-0.3,0-0.4c-0.1-0.4-0.4-0.6-0.9-0.8l-0.3-0.3
	c-0.1-0.7-0.4-1.3-1-1.7c0-0.2,0-0.3,0-0.4c0.1-0.8,0.1-1.6-0.1-2.3l0.4-0.8l0.6-0.1c-0.1,0.9,0,1.7,0.4,2.5c0.2,0.6,0.6,1,1.3,1.3
	l1.2-0.2C24.2,182.3,24.3,181.9,24.4,181.6z"/>
<path class="st16" d="M25.2,139.3c0-0.4,0.1-1.1,0.2-2c-1-0.1-1.6-0.2-2-0.2c-0.3,0-0.6-0.1-1-0.2c-1.8-0.2-3.6-0.6-5.2-1.3
	c-0.8-0.4-1.5-0.7-2.2-1.1c-0.1,0-0.2,0-0.3-0.1l-1.3-0.8l-0.5,1.9l0,0.1c0.5,0.3,0.9,0.5,1.3,0.8c0.5,0.3,1,0.5,1.4,0.7
	c2.1,1,4.3,1.6,6.7,1.9c0.6,0.1,1.2,0.2,1.8,0.2C24.4,139.3,24.8,139.3,25.2,139.3z M31.3,112.8l-1.4-1.1l0-0.9l-1,0.2
	c-1.2,0.3-1.8,0.5-1.9,0.5c-1.7,0.4-3.5,1.6-5.3,3.6c-0.2,0.2-0.4,0.5-0.7,0.9c-0.1,0.2-0.2,0.3-0.3,0.5c-0.1,0.1-0.2,0.2-0.3,0.3
	c-0.1,0.2-0.2,0.3-0.3,0.5c-1,1.4-1.8,2.8-2.4,4.2l-2.3,5.2c-0.1,0.3-0.3,0.8-0.4,1.4c-0.1,0.2-0.2,0.3-0.2,0.5
	c-0.2,0.5-0.4,1.1-0.5,1.8l0,0.1l-0.8,3.1l1.3,0.8c0.1,0.1,0.2,0.1,0.3,0.1c0.7,0.4,1.4,0.7,2.2,1.1c1.6,0.6,3.4,1.1,5.2,1.3
	c0.4,0.1,0.7,0.1,1,0.2c0.4,0,1,0.1,2,0.2c0-0.4,0.8-1.3,2.2-2.7c0-0.1,0.1-0.2,0.2-0.3c0-0.2,0.1-0.3,0.2-0.4
	c0.2-0.3,0.4-0.6,0.6-0.9c0.6-0.9,1.2-1.6,1.9-2l1.4-2.9L31.3,112.8z"/>
<path class="st11" d="M14.3,136.5c0.5,0.3,1,0.5,1.4,0.7 M29.9,110.8l-1,0.2c-1.2,0.3-1.8,0.5-1.9,0.5c-1.7,0.4-3.5,1.6-5.3,3.6
	c-0.2,0.2-0.4,0.5-0.7,0.9c-0.1,0.2-0.2,0.3-0.3,0.5c-0.1,0.1-0.2,0.2-0.3,0.3c-0.1,0.2-0.2,0.3-0.3,0.5c-1,1.4-1.8,2.8-2.4,4.2
	l-2.3,5.2c-0.1,0.3-0.3,0.8-0.4,1.4c-0.1,0.2-0.2,0.4-0.2,0.5c-0.2,0.5-0.4,1.1-0.5,1.8l0,0.1l-0.8,3.1l1.3,0.8
	c0.1,0.1,0.2,0.1,0.3,0.1c0.7,0.4,1.4,0.7,2.2,1.1c1.6,0.6,3.4,1.1,5.2,1.3c0.4,0.1,0.7,0.1,1,0.2c0.4,0,1,0.1,2,0.2
	c0-0.4,0.8-1.3,2.2-2.7c0-0.1,0.1-0.2,0.2-0.3c0-0.2,0.1-0.3,0.2-0.4L29.9,110.8z M30.2,110.8c-0.1,0-0.2,0-0.3,0L30.2,110.8z
	 M24.2,139.3c0.2,0,0.5,0,1,0c0-0.4,0.1-1.1,0.2-2L24.2,139.3z M14.3,136.5c-0.4-0.3-0.8-0.5-1.3-0.8l0-0.1l0.5-1.9L14.3,136.5z
	 M15.7,137.2c2.1,1,4.3,1.6,6.7,1.9c0.6,0.1,1.2,0.2,1.8,0.2L15.7,137.2z"/>
<path class="st21" d="M21.2,186.1l0.9,0.1c0.2-0.2,0.3-0.3,0.3-0.5c0-0.2,0-0.3,0-0.4c-0.1-0.4-0.4-0.6-0.9-0.8l-0.3-0.3
	c-0.1-0.7-0.4-1.3-1-1.7c0-0.2,0-0.3,0-0.4c0.1-0.8,0.1-1.6-0.1-2.3l0.4-0.8l0.6-0.1c-0.1,0.9,0,1.7,0.4,2.5c0.2,0.6,0.6,1,1.3,1.3
	l1.2-0.2c0.1-0.3,0.2-0.7,0.3-1c0.1-0.4,0.1-0.9-0.1-1.3l0.1-3.6c-0.3-0.9-0.6-1.7-0.8-2.5c-0.4-0.9-0.8-1.7-1.4-2.5
	c-0.1-0.1-0.2-0.2-0.3-0.4l-0.3-0.4c0-0.4,0.1-0.7,0.2-0.9c0.1-1,0.2-2,0.2-3l1.4-11c0-0.7,0-1.3,0-1.9c0-1.5,0-2.6-0.1-3.5l1-11.3
	l-9.9-2.8c-0.2,1.2-0.4,2.4-0.5,3.6c-0.1,0.6-0.2,1.2-0.2,1.7l0,0.4c0,0.9-0.1,1.7-0.2,2.6c-0.3,1-0.5,2-0.5,2.9
	c-0.1,0.9-0.2,1.7-0.3,2.6c-0.1,0.9-0.2,1.8-0.2,2.7c0.1,0.9,0.1,1.9,0.1,2.8c0,1,0,2,0.2,3c0.1,0.9,0.2,1.8,0.4,2.7
	c0.2,1,0.4,2.1,0.8,3.1c0.2,0.9,0.4,1.7,0.5,2.6c0.1,0.8,0.2,1.5,0.4,2.2c0,0.2,0,0.3,0,0.4c0,0.2,0,0.3,0.1,0.5
	c0,0.4-0.1,0.9-0.3,1.3c-0.4,1-0.7,2-0.9,3.1c-0.3,0.9-0.5,1.8-0.5,2.7c0,0.8,0,1.5,0,2.2c0.1,1,0.3,1.8,0.7,2.6
	c0.3,0.5,0.7,1.1,1.3,1.7c0.7,0.7,1.5,1.2,2.4,1.6 M21.2,186.1l-0.5,0.8c-0.7-0.1-1.2-0.3-1.7-0.7 M21.2,186.1
	c-0.9-0.6-1.7-1.3-2.4-2c-0.3-0.3-0.6-0.6-0.8-0.9c-0.4-0.7-0.6-1.5-0.7-2.3c-0.1-0.7-0.2-1.3-0.3-1.9 M19,186.2
	c-0.4-0.2-0.8-0.3-1.2-0.4c-0.2-0.2-0.3-0.3-0.4-0.4 M19,186.2l-3.3-6.9 M17.5,185.4c-0.7-0.7-1.3-1.5-2-2.2c-0.6-0.7-0.9-1.5-1-2.5
	c-0.1-0.8-0.1-1.5-0.1-2.2"/>
<path class="st20" d="M83.9,137.6c-2.1,0.9-4.4,1.4-6.8,1.6c-0.6,0.1-1.2,0.1-1.8,0.1l0.5,11.4c-0.1,0.8-0.2,2-0.2,3.5
	c0,0.6,0,1.2,0,1.9l0.9,11.1c0,1,0,1.9,0.1,3c0.1,0.3,0.1,0.6,0.1,0.9l-0.3,0.4c-0.1,0.2-0.2,0.3-0.3,0.4c-0.6,0.8-1.1,1.6-1.5,2.4
	c-0.3,0.8-0.6,1.6-0.9,2.4l-0.1,3.6c-0.2,0.4-0.2,0.8-0.2,1.3c0.1,0.4,0.2,0.7,0.3,1l1.2,0.3c0.7-0.2,1.1-0.7,1.3-1.3
	c0.4-0.8,0.6-1.6,0.5-2.4l0.6,0.1l0.4,0.8c-0.2,0.7-0.3,1.5-0.2,2.3c0,0.1,0,0.2,0,0.4c-0.6,0.4-0.9,1-1,1.7l-0.3,0.3
	c-0.5,0.2-0.8,0.4-0.9,0.8c0,0.1,0,0.2,0,0.4c0,0.2,0.1,0.4,0.3,0.5l0.9-0.1c0.9-0.6,1.7-1.2,2.5-1.9c0.3-0.2,0.6-0.5,0.9-0.9
	c0.4-0.7,0.6-1.4,0.8-2.3c0.1-0.7,0.2-1.3,0.3-1.9c-0.1,0.6-0.2,1.2-0.3,1.9c-0.1,0.9-0.4,1.6-0.8,2.3c-0.3,0.3-0.6,0.6-0.9,0.9
	c-0.8,0.7-1.6,1.3-2.5,1.9l0.4,0.8c0.7-0.1,1.3-0.3,1.7-0.6c0.9-0.8,1.7-1.5,2.4-2.3c0.4-0.5,0.6-1.1,0.8-1.7
	c0.2-0.9,0.4-1.9,0.5-2.8c-0.1,0.9-0.3,1.9-0.5,2.8c-0.1,0.6-0.4,1.2-0.8,1.7c-0.7,0.8-1.5,1.5-2.4,2.3c0.4-0.2,0.8-0.3,1.2-0.4
	c0.2-0.2,0.3-0.3,0.4-0.4c0.7-0.7,1.4-1.4,2.1-2.2c0.6-0.7,0.9-1.5,1.1-2.4c0.1-0.8,0.2-1.5,0.2-2.2c0,0.7-0.1,1.4-0.2,2.2
	c-0.1,0.9-0.5,1.7-1.1,2.4c-0.7,0.8-1.4,1.5-2.1,2.2c1-0.3,1.8-0.8,2.5-1.5c0.6-0.6,1-1.1,1.3-1.6c0.4-0.8,0.7-1.6,0.8-2.6
	c0-0.7,0-1.4,0-2.2c0-0.9-0.1-1.8-0.4-2.7c-0.2-1-0.4-2.1-0.8-3.1c-0.2-0.4-0.3-0.9-0.3-1.3c0.1-0.2,0.2-0.3,0.2-0.5
	c0-0.1,0-0.2,0-0.4c0.1-3,0.3-7.8,0.6-14.3c0.9-1,1.1-3.1,0.6-6.3C84.2,146,84,142.1,83.9,137.6z"/>
<path class="st8" d="M85.8,140.6c-0.1-1.2-0.2-2.4-0.3-3.6c-0.5,0.3-1,0.5-1.5,0.6c0,4.5,0.3,8.3,0.8,11.6c0.5,3.2,0.3,5.3-0.6,6.3
	c-0.3,6.5-0.5,11.3-0.6,14.3c0.2-0.7,0.4-1.4,0.5-2.2c0.2-0.8,0.4-1.7,0.6-2.6c0.4-1,0.7-2,0.9-3.1c0.2-1,0.4-1.9,0.5-2.7
	c0.2-0.9,0.3-1.9,0.3-2.9c0-1,0.1-1.9,0.2-2.8c0-0.9,0-1.8-0.1-2.7c-0.1-0.9-0.1-1.7-0.2-2.6c0-0.9-0.1-1.9-0.4-3
	c-0.1-0.9-0.1-1.7-0.1-2.6l0-0.4C85.9,141.8,85.9,141.2,85.8,140.6z"/>
<path class="st16" d="M86.3,134.2l-1.3,0.7c-0.1,0.1-0.2,0.1-0.3,0.1c-0.7,0.3-1.4,0.6-2.2,1c-1.6,0.6-3.4,0.9-5.2,1.1
	c-0.4,0.1-0.7,0.1-1,0.1c-0.4,0-1,0-2,0.1c0.1,0.9,0.1,1.6,0.1,2.1c0.5,0,0.8,0,1,0c0.6,0,1.2,0,1.8-0.1c2.4-0.2,4.7-0.7,6.8-1.6
	c0.5-0.2,1-0.4,1.5-0.6c0.4-0.2,0.8-0.5,1.3-0.7l0-0.1L86.3,134.2z M71.9,111l-1-0.3l0,0.9l-1.5,1l-1.2,15.3l1.2,3
	c0.7,0.5,1.3,1.2,1.8,2.1c0.2,0.3,0.4,0.6,0.6,0.9c0.1,0.1,0.1,0.2,0.1,0.4c0.1,0.1,0.1,0.2,0.1,0.3c1.4,1.4,2.1,2.3,2.1,2.8
	c1-0.1,1.6-0.1,2-0.1c0.3,0,0.6,0,1-0.1c1.9-0.1,3.6-0.5,5.2-1.1c0.8-0.3,1.5-0.6,2.2-1c0.1,0,0.2,0,0.3-0.1l1.3-0.7l-0.7-3.1l0-0.1
	c-0.1-0.7-0.2-1.3-0.4-1.8c0-0.2,0-0.4-0.1-0.5c-0.2-0.6-0.3-1.1-0.4-1.4l-2.1-5.3c-0.5-1.5-1.3-2.9-2.2-4.3
	c-0.1-0.2-0.2-0.3-0.3-0.5c-0.1-0.1-0.2-0.2-0.3-0.3c-0.1-0.2-0.2-0.4-0.3-0.5c-0.3-0.4-0.5-0.7-0.7-0.9c-1.7-2.1-3.4-3.4-5.1-3.9
	C73.7,111.5,73.1,111.3,71.9,111z"/>
<path class="st11" d="M85.4,137c-0.5,0.3-1,0.5-1.5,0.6 M70.6,110.7c0.1,0,0.2,0,0.3,0l1,0.3c1.1,0.4,1.8,0.5,1.9,0.5
	c1.7,0.5,3.4,1.7,5.1,3.9c0.2,0.3,0.4,0.6,0.7,0.9c0.1,0.2,0.2,0.3,0.3,0.5c0.1,0.1,0.2,0.2,0.3,0.3c0.1,0.2,0.2,0.3,0.3,0.5
	c0.9,1.4,1.7,2.8,2.2,4.3l2.1,5.3c0.1,0.3,0.2,0.8,0.4,1.4c0.1,0.2,0.1,0.4,0.1,0.5c0.2,0.5,0.3,1.1,0.4,1.8l0,0.1l0.7,3.1l0.4,1.9
	l0,0.1c-0.5,0.3-0.9,0.5-1.3,0.7L70.6,110.7z M75.4,139.4c-0.2,0-0.5,0-1,0c0-0.4,0-1.1-0.1-2.1c0-0.4-0.7-1.4-2.1-2.8
	c0-0.1,0-0.2-0.1-0.3c0-0.2,0-0.3-0.1-0.4L75.4,139.4z M86.3,134.2l-1.3,0.7c-0.1,0.1-0.2,0.1-0.3,0.1c-0.7,0.3-1.4,0.6-2.2,1
	c-1.6,0.6-3.4,0.9-5.2,1.1c-0.4,0.1-0.7,0.1-1,0.1c-0.4,0-1,0-2,0.1L86.3,134.2z M84,137.6c-2.1,0.9-4.4,1.4-6.8,1.6
	c-0.6,0.1-1.2,0.1-1.8,0.1L84,137.6z"/>
<path class="st21" d="M80.2,185.7c1-0.3,1.8-0.8,2.5-1.5c0.6-0.6,1-1.1,1.3-1.6c0.4-0.8,0.7-1.6,0.8-2.6c0-0.7,0-1.4,0-2.2
	c0-0.9-0.1-1.8-0.4-2.7c-0.2-1-0.4-2.1-0.8-3.1c-0.2-0.4-0.3-0.9-0.3-1.3c0.1-0.2,0.2-0.3,0.2-0.5c0-0.1,0-0.2,0-0.4
	c0.2-0.7,0.4-1.4,0.5-2.2c0.2-0.8,0.4-1.7,0.6-2.6c0.4-1,0.7-2,0.9-3.1c0.2-1,0.4-1.9,0.5-2.7c0.2-0.9,0.3-1.9,0.3-2.9
	c0-1,0.1-1.9,0.2-2.8c0-0.9,0-1.8-0.1-2.7c-0.1-0.9-0.1-1.7-0.2-2.6c0-0.9-0.1-1.9-0.4-3c-0.1-0.9-0.1-1.7-0.1-2.6l0-0.4
	c0-0.5,0-1.1-0.1-1.7c-0.1-1.2-0.2-2.4-0.3-3.6l-10,2.4l0.5,11.4c-0.1,0.8-0.2,2-0.2,3.5c0,0.6,0,1.2,0,1.9l0.9,11.1
	c0,1,0,1.9,0.1,3c0.1,0.3,0.1,0.6,0.1,0.9l-0.3,0.4c-0.1,0.2-0.2,0.3-0.3,0.4c-0.6,0.8-1.1,1.6-1.5,2.4c-0.3,0.8-0.6,1.6-0.9,2.4
	l-0.1,3.6c-0.2,0.4-0.2,0.8-0.2,1.3c0.1,0.4,0.2,0.7,0.3,1l1.2,0.3c0.7-0.2,1.1-0.7,1.3-1.3c0.4-0.8,0.6-1.6,0.5-2.4l0.6,0.1
	l0.4,0.8c-0.2,0.7-0.3,1.5-0.2,2.3c0,0.1,0,0.2,0,0.4c-0.6,0.4-0.9,1-1,1.7l-0.3,0.3c-0.5,0.2-0.8,0.4-0.9,0.8c0,0.1,0,0.2,0,0.4
	c0,0.2,0.1,0.4,0.3,0.5l0.9-0.1 M80.2,185.7c-0.1,0.1-0.2,0.2-0.4,0.4c-0.4,0.1-0.8,0.2-1.2,0.4 M80.2,185.7
	c0.7-0.7,1.4-1.4,2.1-2.2c0.6-0.7,0.9-1.5,1.1-2.4c0.1-0.8,0.2-1.5,0.2-2.2 M78.6,186.5c-0.5,0.3-1.1,0.5-1.7,0.6l-0.4-0.8
	 M78.6,186.5c0.9-0.8,1.7-1.5,2.4-2.3c0.4-0.5,0.6-1.1,0.8-1.7c0.2-0.9,0.4-1.9,0.5-2.8 M76.4,186.3c0.9-0.6,1.7-1.2,2.5-1.9
	c0.3-0.2,0.6-0.5,0.9-0.9c0.4-0.7,0.6-1.4,0.8-2.3c0.1-0.7,0.2-1.3,0.3-1.9"/>
<path class="st22" d="M42.3,146.5c0,0,0.5-8.4,3.9-12.2c0.8-0.9,1.4-1.5,1.8-1.9c0.9-0.8,1-0.3,0.5,0.7c-0.6,1.1-1.4,2.7-2,4.6
	c-1.2,3.5-0.6,8.7-0.6,8.7H42.3z"/>
<path class="st22" d="M58.8,136.5c-1.5,4.7-6.6,7.3-11.3,5.8c-0.4-0.1-0.7-0.3-1-0.4c0-0.1,0-0.1,0-0.2c0.1-1,0.3-2,0.6-3
	c0.4,0.3,0.9,0.5,1.4,0.7c3.1,1,6.4-0.7,7.4-3.8c1-3.1-0.7-6.4-3.8-7.4c-3.1-1-6.4,0.7-7.4,3.8c-0.4,1.3-0.4,2.6,0.1,3.8
	c-0.9,0.9-1.5,2-1.9,3.1c-1.6-2.2-2.1-5.2-1.2-8c1.5-4.7,6.6-7.3,11.3-5.8C57.7,126.7,60.3,131.7,58.8,136.5z"/>
<path class="st23" d="M93.2,59.4l2.2-0.1c0.9,0.2,1.8,0.5,2.6,0.9c5.6-22.9-2-39.1-22.7-48.7C92.5,20.9,98.5,36.9,93.2,59.4z
	 M2.5,29.9c2.4-3.6,5.6-5.4,9.5-5.4C2.6,34.5,1.1,45,7.7,56c1.1,0.2,2.3,0.6,3.6,1.4c-6.8-11.9-3.8-25.7,9-41.5
	C10.1,18.3,4.2,23,2.5,29.9z"/>
<path class="st8" d="M100.3,70.8c2.8-2.7,2.9-5.6,0.4-8.7c-0.7-0.7-1.4-1.2-2.2-1.7l-0.5-0.2c-0.8-0.4-1.7-0.7-2.6-0.9l-2.2,0.1
	c-2.5,0.5-4.9,2.2-7.1,5.1l-0.4,4.9l3-2.7c2.1-1.6,4.3-2.7,6.8-3.1c-2.5,0.4-4.7,1.5-6.8,3.1c2.7,3.4,2.9,5.6,0.4,6.6l-0.3,0.2
	l0.3-0.2c2.5-1,2.3-3.2-0.4-6.6l-3,2.7c-0.3,4-0.3,7.6,0,10.7l0,0.7C90.6,78.5,95.5,75.2,100.3,70.8z M7.7,56l-1.5-0.1
	c-0.8,0-1.5,0.2-2.2,0.6c-1,0.6-1.7,1.3-2.3,2c-2.6,3.1-1.7,6.9,2.6,11.6c4.4,4.3,8.8,7.1,13.2,8.2l-0.1-0.5l0-1.2l0.3-1.6
	c0.2-1.5,0-3.5-0.4-6c-0.8-1.6-1.7-3-2.8-4.1l-1-0.9c-3.6,3.1-3.5,5.7,0.2,7.8C10.1,69.6,10,67,13.6,64c-2.1-1.7-4.8-2.9-8.1-3.6
	c3.3,0.6,6,1.8,8.1,3.6l1,0.9c1,1.1,2,2.5,2.8,4.1l-0.5-2.6c-0.4-1.8-0.7-3.6-0.9-5.4c-1.7-1.6-3.2-2.8-4.6-3.6
	C9.9,56.6,8.7,56.2,7.7,56z M58.2,45.4c1.3-0.8,2.6-1.4,3.9-1.7C51.8,40.5,43.6,35.6,37.4,29l-2.1-2.4C20.9,35.5,14.4,46.9,15.9,61
	c0.2,1.8,0.5,3.6,0.9,5.4l0.5,2.6c0.4,2.5,0.6,4.6,0.4,6l-0.3,1.6l0,1.2l0.1,0.5l0.1,0.7c1.3,9.3,7.5,16.2,18.4,20.6
	c7.1,2.9,14,3.9,20.6,3.1c3.2-0.4,6.4-1.2,9.5-2.5c8.4-3.4,14.6-8.7,18.4-15.8l1.1-2.8l0.1-0.8l0-0.7c-0.2-3.2-0.2-6.8,0-10.7
	l0.4-4.9l0.1-1.4c1.5-5.1,0.6-10-2.6-14.7c-10.8-3.5-20.1-9-27.8-16.6c2,4.3,5.2,8.2,9.6,11.5c2.8,0.1,5.5,1.4,8.2,3.9
	c-5.3-2.5-10.1-2.4-14.4,0.5L58.2,45.4z M42.9,43.7L42,46.6c-4.5-3.2-9.3-3.1-14.4,0.3C32.2,41.1,37.3,40.1,42.9,43.7z M45.3,71.3
	l0,0.4L43,72.3l-0.7,0.2c-3.7,0.7-6.7,0.6-9-0.5l-0.3-0.1c-1.3-0.7-2.3-1.6-3.1-2.9l-0.2-0.2c0.2-9.4,3-13.6,8.4-12.7
	C43.5,57.2,45.9,62.2,45.3,71.3z M46.1,76.5c0-0.4,0.1-0.7,0.3-1c0.3-0.3,0.7-0.7,1.2-0.9c1-0.5,2.2-0.7,3.6-0.7
	c1.4,0,2.6,0.3,3.5,0.9l1,0.9c0.3,0.4,0.4,0.7,0.4,1.1c0,0.8-0.5,1.4-1.5,1.9c-1,0.5-2.2,0.8-3.6,0.8c-1.4,0-2.5-0.3-3.5-0.9
	C46.5,78,46.1,77.3,46.1,76.5z M40.6,84.4L40,85.2c-0.4,0.4-0.8,0.6-1.4,0.8c0.5-0.2,1-0.4,1.4-0.8L40.6,84.4c0.3-0.6,0.5-1.2,0.5-2
	l0-0.3l0,0.3C41.2,83.2,41,83.9,40.6,84.4c1.8,0.7,3.5,1.3,5.2,1.7c4,1,7.7,1,11.1,0.1c1.6-0.4,3.1-1,4.5-1.8
	c-1.4,0.8-2.9,1.4-4.5,1.8l0.1,0.6c0,1-0.4,1.8-1.1,2.5l-0.6,0.5c-1.1,0.8-2.4,1.2-4,1.2s-2.7-0.2-3.4-0.6l-1.6-1.2
	c-0.4-0.8-0.6-1.7-0.5-2.6l0-0.5C44.1,85.7,42.4,85.2,40.6,84.4z M73.2,69.3L73,69.6c-0.8,1.2-2,2-3.3,2.6l-0.2,0.1
	c-2.3,0.9-5.3,1-9.1,0.1l-0.6-0.2l-2.2-0.7l0-1c-0.3-8.2,2.2-12.8,7.5-14C70.5,55.4,73.2,59.6,73.2,69.3z M61.8,84.4
	c-0.6-0.7-0.9-1.5-1-2.5C60.9,82.9,61.2,83.7,61.8,84.4c0.4,0.5,0.9,0.8,1.4,1C62.7,85.2,62.2,84.9,61.8,84.4z M47.3,93.6
	c2.5,0.9,4.6,1,6.5,0.1C51.9,94.6,49.8,94.5,47.3,93.6z M47.5,76.3c1,0.6,2.2,0.9,3.5,0.9c1.4,0,2.6-0.2,3.6-0.8l1.2-0.8l-1-0.9
	c-1-0.5-2.1-0.8-3.5-0.9c-1.4,0-2.6,0.2-3.6,0.7c-0.5,0.3-0.9,0.6-1.2,0.9L47.5,76.3z"/>
<path class="st24" d="M73,69.6l0.2-0.3c0-9.7-2.8-13.9-8.2-12.7c-5.3,1.2-7.8,5.8-7.5,14c0.5-6,3-9.5,7.4-10.4
	C69.7,59,72.4,62.2,73,69.6z M30,69c0.7-7.1,3.4-10.2,8.2-9.3c4.6,0.8,7,4.7,7.2,11.6c0.6-9.1-1.8-14.1-7.1-15.1
	c-5.4-1-8.2,3.2-8.4,12.7L30,69z"/>
<path class="st22" d="M68.4,65.6c0.9,1.5,1.4,3.3,1.4,5.4l-0.1,1.2c1.4-0.6,2.5-1.4,3.3-2.6c-0.6-7.4-3.3-10.5-8.1-9.5
	c-4.4,1-6.9,4.5-7.4,10.4l0,1l2.2,0.7l-0.1-1.4c0-2.1,0.6-3.9,1.6-5.4c1-1.5,2.2-2.2,3.6-2.2C66.3,63.3,67.5,64.1,68.4,65.6z
	 M41.8,65.5c1,1.5,1.4,3.3,1.4,5.4L43,72.3l2.3-0.6l0-0.4c-0.2-6.9-2.6-10.8-7.2-11.6c-4.7-0.9-7.5,2.2-8.2,9.3
	c0.8,1.2,1.8,2.2,3.1,2.9l0-1.2c0-2.1,0.6-3.9,1.6-5.4c1-1.5,2.2-2.2,3.6-2.2C39.6,63.2,40.8,64,41.8,65.5z"/>
<path class="st25" d="M69.8,71c0-2.1-0.4-3.9-1.4-5.4c-1-1.5-2.1-2.3-3.5-2.3c-1.4,0-2.6,0.7-3.6,2.2c-1,1.5-1.6,3.2-1.6,5.4
	l0.1,1.4l0.6,0.2c3.8,0.8,6.8,0.8,9.1-0.1l0.2-0.1L69.8,71z M43.1,70.9c0-2.1-0.4-3.9-1.4-5.4c-0.9-1.5-2.1-2.3-3.5-2.3
	c-1.4,0-2.6,0.7-3.6,2.2c-1,1.5-1.5,3.3-1.6,5.4l0,1.2l0.3,0.1c2.3,1,5.3,1.2,9,0.5l0.7-0.2L43.1,70.9z"/>
<path class="st26" d="M51,77.2c-1.4,0-2.5-0.3-3.5-0.9l-1-0.8c-0.2,0.3-0.3,0.6-0.3,1c0,0.8,0.5,1.4,1.4,2c1,0.6,2.2,0.9,3.5,0.9
	c1.4,0,2.6-0.2,3.6-0.8c1-0.5,1.5-1.1,1.5-1.9c0-0.4-0.1-0.8-0.4-1.1l-1.2,0.8C53.6,77,52.4,77.3,51,77.2z"/>
<path class="st27" d="M75.3,11.5L74,10.9l-53.7,5 M75.3,11.5l8.8,2.3C62.2-3,42.5-3.9,25,11c-4.1-1.1-9.3-0.6-15.8,1.7
	c5.2,0.1,8.8,1.1,11.1,3.1 M75.3,11.5c20.8,9.6,28.3,25.8,22.7,48.7L75.3,11.5z M20.3,15.8C10.1,18.3,4.2,23,2.5,29.9 M35.3,26.7
	C20.9,35.4,14.4,46.9,15.9,61L30.8,20C32.1,22.4,33.7,24.6,35.3,26.7z M35.3,26.7l2.1,2.4c6.2,6.6,14.4,11.5,24.6,14.7 M35.3,26.7
	l26.7,17 M65.4,43.3l2,1.5c-2-0.3-3.7-0.6-5.3-1.1 M65.4,43.3c2.8,0.1,5.5,1.4,8.2,3.9c-5.3-2.5-10.1-2.4-14.4,0.5l-1.1-2.3
	c1.3-0.8,2.6-1.4,3.9-1.7 M65.4,43.3c-4.4-3.4-7.6-7.2-9.6-11.5c7.8,7.6,17.1,13.1,27.8,16.6c3.2,4.7,4.1,9.6,2.6,14.7l-0.1,1.4
	l0.1-19.7l-15.1-7.4L65.4,43.3z M2.5,29.9c2.4-3.6,5.6-5.4,9.5-5.4C2.6,34.5,1.1,45,7.7,56L2.5,30.2L2.5,29.9z M42,46.6
	c-4.5-3.2-9.3-3.1-14.4,0.3c4.7-5.8,9.8-6.8,15.3-3.2L42,46.6z"/>
<path class="st21" d="M11.2,57.4c1.4,0.8,3,2,4.6,3.6 M11.2,57.4l4.6,3.6 M11.2,57.4c-1.3-0.8-2.5-1.2-3.6-1.4l-1.5-0.1
	c-0.8,0-1.5,0.2-2.2,0.6c-1,0.6-1.7,1.3-2.3,2c-2.6,3.1-1.7,6.9,2.6,11.6c4.4,4.3,8.8,7.1,13.2,8.2 M15.9,61l1.6,17.4 M86.1,64.5
	c2.2-2.9,4.6-4.6,7.1-5.1 M86.1,64.5l7.1-5.1 M86.1,64.5l-0.4,4.9 M93.2,59.4l2.2-0.1c0.9,0.2,1.8,0.5,2.6,0.9 M93.2,59.4l4.9,0.8
	 M98.1,60.2l0.5,0.2c0.8,0.4,1.6,1,2.2,1.7c2.5,3.1,2.4,6-0.4,8.7c-4.8,4.3-9.7,7.7-14.7,10 M85.7,80.9l-0.1,0.8l-1.1,2.8
	c-3.8,7.1-9.9,12.3-18.4,15.8c-3.1,1.2-6.3,2.1-9.5,2.5c-6.6,0.8-13.5-0.2-20.6-3.1c-10.9-4.4-17-11.2-18.4-20.6l-0.1-0.7
	 M85.7,80.9l0-0.7c-0.2-3.2-0.2-6.8,0-10.7 M85.7,80.9l0-11.4 M17.5,78.3l-0.1-0.5 M43,72.3l2.3-0.6l0-0.4 M43,72.3l2.3-1 M43,72.3
	l-0.7,0.2c-3.7,0.7-6.7,0.6-9-0.5l-0.3-0.1c-1.3-0.7-2.3-1.6-3.1-2.9 M43,72.3l-3.9,0.5l-4.9,0L30,69 M45.3,71.3
	c0.6-9.1-1.8-14.1-7.1-15.1c-5.4-1-8.2,3.2-8.4,12.7L30,69 M45.3,71.3l-5.8,1.5l-6.2-0.4L30,69 M59.8,72.2l0.6,0.2
	c3.8,0.8,6.8,0.8,9.1-0.1 M59.8,72.2l-2.2-0.7l0-1 M59.8,72.2l-2.3-1.6 M59.8,72.2l7.1,0.7l6.1-3.3 M69.5,72.3l0.2-0.1
	c1.4-0.6,2.5-1.4,3.3-2.6 M69.5,72.3l3.5-2.7 M69.5,72.3l-6.8,0.7l-5.2-2.4 M73,69.6l0.2-0.3c0-9.7-2.8-13.9-8.2-12.7
	c-5.3,1.2-7.8,5.8-7.5,14 M39.8,84.8c3.9,0.7,9.7,4.2,22.3,0 M46.4,75.5c-0.2,0.3-0.3,0.6-0.3,1c0,0.8,0.5,1.4,1.4,2
	c1,0.6,2.2,0.9,3.5,0.9c1.4,0,2.6-0.2,3.6-0.8c1-0.5,1.5-1.1,1.5-1.9c0-0.4-0.1-0.8-0.4-1.1l-1-0.9c-1-0.5-2.1-0.8-3.5-0.9
	c-1.4,0-2.6,0.2-3.6,0.7C47.1,74.9,46.7,75.2,46.4,75.5z M47.3,93.6c2.5,0.9,4.6,1,6.5,0.1L47.3,93.6z"/>
<path class="st28" d="M38.4,82c0.5,0.7,1.3,2.6,0.7,4.9"/>
<path class="st28" d="M63,82c-0.5,0.7-1.3,2.6-0.7,4.9"/>
<path class="st29" d="M45.8,86.7c0,0.9,0.2,1.8,0.5,2.6c1.8-0.9,3.5-1,5.1-0.3c1.1-0.5,2.5-0.4,4.4,0.4c0.7-0.7,1.1-1.6,1.1-2.5
	l-0.1-0.6c-3.4,0.9-7.1,0.8-11.1-0.1L45.8,86.7z"/>
<path class="st30" d="M47.9,90.5c0.7,0.4,1.8,0.6,3.4,0.6c1.6,0,2.9-0.4,4-1.2l0.6-0.5c-1.9-0.8-3.3-1-4.4-0.4
	c-1.6-0.7-3.4-0.6-5.1,0.3L47.9,90.5z"/>
<path d="M42,46.6l0.9-2.9c-5.5-3.7-10.7-2.6-15.3,3.2C32.7,43.5,37.5,43.4,42,46.6z M67.3,44.8c-2-0.3-3.7-0.6-5.3-1.1
	c-1.3,0.3-2.6,0.9-3.9,1.7l1.1,2.3c4.3-2.8,9.1-3,14.4-0.5c-2.7-2.5-5.5-3.8-8.2-3.9L67.3,44.8z M75.3,11.5l8.8,2.3
	C62.2-3,42.5-3.9,25,11c-4.1-1.1-9.3-0.6-15.8,1.7c5.2,0.1,8.9,1.1,11.1,3.1C7.5,31.7,0.4,43,7.1,54.9c1.4,0.8,7.1,4.6,8.8,6.1
	c3.1-12.4,4.4-15.2,16.3-31.2l5.2-0.8c6.2,6.6,14.4,11.5,24.6,14.7c1.6,0.5,3.3,0.9,5.3,1.1l-2-1.5c-4.4-3.4-7.6-7.2-9.6-11.5
	c7.8,7.6,17.1,13.1,27.8,16.6c3.2,4.7,4.1,9.6,2.6,14.7l-0.1,1.4c2.2-2.9,7.6-5.7,10.1-6.2C101.4,35.8,92.5,20.9,75.3,11.5z"/>
<path class="st8" d="M87.1,63.9l11.1-1.4v5.6h-8.3L87.1,63.9z"/>
<path class="st22" d="M40,67.7L40,67.7l-0.3-0.8l-0.1-0.2l-1-0.5c-0.2,0.1-0.4,0.2-0.6,0.2c-0.2,0.1-0.4,0.2-0.6,0.3
	c-0.2,0.2-0.3,0.4-0.4,0.7l0,0.1c0,0.4,0.1,0.7,0.5,1c0.3,0.3,0.6,0.4,1,0.4c0.3,0,0.7-0.1,1-0.4C39.8,68.4,39.9,68.1,40,67.7z"/>
<path class="st31" d="M40,67.6L40,67.6c0,0.4-0.1,0.8-0.4,1.1c-0.3,0.2-0.6,0.4-1,0.4c-0.4,0-0.7-0.1-1-0.4c-0.3-0.3-0.5-0.7-0.5-1
	l0-0.1c0-0.3,0.2-0.6,0.4-0.7L37,67.2c-0.4,0.3-0.7,0.7-1,1.2c-0.3,0.5-0.4,1.1-0.3,1.7c0.1,0.6,0.4,1.2,1,1.6
	c0.6,0.4,1.2,0.6,1.7,0.6l1.4-0.2c0.3-0.2,0.6-0.6,0.9-1.3c0.3-0.7,0.3-1.5,0-2.2c-0.3-0.8-0.7-1.4-1.2-1.7L40,67.6z"/>
<path class="st22" d="M66.2,67.8L66.2,67.8L65.9,67l-0.1-0.2l-1-0.5l-0.5,0.2c-0.2,0.1-0.4,0.2-0.6,0.3c-0.2,0.2-0.3,0.4-0.4,0.7
	l0,0c0,0.4,0.1,0.7,0.5,1c0.3,0.3,0.6,0.4,1,0.4c0.4,0,0.7-0.1,1-0.4C66,68.6,66.2,68.2,66.2,67.8z"/>
<path class="st31" d="M66.2,67.8L66.2,67.8c0,0.4-0.1,0.8-0.4,1c-0.3,0.3-0.6,0.4-1,0.4c-0.4,0-0.7-0.2-1-0.4
	c-0.3-0.3-0.5-0.6-0.5-1l0,0c0-0.3,0.2-0.6,0.4-0.7l-0.5,0.3c-0.4,0.3-0.7,0.7-1,1.2C62,69,61.9,69.6,62,70.2c0.1,0.7,0.4,1.2,1,1.6
	c0.6,0.4,1.2,0.6,1.8,0.6l1.4-0.2c0.3-0.2,0.6-0.6,0.9-1.3c0.3-0.7,0.3-1.4,0-2.2c-0.3-0.8-0.7-1.3-1.2-1.6L66.2,67.8z"/>
<path class="st32" d="M159.6,28.8c-0.6,0-1.1-0.5-1.1-1.1v-5.5h-17.6c-0.5,0-0.9,0.4-0.9,0.9v34c0,0.5,0.4,0.9,0.9,0.9h23.3
	c0.5,0,0.9-0.4,0.9-0.9V28.8H159.6z"/>
<path d="M152.6,29.7l-1.2,2.7h2.4L152.6,29.7z"/>
<path class="st22" d="M160.7,23.7v3h3L160.7,23.7z"/>
<path class="st22" d="M152.4,42.7c-0.1-1.3-0.3-2.3-0.4-3.2c-0.1-0.9-0.3-1.7-0.4-2.3c-0.1-0.6-0.2-1.2-0.3-1.7
	c-0.1-0.5-0.2-0.9-0.3-1.3c-0.1-0.4-0.1-0.8-0.2-1.3c0-0.4-0.1-0.9-0.1-1.5c0-0.5,0.1-1,0.2-1.4c0.1-0.4,0.3-0.8,0.6-1
	c0.2-0.3,0.5-0.5,0.8-0.7c0.3-0.2,0.6-0.2,0.9-0.2c0.3,0,0.6,0.1,0.9,0.2c0.3,0.1,0.5,0.4,0.8,0.7c0.2,0.3,0.4,0.6,0.5,1
	c0.1,0.4,0.2,0.9,0.2,1.4c0,0.6,0,1.1-0.1,1.5c0,0.4-0.1,0.8-0.2,1.3c-0.1,0.4-0.2,0.9-0.3,1.3c-0.1,0.5-0.2,1-0.3,1.7
	c-0.1,0.6-0.3,1.4-0.4,2.3c-0.1,0.9-0.3,2-0.4,3.2H152.4z M151.2,46.2c0,0.3,0.1,0.5,0.2,0.8c0.1,0.2,0.2,0.4,0.4,0.6
	c0.2,0.2,0.4,0.3,0.6,0.4c0.3,0.1,0.5,0.2,0.8,0.2c0.3,0,0.5-0.1,0.8-0.2c0.3-0.1,0.5-0.2,0.6-0.4c0.2-0.2,0.3-0.4,0.4-0.6
	c0.1-0.3,0.2-0.5,0.2-0.8c0-0.3-0.1-0.5-0.2-0.8c-0.1-0.3-0.3-0.5-0.4-0.7c-0.2-0.2-0.4-0.3-0.6-0.4c-0.3-0.1-0.5-0.2-0.8-0.2
	c-0.3,0-0.5,0.1-0.8,0.2c-0.2,0.1-0.4,0.3-0.6,0.4c-0.2,0.2-0.3,0.4-0.4,0.7C151.2,45.7,151.2,46,151.2,46.2z"/>
<path class="st22" d="M143.7,51.6h18c0.3,0,0.5,0.2,0.5,0.5l0,0c0,0.3-0.2,0.5-0.5,0.5h-18c-0.3,0-0.5-0.2-0.5-0.5l0,0
	C143.3,51.8,143.5,51.6,143.7,51.6z"/>
<path class="st22" d="M143.7,54.5h18c0.3,0,0.5,0.2,0.5,0.5l0,0c0,0.3-0.2,0.5-0.5,0.5h-18c-0.3,0-0.5-0.2-0.5-0.5l0,0
	C143.3,54.7,143.5,54.5,143.7,54.5z"/>
<path class="st32" d="M137.1,77.1c-0.9,0-1.6-0.2-2.3-0.6c-0.7-0.4-1.2-0.9-1.5-1.6c-0.3-0.7-0.5-1.5-0.5-2.5c0-1,0.2-1.8,0.5-2.5
	c0.3-0.7,0.8-1.3,1.5-1.6c0.7-0.4,1.4-0.6,2.3-0.6c0.6,0,1.1,0.1,1.6,0.3c0.5,0.2,1,0.4,1.3,0.8c0.2,0.1,0.2,0.3,0.2,0.5
	c0,0.2,0,0.3-0.1,0.4c-0.1,0.1-0.2,0.2-0.3,0.2c-0.1,0-0.3-0.1-0.4-0.2c-0.4-0.3-0.8-0.5-1.1-0.7c-0.3-0.1-0.7-0.2-1.2-0.2
	c-1,0-1.7,0.3-2.2,0.9c-0.5,0.6-0.8,1.5-0.8,2.7c0,1.2,0.3,2.1,0.8,2.7c0.5,0.6,1.2,0.9,2.2,0.9c0.4,0,0.8-0.1,1.1-0.2
	c0.3-0.1,0.7-0.3,1.2-0.7c0.2-0.1,0.3-0.2,0.4-0.2c0.1,0,0.2,0.1,0.3,0.2c0.1,0.1,0.1,0.2,0.1,0.4c0,0.2-0.1,0.4-0.2,0.5
	c-0.4,0.3-0.8,0.6-1.3,0.8C138.2,77,137.7,77.1,137.1,77.1z M144.3,70.4c0.8,0,1.5,0.2,1.9,0.6c0.4,0.4,0.6,1.1,0.6,1.9v3.4
	c0,0.2-0.1,0.4-0.2,0.5c-0.1,0.1-0.3,0.2-0.5,0.2c-0.2,0-0.3-0.1-0.5-0.2c-0.1-0.1-0.2-0.3-0.2-0.5v-0.5c-0.2,0.4-0.4,0.6-0.7,0.8
	c-0.3,0.2-0.7,0.3-1.1,0.3c-0.4,0-0.8-0.1-1.1-0.2c-0.3-0.2-0.6-0.4-0.8-0.7c-0.2-0.3-0.3-0.6-0.3-1c0-0.5,0.1-0.8,0.4-1.1
	c0.2-0.3,0.6-0.5,1.2-0.6c0.6-0.1,1.3-0.2,2.3-0.2h0.3v-0.4c0-0.5-0.1-0.8-0.3-1.1c-0.2-0.2-0.5-0.3-1-0.3c-0.3,0-0.6,0-0.9,0.1
	c-0.3,0.1-0.6,0.2-0.9,0.3c-0.2,0.1-0.4,0.2-0.5,0.2c-0.1,0-0.2,0-0.3-0.1c-0.1-0.1-0.1-0.2-0.1-0.4c0-0.1,0-0.2,0.1-0.3
	c0.1-0.1,0.2-0.2,0.4-0.3c0.3-0.2,0.7-0.3,1.1-0.4C143.5,70.5,143.9,70.4,144.3,70.4z M143.9,76.1c0.5,0,0.9-0.2,1.2-0.5
	c0.3-0.3,0.5-0.8,0.5-1.3V74h-0.2c-0.7,0-1.2,0-1.6,0.1c-0.4,0.1-0.6,0.2-0.8,0.3c-0.2,0.1-0.2,0.3-0.2,0.6c0,0.3,0.1,0.6,0.3,0.8
	C143.3,76,143.6,76.1,143.9,76.1z M150.8,77c-0.9,0-1.6-0.2-2.2-0.5c-0.2-0.1-0.3-0.2-0.3-0.3c-0.1-0.1-0.1-0.2-0.1-0.4
	c0-0.1,0-0.3,0.1-0.4c0.1-0.1,0.2-0.1,0.3-0.1c0.1,0,0.3,0.1,0.5,0.2c0.3,0.1,0.5,0.3,0.8,0.3c0.3,0.1,0.6,0.1,0.9,0.1
	c0.4,0,0.7-0.1,1-0.2c0.2-0.1,0.4-0.4,0.4-0.6c0-0.2,0-0.3-0.1-0.4c-0.1-0.1-0.2-0.2-0.5-0.3c-0.2-0.1-0.6-0.2-1-0.3
	c-0.8-0.2-1.3-0.4-1.7-0.7c-0.3-0.3-0.5-0.7-0.5-1.2c0-0.4,0.1-0.7,0.3-1c0.2-0.3,0.5-0.5,0.9-0.7c0.4-0.2,0.8-0.2,1.3-0.2
	c0.3,0,0.7,0,1,0.1c0.3,0.1,0.6,0.2,0.9,0.4c0.3,0.2,0.4,0.4,0.4,0.7c0,0.1,0,0.3-0.1,0.4c-0.1,0.1-0.2,0.1-0.3,0.1
	c-0.1,0-0.2,0-0.2-0.1c-0.1,0-0.2-0.1-0.3-0.2c-0.2-0.1-0.5-0.2-0.7-0.3c-0.2-0.1-0.5-0.1-0.8-0.1c-0.4,0-0.7,0.1-0.9,0.2
	c-0.2,0.2-0.3,0.4-0.3,0.6c0,0.2,0.1,0.4,0.3,0.6c0.2,0.1,0.6,0.3,1.2,0.4c0.6,0.1,1,0.3,1.4,0.4c0.3,0.2,0.6,0.4,0.7,0.6
	c0.1,0.2,0.2,0.5,0.2,0.9c0,0.6-0.2,1-0.7,1.4C152.3,76.9,151.6,77,150.8,77z M159.8,70.5c0.2,0,0.4,0.1,0.5,0.2
	c0.1,0.1,0.2,0.3,0.2,0.5v5.3c0,0.2-0.1,0.3-0.2,0.4c-0.1,0.1-0.3,0.2-0.5,0.2c-0.2,0-0.3-0.1-0.4-0.2c-0.1-0.1-0.2-0.3-0.2-0.4
	v-0.5c-0.2,0.4-0.5,0.6-0.8,0.8c-0.3,0.2-0.7,0.3-1.2,0.3c-1.5,0-2.3-0.9-2.3-2.6v-3.4c0-0.2,0.1-0.4,0.2-0.5
	c0.1-0.1,0.3-0.2,0.5-0.2c0.2,0,0.4,0.1,0.5,0.2c0.1,0.1,0.2,0.3,0.2,0.5v3.4c0,0.5,0.1,0.9,0.3,1.1c0.2,0.2,0.5,0.4,1,0.4
	c0.5,0,0.9-0.2,1.2-0.5c0.3-0.3,0.5-0.8,0.5-1.3v-3.1c0-0.2,0.1-0.3,0.2-0.5C159.5,70.5,159.6,70.5,159.8,70.5z M165,70.4
	c0.8,0,1.5,0.2,1.9,0.6c0.4,0.4,0.6,1.1,0.6,1.9v3.4c0,0.2-0.1,0.4-0.2,0.5c-0.1,0.1-0.3,0.2-0.5,0.2c-0.2,0-0.3-0.1-0.5-0.2
	c-0.1-0.1-0.2-0.3-0.2-0.5v-0.5c-0.2,0.4-0.4,0.6-0.7,0.8c-0.3,0.2-0.7,0.3-1.1,0.3c-0.4,0-0.8-0.1-1.1-0.2
	c-0.3-0.2-0.6-0.4-0.8-0.7c-0.2-0.3-0.3-0.6-0.3-1c0-0.5,0.1-0.8,0.4-1.1c0.2-0.3,0.6-0.5,1.2-0.6c0.6-0.1,1.3-0.2,2.3-0.2h0.3v-0.4
	c0-0.5-0.1-0.8-0.3-1.1c-0.2-0.2-0.5-0.3-1-0.3c-0.3,0-0.6,0-0.9,0.1c-0.3,0.1-0.6,0.2-0.9,0.3c-0.2,0.1-0.4,0.2-0.5,0.2
	c-0.1,0-0.2,0-0.3-0.1c-0.1-0.1-0.1-0.2-0.1-0.4c0-0.1,0-0.2,0.1-0.3c0.1-0.1,0.2-0.2,0.4-0.3c0.3-0.2,0.7-0.3,1.1-0.4
	C164.2,70.5,164.6,70.4,165,70.4z M164.6,76.1c0.5,0,0.9-0.2,1.2-0.5c0.3-0.3,0.5-0.8,0.5-1.3V74H166c-0.7,0-1.2,0-1.6,0.1
	c-0.4,0.1-0.6,0.2-0.8,0.3c-0.2,0.1-0.2,0.3-0.2,0.6c0,0.3,0.1,0.6,0.3,0.8C164,76,164.2,76.1,164.6,76.1z M169.9,77
	c-0.2,0-0.4-0.1-0.5-0.2c-0.1-0.1-0.2-0.3-0.2-0.5v-8c0-0.2,0.1-0.4,0.2-0.5c0.1-0.1,0.3-0.2,0.5-0.2c0.2,0,0.3,0.1,0.5,0.2
	c0.1,0.1,0.2,0.3,0.2,0.5v8c0,0.2-0.1,0.4-0.2,0.5C170.3,77,170.1,77,169.9,77z M138.2,92.4c0,0.1,0.1,0.2,0.1,0.3
	c0,0.2-0.1,0.3-0.2,0.4c-0.1,0.1-0.3,0.2-0.4,0.2c-0.1,0-0.2,0-0.3-0.1c-0.1-0.1-0.2-0.2-0.2-0.3l-0.9-2h-4.8l-0.9,2
	c-0.1,0.1-0.1,0.2-0.2,0.3c-0.1,0.1-0.2,0.1-0.3,0.1c-0.2,0-0.3-0.1-0.5-0.2c-0.1-0.1-0.2-0.3-0.2-0.4c0-0.1,0-0.2,0.1-0.3l3.7-8
	c0.1-0.1,0.2-0.2,0.3-0.3c0.1-0.1,0.3-0.1,0.4-0.1s0.3,0,0.4,0.1c0.1,0.1,0.2,0.2,0.3,0.3L138.2,92.4z M131.9,89.9h3.8l-1.9-4.3
	L131.9,89.9z M142.5,92.3c0.2,0,0.3,0.1,0.4,0.2c0.1,0.1,0.1,0.2,0.1,0.3c0,0.2-0.1,0.3-0.2,0.4c-0.1,0.1-0.3,0.1-0.6,0.1l-0.4,0
	c-0.7-0.1-1.2-0.3-1.6-0.6c-0.3-0.4-0.5-0.9-0.5-1.7v-3.1H139c-0.4,0-0.6-0.2-0.6-0.5c0-0.2,0-0.3,0.1-0.4c0.1-0.1,0.2-0.1,0.4-0.1
	h0.8v-1.3c0-0.2,0.1-0.4,0.2-0.5c0.1-0.1,0.3-0.2,0.5-0.2s0.4,0.1,0.5,0.2c0.1,0.1,0.2,0.3,0.2,0.5v1.3h1.3c0.2,0,0.3,0,0.4,0.1
	c0.1,0.1,0.2,0.2,0.2,0.4c0,0.2-0.1,0.3-0.2,0.4c-0.1,0.1-0.2,0.1-0.4,0.1h-1.3V91c0,0.4,0.1,0.7,0.2,0.9c0.2,0.2,0.4,0.3,0.8,0.3
	L142.5,92.3z M147,92.3c0.2,0,0.3,0.1,0.4,0.2c0.1,0.1,0.1,0.2,0.1,0.3c0,0.2-0.1,0.3-0.2,0.4c-0.1,0.1-0.3,0.1-0.6,0.1l-0.4,0
	c-0.7-0.1-1.2-0.3-1.6-0.6c-0.3-0.4-0.5-0.9-0.5-1.7v-3.1h-0.8c-0.4,0-0.6-0.2-0.6-0.5c0-0.2,0-0.3,0.1-0.4c0.1-0.1,0.2-0.1,0.4-0.1
	h0.8v-1.3c0-0.2,0.1-0.4,0.2-0.5c0.1-0.1,0.3-0.2,0.5-0.2c0.2,0,0.4,0.1,0.5,0.2c0.1,0.1,0.2,0.3,0.2,0.5v1.3h1.3
	c0.2,0,0.3,0,0.4,0.1c0.1,0.1,0.2,0.2,0.2,0.4c0,0.2-0.1,0.3-0.2,0.4c-0.1,0.1-0.2,0.1-0.4,0.1h-1.3V91c0,0.4,0.1,0.7,0.2,0.9
	c0.2,0.2,0.4,0.3,0.8,0.3L147,92.3z M153.5,91.6c0.1,0,0.2,0,0.3,0.1c0.1,0.1,0.1,0.2,0.1,0.4c0,0.3-0.2,0.5-0.5,0.6
	c-0.3,0.2-0.6,0.3-1,0.4c-0.4,0.1-0.7,0.1-1,0.1c-1,0-1.8-0.3-2.4-0.9c-0.6-0.6-0.9-1.4-0.9-2.4c0-0.7,0.1-1.2,0.4-1.7
	c0.3-0.5,0.6-0.9,1.1-1.2c0.5-0.3,1-0.4,1.6-0.4c0.9,0,1.5,0.3,2,0.8c0.5,0.5,0.7,1.3,0.7,2.2c0,0.3-0.2,0.5-0.5,0.5h-4
	c0.1,1.3,0.7,2,1.9,2c0.3,0,0.6,0,0.8-0.1c0.2-0.1,0.5-0.2,0.7-0.3c0,0,0.1-0.1,0.2-0.1C153.3,91.7,153.4,91.6,153.5,91.6z
	 M151.2,87.7c-0.5,0-0.9,0.2-1.2,0.5c-0.3,0.3-0.5,0.8-0.5,1.4h3.4c0-0.6-0.2-1-0.5-1.4C152.1,87.8,151.7,87.7,151.2,87.7z
	 M162.7,86.7c1.4,0,2.1,0.9,2.1,2.6v3.4c0,0.2-0.1,0.4-0.2,0.5c-0.1,0.1-0.3,0.2-0.5,0.2c-0.2,0-0.3-0.1-0.5-0.2
	c-0.1-0.1-0.2-0.3-0.2-0.5v-3.4c0-0.5-0.1-0.9-0.3-1.1c-0.2-0.2-0.5-0.4-0.9-0.4c-0.5,0-0.9,0.2-1.1,0.5c-0.3,0.3-0.4,0.8-0.4,1.3
	v3.1c0,0.2-0.1,0.4-0.2,0.5c-0.1,0.1-0.3,0.2-0.5,0.2c-0.2,0-0.3-0.1-0.5-0.2c-0.1-0.1-0.2-0.3-0.2-0.5v-3.4c0-0.5-0.1-0.9-0.3-1.1
	c-0.2-0.2-0.5-0.4-0.9-0.4c-0.5,0-0.9,0.2-1.1,0.5c-0.3,0.3-0.4,0.8-0.4,1.3v3.1c0,0.2-0.1,0.4-0.2,0.5c-0.1,0.1-0.3,0.2-0.5,0.2
	c-0.2,0-0.4-0.1-0.5-0.2c-0.1-0.1-0.2-0.3-0.2-0.5v-5.3c0-0.2,0.1-0.3,0.2-0.5c0.1-0.1,0.3-0.2,0.5-0.2s0.3,0.1,0.4,0.2
	c0.1,0.1,0.2,0.3,0.2,0.4v0.5c0.2-0.4,0.5-0.6,0.8-0.8c0.3-0.2,0.7-0.3,1.2-0.3c0.5,0,0.9,0.1,1.2,0.3c0.3,0.2,0.6,0.5,0.7,0.9
	c0.2-0.4,0.5-0.7,0.8-0.9C161.8,86.8,162.2,86.7,162.7,86.7z M170,86.7c0.5,0,1,0.1,1.5,0.4c0.4,0.3,0.8,0.7,1,1.2
	c0.2,0.5,0.4,1.1,0.4,1.7c0,0.7-0.1,1.2-0.4,1.7c-0.2,0.5-0.6,0.9-1,1.1c-0.4,0.3-0.9,0.4-1.5,0.4c-0.5,0-0.9-0.1-1.3-0.3
	c-0.4-0.2-0.6-0.5-0.8-0.9V95c0,0.2-0.1,0.3-0.2,0.4c-0.1,0.1-0.3,0.2-0.5,0.2c-0.2,0-0.4-0.1-0.5-0.2c-0.1-0.1-0.2-0.3-0.2-0.5
	v-7.6c0-0.2,0.1-0.3,0.2-0.5c0.1-0.1,0.3-0.2,0.5-0.2c0.2,0,0.3,0.1,0.5,0.2c0.1,0.1,0.2,0.3,0.2,0.5v0.5c0.2-0.4,0.5-0.7,0.8-0.9
	C169.1,86.8,169.6,86.7,170,86.7z M169.7,92.3c0.6,0,1-0.2,1.3-0.6c0.3-0.4,0.5-0.9,0.5-1.7c0-0.7-0.2-1.3-0.5-1.7
	c-0.3-0.4-0.8-0.6-1.3-0.6c-0.6,0-1,0.2-1.3,0.6c-0.3,0.4-0.5,0.9-0.5,1.7c0,0.7,0.2,1.3,0.5,1.7C168.7,92.1,169.2,92.3,169.7,92.3z
	 M177.4,92.3c0.2,0,0.3,0.1,0.4,0.2c0.1,0.1,0.1,0.2,0.1,0.3c0,0.2-0.1,0.3-0.2,0.4c-0.1,0.1-0.3,0.1-0.6,0.1l-0.4,0
	c-0.7-0.1-1.2-0.3-1.6-0.6c-0.3-0.4-0.5-0.9-0.5-1.7v-3.1h-0.8c-0.4,0-0.6-0.2-0.6-0.5c0-0.2,0-0.3,0.1-0.4c0.1-0.1,0.2-0.1,0.4-0.1
	h0.8v-1.3c0-0.2,0.1-0.4,0.2-0.5c0.1-0.1,0.3-0.2,0.5-0.2s0.4,0.1,0.5,0.2c0.1,0.1,0.2,0.3,0.2,0.5v1.3h1.3c0.2,0,0.3,0,0.4,0.1
	c0.1,0.1,0.2,0.2,0.2,0.4c0,0.2-0.1,0.3-0.2,0.4c-0.1,0.1-0.2,0.1-0.4,0.1H176V91c0,0.4,0.1,0.7,0.2,0.9c0.2,0.2,0.4,0.3,0.8,0.3
	L177.4,92.3z"/>
</svg>
