<svg width="77" height="77" viewBox="0 0 77 77" fill="none" xmlns="http://www.w3.org/2000/svg">
<path d="M14.6904 51.1503L7.92164 64.6858C7.59619 65.3361 7.63114 66.1088 8.01283 66.7269C8.39561 67.3445 9.06943 67.7207 9.79622 67.7207H19.9784L26.0875 75.8661C26.4845 76.3974 27.1076 76.7048 27.7634 76.7048C28.6343 76.7048 29.3207 76.185 29.6396 75.5461L36.0179 62.7888C27.3942 61.9643 19.7911 57.5915 14.6904 51.1503Z" fill="#E5F1F8"/>
<path d="M70.0662 64.6858L63.2974 51.1503C58.1967 57.5915 50.5936 61.9643 41.9698 62.7888L48.3488 75.5461C48.6671 76.185 49.3535 76.7048 50.2244 76.7048C50.8802 76.7048 51.5038 76.3974 51.9008 75.8661L58.0094 67.7207H68.1916C68.9184 67.7207 69.5922 67.3445 69.975 66.7269C70.3567 66.1088 70.3916 65.3361 70.0662 64.6858V64.6858Z" fill="#E5F1F8"/>
<path d="M65.7961 31.9355C65.7961 17.1567 53.7727 5.13333 38.9939 5.13333C24.2152 5.13333 12.1918 17.1567 12.1918 31.9355C12.1918 46.7137 24.2152 58.7377 38.9939 58.7377C53.7727 58.7377 65.7961 46.7143 65.7961 31.9355ZM42.1654 43.165C42.1654 44.3231 41.2267 45.2618 40.0686 45.2618C38.9109 45.2618 37.9717 44.3231 37.9717 43.165V25.7936L34.8669 28.9208C34.0511 29.7426 32.7237 29.7475 31.9019 28.9312C31.0801 28.1154 31.0752 26.7879 31.891 25.9661L38.5806 19.2284C39.1791 18.6256 40.0822 18.4432 40.8674 18.767C41.6527 19.0908 42.1654 19.8564 42.1654 20.7055V43.165Z" fill="#E5F1F8"/>
<circle cx="39.1522" cy="31.8328" r="24.4629" fill="#E5F1F8"/>
</svg>
