<svg width="84" height="59" viewBox="0 0 84 59" fill="none" xmlns="http://www.w3.org/2000/svg">
<path fill-rule="evenodd" clip-rule="evenodd" d="M17.6868 18.3908C17.4921 17.0627 18.4137 15.8483 19.7454 15.6784L77.2325 8.34452C78.5641 8.17464 79.8015 9.11356 79.9963 10.4417C80.1671 11.606 79.4798 12.6828 78.4105 13.0452L62.1089 15.124C60.7813 15.2933 59.8627 16.5038 60.0571 17.8278C60.2515 19.1519 61.4853 20.088 62.8129 19.9187L78.8951 17.8679C80.1513 17.807 81.2806 18.7183 81.4659 19.982C81.6434 21.1921 80.894 22.3078 79.7522 22.625L58.3485 25.3806C57.0347 25.5497 56.1243 26.7493 56.315 28.06C56.5058 29.3707 57.7254 30.2961 59.0392 30.127L68.3215 28.9319C68.2214 28.9582 68.1184 28.9783 68.0127 28.9919L64.7397 29.4104C65.9993 29.3413 67.1351 30.2528 67.3213 31.5186C67.5162 32.8431 66.5975 34.0539 65.2693 34.2229L38.9969 37.5674C37.6687 37.7365 36.434 36.7998 36.2391 35.4753C36.0604 34.2604 36.8186 33.1411 37.9704 32.8337L34.7781 33.242C34.689 33.2534 34.6003 33.2598 34.5124 33.2614L43.743 32.073C45.0568 31.9039 45.9672 30.7042 45.7764 29.3936C45.5857 28.0829 44.3661 27.1575 43.0523 27.3266L33.7683 28.5219C33.7817 28.5183 33.7952 28.5149 33.8087 28.5116L21.9203 30.0283C20.5886 30.1982 19.3512 29.2592 19.1564 27.9311C18.9857 26.7668 19.6729 25.6899 20.7423 25.3276L37.0443 23.2488C38.3719 23.0795 39.2906 21.8689 39.0962 20.5449C38.9018 19.2209 37.668 18.2848 36.3404 18.4541L20.2574 20.5049C19.0013 20.5657 17.8722 19.6544 17.6868 18.3908Z" fill="#F3F6FB"/>
<path fill-rule="evenodd" clip-rule="evenodd" d="M61.9324 48.1585C62.1165 49.4138 61.2454 50.5616 59.9867 50.7222L5.64988 57.6542C4.39119 57.8148 3.22158 56.9273 3.03748 55.672C2.87608 54.5715 3.52566 53.5536 4.53639 53.2111L19.9459 51.2461C21.2008 51.0861 22.0691 49.9419 21.8854 48.6904C21.7016 47.4389 20.5354 46.5541 19.2806 46.7142L4.07962 48.6525C2.89213 48.7102 1.82462 47.8488 1.64942 46.6543C1.48171 45.5107 2.18971 44.4564 3.26865 44.1563L23.5003 41.5516C24.7421 41.3918 25.6026 40.2579 25.4223 39.019C25.242 37.7802 24.0892 36.9055 22.8475 37.0653L14.0726 38.195C14.1674 38.1701 14.2651 38.151 14.3652 38.1382L17.4589 37.7426C16.2683 37.808 15.1946 36.9464 15.0186 35.75C14.8344 34.498 15.7028 33.3536 16.9582 33.1938L41.7908 30.0326C43.0463 29.8727 44.2133 30.7581 44.3975 32.01C44.5665 33.1584 43.8498 34.2164 42.761 34.5069L45.7786 34.121C45.863 34.1102 45.947 34.1041 46.0303 34.1026L37.3052 35.2259C36.0635 35.3858 35.203 36.5197 35.3832 37.7585C35.5635 38.9974 36.7163 39.8721 37.9581 39.7122L46.7326 38.5826C46.7201 38.5859 46.7075 38.5891 46.6948 38.5921L57.932 37.1586C59.1907 36.998 60.3603 37.8855 60.5444 39.1408C60.7058 40.2413 60.0562 41.2592 59.0454 41.6017L43.6369 43.5665C42.3821 43.7266 41.5138 44.8708 41.6975 46.1223C41.8812 47.3737 43.0474 48.2585 44.3023 48.0985L59.5023 46.1602C60.6898 46.1026 61.7573 46.964 61.9324 48.1585Z" fill="#F3F6FB"/>
<path d="M51.8423 4.35903C51.4556 4.35903 51.1421 4.04552 51.1421 3.65882V0H39.4113C39.0761 0 38.8044 0.271681 38.8044 0.606847V23.2002C38.8044 23.5354 39.0761 23.8071 39.4113 23.8071H54.8943C55.2294 23.8071 55.5011 23.5354 55.5011 23.2002V4.35903H51.8423Z" fill="#DA3019"/>
<path d="M47.1529 4.99091L46.3528 6.7615H47.953L47.1529 4.99091Z" fill="black"/>
<path d="M51.8851 0.338562V3.82487H55.3714L51.8851 0.338562Z" fill="#EC7160"/>
<path d="M47.0427 13.5961C46.9461 12.7613 46.8494 12.0496 46.7527 11.4609C46.6649 10.8633 46.5814 10.3493 46.5023 9.91873C46.4232 9.48816 46.3485 9.1191 46.2782 8.81156C46.2079 8.49522 46.1464 8.20086 46.0937 7.92846C46.041 7.64727 46.0014 7.36609 45.9751 7.0849C45.9487 6.79493 45.9355 6.46102 45.9355 6.08318C45.9355 5.74048 45.9795 5.43293 46.0674 5.16054C46.164 4.88814 46.287 4.65967 46.4364 4.47515C46.5858 4.28183 46.7527 4.13684 46.9373 4.04019C47.1306 3.93474 47.3283 3.88202 47.5304 3.88202C47.7237 3.88202 47.917 3.93474 48.1103 4.04019C48.3037 4.13684 48.4706 4.28183 48.6112 4.47515C48.7606 4.65967 48.8792 4.88814 48.9671 5.16054C49.0637 5.43293 49.1121 5.74048 49.1121 6.08318C49.1121 6.46102 49.0989 6.79493 49.0725 7.0849C49.0462 7.36609 49.0066 7.64727 48.9539 7.92846C48.9012 8.20086 48.8397 8.49522 48.7694 8.81156C48.7079 9.1191 48.6376 9.48816 48.5585 9.91873C48.4794 10.3493 48.3915 10.8633 48.2949 11.4609C48.207 12.0496 48.1191 12.7613 48.0313 13.5961H47.0427ZM46.1992 15.9554C46.1992 16.14 46.2343 16.3157 46.3046 16.4827C46.3749 16.6408 46.4672 16.7814 46.5814 16.9044C46.7044 17.0187 46.845 17.1065 47.0032 17.168C47.1701 17.2383 47.3459 17.2735 47.5304 17.2735C47.7149 17.2735 47.8907 17.2383 48.0576 17.168C48.2246 17.1065 48.3652 17.0187 48.4794 16.9044C48.6024 16.7814 48.6991 16.6408 48.7694 16.4827C48.8397 16.3157 48.8748 16.14 48.8748 15.9554C48.8748 15.7709 48.8397 15.5996 48.7694 15.4414C48.6991 15.2744 48.6024 15.1294 48.4794 15.0064C48.3652 14.8834 48.2246 14.7868 48.0576 14.7165C47.8907 14.6462 47.7149 14.611 47.5304 14.611C47.3459 14.611 47.1701 14.6462 47.0032 14.7165C46.845 14.7868 46.7044 14.8834 46.5814 15.0064C46.4672 15.1294 46.3749 15.2744 46.3046 15.4414C46.2343 15.5996 46.1992 15.7709 46.1992 15.9554Z" fill="white"/>
<rect x="40.9678" y="19.5292" width="12.5545" height="0.604476" rx="0.302238" fill="white"/>
<rect x="40.9678" y="21.4357" width="12.5545" height="0.604476" rx="0.302238" fill="white"/>
</svg>
