<svg width="46" height="53" viewBox="0 0 46 53" fill="none" xmlns="http://www.w3.org/2000/svg">
<path d="M35.7082 9.64808C34.6491 9.64808 33.7905 8.95418 33.7905 8.09827V0H1.66204C0.744082 0 0 0.601326 0 1.34317V51.3503C0 52.0922 0.744082 52.6935 1.66204 52.6935H44.067C44.985 52.6935 45.7291 52.0922 45.7291 51.3503V9.64808H35.7082Z" fill="#DA3019"/>
<path d="M22.8652 11.0465L20.6738 14.9655H25.0565L22.8652 11.0465Z" fill="black"/>
<path d="M37.626 2.19128V6.54832H43.0161L37.626 2.19128Z" fill="white"/>
<path d="M22.5641 30.0932C22.2993 28.2455 22.0346 26.6701 21.7699 25.3671C21.5292 24.0445 21.3006 22.9068 21.084 21.9538C20.8674 21.0008 20.6628 20.1839 20.4703 19.5032C20.2778 18.8031 20.1093 18.1515 19.9649 17.5486C19.8205 16.9263 19.7122 16.3039 19.64 15.6815C19.5678 15.0397 19.5317 14.3007 19.5317 13.4644C19.5317 12.7058 19.6521 12.0251 19.8927 11.4222C20.1575 10.8193 20.4944 10.3136 20.9035 9.90521C21.3126 9.47733 21.7699 9.15642 22.2753 8.94249C22.8047 8.7091 23.3462 8.59241 23.8997 8.59241C24.4292 8.59241 24.9586 8.7091 25.4881 8.94249C26.0175 9.15642 26.4748 9.47733 26.8599 9.90521C27.269 10.3136 27.5939 10.8193 27.8345 11.4222C28.0993 12.0251 28.2316 12.7058 28.2316 13.4644C28.2316 14.3007 28.1955 15.0397 28.1233 15.6815C28.0511 16.3039 27.9428 16.9263 27.7984 17.5486C27.654 18.1515 27.4856 18.8031 27.293 19.5032C27.1246 20.1839 26.9321 21.0008 26.7155 21.9538C26.4989 22.9068 26.2582 24.0445 25.9935 25.3671C25.7528 26.6701 25.5122 28.2455 25.2715 30.0932H22.5641ZM20.2537 35.3152C20.2537 35.7236 20.35 36.1126 20.5425 36.4821C20.735 36.8322 20.9877 37.1434 21.3006 37.4157C21.6375 37.6685 22.0226 37.863 22.4558 37.9991C22.913 38.1547 23.3943 38.2325 23.8997 38.2325C24.4051 38.2325 24.8864 38.1547 25.3437 37.9991C25.801 37.863 26.186 37.6685 26.4989 37.4157C26.8358 37.1434 27.1005 36.8322 27.293 36.4821C27.4856 36.1126 27.5818 35.7236 27.5818 35.3152C27.5818 34.9068 27.4856 34.5275 27.293 34.1774C27.1005 33.8079 26.8358 33.487 26.4989 33.2147C26.186 32.9424 25.801 32.7285 25.3437 32.5729C24.8864 32.4173 24.4051 32.3395 23.8997 32.3395C23.3943 32.3395 22.913 32.4173 22.4558 32.5729C22.0226 32.7285 21.6375 32.9424 21.3006 33.2147C20.9877 33.487 20.735 33.8079 20.5425 34.1774C20.35 34.5275 20.2537 34.9068 20.2537 35.3152Z" fill="white"/>
<rect x="5.927" y="43.225" width="34.3844" height="1.33792" rx="0.668961" fill="white"/>
<rect x="5.927" y="47.4446" width="34.3844" height="1.33792" rx="0.668961" fill="white"/>
</svg>
