<svg width="24" height="24" viewBox="0 0 24 24" fill="none" xmlns="http://www.w3.org/2000/svg">
<path d="M7.07142 5.00006C6.48156 5.00006 6 5.48162 6 6.07148V18.9286C6 19.5184 6.48156 20 7.07142 20H16.5C17.0898 20 17.5714 19.5184 17.5714 18.9286V8.6429C17.572 8.61452 17.5671 8.58628 17.5567 8.55984C17.5464 8.5334 17.5309 8.50928 17.5111 8.48888L14.0826 5.06033C14.0622 5.04058 14.038 5.02508 14.0116 5.01474C13.9852 5.00439 13.9569 4.9994 13.9285 5.00006H7.07142ZM7.07142 5.42863H13.7143V8.6429C13.7143 8.69973 13.7368 8.75423 13.777 8.79442C13.8172 8.8346 13.8717 8.85718 13.9285 8.85719H17.1428V18.9286C17.1428 19.2884 16.8598 19.5714 16.5 19.5714H7.07142C6.71158 19.5714 6.42857 19.2884 6.42857 18.9286V6.07148C6.42857 5.71163 6.71158 5.42863 7.07142 5.42863ZM14.1428 5.73666L16.8348 8.42862H14.1428V5.73666ZM8.10267 10.5715C8.04584 10.5768 7.99345 10.6045 7.95703 10.6484C7.92061 10.6924 7.90315 10.749 7.90847 10.8058C7.9138 10.8627 7.94149 10.9151 7.98544 10.9515C8.0294 10.9879 8.08602 11.0054 8.14285 11H15.4285C15.4569 11.0004 15.4851 10.9952 15.5115 10.9846C15.5378 10.974 15.5618 10.9583 15.582 10.9384C15.6022 10.9184 15.6183 10.8947 15.6293 10.8685C15.6402 10.8423 15.6459 10.8141 15.6459 10.7857C15.6459 10.7574 15.6402 10.7292 15.6293 10.703C15.6183 10.6768 15.6022 10.6531 15.582 10.6331C15.5618 10.6132 15.5378 10.5975 15.5115 10.5869C15.4851 10.5763 15.4569 10.5711 15.4285 10.5715H8.14285C8.12949 10.5702 8.11603 10.5702 8.10267 10.5715ZM8.10267 12.7143C8.04584 12.7196 7.99345 12.7473 7.95703 12.7913C7.92061 12.8352 7.90315 12.8919 7.90847 12.9487C7.9138 13.0055 7.94149 13.0579 7.98544 13.0943C8.0294 13.1307 8.08602 13.1482 8.14285 13.1429H15.4285C15.4569 13.1433 15.4851 13.138 15.5115 13.1274C15.5378 13.1169 15.5618 13.1011 15.582 13.0812C15.6022 13.0613 15.6183 13.0375 15.6293 13.0113C15.6402 12.9851 15.6459 12.957 15.6459 12.9286C15.6459 12.9002 15.6402 12.8721 15.6293 12.8459C15.6183 12.8197 15.6022 12.7959 15.582 12.776C15.5618 12.7561 15.5378 12.7403 15.5115 12.7297C15.4851 12.7192 15.4569 12.7139 15.4285 12.7143H8.14285C8.12949 12.7131 8.11603 12.7131 8.10267 12.7143ZM8.10267 14.8572C8.04584 14.8625 7.99345 14.8902 7.95703 14.9341C7.92061 14.9781 7.90315 15.0347 7.90847 15.0915C7.9138 15.1484 7.94149 15.2008 7.98544 15.2372C8.0294 15.2736 8.08602 15.2911 8.14285 15.2857H15.4285C15.4569 15.2861 15.4851 15.2809 15.5115 15.2703C15.5378 15.2597 15.5618 15.244 15.582 15.2241C15.6022 15.2041 15.6183 15.1804 15.6293 15.1542C15.6402 15.128 15.6459 15.0998 15.6459 15.0714C15.6459 15.043 15.6402 15.0149 15.6293 14.9887C15.6183 14.9625 15.6022 14.9388 15.582 14.9188C15.5618 14.8989 15.5378 14.8832 15.5115 14.8726C15.4851 14.862 15.4569 14.8568 15.4285 14.8572H8.14285C8.12949 14.8559 8.11603 14.8559 8.10267 14.8572ZM8.10267 17C8.04584 17.0053 7.99345 17.033 7.95703 17.077C7.92061 17.1209 7.90315 17.1776 7.90847 17.2344C7.9138 17.2912 7.94149 17.3436 7.98544 17.38C8.0294 17.4164 8.08602 17.4339 8.14285 17.4286H15.4285C15.4569 17.429 15.4851 17.4237 15.5115 17.4131C15.5378 17.4026 15.5618 17.3868 15.582 17.3669C15.6022 17.347 15.6183 17.3232 15.6293 17.297C15.6402 17.2708 15.6459 17.2427 15.6459 17.2143C15.6459 17.1859 15.6402 17.1578 15.6293 17.1316C15.6183 17.1054 15.6022 17.0816 15.582 17.0617C15.5618 17.0418 15.5378 17.026 15.5115 17.0154C15.4851 17.0049 15.4569 16.9996 15.4285 17H8.14285C8.12949 16.9988 8.11603 16.9988 8.10267 17Z" fill="white" stroke="white" stroke-width="0.7"/>
</svg>
