<svg width="32" height="32" viewBox="0 0 32 32" fill="none" xmlns="http://www.w3.org/2000/svg">
<path d="M13.3238 19.5019L10.5865 16.7647C10.0826 16.2608 9.26564 16.2608 8.76173 16.7647C8.25782 17.2686 8.25782 18.0856 8.76173 18.5895L12.4114 22.2391C12.6633 22.4911 12.9936 22.6171 13.3238 22.6171C13.654 22.6171 13.9842 22.4911 14.2362 22.2391L23.3603 13.115C23.8642 12.6111 23.8642 11.7941 23.3603 11.2902C22.8564 10.7863 22.0394 10.7863 21.5355 11.2902L13.3238 19.5019ZM16.061 31.7143C7.50937 31.7143 0.576904 24.7818 0.576904 16.2302C0.576904 7.67856 7.50937 0.746094 16.061 0.746094C24.6126 0.746094 31.5451 7.67856 31.5451 16.2302C31.5451 24.7818 24.6126 31.7143 16.061 31.7143Z" fill="white"/>
</svg>
