<svg width="24" height="24" viewBox="0 0 24 24" fill="none" xmlns="http://www.w3.org/2000/svg">
<path d="M8.19626 3.07718L7.90507 0.801145C7.83011 0.21464 7.22894 -0.146958 6.67688 0.0576538C6.10107 0.271078 5.87433 0.966006 6.21521 1.47803L7.46233 3.35112C7.69708 3.70372 8.24983 3.49831 8.19626 3.07718ZM6.8049 1.08545C6.74804 0.999991 6.76238 0.916975 6.77598 0.875115C6.85271 0.638675 7.17358 0.665535 7.2024 0.891053L7.32775 1.87075L6.8049 1.08545Z" fill="black"/>
<path d="M6.27699 4.14017L5.03048 2.26787C4.46614 1.42032 3.16043 1.94213 3.30448 2.90627C3.34601 3.18414 3.50937 3.4241 3.75275 3.56449C5.83214 4.74214 5.75095 4.76581 5.94272 4.76581C6.25815 4.76586 6.45765 4.4112 6.27699 4.14017ZM4.1067 2.95094C4.03109 2.9073 4.01056 2.83867 4.00503 2.80164C3.96969 2.56534 4.30297 2.4534 4.44088 2.66055L4.96316 3.44491L4.1067 2.95094Z" fill="black"/>
<path d="M4.96635 5.5891L2.77952 4.94906C1.8324 4.67226 1.16049 5.88709 1.90604 6.54583C2.12106 6.73582 2.40719 6.81738 2.69205 6.7669L4.92355 6.37127C5.34117 6.29735 5.37337 5.70821 4.96635 5.5891ZM2.56844 6.06934C2.42214 6.09531 2.28962 5.97859 2.2974 5.82981C2.30472 5.68838 2.44192 5.58845 2.58058 5.62895L3.51312 5.90186L2.56844 6.06934Z" fill="black"/>
<path d="M15.8202 0.0616285C15.2616 -0.145233 14.6552 0.220911 14.5795 0.812714L14.2898 3.07703C14.236 3.49779 14.7886 3.70409 15.0236 3.35107L16.2774 1.46813C16.6144 0.962012 16.3914 0.273318 15.8202 0.0616285ZM15.6878 1.07559L15.1584 1.87065L15.2822 0.902715C15.3119 0.671385 15.6395 0.639134 15.7156 0.873277C15.7287 0.913543 15.7425 0.993419 15.6878 1.07559Z" fill="black"/>
<path d="M18.9054 2.10372C18.5064 1.67584 17.8119 1.73195 17.487 2.21983L16.2085 4.14027C16.1044 4.2966 16.1214 4.50136 16.2499 4.63842C16.3783 4.77534 16.5818 4.80544 16.7442 4.71164L18.6828 3.59338C19.2186 3.28423 19.3281 2.55668 18.9054 2.10372ZM18.3288 2.97978L17.5224 3.44497L18.0767 2.61246C18.1467 2.50737 18.2983 2.49143 18.3875 2.58701C18.4992 2.70673 18.4701 2.89831 18.3288 2.97978Z" fill="black"/>
<path d="M19.6606 4.96257L17.5198 5.58915C17.3396 5.64188 17.2209 5.8096 17.2311 5.99715C17.2413 6.1847 17.3777 6.33859 17.5625 6.37127L19.8414 6.77528C20.1158 6.82389 20.39 6.74486 20.5955 6.56317C21.324 5.91957 20.6426 4.67517 19.6606 4.96257ZM19.9652 6.07773L18.9731 5.90185L19.8595 5.6424C19.9644 5.6117 20.0442 5.65271 20.0824 5.67976C20.2918 5.82854 20.1742 6.11448 19.9652 6.07773Z" fill="black"/>
<path d="M22.1508 17.3203L21.6411 16.6308L21.7864 14.4567C21.8334 13.7519 21.6946 13.0459 21.3848 12.4147C21.2986 12.2391 21.0866 12.1666 20.9108 12.2528C20.7352 12.3389 20.6627 12.5511 20.7489 12.7268C21.004 13.2466 21.1183 13.8284 21.0795 14.4094C20.9499 16.7772 20.8575 16.7626 20.9941 16.9474L21.5811 17.7414C21.788 18.0212 21.7289 18.4153 21.449 18.6222L19.1622 20.3127C19.0049 20.429 18.9717 20.6508 19.0879 20.808C19.1574 20.9021 19.2646 20.9517 19.3731 20.9517C19.4462 20.9517 19.52 20.9291 19.5833 20.8824L21.8701 19.1918C22.4649 18.7522 22.5906 17.9151 22.1508 17.3203Z" fill="black"/>
<path d="M20.4016 11.0008C20.2933 10.8156 19.5276 10.1276 18.8584 8.25726C18.5153 7.34675 18.0339 6.77651 17.0826 7.12935C16.5819 7.31507 16.2641 7.70648 16.1618 8.21657L13.4554 4.5556C12.7223 3.56395 11.2034 3.78788 10.7927 4.91471C9.88253 4.05342 8.37126 4.56568 8.22726 5.83136C6.93875 5.45683 5.85794 6.81308 6.45715 7.97821C5.26281 8.04407 4.6029 9.4247 5.33617 10.4174L5.69702 10.9059C4.51032 10.9898 3.87661 12.364 4.60009 13.3435L5.50492 14.5684C5.62118 14.7258 5.8429 14.759 6.00021 14.6429C6.15757 14.5267 6.1909 14.3049 6.0747 14.1475L5.16986 12.9226C4.7447 12.347 5.17989 11.5493 5.88124 11.6137C6.09124 11.6329 6.28076 11.7297 6.41815 11.8872C6.41843 11.8877 6.41876 11.8881 6.41904 11.8887C6.49634 12.0278 6.17407 11.5799 12.0621 19.5448C12.6701 20.3673 13.5079 20.9569 14.4849 21.2501C14.8344 21.355 15.1515 21.5814 15.378 21.8878C15.5775 22.1577 15.6972 22.357 15.9807 22.5247L15.1119 23.1665C14.975 23.2677 14.8068 23.3093 14.6386 23.2841C14.2678 23.2283 14.1674 22.923 14.0155 22.7546C13.6988 22.3259 13.2518 22.0078 12.7568 21.859C11.9276 21.6099 11.2166 21.1088 10.7006 20.4103C10.6218 20.3036 7.43427 15.9881 7.05678 15.4771C6.94053 15.3198 6.71881 15.2865 6.5615 15.4026C6.40414 15.5189 6.37081 15.7406 6.48706 15.898C7.28483 16.9781 9.35138 19.776 10.1308 20.8312C10.7384 21.6538 11.576 22.2439 12.5529 22.5374C13.2574 22.7492 13.5299 23.3221 13.651 23.4534C14.0929 24.0516 14.9343 24.1783 15.5329 23.7363L16.9677 22.6765C17.4029 22.5769 17.5684 22.3408 18.2541 21.8647C18.4114 21.7484 18.4447 21.5266 18.3284 21.3693C18.2121 21.212 17.9903 21.1789 17.833 21.2951C17.0736 21.8314 17.0167 21.9629 16.7463 21.9974C16.5554 22.0214 16.3702 21.9582 16.2387 21.8389C16.0377 21.6574 15.6922 20.8728 14.6887 20.5716C13.8588 20.3225 13.1478 19.8215 12.6319 19.1237C6.61095 10.9793 6.99369 11.5714 6.94264 11.2712C6.80286 10.4297 7.8816 9.96948 8.38833 10.6548L10.9581 14.131C11.0276 14.225 11.1347 14.2747 11.2432 14.2747C11.5294 14.2747 11.7021 13.9457 11.5278 13.71C7.53777 8.31258 7.7624 8.65378 7.70095 8.44547C7.64905 8.27109 7.65407 8.07989 7.72181 7.90631C7.84026 7.60297 8.15193 7.37652 8.52553 7.40235C8.68158 7.41318 8.82099 7.46179 8.94582 7.55221C9.13041 7.6859 8.93068 7.48536 12.8322 12.7456C12.9017 12.8396 13.0088 12.8893 13.1173 12.8893C13.4035 12.8893 13.5762 12.5603 13.4018 12.3246C13.1327 11.9605 14.1255 13.3035 9.69292 7.30733C9.02855 6.40868 9.07379 6.47248 9.04332 6.42265C8.943 6.25816 8.90405 6.06419 8.93565 5.87074C9.05265 5.15359 9.97084 4.95451 10.4041 5.54041C10.8975 6.20787 14.0791 10.5118 14.7063 11.3602C14.7759 11.4542 14.8829 11.5039 14.9914 11.5039C15.2776 11.5039 15.4503 11.1749 15.276 10.9392C14.8964 10.4258 11.9641 6.45917 11.567 5.92188C11.4258 5.71746 11.3813 5.50872 11.4221 5.29066C11.5532 4.58846 12.4556 4.39491 12.8858 4.97692L16.3702 9.69034C16.6059 10.0093 17.111 9.75461 16.9933 9.37491C16.9447 9.21798 16.9371 9.17973 16.9251 9.14147C16.8471 8.88943 16.6454 8.04726 17.329 7.79376C17.6543 7.6731 17.8698 7.6424 18.189 8.48934C18.5373 9.42596 19.0531 10.5079 19.6996 11.2533C19.7536 11.3157 19.7549 11.3226 19.8378 11.4299C19.9562 11.5855 20.1784 11.6157 20.3342 11.4974C20.4898 11.3788 20.52 11.1565 20.4016 11.0008ZM6.32839 10.5684L5.90608 9.99662C5.64658 9.64534 5.69435 9.1553 6.01479 8.88094C6.35792 8.58708 6.86239 8.6303 7.15114 8.95735C7.23707 9.11344 7.30738 9.18615 7.62416 9.62101C7.03222 9.66287 6.53445 10.0497 6.32839 10.5684ZM7.2815 7.26556C7.19436 7.37596 7.12381 7.49586 7.07155 7.62238C7.00545 7.47768 6.98352 7.31671 7.00981 7.15569C7.11491 6.51326 7.87593 6.2689 8.35772 6.69462C8.31717 6.69758 7.5703 6.90116 7.2815 7.26556Z" fill="black"/>
</svg>
