<svg width="184" height="40" viewBox="0 0 184 40" fill="none" xmlns="http://www.w3.org/2000/svg">
<path d="M62.456 28.216C60.792 28.216 59.336 27.864 58.088 27.16C56.84 26.456 55.88 25.448 55.208 24.136C54.536 22.824 54.2 21.288 54.2 19.528C54.2 17.768 54.536 16.24 55.208 14.944C55.88 13.632 56.84 12.624 58.088 11.92C59.336 11.216 60.792 10.864 62.456 10.864C64.552 10.864 66.36 11.44 67.88 12.592C68.12 12.784 68.288 12.976 68.384 13.168C68.48 13.36 68.528 13.6 68.528 13.888C68.528 14.304 68.408 14.664 68.168 14.968C67.944 15.256 67.664 15.4 67.328 15.4C67.104 15.4 66.904 15.376 66.728 15.328C66.568 15.264 66.384 15.16 66.176 15.016C65.536 14.6 64.944 14.304 64.4 14.128C63.856 13.936 63.272 13.84 62.648 13.84C61.112 13.84 59.952 14.32 59.168 15.28C58.4 16.224 58.016 17.64 58.016 19.528C58.016 23.336 59.56 25.24 62.648 25.24C63.24 25.24 63.8 25.152 64.328 24.976C64.856 24.784 65.472 24.48 66.176 24.064C66.416 23.92 66.616 23.824 66.776 23.776C66.936 23.712 67.12 23.68 67.328 23.68C67.664 23.68 67.944 23.832 68.168 24.136C68.408 24.424 68.528 24.776 68.528 25.192C68.528 25.48 68.472 25.728 68.36 25.936C68.264 26.128 68.104 26.312 67.88 26.488C66.36 27.64 64.552 28.216 62.456 28.216Z" fill="#4A4A4A"/>
<path d="M76.0873 28.192C74.8393 28.192 73.7433 27.944 72.7993 27.448C71.8553 26.936 71.1273 26.224 70.6153 25.312C70.1033 24.384 69.8473 23.296 69.8473 22.048C69.8473 20.8 70.1033 19.72 70.6153 18.808C71.1273 17.88 71.8553 17.168 72.7993 16.672C73.7433 16.176 74.8393 15.928 76.0873 15.928C77.3353 15.928 78.4313 16.176 79.3753 16.672C80.3193 17.168 81.0473 17.88 81.5593 18.808C82.0713 19.72 82.3273 20.8 82.3273 22.048C82.3273 23.296 82.0713 24.384 81.5593 25.312C81.0473 26.224 80.3193 26.936 79.3753 27.448C78.4313 27.944 77.3353 28.192 76.0873 28.192ZM76.0873 25.432C77.8473 25.432 78.7273 24.304 78.7273 22.048C78.7273 20.912 78.4953 20.064 78.0313 19.504C77.5833 18.944 76.9353 18.664 76.0873 18.664C74.3273 18.664 73.4473 19.792 73.4473 22.048C73.4473 24.304 74.3273 25.432 76.0873 25.432Z" fill="#4A4A4A"/>
<path d="M99.0526 15.928C100.333 15.928 101.317 16.32 102.005 17.104C102.693 17.872 103.037 19.136 103.037 20.896V26.44C103.037 27 102.869 27.424 102.533 27.712C102.197 28 101.765 28.144 101.237 28.144C100.725 28.144 100.293 28 99.9406 27.712C99.5886 27.424 99.4126 27 99.4126 26.44V20.848C99.4126 20.08 99.2766 19.544 99.0046 19.24C98.7486 18.92 98.3486 18.76 97.8046 18.76C97.1326 18.76 96.5966 18.992 96.1966 19.456C95.7966 19.92 95.5966 20.568 95.5966 21.4V26.44C95.5966 27 95.4286 27.424 95.0926 27.712C94.7566 28 94.3246 28.144 93.7966 28.144C93.2846 28.144 92.8526 28 92.5006 27.712C92.1486 27.424 91.9726 27 91.9726 26.44V20.848C91.9726 20.08 91.8366 19.544 91.5646 19.24C91.3086 18.92 90.9086 18.76 90.3646 18.76C89.6926 18.76 89.1566 18.992 88.7566 19.456C88.3566 19.92 88.1566 20.568 88.1566 21.4V26.44C88.1566 27 87.9806 27.424 87.6286 27.712C87.2926 28 86.8686 28.144 86.3566 28.144C85.8446 28.144 85.4126 28 85.0606 27.712C84.7086 27.424 84.5326 27 84.5326 26.44V17.632C84.5326 17.104 84.7086 16.696 85.0606 16.408C85.4286 16.12 85.8686 15.976 86.3806 15.976C86.8606 15.976 87.2606 16.12 87.5806 16.408C87.9006 16.68 88.0606 17.064 88.0606 17.56V17.8C88.4446 17.192 88.9406 16.728 89.5486 16.408C90.1726 16.088 90.8766 15.928 91.6606 15.928C92.5086 15.928 93.2206 16.104 93.7966 16.456C94.3886 16.792 94.8446 17.344 95.1646 18.112C95.5326 17.44 96.0526 16.912 96.7246 16.528C97.4126 16.128 98.1886 15.928 99.0526 15.928Z" fill="#4A4A4A"/>
<path d="M120.287 15.928C121.567 15.928 122.551 16.32 123.239 17.104C123.927 17.872 124.271 19.136 124.271 20.896V26.44C124.271 27 124.103 27.424 123.767 27.712C123.431 28 122.999 28.144 122.471 28.144C121.959 28.144 121.527 28 121.175 27.712C120.823 27.424 120.647 27 120.647 26.44V20.848C120.647 20.08 120.511 19.544 120.239 19.24C119.983 18.92 119.583 18.76 119.039 18.76C118.367 18.76 117.831 18.992 117.431 19.456C117.031 19.92 116.831 20.568 116.831 21.4V26.44C116.831 27 116.663 27.424 116.327 27.712C115.991 28 115.559 28.144 115.031 28.144C114.519 28.144 114.087 28 113.735 27.712C113.383 27.424 113.207 27 113.207 26.44V20.848C113.207 20.08 113.071 19.544 112.799 19.24C112.543 18.92 112.143 18.76 111.599 18.76C110.927 18.76 110.391 18.992 109.991 19.456C109.591 19.92 109.391 20.568 109.391 21.4V26.44C109.391 27 109.215 27.424 108.863 27.712C108.527 28 108.103 28.144 107.591 28.144C107.079 28.144 106.647 28 106.295 27.712C105.943 27.424 105.767 27 105.767 26.44V17.632C105.767 17.104 105.943 16.696 106.295 16.408C106.663 16.12 107.103 15.976 107.615 15.976C108.095 15.976 108.495 16.12 108.815 16.408C109.135 16.68 109.295 17.064 109.295 17.56V17.8C109.679 17.192 110.175 16.728 110.783 16.408C111.407 16.088 112.111 15.928 112.895 15.928C113.743 15.928 114.455 16.104 115.031 16.456C115.623 16.792 116.079 17.344 116.399 18.112C116.767 17.44 117.287 16.912 117.959 16.528C118.647 16.128 119.423 15.928 120.287 15.928Z" fill="#4A4A4A"/>
<path d="M136.529 15.976C137.089 15.976 137.529 16.128 137.849 16.432C138.185 16.736 138.353 17.152 138.353 17.68V26.488C138.353 26.984 138.177 27.384 137.825 27.688C137.489 27.992 137.049 28.144 136.505 28.144C135.993 28.144 135.585 28 135.281 27.712C134.977 27.424 134.825 27.04 134.825 26.56V26.32C134.457 26.928 133.969 27.392 133.361 27.712C132.769 28.032 132.097 28.192 131.345 28.192C129.857 28.192 128.745 27.784 128.009 26.968C127.289 26.136 126.929 24.888 126.929 23.224V17.68C126.929 17.152 127.089 16.736 127.409 16.432C127.745 16.128 128.193 15.976 128.753 15.976C129.313 15.976 129.753 16.128 130.073 16.432C130.393 16.736 130.553 17.152 130.553 17.68V23.296C130.553 24 130.697 24.52 130.985 24.856C131.289 25.192 131.745 25.36 132.353 25.36C133.057 25.36 133.625 25.12 134.057 24.64C134.505 24.16 134.729 23.528 134.729 22.744V17.68C134.729 17.152 134.889 16.736 135.209 16.432C135.529 16.128 135.969 15.976 136.529 15.976Z" fill="#4A4A4A"/>
<path d="M148.526 15.928C149.934 15.928 150.982 16.344 151.67 17.176C152.358 17.992 152.702 19.232 152.702 20.896V26.44C152.702 26.968 152.534 27.384 152.198 27.688C151.878 27.992 151.438 28.144 150.878 28.144C150.318 28.144 149.878 27.992 149.558 27.688C149.238 27.384 149.078 26.968 149.078 26.44V21.064C149.078 20.264 148.926 19.68 148.622 19.312C148.334 18.944 147.878 18.76 147.254 18.76C146.502 18.76 145.894 19 145.43 19.48C144.982 19.96 144.758 20.6 144.758 21.4V26.44C144.758 26.968 144.598 27.384 144.278 27.688C143.958 27.992 143.518 28.144 142.958 28.144C142.398 28.144 141.95 27.992 141.614 27.688C141.294 27.384 141.134 26.968 141.134 26.44V17.632C141.134 17.136 141.302 16.736 141.638 16.432C141.99 16.128 142.438 15.976 142.982 15.976C143.478 15.976 143.878 16.128 144.182 16.432C144.502 16.72 144.662 17.096 144.662 17.56V17.896C145.078 17.256 145.614 16.768 146.27 16.432C146.942 16.096 147.694 15.928 148.526 15.928Z" fill="#4A4A4A"/>
<path d="M157.232 28.144C156.704 28.144 156.264 28 155.912 27.712C155.576 27.424 155.408 27 155.408 26.44V17.68C155.408 17.12 155.584 16.696 155.936 16.408C156.288 16.12 156.72 15.976 157.232 15.976C157.744 15.976 158.168 16.12 158.504 16.408C158.856 16.696 159.032 17.12 159.032 17.68V26.44C159.032 27 158.856 27.424 158.504 27.712C158.168 28 157.744 28.144 157.232 28.144ZM157.232 14.056C156.592 14.056 156.088 13.896 155.72 13.576C155.352 13.24 155.168 12.792 155.168 12.232C155.168 11.672 155.352 11.232 155.72 10.912C156.088 10.592 156.592 10.432 157.232 10.432C157.856 10.432 158.352 10.6 158.72 10.936C159.104 11.256 159.296 11.688 159.296 12.232C159.296 12.792 159.112 13.24 158.744 13.576C158.376 13.896 157.872 14.056 157.232 14.056Z" fill="#4A4A4A"/>
<path d="M169.061 25.504C169.541 25.536 169.893 25.656 170.117 25.864C170.341 26.072 170.453 26.376 170.453 26.776C170.453 27.24 170.269 27.592 169.901 27.832C169.533 28.072 169.005 28.168 168.317 28.12L167.645 28.072C164.845 27.848 163.445 26.384 163.445 23.68V18.928H162.485C161.957 18.928 161.557 18.816 161.285 18.592C161.013 18.352 160.877 18.016 160.877 17.584C160.877 17.136 161.013 16.8 161.285 16.576C161.557 16.336 161.957 16.216 162.485 16.216H163.445V14.344C163.445 13.816 163.605 13.4 163.925 13.096C164.261 12.792 164.709 12.64 165.269 12.64C165.829 12.64 166.269 12.792 166.589 13.096C166.909 13.4 167.069 13.816 167.069 14.344V16.216H168.749C169.837 16.216 170.381 16.672 170.381 17.584C170.381 18.016 170.245 18.352 169.973 18.592C169.701 18.816 169.293 18.928 168.749 18.928H167.069V23.944C167.069 24.424 167.181 24.792 167.405 25.048C167.629 25.288 167.957 25.424 168.389 25.456L169.061 25.504Z" fill="#4A4A4A"/>
<path d="M180.065 17.008C180.209 16.672 180.409 16.424 180.665 16.264C180.937 16.104 181.225 16.024 181.529 16.024C181.993 16.024 182.401 16.176 182.753 16.48C183.105 16.768 183.281 17.12 183.281 17.536C183.281 17.76 183.225 17.984 183.113 18.208L176.657 31.456C176.497 31.792 176.281 32.04 176.009 32.2C175.737 32.376 175.449 32.464 175.145 32.464C174.697 32.464 174.305 32.32 173.969 32.032C173.633 31.744 173.465 31.392 173.465 30.976C173.465 30.72 173.521 30.48 173.633 30.256L175.217 26.968L170.945 18.208C170.849 17.984 170.801 17.768 170.801 17.56C170.801 17.128 170.985 16.76 171.353 16.456C171.737 16.152 172.169 16 172.649 16C172.969 16 173.265 16.088 173.537 16.264C173.809 16.424 174.025 16.672 174.185 17.008L177.161 23.488L180.065 17.008Z" fill="#4A4A4A"/>
<circle cx="20" cy="20" r="20" fill="#4A4A4A"/>
<path fill-rule="evenodd" clip-rule="evenodd" d="M16.8929 12C21.2529 12 24.7857 14.717 24.7857 18.0714C24.7857 21.4259 21.2529 24.1429 16.8929 24.1429C15.3371 24.1429 13.8913 23.79 12.6694 23.1942C11.8422 23.6761 10.6924 24.1429 9.30357 24.1429C9.18214 24.1429 9.07589 24.0746 9.02656 23.9607C8.97723 23.8469 9 23.7179 9.08348 23.6306C9.09487 23.6192 9.93348 22.7085 10.442 21.5625C9.53504 20.5721 9 19.373 9 18.0714C9 14.717 12.5328 12 16.8929 12ZM30.8571 22.9286C30.8571 24.2301 30.3221 25.433 29.4152 26.4196C29.9237 27.5694 30.7623 28.4763 30.7737 28.4877C30.8571 28.5788 30.8799 28.7078 30.8306 28.8179C30.785 28.9279 30.675 29 30.5536 29C29.1647 29 28.015 28.5333 27.1877 28.0513C25.9658 28.6509 24.5201 29 22.9643 29C19.6933 29 16.8853 27.467 15.69 25.285C16.0846 25.3268 16.483 25.3571 16.8929 25.3571C21.9132 25.3571 26 22.09 26 18.0714C26 17.8134 25.9848 17.5592 25.9507 17.3087C28.827 18.2156 30.8571 20.39 30.8571 22.9286ZM16.797 23.0564C20.3972 23.0564 23.3158 20.8245 23.3158 18.0714C23.3158 15.3183 20.3972 13.0865 16.797 13.0865C13.1968 13.0865 10.2782 15.3183 10.2782 18.0714C10.2782 20.8245 13.1968 23.0564 16.797 23.0564Z" fill="white"/>
</svg>
