<svg width="25" height="25" viewBox="0 0 25 25" fill="none" xmlns="http://www.w3.org/2000/svg">
<path d="M15.3952 12.4962H8.22736C7.41399 12.4962 6.44811 12.1912 5.78725 11.8861C6.34644 11.454 7.13439 10.8948 7.92234 10.3865C7.26148 9.5477 6.8548 8.48015 6.8548 7.31094C6.77854 7.33635 6.72771 7.38719 6.65146 7.41261C2 10.2848 2 11.3524 2 11.9878C2 14.1229 5.50765 15.4955 7.74442 15.648L7.46482 23.1629C7.43941 23.6967 7.87151 24.1288 8.40528 24.1288H15.1664C15.7002 24.1288 16.1323 23.6967 16.1069 23.1629L16.0306 22.1041C16.3102 22.3328 16.6661 22.4599 17.0219 22.4599C17.3523 22.4599 17.6828 22.3583 17.9624 22.1549C19.6145 20.9857 21.5717 19.2319 21.5463 17.5543C21.5463 15.1905 16.6152 12.4962 15.3952 12.4962ZM16.1069 19.5623C16.056 19.5877 16.0306 19.6386 15.9798 19.6894L15.8527 15.9784C16.6406 16.4105 17.7082 17.1476 18.2166 17.656C17.8353 18.1643 16.9711 18.9523 16.1069 19.5623Z" fill="#CD2A00"/>
<path d="M11.8111 11.454C14.1133 11.454 15.9796 9.58773 15.9796 7.28552C15.9796 4.98331 14.1133 3.117 11.8111 3.117C9.50889 3.117 7.64258 4.98331 7.64258 7.28552C7.64258 9.58773 9.50889 11.454 11.8111 11.454Z" fill="#CD2A00"/>
<path d="M19.4619 4.71832C18.7248 4.41331 17.5301 4.6929 16.6914 5.22667C16.5134 5.32835 16.6151 5.60794 16.8185 5.58252C17.3522 5.53169 17.9114 5.58252 18.496 6.21797C18.979 6.75174 19.6398 7.23468 20.1482 6.59924C20.6565 5.98921 20.3261 5.09959 19.4619 4.71832Z" fill="#CD2A00"/>
<path d="M16.5135 4.46414C16.9202 3.90495 17.4032 3.42201 18.4707 3.37118C19.3603 3.34576 20.377 3.09158 20.1991 2.10029C20.0212 1.10899 18.9028 0.702309 17.8353 1.23608C16.9456 1.6936 16.2339 3.06616 16.0814 4.28622C16.0306 4.5404 16.361 4.66748 16.5135 4.46414Z" fill="#CD2A00"/>
</svg>
