<svg width="186" height="164" viewBox="0 0 186 164" fill="none" xmlns="http://www.w3.org/2000/svg">
<g filter="url(#filter0_d)">
<path d="M150.99 108.209C151.013 112.442 148.732 116.338 145.004 118.436L98.9153 144.348C95.1843 146.444 90.5798 146.419 86.8287 144.283L40.4433 117.872C36.6927 115.736 34.3689 111.816 34.3421 107.58L34.0448 55.2562C34.0227 51.0224 36.3027 47.1267 40.0307 45.0288L86.1162 19.1197C89.8488 17.0241 94.4523 17.049 98.2029 19.1846L144.589 45.5963C148.339 47.732 150.664 51.6522 150.69 55.8875L150.99 108.209Z" fill="white"/>
</g>
<path d="M142.643 104.735C142.743 108.3 140.874 111.537 137.737 113.233L98.9549 134.179C95.8155 135.874 91.8912 135.765 88.654 133.896L48.623 110.785C45.3862 108.916 43.3313 105.572 43.2278 102.005L41.9778 57.9465C41.8783 54.3815 43.7471 51.1447 46.8839 49.4488L85.6628 28.505C88.8036 26.8112 92.727 26.919 95.9638 28.7877L135.995 51.8998C139.232 53.7687 141.288 57.113 141.39 60.6793L142.643 104.735Z" fill="#FAFAFA"/>
<path d="M105.908 79.2384V71.2105H108.024C109.188 71.2105 110.133 70.2678 110.133 69.1052V61.3158C110.133 57.8332 107.294 55 103.805 55C100.315 55 97.4767 57.8332 97.4767 61.3158V69.1052C97.4767 70.2678 98.4212 71.2105 99.5861 71.2105H101.689V79.2698C94.4807 80.3442 88.9335 86.564 88.9335 94.0527C88.9335 102.294 95.6522 109 103.91 109C105.808 109 107.659 108.65 109.411 107.959C110.494 107.532 111.025 106.309 110.598 105.227C110.17 104.146 108.944 103.616 107.861 104.043C106.604 104.538 105.275 104.789 103.91 104.789C97.9783 104.789 93.1523 99.9729 93.1523 94.0527C93.1523 88.1324 97.9783 83.3159 103.91 83.3159C109.842 83.3159 114.668 88.1324 114.668 94.0527C114.668 95.5581 114.363 97.0132 113.761 98.3773C113.291 99.4411 113.774 100.684 114.84 101.152C115.906 101.621 117.151 101.139 117.621 100.075C118.461 98.1726 118.887 96.1464 118.887 94.0527C118.887 86.4865 113.225 80.2161 105.908 79.2384ZM101.695 61.3158C101.695 60.1548 102.642 59.2105 103.805 59.2105C104.968 59.2105 105.914 60.1548 105.914 61.3158V67H101.695V61.3158ZM109.093 91.7377L106.893 93.9332L109.093 96.1287C109.917 96.951 109.917 98.2838 109.093 99.1061C108.682 99.5173 108.142 99.7225 107.602 99.7225C107.062 99.7225 106.522 99.5173 106.11 99.1061L103.91 96.9106L101.71 99.1061C101.299 99.5173 100.759 99.7225 100.219 99.7225C99.679 99.7225 99.139 99.5173 98.7271 99.1061C97.9035 98.2838 97.9035 96.951 98.7271 96.1287L100.927 93.9332L98.7271 91.7377C97.9035 90.9154 97.9035 89.5826 98.7271 88.7603C99.551 87.9384 100.887 87.9384 101.71 88.7603L103.91 90.9558L106.11 88.7603C106.934 87.9384 108.269 87.9384 109.093 88.7603C109.917 89.5826 109.917 90.9154 109.093 91.7377ZM80.0411 74.9134C79.63 75.3221 79.0917 75.5264 78.5534 75.5264C78.0156 75.5264 77.4773 75.3221 77.0657 74.9134L73.5099 71.3823C72.6839 70.562 72.6806 69.2292 73.5021 68.4048C74.3239 67.5809 75.6593 67.5776 76.4853 68.3974L78.5534 70.4512L83.0021 66.0338C83.8277 65.214 85.1635 65.2173 85.9849 66.0417C86.8068 66.8656 86.8035 68.1988 85.9775 69.0187L80.0411 74.9134ZM83.9767 92.6841H81.8607V84.8666C89.1779 83.889 94.8398 77.6189 94.8398 70.0528C94.8398 61.8106 88.1216 55.1055 79.8632 55.1055C71.6053 55.1055 64.8867 61.8106 64.8867 70.0528C64.8867 77.5415 70.4338 83.7612 77.642 84.8353V92.6841H75.5392C74.3739 92.6841 73.4298 93.6267 73.4298 94.7893V102.579C73.4298 106.061 76.2686 108.895 79.758 108.895C83.2473 108.895 86.0861 106.061 86.0861 102.579V94.7893C86.0861 93.6267 85.1416 92.6841 83.9767 92.6841ZM69.1054 70.0528C69.1054 64.1321 73.9314 59.316 79.8632 59.316C85.7951 59.316 90.621 64.1321 90.621 70.0528C90.621 75.973 85.7951 80.7896 79.8632 80.7896C73.9314 80.7896 69.1054 75.973 69.1054 70.0528ZM81.8673 102.579C81.8673 103.74 80.9208 104.684 79.758 104.684C78.5947 104.684 77.6486 103.74 77.6486 102.579V96.8946H81.8673V102.579Z" fill="#8A96FF"/>
<defs>
<filter id="filter0_d" x="24.0447" y="7.56525" width="136.946" height="148.338" filterUnits="userSpaceOnUse" color-interpolation-filters="sRGB">
<feFlood flood-opacity="0" result="BackgroundImageFix"/>
<feColorMatrix in="SourceAlpha" type="matrix" values="0 0 0 0 0 0 0 0 0 0 0 0 0 0 0 0 0 0 127 0"/>
<feOffset/>
<feGaussianBlur stdDeviation="5"/>
<feColorMatrix type="matrix" values="0 0 0 0 0.843219 0 0 0 0 0.843219 0 0 0 0 0.843219 0 0 0 0.5 0"/>
<feBlend mode="normal" in2="BackgroundImageFix" result="effect1_dropShadow"/>
<feBlend mode="normal" in="SourceGraphic" in2="effect1_dropShadow" result="shape"/>
</filter>
</defs>
</svg>
