<svg width="72" height="61" viewBox="0 0 72 61" fill="none" xmlns="http://www.w3.org/2000/svg">
<path d="M30.6913 21.3333V54.4166H36L37.3334 40.6716L36 21.3333H30.6913Z" fill="#BEDFFE"/>
<path d="M61.125 21.3333H36V60.5615L51.9314 54.4165H68V28.2083C68 24.4174 64.916 21.3333 61.125 21.3333Z" fill="#A2D2FD"/>
<path d="M53.8785 47.0128L57.3869 45.6888L50.9648 28.6712L47.7784 28.6744L41.3011 45.6814L44.8055 47.0161L46.3454 42.9727H52.3538L53.8785 47.0128ZM47.7736 39.2228L49.3634 35.0488L50.9386 39.2228H47.7736Z" fill="#F7F0EB"/>
<path d="M41.3395 0H36L34.6666 16.4632L36 33.0832H41.3395V0Z" fill="#DD4C12"/>
<path d="M10.875 0C7.08413 0 4 3.08412 4 6.875V33.0832H21.6618L36 39.2282V0H10.875Z" fill="#DF6426"/>
<path d="M31.6225 23.2463L29.3815 21.0053C30.2721 19.6094 30.7908 17.9543 30.7908 16.1793C30.7908 11.2169 26.7536 7.17968 21.7911 7.17968C16.8286 7.17968 12.7915 11.2168 12.7915 16.1793C12.7915 21.1418 16.8286 25.1789 21.7911 25.1789C23.6244 25.1789 25.3305 24.6267 26.7543 23.6816L28.9706 25.8979L31.6225 23.2463ZM21.7913 21.4288C18.8966 21.4288 16.5416 19.0739 16.5416 16.1792C16.5416 13.2846 18.8965 10.9296 21.7913 10.9296C24.686 10.9296 27.0409 13.2844 27.0409 16.1792C27.0409 16.9111 26.8899 17.6082 26.6181 18.2418L24.4124 16.0361L21.7608 18.6877L24.0089 20.9358C23.3346 21.2514 22.5835 21.4288 21.7913 21.4288Z" fill="#FFFBF5"/>
</svg>
