<svg width="109" height="109" viewBox="0 0 109 109" fill="none" xmlns="http://www.w3.org/2000/svg">
<g clip-path="url(#clip0)">
<path d="M76.6716 48.1548V28.8525C76.6716 28.3007 76.4161 27.7887 76.0547 27.3863L54.3635 4.65941C53.9582 4.23508 53.3832 4 52.8082 4H18.4206C12.0714 4 7 9.16574 7 15.5009V80.3825C7 86.7176 12.0714 91.7977 18.4206 91.7977H45.5645C50.6978 100.302 60.0319 106 70.6619 106C86.8124 106 100 92.9053 100 76.7686C100.022 62.6739 89.8812 50.8981 76.6716 48.1548ZM54.9386 11.4627L69.4898 26.7468H60.0519C57.2387 26.7468 54.9386 24.4299 54.9386 21.6249V11.4627ZM18.4206 87.5484C14.4374 87.5484 11.2628 84.3589 11.2628 80.3845V15.5009C11.2628 11.5046 14.4374 8.25133 18.4206 8.25133H50.6778V21.6229C50.6778 26.7886 54.8747 30.9981 60.0519 30.9981H72.4089V47.601C71.77 47.5791 71.2588 47.5154 70.7038 47.5154C63.2684 47.5154 56.428 50.3642 51.2728 54.8287H24.2148C23.0427 54.8287 22.0844 55.7849 22.0844 56.9543C22.0844 58.1237 23.0427 59.08 24.2148 59.08H47.3115C45.7981 61.2057 44.5402 63.3313 43.5619 65.6702H24.2148C23.0427 65.6702 22.0844 66.6264 22.0844 67.7958C22.0844 68.9652 23.0427 69.9215 24.2148 69.9215H42.1762C41.6431 72.0471 41.3676 74.4079 41.3676 76.7666C41.3676 80.5936 42.1124 84.3768 43.4561 87.5663H18.4206V87.5484ZM70.6838 101.771C56.8773 101.771 45.6483 90.5665 45.6483 76.7906C45.6483 63.0146 56.8553 51.8105 70.6838 51.8105C84.5103 51.8105 95.7173 63.0146 95.7173 76.7906C95.7173 90.5665 84.4904 101.771 70.6838 101.771Z" fill="white"/>
<path d="M24.2149 48.4318H45.7982C46.9702 48.4318 47.9286 47.4755 47.9286 46.3061C47.9286 45.1367 46.9702 44.1804 45.7982 44.1804H24.2149C23.0428 44.1804 22.0845 45.1367 22.0845 46.3061C22.0845 47.4735 23.0428 48.4318 24.2149 48.4318Z" fill="white"/>
<path d="M81.5913 76.3445L72.8342 85.7615V62.5466C72.8342 61.3772 71.8758 60.4209 70.7038 60.4209C69.5318 60.4209 68.5734 61.3772 68.5734 62.5466V85.7615L59.7524 76.3445C58.9438 75.4938 57.5801 75.43 56.7275 76.2389C55.875 77.0477 55.8111 78.3864 56.6217 79.2371L69.0865 92.6087C69.4918 93.033 70.0449 93.288 70.6419 93.288C71.2389 93.288 71.7919 93.033 72.1973 92.6087L84.684 79.2371C85.4927 78.3864 85.4507 77.0258 84.5982 76.2389C83.7237 75.43 82.4019 75.4938 81.5913 76.3445Z" fill="white"/>
</g>
<defs>
<clipPath id="clip0">
<rect x="7" y="4" width="93" height="102" fill="white"/>
</clipPath>
</defs>
</svg>
