<svg width="24" height="24" viewBox="0 0 24 24" fill="none" xmlns="http://www.w3.org/2000/svg">
<rect x="6.04395" y="4.89301" width="2.58274" height="1.04842" rx="0.52421" transform="rotate(38.0376 6.04395 4.89301)" fill="#3DB413"/>
<rect x="8.24121" y="3.30609" width="2.61827" height="1.04842" rx="0.52421" transform="rotate(67.6407 8.24121 3.30609)" fill="#3DB413"/>
<rect x="10.8792" y="3.05609" width="2.5793" height="1.04842" rx="0.52421" transform="rotate(93.0683 10.8792 3.05609)" fill="#3DB413"/>
<rect x="13.3986" y="4.15588" width="2.63999" height="1.04842" rx="0.52421" transform="rotate(124.315 13.3986 4.15588)" fill="#3DB413"/>
<rect x="9.94104" y="14.3047" width="7.33894" height="2.09684" rx="1.04842" transform="rotate(-43.0971 9.94104 14.3047)" fill="#3DB413"/>
<rect x="11.6884" y="16.4016" width="7.33894" height="2.09684" rx="1.04842" transform="rotate(-43.0971 11.6884 16.4016)" fill="#3DB413"/>
<rect x="13.4358" y="18.6624" width="6.55587" height="2.09684" rx="1.04842" transform="rotate(-43.0971 13.4358 18.6624)" fill="#3DB413"/>
<path d="M4.09333 9.67078L6.71438 14.2139C4.75733 16.0312 5.43298 18.3494 6.01543 19.2813C9.1607 21.7276 12.1312 22.2518 12.8302 21.9023C13.3893 21.6228 14.3445 20.6209 14.7523 20.155C13.6339 20.155 13.4709 18.7571 13.5291 18.0581C11.8516 18.4775 11.5488 16.9515 11.607 16.136C9.23058 16.136 9.5684 14.2722 10.0344 13.3402L16.0211 7.79161C16.7854 7.0832 17.54 5.58035 16.5696 5.20036C15.8793 4.93001 15.3382 5.39735 14.7973 5.90444L10.0344 10.3697C8.91605 11.6278 7.93753 10.8939 7.58805 10.3697L6.85254 9.30732C6.31215 8.52675 5.44122 7.69618 4.56966 8.07259C3.91118 8.35697 3.93504 9.15636 4.09333 9.67078Z" fill="#3DB413"/>
</svg>
