<svg width="90" height="147" viewBox="0 0 90 147" fill="none" xmlns="http://www.w3.org/2000/svg">
<path d="M0 4C0 1.79086 1.79086 0 4 0H89.5237V146.845H4C1.79086 146.845 0 145.054 0 142.845V4Z" fill="#1D7DEA"/>
<mask id="mask0" mask-type="alpha" maskUnits="userSpaceOnUse" x="0" y="0" width="90" height="147">
<rect width="89.5237" height="146.845" rx="4" fill="#1D7DEA"/>
</mask>
<g mask="url(#mask0)">
<path d="M81.5352 31.0252C94.9086 31.0252 105.75 20.1872 105.75 6.81783C105.75 -6.55155 94.9086 -17.3896 81.5352 -17.3896C68.1617 -17.3896 57.3203 -6.55155 57.3203 6.81783C57.3203 20.1872 68.1617 31.0252 81.5352 31.0252Z" fill="white" fill-opacity="0.15"/>
<path d="M62.1386 33.4598C68.0009 33.4598 72.7533 28.7088 72.7533 22.8483C72.7533 16.9877 68.0009 12.2368 62.1386 12.2368C56.2762 12.2368 51.5238 16.9877 51.5238 22.8483C51.5238 28.7088 56.2762 33.4598 62.1386 33.4598Z" fill="#7DBAFF" fill-opacity="0.15"/>
<path fill-rule="evenodd" clip-rule="evenodd" d="M21.9352 96.9804C21.0715 96.7618 20.5461 95.8945 20.7615 95.0433C20.977 94.1921 21.8517 93.6792 22.7154 93.8978C23.579 94.1164 24.1045 94.9837 23.8891 95.8349C23.6736 96.6861 22.7988 97.199 21.9352 96.9804ZM24.6658 86.1915C23.8022 85.9729 23.2767 85.1056 23.4922 84.2544C23.7076 83.4032 24.5823 82.8903 25.446 83.1089C26.3097 83.3275 26.8351 84.1948 26.6197 85.046C26.4043 85.8972 25.5295 86.41 24.6658 86.1915ZM27.3965 75.4025C26.5328 75.1839 26.0074 74.3167 26.2228 73.4655C26.4382 72.6142 27.313 72.1014 28.1766 72.32C29.0403 72.5386 29.5658 73.4058 29.3503 74.257C29.1349 75.1083 28.2601 75.6211 27.3965 75.4025ZM30.1271 64.6136C29.2634 64.395 28.738 63.5278 28.9534 62.6766C29.1689 61.8253 30.0436 61.3125 30.9073 61.5311C31.7709 61.7496 32.2964 62.6169 32.081 63.4681C31.8655 64.3193 30.9907 64.8322 30.1271 64.6136ZM32.8577 53.8247C31.9941 53.6061 31.4686 52.7389 31.684 51.8876C31.8995 51.0364 32.7742 50.5235 33.6379 50.7421C34.5015 50.9607 35.027 51.828 34.8116 52.6792C34.5961 53.5304 33.7214 54.0433 32.8577 53.8247ZM35.5883 43.0358C34.7247 42.8172 34.1992 41.9499 34.4147 41.0987C34.6301 40.2475 35.5049 39.7346 36.3685 39.9532C37.2322 40.1718 37.7577 41.039 37.5422 41.8903C37.3268 42.7415 36.452 43.2543 35.5883 43.0358ZM11.6589 94.3795C10.7953 94.1609 10.2698 93.2937 10.4852 92.4424C10.7007 91.5912 11.5755 91.0784 12.4391 91.297C13.3028 91.5155 13.8283 92.3828 13.6128 93.234C13.3974 94.0852 12.5226 94.5981 11.6589 94.3795ZM14.3896 83.5906C13.5259 83.372 13.0004 82.5047 13.2159 81.6535C13.4313 80.8023 14.3061 80.2894 15.1697 80.508C16.0334 80.7266 16.5589 81.5939 16.3435 82.4451C16.128 83.2963 15.2532 83.8092 14.3896 83.5906ZM17.1202 72.8016C16.2565 72.5831 15.7311 71.7158 15.9465 70.8646C16.1619 70.0134 17.0367 69.5005 17.9004 69.7191C18.764 69.9377 19.2895 70.8049 19.0741 71.6562C18.8586 72.5074 17.9839 73.0202 17.1202 72.8016ZM19.8508 62.0127C18.9872 61.7941 18.4617 60.9269 18.6771 60.0757C18.8926 59.2244 19.7674 58.7116 20.631 58.9302C21.4947 59.1488 22.0202 60.016 21.8047 60.8672C21.5893 61.7185 20.7145 62.2313 19.8508 62.0127ZM22.5815 51.2238C21.7178 51.0052 21.1923 50.138 21.4077 49.2868C21.6232 48.4355 22.498 47.9227 23.3616 48.1412C24.2253 48.3598 24.7508 49.2271 24.5353 50.0783C24.3199 50.9296 23.4451 51.4424 22.5815 51.2238ZM25.3121 40.4349C24.4484 40.2163 23.9229 39.349 24.1384 38.4978C24.3538 37.6466 25.2286 37.1337 26.0923 37.3523C26.9559 37.5709 27.4814 38.4382 27.266 39.2894C27.0505 40.1406 26.1757 40.6535 25.3121 40.4349ZM1.38269 91.7786C0.519043 91.56 -0.00645283 90.6928 0.208988 89.8416C0.424429 88.9903 1.29922 88.4775 2.16287 88.6961C3.02652 88.9147 3.55197 89.7819 3.33653 90.6331C3.12109 91.4844 2.24634 91.9972 1.38269 91.7786ZM4.11332 80.9897C3.24967 80.7711 2.72417 79.9039 2.93961 79.0526C3.15505 78.2014 4.02985 77.6886 4.8935 77.9072C5.75715 78.1257 6.2826 78.993 6.06716 79.8442C5.85171 80.6954 4.97697 81.2083 4.11332 80.9897ZM6.84395 70.2008C5.9803 69.9822 5.45481 69.1149 5.67025 68.2637C5.88569 67.4125 6.76048 66.8996 7.62413 67.1182C8.48778 67.3368 9.01323 68.2041 8.79779 69.0553C8.58235 69.9065 7.7076 70.4194 6.84395 70.2008ZM9.57458 59.4119C8.71093 59.1933 8.18543 58.326 8.40087 57.4748C8.61631 56.6236 9.49111 56.1107 10.3548 56.3293C11.2184 56.5479 11.7439 57.4151 11.5284 58.2664C11.313 59.1176 10.4382 59.6304 9.57458 59.4119ZM12.3052 48.6229C11.4416 48.4044 10.9161 47.5371 11.1315 46.6859C11.3469 45.8347 12.2217 45.3218 13.0854 45.5404C13.949 45.759 14.4745 46.6262 14.259 47.4774C14.0436 48.3287 13.1689 48.8415 12.3052 48.6229ZM15.0358 37.834C14.1722 37.6154 13.6467 36.7482 13.8621 35.8969C14.0776 35.0457 14.9524 34.5329 15.816 34.7515C16.6797 34.97 17.2051 35.8373 16.9897 36.6885C16.7742 37.5397 15.8995 38.0526 15.0358 37.834ZM-9.34039 89.0647C-10.204 88.8461 -10.7295 87.9788 -10.5141 87.1276C-10.2986 86.2764 -9.42387 85.7635 -8.56022 85.9821C-7.69657 86.2007 -7.17107 87.068 -7.38651 87.9192C-7.60195 88.7704 -8.47675 89.2832 -9.34039 89.0647ZM-6.60977 78.2757C-7.47342 78.0572 -7.99887 77.1899 -7.78343 76.3387C-7.56799 75.4875 -6.69324 74.9746 -5.82959 75.1932C-4.96594 75.4118 -4.44045 76.279 -4.65589 77.1303C-4.87133 77.9815 -5.74612 78.4943 -6.60977 78.2757ZM-3.87914 67.4868C-4.74279 67.2682 -5.26824 66.401 -5.0528 65.5498C-4.83736 64.6985 -3.96261 64.1857 -3.09896 64.4043C-2.23531 64.6228 -1.70981 65.4901 -1.92526 66.3413C-2.1407 67.1925 -3.01549 67.7054 -3.87914 67.4868ZM-1.14851 56.6979C-2.01216 56.4793 -2.53761 55.6121 -2.32217 54.7608C-2.10673 53.9096 -1.23198 53.3968 -0.368331 53.6153C0.495318 53.8339 1.02081 54.7012 0.805371 55.5524C0.589931 56.4036 -0.284861 56.9165 -1.14851 56.6979ZM1.58212 45.909C0.718463 45.6904 0.193015 44.8231 0.408456 43.9719C0.623896 43.1207 1.49865 42.6078 2.3623 42.8264C3.22595 43.045 3.75144 43.9123 3.536 44.7635C3.32056 45.6147 2.44577 46.1276 1.58212 45.909ZM4.31275 35.12C3.44909 34.9015 2.92365 34.0342 3.13909 33.183C3.35453 32.3318 4.22927 31.8189 5.09293 32.0375C5.95658 32.2561 6.48207 33.1233 6.26663 33.9746C6.05119 34.8258 5.1764 35.3386 4.31275 35.12ZM-19.6166 86.4638C-20.4803 86.2452 -21.0058 85.3779 -20.7903 84.5267C-20.5749 83.6755 -19.7001 83.1627 -18.8365 83.3812C-17.9728 83.5998 -17.4473 84.4671 -17.6628 85.3183C-17.8782 86.1695 -18.753 86.6824 -19.6166 86.4638ZM-16.886 75.6749C-17.7497 75.4563 -18.2752 74.589 -18.0597 73.7378C-17.8443 72.8866 -16.9695 72.3737 -16.1058 72.5923C-15.2422 72.8109 -14.7167 73.6782 -14.9321 74.5294C-15.1476 75.3806 -16.0224 75.8935 -16.886 75.6749ZM-14.1554 64.8859C-15.019 64.6673 -15.5445 63.8001 -15.3291 62.9489C-15.1137 62.0976 -14.2389 61.5848 -13.3752 61.8034C-12.5116 62.022 -11.9861 62.8892 -12.2015 63.7404C-12.4169 64.5917 -13.2917 65.1045 -14.1554 64.8859ZM-11.4248 54.097C-12.2884 53.8784 -12.8139 53.0112 -12.5985 52.16C-12.383 51.3087 -11.5082 50.7959 -10.6446 51.0145C-9.78093 51.2331 -9.25544 52.1003 -9.47088 52.9515C-9.68632 53.8028 -10.5611 54.3156 -11.4248 54.097ZM-8.69414 43.3081C-9.55779 43.0895 -10.0833 42.2223 -9.86784 41.371C-9.6524 40.5198 -8.7776 40.0069 -7.91395 40.2255C-7.0503 40.4441 -6.52481 41.3114 -6.74025 42.1626C-6.95569 43.0138 -7.83048 43.5267 -8.69414 43.3081ZM-5.9635 32.5192C-6.82716 32.3006 -7.35265 31.4333 -7.13721 30.5821C-6.92177 29.7309 -6.04698 29.218 -5.18332 29.4366C-4.31967 29.6552 -3.79418 30.5225 -4.00962 31.3737C-4.22506 32.2249 -5.09985 32.7378 -5.9635 32.5192ZM-29.8929 83.8629C-30.7565 83.6443 -31.282 82.7771 -31.0666 81.9259C-30.8512 81.0746 -29.9764 80.5618 -29.1127 80.7804C-28.2491 80.999 -27.7236 81.8662 -27.9391 82.7174C-28.1545 83.5686 -29.0292 84.0815 -29.8929 83.8629ZM-27.1623 73.074C-28.0259 72.8554 -28.5514 71.9882 -28.336 71.1369C-28.1205 70.2857 -27.2457 69.7729 -26.3821 69.9915C-25.5184 70.21 -24.993 71.0773 -25.2084 71.9285C-25.4239 72.7797 -26.2986 73.2926 -27.1623 73.074ZM-24.4316 62.2851C-25.2953 62.0665 -25.8208 61.1992 -25.6053 60.348C-25.3899 59.4968 -24.5151 58.9839 -23.6515 59.2025C-22.7878 59.4211 -22.2624 60.2883 -22.4778 61.1396C-22.6932 61.9908 -23.568 62.5036 -24.4316 62.2851ZM-21.701 51.4961C-22.5647 51.2776 -23.0902 50.4103 -22.8747 49.5591C-22.6593 48.7079 -21.7845 48.195 -20.9208 48.4136C-20.0572 48.6322 -19.5317 49.4994 -19.7472 50.3506C-19.9626 51.2019 -20.8374 51.7147 -21.701 51.4961ZM-18.9704 40.7072C-19.834 40.4886 -20.3595 39.6214 -20.1441 38.7702C-19.9286 37.9189 -19.0539 37.4061 -18.1902 37.6247C-17.3266 37.8432 -16.8011 38.7105 -17.0165 39.5617C-17.232 40.413 -18.1067 40.9258 -18.9704 40.7072ZM-16.2398 29.9183C-17.1034 29.6997 -17.6289 28.8325 -17.4135 27.9812C-17.198 27.13 -16.3232 26.6172 -15.4596 26.8357C-14.5959 27.0543 -14.0705 27.9216 -14.2859 28.7728C-14.5014 29.624 -15.3761 30.1369 -16.2398 29.9183ZM5.49724 161.928C4.63359 161.709 4.10814 160.842 4.32358 159.991C4.53902 159.14 5.41377 158.627 6.27742 158.845C7.14107 159.064 7.66656 159.931 7.45112 160.783C7.23568 161.634 6.36089 162.147 5.49724 161.928ZM8.22787 151.139C7.36421 150.92 6.83877 150.053 7.05421 149.202C7.26965 148.351 8.1444 147.838 9.00805 148.057C9.8717 148.275 10.3972 149.142 10.1818 149.994C9.96631 150.845 9.09152 151.358 8.22787 151.139ZM10.9585 140.35C10.0948 140.132 9.5694 139.264 9.78484 138.413C10.0003 137.562 10.875 137.049 11.7387 137.268C12.6023 137.486 13.1278 138.353 12.9124 139.205C12.6969 140.056 11.8221 140.569 10.9585 140.35ZM13.6891 129.561C12.8255 129.343 12.3 128.475 12.5155 127.624C12.7309 126.773 13.6057 126.26 14.4693 126.479C15.333 126.697 15.8584 127.565 15.643 128.416C15.4276 129.267 14.5528 129.78 13.6891 129.561ZM16.4198 118.772C15.5561 118.554 15.0307 117.686 15.2461 116.835C15.4615 115.984 16.3363 115.471 17.1999 115.69C18.0636 115.908 18.5891 116.776 18.3736 117.627C18.1582 118.478 17.2834 118.991 16.4198 118.772ZM19.1504 107.983C18.2867 107.765 17.7613 106.898 17.9767 106.046C18.1922 105.195 19.0669 104.682 19.9306 104.901C20.7942 105.119 21.3197 105.987 21.1043 106.838C20.8888 107.689 20.014 108.202 19.1504 107.983ZM-4.77901 159.327C-5.64267 159.109 -6.16816 158.241 -5.95272 157.39C-5.73727 156.539 -4.86249 156.026 -3.99883 156.245C-3.13518 156.463 -2.60969 157.33 -2.82513 158.182C-3.04057 159.033 -3.91536 159.546 -4.77901 159.327ZM-2.04839 148.538C-2.91204 148.32 -3.43752 147.452 -3.22209 146.601C-3.00664 145.75 -2.13185 145.237 -1.2682 145.456C-0.40455 145.674 0.120943 146.541 -0.0944989 147.393C-0.309939 148.244 -1.18473 148.757 -2.04839 148.538ZM0.682246 137.749C-0.181406 137.531 -0.706899 136.663 -0.491457 135.812C-0.276018 134.961 0.598772 134.448 1.46242 134.667C2.32608 134.885 2.85157 135.753 2.63613 136.604C2.42069 137.455 1.5459 137.968 0.682246 137.749ZM3.41287 126.96C2.54922 126.742 2.02373 125.875 2.23917 125.023C2.45461 124.172 3.3294 123.659 4.19305 123.878C5.0567 124.096 5.5822 124.964 5.36675 125.815C5.15131 126.666 4.27652 127.179 3.41287 126.96ZM6.1435 116.171C5.27985 115.953 4.75436 115.086 4.9698 114.234C5.18524 113.383 6.06003 112.87 6.92368 113.089C7.78734 113.307 8.31283 114.175 8.09739 115.026C7.88195 115.877 7.00716 116.39 6.1435 116.171ZM8.87413 105.383C8.01048 105.164 7.48499 104.297 7.70043 103.445C7.91587 102.594 8.79066 102.081 9.65431 102.3C10.518 102.519 11.0435 103.386 10.828 104.237C10.6126 105.088 9.73778 105.601 8.87413 105.383ZM-15.0553 156.726C-15.9189 156.508 -16.4444 155.64 -16.229 154.789C-16.0135 153.938 -15.1387 153.425 -14.2751 153.644C-13.4114 153.862 -12.886 154.73 -13.1014 155.581C-13.3169 156.432 -14.1916 156.945 -15.0553 156.726ZM-12.3246 145.937C-13.1883 145.719 -13.7138 144.851 -13.4983 144C-13.2829 143.149 -12.4081 142.636 -11.5445 142.855C-10.6808 143.073 -10.1554 143.941 -10.3708 144.792C-10.5862 145.643 -11.461 146.156 -12.3246 145.937ZM-9.59401 135.148C-10.4577 134.93 -10.9831 134.063 -10.7677 133.211C-10.5523 132.36 -9.67748 131.847 -8.81383 132.066C-7.95017 132.284 -7.42473 133.152 -7.64017 134.003C-7.85561 134.854 -8.73035 135.367 -9.59401 135.148ZM-6.86338 124.359C-7.72703 124.141 -8.25252 123.274 -8.03708 122.422C-7.82164 121.571 -6.94685 121.058 -6.0832 121.277C-5.21955 121.496 -4.6941 122.363 -4.90954 123.214C-5.12498 124.065 -5.99973 124.578 -6.86338 124.359ZM-4.13275 113.571C-4.9964 113.352 -5.52189 112.485 -5.30645 111.633C-5.09101 110.782 -4.21622 110.269 -3.35257 110.488C-2.48892 110.707 -1.96347 111.574 -2.17891 112.425C-2.39435 113.276 -3.2691 113.789 -4.13275 113.571ZM-1.40212 102.782C-2.26577 102.563 -2.79126 101.696 -2.57582 100.845C-2.36038 99.9933 -1.48559 99.4805 -0.621942 99.6991C0.24171 99.9177 0.767158 100.785 0.551719 101.636C0.336277 102.487 -0.538468 103 -1.40212 102.782ZM-25.7783 154.012C-26.642 153.794 -27.1675 152.926 -26.952 152.075C-26.7366 151.224 -25.8618 150.711 -24.9982 150.93C-24.1345 151.148 -23.609 152.016 -23.8245 152.867C-24.0399 153.718 -24.9147 154.231 -25.7783 154.012ZM-23.0477 143.223C-23.9114 143.005 -24.4368 142.138 -24.2214 141.286C-24.0059 140.435 -23.1312 139.922 -22.2675 140.141C-21.4039 140.359 -20.8784 141.227 -21.0938 142.078C-21.3093 142.929 -22.1841 143.442 -23.0477 143.223ZM-20.3171 132.434C-21.1807 132.216 -21.7062 131.349 -21.4908 130.497C-21.2753 129.646 -20.4006 129.133 -19.5369 129.352C-18.6733 129.57 -18.1478 130.438 -18.3632 131.289C-18.5787 132.14 -19.4534 132.653 -20.3171 132.434ZM-17.5865 121.646C-18.4501 121.427 -18.9756 120.56 -18.7601 119.708C-18.5447 118.857 -17.6699 118.344 -16.8063 118.563C-15.9426 118.782 -15.4171 119.649 -15.6326 120.5C-15.848 121.351 -16.7228 121.864 -17.5865 121.646ZM-14.8558 110.857C-15.7195 110.638 -16.2449 109.771 -16.0295 108.92C-15.8141 108.068 -14.9393 107.555 -14.0757 107.774C-13.212 107.993 -12.6865 108.86 -12.902 109.711C-13.1174 110.562 -13.9922 111.075 -14.8558 110.857ZM-12.1252 100.068C-12.9889 99.8491 -13.5143 98.9818 -13.2989 98.1306C-13.0834 97.2794 -12.2087 96.7665 -11.345 96.9851C-10.4814 97.2037 -9.95588 98.071 -10.1713 98.9222C-10.3868 99.7734 -11.2616 100.286 -12.1252 100.068ZM-36.0546 151.411C-36.9183 151.193 -37.4437 150.326 -37.2283 149.474C-37.0129 148.623 -36.1381 148.11 -35.2744 148.329C-34.4108 148.547 -33.8853 149.415 -34.1007 150.266C-34.3162 151.117 -35.1909 151.63 -36.0546 151.411ZM-33.324 140.622C-34.1876 140.404 -34.7131 139.537 -34.4977 138.685C-34.2822 137.834 -33.4074 137.321 -32.5438 137.54C-31.6801 137.759 -31.1546 138.626 -31.3701 139.477C-31.5855 140.328 -32.4603 140.841 -33.324 140.622ZM-30.5933 129.834C-31.457 129.615 -31.9825 128.748 -31.767 127.896C-31.5516 127.045 -30.6768 126.532 -29.8132 126.751C-28.9495 126.97 -28.424 127.837 -28.6395 128.688C-28.8549 129.539 -29.7297 130.052 -30.5933 129.834ZM-27.8627 119.045C-28.7264 118.826 -29.2519 117.959 -29.0364 117.108C-28.821 116.256 -27.9462 115.744 -27.0825 115.962C-26.2189 116.181 -25.6934 117.048 -25.9088 117.899C-26.1243 118.75 -26.9991 119.263 -27.8627 119.045ZM-25.1321 108.256C-25.9957 108.037 -26.5212 107.17 -26.3058 106.319C-26.0903 105.467 -25.2156 104.955 -24.3519 105.173C-23.4883 105.392 -22.9628 106.259 -23.1782 107.11C-23.3936 107.961 -24.2684 108.474 -25.1321 108.256ZM-22.4015 97.4668C-23.2651 97.2482 -23.7906 96.381 -23.5752 95.5297C-23.3597 94.6785 -22.4849 94.1657 -21.6213 94.3842C-20.7576 94.6028 -20.2321 95.4701 -20.4476 96.3213C-20.663 97.1725 -21.5378 97.6854 -22.4015 97.4668ZM-46.3309 148.811C-47.1945 148.592 -47.72 147.725 -47.5046 146.873C-47.2891 146.022 -46.4143 145.509 -45.5507 145.728C-44.687 145.947 -44.1616 146.814 -44.377 147.665C-44.5925 148.516 -45.4672 149.029 -46.3309 148.811ZM-43.6002 138.022C-44.4639 137.803 -44.9894 136.936 -44.7739 136.085C-44.5585 135.233 -43.6837 134.72 -42.82 134.939C-41.9564 135.158 -41.4309 136.025 -41.6464 136.876C-41.8618 137.727 -42.7366 138.24 -43.6002 138.022ZM-40.8696 127.233C-41.7332 127.014 -42.2587 126.147 -42.0433 125.296C-41.8279 124.444 -40.9531 123.932 -40.0894 124.15C-39.2258 124.369 -38.7003 125.236 -38.9158 126.087C-39.1312 126.938 -40.0059 127.451 -40.8696 127.233ZM-38.139 116.444C-39.0026 116.225 -39.5281 115.358 -39.3127 114.507C-39.0972 113.655 -38.2224 113.143 -37.3588 113.361C-36.4951 113.58 -35.9697 114.447 -36.1851 115.298C-36.4006 116.149 -37.2753 116.662 -38.139 116.444ZM-35.4083 105.655C-36.272 105.436 -36.7975 104.569 -36.582 103.718C-36.3666 102.867 -35.4918 102.354 -34.6282 102.572C-33.7645 102.791 -33.2391 103.658 -33.4545 104.509C-33.6699 105.361 -34.5447 105.873 -35.4083 105.655ZM-32.6777 94.8659C-33.5414 94.6473 -34.0669 93.7801 -33.8514 92.9289C-33.636 92.0776 -32.7612 91.5648 -31.8975 91.7834C-31.0339 92.002 -30.5084 92.8692 -30.7239 93.7204C-30.9393 94.5716 -31.8141 95.0845 -32.6777 94.8659Z" fill="white" fill-opacity="0.2"/>
<mask id="mask1" mask-type="alpha" maskUnits="userSpaceOnUse" x="-37" y="120" width="205" height="101">
<path d="M162.263 220.577L167.223 131.524L84.3535 126.907C72.0393 126.221 61.5015 135.633 60.8166 147.929C60.1316 160.224 49.5938 169.636 37.2796 168.95L10.3624 167.45C-14.266 166.078 -35.3417 184.902 -36.7116 209.493L162.263 220.577Z" fill="white"/>
</mask>
<g mask="url(#mask1)">
<path d="M162.035 195.142L162.035 125.498L97.4227 125.498C87.8215 125.498 80.0383 133.293 80.0383 142.909C80.0383 152.525 72.255 160.32 62.6539 160.32L41.667 160.32C22.4647 160.32 6.89823 175.91 6.89823 195.142L162.035 195.142Z" fill="white" fill-opacity="0.14"/>
</g>
</g>
<rect width="43.9119" height="43.9119" rx="8" transform="matrix(0.866044 -0.499967 0.866044 0.499967 7.26709 86.0948)" fill="black" fill-opacity="0.2"/>
<rect width="43.9119" height="43.9119" rx="8" transform="matrix(0.866044 -0.499967 0.866044 0.499967 7.26723 74.123)" fill="#6BB0FF"/>
<g opacity="0.9">
<path d="M51.4804 77.6685C54.8252 75.7375 54.8253 72.6068 51.4804 70.6759C48.1356 68.7449 42.7126 68.7449 39.3677 70.6759C36.0229 72.6068 36.0229 75.7375 39.3677 77.6685C42.7126 79.5995 48.1356 79.5995 51.4804 77.6685Z" fill="white"/>
<path d="M51.9316 80.5619C52.664 80.757 53.5091 80.7245 54.1851 80.4643L54.4668 80.6269C55.0302 80.9522 55.988 80.9522 56.5513 80.6269C57.1147 80.3017 57.1147 79.7488 56.5513 79.4235L56.2696 79.2609C56.7485 78.8869 56.8049 78.3665 56.4387 77.96L51.9316 80.5619Z" fill="white"/>
<path d="M55.0013 77.0024L50.2971 79.7182L51.3393 80.3199L56.0436 77.6041L55.0013 77.0024Z" fill="white"/>
<path d="M53.3112 76.0265L48.6069 78.7422L49.6492 79.3439L54.3534 76.6282L53.3112 76.0265Z" fill="white"/>
<path d="M34.0721 80.0078C33.7904 80.1705 33.7622 80.4469 34.0721 80.6258C34.3819 80.8047 34.8326 80.8047 35.1425 80.6258L37.7622 79.1134C38.0439 78.9508 38.0721 78.6744 37.7622 78.4955C37.4805 78.3329 37.0017 78.3166 36.6918 78.4955L34.0721 80.0078Z" fill="white"/>
<path d="M29.6215 73.8306C29.4807 73.9119 29.4243 74.0095 29.4243 74.1396C29.4243 74.3673 29.7624 74.5624 30.1567 74.5624L33.875 74.5624C34.2694 74.5624 34.6074 74.3673 34.6074 74.1396C34.6074 73.9119 34.2694 73.7168 33.875 73.7168L30.1567 73.7168C29.9595 73.7005 29.7624 73.7493 29.6215 73.8306Z" fill="white"/>
<path d="M34.0721 67.6181C33.7904 67.7807 33.7622 68.0572 34.0721 68.2361L36.6918 69.7484C36.9735 69.911 37.4524 69.9273 37.7622 69.7484C38.0439 69.5858 38.0721 69.3093 37.7622 69.1305L35.1425 67.6181C34.8045 67.4555 34.3538 67.4555 34.0721 67.6181Z" fill="white"/>
<path d="M44.8044 65.0645C44.6636 65.1458 44.6072 65.2434 44.6072 65.3735L44.6072 67.52C44.6072 67.7477 44.9453 67.9429 45.3396 67.9429C45.734 67.9429 46.072 67.7477 46.072 67.5201L46.072 65.3735C46.072 65.1458 45.734 64.9507 45.3396 64.9507C45.1143 64.9507 44.9452 64.9832 44.8044 65.0645Z" fill="white"/>
<path d="M52.9168 69.1293C52.6351 69.2919 52.607 69.5683 52.9168 69.7472C53.1985 69.9098 53.6774 69.9261 53.9873 69.7472L56.5788 68.2511C56.8605 68.0885 56.8887 67.812 56.5788 67.6332C56.269 67.4543 55.8182 67.4543 55.5084 67.6332L52.9168 69.1293Z" fill="white"/>
</g>
</svg>
