<svg width="57" height="57" viewBox="0 0 57 57" fill="none" xmlns="http://www.w3.org/2000/svg">
<g clip-path="url(#clip0)">
<path d="M45.3969 36.1674L45.3969 20.531C45.3969 18.8386 44.0086 17.4617 42.3021 17.4617L17.6969 17.4617C16.8437 17.4618 16.0699 17.806 15.5095 18.3618C14.9492 18.9175 14.6021 19.6849 14.602 20.5311L14.602 24.4543L10.2584 24.4543C10.0634 24.4543 9.88687 24.5327 9.75912 24.6594C9.63136 24.7861 9.55233 24.9611 9.55233 25.1545C9.55233 25.5412 9.8684 25.8548 10.2584 25.8547L14.602 25.8547L14.602 27.649L4.43843 27.649C4.24348 27.649 4.06694 27.7274 3.93919 27.8541C3.81143 27.9808 3.73235 28.1559 3.7324 28.3492C3.7324 28.7359 4.04852 29.0494 4.43848 29.0495L14.6021 29.0495L14.602 36.1674C14.6021 37.8598 15.9905 39.2367 17.6969 39.2368L42.3021 39.2367C43.1287 39.2368 43.9059 38.9175 44.4904 38.3378C45.075 37.758 45.3969 36.9872 45.3969 36.1674ZM16.202 36.9305C16.0826 36.7015 16.014 36.4425 16.014 36.1674L16.0141 20.5311C16.0141 19.914 16.3544 19.3754 16.8577 19.0866L25.526 27.6834L16.202 36.9305ZM24.7199 24.9034L27.6806 24.9034C28.0706 24.9034 28.3867 24.59 28.3867 24.2032C28.3866 23.8165 28.0706 23.503 27.6806 23.503L23.3078 23.503L21.8532 22.0605L30.8801 22.0605C31.2699 22.0604 31.5861 21.7469 31.5861 21.3602C31.5861 20.9735 31.27 20.66 30.8801 20.66L20.4412 20.6601L18.6283 18.8622L41.3706 18.8621L31.1894 28.9594C30.5333 29.6101 29.4657 29.6101 28.8095 28.9594L24.7199 24.9034ZM42.3021 37.8364L17.6969 37.8364C17.57 37.8364 17.4467 37.8212 17.3277 37.7946L26.5245 28.6737L27.8111 29.9497C29.0178 31.1464 30.9812 31.1464 32.1879 29.9497L33.4745 28.6737L39.197 34.349L33.4191 34.349C33.2241 34.349 33.0476 34.4274 32.9198 34.5541C32.792 34.6809 32.713 34.8558 32.713 35.0492C32.713 35.4359 33.0291 35.7494 33.4191 35.7495L40.6083 35.7495L42.6722 37.7957C42.552 37.8223 42.4282 37.8365 42.3021 37.8364ZM34.4729 27.6834L43.1412 19.0866C43.6446 19.3754 43.9848 19.9141 43.9848 20.5311L43.9848 36.1674C43.9849 36.4379 43.9201 36.6983 43.7984 36.9319L34.4729 27.6834Z" fill="#1D7DEA"/>
<path d="M34.0306 21.3597C34.0311 21.1751 33.9552 20.9948 33.8239 20.8646C33.6921 20.7339 33.5109 20.6592 33.3247 20.6596C33.139 20.6596 32.9573 20.7339 32.8255 20.8646C32.6942 20.9948 32.6188 21.1756 32.6188 21.3597C32.6188 21.5439 32.6937 21.7242 32.8255 21.8549C32.9568 21.9851 33.139 22.0599 33.3247 22.0599C33.5104 22.0599 33.6926 21.9851 33.8239 21.8549C33.9557 21.7242 34.0306 21.5439 34.0306 21.3597Z" fill="#1D7DEA"/>
<path d="M8.37096 25.1535C8.37096 24.9693 8.29558 24.7885 8.16428 24.6583C8.03298 24.5281 7.85076 24.4533 7.66504 24.4533C7.47932 24.4533 7.2971 24.5281 7.1658 24.6583C7.0345 24.7885 6.95912 24.9693 6.95912 25.1534C6.95912 25.3376 7.0345 25.5184 7.1658 25.6486C7.2976 25.7793 7.47932 25.8536 7.66504 25.8536C7.85126 25.854 8.03298 25.7788 8.16428 25.6486C8.29558 25.5184 8.37146 25.3381 8.37096 25.1535Z" fill="#1D7DEA"/>
<path d="M12.9021 31.5432C12.9021 31.1564 12.586 30.8429 12.1961 30.8429L7.66138 30.8429C7.46648 30.8429 7.2899 30.9213 7.16214 31.048C7.03439 31.1747 6.95531 31.3498 6.95531 31.5432C6.95536 31.9299 7.27148 32.2434 7.66138 32.2434L12.1961 32.2434C12.586 32.2433 12.9021 31.9298 12.9021 31.5432Z" fill="#1D7DEA"/>
</g>
<defs>
<clipPath id="clip0">
<rect width="40" height="40" fill="white" transform="matrix(0.710029 0.704173 -0.710029 0.704173 28.5615 0)"/>
</clipPath>
</defs>
</svg>
