<svg xmlns="http://www.w3.org/2000/svg" width="58" height="57" fill="none"><g clip-path="url(#A)" fill="#fff"><path d="M47.42 37.008V19.56a3.43 3.43 0 0 0-3.425-3.425H16.77c-.944 0-1.8.384-2.42 1.004s-1.004 1.476-1.004 2.42v4.377H8.54a.78.78 0 1 0 0 1.562h4.806V27.5H2.1a.78.78 0 1 0 0 1.562h11.246v7.942a3.43 3.43 0 0 0 3.425 3.425h27.227a3.4 3.4 0 0 0 3.425-3.425zm-32.305.85a1.85 1.85 0 0 1-.208-.852V19.56a1.85 1.85 0 0 1 .934-1.612l9.592 9.592-10.317 10.32zm9.425-13.42h3.276a.781.781 0 1 0 0-1.562h-4.84l-1.6-1.6h10a.781.781 0 1 0 0-1.562h-11.55L17.8 17.7h25.165L31.7 28.965c-.726.726-1.907.726-2.633 0L24.54 24.44zm19.455 14.43H16.77a1.86 1.86 0 0 1-.409-.047l10.177-10.177 1.424 1.424a3.43 3.43 0 0 0 4.843 0l1.424-1.424 6.332 6.332h-6.393a.78.78 0 1 0 0 1.562h7.955l2.284 2.283a1.87 1.87 0 0 1-.41.045zM35.332 27.54l9.592-9.592a1.86 1.86 0 0 1 .934 1.612v17.446a1.86 1.86 0 0 1-.206.853l-10.32-10.32zm-.488-7.054c.001-.206-.083-.407-.23-.552a.78.78 0 0 0-1.104.001c-.145.147-.23.347-.23.552a.78.78 0 0 0 .23.552c.147.145.347.23.552.23a.78.78 0 0 0 .552-.23c.145-.147.23-.347.23-.552zM6.45 24.72c0-.206-.083-.407-.23-.553a.79.79 0 0 0-.552-.229.79.79 0 0 0-.782.782.78.78 0 0 0 .23.552c.147.145.347.23.552.23a.78.78 0 0 0 .552-.23.79.79 0 0 0 .23-.552zm5.014 7.128a.78.78 0 0 0-.781-.781H5.665a.78.78 0 1 0 0 1.562h5.018a.78.78 0 0 0 .781-.781z"/></g><defs><clipPath id="A"><path fill="#fff" transform="matrix(.707107 .707107 -.707107 .707107 29.2788 0)" d="M0 0h40v40H0z"/></clipPath></defs></svg>