<svg width="318" height="256" viewBox="0 0 318 256" fill="none" xmlns="http://www.w3.org/2000/svg">
<path d="M41.4638 81.9213C57.6077 81.9213 70.6949 68.8341 70.6949 52.6902C70.6949 36.5463 57.6077 23.459 41.4638 23.459C25.3199 23.459 12.2327 36.5463 12.2327 52.6902C12.2327 68.8341 25.3199 81.9213 41.4638 81.9213Z" fill="#F1F1F1"/>
<path d="M210.39 213.62C269.379 213.62 317.2 165.8 317.2 106.81C317.2 47.8205 269.379 0 210.39 0C151.4 0 103.58 47.8205 103.58 106.81C103.58 165.8 151.4 213.62 210.39 213.62Z" fill="#F1F1F1"/>
<path d="M65.5582 255.402C101.765 255.402 131.116 226.05 131.116 189.843C131.116 153.637 101.765 124.285 65.5582 124.285C29.3514 124.285 0 153.637 0 189.843C0 226.05 29.3514 255.402 65.5582 255.402Z" fill="#F1F1F1"/>
<path d="M266.469 202.817C266.152 196.251 258.738 98.7079 208.537 69.6886C208.537 69.6886 130.852 17.3692 66.141 93.3595C7.67872 161.989 82.6629 184.018 82.6629 184.018L91.3475 170.462L93.6246 180.364L93.2009 220.292H211.184V199.64L224.794 203.876C224.794 203.876 250.636 211.29 257.308 210.443C263.981 209.596 266.787 209.437 266.469 202.817Z" fill="white"/>
<path d="M93.9949 120.631H92.4062V220.293H93.9949V120.631Z" fill="#666666"/>
<path d="M271.5 221.352H76.9432C76.5196 221.352 76.1489 220.981 76.1489 220.557C76.1489 220.134 76.5196 219.763 76.9432 219.763H271.5C271.923 219.763 272.294 220.134 272.294 220.557C272.294 220.981 271.923 221.352 271.5 221.352Z" fill="#666666"/>
<path d="M157.011 115.76C163.212 115.76 168.238 110.733 168.238 104.533C168.238 98.3331 163.212 93.3068 157.011 93.3068C150.811 93.3068 145.785 98.3331 145.785 104.533C145.785 110.733 150.811 115.76 157.011 115.76Z" fill="#EBEBEB"/>
<path d="M157.011 125.344C145.467 125.344 136.041 115.918 136.041 104.374C136.041 92.8301 145.467 83.4041 157.011 83.4041C168.556 83.4041 177.982 92.8301 177.982 104.374C177.982 115.918 168.609 125.344 157.011 125.344ZM157.011 89.2292C148.645 89.2292 141.866 96.0074 141.866 104.374C141.866 112.741 148.645 119.519 157.011 119.519C165.378 119.519 172.157 112.741 172.157 104.374C172.157 96.0074 165.378 89.2292 157.011 89.2292Z" fill="#1D7DEA"/>
<path d="M134.135 135.035C133.5 135.035 132.811 134.823 132.282 134.4C131.011 133.394 130.852 131.54 131.858 130.322L142.449 117.401C143.455 116.13 145.308 115.971 146.526 116.978C147.797 117.984 147.956 119.837 146.95 121.055L136.359 133.976C135.83 134.665 134.982 135.035 134.135 135.035Z" fill="#1D7DEA"/>
<path d="M132.07 114.171C131.858 114.171 131.593 114.012 131.54 113.747C131.487 113.535 130.375 109.034 130.375 103.58C130.322 96.2721 132.334 90.8177 136.094 87.7993C136.306 87.6404 136.677 87.6404 136.836 87.9052C136.994 88.117 136.994 88.4877 136.73 88.6466C128.151 95.4777 132.493 113.324 132.546 113.482C132.599 113.747 132.44 114.065 132.176 114.118C132.123 114.171 132.07 114.171 132.07 114.171Z" fill="#A1A1A1"/>
<path d="M34.1032 220.716H21.8176C21.4999 220.716 21.2881 220.504 21.2881 220.187C21.2881 219.869 21.4999 219.657 21.8176 219.657H34.1032C34.4209 219.657 34.6327 219.869 34.6327 220.187C34.6327 220.504 34.4209 220.716 34.1032 220.716Z" fill="#666666"/>
<path d="M197.098 50.2542C197.098 50.2542 239.885 68.7884 252.701 106.757L197.098 50.2542Z" fill="#F1F1F1"/>
<path d="M252.701 107.34C252.489 107.34 252.277 107.181 252.224 106.969C239.568 69.6886 197.31 50.9426 196.886 50.7837C196.621 50.6778 196.515 50.3601 196.621 50.0953C196.727 49.8305 197.045 49.7246 197.31 49.8305C197.416 49.8835 208.219 54.5964 220.398 63.9165C231.678 72.5482 246.505 86.9519 253.177 106.651C253.283 106.916 253.124 107.234 252.86 107.34C252.807 107.34 252.754 107.34 252.701 107.34Z" fill="#A1A1A1"/>
<path d="M204.512 171.309L220.451 124.285L159.394 106.81L131.063 197.257L191.485 213.62L204.512 171.309Z" fill="#F1F1F1"/>
<path d="M191.856 214.256L191.379 214.097L130.428 197.628L159.077 106.122L221.193 123.914L221.034 124.444L205.094 171.468L191.856 214.256ZM131.752 196.886L191.114 212.985L204.035 171.15L219.763 124.656L159.765 107.445L131.752 196.886Z" fill="#666666"/>
<path d="M118.301 55.8677C118.301 55.8677 37.4391 78.5854 35.5327 187.831C33.6793 293 113.006 163.578 113.006 163.578L101.832 148.433L76.8905 164.266" fill="white"/>
<path d="M50.3603 229.771C49.3012 229.771 48.2951 229.613 47.2889 229.348C38.3925 226.753 34.315 213.144 34.7386 187.778C35.1623 162.731 39.8223 140.225 48.5598 120.737C55.5499 105.169 65.1347 91.5592 77.1025 80.2268C97.4372 61.0042 117.878 55.0732 118.09 55.0203L118.513 56.556C118.301 56.6089 98.1786 62.4339 78.1087 81.4448C66.2997 92.6183 56.8738 106.069 49.9367 121.426C41.305 140.648 36.6979 162.995 36.2743 187.778C35.8507 211.979 39.6634 225.482 47.6596 227.812C56.2383 230.301 70.0595 219.975 87.7465 197.946C100.032 182.642 110.199 166.49 112 163.578L101.621 149.492L77.3144 164.955L76.4671 163.631L102.044 147.374L113.959 163.525L113.694 164.001C111.947 166.755 73.078 229.771 50.3603 229.771Z" fill="#666666"/>
<path d="M125.186 156.8C125.027 156.8 124.921 156.8 124.762 156.8L109.829 156.27L109.882 154.682L124.815 155.211C127.41 155.317 129.846 154.364 131.752 152.616C133.87 150.604 136.253 147.744 138.901 144.091C140.596 141.761 141.072 139.854 140.331 138.318C138.53 134.506 129.793 133.764 127.198 133.658C125.662 133.553 124.127 134.029 122.856 134.876L102.256 149.068L101.356 147.744L121.955 133.553C123.491 132.493 125.397 131.964 127.304 132.07C137.842 132.652 140.913 135.83 141.814 137.63C142.82 139.695 142.29 142.184 140.225 144.991C137.524 148.751 135.035 151.663 132.864 153.728C130.746 155.741 128.045 156.8 125.186 156.8Z" fill="#666666"/>
<path d="M197.098 174.169C197.098 174.169 176.022 156.853 163.577 168.026C162.412 169.085 161.618 170.409 161.247 171.892C160.029 177.028 160.294 189.049 190.584 186.772" fill="white"/>
<path d="M183.436 187.831C173.057 187.831 166.067 185.766 162.519 181.636C159.659 178.247 159.818 174.381 160.453 171.68C160.824 170.038 161.724 168.556 162.995 167.391C168.344 162.572 176.022 162.148 185.236 166.12C192.068 169.085 197.31 173.322 197.522 173.481L196.516 174.699C196.304 174.54 175.81 157.912 164.054 168.556C162.995 169.509 162.307 170.674 161.989 171.998C161.46 174.328 161.301 177.717 163.737 180.577C167.602 185.078 176.817 186.931 190.479 185.925L190.585 187.514C188.096 187.778 185.713 187.831 183.436 187.831Z" fill="#666666"/>
<path d="M258.42 211.237C251.748 211.237 240.839 209.119 225.535 204.936C208.007 200.117 191.008 194.186 190.85 194.133L190.161 193.868L195.933 174.116L239.462 175.916L239.409 177.505L197.098 175.758L192.12 192.862C195.51 194.027 210.549 199.164 226.012 203.4C256.408 211.767 263.239 209.966 264.616 208.166C269.646 201.494 256.884 153.252 251.589 135.247C247.035 117.666 239.568 102.415 229.454 89.9705C221.352 80.015 211.555 71.807 200.276 65.5054C181.053 54.8085 164.001 53.5376 163.843 53.5376L163.948 51.9489C164.107 51.9489 181.424 53.2198 200.964 64.0756C212.455 70.4302 222.411 78.7971 230.672 88.9114C240.945 101.568 248.517 116.978 253.125 134.823C253.177 134.982 257.996 151.345 261.968 168.503C263.98 177.187 270.123 203.559 265.887 209.172C264.775 210.496 262.286 211.237 258.42 211.237Z" fill="#666666"/>
<path d="M229.772 220.504L229.242 187.249H246.611L245.923 220.504H229.772Z" fill="white"/>
<path d="M246.452 221.034H229.242L228.712 186.719H247.141L246.452 221.034ZM230.301 219.975H245.446L246.082 187.778H229.772L230.301 219.975Z" fill="#666666"/>
<path d="M229.931 195.139H245.923L246.082 187.725H229.825L229.931 195.139Z" fill="#FEB834"/>
<path d="M148.433 75.7253C147.585 73.1305 145.626 71.6478 142.555 71.383C140.172 71.1712 138.001 71.7537 138.001 71.7537L137.736 70.7475C137.842 70.6946 147.162 68.1527 149.439 75.4076L148.433 75.7253Z" fill="#666666"/>
<path d="M143.826 81.0209C128.098 81.0209 120.578 58.9387 120.472 58.7268L121.479 58.4091C121.584 58.6739 128.839 79.9618 143.826 80.0147C145.52 80.0147 147.321 79.7499 149.174 79.1674C165.855 73.872 161.354 54.7552 161.301 54.5434L162.307 54.2786C162.36 54.4904 167.073 74.5604 149.492 80.1736C147.532 80.7561 145.626 81.0209 143.826 81.0209Z" fill="#666666"/>
<path d="M164.108 54.8611L163.631 55.5495C162.307 56.8734 160.242 58.9387 158.918 60.2096C158.23 60.6862 157.594 61.1628 156.906 61.5864C156.747 61.6923 156.588 61.7982 156.429 61.8512C150.551 64.7637 144.673 64.393 138.742 62.01C138.319 61.8512 137.895 61.5335 137.577 61.2157C136.783 60.4743 135.988 59.9978 135.088 61.5335C134.082 68.5765 131.275 62.1689 129.634 60.7391C129.263 60.4214 129.051 59.9978 128.787 59.6271C128.151 58.6739 127.251 58.3562 126.404 58.6209C125.874 58.7798 125.768 60.1037 126.192 61.4805C126.192 61.4805 126.615 62.3278 126.721 62.7514C127.728 65.611 128.257 68.5765 127.78 71.6478L127.833 71.5949C122.909 67.4114 120.685 62.7514 118.778 57.35C118.249 56.238 117.984 55.3377 117.878 53.7491C117.825 53.0077 117.825 51.2602 117.825 49.8834C117.825 49.7245 117.825 49.5127 117.825 49.3538C118.937 38.3392 123.862 30.343 135.141 27.5364C135.459 27.4305 135.777 27.4305 136.147 27.4305C140.701 27.5364 145.256 27.5364 149.651 29.178C159.924 32.9907 165.167 39.9278 165.378 50.36C165.008 51.9486 164.584 53.3254 164.108 54.8611Z" fill="black"/>
<path fill-rule="evenodd" clip-rule="evenodd" d="M96.4308 17.3893C92.0356 17.7071 88.6994 21.5728 88.9642 25.968C88.9642 26.3387 89.3349 26.6564 89.7056 26.6564C90.0762 26.6564 90.394 26.2858 90.394 25.9151C90.1292 22.2612 92.8829 19.0839 96.5367 18.8191C100.191 18.5543 103.368 21.308 103.58 24.9619C103.633 26.1269 103.58 27.0272 103.315 27.7685C103.05 28.5099 102.574 29.1454 101.62 29.8338C98.7608 31.899 97.1722 33.2229 96.4308 35.2351C95.6895 37.1945 95.8483 39.5245 96.1131 43.4961C96.1131 43.8668 96.4838 44.1845 96.8545 44.1845C97.2252 44.1845 97.5429 43.8138 97.5429 43.4432C97.2781 39.4715 97.1722 37.3533 97.7547 35.7647C98.3372 34.1761 99.6081 33.064 102.415 31.0517C103.527 30.2574 104.268 29.3572 104.639 28.351C105.01 27.3449 105.062 26.2328 105.01 24.9619C104.745 20.4078 100.879 17.0716 96.4308 17.3893Z" fill="#A1A1A1"/>
<path d="M96.8546 44.3434C96.325 44.3434 95.9014 43.9198 95.9014 43.4432C95.6366 39.5246 95.4248 37.1416 96.2191 35.0763C96.9605 33.064 98.4962 31.6873 101.462 29.5691C102.309 28.9336 102.786 28.3511 103.05 27.6097C103.315 26.9742 103.368 26.127 103.315 24.909C103.209 23.2674 102.468 21.7317 101.197 20.6197C99.926 19.5076 98.2314 18.9251 96.5369 19.031C93.0418 19.2958 90.3941 22.3142 90.6589 25.8092C90.6589 26.074 90.6059 26.3388 90.3941 26.5506C90.2352 26.7624 89.9705 26.8683 89.7057 26.8683C89.4409 26.8683 89.1761 26.8154 89.0173 26.6036C88.8584 26.3917 88.6995 26.1799 88.6995 25.9152C88.3818 21.361 91.8239 17.3894 96.378 17.0717C98.6021 16.9128 100.773 17.6542 102.468 19.1369C104.109 20.6196 105.116 22.579 105.221 24.8031C105.274 25.8622 105.274 27.1331 104.851 28.2981C104.427 29.4102 103.686 30.3104 102.521 31.1577C99.873 33.0641 98.5492 34.2291 97.9667 35.7648C97.3841 37.3004 97.4901 39.6304 97.7548 43.2843C97.8078 43.8668 97.3841 44.2905 96.8546 44.3434C96.9076 44.3434 96.9076 44.3434 96.8546 44.3434ZM97.0135 18.5015C98.708 18.5015 100.297 19.0839 101.568 20.196C102.944 21.414 103.739 23.0556 103.845 24.8561C103.898 26.127 103.845 27.0272 103.58 27.7686C103.262 28.6159 102.733 29.2513 101.779 29.9397C98.9198 32.005 97.3841 33.3288 96.6957 35.1823C95.9544 37.1416 96.1132 39.4716 96.431 43.3373C96.431 43.6021 96.6428 43.7609 96.9076 43.7609C97.1723 43.7609 97.3312 43.5491 97.3312 43.2843C97.0135 39.2068 96.9605 37.0886 97.543 35.5C98.1785 33.8054 99.5553 32.5875 102.309 30.6282C103.368 29.8868 104.056 29.0395 104.427 28.0333C104.798 26.9743 104.798 25.7563 104.745 24.7501C104.639 22.6849 103.686 20.8315 102.15 19.4546C100.561 18.0778 98.5492 17.3894 96.431 17.5482C92.1416 17.866 88.9114 21.5728 89.2291 25.8622C89.2291 25.9681 89.282 26.074 89.3879 26.1799C89.4939 26.2329 89.5998 26.2858 89.7057 26.2858C89.8116 26.2858 89.9175 26.2329 90.0234 26.127C90.0764 26.021 90.1293 25.9151 90.1293 25.8092C89.8645 21.9965 92.7241 18.7133 96.4839 18.4485C96.6957 18.5014 96.8546 18.5015 97.0135 18.5015Z" fill="#A1A1A1"/>
<path fill-rule="evenodd" clip-rule="evenodd" d="M97.0136 46.0379C96.3251 46.0909 95.7426 46.7263 95.7956 47.4148C95.8485 48.1032 96.484 48.6857 97.1724 48.6328C97.8608 48.5798 98.4433 47.9443 98.3904 47.2559C98.3374 46.5145 97.702 45.985 97.0136 46.0379ZM97.1195 47.2029C97.1724 47.2029 97.2254 47.2559 97.2254 47.3089C97.2254 47.3618 97.1724 47.4148 97.1195 47.4148C97.0665 47.4148 97.0136 47.3618 97.0136 47.3089C97.0136 47.2559 97.0665 47.2029 97.1195 47.2029Z" fill="#A1A1A1"/>
<path d="M97.1193 48.8973C96.7487 48.8973 96.378 48.7384 96.1132 48.5266C95.7955 48.2618 95.5836 47.8911 95.5836 47.4675C95.5307 46.6202 96.1662 45.8789 97.0134 45.773C97.4371 45.72 97.8077 45.8788 98.1255 46.1436C98.4432 46.4084 98.655 46.7791 98.655 47.2027C98.708 48.05 98.0725 48.7914 97.2252 48.8973C97.1723 48.8973 97.1723 48.8973 97.1193 48.8973ZM97.1193 46.3025H97.0664C96.4839 46.3555 96.0602 46.8321 96.1132 47.4146C96.1132 47.6793 96.2721 47.9441 96.4839 48.103C96.6957 48.2619 96.9605 48.3678 97.2252 48.3678C97.8078 48.3148 98.2314 47.8382 98.1784 47.2557C98.1784 46.9909 98.0196 46.7262 97.8078 46.5673C97.5959 46.3555 97.3841 46.3025 97.1193 46.3025ZM97.1193 47.7323C96.9075 47.7323 96.7487 47.5734 96.7487 47.3616C96.7487 47.1498 96.9075 46.9909 97.1193 46.9379C97.3312 46.9379 97.543 47.0969 97.543 47.3087C97.543 47.4146 97.49 47.5205 97.4371 47.5734C97.3312 47.6794 97.2252 47.6793 97.1193 47.7323ZM97.1193 47.2027C97.0664 47.2027 97.0134 47.2027 97.0134 47.2557C97.0134 47.3086 96.9605 47.3087 96.9605 47.3616C96.9605 47.4675 97.0134 47.5204 97.1193 47.5204V47.2027V47.4675C97.2252 47.4675 97.2782 47.4146 97.2782 47.3087C97.2782 47.2557 97.2252 47.2027 97.1193 47.2027Z" fill="#A1A1A1"/>
<path d="M211.714 199.216H210.655V220.292H211.714V199.216Z" fill="#666666"/>
<path d="M211.714 167.92H210.655V175.704H211.714V167.92Z" fill="#666666"/>
<path d="M206.1 176.181L197.098 175.651L192.014 192.862L199.693 195.404L206.1 176.181Z" fill="white"/>
</svg>
