<svg width="20" height="14" viewBox="0 0 20 14" fill="none" xmlns="http://www.w3.org/2000/svg">
<path d="M0.223131 6.23004C1.26495 4.52618 2.66574 3.15713 4.4253 2.12294C6.18499 1.08871 8.04314 0.571533 10 0.571533C11.9569 0.571533 13.8151 1.08851 15.5748 2.12294C17.3345 3.15713 18.7352 4.52618 19.7769 6.23004C19.9256 6.49043 20 6.74714 20 7.00017C20 7.25321 19.9256 7.50992 19.7769 7.77023C18.7352 9.47417 17.3345 10.8433 15.5748 11.8773C13.8151 12.9116 11.9569 13.4284 10 13.4284C8.0431 13.4284 6.18495 12.9134 4.4253 11.8829C2.66574 10.8524 1.26471 9.48148 0.223131 7.77023C0.0743523 7.50992 0 7.25333 0 7.00017C0 6.74714 0.0743523 6.49043 0.223131 6.23004ZM12.3941 3.17754C11.7283 2.51166 10.9303 2.17861 10.0001 2.17861C9.85138 2.17861 9.7248 2.23083 9.62058 2.33493C9.51652 2.43907 9.46422 2.56561 9.46422 2.71439C9.46422 2.86329 9.51652 2.98975 9.62035 3.09373C9.72441 3.19798 9.85106 3.25005 9.99984 3.25005C10.6397 3.25005 11.1867 3.47709 11.6405 3.93086C12.0945 4.3849 12.3213 4.93171 12.3213 5.57155C12.3213 5.72053 12.3736 5.84691 12.4777 5.95113C12.5819 6.05542 12.7083 6.10745 12.8571 6.10745C13.006 6.10745 13.1325 6.0553 13.2367 5.95113C13.341 5.84691 13.393 5.72037 13.393 5.57155C13.393 4.64158 13.06 3.84345 12.3941 3.17754ZM5.1506 10.6443C6.64247 11.5481 8.25888 12.0003 10 12.0003C11.7411 12.0003 13.3575 11.5484 14.8493 10.6443C16.3411 9.74026 17.5818 8.52559 18.5713 7.00017C17.4404 5.24416 16.023 3.93082 14.3191 3.06046C14.773 3.83415 15 4.67129 15 5.57151C15 6.94814 14.5107 8.12529 13.5323 9.10386C12.554 10.0824 11.3764 10.5715 10 10.5715C8.62345 10.5715 7.44622 10.0822 6.46766 9.10386C5.48909 8.12557 4.99998 6.94814 4.99998 5.57151C4.99998 4.67129 5.22702 3.83403 5.68091 3.06046C3.97713 3.93082 2.55964 5.24428 1.42874 7.00017C2.41813 8.52559 3.65873 9.74026 5.1506 10.6443Z" fill="#999999"/>
</svg>
