<svg width="374" height="313" fill="none" xmlns="http://www.w3.org/2000/svg">
  <path d="M332.974 66.729a67.264 67.264 0 0 0-84.215-42.364l-.867.293a74.596 74.596 0 0 1-65.016-7.812A102.523 102.523 0 0 0 24.332 94.875c-1.318 17.416 9.227 39.312-3.503 51.261-23.19 21.811-25.63 55.326-14.134 76.306 24.02 43.597 62.246 49.516 102.328 31.734 20.041-8.898 25.423 13.742 43.352 26.363a90.482 90.482 0 0 0 98.12 3.986 90.476 90.476 0 0 0 43.96-87.811c-2.441-22.738 6.102-45.049 22.299-61.209a66.957 66.957 0 0 0 16.22-68.775z" fill="#F7F9FE"/>
  <path d="M301.387 235.452a12.485 12.485 0 0 0-4.394 1.098 8.074 8.074 0 0 0-3.087 2.441 7.233 7.233 0 0 0-1.428 4.528c.002.408.027.816.073 1.221l.61-.073h-.61s0 .586.073 1.892c.147 3.93.513 14.463 1.221 35.773h1.22c-.903-28.402-1.22-37.653-1.22-37.653a9.377 9.377 0 0 1-.074-1.135 6.104 6.104 0 0 1 1.221-3.796 7.764 7.764 0 0 1 4.076-2.563 11.793 11.793 0 0 1 1.782-.378h.708v-1.221l-.171-.134zM229.035 128.316a31.177 31.177 0 0 0-13.633 18.307s14.39-19.43 32.893-12.205c0 0-10.765-11.607-19.26-6.041v-.061z" fill="#2E5F60"/>
  <path d="M226.375 130.134s20.871-9.764 24.74 27.864c2.368 22.983 12.62 38.727 36.273 43.939 0 0 48.369-44.891-23.653-76.331 0 0-8.471-3.259-15.012 0 0 0-14.647-2.233-22.348 4.479v.049z" fill="#51BF9C"/>
  <path d="M250.602 126.802c2.697 2.1 5.297 4.309 7.86 6.579 2.563 2.27 5.102 4.552 7.518 6.981 2.417 2.429 4.809 4.882 7.043 7.494a59.411 59.411 0 0 1 6.188 8.299 54.208 54.208 0 0 1 6.737 19.529c1.123 6.786 1.733 13.62 2.172 20.443.44 6.823.794 13.658 1.062 20.48.269 6.823.537 13.646.733 20.468l.695 20.468c.257 6.823.501 13.645.293 20.493-.879-6.799-1.293-13.609-1.647-20.432l-1.123-20.456c-.794-13.633-1.221-27.278-2.1-40.887-.451-6.786-.891-13.596-1.928-20.284a52.905 52.905 0 0 0-6.261-19.04 63.51 63.51 0 0 0-5.81-8.275c-2.111-2.649-4.406-5.175-6.737-7.641-4.662-4.967-9.605-9.678-14.646-14.231l-.049.012z" fill="#4FAA9B"/>
  <path d="M364.805 172.266a22.763 22.763 0 0 1 8.47 14.353s-8.934-15.232-22.933-11.472c0 0 8.726-7.592 14.463-2.881z" fill="#2E5F60"/>
  <path d="M366.599 173.792s-14.402-8.727-20.163 18.307c-3.503 16.514-12.205 27.157-29.792 29.122 0 0-31.624-36.396 23.189-53.605 0 0 6.42-1.709 10.912 1.221 0 0 10.777-.476 15.866 5.004l-.012-.049z" fill="#51BF9C"/>
  <path d="M349.256 169.483a64.623 64.623 0 0 0-11.437 7.323 43.206 43.206 0 0 0-9.239 9.765c-.622.927-1.22 1.904-1.684 2.88l-1.477 3.051-1.355 3.113c-.427 1.037-.805 2.111-1.22 3.161a104.22 104.22 0 0 0-3.662 13.035c-1.965 8.848-3.161 17.868-4.528 26.851l-1.928 13.523c-.623 4.504-1.221 9.02-2.258 13.426.195-4.565.732-9.081 1.22-13.609l1.66-13.426a270.793 270.793 0 0 1 4.357-27.022 98.894 98.894 0 0 1 3.894-13.132c.427-1.062.83-2.148 1.294-3.198l1.415-3.125 1.55-3.075a27.101 27.101 0 0 1 1.831-2.954 43.489 43.489 0 0 1 9.764-9.764 64.24 64.24 0 0 1 11.827-6.847l-.024.024z" fill="#4FAA9B"/>
  <path d="M263.637 213.886s34.894.231 40.008 15.048c6.676-2.16 9.862-15.976-2.6-24.166-12.461-8.189-37.213 3.528-37.408 9.118z" fill="#2E5F60"/>
  <path d="M262.526 203.304s-12.839-3.528-19.723 5.211c-10.704 13.597.378 49.834 14.512 49.87 9.764 0 16.245-25.508 20.663-33.124 6.102-10.607 11.338-19.297 23.068-20.468a43.533 43.533 0 0 0-38.52-1.489z" fill="#4FAA9B"/>
  <path d="M258.621 206.477l.879-.976.952-.879c.341-.256.671-.537 1.037-.769l.525-.33.488-.244a20.26 20.26 0 0 0-2.343-.451l-.733.61-1.025 1.013c-.317.354-.61.732-.915 1.098a26.15 26.15 0 0 0-1.575 2.368 20.208 20.208 0 0 0-1.22 2.539c-.369.86-.675 1.745-.916 2.648l-.378 1.343c0 .232-.122.452-.171.683l-.122.684c-.146.915-.317 1.819-.451 2.734l-.208 2.77a23.095 23.095 0 0 0-.061 2.759v2.758l.244 2.734c.098.915.122 1.831.293 2.734l.44 2.71c.17.903.256 1.818.488 2.697l1.22 5.346-1.013-5.383c-.195-.891-.256-1.806-.378-2.709l-.33-2.71c-.146-.903-.134-1.818-.195-2.722l-.146-2.721c0-.916 0-1.819.061-2.722a24.8 24.8 0 0 1 .158-2.71l.305-2.697c.159-.891.367-1.77.55-2.648l.134-.659c0-.22.134-.428.195-.647l.415-1.282c.264-.835.586-1.651.964-2.441.356-.807.764-1.589 1.221-2.343.227-.38.475-.747.744-1.099.244-.361.509-.707.794-1.037l.073-.049z" fill="#51BF9C"/>
  <path d="M296.566 213.165h.086a16.746 16.746 0 0 1 4.418 2.564 9.003 9.003 0 0 1 3.662 7.017 11.11 11.11 0 0 1-1.001 4.382V227.336s0 .268-.061.805c-.257 3.784-1.685 20.92-7.458 51.603l1.221.22c6.615-35.114 7.53-52.482 7.53-52.567h-.61l.562.244a12.061 12.061 0 0 0 1.11-4.882 9.244 9.244 0 0 0-1.428-4.968 13.863 13.863 0 0 0-4.735-4.43 16.98 16.98 0 0 0-2.82-1.367l-.402 1.159-.074.012z" fill="#2E5F60"/>
  <path d="M309.431 303.678h-20.346a4.34 4.34 0 0 1-4.284-3.588l-6.676-37.616h42.278l-6.688 37.616a4.345 4.345 0 0 1-4.284 3.588z" fill="#E6E1DC"/>
  <path d="M321.282 269.565h-44.048a2.308 2.308 0 0 1-2.307-2.307v-5.748a2.307 2.307 0 0 1 2.307-2.307h44.048a2.318 2.318 0 0 1 2.319 2.307v5.748a2.32 2.32 0 0 1-2.319 2.307z" fill="#C8C1BE"/>
  <path d="M323.918 243.837s-24.044-7.091-30.635 2.038c-4.15-2.868-3.466-13.035 6.811-16.074 10.276-3.039 24.861 10.155 23.824 14.036z" fill="#2E5F60"/>
  <path d="M326.896 236.77s9.557.232 12.474 7.689c4.54 11.559-19.187 28.597-19.187 28.597s.171-18.662-1.977-24.606c-4.455-12.388-10.301-15.415-18.112-18.649a31.26 31.26 0 0 1 26.851 6.969h-.049z" fill="#4FAA9B"/>
  <path d="M328.91 239.773l-.391-.843-.476-.805c-.183-.244-.354-.513-.549-.732l-.305-.342-.281-.281c.086 0 .733 0 1.709.183l.378.574.488.903c.147.317.269.635.403.952.128.315.238.637.33.964.102.325.188.655.256.989.149.659.251 1.328.305 2.001.077.669.106 1.342.086 2.014v1.501l-.061.489c-.086.671-.159 1.33-.257 1.989l-.439 1.941c-.138.644-.313 1.28-.525 1.904-.207.634-.39 1.22-.61 1.892l-.732 1.83c-.257.611-.464 1.221-.782 1.819l-.854 1.77c-.305.585-.561 1.22-.903 1.757l-1.941 3.43 1.807-3.491c.329-.574.549-1.22.83-1.794l.793-1.794c.281-.586.464-1.221.696-1.831l.659-1.843c.195-.622.354-1.22.525-1.892.193-.619.344-1.251.451-1.892l.354-1.916c.073-.647.11-1.293.171-1.928v-1.941a14.466 14.466 0 0 0-.159-1.904 12.137 12.137 0 0 0-.366-1.879 5.873 5.873 0 0 0-.281-.904 7.66 7.66 0 0 0-.329-.89z" fill="#51BF9C"/>
  <path d="M194.788 147.966a39.53 39.53 0 0 0-46.733-32.881 38.459 38.459 0 0 0-12.046 4.553 52.336 52.336 0 0 1-24.179 7.018c-1.81.075-3.615.247-5.407.512a49.652 49.652 0 0 0-39.47 32.71 32.242 32.242 0 0 1-19.163 19.87 49.688 49.688 0 0 0 22.677 96.042c7.702-.903 14.744-5.737 20.822-12.071 15.513-16.172 38.153-22.775 60.354-19.809 1.124.155 2.259.216 3.393.183a39.557 39.557 0 0 0 37.702-45.415 39.04 39.04 0 0 0-.305-1.709c-2.039-10.472-2.1-21.31 1.037-31.513a39.197 39.197 0 0 0 1.294-17.49" fill="#283070"/>
  <path d="M177.872 152.409c-.769 4.589 1.489 8.812 5.053 9.41 3.564.598 7.091-2.637 7.86-7.226.769-4.589-1.477-8.812-5.041-9.41-3.564-.598-7.091 2.624-7.872 7.226z" fill="#B2E3FA"/>
  <path d="M172.673 151.542c-1.001 5.858 1.891 11.241 6.444 12.022 4.552.781 9.056-3.369 10.045-9.239.988-5.871-1.892-11.253-6.408-12.047-4.516-.793-9.056 3.369-10.045 9.24l-.036.024z" fill="#fff"/>
  <path d="M191.651 292.95s17.893-49.479 13.23-72.706c-2.88-14.328-17.221-37.835-45.012-37.835-18.54 0-52.482 12.363-50.175 45.757 1.342 19.528 5.126 42.974 22.909 64.821 0 0 31.416 15 59.048 0" fill="#61A1F5"/>
  <path d="M176.651 255.175c1.538-22.677 2.648-52.482 5.37-66.871a42.98 42.98 0 0 0-22.189-5.895 61.26 61.26 0 0 0-22.726 4.882c2.71 13.181 5.273 26.387 6.957 39.739a341.856 341.856 0 0 1 2.063 46.38 532.69 532.69 0 0 1-.757 23.958 72.888 72.888 0 0 0 29.39 1.428c-.549-14.206.94-29.353 1.892-43.547" fill="#fff"/>
  <path d="M175.227 262.434h-59.496v37.49h59.496v-37.49z" fill="#E5F1F8"/>
  <path d="M186.818 295.269a62.645 62.645 0 0 0 4.882-2.319 49.333 49.333 0 0 1-4.882 2.319zm9.227-15.586c0-.146.085-.305.134-.464 0 .159-.097.318-.134.464z" fill="#DEE9F0"/>
  <path d="M164.019 299.638a80.742 80.742 0 0 1-31.416-6.651v-.074a95.79 95.79 0 0 1-16.513-29.804v-.22a135.163 135.163 0 0 1-6.225-34.028c5.102 8.629 12.694 15.537 20.541 21.676 5.09 3.991 10.399 8.019 15.867 11.668v11.241a532.687 532.687 0 0 1-.757 23.959 78.727 78.727 0 0 0 18.564 2.331 64.06 64.06 0 0 0 10.826-.903c-.293-7.555 0-15.366.464-23.19a118.293 118.293 0 0 0 20.883 3.662c0 .158-.098.317-.134.464-2.344 7.713-4.223 12.949-4.345 13.267a49.788 49.788 0 0 1-4.882 2.319 58.938 58.938 0 0 1-22.8 4.369" fill="#61A1F5"/>
  <path d="M168.512 299.87a97.92 97.92 0 0 1-21.81-2.591c.507-8.826.803-17.656.889-26.491a443.93 443.93 0 0 0 0-12.429 135.435 135.435 0 0 0 14.311 7.881 115.524 115.524 0 0 0 19.846 7.044c-.56 8.624-.889 17.261-.545 25.642a79.844 79.844 0 0 1-12.719.998" fill="#E5F1F8"/>
  <path d="M159.869 197.201a9.763 9.763 0 0 1-9.764-9.764l2.441-34.528h14.573l2.441 34.528a9.763 9.763 0 0 1-9.764 9.764h.073z" fill="#F8A488"/>
  <path d="M167.705 160.854l-15.586-1.403-.561 8.018c1.342 8.91 7.567 18.54 16.086 18.54a11.243 11.243 0 0 0 1.831-.159l-1.77-24.996z" fill="#F5876E"/>
  <path d="M166.57 182.372c-8.385-1.489-15.415-12.461-15.513-20.968-.085-7.421 2.246-18.308 2.246-18.308s26.326-6.017 31.355 0c3.661 4.418-1.428 17.539-3.076 23.068-2.441 8.153-11.351 16.879-15.012 16.232v-.024z" fill="#F9B29C"/>
  <path d="M146.248 151.444a6.842 6.842 0 0 0 3.009 6.986 6.828 6.828 0 0 0 2.484.984l2.441-13.56a6.831 6.831 0 0 0-6.944 3.096 6.853 6.853 0 0 0-.953 2.494h-.037z" fill="#F8A488"/>
  <path d="M186.415 144.39l-25.631-4.553-1 5.627c-2.637-.33-6.738-.513-7.214 2.16-.122.696-2.599 4.675-2.441 5.322.672-.135 5.468-1.636 6.103-1.929a6.736 6.736 0 0 1 4.125-.488 13.329 13.329 0 0 0 8.678-1.465 14.65 14.65 0 0 1 11.802-1.22c1.538.547 3.153.847 4.785.891l.781-4.394.012.049z" fill="#F8A488"/>
  <path d="M188.857 106.627a19.832 19.832 0 0 0-15.66 4.418 25.078 25.078 0 0 1-15.866 5.346h-.208a15.871 15.871 0 0 0-15.134 12.706 17.74 17.74 0 0 1-3.198 7.323 7.763 7.763 0 0 0-1.55 3.454 8.639 8.639 0 0 0 1.639 6.399 8.636 8.636 0 0 0 5.684 3.365 9.183 9.183 0 0 0 5.615-.769 8.06 8.06 0 0 1 4.882-.586c3.536.61 7.174-.006 10.313-1.745a17.506 17.506 0 0 1 14.036-1.404 19.899 19.899 0 0 0 18.162-2.644 19.887 19.887 0 0 0 5.376-5.806 19.898 19.898 0 0 0 2.691-7.441c1.537-10.411-6.372-21.054-16.782-22.604v-.012z" fill="#283070"/>
  <path d="M154.06 293.463h98.348a2.826 2.826 0 0 1 2.31 1.202 2.832 2.832 0 0 1 .351 2.581l-1.758 4.882a2.826 2.826 0 0 1-2.66 1.88h-98.349a2.834 2.834 0 0 1-2.661-3.784l1.758-4.882a2.83 2.83 0 0 1 2.661-1.879z" fill="#E6DCDC"/>
  <path d="M196.326 201.449s24.618 36.322 31.062 51.078c9.252 21.188 23.812 43.828 23.812 43.828s-24.007-.732-34.028-13.425c0 0-1.952-8.703-3.258-18.174-1.221-8.946-21.115-26.961-21.115-26.961l3.527-36.383v.037z" fill="#61A1F5"/>
  <path d="M275.744 304.057h-90.647l15.134-70.192h90.648l-15.135 70.192z" fill="#E6DCDC"/>
  <path d="M280.627 304.057h-91.868l15.134-70.192h91.868l-15.134 70.192z" fill="#F5F0F0"/>
  <path d="M252.323 268.955a10.046 10.046 0 0 1-17.148 7.115A10.05 10.05 0 0 1 233 265.118a10.047 10.047 0 0 1 16.381-3.254 10.044 10.044 0 0 1 2.942 7.091z" fill="#fff"/>
  <path d="M330.765 312.808H48.998v-9.13h281.767v9.13z" fill="#E6DCDC"/>
  <path d="M188.1 303.508a1.773 1.773 0 0 0 1.523-2.632 1.776 1.776 0 0 0-.901-.786 222.625 222.625 0 0 0-25.337-7.933l-15.733-3.113-.927 9.105 10.899 5.359H188.1z" fill="#F9B29C"/>
  <path d="M157.904 291.071l-10.252-2.027-.927 9.105 10.899 5.359c-1.794-4.175-3.479-8.361.28-12.437z" fill="#F8A488"/>
  <path d="M122.949 195.981s-38.568 45.964-45.159 68.812c-4.015 13.963-2.441 23.556 11.155 32.954a35.972 35.972 0 0 0 20.749 6.005h40.765a3.848 3.848 0 0 0 3.662-3.027s1.904-17.222-9.96-21.676c-11.082-4.175-31.733-5.712-33.429-19.175-.916-6.969 23.861-38.971 23.861-38.971s-2.612-19.515-11.644-24.922z" fill="#61A1F5"/>
  <path d="M171.769 112.229a10.63 10.63 0 0 1 3.198-2.441h-5.395a21.288 21.288 0 0 0-21.261 21.249v12.364h2.441v-12.364a18.836 18.836 0 0 1 18.82-18.808h2.197z" fill="#B2E3FA"/>
  <path d="M157.904 150.627c0 5.943-3.747 10.777-8.373 10.777-4.625 0-8.36-4.882-8.36-10.777s3.747-10.79 8.36-10.79c4.614 0 8.373 4.882 8.373 10.777v.013z" fill="#fff"/>
  <path d="M152.68 150.627c0 4.65-2.929 8.433-6.542 8.433s-6.554-3.783-6.554-8.433c0-4.651 2.929-8.446 6.554-8.446 3.625 0 6.542 3.783 6.542 8.446z" fill="#B2E3FA"/>
  <path d="M196.179 46.871l.549.28a28.424 28.424 0 0 0-45.931-32.58 28.429 28.429 0 0 0-1.425 37.312 28.427 28.427 0 0 0 36.762 6.534l-.305-.513v.61h10.985V46.872h-.635l.549.28-.549-.28h-.61v10.423h-9.911l-.146.086a27.192 27.192 0 1 1 10.13-10.79l-.073.135v.146h.61zM117.652 99.353l.549.28a28.378 28.378 0 1 0-10.594 11.266l-.305-.525v.61h10.985V99.353h-.611l.55.28-.55-.28h-.61v10.411h-9.984l-.146.085a27.153 27.153 0 0 1-41.11-24.317 27.157 27.157 0 1 1 51.24 13.54l-.073.122v.159h.659zM232.795 94.8l.549-.28a27.13 27.13 0 0 1 26.818-39.468 27.134 27.134 0 0 1 24.39 25.976 27.135 27.135 0 0 1-22.371 27.733 27.128 27.128 0 0 1-18.707-3.452l-.146-.085h-9.923V94.678l-.061-.134-.549.28h-.611v11.644h10.985v-.61l-.317.525a28.41 28.41 0 0 0 36.751-6.494 28.416 28.416 0 0 0-1.384-37.295 28.41 28.41 0 0 0-37.131-3.753 28.414 28.414 0 0 0-8.818 36.265l.537-.281-.012-.025z" fill="#1D7DEA"/>
  <path d="M92.051 91.551c0-1.521.23-2.731.692-3.63.484-.9 1.233-1.649 2.247-2.248.461-.277.968-.553 1.522-.83a8.901 8.901 0 0 0 1.556-1.072 5.44 5.44 0 0 0 1.21-1.487c.346-.576.518-1.29.518-2.144 0-.76-.138-1.417-.414-1.97a3.907 3.907 0 0 0-1.038-1.384 4.15 4.15 0 0 0-1.521-.864 5.432 5.432 0 0 0-1.73-.277c-1.244 0-2.362.346-3.353 1.038-.968.668-1.706 1.498-2.213 2.49l-1.625-1.038a7.138 7.138 0 0 1 1.244-1.902 7.43 7.43 0 0 1 1.695-1.383 7.55 7.55 0 0 1 2.04-.865 8.263 8.263 0 0 1 2.247-.31c.853 0 1.683.138 2.49.414a5.811 5.811 0 0 1 2.144 1.21 5.77 5.77 0 0 1 1.521 2.075c.392.83.588 1.798.588 2.905 0 .922-.138 1.706-.415 2.351a5.149 5.149 0 0 1-1.037 1.625 7.182 7.182 0 0 1-1.522 1.21c-.553.323-1.118.646-1.694.969-.415.23-.807.472-1.175.726-.37.23-.704.541-1.003.933-.3.37-.542.83-.726 1.383-.162.554-.243 1.245-.243 2.075h-2.005zm.034 6.985v-3.7h2.04v3.7h-2.04zM166.033 34.092a2.744 2.744 0 0 1-3.282 2.694 2.745 2.745 0 1 1 3.282-2.694zM174.271 34.092a2.744 2.744 0 0 1-3.282 2.694 2.75 2.75 0 0 1-2.157-2.158 2.744 2.744 0 0 1 2.693-3.282 2.747 2.747 0 0 1 2.746 2.746zM182.51 34.092a2.744 2.744 0 0 1-3.282 2.694 2.745 2.745 0 1 1 3.282-2.694zM250.565 79.007l2.441-2.44a2.77 2.77 0 0 0 0-3.907L249.345 69a2.77 2.77 0 0 0-3.906 0l-.659.659a7.933 7.933 0 0 0-.976 10.033 58.382 58.382 0 0 0 15.866 15.866 7.935 7.935 0 0 0 10.045-.988l.647-.66a2.75 2.75 0 0 0 .603-3.01 2.75 2.75 0 0 0-.603-.895l-3.661-3.662a2.772 2.772 0 0 0-3.906 0l-2.441 2.441a51.945 51.945 0 0 1-9.886-9.886l.097.11z" fill="#1D7DEA"/>
</svg>
