<svg width="30" height="29" viewBox="0 0 30 29" fill="none" xmlns="http://www.w3.org/2000/svg">
<path d="M14.6426 2.38062C8.07826 2.38062 2.73779 7.7211 2.73779 14.2854C2.73779 20.8496 8.07826 26.1902 14.6426 26.1902C21.2069 26.1902 26.5473 20.8496 26.5473 14.2854C26.5473 7.7211 21.2069 2.38062 14.6426 2.38062ZM15.833 21.4282H13.4521V19.0473H15.833V21.4282ZM16.9949 15.6128C16.7616 15.8009 16.5366 15.9806 16.358 16.1592C15.8723 16.6438 15.8342 17.0842 15.833 17.1032V17.2616H13.4521V17.0628C13.4521 16.9223 13.4866 15.6616 14.6735 14.4746C14.9056 14.2425 15.1937 14.0068 15.4962 13.7616C16.3699 13.0532 16.9437 12.5366 16.9437 11.8247C16.9299 11.2233 16.6812 10.6512 16.2509 10.2308C15.8206 9.81037 15.2429 9.57507 14.6413 9.57523C14.0398 9.57539 13.4622 9.81097 13.0321 10.2316C12.6021 10.6522 12.3537 11.2244 12.3402 11.8259H9.95922C9.95922 9.24372 12.0604 7.14253 14.6426 7.14253C17.2247 7.14253 19.3259 9.24372 19.3259 11.8259C19.3259 13.727 17.9223 14.8616 16.9949 15.6128Z" fill="#1D7DEA"/>
</svg>
