<svg width="24" height="24" viewBox="0 0 24 24" fill="none" xmlns="http://www.w3.org/2000/svg">
<path d="M9.94578 15.6392C9.26301 14.9567 8.93939 14.0436 8.97604 13.1482L9.50226 13.6742C9.5807 14.2726 9.85744 14.8412 10.301 15.2847C11.4023 16.3855 13.1871 16.3855 14.2884 15.2847C15.3898 14.1837 15.3898 12.3992 14.2884 11.2983C13.3955 10.4057 12.0462 10.2346 10.9808 10.8052L10.3869 11.1232L10.8634 11.5996L11.91 12.6457L12.0687 12.8044L12.2928 12.7913C12.3998 12.785 12.5302 12.8285 12.6442 12.9424C12.8393 13.1375 12.8393 13.461 12.6442 13.6561C12.4489 13.8513 12.1249 13.8513 11.9296 13.6561C11.8305 13.557 11.7794 13.4237 11.7794 13.2759V13.0731L11.6381 12.9276L10.6071 11.8657L10.6071 11.8657L10.6019 11.8604L9.50839 10.7674L8.52427 9.78366L7.44643 8.70623L6.55604 7.81619L6.3723 7.63252L6.11639 7.67729L5.74746 7.74183L5.02784 7.02248L5.54262 6.92842L5.88559 6.86575L5.94535 6.52227L6.03023 6.03439L6.74306 6.74694L6.67854 7.11547L6.63371 7.37153L6.81756 7.55531L7.70796 8.44536L8.0264 8.76368L8.37623 8.4802C10.8198 6.50006 14.4208 6.6455 16.69 8.9138C19.1028 11.3256 19.1043 15.257 16.6889 17.6858C14.2778 20.1104 10.3458 20.0995 7.91449 17.6842C6.05583 15.8258 5.62416 13.0768 6.63189 10.805L7.01456 11.1875C6.20445 13.2292 6.61049 15.671 8.27031 17.3302C10.4953 19.5543 14.1083 19.5565 16.3198 17.3295C18.544 15.1055 18.5462 11.4946 16.3192 9.28404C14.2803 7.23029 11.0781 7.06081 8.83597 8.77167L8.3814 9.11854L8.7858 9.52278L9.76992 10.5065L10.0654 10.8019L10.4086 10.5636C11.6996 9.66704 13.5058 9.79281 14.6416 10.9416L14.6437 10.9437C15.9323 12.2319 15.9323 14.3511 14.6437 15.6392C13.3549 16.9275 11.2345 16.9275 9.94578 15.6392Z" fill="white" stroke="white"/>
</svg>
