<svg width="24" height="24" viewBox="0 0 24 24" fill="none" xmlns="http://www.w3.org/2000/svg">
<path d="M20.7304 11.6407C20.5768 11.3847 20.3197 11.2439 20.0054 11.2439C20.004 11.2439 20.0026 11.2439 20.0012 11.2439C19.4085 11.246 18.6953 11.481 18.14 11.8568C17.6276 12.2035 16.8849 12.8459 16.2581 13.9413C16.1404 14.1468 15.9474 14.2862 15.7408 14.3193C15.7401 14.2716 15.7405 14.2172 15.7405 14.1657C15.7405 14.0558 15.7408 13.925 15.7362 13.7806V5.91088C15.7362 5.12657 15.0984 4.48874 14.3141 4.48874C13.5297 4.48874 12.8919 5.12657 12.8919 5.91088V11.4217C12.8919 11.5194 12.8119 11.5994 12.7141 11.5994C12.6164 11.5994 12.5364 11.5194 12.5364 11.4217V3.42214C12.5364 2.63783 11.8986 2 11.1142 2C10.3299 2 9.69211 2.63783 9.69211 3.42214V11.4217C9.69211 11.5194 9.61211 11.5994 9.51434 11.5994C9.41657 11.5994 9.33657 11.5194 9.33657 11.4217V5.02204C9.33657 4.33586 8.77838 3.77767 8.0922 3.77767C7.40602 3.77767 6.84783 4.33586 6.84783 5.02204V12.1327C6.84783 12.2305 6.76784 12.3105 6.67006 12.3105C6.57229 12.3105 6.4923 12.2305 6.4923 12.1327V7.68855C6.4923 7.00237 5.93411 6.44418 5.24437 6.44418C4.55819 6.44418 4 7.00237 4 7.68855L4.00071 17.358C4.34487 22.3295 7.39429 23 10.3321 23C12.7661 23 14.9522 21.7926 16.0302 19.8628C16.1689 19.6388 16.544 19.0489 16.9887 18.3503C18.1009 16.6032 19.0324 15.1359 19.1699 14.875C19.4768 14.294 19.8191 13.84 20.1598 13.562C20.468 13.3103 20.6564 12.9892 20.8097 12.7073C20.889 12.5604 20.9579 12.0211 20.7304 11.6407ZM20.1658 12.4026C20.0236 12.6618 19.8895 12.8648 19.71 13.0113C19.2905 13.354 18.8976 13.8692 18.5414 14.5433C18.4059 14.8003 17.1925 16.707 16.3893 17.9688C15.942 18.6714 15.5652 19.2637 15.4176 19.5026C14.4573 21.2213 12.5086 22.2893 10.3321 22.2893C6.58402 22.2893 4.95532 20.8462 4.71107 17.3338V7.68855C4.71107 7.39452 4.95034 7.15525 5.24793 7.15525C5.54195 7.15525 5.78123 7.39452 5.78123 7.68855V12.1327C5.78123 12.623 6.17978 13.0216 6.67006 13.0216C7.16035 13.0216 7.5589 12.623 7.5589 12.1327V5.02204C7.5589 4.72802 7.79817 4.48874 8.0922 4.48874C8.38623 4.48874 8.6255 4.72802 8.6255 5.02204V11.4217C8.6255 11.9119 9.02406 12.3105 9.51434 12.3105C10.0046 12.3105 10.4032 11.9119 10.4032 11.4217V3.42214C10.4032 3.02998 10.7221 2.71107 11.1142 2.71107C11.5064 2.71107 11.8253 3.02998 11.8253 3.42214V11.4217C11.8253 11.9119 12.2239 12.3105 12.7141 12.3105C13.2044 12.3105 13.603 11.9119 13.603 11.4217V5.91088C13.603 5.51872 13.9219 5.19981 14.3141 5.19981C14.7062 5.19981 15.0251 5.51872 15.0251 5.91088V13.7917C15.0297 13.9378 15.0294 14.0612 15.0294 14.165C15.0287 14.4832 15.0283 14.7128 15.2036 14.8846C15.3504 15.0278 15.5406 15.0367 15.675 15.0382C16.1589 15.0271 16.619 14.742 16.8753 14.2944C17.4339 13.3174 18.0877 12.7499 18.5382 12.446C18.9762 12.1494 19.5518 11.9567 20.004 11.955C20.0044 11.955 20.0051 11.955 20.0054 11.955C20.0815 11.955 20.099 11.9774 20.1093 11.9905C20.1793 12.0794 20.1825 12.303 20.1658 12.4026Z" fill="#666666"/>
</svg>
