<svg width="72" height="61" viewBox="0 0 72 61" fill="none" xmlns="http://www.w3.org/2000/svg">
<path d="M36 0.249947L34.5339 24.4859L36 45.0108L58.5865 42.0786L71.1856 20.6833V0.249947H36Z" fill="#BEDFFE"/>
<path d="M0.814453 42.0786L36 45.0108V0.25H0.814453V42.0786Z" fill="#BEDFFE"/>
<path d="M53.1211 61L50.922 48.6301H36L34.5339 55.2732L36 61H53.1211Z" fill="#9B9B9B"/>
<path d="M18.8787 61H35.9999V48.6301H21.0779L18.8787 61Z" fill="#9B9B9B"/>
<path d="M58.5865 42.0785H36L34.5339 46.4768L36 52.7533H58.5865V42.0785Z" fill="#F7F0EB"/>
<path d="M0.814419 42.0786V45.194C0.814419 49.3623 4.20556 52.7534 8.37381 52.7534H36V42.0786H0.814419Z" fill="#F7F0EB"/>
<path d="M32.1423 34.6334L36 33.1774L27.1043 9.60557L23.394 9.60928L14.421 33.1693L18.2742 34.6369L20.4285 28.9807H30.009L32.1423 34.6334ZM21.9989 24.8574L25.2408 16.3457L28.453 24.8574H21.9989Z" fill="#FFFBF5"/>
<path d="M48.3461 13.6503H44.2347V9.53893H40.1113V13.6503H36V17.7736H40.1113V21.8849H44.2347V17.7736H48.3461V13.6503Z" fill="#F7F0EB"/>
<path d="M56.7998 25.2188V29.3421L63.8553 30.2126L71.1856 29.3421V25.2188L63.8553 24.3483L56.7998 25.2188Z" fill="#F7F0EB"/>
<path d="M71.1855 47.8054L63.8553 46.3393L56.7997 47.8054V52.7394L61.9311 57.1377V61H66.0544V57.1377L71.1855 52.7394V47.8054Z" fill="#32393F"/>
<path d="M56.7998 29.3421H71.1856V47.8053H56.7998V29.3421Z" fill="#D8D8D8"/>
<path d="M71.1856 20.6833C71.1856 16.7171 67.9588 13.4904 63.9928 13.4904C60.0266 13.4904 56.7998 16.7171 56.7998 20.6833V25.219H71.1856V20.6833Z" fill="#32393F"/>
</svg>
