<svg width="50" height="50" viewBox="0 0 50 50" fill="none" xmlns="http://www.w3.org/2000/svg">
<mask id="mask0" mask-type="alpha" maskUnits="userSpaceOnUse" x="1" y="1" width="48" height="48">
<circle cx="25" cy="25" r="24" fill="#DF4B38"/>
</mask>
<g mask="url(#mask0)">
<path d="M41.8935 51H9.1085C4.07625 51 0.000976562 46.9247 0.000976562 41.8925V9.10754C0.000976562 4.07528 4.07625 1.52588e-05 9.1085 1.52588e-05H41.8935C46.9257 1.52588e-05 51.001 4.07528 51.001 9.10754V41.8925C51.001 46.9247 46.9257 51 41.8935 51Z" fill="url(#paint0_radial)"/>
</g>
<path d="M25.71 15.05C29.18 15.05 29.59 15.06 30.96 15.13C32.23 15.19 32.92 15.4 33.37 15.58C33.98 15.82 34.41 16.1 34.86 16.55C35.32 17.01 35.6 17.44 35.83 18.04C36.01 18.5 36.22 19.19 36.28 20.45C36.34 21.82 36.36 22.23 36.36 25.7C36.36 29.17 36.35 29.58 36.28 30.95C36.22 32.22 36.01 32.91 35.83 33.36C35.59 33.97 35.31 34.4 34.86 34.86C34.41 35.31 33.97 35.6 33.37 35.83C32.91 36.01 32.22 36.22 30.96 36.28C29.59 36.34 29.18 36.36 25.71 36.36C22.24 36.36 21.83 36.35 20.46 36.28C19.19 36.22 18.5 36.01 18.05 35.83C17.44 35.59 17.01 35.31 16.55 34.86C16.1 34.4 15.81 33.97 15.58 33.36C15.4 32.9 15.19 32.21 15.13 30.95C15.07 29.58 15.05 29.17 15.05 25.7C15.05 22.23 15.06 21.82 15.13 20.45C15.19 19.18 15.4 18.49 15.58 18.04C15.82 17.43 16.1 17 16.55 16.55C17.01 16.09 17.44 15.81 18.05 15.58C18.51 15.4 19.2 15.19 20.46 15.13C21.83 15.07 22.24 15.05 25.71 15.05ZM25.71 12.71C22.18 12.71 21.74 12.73 20.35 12.79C18.97 12.85 18.02 13.07 17.19 13.39C16.33 13.72 15.61 14.17 14.89 14.89C14.17 15.61 13.72 16.34 13.39 17.19C13.07 18.02 12.85 18.96 12.79 20.35C12.73 21.74 12.71 22.18 12.71 25.71C12.71 29.24 12.72 29.68 12.79 31.07C12.85 32.45 13.07 33.4 13.39 34.23C13.72 35.08 14.17 35.81 14.89 36.53C15.61 37.25 16.34 37.7 17.19 38.03C18.02 38.35 18.96 38.57 20.35 38.63C21.74 38.69 22.18 38.71 25.71 38.71C29.24 38.71 29.68 38.7 31.07 38.63C32.45 38.57 33.4 38.35 34.23 38.03C35.09 37.7 35.81 37.25 36.53 36.53C37.25 35.81 37.7 35.08 38.03 34.23C38.35 33.4 38.57 32.46 38.63 31.07C38.69 29.68 38.71 29.24 38.71 25.71C38.71 22.18 38.7 21.74 38.63 20.35C38.57 18.97 38.35 18.02 38.03 17.19C37.7 16.34 37.25 15.61 36.53 14.89C35.81 14.17 35.08 13.72 34.23 13.39C33.4 13.07 32.46 12.85 31.07 12.79C29.69 12.73 29.24 12.71 25.71 12.71Z" fill="white"/>
<path d="M25.7103 19.0396C22.0203 19.0396 19.0303 22.0296 19.0303 25.7196C19.0303 29.4096 22.0203 32.3996 25.7103 32.3996C29.4003 32.3996 32.3903 29.4096 32.3903 25.7196C32.3903 22.0296 29.4003 19.0396 25.7103 19.0396ZM25.7103 30.0496C23.3203 30.0496 21.3803 28.1096 21.3803 25.7196C21.3803 23.3296 23.3203 21.3896 25.7103 21.3896C28.1003 21.3896 30.0403 23.3296 30.0403 25.7196C30.0503 28.1096 28.1103 30.0496 25.7103 30.0496Z" fill="white"/>
<path d="M34.2108 18.7695C34.2108 19.6295 33.5108 20.3295 32.6508 20.3295C31.7908 20.3295 31.0908 19.6295 31.0908 18.7695C31.0908 17.9095 31.7908 17.2095 32.6508 17.2095C33.5208 17.2095 34.2108 17.9095 34.2108 18.7695Z" fill="white"/>
<defs>
<radialGradient id="paint0_radial" cx="0" cy="0" r="1" gradientUnits="userSpaceOnUse" gradientTransform="translate(-1.27504 51.166) scale(94.288)">
<stop stop-color="#F5EC53"/>
<stop offset="0.2412" stop-color="#E48244"/>
<stop offset="0.3974" stop-color="#D15767"/>
<stop offset="0.4888" stop-color="#C84278"/>
<stop offset="1" stop-color="#192CFA"/>
</radialGradient>
</defs>
</svg>
