<svg width="561" height="466" viewBox="0 0 561 466" fill="none" xmlns="http://www.w3.org/2000/svg">
<mask id="mask0" mask-type="alpha" maskUnits="userSpaceOnUse" x="0" y="0" width="561" height="466">
<rect width="561" height="466" fill="#C4C4C4"/>
</mask>
<g mask="url(#mask0)">
<ellipse cx="308.5" cy="148" rx="295.5" ry="297" fill="#1D7DEA"/>
<path d="M381.235 355C500.007 355 596.292 258.624 596.292 139.739C596.292 20.8538 500.007 -75.5217 381.235 -75.5217C262.462 -75.5217 166.177 20.8538 166.177 139.739C166.177 258.624 262.462 355 381.235 355Z" fill="url(#paint0_linear)" fill-opacity="0.8"/>
<path d="M220.746 107.847C264.557 107.847 300.073 72.2976 300.073 28.4453C300.073 -15.407 264.557 -50.9563 220.746 -50.9563C176.935 -50.9563 141.42 -15.407 141.42 28.4453C141.42 72.2976 176.935 107.847 220.746 107.847Z" fill="url(#paint1_linear)"/>
<path d="M471.82 158.07C550.38 158.07 614.064 94.3251 614.064 15.6916C614.064 -62.942 550.38 -126.687 471.82 -126.687C393.261 -126.687 329.576 -62.942 329.576 15.6916C329.576 94.3251 393.261 158.07 471.82 158.07Z" fill="url(#paint2_linear)"/>
</g>
<defs>
<linearGradient id="paint0_linear" x1="178.37" y1="280.05" x2="579.227" y2="3.33917" gradientUnits="userSpaceOnUse">
<stop offset="0.1002" stop-color="#D93EFC"/>
<stop offset="1" stop-color="#D93EFC" stop-opacity="0"/>
</linearGradient>
<linearGradient id="paint1_linear" x1="137.471" y1="-89.6011" x2="269.406" y2="97.0566" gradientUnits="userSpaceOnUse">
<stop offset="0.1002" stop-color="#D93EFC"/>
<stop offset="1" stop-color="#D93EFC" stop-opacity="0"/>
</linearGradient>
<linearGradient id="paint2_linear" x1="347.253" y1="225.795" x2="555.367" y2="-124.568" gradientUnits="userSpaceOnUse">
<stop offset="0.0747" stop-color="#13E4D4"/>
<stop offset="1" stop-color="#092BBD" stop-opacity="0"/>
</linearGradient>
</defs>
</svg>
