<svg width="332" height="513" viewBox="0 0 332 513" fill="none" xmlns="http://www.w3.org/2000/svg">
<path opacity="0.4" d="M-125.318 84.9348C-125.318 84.9348 70.8129 -22.7615 155.32 4.46305C239.827 31.6876 170.4 109.139 212.71 193.83C254.216 276.912 298.183 282.821 323.655 340.104C349.127 397.387 309.37 477.291 222.994 497.127C136.618 516.962 -3.59622 509.43 -3.59622 509.43C-12.3452 511.939 -21.5026 512.7 -30.5456 511.67C-39.5886 510.639 -48.3401 507.838 -56.3005 503.425C-72.3772 494.514 -84.2554 479.581 -89.3219 461.912L-172.837 170.661C-177.903 152.991 -175.743 134.033 -166.832 117.956C-157.921 101.88 -142.988 90.0014 -125.318 84.9348Z" fill="#ECF0FC"/>
</svg>
