<svg width="41" height="41" viewBox="0 0 41 41" fill="none" xmlns="http://www.w3.org/2000/svg">
<path d="M13.8107 27.3442C15.2933 29.4346 16.7736 31.3042 17.7546 32.5084C17.8974 32.6836 18.0312 32.8462 18.1608 33.0028H15.2004C14.869 33.0028 14.6004 33.2714 14.6004 33.6027C14.6004 33.9341 14.869 34.2027 15.2004 34.2027H24.8003C25.1317 34.2027 25.4003 33.9341 25.4003 33.6027C25.4003 33.2714 25.1317 33.0028 24.8003 33.0028H21.84C21.9695 32.8462 22.1034 32.6835 22.2468 32.5084C23.2272 31.3084 24.7068 29.4346 26.19 27.3442C27.6616 25.3118 28.9861 23.177 30.1536 20.956C31.3788 18.55 32.0004 16.5526 32.0004 15.019C32.0045 11.8324 30.74 8.77516 28.4862 6.52234C28.3357 6.36625 28.1126 6.30353 27.9028 6.3583C27.693 6.41308 27.529 6.57677 27.474 6.78651C27.4189 6.99625 27.4813 7.21935 27.6372 7.3701C29.6658 9.39821 30.804 12.1503 30.8004 15.0189C30.8004 16.3618 30.2232 18.1761 29.0844 20.4112C27.9433 22.5807 26.6488 24.666 25.2108 26.6512C23.748 28.7146 22.2858 30.5632 21.3168 31.7512C20.9947 32.146 20.7048 32.4952 20.4576 32.7904C20.3422 32.9222 20.1756 32.9977 20.0004 32.9977C19.8253 32.9977 19.6586 32.9221 19.5433 32.7904C19.296 32.4953 19.0063 32.146 18.684 31.7512C17.7151 30.5638 16.2528 28.7152 14.7901 26.6512C13.3521 24.666 12.0576 22.5807 10.9165 20.4112C9.77647 18.1761 9.20047 16.3618 9.20047 15.0189C9.20012 10.673 11.7992 6.74826 15.8005 5.05231C18.4891 3.92492 21.5179 3.92492 24.2065 5.05231C24.404 5.13599 24.631 5.10807 24.8022 4.97891C24.9734 4.84981 25.0627 4.63916 25.0365 4.42632C25.0103 4.21348 24.8726 4.03081 24.6751 3.94714C18.5651 1.37003 11.5227 4.23275 8.94369 10.3419C8.31825 11.8217 7.99749 13.4124 8.00051 15.0189C8.00051 16.5525 8.62215 18.55 9.84735 20.959C11.0147 23.1789 12.3393 25.3128 13.8107 27.3442Z" fill="#1D7DEA" stroke="#1D7DEA" stroke-width="0.3"/>
<path d="M20.0002 9.60276C20.3316 9.60276 20.6002 9.33416 20.6002 9.00278C20.6002 8.6714 20.3316 8.4028 20.0002 8.4028C17.1378 8.40273 14.6739 10.4248 14.1154 13.2322C13.5569 16.0397 15.0594 18.8506 17.704 19.9461C20.3485 21.0416 23.3986 20.1163 24.9889 17.7363C26.5793 15.3563 26.2669 12.1843 24.2428 10.1602C24.0922 10.0042 23.8691 9.94167 23.6593 9.99658C23.4496 10.0515 23.2857 10.2153 23.2308 10.4251C23.1759 10.6349 23.2385 10.8579 23.3944 11.0086C25.0138 12.6278 25.2637 15.1653 23.9915 17.0694C22.7194 18.9735 20.2793 19.7137 18.1637 18.8375C16.048 17.9613 14.846 15.7125 15.2926 13.4665C15.7392 11.2205 17.7103 9.60283 20.0002 9.60276Z" fill="#1D7DEA" stroke="#1D7DEA" stroke-width="0.3"/>
<path d="M37.7741 35.7455L34.0841 29.1454C33.7505 28.559 33.1262 28.1986 32.4515 28.2028H28.1753C27.8439 28.2028 27.5753 28.4714 27.5753 28.8028C27.5753 29.1342 27.8439 29.4028 28.1753 29.4028H32.4515C32.6917 29.3981 32.9158 29.5233 33.0377 29.7303L36.7265 36.3304C36.827 36.5021 36.8249 36.7151 36.7211 36.8848C36.5986 37.0873 36.3769 37.2086 36.1403 37.2028H3.86024C3.62385 37.2084 3.4025 37.0871 3.28002 36.8848C3.17624 36.7151 3.1742 36.5021 3.27461 36.3304L6.96342 29.7303C7.08513 29.5234 7.30901 29.3982 7.54899 29.4028H11.8252C12.1566 29.4028 12.4252 29.1342 12.4252 28.8028C12.4252 28.4714 12.1566 28.2028 11.8252 28.2028H7.54906C6.87406 28.1984 6.24926 28.5588 5.91527 29.1454L2.22582 35.7455C1.9182 36.2888 1.9253 36.9554 2.24445 37.4921C2.58069 38.0636 3.19726 38.4111 3.86024 38.4029H36.1403C36.8031 38.4109 37.4195 38.0634 37.7556 37.4921C38.0747 36.9553 38.0818 36.2888 37.7741 35.7455Z" fill="#1D7DEA" stroke="#1D7DEA" stroke-width="0.3"/>
<path d="M31.4002 31.2028H29.0002C28.8818 31.203 28.766 31.238 28.6672 31.3036L26.8672 32.5036C26.5915 32.6876 26.5171 33.0602 26.701 33.3359C26.8849 33.6116 27.2575 33.686 27.5332 33.5021L29.1802 32.4029H31.4002C31.7316 32.4029 32.0002 32.1342 32.0002 31.8029C32.0002 31.4714 31.7316 31.2028 31.4002 31.2028Z" fill="#1D7DEA" stroke="#1D7DEA" stroke-width="0.3"/>
<path d="M27.8003 35.4028C27.8003 35.7342 28.0689 36.0028 28.4003 36.0028H33.2003C33.5317 36.0028 33.8003 35.7342 33.8003 35.4028C33.8003 35.0714 33.5317 34.8028 33.2003 34.8028H28.4003C28.0689 34.8028 27.8003 35.0714 27.8003 35.4028Z" fill="#1D7DEA" stroke="#1D7DEA" stroke-width="0.3"/>
<path d="M12.8005 33.6028C13.065 33.6031 13.2985 33.4302 13.3753 33.177C13.4522 32.9239 13.3542 32.6503 13.1341 32.5036L11.3341 31.3036C11.2352 31.2379 11.1191 31.2028 11.0005 31.2027H8.60047C8.26908 31.2027 8.00049 31.4714 8.00049 31.8027C8.00049 32.1341 8.26915 32.4027 8.60047 32.4027H10.8205L12.4693 33.5019C12.5674 33.5674 12.6826 33.6025 12.8005 33.6028Z" fill="#1D7DEA" stroke="#1D7DEA" stroke-width="0.3"/>
<path d="M6.80017 34.8028C6.46879 34.8028 6.2002 35.0714 6.2002 35.4028C6.2002 35.7342 6.46879 36.0028 6.80017 36.0028H11.6002C11.9316 36.0028 12.2002 35.7342 12.2002 35.4028C12.2002 35.0714 11.9316 34.8028 11.6002 34.8028H6.80017Z" fill="#1D7DEA" stroke="#1D7DEA" stroke-width="0.3"/>
</svg>
