<svg width="66" height="66" viewBox="0 0 66 66" fill="none" xmlns="http://www.w3.org/2000/svg">
<circle cx="33" cy="33" r="33" fill="#78D2A7"/>
<mask id="mask0" mask-type="alpha" maskUnits="userSpaceOnUse" x="0" y="0" width="66" height="66">
<circle cx="33" cy="33" r="33" fill="#1D7DEA"/>
</mask>
<g mask="url(#mask0)">
<g opacity="0.3">
<path d="M27.3934 20.855C26.3304 15.9416 21.6185 12.6565 16.6193 13.2849C11.6488 13.9134 8.05746 18.2269 8.14366 23.0261C8.14366 23.4546 8.02873 32.5101 8 35.5096C8 35.9095 8.43097 36.1381 8.77574 35.9095L14.4645 31.9388C16.1022 32.5387 17.8547 32.7101 19.5786 32.4244C24.98 31.4817 28.5714 26.2255 27.3934 20.855ZM18.4868 27.2825C18.3432 27.4539 18.1133 27.5396 17.8835 27.5396C17.4238 27.5396 17.0503 27.1682 17.0503 26.7111C17.0503 26.2541 17.4238 25.8827 17.8835 25.8827C18.3719 25.8827 18.7454 26.2255 18.7454 26.6826C18.7167 26.9111 18.6592 27.1396 18.4868 27.2825ZM19.4062 22.569L19.1189 22.7975C18.8603 23.0261 18.6018 23.2546 18.573 23.626C18.5443 23.9116 18.5443 24.1973 18.5443 24.5115C18.5443 24.5687 18.5443 24.6258 18.5156 24.6544C18.5156 24.6544 18.4868 24.6829 18.3719 24.6829C18.3144 24.6829 18.2282 24.6829 18.1708 24.6829H17.826C17.6249 24.6829 17.395 24.6829 17.1939 24.6829C17.1077 24.6829 17.079 24.6544 17.079 24.5687C17.0503 23.9402 17.079 23.226 17.3089 22.7118C17.4812 22.3405 17.7973 22.0834 18.1133 21.8549C18.3719 21.6835 18.6018 21.4835 18.8029 21.2264C19.1476 20.7408 19.0902 20.3694 18.9753 20.1409C18.7741 19.7695 18.3432 19.541 17.8547 19.541C17.2227 19.541 16.7342 19.9123 16.5331 20.5408C16.4757 20.7408 16.4469 20.7693 16.3607 20.7693C16.3033 20.7693 16.2745 20.7693 16.1883 20.7693C15.8436 20.7122 15.4988 20.6836 15.1253 20.6265C15.0104 20.6265 14.9816 20.5694 14.9816 20.4837C15.1253 18.9982 16.5618 18.2269 17.9122 18.2269C18.6879 18.2269 19.435 18.484 19.9521 18.9125C20.4405 19.341 20.7278 19.9123 20.7278 20.5122C20.7278 21.3692 20.0383 21.9977 19.4062 22.569Z" fill="white"/>
</g>
<path d="M46.9934 23.9558C40.8313 22.326 33.375 23.9224 28.5701 29.6608C23.7663 35.4003 25.6723 41.016 19.2364 48.3187C17.3006 50.5164 19.9959 50.6331 21.9936 50.8497C22.9508 50.9545 24.6449 52.7939 24.789 55.7523C25.0604 61.2966 28.9177 61.2633 31.0035 61.1478C33.0881 61.0323 36.5644 60.2501 37.955 66.5063H54.9235C54.9235 66.5063 52.902 56.6583 54.9235 47.1603C55.9771 42.2041 58.9261 27.1131 46.9934 23.9558ZM40.6837 50.2604C34.8287 50.2604 30.082 45.5138 30.082 39.6588C30.082 33.8038 34.8287 29.0572 40.6837 29.0572C46.5398 29.0572 51.2853 33.8038 51.2853 39.6588C51.2853 45.5138 46.5398 50.2604 40.6837 50.2604Z" fill="white"/>
<path d="M38.8515 44.7194C39.2679 44.7194 39.6842 44.5798 40.008 44.254L46.4843 37.7391C47.1319 37.0876 47.1319 36.0639 46.4843 35.4589C45.8367 34.8074 44.819 34.8074 44.2176 35.4589L38.8515 40.8104L36.7236 38.6698C36.076 38.0183 35.0583 38.0183 34.4569 38.6698C33.8093 39.3213 33.8093 40.3451 34.4569 40.95L37.6951 44.2075C38.0189 44.5798 38.4352 44.7194 38.8515 44.7194Z" fill="white"/>
</g>
</svg>
