<svg width="88" height="79" viewBox="0 0 88 79" fill="none" xmlns="http://www.w3.org/2000/svg">
<mask id="mask0" mask-type="alpha" maskUnits="userSpaceOnUse" x="0" y="5" width="87" height="74">
<rect y="5" width="87" height="74" fill="#C4C4C4"/>
</mask>
<g mask="url(#mask0)">
<path d="M34.9193 26.9804C33.1148 18.6401 25.1167 13.0638 16.6308 14.1306C8.19371 15.1973 2.09754 22.5193 2.24385 30.6656C2.24385 31.393 2.04877 46.7643 2 51.8557C2 52.5346 2.73154 52.9225 3.31677 52.5346L12.9731 45.7945C15.753 46.8128 18.7279 47.1037 21.654 46.6188C30.8227 45.0187 36.9188 36.0965 34.9193 26.9804ZM19.8008 37.8906C19.557 38.1816 19.1668 38.327 18.7767 38.327C17.9963 38.327 17.3623 37.6967 17.3623 36.9208C17.3623 36.145 17.9963 35.5146 18.7767 35.5146C19.6057 35.5146 20.2397 36.0965 20.2397 36.8723C20.191 37.2603 20.0934 37.6482 19.8008 37.8906ZM21.3614 29.8898L20.8737 30.2777C20.4348 30.6656 19.9959 31.0536 19.9471 31.6839C19.8983 32.1688 19.8983 32.6537 19.8983 33.1871C19.8983 33.2841 19.8983 33.3811 19.8496 33.4296C19.8496 33.4296 19.8008 33.4781 19.6057 33.4781C19.5082 33.4781 19.3619 33.4781 19.2643 33.4781H18.6791C18.3377 33.4781 17.9476 33.4781 17.6062 33.4781C17.4599 33.4781 17.4111 33.4296 17.4111 33.2841C17.3623 32.2173 17.4111 31.0051 17.8013 30.1322C18.0939 29.5019 18.6303 29.0655 19.1668 28.6775C19.6057 28.3866 19.9959 28.0472 20.3373 27.6108C20.9225 26.7864 20.825 26.1561 20.6299 25.7681C20.2885 25.1378 19.557 24.7499 18.7279 24.7499C17.655 24.7499 16.8259 25.3802 16.4845 26.447C16.387 26.7864 16.3382 26.8349 16.1919 26.8349C16.0943 26.8349 16.0456 26.8349 15.8993 26.8349C15.314 26.7379 14.7288 26.6895 14.0948 26.5925C13.8997 26.5925 13.8509 26.4955 13.8509 26.35C14.0948 23.8286 16.5333 22.5193 18.8254 22.5193C20.1422 22.5193 21.4102 22.9557 22.288 23.6831C23.1171 24.4104 23.6048 25.3802 23.6048 26.3985C23.6048 27.8532 22.4344 28.92 21.3614 29.8898Z" fill="#C9E0FA"/>
<path d="M69.8662 18.8575C61.1038 16.5399 50.5011 18.8101 43.6686 26.9699C36.8378 35.1313 39.5481 43.1167 30.3963 53.501C27.6436 56.6261 31.4764 56.792 34.317 57.1001C35.6781 57.2491 38.0871 59.8646 38.292 64.0714C38.6779 71.9553 44.1629 71.9079 47.1289 71.7437C50.0932 71.5795 55.0364 70.4672 57.0137 79.3634H81.1426C81.1426 79.3634 78.2681 65.3597 81.1426 51.8538C82.6408 44.8063 86.8341 23.3471 69.8662 18.8575ZM60.8938 56.2621C52.5682 56.2621 45.8186 49.5125 45.8186 41.1868C45.8186 32.8612 52.5682 26.1116 60.8938 26.1116C69.2212 26.1116 75.9691 32.8612 75.9691 41.1868C75.9691 49.5125 69.2212 56.2621 60.8938 56.2621Z" fill="#1D7DEA"/>
<path d="M58.2887 48.3833C58.8807 48.3833 59.4727 48.1848 59.9332 47.7216L69.1423 38.4576C70.0632 37.5311 70.0632 36.0754 69.1423 35.2151C68.2214 34.2887 66.7742 34.2887 65.9191 35.2151L58.2887 42.8249L55.2628 39.781C54.3419 38.8546 52.8948 38.8546 52.0396 39.781C51.1187 40.7074 51.1187 42.1632 52.0396 43.0234L56.6442 47.6554C57.1046 48.1848 57.6967 48.3833 58.2887 48.3833Z" fill="#1D7DEA"/>
</g>
</svg>
