<svg width="152" height="70" viewBox="0 0 152 70" fill="none" xmlns="http://www.w3.org/2000/svg">
<path fill-rule="evenodd" clip-rule="evenodd" d="M60.0664 48.9483C58.2685 48.9481 56.86 47.4302 57.0959 45.6478C57.7716 40.5426 59.6245 30.7821 64.2774 25.622C66.6316 23.0112 68.0837 21.6087 68.9784 20.8813C69.9095 20.1243 70.0628 20.9215 69.462 21.9601C68.3131 23.9466 66.3257 27.6741 64.7354 32.1709C63.241 36.3962 63.1678 41.9085 63.322 45.4393C63.4035 47.3078 61.9367 48.9484 60.0664 48.9483Z" fill="#5BAED7"/>
<path fill-rule="evenodd" clip-rule="evenodd" d="M88.3804 29.649C85.4277 38.7366 75.6771 43.7131 66.6019 40.7644C65.9128 40.5405 65.2475 40.2774 64.6075 39.9783C64.6233 39.8574 64.6391 39.7356 64.655 39.6129C64.8926 37.7791 65.1539 35.7627 65.8435 33.8738C66.6529 34.3995 67.5436 34.8289 68.505 35.1413C74.4286 37.066 80.793 33.8177 82.7203 27.8861C84.6476 21.9544 81.408 15.5856 75.4844 13.6609C69.5608 11.7362 63.1964 14.9845 61.2691 20.9162C60.4582 23.4118 60.562 25.9848 61.3954 28.2717C59.7353 30.0691 58.5987 32.1816 57.8224 34.2867C54.7982 29.9859 53.7649 24.3605 55.5162 18.9708C58.4689 9.88323 68.2195 4.9067 77.2947 7.85542C86.3699 10.8041 91.3332 20.5615 88.3804 29.649Z" fill="#4A90E2"/>
<path fill-rule="evenodd" clip-rule="evenodd" d="M11.8372 41.5057C11.8042 41.9014 11.7878 42.2065 11.7878 42.4209C11.7878 42.9321 11.8166 43.4597 11.8742 44.0039C11.9319 44.5481 12.0471 45.0469 12.22 45.5003C12.3929 45.9538 12.6358 46.3248 12.9487 46.6134C13.2616 46.902 13.6815 47.0463 14.2085 47.0463C14.9001 47.0463 15.5094 46.9267 16.0363 46.6876C16.5633 46.4485 17.0409 45.9827 17.469 45.2901L22.4833 32.5023H22.8538C22.7221 33.6895 22.6192 34.8644 22.5451 36.027C22.471 37.1895 22.4339 38.2902 22.4339 39.329C22.4339 40.4339 22.4874 41.4562 22.5945 42.3961C22.7015 43.3361 22.8785 44.1523 23.1256 44.8449C23.3726 45.5374 23.6978 46.0775 24.1012 46.465C24.5047 46.8525 25.0028 47.0463 25.5957 47.0463C26.7978 47.0463 27.8764 46.8855 28.8315 46.5639C29.7866 46.2424 30.6635 45.8301 31.4622 45.3272C31.8092 45.1087 32.1484 44.8793 32.4798 44.639C32.6346 44.8477 32.8001 45.0442 32.9763 45.2283C33.5527 45.8301 34.2155 46.2918 34.9648 46.6134C35.7141 46.935 36.4839 47.0957 37.2743 47.0957C38.18 47.0957 39.1146 46.8525 40.0779 46.3661C41.0412 45.8796 41.9675 45.2406 42.8568 44.4491L42.1898 46.7494C41.0042 47.7223 39.8309 48.7447 38.6699 49.8165C37.509 50.8884 36.3974 51.9767 35.3353 53.0815C34.2731 54.1863 33.2892 55.2953 32.3835 56.4083C31.4778 57.5214 30.6956 58.5932 30.0369 59.6238C29.3782 60.6545 28.8595 61.6356 28.4807 62.5673C28.102 63.4989 27.9126 64.3358 27.9126 65.0778C27.9126 66.1497 28.0938 67.0071 28.456 67.6502C28.8183 68.2934 29.2753 68.788 29.827 69.1343C30.3786 69.4806 30.9797 69.7115 31.6301 69.8269C32.2806 69.9423 32.8858 70 33.4457 70C34.8619 70 36.1545 69.7568 37.3237 69.2704C38.4929 68.7839 39.5509 68.1037 40.4978 67.2298C41.4447 66.3558 42.2928 65.3087 43.042 64.0885C43.7913 62.8682 44.4582 61.5284 45.0428 60.0691C45.6274 58.6097 46.1338 57.0432 46.5619 55.3695C46.9901 53.6958 47.3606 51.9767 47.6735 50.2123L48.4639 44.7212C48.8921 41.9179 49.312 39.2961 49.7237 36.8556C49.8883 35.8167 50.0613 34.7737 50.2424 33.7266C50.4235 32.6795 50.6006 31.686 50.7735 30.7461C50.9464 29.8062 51.1069 28.9652 51.2551 28.2232C51.4033 27.4811 51.5268 26.8957 51.6257 26.467C51.6751 26.2691 51.6998 26.096 51.6998 25.9476C51.6998 25.4694 51.5269 25.119 51.181 24.8964C50.8352 24.6737 50.4071 24.5624 49.8966 24.5624C49.4684 24.5624 49.0156 24.6366 48.538 24.785C48.0605 24.9335 47.6035 25.1561 47.1671 25.4529C46.7307 25.7497 46.3437 26.1166 46.0062 26.5536C45.6686 26.9906 45.4339 27.4894 45.3022 28.05L43.5731 35.322C43.5072 35.8497 43.3631 36.5093 43.1408 37.3008C42.9185 38.0923 42.6262 38.8591 42.2639 39.6011C41.9017 40.3432 41.4735 40.978 40.9795 41.5057C40.4855 42.0334 39.9338 42.2972 39.3245 42.2972C38.9458 42.2972 38.6329 42.2024 38.3859 42.0127C38.1389 41.8231 37.9413 41.5758 37.7931 41.2707C37.6448 40.9656 37.5419 40.6194 37.4843 40.2319C37.4267 39.8443 37.3978 39.4445 37.3978 39.0322C37.3978 38.2407 37.4637 37.3255 37.5954 36.2867C37.7272 35.2478 37.9042 34.1884 38.1265 33.1083C38.3488 32.0282 38.6041 30.9728 38.8923 29.9422C39.1804 28.9116 39.4727 28.017 39.7691 27.2585C39.8679 27.0112 39.9379 26.7803 39.9791 26.5659C40.0203 26.3516 40.0408 26.1537 40.0408 25.9723C40.0408 25.3622 39.835 24.9128 39.4233 24.6243C39.0116 24.3357 38.5176 24.1914 37.9413 24.1914C37.2661 24.1914 36.5745 24.3852 35.8664 24.7727C35.1583 25.1602 34.6148 25.725 34.2361 26.467C33.7256 27.5059 33.2728 28.5323 32.8775 29.5465C32.4823 30.5606 32.153 31.6118 31.8895 32.7001C31.626 33.7885 31.4243 34.9345 31.2843 36.1383C31.1443 37.342 31.0744 38.6612 31.0744 40.0958C31.0744 40.1294 31.0745 40.1628 31.0749 40.1962C30.9943 40.2467 30.9135 40.2957 30.8323 40.3432C30.4371 40.574 30.0501 40.7636 29.6713 40.9121C29.2926 41.0605 28.9303 41.1347 28.5845 41.1347C28.2551 41.1347 27.9752 40.8543 27.7447 40.2937C27.5141 39.733 27.3988 39.0075 27.3988 38.117C27.3988 36.9792 27.4565 35.9033 27.5717 34.8892C27.687 33.875 27.8188 32.8733 27.967 31.8839C28.1152 30.8945 28.2469 29.8886 28.3622 28.8663C28.4775 27.8439 28.5351 26.7638 28.5351 25.626C28.5351 24.884 28.2675 24.311 27.7323 23.907C27.1971 23.503 26.5425 23.301 25.7686 23.301C25.0769 23.301 24.4923 23.5277 24.0148 23.9812C23.5372 24.4346 23.0597 24.9912 22.5821 25.6508C22.0881 26.3268 21.557 27.1101 20.9889 28.0006C20.4208 28.891 19.8856 29.7402 19.3833 30.5482C18.8811 31.3562 18.4571 32.0447 18.1112 32.6136C17.7654 33.1825 17.576 33.4917 17.5431 33.5411L17.2714 33.2443C17.2714 33.2113 17.2796 33.1454 17.2961 33.0464C17.3126 32.9475 17.362 32.7084 17.4443 32.3291C17.5596 31.785 17.6831 31.2532 17.8148 30.7337C17.9466 30.2143 18.0742 29.6825 18.1977 29.1383C18.3212 28.5942 18.4241 28.0335 18.5065 27.4564C18.5888 26.8792 18.63 26.2691 18.63 25.626C18.63 24.884 18.3829 24.311 17.8889 23.907C17.3949 23.503 16.8021 23.301 16.1104 23.301C15.3694 23.301 14.7313 23.5236 14.1961 23.9688C13.6609 24.414 13.1546 24.9747 12.677 25.6508C12.183 26.3268 11.6643 27.106 11.1208 27.9882C10.5774 28.8704 10.071 29.7155 9.60172 30.5235C9.13239 31.3315 8.73718 32.0241 8.41606 32.6012C8.09495 33.1783 7.91793 33.4917 7.88499 33.5411L7.61328 33.2443C7.77795 32.2054 7.93439 31.1996 8.0826 30.2267C8.14847 29.8144 8.21022 29.3898 8.26786 28.9528C8.32549 28.5159 8.37901 28.0912 8.42841 27.679C8.47782 27.2668 8.51487 26.8793 8.53957 26.5165C8.56427 26.1537 8.57662 25.8321 8.57662 25.5518C8.57662 25.0406 8.56015 24.6366 8.52722 24.3398C8.49428 24.043 8.39136 23.8163 8.21846 23.6596C8.04555 23.503 7.78207 23.404 7.42802 23.3628C7.07397 23.3216 6.58407 23.301 5.95831 23.301C5.54662 23.301 5.20904 23.3298 4.94556 23.3875C4.68208 23.4453 4.45566 23.5607 4.26628 23.7338C4.07691 23.907 3.90812 24.1502 3.75991 24.4635C3.6117 24.7768 3.45527 25.1973 3.29059 25.725C3.12592 26.2361 2.94478 26.8957 2.74717 27.7037C2.54956 28.5117 2.35607 29.4022 2.16669 30.3751C1.97732 31.348 1.79618 32.3662 1.62327 33.4298C1.45036 34.4934 1.29804 35.5364 1.1663 36.5588C1.03456 37.5811 0.927522 38.554 0.845185 39.4774C0.762848 40.4009 0.72168 41.2006 0.72168 41.8767C0.72168 42.5363 0.758731 43.1753 0.832835 43.7936C0.906938 44.412 1.05514 44.9644 1.27745 45.4509C1.49976 45.9373 1.81676 46.3248 2.22845 46.6134C2.64013 46.902 3.18355 47.0463 3.85872 47.0463C4.38567 47.0463 4.86734 46.9267 5.30373 46.6876C5.74012 46.4485 6.12298 45.9909 6.45233 45.3148C7.58858 43.0227 8.51486 41.1141 9.2312 39.5888C9.94753 38.0634 10.5362 36.8226 10.9973 35.8662C11.4584 34.9098 11.8166 34.1842 12.0718 33.6895C12.3271 33.1948 12.5535 32.8238 12.7511 32.5765H13.1216C12.8581 34.0935 12.6358 35.5116 12.4547 36.8308C12.3724 37.3915 12.29 37.9563 12.2077 38.5252C12.1253 39.0941 12.0512 39.6341 11.9854 40.1453C11.9195 40.6565 11.8701 41.1099 11.8372 41.5057ZM33.7421 65.251C34.4337 65.251 35.0883 65.049 35.7058 64.645C36.3233 64.241 36.8915 63.7092 37.4102 63.0496C37.9289 62.39 38.4023 61.6397 38.8305 60.7987C39.2587 59.9578 39.6374 59.0962 39.9667 58.214C40.2961 57.3318 40.576 56.4702 40.8066 55.6292C41.0371 54.7882 41.2183 54.0379 41.35 53.3783C40.7078 53.8071 40.0532 54.3183 39.3863 54.9119C38.7193 55.5055 38.0689 56.1445 37.4349 56.8288C36.8009 57.5132 36.1998 58.2181 35.6317 58.9436C35.0636 59.6692 34.5654 60.3659 34.1373 61.0337C33.7091 61.7016 33.3716 62.324 33.1245 62.9012C32.8775 63.4783 32.754 63.9565 32.754 64.3358C32.754 64.9459 33.0834 65.251 33.7421 65.251Z" fill="#28BCEB"/>
<path d="M86.173 47.2006C85.9063 47.2006 85.6896 47.1172 85.523 46.9506C85.3563 46.7839 85.273 46.5672 85.273 46.3006C85.273 46.1006 85.323 45.9006 85.423 45.7006L104.273 13.4506C104.773 12.6172 105.456 12.2006 106.323 12.2006H112.173C113.04 12.2006 113.54 12.6172 113.673 13.4506L118.873 45.7006C118.94 46.1672 118.856 46.5339 118.623 46.8006C118.423 47.0672 118.14 47.2006 117.773 47.2006H113.423C112.623 47.2006 112.173 46.8172 112.073 46.0506L110.973 40.2006H96.173L92.523 46.2506C92.1563 46.8839 91.623 47.2006 90.923 47.2006H86.173ZM99.173 34.4006H110.473L108.073 19.0006L99.173 34.4006ZM121.12 47.2006C120.753 47.2006 120.47 47.0839 120.27 46.8506C120.103 46.6172 120.053 46.3339 120.12 46.0006L126.02 18.4506H116.77C116.436 18.4506 116.17 18.3339 115.97 18.1006C115.803 17.8339 115.753 17.5339 115.82 17.2006L116.62 13.4506C116.686 13.0839 116.853 12.7839 117.12 12.5506C117.386 12.3172 117.703 12.2006 118.07 12.2006H143.67C144.036 12.2006 144.303 12.3172 144.47 12.5506C144.636 12.7839 144.686 13.0839 144.62 13.4506L143.82 17.2006C143.753 17.5672 143.57 17.8672 143.27 18.1006C143.003 18.3339 142.703 18.4506 142.37 18.4506H133.17L127.27 46.0006C127.203 46.3672 127.02 46.6672 126.72 46.9006C126.453 47.1006 126.153 47.2006 125.82 47.2006H121.12Z" fill="#1D7DEA"/>
<path fill-rule="evenodd" clip-rule="evenodd" d="M60.0664 48.9483C58.2685 48.9481 56.86 47.4302 57.0959 45.6478C57.7716 40.5426 59.6245 30.7821 64.2774 25.622C66.6316 23.0112 68.0837 21.6087 68.9784 20.8813C69.9095 20.1243 70.0628 20.9215 69.462 21.9601C68.3131 23.9466 66.3257 27.6741 64.7354 32.1709C63.241 36.3962 63.1678 41.9085 63.322 45.4393C63.4035 47.3078 61.9367 48.9484 60.0664 48.9483Z" fill="#1D7DEA"/>
<path fill-rule="evenodd" clip-rule="evenodd" d="M88.3804 29.649C85.4277 38.7366 75.6771 43.7131 66.6019 40.7644C65.9128 40.5405 65.2475 40.2774 64.6075 39.9783C64.6233 39.8574 64.6391 39.7356 64.655 39.6129C64.8926 37.7791 65.1539 35.7627 65.8435 33.8738C66.6529 34.3995 67.5436 34.8289 68.505 35.1413C74.4286 37.066 80.793 33.8177 82.7203 27.8861C84.6476 21.9544 81.408 15.5856 75.4844 13.6609C69.5608 11.7362 63.1964 14.9845 61.2691 20.9162C60.4582 23.4118 60.562 25.9848 61.3954 28.2717C59.7353 30.0691 58.5987 32.1816 57.8224 34.2867C54.7982 29.9859 53.7649 24.3605 55.5162 18.9708C58.4689 9.88323 68.2195 4.9067 77.2947 7.85542C86.3699 10.8041 91.3332 20.5615 88.3804 29.649Z" fill="#1D7DEA"/>
<path fill-rule="evenodd" clip-rule="evenodd" d="M11.8372 41.5057C11.8042 41.9014 11.7878 42.2065 11.7878 42.4209C11.7878 42.9321 11.8166 43.4597 11.8742 44.0039C11.9319 44.5481 12.0471 45.0469 12.22 45.5003C12.3929 45.9538 12.6358 46.3248 12.9487 46.6134C13.2616 46.902 13.6815 47.0463 14.2085 47.0463C14.9001 47.0463 15.5094 46.9267 16.0363 46.6876C16.5633 46.4485 17.0409 45.9827 17.469 45.2901L22.4833 32.5023H22.8538C22.7221 33.6895 22.6192 34.8644 22.5451 36.027C22.471 37.1895 22.4339 38.2902 22.4339 39.329C22.4339 40.4339 22.4874 41.4562 22.5945 42.3961C22.7015 43.3361 22.8785 44.1523 23.1256 44.8449C23.3726 45.5374 23.6978 46.0775 24.1012 46.465C24.5047 46.8525 25.0028 47.0463 25.5957 47.0463C26.7978 47.0463 27.8764 46.8855 28.8315 46.5639C29.7866 46.2424 30.6635 45.8301 31.4622 45.3272C31.8092 45.1087 32.1484 44.8793 32.4798 44.639C32.6346 44.8477 32.8001 45.0442 32.9763 45.2283C33.5527 45.8301 34.2155 46.2918 34.9648 46.6134C35.7141 46.935 36.4839 47.0957 37.2743 47.0957C38.18 47.0957 39.1146 46.8525 40.0779 46.3661C41.0412 45.8796 41.9675 45.2406 42.8568 44.4491L42.1898 46.7494C41.0042 47.7223 39.8309 48.7447 38.6699 49.8165C37.509 50.8884 36.3974 51.9767 35.3353 53.0815C34.2731 54.1863 33.2892 55.2953 32.3835 56.4083C31.4778 57.5214 30.6956 58.5932 30.0369 59.6238C29.3782 60.6545 28.8595 61.6356 28.4807 62.5673C28.102 63.4989 27.9126 64.3358 27.9126 65.0778C27.9126 66.1497 28.0938 67.0071 28.456 67.6502C28.8183 68.2934 29.2753 68.788 29.827 69.1343C30.3786 69.4806 30.9797 69.7115 31.6301 69.8269C32.2806 69.9423 32.8858 70 33.4457 70C34.8619 70 36.1545 69.7568 37.3237 69.2704C38.4929 68.7839 39.5509 68.1037 40.4978 67.2298C41.4447 66.3558 42.2928 65.3087 43.042 64.0885C43.7913 62.8682 44.4582 61.5284 45.0428 60.0691C45.6274 58.6097 46.1338 57.0432 46.5619 55.3695C46.9901 53.6958 47.3606 51.9767 47.6735 50.2123L48.4639 44.7212C48.8921 41.9179 49.312 39.2961 49.7237 36.8556C49.8883 35.8167 50.0613 34.7737 50.2424 33.7266C50.4235 32.6795 50.6006 31.686 50.7735 30.7461C50.9464 29.8062 51.1069 28.9652 51.2551 28.2232C51.4033 27.4811 51.5268 26.8957 51.6257 26.467C51.6751 26.2691 51.6998 26.096 51.6998 25.9476C51.6998 25.4694 51.5269 25.119 51.181 24.8964C50.8352 24.6737 50.4071 24.5624 49.8966 24.5624C49.4684 24.5624 49.0156 24.6366 48.538 24.785C48.0605 24.9335 47.6035 25.1561 47.1671 25.4529C46.7307 25.7497 46.3437 26.1166 46.0062 26.5536C45.6686 26.9906 45.4339 27.4894 45.3022 28.05L43.5731 35.322C43.5072 35.8497 43.3631 36.5093 43.1408 37.3008C42.9185 38.0923 42.6262 38.8591 42.2639 39.6011C41.9017 40.3432 41.4735 40.978 40.9795 41.5057C40.4855 42.0334 39.9338 42.2972 39.3245 42.2972C38.9458 42.2972 38.6329 42.2024 38.3859 42.0127C38.1389 41.8231 37.9413 41.5758 37.7931 41.2707C37.6448 40.9656 37.5419 40.6194 37.4843 40.2319C37.4267 39.8443 37.3978 39.4445 37.3978 39.0322C37.3978 38.2407 37.4637 37.3255 37.5954 36.2867C37.7272 35.2478 37.9042 34.1884 38.1265 33.1083C38.3488 32.0282 38.6041 30.9728 38.8923 29.9422C39.1804 28.9116 39.4727 28.017 39.7691 27.2585C39.8679 27.0112 39.9379 26.7803 39.9791 26.5659C40.0203 26.3516 40.0408 26.1537 40.0408 25.9723C40.0408 25.3622 39.835 24.9128 39.4233 24.6243C39.0116 24.3357 38.5176 24.1914 37.9413 24.1914C37.2661 24.1914 36.5745 24.3852 35.8664 24.7727C35.1583 25.1602 34.6148 25.725 34.2361 26.467C33.7256 27.5059 33.2728 28.5323 32.8775 29.5465C32.4823 30.5606 32.153 31.6118 31.8895 32.7001C31.626 33.7885 31.4243 34.9345 31.2843 36.1383C31.1443 37.342 31.0744 38.6612 31.0744 40.0958C31.0744 40.1294 31.0745 40.1628 31.0749 40.1962C30.9943 40.2467 30.9135 40.2957 30.8323 40.3432C30.4371 40.574 30.0501 40.7636 29.6713 40.9121C29.2926 41.0605 28.9303 41.1347 28.5845 41.1347C28.2551 41.1347 27.9752 40.8543 27.7447 40.2937C27.5141 39.733 27.3988 39.0075 27.3988 38.117C27.3988 36.9792 27.4565 35.9033 27.5717 34.8892C27.687 33.875 27.8188 32.8733 27.967 31.8839C28.1152 30.8945 28.2469 29.8886 28.3622 28.8663C28.4775 27.8439 28.5351 26.7638 28.5351 25.626C28.5351 24.884 28.2675 24.311 27.7323 23.907C27.1971 23.503 26.5425 23.301 25.7686 23.301C25.0769 23.301 24.4923 23.5277 24.0148 23.9812C23.5372 24.4346 23.0597 24.9912 22.5821 25.6508C22.0881 26.3268 21.557 27.1101 20.9889 28.0006C20.4208 28.891 19.8856 29.7402 19.3833 30.5482C18.8811 31.3562 18.4571 32.0447 18.1112 32.6136C17.7654 33.1825 17.576 33.4917 17.5431 33.5411L17.2714 33.2443C17.2714 33.2113 17.2796 33.1454 17.2961 33.0464C17.3126 32.9475 17.362 32.7084 17.4443 32.3291C17.5596 31.785 17.6831 31.2532 17.8148 30.7337C17.9466 30.2143 18.0742 29.6825 18.1977 29.1383C18.3212 28.5942 18.4241 28.0335 18.5065 27.4564C18.5888 26.8792 18.63 26.2691 18.63 25.626C18.63 24.884 18.3829 24.311 17.8889 23.907C17.3949 23.503 16.8021 23.301 16.1104 23.301C15.3694 23.301 14.7313 23.5236 14.1961 23.9688C13.6609 24.414 13.1546 24.9747 12.677 25.6508C12.183 26.3268 11.6643 27.106 11.1208 27.9882C10.5774 28.8704 10.071 29.7155 9.60172 30.5235C9.13239 31.3315 8.73718 32.0241 8.41606 32.6012C8.09495 33.1783 7.91793 33.4917 7.88499 33.5411L7.61328 33.2443C7.77795 32.2054 7.93439 31.1996 8.0826 30.2267C8.14847 29.8144 8.21022 29.3898 8.26786 28.9528C8.32549 28.5159 8.37901 28.0912 8.42841 27.679C8.47782 27.2668 8.51487 26.8793 8.53957 26.5165C8.56427 26.1537 8.57662 25.8321 8.57662 25.5518C8.57662 25.0406 8.56015 24.6366 8.52722 24.3398C8.49428 24.043 8.39136 23.8163 8.21846 23.6596C8.04555 23.503 7.78207 23.404 7.42802 23.3628C7.07397 23.3216 6.58407 23.301 5.95831 23.301C5.54662 23.301 5.20904 23.3298 4.94556 23.3875C4.68208 23.4453 4.45566 23.5607 4.26628 23.7338C4.07691 23.907 3.90812 24.1502 3.75991 24.4635C3.6117 24.7768 3.45527 25.1973 3.29059 25.725C3.12592 26.2361 2.94478 26.8957 2.74717 27.7037C2.54956 28.5117 2.35607 29.4022 2.16669 30.3751C1.97732 31.348 1.79618 32.3662 1.62327 33.4298C1.45036 34.4934 1.29804 35.5364 1.1663 36.5588C1.03456 37.5811 0.927522 38.554 0.845185 39.4774C0.762848 40.4009 0.72168 41.2006 0.72168 41.8767C0.72168 42.5363 0.758731 43.1753 0.832835 43.7936C0.906938 44.412 1.05514 44.9644 1.27745 45.4509C1.49976 45.9373 1.81676 46.3248 2.22845 46.6134C2.64013 46.902 3.18355 47.0463 3.85872 47.0463C4.38567 47.0463 4.86734 46.9267 5.30373 46.6876C5.74012 46.4485 6.12298 45.9909 6.45233 45.3148C7.58858 43.0227 8.51486 41.1141 9.2312 39.5888C9.94753 38.0634 10.5362 36.8226 10.9973 35.8662C11.4584 34.9098 11.8166 34.1842 12.0718 33.6895C12.3271 33.1948 12.5535 32.8238 12.7511 32.5765H13.1216C12.8581 34.0935 12.6358 35.5116 12.4547 36.8308C12.3724 37.3915 12.29 37.9563 12.2077 38.5252C12.1253 39.0941 12.0512 39.6341 11.9854 40.1453C11.9195 40.6565 11.8701 41.1099 11.8372 41.5057ZM33.7421 65.251C34.4337 65.251 35.0883 65.049 35.7058 64.645C36.3233 64.241 36.8915 63.7092 37.4102 63.0496C37.9289 62.39 38.4023 61.6397 38.8305 60.7987C39.2587 59.9578 39.6374 59.0962 39.9667 58.214C40.2961 57.3318 40.576 56.4702 40.8066 55.6292C41.0371 54.7882 41.2183 54.0379 41.35 53.3783C40.7078 53.8071 40.0532 54.3183 39.3863 54.9119C38.7193 55.5055 38.0689 56.1445 37.4349 56.8288C36.8009 57.5132 36.1998 58.2181 35.6317 58.9436C35.0636 59.6692 34.5654 60.3659 34.1373 61.0337C33.7091 61.7016 33.3716 62.324 33.1245 62.9012C32.8775 63.4783 32.754 63.9565 32.754 64.3358C32.754 64.9459 33.0834 65.251 33.7421 65.251Z" fill="#1D7DEA"/>
</svg>
