<svg width="28" height="28" viewBox="0 0 28 28" fill="none" xmlns="http://www.w3.org/2000/svg">
<path d="M21.4249 6.34324L25.532 2.27531C25.7064 2.10261 25.9949 2.13099 26.1322 2.33437L27.0797 3.73705C27.2102 3.93026 27.1441 4.19397 26.9378 4.30274L21.8832 6.96799C21.7979 7.013 21.6989 7.02491 21.6053 7.00144C21.5117 6.97796 21.43 6.92075 21.376 6.84079C21.3249 6.76516 21.3018 6.67405 21.3107 6.5832C21.3196 6.49235 21.36 6.40747 21.4249 6.34324ZM22.1041 9.83662C22.1195 9.91187 22.1621 9.97878 22.2238 10.0245C22.2855 10.0702 22.362 10.0916 22.4384 10.0844L26.9656 9.66179C27.0092 9.65772 27.0514 9.64452 27.0896 9.62303C27.1277 9.60154 27.1609 9.57226 27.187 9.53708C27.213 9.50191 27.2314 9.46164 27.2409 9.41889C27.2503 9.37614 27.2507 9.33188 27.2419 9.28898L26.9718 7.96943C26.9326 7.77813 26.7292 7.66952 26.5485 7.74352L22.2914 9.48564C22.2242 9.51315 22.1687 9.56328 22.1345 9.62737C22.1003 9.69145 22.0896 9.76546 22.1041 9.83662ZM18.7239 5.03265C18.788 5.07497 18.8655 5.09213 18.9414 5.08085C19.0174 5.06956 19.0865 5.03063 19.1355 4.97151L22.0378 1.47151C22.0658 1.43781 22.0863 1.39859 22.0981 1.35642C22.1099 1.31425 22.1126 1.27008 22.1062 1.22677C22.0998 1.18346 22.0843 1.142 22.0607 1.10507C22.0372 1.06815 22.0062 1.0366 21.9696 1.01247L20.8457 0.270413C20.6827 0.162842 20.462 0.229889 20.3866 0.41003L18.6082 4.65208C18.5801 4.71906 18.5763 4.79375 18.5975 4.86324C18.6186 4.93272 18.6633 4.99265 18.7239 5.03265Z" fill="#FFD469"/>
<path d="M11.9439 26.241L11.0696 26.7523C10.3588 27.168 9.44578 26.9287 9.03015 26.218L6.71195 22.2539C6.29633 21.5432 6.53553 20.6301 7.24625 20.2145L8.12059 19.7032C8.83131 19.2875 9.74437 19.5267 10.16 20.2375L12.4782 24.2016C12.8939 24.9123 12.6546 25.8254 11.9439 26.241Z" fill="#00B1FF"/>
<path d="M6.58453 22.3509L15.0562 17.7385L9.26493 8.6709L1.60698 14.3602C1.5576 14.3918 -0.512211 16.2856 1.76087 19.8447C4.03396 23.4038 6.58453 22.3509 6.58453 22.3509Z" fill="#0096D1"/>
<path d="M19.826 8.32532C22.3599 12.2928 23.8951 16.5909 22.835 17.2679C21.7749 17.945 18.521 14.7446 15.987 10.7771C13.4531 6.8096 11.9179 2.5116 12.978 1.83451C14.0381 1.15743 17.292 4.3578 19.826 8.32532Z" fill="#727272"/>
<path d="M18.6327 13.8303C19.5109 13.2693 19.2593 11.306 18.0707 9.44512C16.8821 7.5842 15.2066 6.53035 14.3284 7.09128C13.4502 7.65221 13.7018 9.61551 14.8904 11.4764C16.079 13.3373 17.7545 14.3912 18.6327 13.8303Z" fill="#B2B2B2"/>
<path d="M22.7887 17.2971C21.8627 17.8885 18.7175 14.6187 16.1836 10.6512C13.6497 6.6837 12.0058 2.4551 12.9317 1.86371C12.985 1.82964 13.0449 1.80716 13.1102 1.79475C12.6734 1.78474 12.2454 2.01257 11.9921 2.49688C10.8761 4.63123 8.02779 9.36662 8.02779 9.36662C8.02779 9.36662 6.61439 11.2697 9.099 15.1599C11.5836 19.0501 13.9824 18.5633 13.9824 18.5633C13.9824 18.5633 19.4316 18.0066 21.8259 17.8923C22.3927 17.8652 22.7875 17.5505 22.9515 17.1259C22.908 17.1975 22.8541 17.2553 22.7887 17.2971Z" fill="#D1D1D1"/>
<path d="M2.89239 16.8534C2.76289 16.8535 2.63544 16.821 2.52185 16.7588C2.40825 16.6966 2.31218 16.6068 2.24254 16.4976C2.01356 16.1391 2.11856 15.6629 2.47709 15.4339L5.6441 13.4112C6.00258 13.1823 6.47885 13.2872 6.70783 13.6458C6.9368 14.0043 6.8318 14.4805 6.47327 14.7095L3.30627 16.7322C3.18275 16.8113 3.0391 16.8534 2.89239 16.8534Z" fill="#00B1FF"/>
</svg>
