<svg width="60" height="60" viewBox="0 0 60 60" fill="none" xmlns="http://www.w3.org/2000/svg">
<path d="M30 20C30.663 20 31.2989 20.2634 31.7678 20.7322C32.2366 21.2011 32.5 21.837 32.5 22.5C32.5 23.163 32.2366 23.7989 31.7678 24.2678C31.2989 24.7366 30.663 25 30 25C29.337 25 28.7011 24.7366 28.2322 24.2678C27.7634 23.7989 27.5 23.163 27.5 22.5C27.5 21.837 27.7634 21.2011 28.2322 20.7322C28.7011 20.2634 29.337 20 30 20ZM52.5 27.5C52.5 41.375 42.9 54.35 30 57.5C17.1 54.35 7.5 41.375 7.5 27.5V12.5L30 2.5L52.5 12.5V27.5ZM30 15C28.2288 14.9974 26.5138 15.6217 25.1588 16.7623C23.8038 17.903 22.8962 19.4864 22.5968 21.2321C22.2973 22.9778 22.6254 24.7731 23.5228 26.3001C24.4203 27.8271 25.8292 28.9872 27.5 29.575V45H32.5V40H37.5V35H32.5V29.575C34.1679 28.9846 35.5734 27.8238 36.4684 26.2976C37.3634 24.7714 37.6902 22.978 37.3911 21.2341C37.092 19.4903 36.1862 17.9083 34.8338 16.7676C33.4813 15.6269 31.7693 15.0008 30 15Z" fill="#1D7DEA"/>
</svg>
