<svg width="29" height="28" viewBox="0 0 29 28" fill="none" xmlns="http://www.w3.org/2000/svg">
<path d="M19.4353 1C18.1972 1 17.0199 1.26391 15.9543 1.73521C14.2191 1.02014 12.7946 1.0009 12.7036 1.0006L12.6477 1C11.8139 1 4.51251 1.24227 4.48396 9.62238L1.35645 16.4362L1.80461 16.3313C1.81513 16.3289 2.86294 16.0854 3.6724 16.0854C4.25492 16.0854 4.39529 16.2105 4.42475 16.2483C4.64868 16.5417 4.61531 17.2483 4.58255 17.9316C4.53506 18.9358 4.48095 20.0741 5.11337 20.7369C5.44701 21.087 5.94086 21.2644 6.58049 21.2641C6.58079 21.2641 6.58109 21.2641 6.58109 21.2641C7.21982 21.2641 8.00764 21.0957 8.98331 20.751L9.60821 27H18.6995L18.5567 20.451C19.8507 19.9166 20.7019 19.0359 21.2664 18.0746C25.1514 17.2321 28.0709 13.7695 28.0709 9.63591C28.0709 4.87415 24.1971 1 19.4353 1ZM16.5197 1.9895C17.4262 1.64264 18.4085 1.45087 19.4353 1.45087C20.3515 1.45087 21.2316 1.60446 22.0545 1.8831L20.616 5.80654L20.4095 6.36953L16.4217 17.2438C13.3961 16.0409 11.2503 13.0853 11.2503 9.63591C11.2503 6.36892 13.1749 3.54379 15.9492 2.23237C16.1356 2.1443 16.3258 2.06375 16.5197 1.9895ZM18.2477 20.0891L18.0995 20.1456L18.239 26.5491H10.0164L9.37406 20.1264L9.09994 20.2289C8.06234 20.6166 7.21501 20.8132 6.58109 20.8132C6.58079 20.8132 6.58079 20.8132 6.58049 20.8132C6.06169 20.8132 5.68838 20.6864 5.4395 20.4255C4.94084 19.9025 4.98983 18.8667 5.03282 17.9526C5.07249 17.1188 5.10646 16.3983 4.78273 15.9742C4.6078 15.7455 4.2447 15.6339 3.6724 15.6339C3.14579 15.6339 2.54283 15.7265 2.14366 15.8008L4.93453 9.72037V9.67168C4.93453 6.3037 6.14616 3.90749 8.53575 2.54948C10.3759 1.50377 12.2837 1.45087 12.6477 1.45087L12.697 1.45117C12.7171 1.45117 13.8902 1.4683 15.3883 2.00964C12.6612 3.46294 10.7994 6.33556 10.7994 9.63591C10.7994 14.398 14.6736 18.2718 19.435 18.2718C19.8504 18.2718 20.2586 18.2406 20.6587 18.1837C20.1191 18.9698 19.3521 19.6662 18.2477 20.0891ZM21.5466 17.5438C21.3581 17.594 21.1669 17.6373 20.9737 17.6743C20.475 17.7695 19.9613 17.8212 19.4353 17.8212C18.5303 17.8212 17.6598 17.6713 16.8452 17.3989L19.5507 10.0209L21.8553 11.8984L22.3302 12.2852L25.6317 14.9748C24.5728 16.2023 23.1574 17.1131 21.5466 17.5438ZM22.2935 11.6735L21.8021 11.2732L19.7151 9.57309L20.6857 6.9265L20.903 6.33376L22.4778 2.0394C25.4884 3.24953 27.6204 6.19729 27.6204 9.63591C27.6204 11.513 26.9837 13.2431 25.9173 14.6255L22.2935 11.6735Z" fill="#C4C4C4" stroke="#C4C4C4" stroke-width="0.8"/>
</svg>
