<svg width="24" height="24" viewBox="0 0 24 24" fill="none" xmlns="http://www.w3.org/2000/svg">
<path d="M6.19532 17.375C5.9297 17.6406 5.92189 18.0938 6.19532 18.3594C6.46876 18.625 6.92189 18.625 7.18751 18.3594L12.1875 13.3594L17.1875 18.3594C17.4531 18.625 17.9141 18.6328 18.1797 18.3594C18.4453 18.0859 18.4453 17.6406 18.1797 17.375L13.1797 12.3672L18.1797 7.3672C18.4453 7.10157 18.4531 6.64845 18.1797 6.38282C17.9063 6.10939 17.4531 6.10939 17.1875 6.38282L12.1875 11.3828L7.18751 6.38282C6.92189 6.10939 6.46095 6.10157 6.19532 6.38282C5.9297 6.65626 5.9297 7.10157 6.19532 7.3672L11.1953 12.3672L6.19532 17.375Z" fill="#666666"/>
</svg>
