<svg width="585" height="346" viewBox="0 0 585 346" fill="none" xmlns="http://www.w3.org/2000/svg">
<path d="M465.81 75.4441C467.508 120.265 447.212 163.6 409.95 191.8C374.708 218.472 344.685 259.946 365.57 319.153C398.402 412.236 509.001 374.525 641.028 352.437C763.962 331.876 823.009 199.232 752.737 102.584C692.78 20.1349 619.744 -42.1073 550.549 -27.2848C480.066 -12.1919 464.222 33.7101 465.81 75.4441Z" fill="#1D7DEA" fill-opacity="0.2"/>
<path d="M641.373 -63.4368C634.311 -63.4368 627.36 -62.7092 620.532 -61.2435C588.377 -54.3624 564.994 -40.4233 551.059 -19.8215C539.934 -3.38776 534.771 17.2765 535.693 41.5996H535.826H535.693C537.403 86.6494 516.54 130.109 479.888 157.852C459.403 173.35 444.847 190.688 436.608 209.377C426.316 232.744 425.927 258.304 435.464 285.351C448.377 321.96 473.948 340.774 515.929 344.547C554.002 347.977 600.902 339.121 655.196 328.862C673.261 325.453 691.947 321.918 711.078 318.717C726.056 316.212 740.501 311.96 753.992 306.077C766.971 300.423 779.152 293.219 790.177 284.696C811.473 268.231 828.472 246.756 839.331 222.599C850.234 198.338 854.753 171.791 852.388 145.846C851.167 132.416 848.124 119.153 843.339 106.44C838.365 93.2187 831.481 80.5166 822.865 68.6773C790.255 23.8354 757.401 -10.2897 725.201 -32.7626C695.978 -53.167 667.865 -63.4368 641.373 -63.4368ZM533.572 345.046C527.51 345.046 521.636 344.807 515.951 344.298C474.092 340.535 448.588 321.783 435.72 285.278C414.169 224.179 447.933 182.372 480.055 158.06C498.264 144.276 512.987 126.304 522.635 106.066C532.195 86.0153 536.803 63.7191 535.959 41.5892C534.505 3.36868 548.006 -45.4543 620.587 -60.994C652.942 -67.9272 688.083 -58.3539 725.035 -32.5547C757.212 -10.0922 790.044 24.0121 822.632 68.8228C855.719 114.32 861.859 171.77 839.064 222.495C816.392 272.981 768.526 308.863 711.023 318.478C691.881 321.679 673.205 325.203 655.129 328.623C608.974 337.344 568.147 345.046 533.572 345.046Z" fill="white"/>
<path d="M196.78 -151C189.718 -151 182.768 -150.272 175.939 -148.807C143.785 -141.926 120.401 -127.987 106.467 -107.385C95.3527 -90.951 90.1786 -70.2868 91.1001 -45.9637H91.2334H91.1001C92.81 -0.903534 71.9472 42.5559 35.2957 70.2988C14.8215 85.797 0.254129 103.135 -7.98441 121.835C-18.277 145.202 -18.6656 170.762 -9.12804 197.808C3.78493 234.417 29.3555 253.232 71.3365 257.005C109.42 260.425 156.309 251.568 210.603 241.319C228.668 237.91 247.355 234.376 266.486 231.174C281.475 228.669 295.909 224.418 309.399 218.535C322.379 212.88 334.559 205.677 345.584 197.153C366.88 180.688 383.879 159.213 394.738 135.056C405.641 110.796 410.16 84.2482 407.795 58.3035C406.574 44.8738 403.532 31.6105 398.746 18.898C393.772 5.67619 386.888 -7.02588 378.272 -18.8652C345.662 -63.7071 312.808 -97.8322 280.609 -120.305C251.385 -140.73 223.283 -151 196.78 -151ZM88.9905 257.483C82.9171 257.483 77.0547 257.244 71.3698 256.734C29.5109 252.972 4.007 234.22 -8.86156 197.715C-30.4128 136.616 3.35191 94.809 35.4733 70.4963C53.6825 56.7132 68.4053 38.7411 78.0539 18.503C87.6138 -1.54797 92.2216 -23.8442 91.3888 -45.9741C89.9343 -84.1946 103.436 -133.018 176.017 -148.557C208.361 -155.48 243.502 -145.917 280.464 -120.118C312.641 -97.6659 345.473 -63.5511 378.061 -18.7405C411.149 26.7562 417.289 84.2066 394.494 134.932C371.81 185.407 323.944 221.289 266.441 230.904C247.299 234.106 228.624 237.629 210.559 241.049C164.381 249.781 123.566 257.483 88.9905 257.483Z" fill="#E5E5E5"/>
</svg>
