<svg width="24" height="24" viewBox="0 0 24 24" fill="none" xmlns="http://www.w3.org/2000/svg">
<path fill-rule="evenodd" clip-rule="evenodd" d="M4.21676 2C2.99248 2 2 2.9918 2 4.21676V19.7832C2 21.0075 2.9918 22 4.21676 22H19.7832C21.0075 22 22 21.0082 22 19.7832V4.21676C22 2.99248 21.0082 2 19.7832 2H4.21676ZM7.55044 6.44444C6.93961 6.44444 6.44444 6.93763 6.44444 7.55556C6.44444 8.16921 6.94345 8.66667 7.55044 8.66667H16.4496C17.0604 8.66667 17.5556 8.17348 17.5556 7.55556C17.5556 6.94191 17.0566 6.44444 16.4496 6.44444H7.55044ZM7.55044 10.8889C6.93961 10.8889 6.44444 11.3821 6.44444 12C6.44444 12.6136 6.94345 13.1111 7.55044 13.1111H16.4496C17.0604 13.1111 17.5556 12.6179 17.5556 12C17.5556 11.3864 17.0566 10.8889 16.4496 10.8889H7.55044ZM7.55881 15.3333C6.94336 15.3333 6.44444 15.8265 6.44444 16.4444C6.44444 17.0581 6.94281 17.5556 7.55881 17.5556H13.1079C13.7233 17.5556 14.2222 17.0624 14.2222 16.4444C14.2222 15.8308 13.7239 15.3333 13.1079 15.3333H7.55881Z" fill="#767676"/>
</svg>
