<svg width="172" height="92" viewBox="0 0 172 92" fill="none" xmlns="http://www.w3.org/2000/svg">
<path fill-rule="evenodd" clip-rule="evenodd" d="M79.2371 63.1724C76.9314 63.1697 75.124 61.2298 75.4142 58.9425C76.2795 52.1224 78.7117 38.7425 84.9528 31.7111C88.5499 27.6584 90.56 25.7664 91.6812 24.9367C92.6365 24.2299 92.7486 25.1982 92.1517 26.2258C90.7015 28.7224 87.8315 34.0359 85.5706 40.5464C83.5601 46.3358 83.5004 53.9199 83.723 58.6712C83.8355 61.0727 81.9481 63.1757 79.544 63.1728L79.2371 63.1724Z" fill="white"/>
<path fill-rule="evenodd" clip-rule="evenodd" d="M116.978 37.0298C112.995 49.2901 99.9945 56.0542 87.9413 52.1378C87.0344 51.8432 86.1588 51.4965 85.3164 51.102C85.3379 50.9378 85.3593 50.7724 85.3808 50.6058C85.7012 48.1312 86.0535 45.4102 86.9749 42.8602C88.0482 43.5632 89.2302 44.1361 90.507 44.551C98.3743 47.1072 106.86 42.6922 109.46 34.6897C112.06 26.6872 107.79 18.1276 99.9231 15.5713C92.0557 13.0151 83.5701 17.4302 80.9699 25.4327C79.8792 28.7896 79.9974 32.2445 81.0829 35.3132C78.863 37.7514 77.3438 40.6171 76.3062 43.4701C72.3078 37.6946 70.9668 30.1209 73.33 22.8476C77.3136 10.5873 90.314 3.82324 102.367 7.73955C114.42 11.6559 120.962 24.7696 116.978 37.0298Z" fill="white"/>
<path fill-rule="evenodd" clip-rule="evenodd" d="M15.3181 53.1378C15.2744 53.6717 15.2525 54.0833 15.2525 54.3725C15.2525 55.0622 15.2908 55.7741 15.3673 56.5082C15.4439 57.2423 15.597 57.9153 15.8266 58.5271C16.0563 59.1389 16.3789 59.6394 16.7944 60.0287C17.21 60.4181 17.7677 60.6127 18.4675 60.6127C19.3861 60.6127 20.1953 60.4514 20.8952 60.1289C21.5951 59.8063 22.2294 59.1778 22.798 58.2434L29.4577 40.9911H29.9498C29.7749 42.5929 29.6382 44.1779 29.5397 45.7463C29.4413 47.3147 29.3921 48.7997 29.3921 50.2012C29.3921 51.6918 29.4632 53.0711 29.6054 54.3391C29.7475 55.6072 29.9826 56.7084 30.3107 57.6428C30.6388 58.5772 31.0707 59.3057 31.6066 59.8285C32.1424 60.3513 32.804 60.6127 33.5914 60.6127C35.1879 60.6127 36.6205 60.3958 37.889 59.962C39.1575 59.5282 40.3221 58.972 41.3829 58.2935C41.8437 57.9987 42.2942 57.6892 42.7344 57.3651C42.9399 57.6467 43.1597 57.9117 43.3938 58.16C44.1593 58.972 45.0396 59.5949 46.0347 60.0287C47.0298 60.4626 48.0523 60.6795 49.1021 60.6795C50.305 60.6795 51.5462 60.3513 52.8257 59.695C54.1051 59.0388 55.3354 58.1767 56.5164 57.1089L55.6306 60.2123C54.0559 61.5248 52.4976 62.9041 50.9557 64.3502C49.4138 65.7962 47.9375 67.2645 46.5268 68.755C45.1161 70.2456 43.8093 71.7416 42.6064 73.2433C41.4035 74.745 40.3647 76.191 39.4898 77.5814C38.615 78.9719 37.926 80.2955 37.423 81.5525C36.92 82.8094 36.6684 83.9384 36.6684 84.9395C36.6684 86.3856 36.909 87.5424 37.3902 88.41C37.8714 89.2777 38.4783 89.9451 39.211 90.4123C39.9436 90.8794 40.7419 91.1909 41.6058 91.3466C42.4697 91.5023 43.2735 91.5802 44.0171 91.5802C45.898 91.5802 47.6149 91.2521 49.1677 90.5958C50.7206 89.9395 52.1258 89.0218 53.3834 87.8428C54.641 86.6637 55.7673 85.251 56.7624 83.6047C57.7576 81.9585 58.6433 80.1509 59.4198 78.1821C60.1962 76.2132 60.8687 74.0998 61.4374 71.8418C62.006 69.5837 62.4981 67.2645 62.9137 64.8841L63.9635 57.4759C64.5321 53.694 65.0898 50.1568 65.6366 46.8642C65.8553 45.4627 66.085 44.0556 66.3255 42.6429C66.5661 41.2302 66.8012 39.8899 67.0309 38.6218C67.2605 37.3537 67.4738 36.2192 67.6706 35.218C67.8675 34.2169 68.0315 33.4272 68.1627 32.8488C68.2283 32.5818 68.2611 32.3482 68.2611 32.148C68.2611 31.5028 68.0315 31.0301 67.5722 30.7298C67.1129 30.4294 66.5443 30.2793 65.8663 30.2793C65.2976 30.2793 64.6962 30.3794 64.0619 30.5796C63.4276 30.7798 62.8207 31.0801 62.2411 31.4806C61.6615 31.881 61.1476 32.376 60.6992 32.9656C60.2509 33.5551 59.9392 34.2281 59.7642 34.9845L57.4678 44.7953C57.3803 45.5072 57.1889 46.397 56.8937 47.4649C56.5984 48.5327 56.2102 49.5672 55.729 50.5683C55.2479 51.5694 54.6792 52.4259 54.0231 53.1378C53.367 53.8497 52.6343 54.2057 51.8251 54.2057C51.322 54.2057 50.9065 54.0777 50.5784 53.8219C50.2503 53.5661 49.9879 53.2324 49.7911 52.8208C49.5942 52.4092 49.4575 51.942 49.381 51.4192C49.3044 50.8964 49.2662 50.357 49.2662 49.8008C49.2662 48.7329 49.3536 47.4983 49.5286 46.0967C49.7036 44.6952 49.9387 43.2658 50.2339 41.8086C50.5292 40.3515 50.8682 38.9277 51.2509 37.5373C51.6337 36.1468 52.0219 34.94 52.4156 33.9166C52.5468 33.5829 52.6398 33.2715 52.6944 32.9822C52.7491 32.693 52.7765 32.4261 52.7765 32.1814C52.7765 31.3582 52.5031 30.752 51.9563 30.3627C51.4095 29.9734 50.7534 29.7787 49.9879 29.7787C49.0912 29.7787 48.1726 30.0401 47.2321 30.5629C46.2917 31.0857 45.57 31.8477 45.0669 32.8488C44.3889 34.2503 43.7875 35.6352 43.2626 37.0033C42.7377 38.3715 42.3002 39.7897 41.9503 41.258C41.6004 42.7263 41.3324 44.2725 41.1465 45.8965C40.9606 47.5205 40.8677 49.3002 40.8677 51.2357C40.8677 51.281 40.8679 51.3262 40.8683 51.3712C40.7615 51.4394 40.6541 51.5055 40.5463 51.5694C40.0214 51.8809 39.5075 52.1367 39.0044 52.3369C38.5014 52.5372 38.0202 52.6373 37.5609 52.6373C37.1235 52.6373 36.7517 52.2591 36.4455 51.5027C36.1393 50.7463 35.9862 49.7674 35.9862 48.5661C35.9862 47.0311 36.0628 45.5795 36.2159 44.2113C36.369 42.8431 36.5439 41.4916 36.7408 40.1568C36.9376 38.822 37.1126 37.465 37.2657 36.0857C37.4188 34.7064 37.4953 33.2492 37.4953 31.7142C37.4953 30.7131 37.1399 29.94 36.4291 29.395C35.7183 28.8499 34.8489 28.5774 33.821 28.5774C32.9024 28.5774 32.126 28.8833 31.4917 29.4951C30.8575 30.1069 30.2232 30.8577 29.589 31.7476C28.9328 32.6597 28.2275 33.7164 27.4729 34.9177C26.7184 36.1191 26.0076 37.2647 25.3405 38.3548C24.6734 39.4449 24.1103 40.3737 23.651 41.1412C23.1917 41.9088 22.9402 42.3259 22.8964 42.3926L22.5355 41.9922C22.5355 41.9477 22.5465 41.8587 22.5684 41.7252C22.5902 41.5917 22.6558 41.2692 22.7652 40.7575C22.9183 40.0233 23.0823 39.3059 23.2573 38.6051C23.4323 37.9043 23.6018 37.1869 23.7658 36.4527C23.9298 35.7186 24.0665 34.9622 24.1759 34.1836C24.2852 33.4049 24.3399 32.5818 24.3399 31.7142C24.3399 30.7131 24.0118 29.94 23.3557 29.395C22.6996 28.8499 21.9122 28.5774 20.9936 28.5774C20.0094 28.5774 19.1619 28.8777 18.4511 29.4784C17.7403 30.0791 17.0678 30.8354 16.4335 31.7476C15.7774 32.6597 15.0885 33.7108 14.3667 34.901C13.645 36.0912 12.9724 37.2314 12.3491 38.3215C11.7258 39.4116 11.2009 40.3459 10.7744 41.1246C10.3479 41.9032 10.1128 42.3259 10.0691 42.3926L9.7082 41.9922C9.92691 40.5906 10.1347 39.2336 10.3315 37.921C10.419 37.3649 10.501 36.792 10.5776 36.2025C10.6541 35.6129 10.7252 35.0401 10.7908 34.4839C10.8564 33.9277 10.9056 33.4049 10.9384 32.9155C10.9712 32.4261 10.9877 31.9923 10.9877 31.6141C10.9877 30.9244 10.9658 30.3794 10.922 29.9789C10.8783 29.5785 10.7416 29.2726 10.512 29.0613C10.2823 28.8499 9.93238 28.7164 9.46215 28.6608C8.99192 28.6052 8.34126 28.5774 7.51016 28.5774C6.96338 28.5774 6.51503 28.6163 6.16509 28.6942C5.81515 28.7721 5.51443 28.9278 5.26291 29.1614C5.01139 29.395 4.78722 29.7231 4.59038 30.1458C4.39354 30.5685 4.18577 31.1358 3.96705 31.8477C3.74834 32.5373 3.50776 33.4272 3.24531 34.5173C2.98286 35.6074 2.72588 36.8087 2.47436 38.1213C2.22284 39.4338 1.98226 40.8075 1.75261 42.2425C1.52297 43.6774 1.32066 45.0845 1.14569 46.4638C0.970724 47.8431 0.828564 49.1556 0.719208 50.4015C0.609853 51.6473 0.555176 52.7262 0.555176 53.6384C0.555176 54.5282 0.604385 55.3903 0.702805 56.2246C0.801225 57.0588 0.998062 57.8041 1.29332 58.4604C1.58858 59.1166 2.0096 59.6394 2.55637 60.0287C3.10315 60.4181 3.82489 60.6127 4.7216 60.6127C5.42148 60.6127 6.0612 60.4514 6.64079 60.1289C7.22037 59.8063 7.72887 59.1889 8.16629 58.2768C9.6754 55.1845 10.9056 52.6095 11.857 50.5516C12.8084 48.4938 13.5903 46.8197 14.2027 45.5294C14.8151 44.2391 15.2908 43.2603 15.6298 42.5929C15.9688 41.9254 16.2695 41.4249 16.532 41.0912H17.0241C16.6741 43.1379 16.3789 45.0511 16.1383 46.8309C16.0289 47.5873 15.9196 48.3492 15.8102 49.1167C15.7009 49.8842 15.6024 50.6128 15.515 51.3025C15.4275 51.9921 15.3619 52.6039 15.3181 53.1378ZM44.4107 85.1732C45.3292 85.1732 46.1986 84.9007 47.0188 84.3556C47.8389 83.8106 48.5935 83.0931 49.2824 82.2032C49.9714 81.3134 50.6002 80.3012 51.1688 79.1666C51.7374 78.032 52.2405 76.8696 52.6779 75.6794C53.1153 74.4892 53.4871 73.3268 53.7933 72.1922C54.0995 71.0576 54.3401 70.0454 54.5151 69.1555C53.6621 69.7339 52.7927 70.4236 51.9069 71.2245C51.0212 72.0254 50.1573 72.8874 49.3152 73.8107C48.4732 74.7339 47.6749 75.6849 46.9204 76.6638C46.1658 77.6427 45.5042 78.5826 44.9356 79.4836C44.3669 80.3846 43.9186 81.2244 43.5905 82.003C43.2624 82.7817 43.0984 83.4268 43.0984 83.9385C43.0984 84.7616 43.5358 85.1732 44.4107 85.1732Z" fill="white"/>
<path fill-rule="evenodd" clip-rule="evenodd" d="M109.822 61.6762C109.646 61.4981 109.559 61.2666 109.559 60.9817C109.559 60.7681 109.611 60.5544 109.716 60.3407L129.541 25.8866C130.067 24.9963 130.786 24.5511 131.698 24.5511H137.85C138.762 24.5511 139.288 24.9963 139.428 25.8866L144.897 60.3407C144.967 60.8393 144.888 61.231 144.66 61.5159C144.432 61.8008 144.125 61.9432 143.74 61.9432H139.165C138.323 61.9432 137.85 61.5337 137.745 60.7147L136.588 54.4648H121.022L117.184 60.9283C116.798 61.6049 116.237 61.9432 115.501 61.9432H110.505C110.225 61.9432 109.997 61.8542 109.822 61.6762ZM124.178 48.2684H136.062L133.538 31.8159L124.178 48.2684ZM146.387 61.5693C146.194 61.32 146.133 61.0173 146.203 60.6612L152.408 31.2283H142.68C142.329 31.2283 142.057 31.0948 141.865 30.8277C141.672 30.5606 141.61 30.249 141.681 29.8929L142.522 25.8866C142.592 25.4949 142.767 25.1744 143.048 24.9251C143.328 24.6758 143.661 24.5511 144.047 24.5511H170.971C171.357 24.5511 171.637 24.6758 171.813 24.9251C171.988 25.1744 172.04 25.4949 171.97 25.8866L171.129 29.8929C171.059 30.2846 170.875 30.6051 170.577 30.8544C170.279 31.1037 169.955 31.2283 169.604 31.2283H159.928L153.723 60.6612C153.653 61.053 153.469 61.3646 153.171 61.596C152.873 61.8275 152.548 61.9432 152.198 61.9432H147.255C146.869 61.9432 146.58 61.8186 146.387 61.5693Z" fill="white"/>
<rect x="75.0005" y="66" width="76" height="15" rx="2" fill="white"/>
<path d="M86.3444 78.13C85.5731 78.13 84.9101 78.013 84.3554 77.779C83.8007 77.545 83.3804 77.2373 83.0944 76.856C82.8084 76.4747 82.6567 76.063 82.6394 75.621C82.6394 75.543 82.6654 75.478 82.7174 75.426C82.7694 75.374 82.8344 75.348 82.9124 75.348H84.0694C84.1734 75.348 84.2514 75.3697 84.3034 75.413C84.3641 75.4477 84.4204 75.5083 84.4724 75.595C84.5591 75.8897 84.7584 76.1367 85.0704 76.336C85.3824 76.5353 85.8071 76.635 86.3444 76.635C86.9597 76.635 87.4234 76.5353 87.7354 76.336C88.0474 76.128 88.2034 75.842 88.2034 75.478C88.2034 75.2353 88.1211 75.036 87.9564 74.88C87.8004 74.724 87.5621 74.5897 87.2414 74.477C86.9294 74.3643 86.4614 74.2257 85.8374 74.061C84.8147 73.8183 84.0651 73.4977 83.5884 73.099C83.1204 72.6917 82.8864 72.1153 82.8864 71.37C82.8864 70.8673 83.0207 70.421 83.2894 70.031C83.5667 69.641 83.9611 69.3333 84.4724 69.108C84.9924 68.8827 85.5947 68.77 86.2794 68.77C86.9901 68.77 87.6054 68.8957 88.1254 69.147C88.6454 69.3983 89.0397 69.7147 89.3084 70.096C89.5857 70.4687 89.7331 70.8413 89.7504 71.214C89.7504 71.292 89.7244 71.357 89.6724 71.409C89.6204 71.461 89.5554 71.487 89.4774 71.487H88.2684C88.0864 71.487 87.9607 71.4047 87.8914 71.24C87.8394 70.9627 87.6661 70.733 87.3714 70.551C87.0767 70.3603 86.7127 70.265 86.2794 70.265C85.7941 70.265 85.4127 70.356 85.1354 70.538C84.8581 70.72 84.7194 70.9843 84.7194 71.331C84.7194 71.5737 84.7887 71.773 84.9274 71.929C85.0661 72.085 85.2827 72.2237 85.5774 72.345C85.8807 72.4663 86.3141 72.6007 86.8774 72.748C87.6401 72.9213 88.2467 73.1163 88.6974 73.333C89.1567 73.5497 89.4947 73.8227 89.7114 74.152C89.9281 74.4813 90.0364 74.9017 90.0364 75.413C90.0364 75.9677 89.8804 76.453 89.5684 76.869C89.2651 77.2763 88.8317 77.5883 88.2684 77.805C87.7137 78.0217 87.0724 78.13 86.3444 78.13ZM95.0362 78.13C93.8402 78.13 92.9129 77.8223 92.2542 77.207C91.6042 76.5917 91.2575 75.725 91.2142 74.607C91.2055 74.373 91.2012 73.9917 91.2012 73.463C91.2012 72.9257 91.2055 72.5357 91.2142 72.293C91.2575 71.1837 91.6085 70.3213 92.2672 69.706C92.9345 69.082 93.8575 68.77 95.0362 68.77C95.8075 68.77 96.4792 68.9043 97.0512 69.173C97.6232 69.433 98.0652 69.7927 98.3772 70.252C98.6892 70.7027 98.8539 71.214 98.8712 71.786V71.812C98.8712 71.8813 98.8409 71.942 98.7802 71.994C98.7282 72.0373 98.6675 72.059 98.5982 72.059H97.3632C97.2592 72.059 97.1812 72.0373 97.1292 71.994C97.0772 71.9507 97.0339 71.8683 96.9992 71.747C96.8605 71.201 96.6309 70.8197 96.3102 70.603C95.9895 70.3777 95.5605 70.265 95.0232 70.265C93.7752 70.265 93.1252 70.9627 93.0732 72.358C93.0645 72.592 93.0602 72.9517 93.0602 73.437C93.0602 73.9223 93.0645 74.2907 93.0732 74.542C93.1252 75.9373 93.7752 76.635 95.0232 76.635C95.5605 76.635 95.9895 76.5223 96.3102 76.297C96.6395 76.0717 96.8692 75.6903 96.9992 75.153C97.0252 75.0317 97.0642 74.9493 97.1162 74.906C97.1769 74.8627 97.2592 74.841 97.3632 74.841H98.5982C98.6762 74.841 98.7412 74.867 98.7932 74.919C98.8539 74.971 98.8799 75.036 98.8712 75.114C98.8539 75.686 98.6892 76.2017 98.3772 76.661C98.0652 77.1117 97.6232 77.4713 97.0512 77.74C96.4792 78 95.8075 78.13 95.0362 78.13ZM100.725 78C100.638 78 100.565 77.9697 100.504 77.909C100.443 77.8483 100.413 77.7747 100.413 77.688V69.225C100.413 69.1297 100.439 69.0517 100.491 68.991C100.552 68.9303 100.63 68.9 100.725 68.9H101.908C102.003 68.9 102.077 68.9303 102.129 68.991C102.19 69.0517 102.22 69.1297 102.22 69.225V72.579H106.055V69.225C106.055 69.1297 106.081 69.0517 106.133 68.991C106.194 68.9303 106.272 68.9 106.367 68.9H107.537C107.632 68.9 107.71 68.9303 107.771 68.991C107.832 69.0517 107.862 69.1297 107.862 69.225V77.688C107.862 77.7833 107.832 77.8613 107.771 77.922C107.71 77.974 107.632 78 107.537 78H106.367C106.28 78 106.207 77.9697 106.146 77.909C106.085 77.8483 106.055 77.7747 106.055 77.688V74.204H102.22V77.688C102.22 77.7747 102.19 77.8483 102.129 77.909C102.077 77.9697 102.003 78 101.908 78H100.725ZM113.381 78.13C112.202 78.13 111.283 77.831 110.625 77.233C109.966 76.635 109.619 75.7467 109.585 74.568C109.576 74.3167 109.572 73.9483 109.572 73.463C109.572 72.969 109.576 72.5963 109.585 72.345C109.619 71.1923 109.975 70.3083 110.651 69.693C111.327 69.0777 112.237 68.77 113.381 68.77C114.525 68.77 115.435 69.0777 116.111 69.693C116.795 70.3083 117.155 71.1923 117.19 72.345C117.207 72.8477 117.216 73.2203 117.216 73.463C117.216 73.697 117.207 74.0653 117.19 74.568C117.146 75.7467 116.795 76.635 116.137 77.233C115.478 77.831 114.559 78.13 113.381 78.13ZM113.381 76.635C113.961 76.635 114.425 76.4617 114.772 76.115C115.118 75.7597 115.305 75.2223 115.331 74.503C115.348 73.983 115.357 73.632 115.357 73.45C115.357 73.2507 115.348 72.8997 115.331 72.397C115.305 71.6777 115.118 71.1447 114.772 70.798C114.425 70.4427 113.961 70.265 113.381 70.265C112.809 70.265 112.349 70.4427 112.003 70.798C111.656 71.1447 111.47 71.6777 111.444 72.397C111.435 72.6483 111.431 72.9993 111.431 73.45C111.431 73.892 111.435 74.243 111.444 74.503C111.47 75.2223 111.652 75.7597 111.99 76.115C112.336 76.4617 112.8 76.635 113.381 76.635ZM122.42 78.13C121.241 78.13 120.322 77.831 119.664 77.233C119.005 76.635 118.658 75.7467 118.624 74.568C118.615 74.3167 118.611 73.9483 118.611 73.463C118.611 72.969 118.615 72.5963 118.624 72.345C118.658 71.1923 119.014 70.3083 119.69 69.693C120.366 69.0777 121.276 68.77 122.42 68.77C123.564 68.77 124.474 69.0777 125.15 69.693C125.834 70.3083 126.194 71.1923 126.229 72.345C126.246 72.8477 126.255 73.2203 126.255 73.463C126.255 73.697 126.246 74.0653 126.229 74.568C126.185 75.7467 125.834 76.635 125.176 77.233C124.517 77.831 123.598 78.13 122.42 78.13ZM122.42 76.635C123 76.635 123.464 76.4617 123.811 76.115C124.157 75.7597 124.344 75.2223 124.37 74.503C124.387 73.983 124.396 73.632 124.396 73.45C124.396 73.2507 124.387 72.8997 124.37 72.397C124.344 71.6777 124.157 71.1447 123.811 70.798C123.464 70.4427 123 70.265 122.42 70.265C121.848 70.265 121.388 70.4427 121.042 70.798C120.695 71.1447 120.509 71.6777 120.483 72.397C120.474 72.6483 120.47 72.9993 120.47 73.45C120.47 73.892 120.474 74.243 120.483 74.503C120.509 75.2223 120.691 75.7597 121.029 76.115C121.375 76.4617 121.839 76.635 122.42 76.635ZM128.274 78C128.187 78 128.113 77.9697 128.053 77.909C127.992 77.8483 127.962 77.7747 127.962 77.688V69.212C127.962 69.1167 127.992 69.043 128.053 68.991C128.113 68.9303 128.187 68.9 128.274 68.9H129.483C129.578 68.9 129.652 68.9303 129.704 68.991C129.764 69.043 129.795 69.1167 129.795 69.212V76.453H133.916C134.011 76.453 134.089 76.4833 134.15 76.544C134.21 76.6047 134.241 76.6827 134.241 76.778V77.688C134.241 77.7833 134.21 77.8613 134.15 77.922C134.089 77.974 134.011 78 133.916 78H128.274ZM138.662 78.13C137.89 78.13 137.227 78.013 136.673 77.779C136.118 77.545 135.698 77.2373 135.412 76.856C135.126 76.4747 134.974 76.063 134.957 75.621C134.957 75.543 134.983 75.478 135.035 75.426C135.087 75.374 135.152 75.348 135.23 75.348H136.387C136.491 75.348 136.569 75.3697 136.621 75.413C136.681 75.4477 136.738 75.5083 136.79 75.595C136.876 75.8897 137.076 76.1367 137.388 76.336C137.7 76.5353 138.124 76.635 138.662 76.635C139.277 76.635 139.741 76.5353 140.053 76.336C140.365 76.128 140.521 75.842 140.521 75.478C140.521 75.2353 140.438 75.036 140.274 74.88C140.118 74.724 139.879 74.5897 139.559 74.477C139.247 74.3643 138.779 74.2257 138.155 74.061C137.132 73.8183 136.382 73.4977 135.906 73.099C135.438 72.6917 135.204 72.1153 135.204 71.37C135.204 70.8673 135.338 70.421 135.607 70.031C135.884 69.641 136.278 69.3333 136.79 69.108C137.31 68.8827 137.912 68.77 138.597 68.77C139.307 68.77 139.923 68.8957 140.443 69.147C140.963 69.3983 141.357 69.7147 141.626 70.096C141.903 70.4687 142.05 70.8413 142.068 71.214C142.068 71.292 142.042 71.357 141.99 71.409C141.938 71.461 141.873 71.487 141.795 71.487H140.586C140.404 71.487 140.278 71.4047 140.209 71.24C140.157 70.9627 139.983 70.733 139.689 70.551C139.394 70.3603 139.03 70.265 138.597 70.265C138.111 70.265 137.73 70.356 137.453 70.538C137.175 70.72 137.037 70.9843 137.037 71.331C137.037 71.5737 137.106 71.773 137.245 71.929C137.383 72.085 137.6 72.2237 137.895 72.345C138.198 72.4663 138.631 72.6007 139.195 72.748C139.957 72.9213 140.564 73.1163 141.015 73.333C141.474 73.5497 141.812 73.8227 142.029 74.152C142.245 74.4813 142.354 74.9017 142.354 75.413C142.354 75.9677 142.198 76.453 141.886 76.869C141.582 77.2763 141.149 77.5883 140.586 77.805C140.031 78.0217 139.39 78.13 138.662 78.13Z" fill="#1D7DEA"/>
</svg>
