<svg width="24" height="24" viewBox="0 0 24 24" fill="none" xmlns="http://www.w3.org/2000/svg">
<path d="M12.6593 14.0351L12.6592 14.0351C11.8404 13.7836 11.0014 13.7922 10.0716 13.8017C9.88998 13.8036 9.70489 13.8055 9.5158 13.8055C8.20412 13.8055 7.00856 14.0828 6.08434 14.9198L6.08421 14.92C5.07386 15.8344 4.5 17.0686 4.5 18.4245V18.4334V18.4424V18.4513V18.4602V18.4692V18.4781V18.487V18.4959V18.5049V18.5138V18.5227V18.5317V18.5406V18.5495V18.5585V18.5674V18.5763V18.5852V18.5942V18.6031V18.612V18.621V18.6299V18.6388V18.6478V18.6567V18.6656V18.6745V18.6835V18.6924V18.7013V18.7103V18.7192V18.7281V18.7371V18.746V18.7549V18.7638V18.7728V18.7817V18.7906V18.7996V18.8085V18.8174V18.8264V18.8353V18.8442V18.8531V18.8621V18.871V18.8799V18.8889V18.8978V18.9067V18.9157V18.9246V18.9335V18.9424V18.9514V18.9603V18.9692V18.9782V18.9871V18.996V19.005V19.0139V19.0228V19.0317V19.0407V19.0496V19.0585V19.0675V19.0764V19.0853V19.0943V19.1032V19.1121V19.121V19.13V19.1389V19.1478V19.1568V19.1657V19.1746V19.1836V19.1925V19.2014V19.2104V19.2193V19.2282V19.2371V19.2461V19.255V19.2639V19.2729V19.2818V19.2907V19.2997V19.3086V19.3175V19.3264V19.3354V19.3443V19.3532V19.3622V19.3711V19.38V19.389V19.3979V19.4068V19.4157V19.4247V19.4336V19.4425V19.4515V19.4604V19.4693V19.4783V19.4872V19.4961V19.5051V19.514V19.5229V19.5318V19.5408V19.5497V19.5586V19.5676V19.5765V19.5854V19.5944V19.6033V19.6122V19.6211V19.6301V19.639V19.6479V19.6569V19.6658V19.6747V19.6837V19.6926V19.7015V19.7105V19.7194V19.7283V19.7372V19.7462V19.7551V19.764V19.773V19.7819V19.7908V19.7998V19.8087V19.8176V19.8266V19.8355V19.8444V19.8533V19.8623V19.8712V19.8801V19.8891V19.898V19.9069V19.9159V19.9248V19.9337V19.9426V19.9516V19.9605V19.9694V19.9784V19.9873V19.9962V20.0052V20.0141V20.023V20.032V20.0409V20.0498V20.0587V20.0677V20.0766V20.0855V20.0945V20.1034V20.1123V20.1213V20.1302V20.1391V20.1481V20.157V20.1659V20.1748V20.1838V20.1927V20.2016V20.2106V20.2195V20.2284V20.2374V20.2463V20.2552V20.2641V20.2731V20.282V20.2909V20.2999V20.3088V20.3177V20.3267V20.3356V20.3445V20.3535V20.3624V20.3713V20.3802V20.3892V20.3981V20.407V20.416V20.4249V20.4338V20.4428V20.4517V20.4606V20.4696V20.4785V20.4874V20.4963V20.5053V20.5142V20.5231V20.5321V20.541V20.5499V20.5589V20.5678V20.5767V20.5857V20.5946V20.6035V20.6124V20.6214V20.6303V20.6392V20.6482V20.6571V20.666V20.675V20.6839V20.6928V20.7018V20.7107V20.7196V20.7285V20.7375V20.7464V20.7553V20.7643V20.7732V20.7821V20.7911V20.8V20.8089V20.8178V20.8268V20.8357V20.8446V20.8536V20.8625V20.8714V20.8804V20.8893V20.8982V20.9072V20.9161V20.925V20.9339V20.9429V20.9518V20.9607V20.9697V20.9786V20.9875V20.9965V21.0054V21.0143V21.0233V21.0322V21.0411V21.05V21.059V21.0679V21.0768V21.0858V21.0947V21.1036V21.1126V21.1215V21.1304V21.1394V21.1483V21.1572V21.1661V21.1751V21.184V21.1929V21.2019V21.2108V21.2197V21.2287V21.2376V21.2465V21.2554V21.2644V21.2733V21.2822V21.2912V21.3001V21.309V21.318V21.3269V21.3358V21.3448V21.3537V21.3626V21.3715V21.3805V21.3894V21.3983V21.4073V21.4162V21.4251V21.4341V21.443V21.4519V21.4609V21.4698V21.4787V21.4876V21.4966V21.5055V21.5144V21.5234V21.5323V21.5412V21.5502V21.5591V21.568V21.577V21.5859V21.5948V21.6037V21.6127V21.6216V21.6305V21.6395V21.6484V21.6573V21.6663V21.6752V21.6841V21.693V21.702V21.7109V21.7198V21.7288V21.7377V21.7466V21.7556V21.7645V21.7734V21.7824V21.7913V21.8002V21.8091V21.8181V21.827V21.8359V21.8449V21.8538V21.8627V21.8717V21.8806V21.8895V21.8984V21.9074V21.9163V21.9252V21.9342V21.9431V21.952V21.961V21.9699V21.9788V21.9878V21.9967V22.0056V22.0145V22.0235V22.0324V22.0413V22.0503V22.0592V22.0681V22.0771V22.086V22.0949V22.1038V22.1128V22.1217V22.1306V22.1396V22.1485V22.1574V22.1664V22.1753V22.1842V22.1932V22.2021V22.211V22.2199V22.2289V22.2378V22.2467V22.2557V22.2646V22.2735V22.2825V22.2914V22.3003V22.3092V22.3182V22.3271V22.336V22.345V22.3539V22.3628V22.3718V22.3807V22.3896V22.3985V22.4075V22.4164V22.4253V22.4343V22.4432V22.4521V22.4611V22.47V22.4789V22.4878V22.4968V22.4969H4.50442H4.52844H4.55246H4.57648H4.6005H4.62451H4.64853H4.67255H4.69657H4.72059H4.74461H4.76863H4.79265H4.81667H4.84069H4.86471H4.88873H4.91275H4.93677H4.96079H4.98481H5.00883H5.03285H5.05687H5.08089H5.10491H5.12893H5.15295H5.17697H5.20099H5.22501H5.24903H5.27305H5.29707H5.32109H5.34511H5.36913H5.39315H5.41717H5.44119H5.46521H5.48923H5.51325H5.53727H5.56129H5.58531H5.60933H5.63335H5.65737H5.68139H5.70541H5.72943H5.75345H5.77747H5.80149H5.8255H5.84952H5.87354H5.89756H5.92158H5.9456H5.96962H5.99364H6.01766H6.04168H6.0657H6.08972H6.11374H6.13776H6.16178H6.1858H6.20982H6.23384H6.25786H6.28188H6.3059H6.32992H6.35394H6.37796H6.40198H6.426H6.45002H6.47404H6.49806H6.52208H6.5461H6.57012H6.59414H6.61816H6.64218H6.6662H6.69022H6.71424H6.73826H6.76228H6.7863H6.81032H6.83434H6.85836H6.88238H6.9064H6.93042H6.95444H6.97846H7.00248H7.02649H7.05051H7.07453H7.09855H7.12257H7.14659H7.17061H7.19463H7.21865H7.24267H7.26669H7.29071H7.31473H7.33875H7.36277H7.38679H7.41081H7.43483H7.45885H7.48287H7.50689H7.53091H7.55493H7.57895H7.60297H7.62699H7.65101H7.67503H7.69905H7.72307H7.74709H7.77111H7.79513H7.81915H7.84317H7.86719H7.89121H7.91523H7.93925H7.96327H7.98729H8.01131H8.03533H8.05935H8.08337H8.10739H8.13141H8.15543H8.17945H8.20347H8.22749H8.2515H8.27552H8.29954H8.32356H8.34758H8.3716H8.39562H8.41964H8.44366H8.46768H8.4917H8.51572H8.53974H8.56376H8.58778H8.6118H8.63582H8.65984H8.68386H8.70788H8.7319H8.75592H8.77994H8.80396H8.82798H8.852H8.87602H8.90004H8.92406H8.94808H8.9721H8.99612H9.02014H9.04416H9.06818H9.0922H9.11622H9.14024H9.16426H9.18828H9.2123H9.23632H9.26034H9.28436H9.30838H9.3324H9.35642H9.38044H9.40446H9.42848H9.4525H9.47651H9.50054H9.52455H9.54857H9.57259H9.59661H9.62063H9.64465H9.66867H9.69269H9.71671H9.74073H9.76475H9.78877H9.81279H9.83681H9.86083H9.88485H9.90887H9.93289H9.95691H9.98093H10.005H10.029H10.053H10.077H10.101H10.125H10.1491H10.1731H10.1971H10.2211H10.2451H10.2692H10.2932H10.3172H10.3412H10.3652H10.3893H10.4133H10.4373H10.4613H10.4853H10.5094H10.5334H10.5574H10.5814H10.6054H10.6295H10.6535H10.6775H10.7015H10.7255H10.7496H10.7736H10.7976H10.8216H10.8456H10.8697H10.8937H10.9177H10.9417H10.9657H10.9898H11.0138H11.0378H11.0618H11.0858H11.1099H11.1339H11.1579H11.1819H11.2059H11.23H11.254H11.278H11.302H11.326H11.3501H11.3741H11.3981H11.4221H11.4461H11.4702H11.4942H11.5182H11.5422H11.5662H11.5903H11.6143H11.6383H11.6623H11.6863H11.7104H11.7344H11.7584H11.7824H11.8064H11.8305H11.8545H11.8785H11.9025H11.9265H11.9506H11.9746H11.9986H12.0226H12.0466H12.0707H12.0947H12.1187H12.1427H12.1667H12.1908H12.2148H12.2388H12.2628H12.2868H12.3109H12.3349H12.3589H12.3829H12.4069H12.431H12.455H12.479H12.503H12.527H12.5511H12.5751H12.5991H12.6231H12.6471H12.6711H12.6952H12.7192H12.7432H12.7672H12.7912H12.8153H12.8393H12.8633H12.8873H12.9113H12.9354H12.9594H12.9834H13.0074H13.0314H13.0555H13.0795H13.1035H13.1275H13.1515H13.1756H13.1996H13.2236H13.2476H13.2716H13.2957H13.3197H13.3437H13.3677H13.3917H13.4158H13.4398H13.4638H13.4878H13.5118H13.5359H13.5599H13.5839H13.6079H13.6319H13.656H13.68H13.704H13.728H13.752H13.7761H13.8001H13.8241H13.8481H13.8721H13.8962H13.9202H13.9442H13.9682H13.9922H14.0163H14.0403H14.0643H14.0883H14.1123H14.1364H14.1604H14.1844H14.2084H14.2324H14.2565H14.2805H14.3045H14.3285H14.3525H14.3766H14.4006H14.4246H14.4486H14.4726H14.4967H14.5207H14.5447H14.5687H14.5927H14.6168H14.6408H14.6648H14.6888H14.7128H14.7369H14.7609H14.7849H14.8089H14.8329H14.857H14.881H14.905H14.929H14.953H14.977H15.0011H15.0251H15.0491H15.0731H15.0971H15.1212H15.1452H15.1692H15.1932H15.2172H15.2413H15.2653H15.2893H15.3133H15.3373H15.3614H15.3854H15.4094H15.4334H15.4574H15.4815H15.5055H15.5295H15.5535H15.5775H15.6016H15.6256H15.6496H15.6736H15.6976H15.7217H15.7457H15.7697H15.7937H15.7981V22.4937V22.4876V22.4815V22.4754V22.4693V22.4631V22.457V22.4509V22.4448V22.4387V22.4326V22.4265V22.4204V22.4143V22.4082V22.402V22.3959V22.3898V22.3837V22.3776V22.3715V22.3654V22.3593V22.3532V22.3471V22.3409V22.3348V22.3287V22.3226V22.3165V22.3104V22.3043V22.2982V22.2921V22.286V22.2798V22.2737V22.2676V22.2615V22.2554V22.2493V22.2432V22.2371V22.231V22.2249V22.2187V22.2126V22.2065V22.2004V22.1943V22.1882V22.1821V22.176V22.1699V22.1637V22.1576V22.1515V22.1454V22.1393V22.1332V22.1271V22.121V22.1149V22.1088V22.1026V22.0965V22.0904V22.0843V22.0782V22.0721V22.066V22.0599V22.0538V22.0477V22.0415V22.0354V22.0293V22.0232V22.0171V22.011V22.0049V21.9988V21.9927V21.9866V21.9804V21.9743V21.9682V21.9621V21.956V21.9499V21.9438V21.9377V21.9316V21.9255V21.9193V21.9132V21.9071V21.901V21.8949V21.8888V21.8827V21.8766V21.8705V21.8643V21.8582V21.8521V21.846V21.8399V21.8338V21.8277V21.8216V21.8155V21.8094V21.8032V21.7971V21.791V21.7849V21.7788V21.7727V21.7666V21.7605V21.7544V21.7483V21.7421V21.736V21.7299V21.7238V21.7177V21.7116V21.7055V21.6994V21.6933V21.6871V21.681V21.6749V21.6688V21.6627V21.6566V21.6505V21.6444V21.6383V21.6322V21.626V21.6199V21.6138V21.6077V21.6016V21.5955V21.5894V21.5833V21.5772V21.571V21.5649V21.5588V21.5527V21.5466V21.5405V21.5344V21.5283V21.5222V21.5161V21.5099V21.5038V21.4977V21.4916V21.4855V21.4794V21.4733V21.4672V21.4611V21.455V21.4488V21.4427V21.4366V21.4305V21.4244V21.4183V21.4122V21.4061V21.4V21.3938V21.3877V21.3816V21.3755V21.3694V21.3633V21.3572V21.3511V21.345V21.3389V21.3327V21.3266V21.3205V21.3144V21.3083V21.3022V21.2961V21.29V21.2839V21.2777V21.2716V21.2655V21.2594V21.2533V21.2472V21.2411V21.235V21.2289V21.2228V21.2166V21.2105V21.2044V21.1983V21.1922V21.1861V21.18V21.1739V21.1678V21.1616V21.1555V21.1494V21.1433V21.1372V21.1311V21.125V21.1189V21.1128V21.1067V21.1005V21.0944V21.0883V21.0822V21.0761V21.07V21.0639V21.0578V21.0517V21.0456V21.0394V21.0333V21.0272V21.0211V21.015V21.0089V21.0028V20.9967V20.9906V20.9844V20.9783V20.9722V20.9661V20.96V20.9539V20.9478V20.9417V20.9356V20.9295V20.9233V20.9172V20.9111V20.905V20.8989V20.8928V20.8867V20.8806V20.8745V20.8683V20.8622V20.8561V20.85V20.8439V20.8378V20.8317V20.8256V20.8195V20.8134V20.8072V20.8011V20.795V20.7889V20.7828V20.7767V20.7706V20.7645V20.7584V20.7523V20.7461V20.74V20.7339V20.7278V20.7217V20.7156V20.7095V20.7034V20.6973V20.6911V20.685V20.6789V20.6728V20.6667V20.6606V20.6545V20.6484V20.6423V20.6362V20.63V20.6239V20.6178V20.6117V20.6056V20.5995V20.5934V20.5873V20.5812V20.5751V20.5689V20.5628V20.5567V20.5506V20.5445V20.5384V20.5323V20.5262V20.5201V20.5139V20.5078V20.5017V20.4956V20.4895V20.4834V20.4773V20.4712V20.4651V20.459V20.4528V20.4467V20.4406V20.4345V20.4284V20.4223V20.4162V20.4101V20.404V20.3979V20.3917V20.3856V20.3795V20.3734V20.3673V20.3612V20.3551V20.349V20.3429V20.3368V20.3306V20.3245V20.3184V20.3123V20.3062V20.3001V20.294V20.2879V20.2818V20.2757V20.2695V20.2634V20.2573V20.2512V20.2451V20.239V20.2329V20.2268V20.2207V20.2146V20.2084V20.2023V20.1962V20.1901V20.184V20.1779V20.1718V20.1657V20.1596V20.1535V20.1473V20.1412V20.1351V20.129V20.1229V20.1168V20.1107V20.1046V20.0985V20.0924V20.0862V20.0801V20.074V20.0679V20.0618V20.0557V20.0496V20.0435V20.0374V20.0313V20.0251V20.019V20.0129V20.0068V20.0007V19.9946V19.9885V19.9824V19.9763V19.9702V19.964V19.9579V19.9518V19.9457V19.9396V19.9335V19.9274V19.9213V19.9152V19.9091V19.9029V19.8968V19.8907V19.8846V19.8785V19.8724V19.8663V19.8602V19.8541V19.848V19.8418V19.8357V19.8296V19.8235V19.8174V19.8113V19.8052V19.7991V19.793V19.7869V19.7807V19.7746V19.7685V19.7624V19.7563V19.7502V19.7441V19.738V19.7319V19.7258V19.7197V19.7135V19.7074V19.7013V19.6952V19.6891L12.6593 14.0351ZM12.6593 14.0351L12.8032 13.5664L12.806 13.5571M12.6593 14.0351L12.806 13.5571M12.806 13.5571C14.4043 14.0479 15.6169 15.3998 16.1002 16.9722C16.322 17.6958 16.312 18.4696 16.3021 19.2268C16.3001 19.3818 16.2981 19.5361 16.2981 19.6891L12.806 13.5571Z" fill="#767676" stroke="#767676"/>
<path d="M10.1493 4.4176C12.0721 4.46668 13.5716 5.96991 13.615 7.89436C13.6572 9.77901 12.0185 11.3064 10.138 11.3489C8.25338 11.3913 6.72589 9.75266 6.68348 7.87182C6.64108 5.99098 8.27315 4.46583 10.1493 4.4176Z" fill="#767676" stroke="#767676"/>
<path d="M19.3512 2.90357C19.4141 1.7096 18.328 1.04115 17.2703 1C16.5968 1.02836 16.0196 1.20187 15.4738 1.59782C15.3792 1.6665 15.2991 1.78857 15.3461 1.91175C15.4971 2.30798 15.6484 2.70421 15.7996 3.10044C15.8564 3.24947 16.0527 3.38516 16.2081 3.26671C16.4964 3.04649 16.7203 2.86631 17.1062 2.83517C17.761 2.78234 16.695 4.06946 16.5696 4.25798C16.1466 4.89306 16.1697 5.58403 16.2248 6.30586H18.1028C18.0777 5.64548 18.1119 5.23618 18.5705 4.68452C19.0134 4.15093 19.3148 3.60483 19.3512 2.90357Z" fill="#767676"/>
<path d="M17.0646 8.73878C17.5765 8.73878 17.9914 8.32386 17.9914 7.81202C17.9914 7.30019 17.5765 6.88526 17.0646 6.88526C16.5528 6.88526 16.1379 7.30019 16.1379 7.81202C16.1379 8.32386 16.5528 8.73878 17.0646 8.73878Z" fill="#767676"/>
</svg>
