<svg width="13" height="10" viewBox="0 0 13 10" fill="none" xmlns="http://www.w3.org/2000/svg">
<path d="M8.3918 9.35C8.1985 9.5433 7.8851 9.5433 7.6918 9.35V9.35C7.4985 9.1567 7.4985 8.8433 7.6918 8.65L10.7847 5.55711C11.1752 5.16658 11.1752 4.53342 10.7847 4.14289L7.6918 1.05C7.4985 0.856701 7.4985 0.5433 7.6918 0.35V0.35C7.8851 0.1567 8.1985 0.1567 8.3918 0.35L12.1847 4.14289C12.5752 4.53342 12.5752 5.16658 12.1847 5.55711L8.3918 9.35Z" fill="white"/>
<path d="M0.691895 4.84961C0.691895 4.57347 0.915752 4.34961 1.19189 4.34961H11.1919C11.468 4.34961 11.6919 4.57347 11.6919 4.84961V4.84961C11.6919 5.12575 11.468 5.34961 11.1919 5.34961H1.19189C0.915752 5.34961 0.691895 5.12575 0.691895 4.84961V4.84961Z" fill="white"/>
</svg>
