<svg width="243" height="159" viewBox="0 0 243 159" fill="none" xmlns="http://www.w3.org/2000/svg">
<path opacity="0.05" fill-rule="evenodd" clip-rule="evenodd" d="M67.1934 155.104H187.392C192.991 155.104 197.529 150.566 197.529 144.967C197.529 139.368 192.991 134.83 187.392 134.83C187.392 134.83 178.703 130.291 178.703 124.692C178.703 119.094 184.426 114.555 191.485 114.555H206.219C211.817 114.555 216.356 110.017 216.356 104.418C216.356 98.8193 211.817 94.2807 206.219 94.2807H174.359C179.957 94.2807 184.496 89.7421 184.496 84.1434C184.496 78.5448 179.957 74.0062 174.359 74.0062H232.286C237.884 74.0062 242.423 69.4676 242.423 63.8689C242.423 58.2703 237.884 53.7317 232.286 53.7317H90.3642C84.7656 53.7317 80.227 58.2703 80.227 63.8689C80.227 69.4676 84.7656 74.0062 90.3642 74.0062H32.4371C26.8384 74.0062 22.2998 78.5448 22.2998 84.1434C22.2998 89.7421 26.8384 94.2807 32.4371 94.2807H68.6416C74.2402 94.2807 78.7788 98.8193 78.7788 104.418C78.7788 110.017 74.2402 114.555 68.6416 114.555H10.7144C5.11575 114.555 0.577148 119.094 0.577148 124.692C0.577148 130.291 5.11575 134.83 10.7144 134.83H67.1934C61.5947 134.83 57.0561 139.368 57.0561 144.967C57.0561 150.566 61.5947 155.104 67.1934 155.104ZM222.148 104.418C222.148 110.017 226.687 114.555 232.286 114.555C237.884 114.555 242.423 110.017 242.423 104.418C242.423 98.8193 237.884 94.2807 232.286 94.2807C226.687 94.2807 222.148 98.8193 222.148 104.418Z" fill="#1D7DEA"/>
<mask id="path-2-inside-1" fill="white">
<path fill-rule="evenodd" clip-rule="evenodd" d="M118.522 0C119.213 0 119.772 0.559644 119.772 1.25V26.2003C119.772 26.8907 119.213 27.4503 118.522 27.4503C117.832 27.4503 117.272 26.8907 117.272 26.2003V1.25C117.272 0.559644 117.832 0 118.522 0ZM64.4183 6.72389C64.9337 6.26454 65.7238 6.30995 66.1832 6.82531L82.711 25.3686C83.1704 25.884 83.125 26.6742 82.6096 27.1335C82.0943 27.5928 81.3041 27.5474 80.8448 27.0321L64.3169 8.48874C63.8575 7.97338 63.9029 7.18323 64.4183 6.72389ZM170.862 6.82527C171.321 6.30991 172.111 6.2645 172.627 6.72384C173.142 7.18319 173.187 7.97334 172.728 8.4887L156.2 27.032C155.741 27.5474 154.951 27.5928 154.435 27.1335C153.92 26.6741 153.875 25.884 154.334 25.3686L170.862 6.82527Z"/>
</mask>
<path d="M66.1832 6.82531L65.0634 7.82337H65.0634L66.1832 6.82531ZM64.4183 6.72389L65.4164 7.84365H65.4164L64.4183 6.72389ZM82.711 25.3686L81.5913 26.3667L82.711 25.3686ZM80.8448 27.0321L79.725 28.0301H79.725L80.8448 27.0321ZM64.3169 8.48874L63.1971 9.4868L63.1971 9.4868L64.3169 8.48874ZM170.862 6.82527L171.982 7.82333V7.82332L170.862 6.82527ZM172.728 8.4887L171.608 7.49063L171.608 7.49064L172.728 8.4887ZM156.2 27.032L155.08 26.034V26.034L156.2 27.032ZM154.334 25.3686L153.214 24.3705V24.3705L154.334 25.3686ZM121.272 1.25C121.272 -0.268782 120.041 -1.5 118.522 -1.5V1.5C118.384 1.5 118.272 1.38807 118.272 1.25H121.272ZM121.272 26.2003V1.25H118.272V26.2003H121.272ZM118.522 28.9503C120.041 28.9503 121.272 27.7191 121.272 26.2003H118.272C118.272 26.0623 118.384 25.9503 118.522 25.9503V28.9503ZM115.772 26.2003C115.772 27.7191 117.004 28.9503 118.522 28.9503V25.9503C118.66 25.9503 118.772 26.0623 118.772 26.2003H115.772ZM115.772 1.25V26.2003H118.772V1.25H115.772ZM118.522 -1.5C117.004 -1.5 115.772 -0.268782 115.772 1.25H118.772C118.772 1.38807 118.66 1.5 118.522 1.5V-1.5ZM67.3029 5.82725C66.2924 4.69346 64.554 4.59356 63.4202 5.60412L65.4164 7.84365C65.3133 7.93552 65.1553 7.92644 65.0634 7.82337L67.3029 5.82725ZM83.8308 24.3706L67.3029 5.82725L65.0634 7.82337L81.5913 26.3667L83.8308 24.3706ZM83.6077 28.2533C84.7415 27.2427 84.8414 25.5044 83.8308 24.3706L81.5913 26.3667C81.4994 26.2636 81.5085 26.1056 81.6116 26.0137L83.6077 28.2533ZM79.725 28.0301C80.7355 29.1639 82.4739 29.2638 83.6077 28.2533L81.6116 26.0137C81.7146 25.9219 81.8727 25.9309 81.9645 26.034L79.725 28.0301ZM63.1971 9.4868L79.725 28.0301L81.9645 26.034L65.4366 7.49068L63.1971 9.4868ZM63.4202 5.60412C62.2864 6.61468 62.1866 8.35301 63.1971 9.4868L65.4366 7.49068C65.5285 7.59375 65.5194 7.75178 65.4164 7.84365L63.4202 5.60412ZM173.625 5.60408C172.491 4.59352 170.753 4.69342 169.742 5.82721L171.982 7.82332C171.89 7.9264 171.732 7.93548 171.629 7.84361L173.625 5.60408ZM173.848 9.48677C174.858 8.35297 174.758 6.61463 173.625 5.60408L171.629 7.84361C171.526 7.75174 171.516 7.59371 171.608 7.49063L173.848 9.48677ZM157.32 28.0301L173.848 9.48676L171.608 7.49064L155.08 26.034L157.32 28.0301ZM153.437 28.2532C154.571 29.2638 156.309 29.1639 157.32 28.0301L155.08 26.034C155.172 25.9309 155.33 25.9218 155.433 26.0137L153.437 28.2532ZM153.214 24.3705C152.204 25.5043 152.303 27.2427 153.437 28.2532L155.433 26.0137C155.536 26.1056 155.546 26.2636 155.454 26.3667L153.214 24.3705ZM169.742 5.82721L153.214 24.3705L155.454 26.3667L171.982 7.82333L169.742 5.82721Z" fill="#1D7DEA" mask="url(#path-2-inside-1)"/>
<rect x="73.082" y="43.2432" width="89.3352" height="113.64" fill="white"/>
<path d="M134.808 121.431L134 134L140.72 123.437C140.802 123.311 140.895 123.203 141 123.113L134.773 121C134.804 121.142 134.817 121.285 134.808 121.431Z" fill="#1D7DEA"/>
<path d="M143.327 120L156.776 80.6056C157.538 78.3725 156.291 75.9527 153.997 75.2116C151.684 74.472 149.192 75.742 148.449 77.9199L135 117.309L143.327 120Z" fill="#1D7DEA"/>
<path d="M163.625 42H73.4392C72.6838 42 72.0679 42.5583 72.0679 43.2429V156.883C72.0679 157.567 72.6838 158.125 73.4392 158.125H163.629C164.384 158.125 165 157.567 165 156.883V43.2401C164.995 42.5554 164.378 42 163.625 42ZM162.256 155.64H74.8106V44.4859H162.257V155.64H162.256Z" fill="#1D7DEA"/>
<path d="M93.5628 67.407H138.798C139.553 67.407 140.169 66.8488 140.169 66.1641C140.169 65.4794 139.553 64.9211 138.798 64.9211H93.5628C92.8073 64.9211 92.1914 65.4794 92.1914 66.1641C92.1914 66.8488 92.8073 67.407 93.5628 67.407Z" fill="#1D7DEA"/>
<path d="M93.5628 90.9756H133.616C134.372 90.9756 134.988 90.4174 134.988 89.7327C134.988 89.048 134.372 88.4897 133.616 88.4897H93.5628C92.8073 88.4897 92.1914 89.048 92.1914 89.7327C92.1914 90.4174 92.8073 90.9756 93.5628 90.9756Z" fill="#1D7DEA"/>
<path d="M93.5628 114.542H129.36C130.115 114.542 130.731 113.984 130.731 113.299C130.731 112.614 130.115 112.056 129.36 112.056H93.5628C92.8073 112.056 92.1914 112.614 92.1914 113.299C92.1914 113.984 92.8073 114.542 93.5628 114.542Z" fill="#1D7DEA"/>
<path d="M93.5628 138.11H127.935C128.69 138.11 129.306 137.552 129.306 136.867C129.306 136.183 128.69 135.625 127.935 135.625H93.5628C92.8073 135.625 92.1914 136.183 92.1914 136.867C92.1914 137.552 92.8073 138.11 93.5628 138.11Z" fill="#1D7DEA"/>
</svg>
