<svg width="88" height="79" viewBox="0 0 88 79" fill="none" xmlns="http://www.w3.org/2000/svg">
<mask id="mask0" mask-type="alpha" maskUnits="userSpaceOnUse" x="0" y="5" width="87" height="74">
<rect y="5" width="87" height="74" fill="#C4C4C4"/>
</mask>
<g mask="url(#mask0)">
<path d="M84.7065 9.56452L78.5365 5.48721C76.9506 4.43845 74.6396 5.13877 73.376 7.05106L46.7533 47.3331C46.1122 48.3041 45.8678 49.3997 45.9869 50.3817L45.102 56.7762L44.0533 64.3723L50.6296 60.4286L56.1647 57.1088C57.115 56.834 58.0274 56.1791 58.6692 55.2075L85.2918 14.9247C86.5548 13.0131 86.2931 10.6126 84.7065 9.56452ZM53.7779 47.9488C52.6892 49.596 51.4421 50.6881 50.9911 50.3892L49.2379 49.231C48.7868 48.9321 49.3026 47.3573 50.3906 45.7094L73.3078 11.0327C74.3965 9.38548 75.6443 8.29333 76.0953 8.5915L77.8493 9.75113C78.3003 10.0493 77.7838 11.6249 76.6958 13.2713L53.7779 47.9488ZM58.8303 51.2886C57.7416 52.9351 56.4938 54.0279 56.0442 53.729L54.2896 52.5694C53.8378 52.2719 54.3543 50.6957 55.443 49.0485L78.3609 14.3718C79.4489 12.7253 80.6967 11.6324 81.1477 11.9306L82.901 13.0902C83.352 13.3877 82.8355 14.964 81.7482 16.6105L58.8303 51.2886Z" fill="#1D7DEA"/>
<path d="M74.8707 38.79V81.7743C74.8707 83.3395 73.6029 84.6072 72.0377 84.6072H10.1089C8.54506 84.6072 7.27594 83.3395 7.27594 81.7743V19.8455C7.27594 18.2816 8.54506 17.0125 10.1089 17.0125H62.1023L66.911 9.73654H3.44309C1.54182 9.73654 0 11.2784 0 13.1796V88.4408C0 90.3427 1.54182 91.8839 3.44309 91.8839H78.7035C80.6055 91.8839 82.1466 90.3427 82.1466 88.4408V27.7818L74.8707 38.79Z" fill="#1D7DEA"/>
<path d="M55.0228 27.7398C55.0228 29.6411 53.4817 31.1829 51.5797 31.1829H15.3998C13.4985 31.1829 11.9567 29.6411 11.9567 27.7398V25.769C11.9567 23.8677 13.4985 22.3259 15.3998 22.3259H51.5797C53.4817 22.3259 55.0228 23.8677 55.0228 25.769V27.7398Z" fill="#C9E0FA"/>
<path d="M46.055 41.5361C46.055 43.4374 44.8347 44.9792 43.3287 44.9792H14.6829C13.1769 44.9792 11.9567 43.4374 11.9567 41.5361V39.5653C11.9567 37.664 13.1769 36.1222 14.6829 36.1222H43.3287C44.8347 36.1222 46.055 37.664 46.055 39.5653V41.5361Z" fill="#C9E0FA"/>
<path d="M41.0733 55.0182C41.0733 56.9202 40.0314 58.4613 38.7458 58.4613H14.2847C12.999 58.4613 11.9571 56.9202 11.9571 55.0182V53.0481C11.9571 51.1468 12.9997 49.605 14.2847 49.605H38.7451C40.0307 49.605 41.0726 51.1468 41.0726 53.0481V55.0182H41.0733Z" fill="#C9E0FA"/>
<path d="M41.0733 68.8136C41.0733 70.7155 40.0307 72.2566 38.7451 72.2566H14.2847C12.999 72.2566 11.9571 70.7155 11.9571 68.8136V66.8434C11.9571 64.9421 12.9997 63.4003 14.2847 63.4003H38.7451C40.0307 63.4003 41.0733 64.9421 41.0733 66.8434V68.8136Z" fill="#C9E0FA"/>
</g>
</svg>
