<svg width="60" height="60" viewBox="0 0 60 60" fill="none" xmlns="http://www.w3.org/2000/svg">
<path d="M19.1136 21.5173C18.7366 21.2114 18.1831 21.2692 17.8774 21.6462C17.5035 22.1072 17.0073 22.3611 16.4799 22.3611C15.9526 22.3611 15.4563 22.1072 15.0825 21.6462C14.7768 21.2692 14.2232 21.2116 13.8462 21.5173C13.4692 21.8231 13.4116 22.3765 13.7173 22.7535C14.4209 23.6211 15.4278 24.1188 16.4798 24.1188C17.5318 24.1188 18.5387 23.6211 19.2425 22.7535C19.5482 22.3765 19.4906 21.8231 19.1136 21.5173Z" fill="#6574FB"/>
<path d="M12.3193 16.1207C11.8339 16.1207 11.4404 16.5142 11.4404 16.9996V18.0397C11.4404 18.5251 11.8339 18.9186 12.3193 18.9186C12.8047 18.9186 13.1982 18.5251 13.1982 18.0397V16.9996C13.1982 16.5142 12.8047 16.1207 12.3193 16.1207Z" fill="#6574FB"/>
<path d="M20.6396 16.1207C20.1543 16.1207 19.7607 16.5142 19.7607 16.9996V18.0397C19.7607 18.5251 20.1543 18.9186 20.6396 18.9186C21.125 18.9186 21.5186 18.5251 21.5186 18.0397V16.9996C21.5186 16.5142 21.125 16.1207 20.6396 16.1207Z" fill="#6574FB"/>
<path d="M7.90545 40.5273L5.82537 36.3672C5.60833 35.933 5.0804 35.757 4.64622 35.9741C4.21204 36.1912 4.03602 36.7191 4.25317 37.1533L6.24044 41.1279V57.561C6.24044 58.0464 6.63396 58.4399 7.11935 58.4399C7.60475 58.4399 7.99826 58.0464 7.99826 57.561V40.9204C7.99826 40.7839 7.9665 40.6493 7.90545 40.5273Z" fill="#6574FB"/>
<path d="M28.313 35.9741C27.8788 35.757 27.3509 35.933 27.1338 36.3672L25.0538 40.5273C24.9927 40.6494 24.9609 40.7839 24.9609 40.9204V57.561C24.9609 58.0464 25.3545 58.4399 25.8398 58.4399C26.3252 58.4399 26.7188 58.0464 26.7188 57.561V41.1279L28.706 37.1533C28.9232 36.7192 28.7472 36.1913 28.313 35.9741Z" fill="#6574FB"/>
<path d="M47.1946 26.7174C46.8177 26.4115 46.2642 26.4693 45.9584 26.8463C45.5846 27.3073 45.0883 27.5611 44.561 27.5611C44.0336 27.5611 43.5373 27.3073 43.1635 26.8463C42.8579 26.4693 42.3043 26.4116 41.9273 26.7174C41.5503 27.0231 41.4926 27.5766 41.7984 27.9536C42.5021 28.8212 43.5091 29.3188 44.5611 29.3188C45.6131 29.3188 46.6197 28.8212 47.3236 27.9536C47.6293 27.5766 47.5716 27.0231 47.1946 26.7174Z" fill="#6574FB"/>
<path d="M40.4004 21.3209C39.915 21.3209 39.5215 21.7144 39.5215 22.1998V23.2399C39.5215 23.7253 39.915 24.1188 40.4004 24.1188C40.8858 24.1188 41.2793 23.7253 41.2793 23.2399V22.1998C41.2793 21.7143 40.8858 21.3209 40.4004 21.3209Z" fill="#6574FB"/>
<path d="M48.7207 21.3209C48.2353 21.3209 47.8418 21.7144 47.8418 22.1998V23.2399C47.8418 23.7253 48.2353 24.1188 48.7207 24.1188C49.2061 24.1188 49.5996 23.7253 49.5996 23.2399V22.1998C49.5996 21.7144 49.2061 21.3209 48.7207 21.3209Z" fill="#6574FB"/>
<path d="M57.4863 39.3198L50.3547 36.4671C49.896 36.2837 49.5996 35.8459 49.5996 35.3518V33.1917C50.0876 32.9163 50.5544 32.6012 50.993 32.2466C52.7788 30.8032 54.0406 28.7816 54.546 26.5544C54.7144 25.8123 54.7999 25.0469 54.7999 24.2796C54.7999 19.1602 51.0917 18.4241 47.5057 17.7122C45.2124 17.2569 42.841 16.786 40.9494 15.2729C40.7425 15.1073 40.4715 15.0445 40.2128 15.1011C39.9539 15.1576 39.7341 15.3283 39.6148 15.565C39.6099 15.5748 39.1174 16.5441 38.2846 17.4881C37.5792 18.2875 36.4715 19.2405 35.2001 19.2405C34.7726 19.2405 34.3663 19.3324 33.9989 19.4963V18.0393C33.9989 12.2157 38.7368 7.47779 44.5605 7.47779C50.3841 7.47779 55.122 12.2157 55.122 18.0393V20.1194C55.122 20.6048 55.5155 20.9983 56.0009 20.9983C56.4863 20.9983 56.8798 20.6048 56.8798 20.1194V18.0393C56.8798 13.4318 54.3368 9.40764 50.581 7.29475C50.6191 7.06483 50.6396 6.83232 50.6396 6.59889C50.6396 3.82037 47.9125 1.55981 44.5605 1.55981C41.2084 1.55981 38.4813 3.82037 38.4813 6.59889C38.4813 6.83244 38.5016 7.06494 38.5398 7.29486C34.7841 9.40776 32.2411 13.4319 32.2411 18.0393V22.1995C32.2411 23.5352 33.1308 24.6671 34.3487 25.0337C34.3862 25.5467 34.4618 26.0558 34.575 26.5544C35.0804 28.7816 36.3423 30.8032 38.128 32.2466C38.5667 32.6012 39.0334 32.9163 39.5214 33.1917V35.3518C39.5214 35.8459 39.225 36.2836 38.7663 36.4671L31.6349 39.3197C30.1078 39.9305 29.1211 41.3879 29.1211 43.0327V48.2011C29.1211 48.4343 29.2138 48.6579 29.3787 48.8228C29.5434 48.9876 29.7669 49.08 30 49.08C30.0001 49.08 30.0002 49.08 30.0005 49.08H30.1611V57.561C30.1611 58.0464 30.5547 58.4399 31.04 58.4399C31.5254 58.4399 31.919 58.0464 31.919 57.561V49.0796H34.3213V57.561C34.3213 58.0464 34.7148 58.4399 35.2002 58.4399C35.6856 58.4399 36.0791 58.0464 36.0791 57.561V46.1206C36.0791 45.6352 35.6856 45.2417 35.2002 45.2417C34.7148 45.2417 34.3213 45.6352 34.3213 46.1206V47.3217H31.04C31.0399 47.3217 31.0398 47.3217 31.0396 47.3217H30.8789V43.0327C30.8789 42.1109 31.4319 41.2941 32.2877 40.9518L37.8338 38.7334C38.5699 39.981 40.6595 43.0726 44.1674 44.8266C44.2912 44.8885 44.4258 44.9194 44.5605 44.9194C44.6951 44.9194 44.8298 44.8885 44.9535 44.8266C48.4614 43.0726 50.5511 39.981 51.2872 38.7334L56.8333 40.9519C57.6891 41.2942 58.2421 42.1111 58.2421 43.0328V47.3219H58.081H54.7997V46.1207C54.7997 45.6353 54.4062 45.2418 53.9208 45.2418C53.4354 45.2418 53.0419 45.6353 53.0419 46.1207V57.5611C53.0419 58.0465 53.4354 58.44 53.9208 58.44C54.4062 58.44 54.7997 58.0465 54.7997 57.5611V49.0797H57.2021V57.5611C57.2021 58.0465 57.5956 58.44 58.081 58.44C58.5664 58.44 58.9599 58.0465 58.9599 57.5611V49.0797H59.121C59.6064 49.0797 59.9999 48.6862 59.9999 48.2008V43.0328C60.0001 41.3882 59.0133 39.9307 57.4863 39.3198ZM44.5606 3.31786C46.9005 3.31786 48.8105 4.73748 48.8786 6.50197C47.5341 5.99713 46.0792 5.72021 44.5606 5.72021C43.0419 5.72021 41.5869 5.99713 40.2426 6.50197C40.3106 4.73748 42.2207 3.31786 44.5606 3.31786ZM39.2331 30.8798C37.7531 29.6835 36.7077 28.0093 36.2892 26.1656C36.1498 25.551 36.0791 24.9164 36.0791 24.2798C36.0791 23.7944 35.6856 23.4009 35.2002 23.4009C34.5379 23.4009 33.999 22.8621 33.999 22.1997C33.999 21.5374 34.5379 20.9986 35.2002 20.9986C37.8654 20.9986 39.7985 18.5852 40.6715 17.235C42.7212 18.5546 45.0655 19.0201 47.1634 19.4367C51.0263 20.2036 53.042 20.7672 53.042 24.2799C53.042 24.9166 52.9713 25.5511 52.8319 26.1657C52.4136 28.0094 51.368 29.6836 49.888 30.8798C48.3652 32.1108 46.523 32.7614 44.5606 32.7614C42.5982 32.7614 40.756 32.1108 39.2331 30.8798ZM44.5606 43.0477C41.9089 41.5829 40.2032 39.2128 39.4896 38.0681C40.5788 37.6 41.2793 36.5432 41.2793 35.352V33.9756C42.3305 34.3311 43.4393 34.5191 44.5606 34.5191C45.6818 34.5191 46.7907 34.3311 47.8418 33.9756V35.352C47.8418 36.5432 48.5424 37.5998 49.6315 38.068C48.9176 39.2133 47.212 41.5832 44.5606 43.0477Z" fill="#6574FB"/>
<path d="M30.1092 32.1314L24.4022 30.4194L23.451 28.9927C23.3127 28.7851 23.0927 28.6461 22.8459 28.6104C22.7493 28.5963 22.6524 28.5991 22.5585 28.6166V27.311C24.89 25.5846 26.4673 22.8949 26.6913 19.8338C27.9091 19.4673 28.7988 18.3354 28.7988 16.9997C28.7988 16.1351 28.4102 15.3156 27.7587 14.7584V8.67934C27.7587 7.01269 26.9146 5.45374 25.5312 4.51952C25.0689 2.78186 23.5103 1.56018 21.6797 1.56018H13.3594C8.86033 1.56018 5.20021 5.22031 5.20021 9.71938V14.7584C4.54876 15.3156 4.16016 16.1349 4.16016 16.9997C4.16016 18.3354 5.04985 19.4673 6.26767 19.8338C6.49161 22.8949 8.06884 25.5846 10.4004 27.311V28.6165C10.3065 28.5989 10.2096 28.5961 10.1131 28.6103C9.86627 28.6461 9.64631 28.785 9.50791 28.9925L8.5567 30.4193L2.84977 32.1313C1.14528 32.6428 0 34.1821 0 35.9618V57.5613C0 58.0467 0.393516 58.4402 0.878908 58.4402C1.3643 58.4402 1.75782 58.0467 1.75782 57.5613V35.9618C1.75782 34.9644 2.39977 34.1017 3.35508 33.815L7.28111 32.6372C7.28873 32.8195 7.35306 32.9995 7.47283 33.1492L11.0032 37.5622C11.3835 38.0376 11.938 38.2856 12.4998 38.2856C12.9007 38.2856 13.3055 38.1592 13.653 37.8986L15.6005 36.4379V57.561C15.6005 58.0464 15.994 58.4399 16.4794 58.4399C16.9648 58.4399 17.3583 58.0464 17.3583 57.561V36.4379L19.3059 37.8986C19.6533 38.1592 20.058 38.2856 20.459 38.2856C21.0208 38.2856 21.5754 38.0374 21.9556 37.5622L25.486 33.1492C25.606 32.9995 25.6702 32.8195 25.6779 32.6372L29.604 33.815C30.5593 34.1017 31.2012 34.9644 31.2012 35.9618C31.2012 36.4472 31.5947 36.8407 32.0801 36.8407C32.5655 36.8407 32.959 36.4472 32.959 35.9618C32.959 34.1821 31.8138 32.6428 30.1092 32.1314ZM7.99806 19.0797C7.99806 18.5944 7.60455 18.2008 7.11915 18.2008C6.45681 18.2008 5.91798 17.662 5.91798 16.9997C5.91798 16.5733 6.14345 16.1876 6.52115 15.9677C6.5406 15.9563 6.55829 15.943 6.57669 15.9303C6.74392 15.8454 6.92943 15.7985 7.11915 15.7985H8.34658C9.25818 15.7985 10.0496 15.1497 10.2283 14.2559L10.8678 11.0588C10.8767 11.0142 10.9 10.9802 10.9369 10.9578C10.966 10.9402 11.0141 10.9235 11.0786 10.9423C12.6398 11.3977 14.5074 11.6383 16.4795 11.6383C19.0103 11.6383 21.3467 11.2449 23.0583 10.5304C23.5062 10.3434 23.7177 9.82871 23.5308 9.3807C23.3438 8.93281 22.8292 8.72141 22.3811 8.9082C20.9009 9.52602 18.7498 9.88039 16.4794 9.88039C14.6973 9.88039 12.954 9.65821 11.5708 9.25473C11.0494 9.10274 10.4863 9.17539 10.0259 9.45441C9.57025 9.73051 9.24881 10.1897 9.14392 10.7142L8.50443 13.9112C8.48943 13.9862 8.42299 14.0407 8.34646 14.0407H7.11915C7.06537 14.0407 7.01169 14.043 6.95802 14.0459V9.71938C6.95802 6.18968 9.82971 3.318 13.3594 3.318H21.6797C22.7822 3.318 23.7086 4.11253 23.8824 5.20718C23.9245 5.47202 24.0851 5.70324 24.3187 5.83495C25.3564 6.42019 26.0009 7.51004 26.0009 8.67934V15.2081C26.0009 15.521 26.1673 15.8103 26.4378 15.9677C26.8155 16.1876 27.041 16.5733 27.041 16.9997C27.041 17.662 26.5021 18.2008 25.8398 18.2008C25.3544 18.2008 24.9609 18.5944 24.9609 19.0797C24.9609 23.7565 21.1561 27.5612 16.4794 27.5612C11.8027 27.5612 7.99806 23.7564 7.99806 19.0797ZM12.5984 36.4924C12.5283 36.5451 12.4307 36.5325 12.376 36.4642L9.24693 32.5529L10.4279 30.7814L15.0631 34.6439L12.5984 36.4924ZM16.4795 33.5363L12.1582 29.9352V28.3602C13.472 28.9744 14.936 29.319 16.4795 29.319C18.023 29.319 19.487 28.9745 20.8008 28.3602V29.9352L16.4795 33.5363ZM20.5831 36.4642C20.5284 36.5326 20.4307 36.5449 20.3607 36.4924L17.896 34.644L22.5311 30.7815L23.7121 32.5531L20.5831 36.4642Z" fill="#6574FB"/>
<path d="M13.37 43.1617H13.3596C12.8742 43.1617 12.4858 43.5553 12.4858 44.0406C12.4858 44.526 12.8845 44.9196 13.3699 44.9196C13.8553 44.9196 14.2488 44.526 14.2488 44.0406C14.2488 43.5553 13.8554 43.1617 13.37 43.1617Z" fill="#6574FB"/>
<path d="M13.37 51.4821H13.3596C12.8742 51.4821 12.4858 51.8756 12.4858 52.361C12.4858 52.8464 12.8845 53.2399 13.3699 53.2399C13.8553 53.2399 14.2488 52.8464 14.2488 52.361C14.2488 51.8756 13.8554 51.4821 13.37 51.4821Z" fill="#6574FB"/>
<path d="M13.37 47.3219H13.3596C12.8742 47.3219 12.4858 47.7154 12.4858 48.2008C12.4858 48.6862 12.8845 49.0797 13.3699 49.0797C13.8553 49.0797 14.2488 48.6862 14.2488 48.2008C14.2488 47.7154 13.8554 47.3219 13.37 47.3219Z" fill="#6574FB"/>
</svg>
