<svg width="158" height="438" viewBox="0 0 158 438" fill="none" xmlns="http://www.w3.org/2000/svg">
<path opacity="0.4" d="M233.263 404.978C233.263 404.978 83.2803 378.516 50.0438 328.046C16.8073 277.575 86.6642 266.073 100.316 203.097C113.709 141.318 92.8978 119.439 103.801 78.1847C114.704 36.9299 169.863 11.4785 224.152 37.7744C278.441 64.0704 349.632 127.839 349.632 127.839C355.344 130.237 360.528 133.737 364.887 138.139C369.246 142.541 372.696 147.758 375.039 153.493C379.771 165.075 379.708 178.062 374.864 189.598L295.022 379.746C290.179 391.282 280.951 400.421 269.369 405.153C257.787 409.885 244.799 409.822 233.263 404.978Z" fill="#ECF0FC"/>
</svg>
