<svg width="111" height="100" viewBox="0 0 111 100" fill="none" xmlns="http://www.w3.org/2000/svg">
<g opacity="0.73" filter="url(#filter0_d)">
<rect x="21" y="21.3518" width="68.0441" height="57.6482" rx="5" fill="#173353" stroke="white" stroke-width="2"/>
<rect x="24.4458" y="25.4094" width="61.1519" height="29.9644" rx="2" fill="white"/>
<path d="M32.2907 74.5289C31.2634 74.5289 29.9205 74.4042 28.262 74.1547L27.4695 74.0446L27.6456 72.6357C29.6563 72.8999 31.1753 73.032 32.2026 73.032C34.3748 73.032 35.4608 72.0119 35.4608 69.9719C35.4608 69.4142 35.3581 68.9739 35.1526 68.651C34.9618 68.3281 34.6243 68.064 34.1399 67.8585C33.6703 67.653 32.9805 67.4622 32.0706 67.2861C30.8671 67.0366 29.9278 66.7504 29.2527 66.4275C28.5922 66.1047 28.1079 65.6717 27.7997 65.1287C27.4915 64.5856 27.3374 63.8592 27.3374 62.9492C27.3374 60.2194 28.9738 58.8545 32.2467 58.8545C33.3768 58.8545 34.9105 59.0013 36.8477 59.2948L36.6936 60.7257C34.5802 60.4762 33.1346 60.3515 32.3568 60.3515C30.1553 60.3515 29.0545 61.1807 29.0545 62.8392C29.0545 63.4702 29.1573 63.9546 29.3628 64.2921C29.5829 64.615 29.9498 64.8792 30.4635 65.0846C30.9772 65.2901 31.7917 65.5176 32.9071 65.7671C33.9932 66.0166 34.8297 66.2955 35.4168 66.6037C36.0185 66.9119 36.4588 67.3228 36.7377 67.8365C37.0165 68.3355 37.156 69.0033 37.156 69.8398C37.156 72.9659 35.5342 74.5289 32.2907 74.5289Z" fill="white"/>
<path d="M43.9143 74.551C42.2412 74.551 41.0524 74.118 40.3479 73.2521C39.6581 72.3715 39.3132 70.9919 39.3132 69.1133C39.3132 67.0733 39.6875 65.5616 40.436 64.5783C41.1845 63.595 42.3586 63.1033 43.9583 63.1033C45.426 63.1033 46.5194 63.5289 47.2385 64.3802C47.9723 65.2167 48.3392 66.5083 48.3392 68.2548L48.2512 69.5096H40.9863C40.9863 70.4195 41.0817 71.1313 41.2725 71.645C41.478 72.1587 41.8156 72.533 42.2852 72.7678C42.7695 72.9879 43.4373 73.098 44.2885 73.098C44.7142 73.098 45.2058 73.0907 45.7635 73.076C46.3212 73.0466 46.8276 73.0099 47.2825 72.9659L47.921 72.8999L47.965 74.1987C46.3359 74.4336 44.9857 74.551 43.9143 74.551ZM46.6881 68.1887C46.6881 66.8532 46.4753 65.9065 46.0497 65.3488C45.6241 64.7764 44.927 64.4903 43.9583 64.4903C42.9456 64.4903 42.1971 64.7911 41.7128 65.3929C41.2285 65.9799 40.979 66.9119 40.9643 68.1887H46.6881Z" fill="white"/>
<path d="M50.9124 63.3235H52.5415V64.8205C53.8036 63.9546 55.1465 63.3748 56.5702 63.0813V64.7544C55.9978 64.8718 55.374 65.0553 54.6989 65.3048C54.0385 65.5396 53.5101 65.7598 53.1139 65.9652L52.5635 66.2514V74.3308H50.9124V63.3235Z" fill="white"/>
<path d="M58.5229 63.3235H60.152V74.3308H58.5229V63.3235ZM58.5229 58.9205H60.152V60.8358H58.5229V58.9205Z" fill="white"/>
<path d="M67.3049 74.551C65.6318 74.551 64.443 74.118 63.7385 73.2521C63.0487 72.3715 62.7038 70.9919 62.7038 69.1133C62.7038 67.0733 63.0781 65.5616 63.8266 64.5783C64.5751 63.595 65.7492 63.1033 67.3489 63.1033C68.8166 63.1033 69.91 63.5289 70.6291 64.3802C71.3629 65.2167 71.7299 66.5083 71.7299 68.2548L71.6418 69.5096H64.3769C64.3769 70.4195 64.4723 71.1313 64.6631 71.645C64.8686 72.1587 65.2062 72.533 65.6758 72.7678C66.1601 72.9879 66.8279 73.098 67.6791 73.098C68.1048 73.098 68.5964 73.0907 69.1541 73.076C69.7118 73.0466 70.2182 73.0099 70.6731 72.9659L71.3116 72.8999L71.3556 74.1987C69.7265 74.4336 68.3763 74.551 67.3049 74.551ZM70.0788 68.1887C70.0788 66.8532 69.8659 65.9065 69.4403 65.3488C69.0147 64.7764 68.3176 64.4903 67.3489 64.4903C66.3363 64.4903 65.5878 64.7911 65.1034 65.3929C64.6191 65.9799 64.3696 66.9119 64.3549 68.1887H70.0788Z" fill="white"/>
<path d="M77.7593 74.551C76.8787 74.551 75.8 74.4482 74.5231 74.2428L73.8627 74.1327L73.9508 72.7017C75.6679 72.9512 76.9301 73.076 77.7373 73.076C78.6179 73.076 79.271 72.9366 79.6966 72.6577C80.1369 72.3642 80.357 71.9019 80.357 71.2708C80.357 70.8158 80.247 70.4709 80.0268 70.2361C79.8213 70.0013 79.5498 69.8325 79.2123 69.7297C78.8894 69.627 78.4271 69.5316 77.8253 69.4436L77.275 69.3555C76.3944 69.2087 75.7046 69.0326 75.2056 68.8271C74.7066 68.6217 74.3323 68.3355 74.0828 67.9686C73.8333 67.587 73.7086 67.066 73.7086 66.4055C73.7086 65.2167 74.0682 64.3728 74.7873 63.8738C75.5065 63.3748 76.5265 63.1253 77.8474 63.1253C78.8894 63.1253 79.9534 63.2207 81.0395 63.4115L81.6559 63.5216L81.6119 64.9305C80.0268 64.6957 78.7867 64.5783 77.8914 64.5783C77.0402 64.5783 76.4017 64.7104 75.9761 64.9746C75.5652 65.2388 75.3597 65.6497 75.3597 66.2074C75.3597 66.6037 75.4624 66.9119 75.6679 67.132C75.8734 67.3375 76.1375 67.4916 76.4604 67.5943C76.798 67.6824 77.2676 67.7778 77.8694 67.8805L78.4197 67.9906C79.3297 68.152 80.0341 68.3428 80.5331 68.563C81.0322 68.7684 81.3991 69.0693 81.6339 69.4656C81.8834 69.8618 82.0081 70.4122 82.0081 71.1167C82.0081 72.3055 81.6559 73.1787 80.9514 73.7364C80.2616 74.2795 79.1976 74.551 77.7593 74.551Z" fill="white"/>
<path d="M28.6338 29.47H36.5835C41.7138 29.47 44.2789 31.9715 44.2789 36.9745C44.2789 39.5185 43.6217 41.4582 42.3074 42.7937C41.0142 44.1293 39.1063 44.7971 36.5835 44.7971H33.0221V51.0933H28.6338V29.47ZM36.5517 41.0448C38.7353 41.0448 39.827 39.688 39.827 36.9745C39.827 35.6602 39.562 34.7062 39.0321 34.1126C38.5233 33.519 37.6965 33.2223 36.5517 33.2223H33.0221V41.0448H36.5517Z" fill="#1D7DEA"/>
<path d="M47.3592 29.47H55.7541C60.8419 29.47 63.3859 31.8443 63.3859 36.5929C63.3859 39.4125 62.3259 41.49 60.206 42.8255L63.2905 51.0933H58.4888L55.9767 43.8431H51.7474V51.0933H47.3592V29.47ZM55.8177 40.0908C56.8141 40.0908 57.5772 39.7834 58.1072 39.1687C58.6372 38.5327 58.9022 37.6847 58.9022 36.6247C58.9022 35.5648 58.6266 34.738 58.0754 34.1444C57.5243 33.5296 56.7505 33.2223 55.7541 33.2223H51.7474V40.0908H55.8177Z" fill="#1D7DEA"/>
<path d="M71.4665 33.2859V38.3419H79.1619V42.0942H71.4665V47.2774H81.0698V51.0933H67.0783V29.47H81.0698V33.2859H71.4665Z" fill="#1D7DEA"/>
</g>
<defs>
<filter id="filter0_d" x="0" y="0.351807" width="110.044" height="99.6482" filterUnits="userSpaceOnUse" color-interpolation-filters="sRGB">
<feFlood flood-opacity="0" result="BackgroundImageFix"/>
<feColorMatrix in="SourceAlpha" type="matrix" values="0 0 0 0 0 0 0 0 0 0 0 0 0 0 0 0 0 0 127 0"/>
<feOffset/>
<feGaussianBlur stdDeviation="10"/>
<feColorMatrix type="matrix" values="0 0 0 0 0 0 0 0 0 0 0 0 0 0 0 0 0 0 0.16 0"/>
<feBlend mode="normal" in2="BackgroundImageFix" result="effect1_dropShadow"/>
<feBlend mode="normal" in="SourceGraphic" in2="effect1_dropShadow" result="shape"/>
</filter>
</defs>
</svg>
