<svg width="512" height="512" viewBox="0 0 512 512" fill="none" xmlns="http://www.w3.org/2000/svg">
<path d="M50.92 445.74C52.0912 445.74 53.2494 445.495 54.32 445.02C81.54 433.17 127.5 427 191 426.67L197.16 439.01C199.28 443.23 204.4 444.95 208.61 442.81C212.81 440.71 214.54 435.58 212.41 431.37L203.89 414.3C202.44 411.4 199.49 409.58 196.25 409.58C126.71 409.58 78.05 416.05 47.49 429.35C43.17 431.25 41.19 436.25 43.09 440.59C43.7514 442.117 44.8451 443.418 46.2364 444.331C47.6277 445.244 49.2557 445.731 50.92 445.73V445.74ZM494.92 460.8H477.85V418.13C477.85 415.87 476.95 413.69 475.35 412.1L424.08 360.84C425.68 357.5 426.65 353.81 426.65 349.87C426.65 335.77 415.15 324.27 401.05 324.27C386.95 324.27 375.45 335.77 375.45 349.87C375.45 363.97 386.95 375.47 401.05 375.47C404.99 375.47 408.68 374.51 412.01 372.91L460.78 421.67V460.8H17.07C7.65 460.8 0 468.45 0 477.87V503.47C0.00264656 505.731 0.90219 507.9 2.5013 509.499C4.10041 511.098 6.26852 511.997 8.53 512C13.23 512 17.06 508.18 17.06 503.47V477.87H494.93V503.47C494.93 508.17 498.73 512 503.46 512C504.581 512.001 505.69 511.782 506.726 511.353C507.761 510.925 508.702 510.297 509.495 509.505C510.287 508.712 510.915 507.771 511.343 506.736C511.772 505.7 511.991 504.591 511.99 503.47V477.87C512 468.45 504.34 460.8 494.93 460.8H494.92ZM401.06 358.4C398.799 358.397 396.63 357.498 395.031 355.899C393.432 354.3 392.533 352.131 392.53 349.87C392.533 347.609 393.432 345.44 395.031 343.841C396.63 342.242 398.799 341.343 401.06 341.34C403.321 341.343 405.49 342.242 407.089 343.841C408.688 345.44 409.587 347.609 409.59 349.87C409.587 352.131 408.688 354.3 407.089 355.899C405.49 357.498 403.321 358.397 401.06 358.4ZM121.83 255.25C128.05 271.45 148.63 323.67 163.57 346.07L164.92 348.11C175.88 364.71 194.22 392.53 256 392.53C317.78 392.53 336.13 364.73 347.08 348.11L348.43 346.07C363.36 323.67 383.93 271.45 390.17 255.25C401.31 252.48 409.6 242.39 409.6 230.4V196.27C409.6 185.14 402.47 175.65 392.53 172.13V128C392.53 94.3 374.79 32.08 309.17 26.07C309.04 22.04 307.71 18.8 306.23 16.4C297.84 2.84 274.3 0 256 0C104.16 0 102.4 143.62 102.4 145.07C102.4 149.77 106.2 153.59 110.92 153.59H110.94C113.201 153.59 115.369 152.693 116.968 151.095C118.567 149.498 119.467 147.331 119.47 145.07C119.49 139.85 121.41 17.07 256 17.07C280.13 17.07 289.8 22.29 291.7 25.37C291.97 25.8 292.7 26.97 291.02 30.31C289.7 32.95 289.84 36.11 291.4 38.61C292.96 41.11 295.7 42.65 298.66 42.65C374.32 42.65 375.46 124.51 375.46 127.98V179.18C375.46 183.88 379.26 187.71 383.99 187.71C386.251 187.713 388.42 188.612 390.019 190.211C391.618 191.81 392.517 193.979 392.52 196.24V230.37C392.517 232.631 391.618 234.8 390.019 236.399C388.42 237.998 386.251 238.897 383.99 238.9C380.43 238.9 377.25 241.1 375.99 244.44C375.74 245.11 350.54 312.08 334.22 336.57L332.82 338.69C322.6 354.19 308.59 375.44 255.99 375.44C203.39 375.44 189.39 354.2 179.16 338.69L177.76 336.57C161.44 312.09 136.24 245.12 135.98 244.44C135.369 242.812 134.276 241.409 132.846 240.419C131.417 239.429 129.719 238.899 127.98 238.9C123.28 238.9 119.45 235.07 119.45 230.37V196.24C119.447 194.016 120.316 191.88 121.87 190.29C124.97 197.25 131.29 203.49 141.91 204.56L171.11 226.46C173.39 243.08 187.53 255.98 204.78 255.98H221.85C240.67 255.98 255.98 240.68 255.98 221.85C255.98 240.67 271.28 255.98 290.11 255.98H307.18C324.42 255.98 338.58 243.08 340.84 226.46L372.04 203.08C373.851 201.721 375.048 199.7 375.368 197.459C375.689 195.218 375.107 192.942 373.75 191.13C370.92 187.36 365.58 186.58 361.8 189.43L340.05 205.75C336.8 195.35 327.19 187.73 315.72 187.73H281.6C267.5 187.73 256 199.23 256 213.33C256 199.23 244.5 187.73 230.4 187.73H196.27C184.81 187.73 175.2 195.35 171.94 205.75L155.66 193.55C162.38 177.32 168.46 153.31 170.18 136.45C197.08 135.97 274.88 132.69 309.51 111.08C317.36 141.38 342.56 166.9 343.83 168.16C347.17 171.5 352.56 171.5 355.9 168.16C359.24 164.82 359.24 159.43 355.9 156.09C355.58 155.77 324.27 124.11 324.27 93.86C324.27 90.03 321.71 86.66 318.01 85.63C314.33 84.61 310.38 86.18 308.41 89.46C295.99 110.16 215.39 119.46 162.11 119.46C159.849 119.463 157.68 120.362 156.081 121.961C154.482 123.56 153.583 125.729 153.58 127.99C153.58 141.84 147.04 169.51 140.08 186.53C137.36 184.89 136.58 181.83 136.52 179.19C136.517 176.929 135.618 174.76 134.019 173.161C132.42 171.562 130.251 170.663 127.99 170.66C113.89 170.66 102.39 182.16 102.39 196.26V230.39C102.39 242.39 110.69 252.49 121.82 255.26L121.83 255.25ZM273.07 213.33C273.073 211.069 273.972 208.9 275.571 207.301C277.17 205.702 279.339 204.803 281.6 204.8H315.73C317.991 204.803 320.16 205.702 321.759 207.301C323.358 208.9 324.257 211.069 324.26 213.33V221.86C324.255 226.386 322.455 230.724 319.254 233.924C316.054 237.125 311.716 238.925 307.19 238.93H290.12C285.594 238.925 281.256 237.125 278.056 233.924C274.855 230.724 273.055 226.386 273.05 221.86L273.07 213.33V213.33ZM187.73 213.33C187.73 208.63 191.56 204.8 196.26 204.8H230.39C235.09 204.8 238.92 208.63 238.92 213.33V221.86C238.915 226.386 237.115 230.724 233.914 233.924C230.714 237.125 226.376 238.925 221.85 238.93H204.8C200.274 238.925 195.936 237.125 192.736 233.924C189.535 230.724 187.735 226.386 187.73 221.86V213.33V213.33ZM298.66 307.23C298.66 304.97 297.766 302.802 296.174 301.198C294.582 299.595 292.42 298.686 290.16 298.67C290 298.67 274.74 298.5 259.81 291.03C257.41 289.83 254.58 289.83 252.18 291.03C237.25 298.5 221.98 298.67 221.86 298.67C219.599 298.673 217.43 299.572 215.831 301.171C214.232 302.77 213.333 304.939 213.33 307.2C213.33 311.9 217.15 315.73 221.86 315.73C222.59 315.73 238.71 315.63 255.99 308.08C273.27 315.64 289.39 315.73 290.12 315.73C294.82 315.73 298.64 311.93 298.66 307.23V307.23ZM315.7 409.95C314.131 409.96 312.595 410.399 311.259 411.221C309.922 412.042 308.837 413.214 308.12 414.61L299.59 431.31C297.45 435.51 299.12 440.65 303.31 442.81C304.55 443.44 305.88 443.74 307.18 443.74C310.28 443.74 313.28 442.04 314.78 439.09L320.93 427.02C367.57 427.15 405.13 430.64 432.66 437.4C437.26 438.54 441.86 435.73 442.98 431.15C443.249 430.061 443.3 428.93 443.132 427.822C442.963 426.713 442.578 425.648 441.997 424.689C441.417 423.73 440.652 422.894 439.749 422.23C438.845 421.566 437.819 421.087 436.73 420.82C406.86 413.47 366.33 409.65 315.69 409.95H315.7ZM247.47 418.13V435.2C247.473 437.461 248.372 439.63 249.971 441.229C251.57 442.828 253.739 443.727 256 443.73C260.7 443.73 264.53 439.91 264.53 435.2V418.13C264.527 415.869 263.628 413.7 262.029 412.101C260.43 410.502 258.261 409.603 256 409.6C251.3 409.6 247.47 413.42 247.47 418.13ZM247.47 324.27C245.209 324.273 243.04 325.172 241.441 326.771C239.842 328.37 238.943 330.539 238.94 332.8C238.94 337.5 242.76 341.33 247.47 341.33H264.54C269.26 341.33 273.07 337.51 273.07 332.8C273.071 331.679 272.852 330.57 272.423 329.534C271.995 328.499 271.367 327.558 270.575 326.765C269.782 325.973 268.841 325.345 267.806 324.917C266.77 324.488 265.661 324.269 264.54 324.27H247.47Z" fill="#6574FB"/>
</svg>
