<svg width="17" height="16" viewBox="0 0 17 16" fill="none" xmlns="http://www.w3.org/2000/svg">
<path d="M7.98371 0.0625C3.67775 0.0625 0.18457 3.63197 0.18457 8.00027C0.18457 12.3686 3.67775 15.938 7.98371 15.938C11.669 15.938 14.759 13.3185 15.5713 9.82421C15.5959 9.73324 15.6019 9.63824 15.589 9.54489C15.576 9.45154 15.5443 9.36177 15.4959 9.28095C15.4474 9.20012 15.3831 9.12991 15.3069 9.07452C15.2306 9.01912 15.144 8.97969 15.0521 8.95857C14.9603 8.93745 14.8651 8.93507 14.7723 8.9516C14.6795 8.96813 14.591 9.0032 14.5121 9.05474C14.4332 9.10627 14.3655 9.17321 14.3131 9.25152C14.2607 9.32984 14.2246 9.41792 14.207 9.51051C13.5365 12.3944 11.007 14.5373 7.98371 14.5373C4.44968 14.5373 1.58535 11.6261 1.58535 8.00027C1.58535 4.3744 4.4497 1.46328 7.98371 1.46328C10.5618 1.46328 12.7779 3.01418 13.7911 5.25707L13.0397 4.87769C12.9574 4.83148 12.8666 4.80239 12.7727 4.79215C12.6789 4.78192 12.5839 4.79076 12.4936 4.81815C12.4033 4.84553 12.3194 4.89089 12.247 4.95151C12.1747 5.01212 12.1153 5.08673 12.0725 5.17086C12.0297 5.255 12.0043 5.34692 11.9979 5.44111C11.9915 5.53529 12.0043 5.62978 12.0353 5.71893C12.0664 5.80807 12.1151 5.89002 12.1786 5.95984C12.2422 6.02967 12.3191 6.08594 12.405 6.12527L14.6885 7.2926C14.8506 7.37601 15.0388 7.39294 15.2132 7.33981C15.3876 7.28668 15.5343 7.16767 15.6224 7.00805L16.9064 4.71719C16.9681 4.61025 17.0005 4.4889 17.0002 4.36542C16.9999 4.24195 16.967 4.12074 16.9048 4.01409C16.8426 3.90743 16.7533 3.81912 16.646 3.7581C16.5386 3.69707 16.4171 3.66551 16.2936 3.6666C16.1681 3.66695 16.0451 3.70099 15.9373 3.76516C15.8295 3.82933 15.7409 3.92127 15.6807 4.03139L15.1773 4.92876C13.9964 2.07442 11.2179 0.0625 7.98371 0.0625Z" fill="#1D7DEA"/>
</svg>
