<svg width="26" height="24" viewBox="0 0 26 24" fill="none" xmlns="http://www.w3.org/2000/svg">
<path d="M16.659 9.57174V2.37986C16.659 1.07224 15.5868 0 14.2792 0H2.37986C1.07224 0 0 1.07224 0 2.37986V9.59789C0 10.7486 0.810721 11.7162 1.90912 11.9254V14.0438C1.90912 14.2792 2.01373 14.5407 2.19679 14.6976C2.35371 14.8545 2.58908 14.933 2.7983 14.933C3.03367 14.933 3.26904 14.8284 3.42595 14.6714L6.11964 11.9778H14.2792C15.5868 11.9778 16.659 10.9055 16.659 9.57174ZM8.99639 9.33637C8.99639 9.54559 8.83948 9.7025 8.63026 9.7025H7.66262C7.4534 9.7025 7.29649 9.54559 7.29649 9.33637V8.70872C7.29649 8.4995 7.4534 8.34258 7.66262 8.34258H8.63026C8.83948 8.34258 8.99639 8.4995 8.99639 8.70872V9.33637ZM10.4871 5.6489C10.2255 6.01503 9.91172 6.27655 9.51944 6.48577C9.31022 6.61653 9.1533 6.77345 9.07485 6.95651C9.02254 7.06112 8.99639 7.21803 8.97024 7.37495C8.97024 7.50571 8.83948 7.61032 8.70872 7.61032H7.53186C7.37495 7.61032 7.24419 7.47956 7.27034 7.32264C7.29649 6.98266 7.37495 6.74729 7.50571 6.53807C7.66262 6.3027 7.97645 6.04118 8.42104 5.72735C8.65641 5.59659 8.81332 5.41353 8.94409 5.20431C9.07485 4.99509 9.12715 4.75972 9.12715 4.47204C9.12715 4.18437 9.04869 3.97515 8.89178 3.79208C8.73487 3.63517 8.52565 3.53056 8.23797 3.53056C8.0026 3.53056 7.81954 3.60902 7.66262 3.73978C7.55801 3.81824 7.50571 3.949 7.4534 4.07976C7.4011 4.23667 7.24419 4.36743 7.06112 4.34128L5.96272 4.31513C5.83196 4.31513 5.72735 4.18437 5.72735 4.05361C5.77966 3.47826 5.98888 3.03367 6.38116 2.71984C6.82575 2.37986 7.45341 2.19679 8.18567 2.19679C8.99639 2.19679 9.62405 2.40601 10.0686 2.7983C10.5394 3.19058 10.7486 3.73978 10.7486 4.44589C10.8794 4.89048 10.7486 5.28276 10.4871 5.6489Z" fill="#1D7DEA"/>
<path d="M22.9354 8.1333H18.3849V9.57168C18.3849 11.8469 16.5542 13.6776 14.279 13.6776H8.65625V17.7312C8.65625 19.0388 9.72849 20.1111 11.0361 20.1111H19.1956L21.8893 22.8047C22.0462 22.9617 22.2816 23.0663 22.517 23.0663C22.7523 23.0663 22.9616 22.9878 23.1185 22.8309C23.3015 22.674 23.4061 22.4125 23.4061 22.1771V20.0587C24.4784 19.8234 25.3153 18.8819 25.3153 17.7312V10.5132C25.3153 9.20554 24.243 8.1333 22.9354 8.1333Z" fill="#FEA832"/>
</svg>
