<svg width="109" height="109" viewBox="0 0 109 109" fill="none" xmlns="http://www.w3.org/2000/svg">
<g clip-path="url(#clip0)">
<path d="M68.9392 68.634H48.1403C47.4517 68.634 46.8926 69.5455 46.8926 70.6686C46.8926 71.7917 47.4517 72.7032 48.1403 72.7032H68.9392C69.6278 72.7032 70.1869 71.7917 70.1869 70.6686C70.1869 69.5455 69.6278 68.634 68.9392 68.634Z" fill="white"/>
<path d="M71.0776 104.931H38.3568C37.2739 104.931 36.395 105.842 36.395 106.965C36.395 108.089 37.2739 109 38.3568 109H71.0776C72.1605 109 73.0394 108.089 73.0394 106.965C73.0394 105.842 72.1605 104.931 71.0776 104.931Z" fill="white"/>
<path d="M45.4019 106.988V90.754C45.4019 90.2169 46.2807 89.7815 47.3636 89.7815C48.4466 89.7815 49.3254 90.2169 49.3254 90.754V106.988C49.3254 107.525 48.4466 107.96 47.3636 107.96C46.2807 107.96 45.4019 107.525 45.4019 106.988Z" fill="white"/>
<path d="M60.1094 106.988V90.754C60.1094 90.2169 60.9883 89.7815 62.0712 89.7815C63.1541 89.7815 64.033 90.2169 64.033 90.754V106.988C64.033 107.525 63.1541 107.96 62.0712 107.96C60.9883 107.96 60.1094 107.525 60.1094 106.988Z" fill="white"/>
<path d="M0 19.9835C0 28.3599 6.57201 35.1757 14.6487 35.1757C22.7254 35.1757 29.2974 28.3599 29.2974 19.9835C29.2974 15.2328 27.1826 10.9846 23.8809 8.19728L25.5151 5.2614L21.5091 2.86264L19.8788 5.79242C18.949 5.42213 17.972 5.14746 16.9617 4.98062V0H12.3358V4.98062C11.3254 5.14746 10.3504 5.42213 9.41857 5.79242L7.78636 2.86264L3.78234 5.2614L5.41651 8.19728C2.11481 10.9867 0 15.2328 0 19.9835ZM14.6487 9.58892C20.1751 9.58892 24.6715 14.2522 24.6715 19.9835C24.6715 25.7149 20.1751 30.3781 14.6487 30.3781C9.12234 30.3781 4.62591 25.7149 4.62591 19.9835C4.62591 14.2522 9.12234 9.58892 14.6487 9.58892Z" fill="white"/>
<path d="M16.9618 13.593H12.3359V22.3824H16.9618V13.593Z" fill="white"/>
<path d="M66.4872 58.2598C66.4872 53.212 62.5263 49.1042 57.6591 49.1042C52.7919 49.1042 48.8311 53.212 48.8311 58.2598C48.8311 63.3076 52.7919 67.4154 57.6591 67.4154C62.5283 67.4154 66.4872 63.3076 66.4872 58.2598ZM54.7164 58.2598C54.7164 56.5772 56.0367 55.208 57.6591 55.208C59.2815 55.208 60.6018 56.5772 60.6018 58.2598C60.6018 59.9424 59.2815 61.3117 57.6591 61.3117C56.0367 61.3117 54.7164 59.9424 54.7164 58.2598Z" fill="white"/>
<path d="M25.2896 58.2598C25.2896 63.3076 29.2504 67.4154 34.1176 67.4154C38.9848 67.4154 42.9457 63.3076 42.9457 58.2598C42.9457 53.212 38.9848 49.1042 34.1176 49.1042C29.2504 49.1042 25.2896 53.212 25.2896 58.2598ZM37.0603 58.2598C37.0603 59.9424 35.74 61.3117 34.1176 61.3117C32.4952 61.3117 31.1749 59.9424 31.1749 58.2598C31.1749 56.5772 32.4952 55.208 34.1176 55.208C35.74 55.208 37.0603 56.5772 37.0603 58.2598Z" fill="white"/>
<path d="M90.0287 58.2598C90.0287 53.212 86.0678 49.1042 81.2006 49.1042C76.3334 49.1042 72.3726 53.212 72.3726 58.2598C72.3726 63.3076 76.3334 67.4154 81.2006 67.4154C86.0678 67.4154 90.0287 63.3076 90.0287 58.2598Z" fill="white"/>
<path d="M104.399 13.6907H34.1177V18.1667H104.399C104.501 18.1667 104.595 18.2644 104.595 18.3702V89.576C104.595 89.6818 104.501 89.7795 104.399 89.7795H9.79142C9.68941 89.7795 9.59524 89.6818 9.59524 89.576V39.3344H5.2793V89.5781C5.2793 92.1579 7.30387 94.2576 9.79142 94.2576H104.399C106.886 94.2576 108.911 92.1579 108.911 89.5781V18.3702C108.911 15.7903 106.888 13.6907 104.399 13.6907Z" fill="white"/>
</g>
<defs>
<clipPath id="clip0">
<rect width="108.911" height="109" fill="white"/>
</clipPath>
</defs>
</svg>
