<?xml version="1.0" encoding="UTF-8"?>
<svg viewBox="0 0 566 381" xmlns="http://www.w3.org/2000/svg">
<path d="m558.68 197.11c-15.738 59.399-58.578 114.3-105.24 150.51-65.182 50.641-145.52 30.477-220.23 23.535-31.394-2.881-62.376-2.881-93.412-9.391-27.338-5.457-53.465-16.203-77.041-31.687-44.876-30.419-65.292-81.608-62.513-136.54 0.099501-1.741 0.50038-3.449 1.1831-5.041 0.67895-25.159 3.385-50.214 8.0893-74.896 5.2553-25.926 17.279-48.74 37.777-64.642 27.267-21.144 66.255-20.164 98.365-19.588 44.188 0.7778 89.587 7.9505 133.42-0.6337 39.565-7.7489 77.26-22.757 117.46-27.481 53.708-6.3374 111.54 11.148 144.95 57.296 28.285 38.975 29.248 93.102 17.197 138.56z" fill="#F5F9FD"/>
<path d="m128.25 127.86c-3.552-0.069-7.08 0.597-10.363 1.958-3.282 1.361-6.248 3.387-8.71 5.951-4.148 4.18-13.092 28.415-9.1981 48.017 0.6401 3.487 2.0911 6.775 4.2361 9.596 2.144 2.822 4.922 5.099 8.108 6.648 3.186 1.548 6.692 2.323 10.233 2.264s7.019-0.952 10.152-2.606c10.75-5.508 12.837-22.596 12.527-32.425-0.31-9.83-16.985-39.403-16.985-39.403z" fill="#E94372"/>
<path d="m118.4 135.05c-0.92-0.88-2.095-1.464-3.368-1.676-1.272-0.212-2.581-0.04-3.75 0.491-4.078 5.354-7.212 11.329-9.274 17.679 0 0-1.276 0-0.453-3.277 1.409-4.844 3.499-9.477 6.21-13.768 2.099-2.754 5.077-5.012 19.37-10.106 12.478-4.434 8.508 6.664 8.508 6.664l-17.243 3.993z" fill="#D83068"/>
<path d="m196.14 201.49c-2.178-0.866-4.41-1.584-6.681-2.151-2.274-0.245-4.499-0.837-6.598-1.755-2.265-1.019-7.213-7.981-10.988-14.151-4.046-6.841-6.699-14.434-7.8-22.33-0.531-8.207 0-24.707-0.587-30.395 0.117-1.89-0.361-3.769-1.366-5.366s-2.484-2.83-4.225-3.521c-3.523-1.67-6.347-0.934-6.71 7.302-0.693 11.738-0.093 23.518 1.789 35.122 1.854 8.204 5.028 16.045 9.394 23.207 3.833 6.12 8.386 11.746 13.559 16.755 1.454 1.528 2.181 3.028 4.613 6.254 2.404 3.272 5.549 5.912 9.17 7.698 3.131 1.274 4.445 1.245 4.977 0.736 0.531-0.509 0.307-1.5-1.035-2.236-2.242-1.033-4.278-2.472-6.011-4.245 0 0 2.796 1.811 4.697 2.83 1.617 0.835 3.338 1.444 5.116 1.811 1.734 0.312 3.579-1.556 2.237-2.349-1.342-0.792-2.628-1.047-5.284-2.434-1.437-0.781-2.779-1.731-3.998-2.83 1.811 0.819 3.68 1.501 5.592 2.038 1.556 0.512 3.225 0.561 4.808 0.142 0.811-0.227 1.538-1.642-0.279-2.406-2.379-0.596-4.679-1.48-6.85-2.632-2.097-1.302-3.411-2.519-2.935-2.66 0.475-0.142 1.649 0.707 3.802 0.849 2.153 0.141 4.138-0.934 4.138-2.095 0-1.16-0.448-0.707-2.545-1.188z" fill="#FFA8A7"/>
<path d="m163.76 131.3c-0.564-4.308-1.276-6.593-4.066-8.472-1.463-1.103-3.255-1.712-5.105-1.735l-5.937 25.619c2.218 1.652 4.79 2.794 7.525 3.34 2.734 0.546 5.561 0.481 8.266-0.188 0 0-0.119-14.285-0.683-18.564z" fill="#F5FBFB"/>
<path d="m147.39 325.66c-0.11 1.338-0.299 2.668-0.565 3.984-0.472 2.024-0.559 4.117-0.255 6.172 0.368 1.431 3.9 3.311 6.216 3.507 2.795 0.582 5.346 1.99 7.319 4.04 1.383 1.218 3.007 2.134 4.769 2.69s3.622 0.739 5.459 0.537c3.193-0.505 6.753-1.431 7.459-2.806s-0.424-2.806-7.374-7.154c-6.951-4.349-11.613-7.098-13.93-11.391l-9.098 0.421z" fill="#2D2979"/>
<path d="m119.1 336.52c-1.295 2.266-1.839 4.935-1.546 7.575 0.27 3.508 0.111 7.039-0.472 10.503-0.169 4.155 0.926 8.257 3.119 11.685 0.511 0.675 1.179 1.193 1.937 1.5 0.757 0.308 1.577 0.395 2.375 0.252 0.799-0.143 1.548-0.511 2.172-1.066 0.623-0.555 1.099-1.277 1.379-2.094 1.541-3.978 1.826-8.389 0.812-12.558-1.048-4.421 0.341-7.8-0.341-10.785-0.39-1.73-0.953-3.41-1.677-5.012h-7.758z" fill="#2D2979"/>
<path d="m118.78 214.19c0.169 4.986 1.724 26.595 2.43 38.033 0.707 11.438 0.848 25.355 0.848 25.355s-1.978 8.451-3.278 18.143c-1.3 9.691 0 40.68 0 40.68 1.263 0.815 2.734 1.249 4.239 1.249 1.504 0 2.976-0.434 4.238-1.249 0 0 5.284-24.735 7.743-35.863 2.458-11.128 2.825-17.579 4.125-24.482 1.554-8.451 4.861-47.357 4.861-47.357h1.328l3.504 44.005c-1.072 3.251-1.81 6.602-2.204 10.001-0.961 7.184 1.017 43.245 1.017 43.245 1.408 0.782 3.005 1.161 4.615 1.096 1.61-0.064 3.172-0.57 4.512-1.463 0 0 8.816-47.893 8.816-55.048 0-4.818-0.819-68.234-0.819-68.234l-45.975 11.889z" fill="#7FA8E6"/>
<path d="m144.14 228.64c3.961-1.606 7.742-3.63 11.279-6.039-1.818 1.954-3.787 3.759-5.889 5.399-1.935 1.224-1.354 35.205-1.354 35.205l-2.765-34.482-1.271-0.083z" fill="#6795D6"/>
<path d="m130.98 117.71s0.52 10.84 0.301 11.794c-0.219 0.955-4.839 4.128-6.178 5.252-1.34 1.123 7.272 9.856 11.481 11.85 4.21 1.994 17.442-3.229 17.688-9.941 0.246-6.711-2.269-12.299-4.32-12.608-2.05-0.309-18.972-6.347-18.972-6.347z" fill="#FFA8A7"/>
<path d="m148.1 129.8c1.412-1.262-0.222-4.032-1.19-5.952-4.402-1.316-16.306-6.144-16.306-6.144s0 2.441 0.194 4.142c0.05 1.016 0.323 2.009 0.801 2.91 0.479 0.9 1.15 1.685 1.968 2.301 1.44 1.13 3.033 2.053 4.733 2.743 1.883 0.658 6.561 2.88 9.8 0z" fill="#F28F8F"/>
<path d="m129.37 130.68s7.866 13.76 17.039 9.286c9.173-4.473 5.68-12.033 0.909-15.94 0 0 4.459-3.567 7.498-2.831 3.258 1.973 5.681 5.064 6.815 8.692 2.813 8.107 4.141 16.651 3.92 25.226-0.199 11.58 0 46.914 0 46.914s-1.562 7.475-11.559 13.024-17.466 6.115-24.253 4.53c-5.68-1.303-10.224-3.284-12.155-7.333 0.511-8.097 4.118-29.247 2.84-39.439-1.278-10.193-3.521-17.809-4.089-26.048s-1.193-9.937 3.493-11.976c6.418-2.69 9.542-4.105 9.542-4.105z" fill="#F5FBFB"/>
<path d="m130.48 129.66-2.135 1.34s3.501 8.601 11.985 10.136c8.483 1.536 12.213-4.16 12.668-6.618 0.36-2.106 0.111-4.269-0.719-6.244-0.831-1.974-2.209-3.68-3.978-4.925l-1.794 0.67c1.922 1.735 3.354 3.928 4.157 6.367 0.395 1.463 0.275 3.014-0.34 4.402-0.614 1.389-1.688 2.533-3.048 3.249-1.63 0.752-3.435 1.061-5.228 0.894s-3.507-0.804-4.964-1.844c-2.812-1.881-5.086-4.439-6.604-7.427z" fill="#7FA8E6"/>
<path d="m128.5 131.24s10.903 4.878 12.077 21.769c2.46 35.275-21.219 44.778-21.219 44.778-2.236-4.456-0.866-8.77 0.979-13.028 3.654-3.901 6.497-8.5 8.36-13.527s2.708-10.38 2.487-15.742c-0.587-12.858-6.933-20.077-10.12-21.035 2.251-1.544 4.776-2.635 7.436-3.215z" fill="#D83068"/>
<path d="m155.83 100.87c-1.307-8.6741-7.418-15.209-16.172-14.717-4.438 0.3269-8.575 2.4058-11.528 5.793s-4.487 7.8143-4.275 12.336c0.134 2.625 0.869 5.182 2.148 7.466 1.278 2.284 3.063 4.233 5.214 5.69 0.258 1.263 0.649 2.494 1.165 3.672 3.098 3.701 12.477 5.957 15.178 5.581 1.594-0.149 3.109-0.78 4.349-1.81 1.241-1.03 2.151-2.413 2.614-3.973 2.928-6.708 2.018-15.787 1.307-20.038z" fill="#FFA8A7"/>
<path d="m154.29 93.768c-1.837-2.8326-4.511-5.0475-7.663-6.3492-3.153-1.3018-6.635-1.6285-9.981-0.9365-4.386 0.9463-8.221 3.5413-10.684 7.2295-3.38 1.2939-3.294 6.1323-3.237 7.6514 7e-3 2.968 0.726 5.894 2.099 8.538 1.374 2.644 3.363 4.933 5.807 6.68-0.201-0.562-4.64-7.088 0-8.439 0.684 1.014 1.016 2.218 0.945 3.432 0 0 2.263-0.197 1.776-2.813l-0.401-1.997c-0.184-1.002-0.165-2.029 0.056-3.024 0.222-0.994 0.64-1.936 1.233-2.771 0.587-0.772 0.998-1.6585 1.206-2.6 0.207-0.9416 0.206-1.916-3e-3 -2.8572 4.12 1.5419 8.605 1.8838 12.918 0.9846 2.199-0.3421 4.255-1.288 5.929-2.7286z" fill="#FFDEB6"/>
<path d="m126.2 94.244s-1.035-3.3683 3.217-6.6224c5.035-3.9107 12.112-3.0543 19.581 0 4.784 1.9125 12.197-0.4568 10.742 5.138-2.098 8.1924-17.595 8.8774-24.337 3.1971-2.854-1.426-6.039-2.0187-9.203-1.7127z" fill="#FFDEB6"/>
<path d="m107.4 197.43c4.518-1.429 8.647-3.868 12.069-7.129 6.048-5.204 11.414-11.145 15.969-17.68 0.586-0.751 1.233-1.451 1.936-2.094 1.246-1.069 2.347-2.296 3.274-3.649 1.729-2.714 2.546-5.904 2.334-9.109 0.164-3.834-0.366-7.667-1.566-11.315-0.116-0.396-0.299-0.769-0.541-1.104-0.129-0.163-0.301-0.288-0.496-0.363-0.196-0.074-0.408-0.096-0.614-0.061-0.345 0.143-0.628 0.404-0.797 0.736-1.366 2.065-2.306 4.328-3.643 6.421-0.598 0.934-1.025 1.33-1.566 2.291 0 0-1.139 1.217-1.366 0.736-0.228-0.481 0.483-1.952 0.227-4.385s-0.882-3.253-1.622-3.451c-1.196-0.283-1.196 0.962-1.68 2.829-0.897 2.409-1.36 4.956-1.366 7.525 0.05 2.304-0.297 4.6-1.025 6.789-1.942 5.526-5.863 10.148-11.016 12.984-1.594 0.99-2.107 1.16-1.167-2.687 1.599-7.235 3.916-14.294 6.917-21.075 2.847-6.648 4.981-11.768 2.249-14.455-4.726-4.668-11.387-2.009-15.03 5.912-4.27 9.165-6.604 16.124-8.312 32.928-0.7404 7.355-1.4235 22.263 6.832 19.406z" fill="#FFA8A7"/>
<path d="m121.13 136.04c-4.261-1.158-8.522 1.102-12.215 8.333-2.798 6.418-4.976 13.086-6.506 19.915 2.085 1.852 4.521 3.271 7.165 4.173s5.443 1.27 8.232 1.081c0 0 6.392-16.667 7.614-21.13 1.25-4.773 1.25-10.79-4.29-12.372z" fill="#7FA8E6"/>
<path d="m130.6 116.78s-0.38 0.844-1.957 0.923c-2.937 0.132-6.39-5.272-4.024-8.752 0.355-0.425 0.801-0.77 1.307-1.011 0.507-0.241 1.061-0.372 1.625-0.385 0.564-0.012 1.124 0.094 1.641 0.312 0.517 0.219 0.979 0.544 1.354 0.952l0.054 7.961z" fill="#FFA8A7"/>
<rect x="216.32" y="100.79" width="164.67" height="9.0233" rx="4.5116" fill="#D8DCE6"/>
<rect x="217.45" y="101.92" width="92.488" height="6.7674" rx="3.3837" fill="#FF4F57"/>
<path d="m224.7 86.732c0.04-0.088 0.096-0.156 0.168-0.204 0.08-0.048 0.164-0.072 0.252-0.072 0.128 0 0.24 0.044 0.336 0.132 0.104 0.08 0.156 0.18 0.156 0.3 0 0.064-0.016 0.128-0.048 0.192l-3.444 7.656c-0.048 0.104-0.12 0.184-0.216 0.24s-0.2 0.084-0.312 0.084-0.216-0.028-0.312-0.084-0.168-0.136-0.216-0.24l-3.432-7.656c-0.024-0.064-0.036-0.124-0.036-0.18 0-0.128 0.052-0.232 0.156-0.312 0.104-0.088 0.22-0.132 0.348-0.132 0.192 0 0.332 0.092 0.42 0.276l3.096 6.996 3.084-6.996zm5.805 6.912c0.088 0 0.164 0.036 0.228 0.108s0.096 0.164 0.096 0.276c0 0.2-0.14 0.384-0.42 0.552-0.288 0.168-0.592 0.296-0.912 0.384-0.32 0.08-0.632 0.12-0.936 0.12-0.904 0-1.62-0.268-2.148-0.804-0.52-0.536-0.78-1.276-0.78-2.22 0-0.6 0.116-1.128 0.348-1.584 0.232-0.464 0.556-0.824 0.972-1.08 0.424-0.256 0.904-0.384 1.44-0.384 0.76 0 1.364 0.248 1.812 0.744s0.672 1.168 0.672 2.016c0 0.16-0.032 0.276-0.096 0.348s-0.168 0.108-0.312 0.108h-3.864c0.072 1.376 0.724 2.064 1.956 2.064 0.312 0 0.58-0.04 0.804-0.12 0.224-0.088 0.464-0.204 0.72-0.348 0.208-0.12 0.348-0.18 0.42-0.18zm-2.1-3.876c-0.512 0-0.924 0.16-1.236 0.48-0.304 0.32-0.484 0.772-0.54 1.356h3.396c-0.016-0.592-0.164-1.044-0.444-1.356-0.28-0.32-0.672-0.48-1.176-0.48zm6.796-0.732c0.336-0.024 0.504 0.112 0.504 0.408 0 0.128-0.036 0.232-0.108 0.312-0.072 0.072-0.196 0.116-0.372 0.132l-0.36 0.036c-0.536 0.048-0.936 0.24-1.2 0.576-0.256 0.328-0.384 0.716-0.384 1.164v2.916c0 0.16-0.044 0.28-0.132 0.36s-0.204 0.12-0.348 0.12-0.264-0.04-0.36-0.12c-0.088-0.088-0.132-0.208-0.132-0.36v-5.064c0-0.152 0.048-0.268 0.144-0.348 0.096-0.088 0.212-0.132 0.348-0.132 0.128 0 0.236 0.044 0.324 0.132 0.088 0.08 0.132 0.192 0.132 0.336v0.672c0.168-0.352 0.404-0.62 0.708-0.804 0.312-0.184 0.668-0.292 1.068-0.324l0.168-0.012zm4.279-0.024c0.512 0 0.964 0.124 1.356 0.372s0.696 0.6 0.912 1.056 0.324 0.984 0.324 1.584c0 0.608-0.108 1.144-0.324 1.608-0.216 0.456-0.52 0.812-0.912 1.068s-0.844 0.384-1.356 0.384c-0.456 0-0.856-0.1-1.2-0.3-0.336-0.2-0.592-0.484-0.768-0.852v0.648c0 0.144-0.044 0.26-0.132 0.348-0.08 0.088-0.196 0.132-0.348 0.132s-0.272-0.044-0.36-0.132-0.132-0.204-0.132-0.348v-7.632c0-0.136 0.044-0.248 0.132-0.336s0.208-0.132 0.36-0.132 0.268 0.044 0.348 0.132c0.088 0.08 0.132 0.192 0.132 0.336v3.216c0.176-0.368 0.432-0.652 0.768-0.852 0.344-0.2 0.744-0.3 1.2-0.3zm-0.192 5.268c0.568 0 1.008-0.196 1.32-0.588 0.312-0.4 0.468-0.956 0.468-1.668 0-0.696-0.156-1.236-0.468-1.62s-0.752-0.576-1.32-0.576-1.008 0.192-1.32 0.576c-0.304 0.384-0.456 0.932-0.456 1.644s0.152 1.264 0.456 1.656c0.312 0.384 0.752 0.576 1.32 0.576zm6.624-5.268c1.464 0 2.196 0.768 2.196 2.304v3.264c0 0.144-0.044 0.26-0.132 0.348-0.08 0.088-0.192 0.132-0.336 0.132s-0.26-0.044-0.348-0.132-0.132-0.204-0.132-0.348v-0.576c-0.152 0.344-0.384 0.612-0.696 0.804-0.312 0.184-0.672 0.276-1.08 0.276-0.376 0-0.724-0.076-1.044-0.228-0.312-0.152-0.56-0.364-0.744-0.636s-0.276-0.572-0.276-0.9c0-0.44 0.112-0.78 0.336-1.02 0.224-0.248 0.592-0.424 1.104-0.528 0.512-0.112 1.224-0.168 2.136-0.168h0.264v-0.396c0-0.48-0.1-0.832-0.3-1.056-0.192-0.224-0.508-0.336-0.948-0.336-0.544 0-1.096 0.148-1.656 0.444-0.216 0.136-0.368 0.204-0.456 0.204-0.096 0-0.176-0.036-0.24-0.108s-0.096-0.164-0.096-0.276 0.032-0.208 0.096-0.288c0.072-0.088 0.184-0.176 0.336-0.264 0.28-0.16 0.596-0.284 0.948-0.372 0.36-0.096 0.716-0.144 1.068-0.144zm-0.396 5.304c0.48 0 0.872-0.16 1.176-0.48 0.312-0.328 0.468-0.748 0.468-1.26v-0.348h-0.216c-0.704 0-1.24 0.032-1.608 0.096-0.368 0.056-0.632 0.156-0.792 0.3-0.152 0.136-0.228 0.34-0.228 0.612 0 0.312 0.112 0.572 0.336 0.78 0.232 0.2 0.52 0.3 0.864 0.3zm4.863 0.744c-0.144 0-0.264-0.04-0.36-0.12-0.088-0.088-0.132-0.208-0.132-0.36v-7.62c0-0.152 0.044-0.268 0.132-0.348 0.096-0.088 0.216-0.132 0.36-0.132 0.136 0 0.248 0.044 0.336 0.132 0.096 0.08 0.144 0.196 0.144 0.348v7.62c0 0.152-0.048 0.272-0.144 0.36-0.088 0.08-0.2 0.12-0.336 0.12z" fill="#333"/>
<rect x="216.32" y="139.14" width="164.67" height="9.0233" rx="4.5116" fill="#D8DCE6"/>
<rect x="217.45" y="140.27" width="99.256" height="6.7674" rx="3.3837" fill="#7260E2"/>
<path d="m224.82 125.96c0.144 0 0.256 0.048 0.336 0.144 0.08 0.088 0.12 0.208 0.12 0.36v7.572c0 0.152-0.044 0.276-0.132 0.372-0.08 0.088-0.196 0.132-0.348 0.132s-0.284-0.068-0.396-0.204l-4.98-6.66v6.36c0 0.152-0.044 0.276-0.132 0.372-0.08 0.088-0.192 0.132-0.336 0.132s-0.256-0.044-0.336-0.132c-0.08-0.096-0.12-0.22-0.12-0.372v-7.572c0-0.152 0.04-0.272 0.12-0.36 0.088-0.096 0.208-0.144 0.36-0.144 0.16 0 0.296 0.068 0.408 0.204l4.968 6.66v-6.36c0-0.152 0.04-0.272 0.12-0.36 0.088-0.096 0.204-0.144 0.348-0.144zm6.843 2.556c0.152 0 0.268 0.044 0.348 0.132 0.088 0.088 0.132 0.204 0.132 0.348v5.076c0 0.136-0.044 0.248-0.132 0.336-0.08 0.088-0.196 0.132-0.348 0.132-0.144 0-0.26-0.04-0.348-0.12-0.08-0.088-0.12-0.2-0.12-0.336v-0.6c-0.184 0.352-0.444 0.62-0.78 0.804-0.328 0.184-0.7 0.276-1.116 0.276-0.696 0-1.22-0.192-1.572-0.576-0.352-0.392-0.528-0.968-0.528-1.728v-3.264c0-0.144 0.044-0.26 0.132-0.348s0.208-0.132 0.36-0.132 0.268 0.044 0.348 0.132c0.088 0.088 0.132 0.204 0.132 0.348v3.24c0 0.52 0.104 0.904 0.312 1.152 0.208 0.24 0.536 0.36 0.984 0.36 0.512 0 0.924-0.164 1.236-0.492 0.312-0.336 0.468-0.776 0.468-1.32v-2.94c0-0.144 0.044-0.26 0.132-0.348s0.208-0.132 0.36-0.132zm8.791-0.024c1.296 0 1.944 0.772 1.944 2.316v3.252c0 0.152-0.044 0.272-0.132 0.36-0.088 0.08-0.204 0.12-0.348 0.12s-0.264-0.04-0.36-0.12c-0.088-0.088-0.132-0.208-0.132-0.36v-3.228c0-0.536-0.096-0.924-0.288-1.164s-0.492-0.36-0.9-0.36c-0.488 0-0.872 0.164-1.152 0.492s-0.42 0.772-0.42 1.332v2.928c0 0.152-0.048 0.272-0.144 0.36-0.088 0.08-0.204 0.12-0.348 0.12s-0.26-0.04-0.348-0.12c-0.088-0.088-0.132-0.208-0.132-0.36v-3.228c0-0.536-0.096-0.924-0.288-1.164s-0.496-0.36-0.912-0.36c-0.48 0-0.864 0.164-1.152 0.492-0.28 0.328-0.42 0.772-0.42 1.332v2.928c0 0.152-0.044 0.272-0.132 0.36-0.088 0.08-0.204 0.12-0.348 0.12s-0.264-0.04-0.36-0.12c-0.088-0.088-0.132-0.208-0.132-0.36v-5.064c0-0.144 0.044-0.26 0.132-0.348 0.096-0.088 0.216-0.132 0.36-0.132 0.136 0 0.248 0.044 0.336 0.132 0.088 0.08 0.132 0.192 0.132 0.336v0.576c0.176-0.344 0.42-0.608 0.732-0.792s0.672-0.276 1.08-0.276c0.912 0 1.508 0.384 1.788 1.152 0.168-0.352 0.424-0.632 0.768-0.84s0.736-0.312 1.176-0.312zm8.239 4.632c0.088 0 0.164 0.036 0.228 0.108s0.096 0.164 0.096 0.276c0 0.2-0.14 0.384-0.42 0.552-0.288 0.168-0.592 0.296-0.912 0.384-0.32 0.08-0.632 0.12-0.936 0.12-0.904 0-1.62-0.268-2.148-0.804-0.52-0.536-0.78-1.276-0.78-2.22 0-0.6 0.116-1.128 0.348-1.584 0.232-0.464 0.556-0.824 0.972-1.08 0.424-0.256 0.904-0.384 1.44-0.384 0.76 0 1.364 0.248 1.812 0.744s0.672 1.168 0.672 2.016c0 0.16-0.032 0.276-0.096 0.348s-0.168 0.108-0.312 0.108h-3.864c0.072 1.376 0.724 2.064 1.956 2.064 0.312 0 0.58-0.04 0.804-0.12 0.224-0.088 0.464-0.204 0.72-0.348 0.208-0.12 0.348-0.18 0.42-0.18zm-2.1-3.876c-0.512 0-0.924 0.16-1.236 0.48-0.304 0.32-0.484 0.772-0.54 1.356h3.396c-0.016-0.592-0.164-1.044-0.444-1.356-0.28-0.32-0.672-0.48-1.176-0.48zm6.796-0.732c0.336-0.024 0.504 0.112 0.504 0.408 0 0.128-0.036 0.232-0.108 0.312-0.072 0.072-0.196 0.116-0.372 0.132l-0.36 0.036c-0.536 0.048-0.936 0.24-1.2 0.576-0.256 0.328-0.384 0.716-0.384 1.164v2.916c0 0.16-0.044 0.28-0.132 0.36s-0.204 0.12-0.348 0.12-0.264-0.04-0.36-0.12c-0.088-0.088-0.132-0.208-0.132-0.36v-5.064c0-0.152 0.048-0.268 0.144-0.348 0.096-0.088 0.212-0.132 0.348-0.132 0.128 0 0.236 0.044 0.324 0.132 0.088 0.08 0.132 0.192 0.132 0.336v0.672c0.168-0.352 0.404-0.62 0.708-0.804 0.312-0.184 0.668-0.292 1.068-0.324l0.168-0.012zm1.83 6.024c-0.144 0-0.264-0.04-0.36-0.12-0.088-0.088-0.132-0.208-0.132-0.36v-5.064c0-0.152 0.044-0.268 0.132-0.348 0.096-0.088 0.216-0.132 0.36-0.132s0.26 0.044 0.348 0.132c0.088 0.08 0.132 0.196 0.132 0.348v5.064c0 0.16-0.044 0.28-0.132 0.36s-0.204 0.12-0.348 0.12zm0-7.284c-0.192 0-0.348-0.056-0.468-0.168s-0.18-0.26-0.18-0.444c0-0.176 0.06-0.32 0.18-0.432s0.276-0.168 0.468-0.168 0.348 0.056 0.468 0.168 0.18 0.256 0.18 0.432c0 0.184-0.06 0.332-0.18 0.444s-0.276 0.168-0.468 0.168zm4.709 7.308c-0.544 0-1.028-0.124-1.452-0.372-0.416-0.248-0.74-0.6-0.972-1.056-0.224-0.456-0.336-0.984-0.336-1.584s0.116-1.132 0.348-1.596c0.24-0.464 0.572-0.824 0.996-1.08s0.912-0.384 1.464-0.384c0.304 0 0.604 0.044 0.9 0.132 0.304 0.08 0.568 0.2 0.792 0.36 0.144 0.096 0.244 0.192 0.3 0.288 0.064 0.088 0.096 0.188 0.096 0.3s-0.032 0.204-0.096 0.276c-0.056 0.072-0.132 0.108-0.228 0.108-0.056 0-0.116-0.016-0.18-0.048s-0.12-0.064-0.168-0.096c-0.04-0.032-0.068-0.052-0.084-0.06-0.208-0.136-0.408-0.244-0.6-0.324-0.184-0.08-0.412-0.12-0.684-0.12-0.584 0-1.04 0.2-1.368 0.6-0.32 0.392-0.48 0.94-0.48 1.644s0.16 1.248 0.48 1.632c0.328 0.384 0.784 0.576 1.368 0.576 0.272 0 0.504-0.04 0.696-0.12 0.2-0.08 0.4-0.188 0.6-0.324 0.088-0.056 0.172-0.104 0.252-0.144s0.148-0.06 0.204-0.06c0.088 0 0.16 0.036 0.216 0.108 0.064 0.072 0.096 0.164 0.096 0.276 0 0.104-0.028 0.2-0.084 0.288-0.056 0.08-0.16 0.172-0.312 0.276-0.224 0.152-0.496 0.276-0.816 0.372-0.312 0.088-0.628 0.132-0.948 0.132zm5.718-6.072c1.464 0 2.196 0.768 2.196 2.304v3.264c0 0.144-0.044 0.26-0.132 0.348-0.08 0.088-0.192 0.132-0.336 0.132s-0.26-0.044-0.348-0.132-0.132-0.204-0.132-0.348v-0.576c-0.152 0.344-0.384 0.612-0.696 0.804-0.312 0.184-0.672 0.276-1.08 0.276-0.376 0-0.724-0.076-1.044-0.228-0.312-0.152-0.56-0.364-0.744-0.636s-0.276-0.572-0.276-0.9c0-0.44 0.112-0.78 0.336-1.02 0.224-0.248 0.592-0.424 1.104-0.528 0.512-0.112 1.224-0.168 2.136-0.168h0.264v-0.396c0-0.48-0.1-0.832-0.3-1.056-0.192-0.224-0.508-0.336-0.948-0.336-0.544 0-1.096 0.148-1.656 0.444-0.216 0.136-0.368 0.204-0.456 0.204-0.096 0-0.176-0.036-0.24-0.108s-0.096-0.164-0.096-0.276 0.032-0.208 0.096-0.288c0.072-0.088 0.184-0.176 0.336-0.264 0.28-0.16 0.596-0.284 0.948-0.372 0.36-0.096 0.716-0.144 1.068-0.144zm-0.396 5.304c0.48 0 0.872-0.16 1.176-0.48 0.312-0.328 0.468-0.748 0.468-1.26v-0.348h-0.216c-0.704 0-1.24 0.032-1.608 0.096-0.368 0.056-0.632 0.156-0.792 0.3-0.152 0.136-0.228 0.34-0.228 0.612 0 0.312 0.112 0.572 0.336 0.78 0.232 0.2 0.52 0.3 0.864 0.3zm4.864 0.744c-0.144 0-0.264-0.04-0.36-0.12-0.088-0.088-0.132-0.208-0.132-0.36v-7.62c0-0.152 0.044-0.268 0.132-0.348 0.096-0.088 0.216-0.132 0.36-0.132 0.136 0 0.248 0.044 0.336 0.132 0.096 0.08 0.144 0.196 0.144 0.348v7.62c0 0.152-0.048 0.272-0.144 0.36-0.088 0.08-0.2 0.12-0.336 0.12z" fill="#333"/>
<rect x="216.32" y="178.62" width="164.67" height="9.0233" rx="4.5116" fill="#D8DCE6"/>
<rect x="217.45" y="179.74" width="92.488" height="6.7674" rx="3.3837" fill="#8AD908"/>
<path d="m221.2 172.92c-0.6 0-1.176-0.088-1.728-0.264-0.544-0.184-0.98-0.428-1.308-0.732-0.12-0.112-0.18-0.252-0.18-0.42 0-0.112 0.032-0.208 0.096-0.288 0.064-0.088 0.14-0.132 0.228-0.132 0.104 0 0.216 0.044 0.336 0.132 0.744 0.576 1.592 0.864 2.544 0.864 0.688 0 1.216-0.132 1.584-0.396s0.552-0.64 0.552-1.128c0-0.28-0.088-0.504-0.264-0.672-0.176-0.176-0.408-0.316-0.696-0.42s-0.676-0.212-1.164-0.324c-0.656-0.152-1.196-0.312-1.62-0.48-0.416-0.168-0.756-0.408-1.02-0.72-0.256-0.312-0.384-0.72-0.384-1.224 0-0.48 0.128-0.904 0.384-1.272 0.264-0.377 0.628-0.665 1.092-0.864 0.472-0.209 1.008-0.313 1.608-0.313 0.56 0 1.08 0.088 1.56 0.264 0.488 0.169 0.896 0.413 1.224 0.732 0.128 0.129 0.192 0.269 0.192 0.421 0 0.112-0.032 0.212-0.096 0.299-0.064 0.081-0.14 0.121-0.228 0.121s-0.204-0.044-0.348-0.132c-0.392-0.32-0.756-0.544-1.092-0.672s-0.74-0.192-1.212-0.192c-0.664 0-1.18 0.14-1.548 0.42-0.368 0.272-0.552 0.656-0.552 1.152 0 0.424 0.16 0.744 0.48 0.96 0.328 0.208 0.828 0.392 1.5 0.552 0.728 0.176 1.3 0.34 1.716 0.492 0.416 0.144 0.76 0.364 1.032 0.66 0.28 0.296 0.42 0.692 0.42 1.188 0 0.472-0.132 0.888-0.396 1.248-0.256 0.36-0.62 0.64-1.092 0.84s-1.012 0.3-1.62 0.3zm6.974-0.012c-0.544 0-1.028-0.124-1.452-0.372-0.416-0.248-0.74-0.6-0.972-1.056-0.224-0.456-0.336-0.984-0.336-1.584s0.116-1.132 0.348-1.596c0.24-0.464 0.572-0.824 0.996-1.08s0.912-0.384 1.464-0.384c0.304 0 0.604 0.044 0.9 0.132 0.304 0.08 0.568 0.2 0.792 0.36 0.144 0.096 0.244 0.192 0.3 0.288 0.064 0.088 0.096 0.188 0.096 0.3s-0.032 0.204-0.096 0.276c-0.056 0.072-0.132 0.108-0.228 0.108-0.056 0-0.116-0.016-0.18-0.048s-0.12-0.064-0.168-0.096c-0.04-0.032-0.068-0.052-0.084-0.06-0.208-0.136-0.408-0.244-0.6-0.324-0.184-0.08-0.412-0.12-0.684-0.12-0.584 0-1.04 0.2-1.368 0.6-0.32 0.392-0.48 0.94-0.48 1.644s0.16 1.248 0.48 1.632c0.328 0.384 0.784 0.576 1.368 0.576 0.272 0 0.504-0.04 0.696-0.12 0.2-0.08 0.4-0.188 0.6-0.324 0.088-0.056 0.172-0.104 0.252-0.144s0.148-0.06 0.204-0.06c0.088 0 0.16 0.036 0.216 0.108 0.064 0.072 0.096 0.164 0.096 0.276 0 0.104-0.028 0.2-0.084 0.288-0.056 0.08-0.16 0.172-0.312 0.276-0.224 0.152-0.496 0.276-0.816 0.372-0.312 0.088-0.628 0.132-0.948 0.132zm3.823-0.024c-0.144 0-0.264-0.04-0.36-0.12-0.088-0.088-0.132-0.208-0.132-0.36v-5.064c0-0.152 0.044-0.268 0.132-0.348 0.096-0.088 0.216-0.132 0.36-0.132s0.26 0.044 0.348 0.132c0.088 0.08 0.132 0.196 0.132 0.348v5.064c0 0.16-0.044 0.28-0.132 0.36s-0.204 0.12-0.348 0.12zm0-7.285c-0.192 0-0.348-0.056-0.468-0.168s-0.18-0.26-0.18-0.444c0-0.175 0.06-0.319 0.18-0.431s0.276-0.168 0.468-0.168 0.348 0.056 0.468 0.168 0.18 0.256 0.18 0.431c0 0.184-0.06 0.332-0.18 0.444s-0.276 0.168-0.468 0.168zm6.821 5.869c0.088 0 0.164 0.036 0.228 0.108s0.096 0.164 0.096 0.276c0 0.2-0.14 0.384-0.42 0.552-0.288 0.168-0.592 0.296-0.912 0.384-0.32 0.08-0.632 0.12-0.936 0.12-0.904 0-1.62-0.268-2.148-0.804-0.52-0.536-0.78-1.276-0.78-2.22 0-0.6 0.116-1.128 0.348-1.584 0.232-0.464 0.556-0.824 0.972-1.08 0.424-0.256 0.904-0.384 1.44-0.384 0.76 0 1.364 0.248 1.812 0.744s0.672 1.168 0.672 2.016c0 0.16-0.032 0.276-0.096 0.348s-0.168 0.108-0.312 0.108h-3.864c0.072 1.376 0.724 2.064 1.956 2.064 0.312 0 0.58-0.04 0.804-0.12 0.224-0.088 0.464-0.204 0.72-0.348 0.208-0.12 0.348-0.18 0.42-0.18zm-2.1-3.876c-0.512 0-0.924 0.16-1.236 0.48-0.304 0.32-0.484 0.772-0.54 1.356h3.396c-0.016-0.592-0.164-1.044-0.444-1.356-0.28-0.32-0.672-0.48-1.176-0.48zm6.844-0.756c1.4 0 2.1 0.772 2.1 2.316v3.252c0 0.152-0.044 0.272-0.132 0.36-0.08 0.08-0.196 0.12-0.348 0.12s-0.272-0.04-0.36-0.12c-0.088-0.088-0.132-0.208-0.132-0.36v-3.192c0-0.544-0.108-0.94-0.324-1.188-0.208-0.248-0.544-0.372-1.008-0.372-0.536 0-0.964 0.164-1.284 0.492s-0.48 0.772-0.48 1.332v2.928c0 0.152-0.044 0.272-0.132 0.36-0.08 0.08-0.196 0.12-0.348 0.12s-0.272-0.04-0.36-0.12c-0.088-0.088-0.132-0.208-0.132-0.36v-5.064c0-0.144 0.044-0.26 0.132-0.348s0.208-0.132 0.36-0.132c0.144 0 0.256 0.044 0.336 0.132 0.088 0.088 0.132 0.2 0.132 0.336v0.612c0.192-0.36 0.46-0.632 0.804-0.816 0.344-0.192 0.736-0.288 1.176-0.288zm6.58 5.28c0.28 0.024 0.42 0.152 0.42 0.384 0 0.136-0.052 0.24-0.156 0.312-0.096 0.064-0.244 0.088-0.444 0.072l-0.324-0.024c-0.64-0.048-1.112-0.24-1.416-0.576s-0.456-0.844-0.456-1.524v-3.012h-0.804c-0.136 0-0.244-0.032-0.324-0.096-0.072-0.072-0.108-0.164-0.108-0.276 0-0.12 0.036-0.216 0.108-0.288 0.08-0.072 0.188-0.108 0.324-0.108h0.804v-1.356c0-0.152 0.044-0.268 0.132-0.348 0.088-0.088 0.208-0.133 0.36-0.133 0.144 0 0.26 0.045 0.348 0.133 0.088 0.08 0.132 0.196 0.132 0.348v1.356h1.332c0.128 0 0.228 0.036 0.3 0.108 0.08 0.072 0.12 0.168 0.12 0.288 0 0.112-0.04 0.204-0.12 0.276-0.072 0.064-0.172 0.096-0.3 0.096h-1.332v3.06c0 0.44 0.088 0.76 0.264 0.96 0.184 0.192 0.456 0.3 0.816 0.324l0.324 0.024zm1.87 0.768c-0.144 0-0.264-0.04-0.36-0.12-0.088-0.088-0.132-0.208-0.132-0.36v-5.064c0-0.152 0.044-0.268 0.132-0.348 0.096-0.088 0.216-0.132 0.36-0.132s0.26 0.044 0.348 0.132c0.088 0.08 0.132 0.196 0.132 0.348v5.064c0 0.16-0.044 0.28-0.132 0.36s-0.204 0.12-0.348 0.12zm0-7.285c-0.192 0-0.348-0.056-0.468-0.168s-0.18-0.26-0.18-0.444c0-0.175 0.06-0.319 0.18-0.431s0.276-0.168 0.468-0.168 0.348 0.056 0.468 0.168 0.18 0.256 0.18 0.431c0 0.184-0.06 0.332-0.18 0.444s-0.276 0.168-0.468 0.168zm6.773 1.381c0.136 0 0.24 0.036 0.312 0.108s0.108 0.168 0.108 0.288v5.028c0 0.152-0.048 0.272-0.144 0.36-0.088 0.08-0.2 0.12-0.336 0.12-0.144 0-0.264-0.04-0.36-0.12-0.088-0.088-0.132-0.208-0.132-0.36v-4.656h-2.628v4.656c0 0.152-0.048 0.272-0.144 0.36-0.088 0.08-0.2 0.12-0.336 0.12-0.144 0-0.264-0.04-0.36-0.12-0.088-0.088-0.132-0.208-0.132-0.36v-4.656h-0.804c-0.136 0-0.244-0.032-0.324-0.096-0.072-0.072-0.108-0.164-0.108-0.276 0-0.12 0.036-0.216 0.108-0.288 0.08-0.072 0.188-0.108 0.324-0.108h0.804v-0.204c0-0.72 0.18-1.285 0.54-1.692 0.36-0.416 0.876-0.652 1.548-0.709l0.288-0.023c0.384-0.032 0.576 0.087 0.576 0.359 0 0.233-0.136 0.365-0.408 0.397l-0.288 0.024c-0.424 0.032-0.744 0.168-0.96 0.407-0.216 0.233-0.324 0.585-0.324 1.056v0.385h3.18zm-0.06-2.592c0.184 0 0.336 0.056 0.456 0.168 0.128 0.112 0.192 0.256 0.192 0.431 0 0.184-0.06 0.332-0.18 0.444s-0.276 0.168-0.468 0.168-0.348-0.056-0.468-0.168-0.18-0.26-0.18-0.444c0-0.175 0.06-0.319 0.18-0.431s0.276-0.168 0.468-0.168zm4.699 8.52c-0.544 0-1.028-0.124-1.452-0.372-0.416-0.248-0.74-0.6-0.972-1.056-0.224-0.456-0.336-0.984-0.336-1.584s0.116-1.132 0.348-1.596c0.24-0.464 0.572-0.824 0.996-1.08s0.912-0.384 1.464-0.384c0.304 0 0.604 0.044 0.9 0.132 0.304 0.08 0.568 0.2 0.792 0.36 0.144 0.096 0.244 0.192 0.3 0.288 0.064 0.088 0.096 0.188 0.096 0.3s-0.032 0.204-0.096 0.276c-0.056 0.072-0.132 0.108-0.228 0.108-0.056 0-0.116-0.016-0.18-0.048s-0.12-0.064-0.168-0.096c-0.04-0.032-0.068-0.052-0.084-0.06-0.208-0.136-0.408-0.244-0.6-0.324-0.184-0.08-0.412-0.12-0.684-0.12-0.584 0-1.04 0.2-1.368 0.6-0.32 0.392-0.48 0.94-0.48 1.644s0.16 1.248 0.48 1.632c0.328 0.384 0.784 0.576 1.368 0.576 0.272 0 0.504-0.04 0.696-0.12 0.2-0.08 0.4-0.188 0.6-0.324 0.088-0.056 0.172-0.104 0.252-0.144s0.148-0.06 0.204-0.06c0.088 0 0.16 0.036 0.216 0.108 0.064 0.072 0.096 0.164 0.096 0.276 0 0.104-0.028 0.2-0.084 0.288-0.056 0.08-0.16 0.172-0.312 0.276-0.224 0.152-0.496 0.276-0.816 0.372-0.312 0.088-0.628 0.132-0.948 0.132z" fill="#333"/>
<rect x="216.32" y="216.96" width="164.67" height="9.0233" rx="4.5116" fill="#D8DCE6"/>
<rect x="217.45" y="218.09" width="99.256" height="6.7674" rx="3.3837" fill="#E8B134"/>
<path d="m222.08 212.4c-0.8 0-1.492-0.172-2.076-0.516-0.584-0.352-1.036-0.852-1.356-1.5-0.312-0.656-0.468-1.428-0.468-2.316 0-0.88 0.156-1.644 0.468-2.292 0.32-0.656 0.772-1.156 1.356-1.5 0.584-0.352 1.276-0.528 2.076-0.528 0.536 0 1.04 0.088 1.512 0.264 0.48 0.168 0.896 0.412 1.248 0.732 0.128 0.12 0.192 0.26 0.192 0.42 0 0.112-0.032 0.212-0.096 0.3-0.064 0.08-0.14 0.12-0.228 0.12-0.096 0-0.212-0.044-0.348-0.132-0.408-0.32-0.78-0.544-1.116-0.672-0.328-0.128-0.708-0.192-1.14-0.192-0.928 0-1.644 0.304-2.148 0.912-0.496 0.6-0.744 1.456-0.744 2.568 0 1.12 0.248 1.984 0.744 2.592 0.504 0.6 1.22 0.9 2.148 0.9 0.424 0 0.804-0.064 1.14-0.192s0.708-0.352 1.116-0.672c0.136-0.088 0.252-0.132 0.348-0.132 0.088 0 0.164 0.04 0.228 0.12s0.096 0.18 0.096 0.3c0 0.16-0.064 0.3-0.192 0.42-0.352 0.32-0.768 0.568-1.248 0.744-0.472 0.168-0.976 0.252-1.512 0.252zm6.696-0.012c-0.552 0-1.04-0.124-1.464-0.372-0.416-0.248-0.74-0.6-0.972-1.056-0.224-0.464-0.336-1-0.336-1.608s0.112-1.14 0.336-1.596c0.232-0.464 0.556-0.82 0.972-1.068 0.424-0.248 0.912-0.372 1.464-0.372s1.04 0.124 1.464 0.372 0.748 0.604 0.972 1.068c0.232 0.456 0.348 0.988 0.348 1.596s-0.116 1.144-0.348 1.608c-0.224 0.456-0.548 0.808-0.972 1.056s-0.912 0.372-1.464 0.372zm0-0.804c0.576 0 1.016-0.188 1.32-0.564 0.312-0.384 0.468-0.94 0.468-1.668 0-0.712-0.156-1.26-0.468-1.644-0.312-0.392-0.752-0.588-1.32-0.588s-1.008 0.196-1.32 0.588c-0.312 0.384-0.468 0.932-0.468 1.644 0 0.72 0.152 1.272 0.456 1.656 0.312 0.384 0.756 0.576 1.332 0.576zm8.972-5.244c0.152 0 0.272 0.044 0.36 0.132s0.132 0.204 0.132 0.348v5.088c0 0.872-0.224 1.528-0.672 1.968-0.448 0.448-1.112 0.672-1.992 0.672-0.856 0-1.568-0.168-2.136-0.504-0.288-0.16-0.432-0.344-0.432-0.552 0-0.112 0.028-0.204 0.084-0.276 0.064-0.072 0.144-0.108 0.24-0.108 0.08 0 0.224 0.056 0.432 0.168 0.28 0.144 0.556 0.26 0.828 0.348s0.596 0.132 0.972 0.132c0.568 0 0.996-0.152 1.284-0.456 0.288-0.296 0.432-0.732 0.432-1.308v-1.032c-0.168 0.376-0.428 0.664-0.78 0.864-0.344 0.2-0.752 0.3-1.224 0.3-0.512 0-0.968-0.12-1.368-0.36-0.392-0.24-0.7-0.58-0.924-1.02-0.216-0.44-0.324-0.948-0.324-1.524s0.108-1.084 0.324-1.524c0.224-0.44 0.532-0.78 0.924-1.02 0.4-0.24 0.856-0.36 1.368-0.36 0.464 0 0.868 0.1 1.212 0.3s0.604 0.484 0.78 0.852v-0.648c0-0.144 0.04-0.26 0.12-0.348 0.088-0.088 0.208-0.132 0.36-0.132zm-2.28 4.98c0.56 0 1-0.184 1.32-0.552 0.32-0.376 0.48-0.892 0.48-1.548 0-0.648-0.16-1.156-0.48-1.524-0.312-0.376-0.752-0.564-1.32-0.564s-1.016 0.188-1.344 0.564c-0.32 0.368-0.48 0.876-0.48 1.524 0 0.656 0.16 1.172 0.48 1.548 0.328 0.368 0.776 0.552 1.344 0.552zm7.512-5.004c1.4 0 2.1 0.772 2.1 2.316v3.252c0 0.152-0.044 0.272-0.132 0.36-0.08 0.08-0.196 0.12-0.348 0.12s-0.272-0.04-0.36-0.12c-0.088-0.088-0.132-0.208-0.132-0.36v-3.192c0-0.544-0.108-0.94-0.324-1.188-0.208-0.248-0.544-0.372-1.008-0.372-0.536 0-0.964 0.164-1.284 0.492s-0.48 0.772-0.48 1.332v2.928c0 0.152-0.044 0.272-0.132 0.36-0.08 0.08-0.196 0.12-0.348 0.12s-0.272-0.04-0.36-0.12c-0.088-0.088-0.132-0.208-0.132-0.36v-5.064c0-0.144 0.044-0.26 0.132-0.348s0.208-0.132 0.36-0.132c0.144 0 0.256 0.044 0.336 0.132 0.088 0.088 0.132 0.2 0.132 0.336v0.612c0.192-0.36 0.46-0.632 0.804-0.816 0.344-0.192 0.736-0.288 1.176-0.288zm4.372 6.048c-0.144 0-0.264-0.04-0.36-0.12-0.088-0.088-0.132-0.208-0.132-0.36v-5.064c0-0.152 0.044-0.268 0.132-0.348 0.096-0.088 0.216-0.132 0.36-0.132s0.26 0.044 0.348 0.132c0.088 0.08 0.132 0.196 0.132 0.348v5.064c0 0.16-0.044 0.28-0.132 0.36s-0.204 0.12-0.348 0.12zm0-7.284c-0.192 0-0.348-0.056-0.468-0.168s-0.18-0.26-0.18-0.444c0-0.176 0.06-0.32 0.18-0.432s0.276-0.168 0.468-0.168 0.348 0.056 0.468 0.168 0.18 0.256 0.18 0.432c0 0.184-0.06 0.332-0.18 0.444s-0.276 0.168-0.468 0.168zm4.997 6.516c0.28 0.024 0.42 0.152 0.42 0.384 0 0.136-0.052 0.24-0.156 0.312-0.096 0.064-0.244 0.088-0.444 0.072l-0.324-0.024c-0.64-0.048-1.112-0.24-1.416-0.576s-0.456-0.844-0.456-1.524v-3.012h-0.804c-0.136 0-0.244-0.032-0.324-0.096-0.072-0.072-0.108-0.164-0.108-0.276 0-0.12 0.036-0.216 0.108-0.288 0.08-0.072 0.188-0.108 0.324-0.108h0.804v-1.356c0-0.152 0.044-0.268 0.132-0.348 0.088-0.088 0.208-0.132 0.36-0.132 0.144 0 0.26 0.044 0.348 0.132 0.088 0.08 0.132 0.196 0.132 0.348v1.356h1.332c0.128 0 0.228 0.036 0.3 0.108 0.08 0.072 0.12 0.168 0.12 0.288 0 0.112-0.04 0.204-0.12 0.276-0.072 0.064-0.172 0.096-0.3 0.096h-1.332v3.06c0 0.44 0.088 0.76 0.264 0.96 0.184 0.192 0.456 0.3 0.816 0.324l0.324 0.024zm1.87 0.768c-0.144 0-0.264-0.04-0.36-0.12-0.088-0.088-0.132-0.208-0.132-0.36v-5.064c0-0.152 0.044-0.268 0.132-0.348 0.096-0.088 0.216-0.132 0.36-0.132s0.26 0.044 0.348 0.132c0.088 0.08 0.132 0.196 0.132 0.348v5.064c0 0.16-0.044 0.28-0.132 0.36s-0.204 0.12-0.348 0.12zm0-7.284c-0.192 0-0.348-0.056-0.468-0.168s-0.18-0.26-0.18-0.444c0-0.176 0.06-0.32 0.18-0.432s0.276-0.168 0.468-0.168 0.348 0.056 0.468 0.168 0.18 0.256 0.18 0.432c0 0.184-0.06 0.332-0.18 0.444s-0.276 0.168-0.468 0.168zm6.509 1.56c0.088-0.192 0.228-0.288 0.42-0.288 0.12 0 0.228 0.04 0.324 0.12s0.144 0.18 0.144 0.3c0 0.072-0.016 0.136-0.048 0.192l-2.34 5.04c-0.048 0.104-0.12 0.188-0.216 0.252-0.096 0.056-0.2 0.084-0.312 0.084-0.104 0-0.204-0.028-0.3-0.084-0.096-0.064-0.172-0.148-0.228-0.252l-2.328-5.04c-0.032-0.056-0.048-0.116-0.048-0.18 0-0.12 0.052-0.224 0.156-0.312 0.112-0.088 0.232-0.132 0.36-0.132 0.08 0 0.156 0.024 0.228 0.072 0.08 0.048 0.14 0.116 0.18 0.204l2.004 4.5 2.004-4.476zm6.406 4.308c0.088 0 0.164 0.036 0.228 0.108s0.096 0.164 0.096 0.276c0 0.2-0.14 0.384-0.42 0.552-0.288 0.168-0.592 0.296-0.912 0.384-0.32 0.08-0.632 0.12-0.936 0.12-0.904 0-1.62-0.268-2.148-0.804-0.52-0.536-0.78-1.276-0.78-2.22 0-0.6 0.116-1.128 0.348-1.584 0.232-0.464 0.556-0.824 0.972-1.08 0.424-0.256 0.904-0.384 1.44-0.384 0.76 0 1.364 0.248 1.812 0.744s0.672 1.168 0.672 2.016c0 0.16-0.032 0.276-0.096 0.348s-0.168 0.108-0.312 0.108h-3.864c0.072 1.376 0.724 2.064 1.956 2.064 0.312 0 0.58-0.04 0.804-0.12 0.224-0.088 0.464-0.204 0.72-0.348 0.208-0.12 0.348-0.18 0.42-0.18zm-2.1-3.876c-0.512 0-0.924 0.16-1.236 0.48-0.304 0.32-0.484 0.772-0.54 1.356h3.396c-0.016-0.592-0.164-1.044-0.444-1.356-0.28-0.32-0.672-0.48-1.176-0.48z" fill="#333"/>
</svg>
