<?xml version="1.0" encoding="UTF-8"?>
<svg viewBox="0 0 566 381" xmlns="http://www.w3.org/2000/svg">
<path d="m558.68 197.11c-15.738 59.399-58.578 114.3-105.24 150.51-65.182 50.641-145.52 30.477-220.23 23.535-31.394-2.881-62.376-2.881-93.412-9.391-27.338-5.457-53.465-16.203-77.041-31.687-44.876-30.419-65.292-81.608-62.513-136.54 0.099501-1.741 0.50038-3.449 1.1831-5.041 0.67895-25.159 3.385-50.214 8.0893-74.896 5.2553-25.926 17.279-48.74 37.777-64.642 27.267-21.144 66.255-20.164 98.365-19.588 44.188 0.7778 89.587 7.9505 133.42-0.6337 39.565-7.7489 77.26-22.757 117.46-27.481 53.708-6.3374 111.54 11.148 144.95 57.296 28.285 38.975 29.248 93.102 17.197 138.56z" fill="#F5F9FD"/>
<path d="m203.56 235.2c-31.171 17.978-62.342 35.968-93.513 53.969v-172.91c31.171-18.009 62.342-35.999 93.513-53.969v172.91z" fill="#fff"/>
<path d="m158.52 118.24c9.491-5.47 16.984-1.589 17.042 8.428l13.361-7.703c0-12.215-5.95-19.579-15.067-20.094-4.489-0.2572-9.749 1.1685-15.43 4.4185-5.975 3.586-11.292 8.168-15.722 13.548l7.166 8.872c2.427-2.974 5.354-5.501 8.65-7.47z" fill="#E86767"/>
<path d="m141.23 146.48-14.436 8.334c0 12.238 6.581 19.088 16.166 19.252 2.724-6.488 4.068-9.725 6.756-16.19l0.316-0.748c-5.213-0.14-8.779-3.939-8.802-10.648z" fill="#FFCD40"/>
<path d="m149.87 125.71-7.165-8.872c-9.457 11.245-15.944 25.716-15.909 37.978l14.436-8.334c-0.023-6.71 3.472-14.624 8.638-20.772z" fill="#19A566"/>
<path d="m158.74 154.56c-2.614 1.635-5.625 2.524-8.708 2.571-0.129 0.293-0.187 0.445-0.316 0.748-2.665 6.5-4.009 9.761-6.697 16.272 4.734 0 10.181-1.543 15.885-4.875 5.827-3.507 10.997-8.005 15.278-13.29 2.292-2.771 4.364-5.718 6.195-8.814-3.822-1.987-5.763-2.969-9.667-4.909-2.91 5.027-7.023 9.252-11.97 12.297z" fill="#7260E2"/>
<path d="m150.03 157.13-0.315 0.748c0.128-0.303 0.187-0.455 0.315-0.748z" fill="#9763D3"/>
<path d="m175.56 126.67c-0.183 5.55-1.845 10.95-4.816 15.641 3.904 1.94 5.845 2.922 9.667 4.909 5.354-9.059 8.556-19.147 8.51-28.253l-13.361 7.703z" fill="#7260E2"/>
<path d="m140.15 220.32-11.841 6.838c-0.807 0.456-1.461 0.175-1.473-0.643v-0.339c0.042-0.477 0.196-0.938 0.45-1.344s0.6-0.747 1.011-0.994l11.841-6.838c0.795-0.456 1.45-0.164 1.45 0.643v0.351c-0.043 0.473-0.195 0.929-0.444 1.333-0.25 0.404-0.59 0.744-0.994 0.993z" fill="#DEE9FA"/>
<path d="m187.71 184.86c-19.801 11.471-39.607 22.903-59.416 34.296-0.806 0.456-1.461 0.175-1.461-0.643v-0.339c0.044-0.476 0.197-0.934 0.449-1.34 0.251-0.406 0.594-0.748 1.001-0.998 19.801-11.432 39.606-22.86 59.415-34.284 0.714-0.409 1.298-0.082 1.298 0.725v0.35c-0.021 0.448-0.149 0.884-0.373 1.272-0.223 0.388-0.536 0.718-0.913 0.961z" fill="#DEE9FA"/>
<path d="m157.69 202.18c-11.525 6.651-17.533 10.076-29.398 16.973-0.806 0.456-1.461 0.175-1.461-0.643v-0.339c0.044-0.476 0.197-0.934 0.449-1.34 0.251-0.406 0.594-0.748 1.001-0.998l29.386-16.961c0.772-0.444 1.414-0.152 1.414 0.666v0.339c-0.031 0.467-0.174 0.92-0.416 1.321-0.242 0.4-0.576 0.737-0.975 0.982z" fill="#7260E2"/>
<path d="m187.67 176.87-59.404 34.273c-0.795 0.468-1.45 0.187-1.461-0.631v-0.339c0.043-0.477 0.197-0.937 0.451-1.344 0.254-0.406 0.6-0.746 1.01-0.994l59.381-34.273c0.724-0.409 1.309-0.081 1.309 0.725v0.351c-0.023 0.447-0.152 0.882-0.375 1.27-0.224 0.388-0.536 0.718-0.911 0.962z" fill="#DEE9FA"/>
<path d="m185.09 178.36-56.821 32.788c-0.795 0.468-1.45 0.187-1.461-0.631v-0.339c0.043-0.477 0.197-0.937 0.451-1.344 0.254-0.406 0.6-0.746 1.01-0.994l56.797-32.73c0.725-0.42 1.321-0.093 1.321 0.713v0.351c-0.028 0.441-0.16 0.869-0.386 1.249-0.225 0.38-0.538 0.701-0.911 0.937z" fill="#E36A57"/>
<path d="m187.62 168.9c-19.793 11.409-39.583 22.829-59.369 34.261-0.806 0.468-1.461 0.176-1.461-0.631v-0.351c0.043-0.475 0.197-0.934 0.449-1.34 0.251-0.405 0.594-0.747 1-0.997l59.37-34.261c0.713-0.409 1.309-0.082 1.309 0.724v0.339c-0.021 0.453-0.15 0.893-0.375 1.286-0.226 0.392-0.542 0.725-0.923 0.97z" fill="#DEE9FA"/>
<path d="m176.11 175.54-47.855 27.621c-0.806 0.468-1.461 0.176-1.461-0.631v-0.351c0.043-0.475 0.197-0.934 0.449-1.34 0.251-0.405 0.594-0.747 1-0.997l47.844-27.61c0.748-0.433 1.356-0.117 1.356 0.689v0.351c-0.026 0.457-0.16 0.901-0.392 1.295-0.232 0.395-0.554 0.728-0.941 0.973z" fill="#FAD447"/>
<path d="m104 112.86v172.96l6.067 3.343v-172.91l-6.067-3.401z" fill="#7AB1EF"/>
<path d="m104 112.86 6.067 3.401 93.489-53.969-5.891-3.2963-93.665 53.864z" fill="#4795EE"/>
<path d="m145.38 246.41c0.058 7.913-5.658 17.615-12.473 21.496s-11.958 0.386-11.958-7.528c0-7.913 5.517-17.533 12.239-21.367 6.721-3.834 12.133-0.515 12.192 7.399z" fill="#DEE9FA"/>
<path d="m174.74 229.61c0.561 7.61-4.372 16.891-11.35 20.889-6.979 3.998-12.858 0.923-13.022-6.943-0.164-7.867 5.085-17.3 11.607-21.041 6.523-3.74 12.204-0.526 12.765 7.095z" fill="#E86767"/>
<path d="m201.42 214.28c0 7.914-3.939 16.622-9.749 19.965-5.809 3.343-11.607 0.257-12.191-7.341-0.585-7.598 4.149-16.739 10.52-20.386 6.37-3.647 11.42-0.163 11.42 7.762z" fill="#DEE9FA"/>
<path d="m133.05 253.46 12.333-7.013c0.058 7.855-5.705 17.639-12.473 21.496-6.768 3.858-11.958 0.328-11.958-7.528 0-5.119 2.338-11.198 6.125-15.944 2.397 3.566 3.577 5.377 5.973 8.989z" fill="#FFCD40"/>
<path d="m162.69 236.49c-2.338 6.242-3.507 9.352-5.985 15.711-3.869-0.398-6.23-3.706-6.324-8.662-0.152-7.808 5.12-17.323 11.607-21.041 6.488-3.717 12.204-0.49 12.765 7.084l-12.063 6.908z" fill="#DEE9FA"/>
<path d="m190.83 220.38c4.407-2.525 6.535-3.752 10.591-6.102 0 7.867-3.975 16.646-9.749 19.965-5.775 3.32-11.607 0.199-12.192-7.34-0.584-7.54 4.197-16.774 10.52-20.386 3.098-1.777 6.149-1.964 8.3-0.433-3.11 5.786-4.547 8.615-7.47 14.296z" fill="#7260E2"/>
<path d="m228.42 274.21s7.562 1.952 11.689-3.998v-3.729l-12.987 0.924 1.298 6.803z" fill="#EEBF99"/>
<path d="m235.96 285.49-9.865 5.716 9.795 5.763 10.041-5.786-9.971-5.693z" fill="#7FA4E0"/>
<path d="m235.89 307.1v-10.123l10.041-5.786v10.134l-10.041 5.775z" fill="#485980"/>
<path d="m349.9 224.97-9.854 5.716 9.784 5.762 10.041-5.786-9.971-5.692z" fill="#7FA4E0"/>
<path d="m349.83 246.57v-10.122l10.041-5.787v10.135l-10.041 5.774z" fill="#485980"/>
<path d="m340.05 240.82v-10.134l9.784 5.763v10.122l-9.784-5.751z" fill="#91BBFF"/>
<path d="m264.67 301.34-9.865 5.716 9.795 5.762 10.041-5.786-9.971-5.692z" fill="#7FA4E0"/>
<path d="m372.96 238.68-9.854 5.716 9.795 5.751 10.041-5.774-9.982-5.693z" fill="#7FA4E0"/>
<path d="m363.1 254.52v-10.123l9.795 5.751v10.135l-9.795-5.763z" fill="#91BBFF"/>
<path d="m269.96 194.36-44.944 26.219 21.718 12.928 45.214-26.312-21.988-12.835z" fill="#5580A0"/>
<path d="m246.74 261.02v-27.505l45.214-26.312v27.505l-45.214 26.312z" fill="#41627F"/>
<path d="m225.02 248.09v-27.505l21.718 12.928v27.505l-21.718-12.928z" fill="#41627F"/>
<path d="m283.39 206.87-14.226-8.264-33.442 19.357 14.225 8.299 33.443-19.392z" fill="#fff"/>
<path d="m235.72 217.97v2.022l14.295 8.007v-1.73l-14.295-8.299z" fill="#D7EEFF"/>
<path d="m283.39 206.87v2.022l-33.396 19.1v-1.742l33.396-19.38z" fill="#D5D6D8"/>
<path d="m286.53 253.45 7.411-4.138 0.584-20.631-9.772 1.859 1.777 22.91z" fill="#354259"/>
<path d="m226.09 301.34v-10.134l9.795 5.763v10.122l-9.795-5.751z" fill="#41627F"/>
<path d="m264.6 322.95v-10.123l10.041-5.786v10.123l-10.041 5.786z" fill="#41627F"/>
<path d="m254.8 317.18v-10.123l9.795 5.763v10.123l-9.795-5.763z" fill="#41627F"/>
<path d="m372.9 260.28v-10.135l10.041-5.774v10.122l-10.041 5.787z" fill="#41627F"/>
<path d="m388.5 243.68-42.443-24.664-124.06 71.701 42.443 24.746 124.06-71.783z" fill="#5580A0"/>
<path d="m222 290.72v6.02l42.63 23.893v-5.167l-42.63-24.746z" fill="#41627F"/>
<path d="m388.5 243.68v6.02l-123.94 70.906v-5.166l123.94-71.76z" fill="#41627F"/>
<path d="m279.71 213.16c-1.52 2.408-3.367 3.974-7.435 1.426s-6.137-6.581-4.617-9.001c1.52-2.419 6.043-2.338 10.111 0.246 4.068 2.583 3.483 4.909 1.941 7.329z" fill="#EEBF99"/>
<path d="m313.88 224.76c-0.191-1.679-0.712-3.304-1.532-4.781-0.82-1.478-1.923-2.779-3.247-3.83-1.323-1.051-2.841-1.831-4.465-2.295-1.625-0.464-3.326-0.603-5.005-0.409-1.522 0.201-3.059 0.267-4.593 0.199-4.875-0.304-7.014-0.842-13.338-4.746-1.221-0.787-2.681-1.116-4.122-0.928-1.44 0.188-2.767 0.882-3.745 1.957-0.474 0.463-0.767 1.081-0.825 1.741-0.058 0.661 0.123 1.32 0.51 1.859 1.975 3.039 6.92 5.564 14.716 10.286 2.496 1.505 5.312 2.398 8.218 2.607l17.744 1.262-0.316-2.922z" fill="#FF4F57"/>
<path d="m259.04 222.15c-1.52 2.419-3.367 3.986-7.435 1.426s-6.137-6.581-4.617-9.001 6.043-2.338 10.111 0.246c4.068 2.583 3.437 4.909 1.941 7.329z" fill="#EEBF99"/>
<path d="m257.55 270.2 7.399-4.302 0.608-20.456-9.597 1.601 1.59 23.157z" fill="#313744"/>
<path d="m313.39 263.55-18.785-35.196c-7.317-4.805-9.854 2.185-9.854 2.185l6.09 21.695-24.103-12.098c-11.958-2.186-10.777 7.247-10.777 7.247l34.927 24.968c2.754 2.018 6.107 3.05 9.52 2.929 3.412-0.121 6.684-1.387 9.288-3.595 4.594-4.091 3.694-8.135 3.694-8.135z" fill="#313744"/>
<path d="m299.31 210.29h3.226c4.008 0 7.853 1.592 10.687 4.427 2.835 2.834 4.427 6.679 4.427 10.687v29.071c0 4.219-1.676 8.266-4.66 11.249-2.983 2.984-7.03 4.66-11.249 4.66h-2.817c-4.483 0-8.782-1.781-11.952-4.951s-4.951-7.469-4.951-11.952v-25.891c-1e-3 -2.271 0.445-4.521 1.313-6.62s2.141-4.006 3.747-5.612c1.605-1.607 3.512-2.881 5.61-3.751 2.098-0.869 4.347-1.317 6.619-1.317z" fill="#FF4F57"/>
<path d="m290.84 219.86s-10.777 3.366-17.113 2.969c-4.886-0.304-7.013-0.842-13.337-4.735-1.22-0.792-2.683-1.124-4.126-0.938s-2.773 0.879-3.752 1.955c-0.469 0.467-0.757 1.085-0.813 1.745-0.055 0.659 0.125 1.317 0.509 1.856 1.975 3.039 6.896 5.564 14.693 10.274 2.512 1.52 5.348 2.421 8.276 2.63l17.767 1.321-2.104-17.077z" fill="#FF4F57"/>
<path d="m294.11 214.4-6.183-3.589c-1.767-1.02-3.236-2.484-4.261-4.248-1.026-1.763-1.572-3.765-1.584-5.805v-7.82l12.016 7.014 0.012 14.448z" fill="#EEBF99"/>
<path d="m286.91 197.07s-0.117 5.435 3.436 8.357c3.554 2.923 3.507 7.411 8.463 6.394 8.288-1.706 10.146-5.424 9.118-18.995l-21.017 4.244z" fill="#50352A"/>
<path d="m294.34 207.02c-0.271 0.47-0.671 0.853-1.154 1.101-0.482 0.248-1.026 0.352-1.566 0.299-0.54-0.054-1.053-0.262-1.478-0.6-0.424-0.338-0.742-0.792-0.915-1.306s-0.194-1.068-0.06-1.593c0.134-0.526 0.417-1.002 0.815-1.371s0.894-0.615 1.429-0.709c0.534-0.093 1.085-0.031 1.584 0.181 0.707 0.354 1.245 0.973 1.496 1.722 0.252 0.749 0.198 1.567-0.151 2.276z" fill="#EEBF99"/>
<path d="m307.93 192.82c-1.485-2.291-3.5-4.189-5.875-5.534-2.374-1.346-5.039-2.098-7.767-2.193-0.065-0.66-0.275-1.298-0.614-1.869-0.338-0.571-0.798-1.061-1.346-1.435s-1.171-0.624-1.826-0.732c-0.655-0.107-1.325-0.07-1.965 0.109-5.154 1.052-5.762 5.061-5.762 5.061l-0.176-1.835s-1.706 5.318-0.549 8.544c0.872 2.049 2.459 3.711 4.465 4.676l0.585 1.742 1.578-1.415 1.075 2.034 1.835-1.741 0.608 1.741s12.882 4.325 15.734-7.153z" fill="#7A4634"/>
</svg>
