<?xml version="1.0" encoding="UTF-8"?>
<svg viewBox="0 0 689 430" xmlns="http://www.w3.org/2000/svg">
<path d="m605.88 98.151c-27.028-28.334-57.457-52.629-93.505-68.299-36.047-15.67-75.709-22.989-115.13-26.481-73.462-6.4381-152.66-4.859-223.97 15.427-71.852 20.438-125.63 67.509-147.96 139.7-0.9414 3.037-1.8221 6.074-2.6421 9.11-9.4076 17.722-15.85 36.865-19.071 56.668-5.7093 32.798-5.8611 72.247 8.5335 102.98 14.85 31.674 45.553 46.737 78.442 52.75 8.078 1.458 16.096 3.037 24.083 4.677 10.419 3.134 21.057 5.489 31.826 7.045 5.162 0.729 10.325 1.397 15.457 2.065 8.23 1.367 16.491 2.521 24.872 3.402 0.819 0.06 1.641 0.06 2.46 0 32.1 3.856 64.169 7.47 96.177 12.937 44.824 7.653 89.861 15.852 135.35 18.221 98.91 5.405 250.42-20.56 266.58-141 9.9-73.644-32.98-138.12-81.509-189.2z" fill="#F5F9FD"/>
<path d="m290.27 290.58-48.35 10.68h145.95l-48.67-11.21-48.93 0.53z" fill="#5773BC" opacity=".2"/>
<path d="m483.23 333.81h-86.25l-11.83-12.8h78.96l19.12 12.8z" fill="#58E0A9"/>
<ellipse cx="433" cy="327.5" rx="37" ry="4.5" fill-opacity=".08"/>
<path d="m483.23 333.81h-86.25v37.92h86.25v-37.92z" fill="#4CC194"/>
<path d="m385.15 321.01v34.16l11.84 16.55-0.01-37.91-11.83-12.8z" fill="#19A566"/>
<path d="m445.61 353.91v0.9l-0.08 0.44-0.14 0.59-0.14 0.41-0.08 0.16-0.32 0.58-0.3 0.38-0.14 0.16-0.3 0.33-0.27 0.27-0.3 0.24-0.65 0.49-0.36 0.19-0.54 0.22-0.38 0.14-0.57 0.19-0.38 0.11-0.6 0.16-0.44 0.11-0.46 0.08-0.46 0.05h-1.04l-1.55-0.05-0.92-0.06-0.46-0.05-0.41-0.08-0.44-0.09-0.62-0.16-0.41-0.13-0.41-0.17-0.41-0.19-0.57-0.32-0.35-0.22-0.76-0.63-0.44-0.43-0.27-0.33-0.24-0.41-0.22-0.38-0.22-0.57-0.14-0.38-0.21-0.54-0.08-0.38-0.14-0.63 0.05-0.3 0.25-0.19 0.43-0.08 0.93-0.06 0.92 0.06h0.44l1.25-0.11h0.65l0.38 0.08 0.22 0.19 0.16 0.35 0.06 0.25 0.22 0.41 0.16 0.16 0.33 0.3 0.16 0.11 0.41 0.19 0.19 0.11 0.46 0.13 0.46 0.11 0.46 0.06h0.44l0.68-0.08 0.44-0.14 0.24-0.08 0.38-0.25 0.16-0.13 0.28-0.3 0.13-0.16 0.14-0.36 0.05-0.22v-0.36l-0.05-0.22-0.14-0.41-0.11-0.16-0.27-0.33-0.49-0.33-0.16-0.08-0.35-0.16-0.44-0.08-0.46-0.06h-1.15l-0.87 0.05h-1.19l-0.33-0.11-0.19-0.22-0.08-0.33-0.06-0.4v-2.25l0.09-0.35 0.11-0.19 0.16-0.09 0.92-0.08h0.44l0.84 0.08h1.01l0.6-0.08 0.46-0.11 0.22-0.08 0.43-0.19 0.19-0.14 0.3-0.3 0.14-0.16 0.16-0.41v-0.55l-0.19-0.4-0.14-0.22-0.43-0.44-0.35-0.16-0.41-0.08-0.38-0.06h-1.04l-0.68 0.06-0.41 0.08-0.21 0.08-0.38 0.17-0.19 0.13-0.33 0.27-0.11 0.17-0.19 0.35-0.14 0.33-0.24 0.16-0.38 0.08h-0.68l-1.14-0.05h-0.41l-0.82 0.05h-1l-0.33-0.08-0.14-0.08-0.08-0.17v-0.3l0.08-0.59 0.08-0.41 0.28-0.76 0.19-0.55 0.19-0.38 0.24-0.41 0.3-0.35 0.36-0.33 0.35-0.3 0.41-0.24 0.41-0.27 0.4-0.25 0.41-0.21 0.44-0.2 0.46-0.16 0.46-0.11 0.46-0.08h0.47l0.92-0.17 0.49-0.05h1.52l1.28 0.16 0.63 0.14 0.41 0.08 0.43 0.13 0.41 0.14 0.62 0.22 0.39 0.16 0.38 0.19 0.38 0.24 0.4 0.3 0.36 0.3 0.35 0.36 0.27 0.3 0.11 0.16 0.25 0.35 0.19 0.44 0.16 0.41 0.14 0.38 0.16 0.57 0.08 0.41v1.11l-0.08 0.41-0.05 0.16-0.14 0.36-0.38 0.7-0.33 0.52-0.24 0.3-0.46 0.43-0.19 0.22-0.09 0.22 0.11 0.22 0.63 0.43 0.32 0.27 0.28 0.28 0.27 0.3 0.24 0.32 0.3 0.6 0.14 0.44 0.08 0.46v0.43l0.03 0.36z" fill="#fff"/>
<path d="m132 376.8 99.92 0.14 0.067-47.69-99.92-0.14-0.067 47.69z" fill="#FFCD40"/>
<path d="m132.06 329.03 99.92 0.13 13.731-14.8-91.48-0.13-22.171 14.8z" fill="#FFED43"/>
<ellipse cx="191" cy="322.5" rx="37" ry="4.5" fill-opacity=".08"/>
<path d="m245.71 314.36-0.06 43.41-13.75 19.16 0.08-47.77 13.73-14.8z" fill="#E8B134"/>
<path d="m175.92 358.24v0.15l0.32 0.07h6.37l3.71-0.06h0.51l1.05-0.09h0.54l0.41 0.09 0.19 0.29 0.069 0.44v2.29l0.06 0.79v0.96l-0.06 0.31-0.129 0.2-0.19 0.09-1 0.16h-1.621l-2.319-0.13h-1.771l-2.799 0.16h-6.97l-1.78-0.07h-0.381l-0.219-0.12-0.07-0.2v-0.34l0.06-1.91v-0.51l-0.091-1.94v-0.5l0.101-1 0.19-0.95 0.09-0.51 0.16-0.54 0.16-0.51 0.1-0.25 0.22-0.51 0.25-0.41 0.54-0.57 0.35-0.32 0.57-0.44 0.38-0.26 0.69-0.5 0.41-0.22 0.67-0.32 0.47-0.16 0.8-0.25 0.54-0.13 0.54-0.1 0.51-0.06 1.62-0.09h1.65l0.57-0.13 0.25-0.12 0.48-0.29 0.22-0.22 0.289-0.42 0.191-0.66v-0.7l-0.07-0.25-0.15-0.51-0.13-0.23-0.32-0.38-0.41-0.19-0.7-0.19-0.44-0.06h-1.43l-0.45 0.09-0.661 0.23-0.419 0.22-0.191 0.13-0.309 0.35-0.16 0.19-0.23 0.47-0.15 0.45-0.291 0.19-0.479 0.12h-0.76l-1.34-0.07h-1.87l-0.83-0.09-0.41-0.07-0.22-0.12-0.1-0.16v-0.54l0.07-0.48 0.06-0.29 0.1-0.5 0.06-0.23 0.16-0.47 0.32-0.61 0.25-0.44 0.29-0.41 0.35-0.42 0.38-0.34 0.38-0.32 0.6-0.42 0.45-0.25 0.95-0.51 0.54-0.22 0.51-0.16 0.69-0.16 0.51-0.09 0.479-0.1 0.441-0.06h3.919l0.481 0.1 0.67 0.16 0.47 0.16 1 0.32 0.48 0.15 0.469 0.19 0.671 0.32 0.44 0.26 0.42 0.35 0.41 0.41 0.35 0.41 0.32 0.41 0.409 0.58 0.22 0.44 0.22 0.48 0.161 0.47 0.16 0.45 0.099 0.47 0.091 0.77v1.17l-0.061 0.45-0.159 0.73-0.13 0.47-0.191 0.54-0.22 0.48-0.349 0.6-0.291 0.41-0.41 0.54-0.349 0.35-0.51 0.48-0.41 0.25-0.67 0.35-0.471 0.19-0.539 0.16-0.51 0.16-0.54 0.1-0.51 0.09-0.73 0.07-0.51 0.06-0.54 0.09-0.51 0.1-0.76 0.06h-1.62l-0.54 0.09-0.25 0.1-0.48 0.22-0.19 0.16-0.35 0.35-0.25 0.38-0.19 0.44-0.07 0.26-0.091 0.41-0.029 0.2z" fill="#fff"/>
<path d="m387.87 301.26h-145.95l18.64-19.26h108.67l18.64 19.26z" fill="#B7ABFF"/>
<ellipse cx="307" cy="291.5" rx="37" ry="4.5" fill-opacity=".08"/>
<path d="m387.87 301.26h-145.95v80.33h145.95v-80.33z" fill="#7260E2"/>
<path d="m325.99 357.41v1l-0.17 0.76-0.41 0.35-0.41 0.29-0.41 0.18h-1.7l-2.52-0.12h-0.94l-7.9-0.11h-0.92l-5.92 0.23-1.93-0.12-0.65-0.17-0.23-0.18-0.12-0.35-0.06-0.59v-1.34l0.12-1.76-0.06-0.94-0.23-1.75v-0.88l0.06-0.41 0.23-0.65 0.65-0.12 2.34 0.18h0.94l1.34-0.06 0.71-0.12 0.35-0.17 0.17-0.41v-4.16l0.06-0.94 0.24-3.51v-0.88l-0.06-1.29-0.12-0.88-0.06-1.46-0.06-0.94 0.12-1.52 0.12-2v-0.65l-0.18-0.35-0.35-0.23-0.53-0.06-2.11 0.7-0.87 0.23-0.88 0.12h-0.76l-0.53-0.23-0.24-0.41-0.17-0.59-0.06-0.47v-0.93l0.12-1.47v-1l-0.12-1.82v-1l0.12-0.76 0.23-0.35 0.29-0.23 0.59-0.3 0.5-0.17 0.88-0.35 1.69-0.53 0.82-0.29 3.11-1.18 0.88-0.29 3.1-1 0.88-0.36 1.35-0.64 1-0.41 0.88-0.23 0.71-0.06 0.58 0.17 0.29 0.41 0.18 0.71 0.12 0.7-0.06 0.7-0.12 2.29-0.06 0.93v9.14l-0.17 3.57v0.94l0.23 3.63-0.06 0.94-0.23 3.57-0.06 0.94 0.23 3.63 0.06 0.59 0.18 0.35 0.35 0.23 0.7 0.06 4.22 0.06 0.35 0.12 0.24 0.53 0.06 0.41 0.05 0.88-0.11 1.75v0.94l0.11 1.96z" fill="#fff"/>
<path d="m403.09 244.76s2.462 2.931 2.586 3.817c0.123 0.887-0.542 3.202-0.899 2.709-0.266-0.636-0.408-1.317-0.419-2.007l-0.702-0.849c0.225 1.767 0.311 3.55 0.259 5.331-0.234 0.825-0.702 0.8-0.702 0.8s-0.062 0.727-0.53 0.838c-0.082 0.035-0.17 0.052-0.259 0.051-0.09-1e-3 -0.178-0.02-0.259-0.058-0.081-0.037-0.153-0.09-0.213-0.157-0.059-0.067-0.103-0.145-0.13-0.23 0 0-0.124 0.172-0.481 0-0.248-0.167-0.448-0.396-0.578-0.665 0 0-0.259 0.111-0.567-0.259-0.185-0.19-0.313-0.429-0.369-0.689 0-0.086-0.493-3.423-0.554-3.571-0.272-0.875-0.342-1.801-0.205-2.707 0.136-0.906 0.476-1.77 0.993-2.526 1.797-2.18 1.083-0.665 3.029 0.172z" clip-rule="evenodd" fill="#EFAF9E" fill-rule="evenodd"/>
<path d="m447.32 321.67c0.501 1.425 0.912 2.881 1.231 4.358 0 0 10.257 4.519 8.804 5.578-2.253 1.65-10.602-0.48-13.544-1.12v-4.704l3.509-4.112z" clip-rule="evenodd" fill="#1E1925" fill-rule="evenodd"/>
<path d="m415.71 320.51c-0.495 1.427-0.907 2.883-1.231 4.359 0 0-10.257 4.519-8.804 5.578 2.253 1.65 12.867-0.357 12.867-1.232v-4.703l-2.832-4.002z" clip-rule="evenodd" fill="#1E1925" fill-rule="evenodd"/>
<path d="m440.14 240.23c4.248 23.395 6.157 57.871 8.373 85.76-1.584 0.048-3.17-0.034-4.741-0.246-5.602-23.259-10.65-47.245-16.24-70.517-2.992 22.915-5.874 47.172-8.866 70.086-1.394 0.019-2.784-0.143-4.137-0.48-0.874-0.123-1.231-82.19-1.096-83.15 0.136-0.96 26.707-1.453 26.707-1.453z" clip-rule="evenodd" fill="#7B4652" fill-rule="evenodd"/>
<path d="m427.44 178.75c-0.197 1.835-0.308 7.757 3.312 9.038 1.033 0.414 2 0.978 2.869 1.675-0.099 5.577-13.101 7.055-18.531 2.007l2.155-2.562c4.543-0.923 2.585-8.619 2.364-12.239l7.831 2.081z" clip-rule="evenodd" fill="#EDA08C" fill-rule="evenodd"/>
<path d="m438.6 198.36c-0.591 20.563 3.004 35.609 3.829 46.925 0.357 5.848-30.659 9.924-30.647 5.06 0.579-16.659 0.8-34.39-1.047-49.72l0.062-9.715 0.837-0.184 5.615-1.786c1.178 1.039 2.563 1.816 4.064 2.278 1.501 0.463 3.083 0.602 4.641 0.407 5.356-0.678 4.802-3.805 4.802-3.805 2.463 0.394 4.926 0.6 7.376 0.994l0.468 9.546z" clip-rule="evenodd" fill="#895DD1" fill-rule="evenodd"/>
<path d="m414.56 169.91c-0.209 0.862 0.875 4.507 1.798 6.588s3.595 3.238 3.571 2.943c-0.025-0.296-0.665-7.721-0.665-7.721l-4.704-1.81z" clip-rule="evenodd" fill="#3D211A" fill-rule="evenodd"/>
<path d="m432.97 179.81c-0.923 5.085-3.14 6.588-6.76 4.827-2.981-1.564-5.374-4.053-6.821-7.093-0.586 0.086-1.184-0.023-1.702-0.31s-0.928-0.736-1.167-1.278c-0.415-0.592-0.602-1.314-0.527-2.033 0.074-0.72 0.406-1.388 0.933-1.882 0.221-0.161 0.48-0.258 0.751-0.284-0.071-1.527-0.038-3.057 0.099-4.58 0.135-2.894 7.917-5.689 11.316-3.916 4.235 2.204 4.531 12.941 3.878 16.549z" clip-rule="evenodd" fill="#EFAF9E" fill-rule="evenodd"/>
<path d="m420.49 168.48c-0.345 0.345 0.431 5.676-0.16 5.701-0.592 0.025-2.648-2.463-2.648-2.463s-0.111-0.147-0.751 0.284c-0.401 0.281-0.689 0.696-0.813 1.169 0 0-2.585-4.925-2.29-6.07 0.296-1.145 2.463-2.463 2.463-2.463 0.233-0.959 0.718-1.838 1.404-2.548 1.231-1.367 4.802-1.65 9.591-2.34 4.79-0.689 8.115 2.278 3.817 5.603-3.94 3.053-10.613 3.127-10.613 3.127z" clip-rule="evenodd" fill="#3D211A" fill-rule="evenodd"/>
<path d="m410.8 190.88c-6.87 2.967-11.205 31.324-11.722 55.199l4.433-1.047c0.633-15.131 3.565-30.077 8.693-44.327l-1.404-9.825z" clip-rule="evenodd" fill="#895DD1" fill-rule="evenodd"/>
<path d="m446.63 243.93s-2.463 2.931-2.586 3.817c-0.123 0.887 0.542 3.201 0.899 2.709 0.266-0.637 0.408-1.318 0.419-2.007l0.702-0.85c-0.225 1.768-0.311 3.551-0.259 5.332 0.234 0.825 0.702 0.8 0.702 0.8s0.061 0.727 0.529 0.837c0.082 0.036 0.171 0.053 0.26 0.052s0.177-0.021 0.258-0.058c0.082-0.037 0.154-0.091 0.213-0.157 0.06-0.067 0.104-0.146 0.131-0.231 0 0 0.123 0.173 0.48 0 0.249-0.166 0.449-0.395 0.579-0.664 0 0 0.259 0.11 0.567-0.259 0.185-0.191 0.313-0.43 0.369-0.69 0-0.086 0.492-3.423 0.554-3.57 0.271-0.876 0.341-1.801 0.205-2.707-0.137-0.906-0.476-1.77-0.993-2.526-1.798-2.18-1.084-0.665-3.029 0.172z" clip-rule="evenodd" fill="#EFAF9E" fill-rule="evenodd"/>
<path d="m438.13 188.82c6.871 2.967 11.993 32.556 12.511 56.431l-4.433-1.047c-0.634-15.131-3.565-30.077-8.693-44.327l0.615-11.057z" clip-rule="evenodd" fill="#895DD1" fill-rule="evenodd"/>
<path d="m419.23 166.09 1.231 2.574c1.724 0.185 7.388 0.763 8.619 0.148l-1.108-0.641c1.447 0.034 2.887-0.2 4.248-0.689 2.118-0.801 2.697-1.847 2.463-1.847l-1.712-0.111s0.985-0.135 2.069-2.278c1.083-2.142 1.293-3.152 1.083-2.955-0.209 0.197-1.563 0.702-1.502 0.505 0.062-0.197 0.185-1.798 0.185-1.798s-2.118 0.259-4.839 0.48c-2.721 0.222-11.451 1.65-11.476 2.389 0.169 1.42 0.416 2.83 0.739 4.223z" clip-rule="evenodd" fill="#3D211A" fill-rule="evenodd"/>
<path d="m213.4 239.76s-2.462 2.931-2.585 3.817c-0.123 0.887 0.541 3.202 0.898 2.709 0.266-0.636 0.408-1.317 0.419-2.007l0.702-0.849c-0.225 1.767-0.311 3.55-0.259 5.331 0.234 0.825 0.702 0.8 0.702 0.8s0.062 0.727 0.53 0.838c0.082 0.035 0.17 0.052 0.259 0.051 0.09-1e-3 0.178-0.02 0.259-0.058 0.081-0.037 0.153-0.09 0.213-0.157 0.059-0.067 0.103-0.145 0.131-0.23 0 0 0.123 0.172 0.48 0 0.248-0.167 0.448-0.396 0.579-0.665 0 0 0.258 0.111 0.566-0.259 0.185-0.19 0.313-0.429 0.369-0.689 0-0.086 0.493-3.423 0.554-3.571 0.272-0.875 0.342-1.801 0.205-2.707-0.136-0.906-0.476-1.77-0.993-2.526-1.797-2.18-1.083-0.665-3.029 0.172z" clip-rule="evenodd" fill="#EFAF9E" fill-rule="evenodd"/>
<path d="m169.18 316.67c-0.501 1.425-0.912 2.881-1.231 4.358 0 0-10.257 4.519-8.804 5.578 2.254 1.65 10.602-0.48 13.545-1.12v-4.704l-3.51-4.112z" clip-rule="evenodd" fill="#1E1925" fill-rule="evenodd"/>
<path d="m200.78 315.51c0.496 1.427 0.907 2.883 1.231 4.359 0 0 10.257 4.519 8.804 5.578-2.253 1.65-12.867-0.357-12.867-1.232v-4.703l2.832-4.002z" clip-rule="evenodd" fill="#1E1925" fill-rule="evenodd"/>
<path d="m176.36 235.23c-4.248 23.395-6.157 57.871-8.373 85.76 1.584 0.048 3.17-0.034 4.741-0.246 5.602-23.259 10.65-47.245 16.241-70.517 2.992 22.915 5.873 47.172 8.865 70.086 1.394 0.019 2.784-0.143 4.137-0.48 0.874-0.123 1.231-82.19 1.096-83.15s-26.707-1.453-26.707-1.453z" clip-rule="evenodd" fill="#7B4652" fill-rule="evenodd"/>
<path d="m189.05 173.75c0.197 1.835 0.308 7.757-3.312 9.038-1.033 0.414-2 0.978-2.869 1.675 0.099 5.577 13.101 7.055 18.531 2.007l-2.154-2.562c-4.544-0.923-2.586-8.619-2.364-12.239l-7.832 2.081z" clip-rule="evenodd" fill="#EDA08C" fill-rule="evenodd"/>
<path d="m177.89 193.36c0.591 20.563-3.004 35.609-3.829 46.925-0.357 5.848 30.66 9.924 30.647 5.06-0.579-16.659-0.8-34.39 1.047-49.72l-0.062-9.715-0.837-0.184-5.615-1.786c-1.178 1.039-2.563 1.816-4.064 2.278-1.501 0.463-3.083 0.602-4.641 0.407-5.356-0.678-4.802-3.805-4.802-3.805-2.463 0.394-4.925 0.6-7.376 0.994l-0.468 9.546z" clip-rule="evenodd" fill="#F5FBFB" fill-rule="evenodd"/>
<path d="m201.93 164.91c0.209 0.862-0.874 4.507-1.798 6.588-0.923 2.081-3.595 3.238-3.571 2.943 0.025-0.296 0.665-7.721 0.665-7.721l4.704-1.81z" clip-rule="evenodd" fill="#3D211A" fill-rule="evenodd"/>
<path d="m183.52 174.81c0.923 5.085 3.14 6.588 6.76 4.827 2.981-1.564 5.374-4.053 6.821-7.093 0.586 0.086 1.184-0.023 1.702-0.31s0.928-0.736 1.167-1.278c0.415-0.592 0.602-1.314 0.528-2.033-0.075-0.72-0.407-1.388-0.934-1.882-0.221-0.161-0.48-0.258-0.751-0.284 0.071-1.527 0.038-3.057-0.099-4.58-0.135-2.894-7.917-5.689-11.315-3.916-4.236 2.204-4.532 12.941-3.879 16.549z" clip-rule="evenodd" fill="#EFAF9E" fill-rule="evenodd"/>
<path d="m196.01 163.48c0.344 0.345-0.431 5.676 0.16 5.701s2.647-2.463 2.647-2.463 0.111-0.147 0.751 0.284c0.401 0.281 0.689 0.696 0.813 1.169 0 0 2.585-4.925 2.29-6.07-0.296-1.145-2.463-2.463-2.463-2.463-0.233-0.959-0.718-1.838-1.403-2.548-1.232-1.367-4.802-1.65-9.592-2.34-4.79-0.689-8.115 2.278-3.817 5.603 3.94 3.053 10.614 3.127 10.614 3.127z" clip-rule="evenodd" fill="#3D211A" fill-rule="evenodd"/>
<path d="m205.7 185.88c6.871 2.967 11.205 31.324 11.722 55.199l-4.433-1.047c-0.633-15.131-3.565-30.077-8.693-44.327l1.404-9.825z" clip-rule="evenodd" fill="#7FA8E6" fill-rule="evenodd"/>
<path d="m169.87 238.93s2.463 2.931 2.586 3.817c0.123 0.887-0.542 3.201-0.899 2.709-0.265-0.637-0.407-1.318-0.419-2.007l-0.701-0.85c0.224 1.768 0.311 3.551 0.258 5.332-0.234 0.825-0.702 0.8-0.702 0.8s-0.061 0.727-0.529 0.837c-0.082 0.036-0.171 0.053-0.26 0.052s-0.177-0.021-0.258-0.058-0.154-0.091-0.213-0.157c-0.059-0.067-0.104-0.146-0.131-0.231 0 0-0.123 0.173-0.48 0-0.249-0.166-0.448-0.395-0.579-0.664 0 0-0.259 0.11-0.566-0.259-0.186-0.191-0.314-0.43-0.37-0.69 0-0.086-0.492-3.423-0.554-3.57-0.271-0.876-0.341-1.801-0.205-2.707 0.137-0.906 0.476-1.77 0.993-2.526 1.798-2.18 1.084-0.665 3.029 0.172z" clip-rule="evenodd" fill="#EFAF9E" fill-rule="evenodd"/>
<path d="m178.36 183.82c-6.871 2.967-11.993 32.556-12.51 56.431l4.432-1.047c0.634-15.131 3.565-30.077 8.693-44.327l-0.615-11.057z" clip-rule="evenodd" fill="#7FA8E6" fill-rule="evenodd"/>
<path d="m197.26 161.09-1.231 2.574c-1.724 0.185-7.388 0.763-8.619 0.148l1.108-0.641c-1.446 0.034-2.887-0.2-4.248-0.689-2.118-0.801-2.697-1.847-2.463-1.847l1.712-0.111s-0.985-0.135-2.069-2.278c-1.083-2.142-1.293-3.152-1.083-2.955 0.209 0.197 1.564 0.702 1.502 0.505s-0.185-1.798-0.185-1.798 2.118 0.259 4.839 0.48c2.721 0.222 11.451 1.65 11.476 2.389-0.169 1.42-0.416 2.83-0.739 4.223z" clip-rule="evenodd" fill="#3D211A" fill-rule="evenodd"/>
<path d="m291.04 280.54c-0.53 1.505-0.969 3.041-1.314 4.599 0 0-10.84 4.782-9.303 5.899 2.378 1.748 11.208-0.512 14.335-1.182v-4.967l-3.718-4.349z" clip-rule="evenodd" fill="#1E1925" fill-rule="evenodd"/>
<path d="m324.45 279.32c0.533 1.508 0.972 3.049 1.314 4.612 0 0 10.853 4.769 9.316 5.886-2.378 1.748-13.6-0.381-13.6-1.314v-4.966l2.97-4.218z" clip-rule="evenodd" fill="#1E1925" fill-rule="evenodd"/>
<path d="m243.98 121.67c-0.16 0.64-0.177 1.307-0.05 1.955 0.127 0.647 0.396 1.258 0.786 1.79 1.07 1 2.408 1.666 3.85 1.918l2.116-2.404s-1.958-4.205-2.155-4.507-4.547 1.248-4.547 1.248z" clip-rule="evenodd" fill="#EDA08C" fill-rule="evenodd"/>
<path d="m298.63 194.47c-4.493 24.69-6.477 61.139-8.856 90.664 1.678 0.057 3.357-0.026 5.02-0.25 5.913-24.597 11.247-49.93 17.173-74.554 3.154 24.229 6.202 49.865 9.369 74.094 1.469 0.025 2.936-0.143 4.362-0.499 0.933-0.145 1.314-86.892 1.156-87.917-0.157-1.025-28.224-1.538-28.224-1.538z" clip-rule="evenodd" fill="#2B2B2B" fill-rule="evenodd"/>
<path d="m312.04 129.44c0.21 1.944 0.329 8.199-3.495 9.565-1.093 0.435-2.116 1.028-3.035 1.761 0.105 5.913 13.849 7.463 19.591 2.129l-2.273-2.707c-4.809-0.972-2.747-9.066-2.497-12.943l-8.291 2.195z" clip-rule="evenodd" fill="#EDA08C" fill-rule="evenodd"/>
<path d="m380.27 126.5s0.538-4.901 1.314-5.755c0.775-0.854 3.455-2.299 3.311-1.537-0.36 0.809-0.873 1.541-1.511 2.155l-0.171 1.393c1.451-1.755 3.037-3.394 4.743-4.901 0.973-0.5 1.314 0 1.314 0s1.143-0.894 1.59-0.539 0.223 0.985 0.145 1.196l-0.119 0.249s0.276 0 0.408 0.473c0.062 0.381 0.021 0.771-0.119 1.13 0 0 0.342 0.145 0.263 0.749-0.023 0.341-0.131 0.671-0.315 0.959-0.066 0.092-2.759 3.456-2.851 3.627-0.279 0.818-0.763 1.551-1.406 2.128-1.252 0.863-2.671 1.454-4.166 1.735-3.166-1.735-1.511-0.552-2.43-3.062z" clip-rule="evenodd" fill="#EFAF9E" fill-rule="evenodd"/>
<path d="m299.71 140.6c-17.082 2.812-36.069-4.796-48.538-16.175l-2.628 2.97c5.573 7.909 13.337 14.016 22.337 17.567 9.5 4.836 22.232 5.388 29.367 5.256 0.618 21.733-3.18 37.645-4.06 49.602-0.368 6.189 32.429 10.512 32.402 5.361-0.617-17.62-3.771-37.421-1.813-53.636 7.319 0 24.965 0 33.769-4.441 9.002-3.555 16.766-9.666 22.337-17.581l-2.628-2.956c-13.139 12.036-33.716 19.854-51.507 15.57l-5.926-1.878c-1.242 1.101-2.705 1.924-4.292 2.414-1.586 0.489-3.259 0.634-4.906 0.424-5.663-0.71-5.072-4.021-5.072-4.021-2.969 0.407-5.86 1.038-8.842 1.524z" clip-rule="evenodd" fill="#164072" fill-rule="evenodd"/>
<path d="m325.66 120.1c0.223 0.907-0.92 4.77-1.905 6.964-0.986 2.195-3.785 3.43-3.771 3.114 0.013-0.315 0.709-8.159 0.709-8.159l4.967-1.919z" clip-rule="evenodd" fill="#1E1925" fill-rule="evenodd"/>
<path d="m306.21 130.57c0.972 5.374 3.311 6.964 7.135 5.098 3.156-1.651 5.688-4.284 7.213-7.503 0.619 0.091 1.251-0.022 1.799-0.323 0.548-0.302 0.982-0.774 1.237-1.346 0.437-0.628 0.635-1.392 0.557-2.153-0.077-0.762-0.424-1.471-0.978-1.999-0.24-0.159-0.515-0.258-0.801-0.289 0.07-1.612 0.035-3.227-0.106-4.835-0.144-3.062-8.369-6.031-11.957-4.152-4.493 2.339-4.795 13.665-4.099 17.502z" clip-rule="evenodd" fill="#EFAF9E" fill-rule="evenodd"/>
<path d="m319.4 118.59c0.354 0.368-0.447 6.005 0.17 6.031 0.618 0.027 2.799-2.627 2.799-2.627s0.118-0.158 0.802 0.289c0.42 0.302 0.718 0.745 0.841 1.248 0 0 2.746-5.256 2.43-6.412-0.315-1.157-2.628-2.628-2.628-2.628-0.248-1.013-0.76-1.943-1.484-2.694-1.314-1.432-5.085-1.747-10.144-2.47s-8.567 2.405-4.034 5.926c4.192 3.259 11.248 3.337 11.248 3.337z" clip-rule="evenodd" fill="#1E1925" fill-rule="evenodd"/>
<path d="m320.38 116.94c-0.964 1.251-2.378 2.076-3.942 2.299-2.93 0.71-3.521-0.893-3.521-0.893-1.107 0.312-2.283 0.27-3.364-0.118-1.997-0.618-1.025-1.525-1.025-1.525s-0.539 0.933-2.299-0.446c-0.233-0.193-0.422-0.432-0.555-0.703-0.133-0.27-0.208-0.566-0.219-0.867-0.011-0.302 0.041-0.602 0.154-0.882s0.284-0.532 0.501-0.741l1.051-1.616c-0.027-0.38 0.028-0.761 0.161-1.117 0.134-0.356 0.344-0.679 0.615-0.946 0.972-1.13 2.982-0.631 2.982-0.631 0.375-0.304 0.81-0.525 1.277-0.647s0.954-0.144 1.43-0.063c1.1 0.103 2.126 0.597 2.891 1.393 0.974-0.375 2.025-0.505 3.061-0.381 0.476 0.097 0.926 0.292 1.322 0.573 0.395 0.28 0.729 0.64 0.978 1.056 0.953 0.132 1.828 0.598 2.47 1.314 0.22 0.351 0.35 0.75 0.377 1.163 0.028 0.413-0.048 0.826-0.219 1.203 0 0 1.734 0.262 1.682 1.642-0.164 0.883-0.641 1.678-1.343 2.238-0.703 0.56-1.584 0.848-2.481 0.81-0.525-0.066-1.011-0.314-1.373-0.7-0.363-0.386-0.579-0.887-0.611-1.415z" clip-rule="evenodd" fill="#1E1925" fill-rule="evenodd"/>
<path d="m246.56 118.56c0.336 0.303 0.57 0.702 0.67 1.143 0.473 1.209-1.051 4.021-2.155 4.441-1.104 0.421-1.59 0.552-1.826-0.775-0.171-0.933 0.906-3.456 1.76-4.717 0.5-0.709 0.775-0.801 1.551-0.092z" clip-rule="evenodd" fill="#EFAF9E" fill-rule="evenodd"/>
<path d="m250.13 125.48 1.038-1.117c-0.258-1.309-0.7-2.574-1.314-3.758-0.644-0.71-3.141-3.219-3.43-2.943s-0.407 0.972 0.237 2.273c0.426 0.793 1.1 1.425 1.918 1.8-0.223 1.192-0.201 2.417 0.066 3.6 0.434 1.406 1.485 0.145 1.485 0.145z" clip-rule="evenodd" fill="#EFAF9E" fill-rule="evenodd"/>
</svg>
