<svg width="323" height="506" viewBox="0 0 323 506" fill="none" xmlns="http://www.w3.org/2000/svg">
<path d="M262.028 501.44C262.028 501.44 60.7432 473.507 13.9518 407.838C-32.8395 342.169 59.7441 323.408 74.8609 238.767C89.6908 155.734 60.869 127.582 73.3849 72.0384C85.9008 16.4948 158.202 -20.1456 231.881 12.2565C305.559 44.6587 403.611 126.199 403.611 126.199C411.345 129.117 418.428 133.529 424.456 139.185C430.485 144.841 435.34 151.628 438.746 159.16C445.623 174.372 446.176 191.692 440.282 207.311L343.14 464.769C337.247 480.388 325.391 493.026 310.179 499.903C294.967 506.781 277.647 507.333 262.028 501.44Z" fill="#F7F9FE"/>
</svg>
