<svg width="7" height="13" viewBox="0 0 7 13" fill="none" xmlns="http://www.w3.org/2000/svg">
<path d="M6.33859 7.30914C6.70846 6.92214 6.70795 6.31251 6.33745 5.92612L1.74476 1.13643C1.70362 1.09352 1.65918 1.05274 1.60389 1.03091C1.50018 0.989978 1.30937 0.957956 1.12268 1.15265C0.897644 1.38707 1.03953 1.59761 1.09964 1.66741C1.11427 1.6844 1.13045 1.69991 1.14597 1.7161L5.19012 5.93382C5.56106 6.32067 5.56105 6.93118 5.1901 7.31803L1.37874 11.2928C1.35738 11.3151 1.33679 11.3382 1.32086 11.3646C1.26776 11.4528 1.16702 11.678 1.36406 11.8833C1.54612 12.0733 1.78049 11.9883 1.89609 11.9268C1.94507 11.9008 1.98629 11.8631 2.02463 11.823L6.33859 7.30914Z" fill="#1D7DEA" stroke="#1D7DEA" stroke-width="0.5" stroke-linecap="round" stroke-linejoin="round"/>
</svg>
