<svg width="24" height="24" viewBox="0 0 24 24" fill="none" xmlns="http://www.w3.org/2000/svg">
<path d="M19.9432 18.5421L16.9841 15.6262C18.0084 14.3551 18.5775 12.8224 18.5775 11.1776C18.5775 9.27103 17.8187 7.43925 16.453 6.09346C15.0872 4.74766 13.2283 4 11.2935 4C9.35867 4 7.49973 4.74766 6.13398 6.09346C3.28867 8.8972 3.28867 13.4579 6.13398 16.2617C7.57561 17.6822 9.43455 18.3551 11.2935 18.3551C12.8869 18.3551 14.4802 17.8318 15.808 16.8224L18.7672 19.7383C18.9189 19.8878 19.1465 20 19.3742 20C19.6018 20 19.8294 19.9252 19.9812 19.7383C20.2847 19.4019 20.2847 18.8785 19.9432 18.5421ZM7.31005 15.0654C5.10967 12.8972 5.10967 9.42056 7.31005 7.25234C8.3723 6.20561 9.77598 5.64486 11.2555 5.64486C12.7351 5.64486 14.1388 6.20561 15.201 7.25234C16.2633 8.29906 16.8324 9.68224 16.8324 11.1402C16.8324 12.5981 16.2633 13.9813 15.201 15.028C13.0386 17.2336 9.47248 17.2336 7.31005 15.0654Z" fill="#666666"/>
</svg>
