<svg width="20" height="20" viewBox="0 0 20 20" fill="none" xmlns="http://www.w3.org/2000/svg">
<path d="M2.67278 10.7019L2.70177 10.9774L2.48352 11.1481L0.648052 12.5833C0.647648 12.5836 0.647243 12.584 0.646839 12.5843C0.500834 12.7011 0.454187 12.9091 0.550301 13.0892L2.46688 16.4083L2.46701 16.4082L2.47284 16.4189C2.53372 16.5305 2.66121 16.61 2.80471 16.61C2.85335 16.61 2.90051 16.6013 2.94816 16.5831L5.12008 15.711L5.37386 15.6091L5.59656 15.7678C6.00802 16.061 6.40834 16.2933 6.81243 16.4761L7.06241 16.5892L7.10133 16.8607L7.43215 19.1691L7.43224 19.1691L7.43341 19.1785C7.45442 19.3479 7.61257 19.5 7.81971 19.5H11.653C11.8577 19.5 12.0178 19.3512 12.0401 19.1704L12.04 19.1704L12.0414 19.1607L12.3714 16.8607L12.4104 16.5888L12.6608 16.4759C13.0799 16.2869 13.4867 16.0507 13.8756 15.7703L14.0989 15.6093L14.3543 15.7119L16.5155 16.5795C16.7343 16.6571 16.9177 16.5674 17.0046 16.4088L17.0045 16.4088L17.0101 16.399L18.9183 13.0976C19.021 12.9049 18.9689 12.6981 18.8284 12.586C18.8281 12.5857 18.8278 12.5855 18.8274 12.5852L16.9901 11.149L16.7722 10.9787L16.8007 10.7036C16.8285 10.4348 16.8413 10.2083 16.8413 10C16.8413 9.79173 16.8285 9.5652 16.8007 9.29753L16.7721 9.02239L16.99 8.85198L18.8258 7.41647C18.8262 7.41621 18.8265 7.41594 18.8268 7.41567C18.981 7.29273 19.0199 7.07307 18.9227 6.90878L18.9227 6.90879L18.9201 6.90439L17.006 3.59271L17.0059 3.59279L16.9998 3.58171C16.9211 3.43718 16.7033 3.34935 16.524 3.41716L14.3527 4.28899L14.099 4.39084L13.8763 4.2323C13.4654 3.93973 13.0645 3.70679 12.661 3.52507L12.4104 3.41219L12.3714 3.14009L12.0406 0.830908L12.0405 0.83092L12.0393 0.821573C12.0182 0.651467 11.8604 0.5 11.6538 0.5H7.82053C7.61588 0.5 7.45556 0.649686 7.4334 0.828244L7.43349 0.828255L7.43214 0.837667L7.10214 3.13849L7.06308 3.41086L6.81208 3.5236C6.39356 3.71159 5.98695 3.94765 5.59725 4.22881L5.37395 4.38991L5.11843 4.28733L2.95693 3.41959C2.74101 3.34264 2.55462 3.43226 2.46839 3.58992L2.46851 3.58999L2.4626 3.6002L0.554611 6.90136C0.451752 7.09485 0.504539 7.30145 0.644642 7.41286C0.644938 7.41309 0.645233 7.41333 0.645529 7.41356L2.48346 8.85025L2.70271 9.02165L2.67259 9.29831C2.64984 9.50719 2.63221 9.74764 2.63221 9.99918C2.63221 10.2499 2.65053 10.4903 2.67278 10.7019ZM13.5705 10C13.5705 12.1145 11.8517 13.8333 9.73721 13.8333C7.62274 13.8333 5.90389 12.1145 5.90389 10C5.90389 7.88554 7.62274 6.16668 9.73721 6.16668C11.8517 6.16668 13.5705 7.88554 13.5705 10Z" fill="white" stroke="#666666"/>
</svg>
