<svg xmlns="http://www.w3.org/2000/svg" width="40" height="40" fill="none"><g clip-path="url(#A)" fill="#fff" stroke="#fff" stroke-width=".3"><path d="M28.397-.001H11.603a2.94 2.94 0 0 0-2.937 2.937v34.126a2.94 2.94 0 0 0 2.937 2.937h16.793a2.94 2.94 0 0 0 2.937-2.937V2.936a2.94 2.94 0 0 0-2.937-2.937zM10 5.332h20v25.333H10V5.332zm1.603-4h16.793c.885 0 1.604.72 1.604 1.603V4H10V2.936c0-.884.72-1.603 1.603-1.603zm16.793 37.333H11.603c-.884 0-1.603-.72-1.603-1.603V32h20v5.063c0 .884-.72 1.603-1.603 1.603zm-8.396-6a2.67 2.67 0 0 0-2.667 2.667A2.67 2.67 0 0 0 20 37.999a2.67 2.67 0 0 0 2.667-2.667A2.67 2.67 0 0 0 20 32.666zm0 4c-.735 0-1.333-.598-1.333-1.333S19.265 34 20 34s1.333.598 1.333 1.333-.598 1.333-1.333 1.333zM17.333 3.332H20c.37 0 .667-.298.667-.667S20.37 2 20 2h-2.667c-.37 0-.667.298-.667.667s.298.667.667.667zm4.667 0h.667c.37 0 .667-.298.667-.667S23.036 2 22.667 2H22c-.37 0-.667.298-.667.667s.298.667.667.667zm15.74-.287a.67.67 0 0 0-.943 0c-.26.26-.26.682 0 .943a6.4 6.4 0 0 1 0 9.035.67.67 0 0 0 0 .943c.13.13.3.195.47.195s.34-.065.47-.195c3-3 3-7.9 0-10.92zm-2.806 1.517a.67.67 0 0 0-.943 0c-.26.26-.26.682 0 .943.825.825 1.28 1.923 1.28 3.093s-.454 2.267-1.28 3.092a.67.67 0 0 0 0 .943c.13.13.3.195.47.195s.34-.065.47-.195c1.077-1.076 1.67-2.5 1.67-4.035a5.66 5.66 0 0 0-1.67-4.035zM3.202 3.988a.67.67 0 0 0 0-.943c-.26-.26-.682-.26-.943 0-3 3-3 7.9 0 10.92.13.13.3.195.47.195s.34-.065.47-.195a.67.67 0 0 0 0-.943 6.4 6.4 0 0 1 0-9.035zm2.806.4a.67.67 0 0 0-.943 0c-1.077 1.076-1.67 2.5-1.67 4.035a5.67 5.67 0 0 0 1.669 4.035c.13.13.3.195.47.195s.34-.065.47-.195a.67.67 0 0 0 0-.943c-.825-.825-1.28-1.923-1.28-3.093A4.34 4.34 0 0 1 6.003 5.32a.67.67 0 0 0 0-.943z"/></g><defs><clipPath id="A"><path fill="#fff" transform="translate(0 -.001)" d="M0 0h40v40H0z"/></clipPath></defs></svg>