<svg width="344" height="360" viewBox="0 0 344 360" fill="none" xmlns="http://www.w3.org/2000/svg">
<g clip-path="url(#clip0)">
<path d="M24.3629 194.727C24.3629 194.727 10.683 72.6057 12.1581 5.78601C12.1702 5.25617 12.6157 4.83471 13.1757 4.81063C28.4934 4.18446 217.164 -3.29949 320.588 1.73998C321.154 1.77009 321.594 2.20961 321.594 2.74547C321.54 14.3055 320.817 128.287 313.881 194.733H24.3629V194.727Z" fill="#F5AE4C"/>
<path d="M318.36 35.7579C317.715 76.453 315.969 145.175 311.297 191.855H26.939C26.1803 184.835 23.8983 163.286 21.526 136.09C20.7734 133.41 20.0629 130.719 19.3945 128.016C22.1582 160.878 24.9941 187.279 25.6504 193.288H312.591C317.517 145.115 319.251 73.0452 319.853 32.3802C319.341 33.5001 318.847 34.626 318.36 35.7579Z" fill="#DF9031"/>
<path d="M236.874 2.87781C241.408 2.39614 245.942 1.93855 250.476 1.49301C244.304 1.45086 237.94 1.4328 231.383 1.4328C205.817 1.4328 179.457 1.72782 154.259 2.17939C148.96 2.70923 143.662 3.28723 138.375 3.92544C168.24 3.31131 200.428 2.87179 231.383 2.87179C233.225 2.87179 235.056 2.87179 236.874 2.87781Z" fill="#DF9031"/>
<path d="M28.028 190.898C25.8785 170.927 15.2272 68.5236 16.1725 8.51955C37.2523 7.68264 139.46 3.82928 231.378 3.82928C265.47 3.82928 294.431 4.36514 317.522 5.42482C317.389 26.3895 316.426 127.865 310.194 190.898H28.028Z" fill="#9A5409"/>
<path d="M29.4977 189.368C27.0772 166.7 17.0401 68.8064 17.7747 9.98845C40.8475 9.08532 141.345 5.3584 231.379 5.3584C264.663 5.3584 293.083 5.87017 315.891 6.88168C315.728 29.7068 314.692 127.564 308.719 189.368H29.4977Z" fill="#395A4B"/>
<path d="M281.976 161.913L279.357 157.915L278.057 162.009C278.472 163.448 280.935 164.418 281.976 161.913Z" fill="#3A5255"/>
<path d="M284.917 159.752C285.874 159.547 286.735 159.234 287.512 158.818L285.398 156.302C284.718 157.217 284.122 158.319 284.917 159.752Z" fill="#3A5255"/>
<path d="M283.174 166.537C281.885 166.043 282.307 164.611 282.192 163.774C280.163 166.971 278.333 171.842 281.801 174.732C282.969 169.632 284.36 170.944 285.431 165.008C287.677 163.479 290.26 164.448 290.489 166.11C290.688 165.441 291.633 165.237 292.603 164.875L289.935 161.696C287.388 162.154 285.088 163.81 283.174 166.537Z" fill="#3A5255"/>
<path d="M288.399 158.283C288.116 158.481 287.815 158.656 287.508 158.818L289.928 161.702C290.332 161.63 290.747 161.588 291.163 161.576L288.399 158.283Z" fill="#3A5255"/>
<path d="M281.194 76.9587C282.284 76.3686 282.579 75.7545 282.477 75.3691C281.538 76.0916 280.785 76.7178 281.194 76.9587Z" fill="#3A5255"/>
<path d="M265.167 135.903C265.781 137.475 265.667 138.637 265.119 139.612C265.613 140.124 266.335 140.599 267.395 141.057C268.371 140.286 266.004 137.378 265.167 135.903Z" fill="#3A5255"/>
<path d="M287.217 149.306C287.187 149.498 287.157 149.685 287.145 149.835C287.169 149.655 287.193 149.48 287.217 149.306Z" fill="#3A5255"/>
<path d="M88.7637 12.5415C88.9202 12.7642 89.0828 12.8365 89.2333 13.0111C89.1911 12.5234 89.0768 12.2645 88.7637 12.5415Z" fill="#3A5255"/>
<path d="M43.9219 50.2922L44.6323 49.7443C44.4216 49.064 44.2169 48.3956 43.9279 47.7695L43.9219 50.2922Z" fill="#3A5255"/>
<path d="M244.237 89.0065C243.876 88.9041 243.485 88.8981 243.111 88.8499C242.774 89.169 242.365 89.5182 242.016 89.8373C242.756 89.5604 243.485 89.2714 244.237 89.0065Z" fill="#3A5255"/>
<path d="M220.088 71.805C218.348 72.3168 216.638 72.8827 214.916 73.4306C216.789 73.7317 218.39 73.5209 219.901 73.0935C219.992 72.678 220.154 72.2806 220.088 71.805Z" fill="#3A5255"/>
<path d="M272.109 171.053L273.055 171.005C272.808 170.86 272.489 170.848 272.109 171.053Z" fill="#3A5255"/>
<path d="M295.065 66.4764C293.777 68.951 292.621 71.5941 287.961 72.6538C289.05 73.292 290.532 74.9297 289.966 77.0972C289.321 75.5137 289.008 73.4425 288.232 73.0813C287.979 75.6161 285.076 77.603 282.126 79.6862C281.669 80.0173 281.217 80.3485 280.765 80.6857C278.79 79.4153 278.255 77.049 280.103 75.4294C281.44 74.6949 282.313 74.8575 282.463 75.3753C284.101 74.0326 286.293 72.3287 283.312 71.7748L283.192 73.5509C280.579 73.3944 275.551 75.3753 273.468 75.1163C276.135 73.9363 278.809 72.7682 281.47 71.6002C285.372 69.9083 289.207 68.1382 292.904 66.1332L291.393 63.0445C291.754 62.7194 292.121 62.3762 292.482 62.0089L281.404 39.4005C281.03 39.7016 280.651 40.0267 280.272 40.3518L278.405 36.5346C275.419 38.5456 272.565 40.695 269.891 43.0733C270.457 41.5921 269.837 40.4361 271.601 39.4607C270.259 39.3042 268.699 39.7136 267.146 40.4542C265.598 41.2188 264.051 42.3086 262.714 43.4887C260.035 45.8489 258.204 48.5462 258.843 49.6842C255.953 51.0931 257 48.0525 254.628 47.9502C252.268 48.2813 250.443 50.5813 248.763 52.6043C247.083 54.6273 245.584 56.4215 243.754 55.693C243.368 55.5485 243.669 54.9765 244.079 54.4166C242.869 55.6208 240.701 56.9454 239.003 58.1736C237.654 59.143 236.619 60.0762 236.577 60.8348C234.891 62.2618 233.391 64.062 231.663 64.4594L231.152 62.4063C228.894 63.6887 227.358 64.9772 226.154 66.2416C224.95 67.4999 224.077 68.7342 223.174 69.9444C222.445 70.9198 221.693 71.8831 220.729 72.8405C220.452 72.9368 220.181 73.0331 219.898 73.1054C219.856 73.3342 219.796 73.5449 219.73 73.7556C218.423 74.8575 216.761 75.9773 214.425 77.1153L215.786 77.7836C215.142 78.1689 214.479 78.5362 213.841 78.8975C212.546 79.632 211.354 80.3665 210.632 81.2516C210.62 81.2637 210.614 81.2817 210.602 81.2938C209.578 81.2516 208.512 81.5045 207.386 83.0398C206.953 83.0519 206.489 83.1301 206.014 83.2566L202.702 80.2221C201.185 81.7995 198.578 84.7317 195.627 87.8023C193.983 88.7476 192.159 89.9698 190.431 91.2703L195.326 88.1094C193.713 89.7832 192.003 91.4811 190.317 93.0224C189.967 92.8358 189.745 92.4685 189.745 91.7821C189.245 92.1795 188.763 92.5829 188.3 92.9923C189.293 91.174 190.648 89.3376 192.123 87.5495C194.182 85.099 196.422 82.7388 198.126 80.6134C199.204 79.8548 200.233 79.0841 201.215 78.2954C202.648 77.2056 203.997 76.0857 205.273 74.9297C207.832 72.6297 210.102 70.1792 212.402 67.801C213.54 66.5968 214.666 65.3686 215.792 64.1343C216.924 62.906 218.044 61.6296 219.248 60.4435C220.229 59.45 221.235 58.4566 222.271 57.4692C223.011 57.2283 223.752 56.9935 224.504 56.7708C227.509 55.8977 230.556 55.0789 233.644 54.3805C232.229 54.3022 231.236 53.7904 230.628 53.08C233.235 52.6946 236.071 51.7433 239.075 50.4549L228.364 21.6751C225.666 22.0002 222.8 22.4999 219.85 23.0599C218.923 23.2405 217.984 23.4272 217.038 23.6138C217.038 23.6078 217.032 23.6018 217.032 23.5897C217.032 23.5957 217.026 23.6078 217.026 23.6138C216.478 23.7222 215.924 23.8306 215.37 23.9389C213.871 24.2821 212.366 24.6253 210.861 24.9685C207.85 25.6489 204.827 26.269 201.895 26.7868C198.975 27.3588 196.127 27.7802 193.418 27.9428C195.995 28.292 194.339 32.4103 191.894 33.7409C189.986 33.6807 187.926 35.4508 186.204 36.5165C184.482 37.5883 183.103 38.0037 182.537 35.3726L183.796 35.0715C181.688 33.0064 178.937 32.8498 176.041 33.5001C173.157 34.1804 170.116 35.6014 167.334 36.5165L168.839 43.4165C166.618 42.8324 164.408 42.7481 162.192 42.9528C159.976 43.1576 157.773 43.6693 155.587 44.3738C155.105 44.5243 154.63 44.6929 154.154 44.8675C153.745 42.8625 155.4 41.5921 151.613 41.2971C152.065 39.3764 152.36 37.2812 153.6 35.8121C155.539 35.9325 157.496 35.9024 159.296 35.8663C159.145 37.1006 158.995 38.3348 158.85 39.5631C160.548 39.0513 161.717 38.4613 162.559 37.799C163.276 37.233 163.752 36.6189 164.125 35.9987C165.299 36.1432 166.25 36.4082 166.877 36.9019C168.093 35.7338 169.442 34.5838 170.863 33.4158L159.158 7.58624C158.164 8.04985 157.159 8.5255 156.147 9.00115L155.894 8.44121C153.124 8.71215 152.372 9.68753 152.089 10.9158C150.355 11.7587 148.675 12.6739 147.085 13.6312L146.411 12.9809C144.231 14.6066 142.082 16.4068 139.938 18.2974C138.15 19.8869 136.404 21.5968 134.646 23.3128C133.863 22.8311 133.177 22.1146 132.502 21.8196C133.821 20.5432 135.736 19.8869 136.235 18.6285C135.019 19.5678 133.423 20.507 131.713 21.4222C130.003 22.3494 128.173 23.2526 126.535 24.258C123.254 26.2449 120.641 28.3402 120.99 30.887C113.373 31.8323 122.995 25.0829 114.023 29.9116L114.674 27.991C111.976 28.0933 109.58 28.6232 107.388 29.4059C107.165 29.4842 106.955 29.5805 106.732 29.6648L97.2969 16.0155C95.8759 16.2443 94.461 16.6176 93.0761 17.2196L90.9326 14.1189C90.3486 14.0226 89.7946 13.6733 89.2287 13.0171C89.3611 14.8474 87.6993 20.9405 85.3992 23.5416C85.0139 14.1189 75.8558 32.32 71.7976 25.7934C72.0385 27.5635 71.6411 29.2493 70.8463 30.893L63.9281 37.1849C55.2276 39.5511 61.6882 29.0567 49.7544 34.1383C45.7203 36.8958 39.8678 45.4455 42.1016 45.9573C43.9079 45.2348 47.1593 45.0541 48.1769 46.8965L44.6365 49.7444C45.8407 53.5676 46.1056 57.8967 49.2366 60.3231C48.773 61.7259 48.3575 63.1168 48.213 64.4474C40.6204 64.8748 46.4187 57.6558 41.7644 55.4763C44.9195 58.282 37.6099 65.4348 41.4574 66.5788C36.1588 67.4277 37.7122 68.1442 33.082 66.645C34.4849 68.4573 34.6415 69.4447 34.2561 70.2093L52.777 92.3963C53.6501 91.174 56.191 91.0837 56.6004 87.6458C60.0204 87.2123 61.2125 88.29 62.0856 88.7476C62.2963 88.862 62.495 88.9403 62.6997 88.9583C61.7785 90.2528 60.8332 91.5172 59.8518 92.7274C58.762 94.1182 57.642 95.4549 56.492 96.6771C55.342 97.9053 54.1558 99.0252 52.9456 100.013C51.7655 101.024 50.5552 101.891 49.3209 102.596L49.7123 100.26C46.9787 102.596 46.6415 105.16 46.6054 107.635C46.5271 107.768 46.4488 107.894 46.3766 108.026C46.0274 107.256 45.3109 105.757 46.7619 104.336C45.1904 105.51 42.4027 107.129 39.6209 108.96L45.2266 114.336C44.6666 115.011 43.8778 115.637 42.77 116.203L43.0951 114.637C42.6556 115.113 42.222 115.595 41.7825 116.088L57.9371 131.598C58.9667 130.918 59.9842 130.201 60.9958 129.473L65.1564 133.465C67.1915 131.255 69.1483 128.877 69.9973 126.781C70.6235 125.258 70.6897 123.897 69.7384 122.85C72.3997 120.845 75.0309 118.84 77.6561 116.961C80.9617 114.734 84.2492 112.681 87.5307 111.049C90.8543 109.483 94.196 108.376 97.5137 107.906C97.2728 106.407 98.0796 105.185 99.4404 104.191C100.795 103.192 102.656 102.349 104.438 101.47C106.22 100.591 107.924 99.6755 109.002 98.5255C110.098 97.4056 110.561 96.0449 109.815 94.2206C114.957 93.5282 117.07 93.8413 119.527 93.781C121.989 93.7389 124.843 93.3957 131.304 91.4329C132.942 90.7405 133.592 89.1149 134.26 87.2424C134.935 85.388 135.651 83.3409 137.464 81.9922L138.571 84.1236C137.102 85.6469 135.784 87.0557 134.453 88.567C133.056 90.1204 131.695 91.8544 130.124 93.9557C129.335 95.0033 128.498 96.1412 127.583 97.4056C127.125 98.0378 126.65 98.7001 126.15 99.3925C125.65 100.085 125.132 100.819 124.609 101.608C125.656 101.518 126.62 101.265 127.336 101.235C128.053 101.193 128.516 101.355 128.588 102.096C127.812 103.21 126.517 104.065 125.265 104.438C124.018 104.811 122.844 104.727 122.399 104.017L122.646 103.258C120.653 107.153 117.498 110.308 114.005 113.337C112.235 114.83 110.339 116.251 108.388 117.63C106.437 119.027 104.492 120.423 102.565 121.802C100.633 123.187 98.7058 124.56 96.9116 125.981C95.1534 127.432 93.4976 128.907 92.0285 130.436C90.5653 131.971 89.2768 133.543 88.2954 135.217C87.4765 136.662 86.8624 138.167 86.5011 139.738C86.2783 139.781 86.0435 139.829 85.7846 139.895C85.9773 140.021 86.1459 140.16 86.2843 140.298L84.183 145.326C83.3762 145.904 82.4188 146.446 81.3471 146.903L83.6471 146.62C83.039 148.144 82.4549 149.667 81.8709 151.196C80.9196 151.347 79.9742 151.365 79.0229 151.407C78.8423 150.612 78.3305 150.179 76.8674 151.028C76.3556 152.912 75.7535 154.604 75.0911 156.151L96.9176 177.447C98.1098 176.056 99.3381 174.87 100.578 173.81L101.506 174.714C103.384 173.955 105.148 172.793 106.407 169.68C106.63 169.542 106.858 169.403 107.081 169.271V171.992C107.509 170.89 108.267 169.536 109.189 168.018C113.042 165.767 116.715 163.449 119.876 159.288C125.223 160.559 130.455 157.711 135.802 153.857L148.693 170.788C149.518 169.927 150.331 169.078 151.149 168.253L151.649 168.916C152.444 167.88 153.173 166.754 153.889 165.592C154.696 164.845 155.521 164.117 156.382 163.406C159.158 161.155 162.301 159.132 166.25 157.392C169.719 156.374 165.793 160.631 165.275 162.118C174.355 154.526 184.856 150.859 193.448 144.633L203.846 157.741C205.381 156.211 207.013 154.58 208.765 152.834C210.541 151.118 212.426 149.251 214.546 147.391L214.16 149.763C219.224 148.457 225.811 143.676 230.881 141.701C231.362 139.353 234.198 138.083 231.266 136.722C233.717 136.806 235.926 136.559 237.986 136.09C240.039 135.608 241.911 134.867 243.694 133.988C247.234 132.2 250.347 129.762 253.424 127.317C255.399 125.746 257.373 124.174 259.427 122.796C260.896 133.025 251.292 132.832 249.606 143.02C251.395 132.971 248.203 139.708 245.783 136.439C243.435 137.252 240.183 138.793 240.045 137.318C239.503 142.52 233.428 140.449 232.777 147.909C232.41 147.674 231.946 147.927 231.411 148.27L199.824 168.946L241.996 165.387C243.248 165.279 244.88 164.966 244.952 167.224C249.733 164.629 243.067 165.466 243.001 163.78C248.312 158.301 258.337 161.245 266.971 157.404C266.796 157.933 266.616 158.469 266.423 159.011C265.689 161.1 264.749 163.166 263.455 165.014C262.287 164.496 262.275 163.449 262.485 162.25C262.594 161.648 262.768 161.028 262.913 160.426C263.045 159.812 263.16 159.228 263.154 158.722C262.293 160.071 261.088 161.564 259.908 163.105L269.103 178.579C272.547 176.141 275.708 173.413 275.774 170.854L273.064 170.999C273.944 171.505 274.022 173.72 273.197 174.629C271.511 177.02 269.711 177.248 268.326 176.779L261.113 164.647C262.269 164.767 263.346 165.381 263.81 165.767L262.931 166.971L267.152 174.075L268.663 172.931C267.796 172.155 266.941 171.721 266.068 171.565L264.617 169.126C267.248 168.982 269.181 166.194 270.554 163.021C270.915 162.238 271.21 161.395 271.535 160.601C271.848 159.794 272.125 158.975 272.438 158.216C272.727 157.44 273.034 156.705 273.384 156.037C273.709 155.35 274.076 154.742 274.516 154.213C275.509 155.965 276.478 157.813 277.351 159.686C277.562 156.868 277.598 154.122 277.394 151.449C278.375 151.22 279.639 151.238 280.573 151.738C281.488 152.232 282.09 153.243 281.524 154.935C282.776 154.225 283.409 153.508 283.758 152.87C284.119 152.232 284.149 151.63 284.185 151.07C284.264 149.974 284.294 149.035 286.335 147.722L287.31 148.685C287.286 148.89 287.262 149.095 287.232 149.3C287.262 149.107 287.298 148.902 287.322 148.697L288.484 149.841C288.689 149.781 288.906 149.733 289.135 149.703L287.383 147.975C287.449 147.132 287.533 146.301 287.569 145.47C287.599 144.585 287.654 143.718 287.648 142.839C288.045 143.489 289.026 143.616 289.701 143.905C290.381 144.194 290.718 144.669 289.785 146.036C290.297 145.398 290.76 144.76 291.116 144.104C291.471 143.447 291.76 142.797 291.989 142.165L295.945 131.357L284.306 134.578C281.434 135.373 279.356 137.029 277.574 138.293L276.81 137.535C276.719 137.691 276.611 137.854 276.496 138.01L277.111 138.618C276.322 139.16 275.587 139.588 274.859 139.799C275.124 139.546 275.395 139.287 275.66 139.016C275.967 138.685 276.256 138.348 276.496 138.01L275.66 137.186C274.889 138.034 273.962 138.889 273.287 139.859C272.89 139.768 272.486 139.588 272.071 139.299L272.649 138.757C261.871 144.152 272.781 142.966 265.725 150.209L262.401 147.295C263.286 144.832 263.316 144.26 260.468 145.597L258.475 143.851C261.028 142.586 263.997 141.557 265.123 139.606C261.823 136.09 270.596 131.104 274.774 124.512C275.599 125.987 286.708 116.052 292.916 112.175L293.349 112.891C292.23 110.947 292.741 108.96 293.94 106.937L288.454 98.682C289.135 98.7001 289.851 98.7784 290.598 98.9169C292.043 94.4975 283.439 100.633 284.089 96.1834L284.938 95.7198C287.605 94.7203 290.79 94.5939 293.59 94.7263C296.685 94.8588 299.256 95.214 300.087 94.7384C304.175 93.8051 305.169 91.6015 306.078 89.2293L295.065 66.4764ZM270.289 158.921C270.006 158.144 269.596 157.205 269.229 156.193C270.174 155.609 271.09 154.917 271.975 154.098C272.083 154.574 272.246 155.031 272.354 155.477C272.619 156.585 272.559 157.735 270.289 158.921ZM275.383 151.678C275.738 151.413 276.075 151.154 276.4 150.895C276.262 151.407 276.129 151.937 275.991 152.485C275.858 152.087 275.647 151.834 275.383 151.678ZM282.801 144.609C282.861 144.549 282.921 144.489 282.975 144.423L283.914 145.35C283.451 145.32 283.09 145.025 282.801 144.609ZM287.346 147.957L286.877 147.493C287.178 147.457 287.304 147.65 287.346 147.957ZM285.426 142.068C285.426 142.147 285.426 142.225 285.426 142.303C285.414 143.098 285.317 143.965 285.197 144.898C284.98 145.049 284.775 145.157 284.589 145.229L283.367 144.025C284.005 143.375 284.679 142.719 285.426 142.068ZM247.276 150.817C248.203 148.83 249.311 146.62 251.936 145.91C252.135 146.428 252.201 146.915 252.201 147.373C252.027 147.734 252.033 147.957 252.129 148.119C251.961 149.059 251.539 149.799 251.407 150.269C250.052 150.197 248.661 150.437 247.276 150.817ZM257.066 146.741C256.416 146.867 255.417 147.054 254.628 146.939C255.11 146.012 255.971 145.284 257.012 144.645L257.066 146.741ZM196.85 139.883C196.145 136.704 202.088 130.057 202.359 127.907C202.6 134.657 210.445 127.42 212.402 131.418C209.566 132.236 206.447 133.326 205.285 136.276C206.116 134.837 204.28 131.971 204.466 132.838C202.389 134.241 200.504 135.915 198.662 137.83C198.054 138.486 197.452 139.178 196.85 139.883ZM65.5236 82.6123C66.5292 81.7032 67.336 81.1192 68.0103 80.782C67.3842 81.8236 66.7399 82.8712 66.0595 83.9249C66.0415 83.955 66.0174 83.9851 65.9993 84.0152C65.7585 83.5636 65.5778 83.1 65.5236 82.6123ZM174.343 71.0583C174.03 71.3653 173.704 71.6844 173.403 72.0036C173.747 71.6303 174.06 71.3172 174.343 71.0583ZM180.659 126.456C180.526 126.631 180.388 126.787 180.237 126.938C180.358 126.769 180.502 126.613 180.659 126.456ZM143.768 79.6862L145.044 80.4809C144.105 80.776 143.539 80.7158 143.768 79.6862ZM146.989 78.199C147.994 77.3381 149.211 76.6637 150.511 76.1459C150.565 76.2724 150.632 76.3928 150.716 76.5012C151.21 77.1213 152.047 77.5006 151.746 79.1263L151.553 79.2888C150.698 78.6747 149.409 78.8975 148.115 79.331C147.537 79.054 147.097 78.6627 146.989 78.199ZM151.697 79.3791C151.691 79.3791 151.691 79.3731 151.685 79.3731C151.691 79.3731 151.691 79.3671 151.697 79.3671C151.703 79.3731 151.697 79.3731 151.697 79.3791ZM146.068 45.9332C145.941 46.0235 145.821 46.1138 145.694 46.2101C144.623 47.023 143.455 47.908 142.208 48.8593C142.612 47.5829 143.069 46.3366 143.774 45.2889C144.544 45.6321 145.297 45.885 146.068 45.9332ZM127.733 57.8364C127.529 57.8726 127.33 57.9027 127.131 57.9328C126.493 58.0171 125.867 58.0351 125.253 58.005C125.849 57.7522 126.505 57.5474 127.234 57.4029C127.408 57.5775 127.571 57.716 127.733 57.8364ZM86.766 48.8653C86.6637 48.9918 86.5613 49.1182 86.4409 49.2447C86.5432 49.1182 86.6516 48.9918 86.766 48.8653ZM142.913 79.1503L143.316 79.4032C142.895 79.8006 142.491 80.1859 142.1 80.5592C142.371 80.0896 142.642 79.62 142.913 79.1503ZM249.155 84.4427L247.866 89.9578C250.54 87.6578 253.375 85.5987 256.338 83.7683C257.644 84.1898 258.752 85.0628 257.753 85.5023C245.813 88.8981 254.122 90.4876 246.909 94.624C241.869 94.4915 245.596 89.2353 240.135 93.48C240.52 91.9146 240.551 90.2889 240.96 88.85C241.67 88.7777 242.387 88.7657 243.11 88.8439C244.741 87.4351 246.505 85.9599 248.306 84.4848C248.577 84.4728 248.86 84.4547 249.155 84.4427ZM209.355 109.351C209.476 109.164 209.608 108.984 209.777 108.803C210.228 108.623 210.68 108.448 211.132 108.267C211.21 108.358 211.276 108.454 211.324 108.55C210.65 108.918 209.988 109.219 209.355 109.351ZM211.421 108.496C211.445 108.376 211.481 108.243 211.529 108.111C212.065 107.9 212.601 107.689 213.131 107.479C212.559 107.828 211.987 108.183 211.421 108.496ZM211.499 109.044C211.433 108.954 211.402 108.845 211.402 108.719C211.475 108.899 211.499 109.044 211.499 109.044ZM214.04 130.954C214.004 130.894 213.967 130.84 213.925 130.785C214.202 130.713 214.455 130.659 214.696 130.629C214.624 130.695 214.558 130.761 214.491 130.827C214.341 130.864 214.196 130.906 214.04 130.954ZM236.516 119.954C236.396 120.032 236.258 120.11 236.083 120.195C236.227 120.11 236.372 120.032 236.516 119.954ZM253.514 117.798C254.658 116.793 255.814 115.932 256.988 115.161C257.614 115.908 258.024 116.727 257.994 117.648L253.556 118.244C253.532 118.093 253.514 117.943 253.514 117.798ZM279.188 112.783C278.712 112.705 278.146 112.578 277.43 112.337C278.044 110.411 280.067 108.243 282.409 106.87C281.476 108.936 280.693 111.091 279.188 112.783ZM273.835 76.5854C270.445 77.2658 267.91 78.4098 265.382 79.62C263.057 80.7338 260.745 81.932 257.789 82.9013C257.982 82.793 258.168 82.6725 258.361 82.5642C260.209 81.4925 262.088 80.487 263.991 79.5176C265.893 78.5422 267.82 77.621 269.771 76.748C270.138 76.5854 270.505 76.4229 270.867 76.2603C271.059 76.8142 272.27 76.8082 273.835 76.5854ZM191.352 84.5631C188.805 86.4476 186.662 88.5549 186.391 90.1806C187.535 88.9523 188.667 86.845 190.437 86.7728C189.317 89.7711 187.619 92.4866 185.343 94.931C184.205 96.1533 182.923 97.3093 181.49 98.393C180.069 99.4949 178.509 100.536 176.799 101.506C175.258 97.7428 171.922 98.2485 167.912 100.007C168.593 98.947 169.213 97.8632 169.809 96.7614C171.067 94.4735 172.259 92.1915 173.602 89.9096C174.963 87.6518 176.45 85.3759 178.515 83.4011C180.31 85.701 183.597 85.6107 186.993 84.6594C190.365 83.666 193.99 81.9741 196.374 80.8121L196.542 81.1974C194.947 82.1186 193.074 83.2987 191.352 84.5631ZM234.06 49.6782L233.554 48.3114C233.608 48.2211 233.668 48.1248 233.741 48.0224L234.409 49.8227C234.295 49.7685 234.174 49.7203 234.06 49.6782ZM226.112 27.5515C226.064 27.6598 226.01 27.7802 225.949 27.9067L224.932 25.1792C225.034 25.1973 225.137 25.2154 225.245 25.2214L226.112 27.5515ZM151.577 41.4898C151.589 41.4416 151.601 41.3874 151.613 41.3393C151.631 41.3694 151.619 41.4175 151.577 41.4898ZM151.445 41.2971C151.511 41.2911 151.553 41.2971 151.583 41.3092C151.535 41.3031 151.493 41.2971 151.445 41.2971ZM167.677 34.4574L166.636 32.1634C166.666 32.1394 166.696 32.1213 166.726 32.1032L167.774 34.4092C167.744 34.4213 167.714 34.4393 167.677 34.4574ZM156.388 9.27209L157.49 11.7045C157.46 11.7286 157.436 11.7527 157.399 11.7768L156.298 9.34434C156.334 9.32025 156.364 9.29617 156.388 9.27209ZM58.8764 45.596C58.774 45.6743 58.6777 45.7405 58.5813 45.8188C58.6656 45.7225 58.7559 45.6442 58.8764 45.596ZM85.2788 97.1648C85.1403 97.2611 84.9898 97.3514 84.8092 97.4357C84.9778 97.3454 85.1343 97.2551 85.2788 97.1648ZM118.461 66.6992C118.479 66.7172 118.497 66.7353 118.509 66.7534C118.455 66.7714 118.437 66.7534 118.461 66.6992ZM79.1012 152.87L80.2392 153.978C79.0711 155.013 79.0891 154.044 79.1012 152.87ZM148.139 169.867L135.886 153.779C135.958 153.725 136.031 153.671 136.103 153.622L146.989 167.91C147.603 167.471 148.145 167.079 148.681 166.694C149.217 167.826 148.946 168.855 148.139 169.867ZM197.753 141.093C197.753 141.099 197.753 141.105 197.759 141.111C197.753 141.111 197.753 141.105 197.747 141.105C197.747 141.099 197.753 141.099 197.753 141.093ZM255.296 121.772C255.031 121.417 254.736 120.995 254.465 120.538C255.874 119.767 257.235 118.689 257.988 117.708C257.927 118.864 257.181 120.183 255.296 121.772ZM270.656 118.431C271.427 118.37 272.209 118.364 273.022 118.406C272.234 119.574 271.15 120.423 269.494 120.676C269.759 119.93 270.18 119.183 270.656 118.431ZM286.317 98.8265C284.258 100.019 281.849 101.072 279.874 102.331C280.681 101.584 281.518 100.91 282.409 100.35C283.589 99.6032 284.878 99.0734 286.317 98.8265Z" fill="#396250"/>
<path d="M244.806 53.5135C244.602 53.7483 244.325 54.0734 244.09 54.4046C244.391 54.0975 244.644 53.7965 244.806 53.5135Z" fill="#3A5255"/>
<path d="M244.963 134.964C245.21 135.65 245.493 136.06 245.764 136.439C245.782 136.433 245.794 136.421 245.812 136.421L244.963 134.964Z" fill="#3A5255"/>
<path d="M189.721 91.7217C189.721 91.7458 189.739 91.7458 189.751 91.782C189.98 91.5953 190.196 91.4448 190.431 91.2702L189.721 91.7217Z" fill="#3A5255"/>
<path d="M275.563 178.729C275.449 178.513 275.43 178.296 275.461 178.121L274.383 179.079L275.563 178.729Z" fill="#3A5255"/>
<path d="M275.461 178.121L276.533 177.176C275.961 177.423 275.473 177.664 275.461 178.121Z" fill="#3A5255"/>
<path d="M278.785 175.177L276.533 177.176C277.448 176.791 278.616 176.411 278.785 175.177Z" fill="#3A5255"/>
<path d="M287.033 150.919C287.72 150.793 288.556 150.811 289.49 150.847L288.472 149.841C287.834 150.034 287.322 150.365 287.033 150.919Z" fill="#3A5255"/>
<path d="M206.795 76.9166C209.733 75.6944 213.28 75.6643 214.454 74.436C212.136 73.2981 207.993 73.9664 206.795 76.9166Z" fill="#3A5255"/>
<path d="M160.25 41.0443L162.466 38.6841L157.77 41.7608L160.25 41.0443Z" fill="#3A5255"/>
<path d="M100.067 360C134.048 360 161.596 357.959 161.596 355.442C161.596 352.925 134.048 350.884 100.067 350.884C66.0848 350.884 38.5371 352.925 38.5371 355.442C38.5371 357.959 66.0848 360 100.067 360Z" fill="#DC9D56"/>
<path d="M236.151 360C270.132 360 297.68 357.959 297.68 355.442C297.68 352.925 270.132 350.884 236.151 350.884C202.169 350.884 174.621 352.925 174.621 355.442C174.621 357.959 202.169 360 236.151 360Z" fill="#DC9D56"/>
<path d="M135.876 318.962L142.554 267.79H105.289L100.635 318.962H135.876Z" fill="#982003"/>
<path d="M131.429 318.962L138.106 267.79H100.842L96.1875 318.962H131.429Z" fill="#CC470D"/>
<path d="M135.79 318.962H116.414V325.795H135.79V318.962Z" fill="#982003"/>
<path d="M135.792 325.795H129.639V355.671H135.792V325.795Z" fill="#982003"/>
<path d="M121.328 318.962H84.3105V325.795H121.328V318.962Z" fill="#CC470D"/>
<path d="M90.4641 325.795H84.3105V355.671H90.4641V325.795Z" fill="#982003"/>
<path d="M121.331 325.795H115.178V355.671H121.331V325.795Z" fill="#982003"/>
<path d="M93.185 320.75L88.7475 322.785L88.8017 331.497L84.7977 335.796L79.3365 334.363C79.3365 334.363 74.4896 318.269 78.614 314.861C82.7445 311.454 89.0184 308.202 89.0184 308.202L93.185 320.75Z" fill="#F6A47F"/>
<path d="M93.1852 320.75L88.7477 322.785V322.941C88.0312 322.201 87.2845 321.484 86.8149 320.696C84.1054 321.954 85.5143 325.717 86.0683 327.939C86.6102 330.1 87.4291 331.027 88.7958 331.118V331.497L84.7918 335.796L79.3307 334.363C79.3307 334.363 74.4837 318.269 78.6082 314.861C82.7386 311.454 89.0186 308.202 89.0186 308.202L93.1852 320.75Z" fill="#FDCA9F"/>
<path d="M112.775 306.336L110.818 297.389C106.248 298.503 101.726 299.755 97.3672 301.489L86.3848 307.998C86.6256 319.774 92.9778 323.863 92.9778 323.863L105.875 319.01C111.011 317.083 113.943 311.688 112.775 306.336Z" fill="#4E0A0B"/>
<path d="M90.7761 339.21L88.7952 331.491C88.7952 331.491 85.2367 335.2 81.8529 333.628C78.463 332.057 78.4389 330.973 78.4389 330.973C78.4389 330.973 73.5498 329.251 75.9582 335.519C75.9582 335.519 67.6311 335.597 69.1424 341.823L90.7761 339.21Z" fill="#B8222D"/>
<path d="M69.1113 341.829L69.2859 343.147L90.9318 341.173L90.6969 339.415L69.1113 341.829Z" fill="#E2D1A1"/>
<path d="M110.283 321.611L105.845 323.646L105.899 332.358L101.895 336.657L96.4342 335.224C96.4342 335.224 91.5872 319.13 95.7117 315.722C99.8421 312.315 106.116 309.063 106.116 309.063L110.283 321.611Z" fill="#F6A47F"/>
<path d="M110.283 321.611L105.845 323.646V323.802C105.129 323.062 104.382 322.345 103.913 321.557C101.203 322.815 102.612 326.578 103.166 328.8C103.708 330.961 104.527 331.888 105.894 331.979V332.358L101.889 336.657L96.4283 335.224C96.4283 335.224 91.5814 319.13 95.7058 315.722C99.8363 312.315 106.116 309.063 106.116 309.063L110.283 321.611Z" fill="#FDCA9F"/>
<path d="M129.878 307.197L127.921 298.25C123.351 299.364 118.829 300.616 114.47 302.35L98.9414 310.611C103.036 321.244 110.08 324.73 110.08 324.73L122.978 319.877C128.114 317.95 131.046 312.55 129.878 307.197Z" fill="#4E0A0B"/>
<path d="M109.3 306.607L100.811 311.122C101.527 312.05 102.25 312.983 102.972 313.91C107.807 311.544 112.859 309.515 117.766 307.251C114.936 307.119 112.112 306.95 109.3 306.607Z" fill="#731412"/>
<path d="M107.874 340.071L105.893 332.352C105.893 332.352 102.334 336.061 98.9505 334.489C95.5607 332.918 95.5366 331.834 95.5366 331.834C95.5366 331.834 90.6475 330.112 93.0559 336.38C93.0559 336.38 84.7287 336.458 86.24 342.684L107.874 340.071Z" fill="#B8222D"/>
<path d="M86.2148 342.69L86.3895 344.008L108.035 342.034L107.8 340.276L86.2148 342.69Z" fill="#E2D1A1"/>
<path d="M85.2068 218.66C82.0939 216.697 78.2284 216.077 78.3669 223.976C78.5054 231.876 82.2505 239.655 85.4657 238.204C88.675 236.753 85.2068 218.66 85.2068 218.66Z" fill="#F6A47F"/>
<path d="M124.853 265.888C124.853 265.888 113.455 265.509 111.107 265.725C108.759 265.942 101.214 285.63 96.8789 302.507C96.8789 302.507 109.547 312.748 134.89 306.065L124.853 265.888Z" fill="#4ACDDB"/>
<path d="M123.086 257.922L121.852 268.013C121.852 268.013 118.088 269.801 115.042 267.519L113.994 257.007L123.086 257.922Z" fill="#F6A47F"/>
<path d="M88.1942 199.568C83.7627 214.5 69.7697 261.083 116.975 260.65C164.18 260.21 170.051 210.062 170.051 210.062L135.803 185.419L90.6749 194.625L88.1942 199.568Z" fill="#FDCA9F"/>
<path d="M135.804 185.419L90.6756 194.625L88.195 199.568C87.1172 203.204 85.4674 208.726 84.2812 214.981C96.0886 213.765 119.914 210.664 127.495 205.252C127.495 205.252 120.841 210.315 117.397 211.525C117.397 211.525 126.441 211.068 132.444 206.835C132.703 206.648 132.962 206.462 133.209 206.263C139.169 201.501 132.956 206.522 132.956 206.522C132.956 206.522 132.059 220.846 147.099 219.9C152.572 219.557 156.606 211.983 159.509 202.464L135.804 185.419Z" fill="#F6A47F"/>
<path d="M135.964 201.061C131.201 207.582 130.906 214.578 138.782 218.708C138.782 218.708 128.865 212.109 137.198 201.603L135.964 201.061Z" fill="#4E0A0B"/>
<path d="M161.329 181.427C161.329 181.427 170.565 180.434 171.439 169.644C171.439 169.644 165.917 176.412 162.624 177.134L165.616 167.236L158.602 161.63L159.535 181.59L161.329 181.427Z" fill="#4E0A0B"/>
<path d="M83.0313 198.827L70.67 202.343L69.7187 199.345L73.9214 196.889L69.255 197.87L68.2676 194.769C68.2676 194.769 80.1833 183.51 91.2561 174.84C102.811 165.791 146.18 146.963 161.865 179.645C161.865 179.645 180.826 178.651 183.74 199.586C186.654 220.526 163.702 231.972 163.702 231.972L148.764 234.356L143.218 231.683L147.066 219.28C147.066 219.28 129.911 218.823 136.095 202.392C136.095 202.392 123.788 210.038 111.547 208.569C111.547 208.569 121.434 207.196 130.164 200.826C130.164 200.826 88.7453 214.199 72.9098 209.382L71.5009 204.95L83.0313 198.827Z" fill="#4E0A0B"/>
<path d="M163.884 183.36C173.403 183.149 179.256 190.428 180.652 197.304C182.104 204.457 180.381 210.743 176.227 216.655C174.378 219.28 171.187 222.218 168.249 223.513C172.277 220.141 172.885 212.236 171.874 207.6C169.507 214.054 167.996 219.943 161.903 224.049C161.903 224.049 163.553 218.985 164.191 216.745L159.5 221.887C159.705 216.95 161.234 208.81 161.234 208.81C158.182 213.326 156.454 219.178 154.045 223.916C154.045 223.916 152.877 218.407 152.51 216.222C151.215 218.618 150.36 221.743 148.927 224.145C148.307 220.593 149.427 206.913 150.059 203.487L153.684 207.263L153.708 198.875C153.708 198.875 156.598 195.841 157.79 194.3C161.277 195.492 162.836 198.34 164.913 200.935C164.594 197.587 164.1 193.95 161.891 191.44C167.948 193.192 172.536 197.948 174.059 202.699C174.523 198.189 169.857 191.349 164.167 189.489L163.884 183.36Z" fill="#731412"/>
<path d="M83.9092 184.672C92.5254 177.345 102.846 170.921 113.696 167.489C133.469 161.233 152.411 168.717 156.162 175.533C156.897 176.917 156.927 178.212 156.536 179.398C150.695 175.653 144.704 172.637 137.569 171.234C132.319 170.204 127.773 170.909 122.637 171.24C132.668 170.969 144.626 173.154 152.507 179.543C133.282 176.917 121.487 177.712 103.839 182.42C98.3598 183.884 92.6879 186.972 87.8229 189.694C125.449 177.64 136.588 184.058 144.873 186.641C129.248 186.695 111.462 193.932 110.54 193.758C111.468 193.969 112.395 194.101 113.316 194.179C120.511 195.016 127.797 193.878 134.95 193.192C126.749 196.25 118.121 197.834 109.228 197.093C97.4928 196.118 87.2027 192.65 75.5098 194.709C76.3828 191.277 81.4044 186.804 83.9092 184.672Z" fill="#731412"/>
<path d="M179.118 199.122C179.395 198.026 179.365 196.449 178.973 195.172C178.269 192.872 176.402 189.103 173.922 188.248C170.767 187.153 171.85 190.597 172.699 192.415C173.633 194.414 175.084 196.521 176.198 198.55C177.691 201.284 178.72 200.7 179.118 199.122Z" fill="#8C261F"/>
<path d="M105.227 234.164C105.161 234.061 104.739 234.254 103.993 234.471C103.27 234.67 102.102 234.874 101.145 234.092C100.181 233.339 99.5309 231.749 99.3684 229.991C99.3262 229.552 99.3202 229.094 99.3623 228.649C99.3804 228.426 99.4165 228.203 99.4587 227.992C99.4828 227.884 99.5008 227.818 99.5309 227.715L99.5972 227.529L99.6152 227.481L99.6213 227.469V227.463C99.6333 227.432 99.6092 227.499 99.6092 227.487L99.6152 227.475L99.6453 227.42C99.7838 227.119 99.9946 226.969 100.344 226.86C100.699 226.764 101.169 226.77 101.65 226.842C102.8 227.023 103.993 227.499 104.986 227.986L105.811 228.39L106.076 227.547C108.183 220.809 109.508 215.74 109.153 215.626C108.803 215.511 106.889 220.388 104.625 227.077L105.709 226.644C104.553 226.048 103.342 225.53 101.879 225.289C101.265 225.199 100.615 225.169 99.9223 225.355C99.2299 225.53 98.5134 226.09 98.2484 226.77L98.1943 226.891L98.1822 226.921L98.1641 226.975L98.1461 227.023L98.0859 227.21C98.0437 227.354 97.9956 227.535 97.9715 227.679C97.9173 227.974 97.8812 228.257 97.8691 228.534C97.839 229.094 97.8691 229.63 97.9354 230.142C98.0678 231.171 98.3689 232.123 98.7843 232.966C99.2118 233.803 99.7898 234.525 100.512 234.989C100.868 235.223 101.259 235.368 101.632 235.464C102.012 235.537 102.373 235.561 102.698 235.519C103.348 235.446 103.86 235.236 104.233 235.025C104.98 234.609 105.275 234.242 105.227 234.164Z" fill="#CE6A3F"/>
<path d="M120.979 221.749C120.943 223.79 122.569 225.476 124.61 225.506C126.651 225.542 128.337 223.916 128.367 221.875C128.403 219.834 126.777 218.148 124.736 218.118C122.695 218.082 121.015 219.708 120.979 221.749Z" fill="#4E0A0B"/>
<path d="M96.4342 218.13C96.3981 220.171 98.0237 221.857 100.065 221.887C102.106 221.923 103.792 220.298 103.828 218.257C103.864 216.215 102.238 214.53 100.197 214.493C98.1562 214.463 96.4703 216.089 96.4342 218.13Z" fill="#4E0A0B"/>
<path d="M132.926 214.114C133.383 212.633 133.606 210.694 132.673 209.635C131.727 208.557 129.518 207.991 128.235 207.666C127.025 207.359 124.737 206.925 123.442 207.305C121.805 207.786 122.076 209.243 121.371 210.743C121.371 210.737 129.078 212.302 132.926 214.114Z" fill="#4E0A0B"/>
<path d="M108.984 208.731C105.16 206.967 99.8616 205.884 97.6699 206.161C97.6699 206.161 97.7482 202.41 99.3378 201.699C100.927 200.989 107.984 202.843 109.411 203.939C110.826 205.029 108.984 208.731 108.984 208.731Z" fill="#4E0A0B"/>
<path d="M122.644 238.993C122.56 243.779 126.377 247.723 131.158 247.807C135.945 247.891 139.888 244.074 139.973 239.294C140.057 234.507 136.24 230.563 131.459 230.479C126.678 230.395 122.728 234.206 122.644 238.993Z" fill="#F6A47F"/>
<path d="M83.4607 230.979C88.2474 231.063 92.0587 235.007 91.9745 239.793C91.9142 243.195 89.8972 246.097 87.0191 247.464C84.1772 242.623 83.0031 236.879 82.8164 230.997C83.0332 230.991 83.2439 230.979 83.4607 230.979Z" fill="#F6A47F"/>
<path d="M118.1 235.874C113.259 240.775 106.298 242.864 101.15 241.395C101.15 241.395 103.649 250.414 112.018 248.283C120.069 246.242 118.1 235.874 118.1 235.874Z" fill="white"/>
<path d="M149.988 234.928C157.514 228.944 167.503 226.054 168.798 236.47C170.092 246.88 153.763 265.009 139.089 253.394C132.448 248.138 145.658 238.372 149.988 234.928Z" fill="#FDCA9F"/>
<path d="M163.163 235.525C158.28 232.827 149.916 240.739 148.23 244.875C146.551 249.011 145.888 252.66 151.181 252.401C156.467 252.142 160.339 247.458 159.026 243.021C157.72 238.589 151.331 243.701 151.331 243.701C151.331 243.701 155.209 237.963 158.219 236.56C161.23 235.163 163.163 235.525 163.163 235.525Z" fill="#F6A47F"/>
<path d="M93.9936 264.395L74.5636 255.369C74.5636 255.369 77.1767 251.654 76.0147 250.601C74.8586 249.547 72.5586 253.015 72.5586 253.015C72.5586 253.015 69.7226 246.759 68.0668 247.777C66.405 248.794 69.5661 251.974 69.5661 251.974C69.5661 251.974 66.393 248.674 65.1225 250.203C63.8581 251.733 68.2896 253.846 68.2896 253.846C68.2896 253.846 64.406 252.407 64.1351 254.189C63.8581 255.971 69.3915 257.446 69.3915 257.446C69.3915 257.446 77.7126 269.374 85.8772 271.909C94.0418 274.443 97.7689 269.952 97.7689 269.952L93.9936 264.395Z" fill="#FDCA9F"/>
<path d="M69.3995 257.447C69.3995 257.447 65.3112 256.351 64.3418 254.912C66.1541 255.875 68.123 256.459 70.1461 256.182C72.0247 260.204 75.6614 262.667 79.545 264.798C81.5561 265.906 84.3619 267.405 86.7764 267.116C89.4497 266.797 89.3955 264.617 89.3955 262.251L94.0017 264.389L97.7769 269.94C97.7769 269.94 94.0498 274.431 85.8852 271.897C77.7207 269.368 69.3995 257.447 69.3995 257.447Z" fill="#F6A47F"/>
<path d="M111.103 265.725C104.787 264.545 92.0642 261.264 92.0642 261.264C92.0642 261.264 90.5228 270.945 90.9383 275.353C90.9383 275.353 102.168 278.158 110.892 271.415L111.103 265.725Z" fill="#4A90B6"/>
<path d="M96.8789 302.507C97.481 300.159 98.1494 297.762 98.8538 295.366C101.419 297.034 104.291 298.28 107.085 299.063C110.914 300.141 117.802 300.628 120.295 297.112C122.992 293.313 122.426 292.416 122.33 286.497C117.549 289.977 109.842 290.893 104.044 291.049C106.085 288.821 114.882 277.942 117.176 274.07C114.352 274.702 108.024 276.328 105.381 276.238C107.843 270.054 110.029 265.822 111.107 265.725C113.455 265.509 124.853 265.888 124.853 265.888L134.89 306.065C109.541 312.748 96.8789 302.507 96.8789 302.507Z" fill="#4A90B6"/>
<path d="M104.229 266.333C101.279 265.406 97.2207 264.226 94.3125 263.949C95.4987 268.368 101.128 269.886 104.229 266.333Z" fill="#4ACDDB"/>
<path d="M121.698 286.419L94.7716 287.816C94.7716 287.816 92.1705 283.246 90.2678 282.74C88.4253 282.246 91.2733 285.245 91.1589 286.377C88.6963 284.27 84.891 284.089 82.7113 286.901C77.7801 293.271 86.2999 294.071 90.2437 293.168C90.2437 293.168 106.519 301.537 117.092 299.55C127.665 297.564 129.164 290.375 129.164 290.375L121.698 286.419Z" fill="#FDCA9F"/>
<path d="M121.403 287.767L117.261 287.984C117.67 289.556 116.936 291.247 115.286 291.91C109.481 294.24 102.894 294.607 96.7227 294.15C96.2651 294.113 95.8015 294.071 95.3379 294.023C100.414 296.136 108.837 299.057 115.4 298.448C115.9 298.4 116.388 298.334 116.851 298.25C124.233 296.865 126.768 292.855 127.551 291.025L121.403 287.767Z" fill="#F6A47F"/>
<path d="M115.951 286.148L129.812 296.438C129.812 296.438 138.103 265.852 124.302 265.797L115.951 286.148Z" fill="#4A90B6"/>
<path d="M126.079 276.743C127.621 273.607 126.639 270.614 124.821 268.037L118.764 282.806C121.846 281.795 124.526 279.904 126.079 276.743Z" fill="#4ACDDB"/>
<path d="M156.188 292.819H48.8379V297.269H156.188V292.819Z" fill="#982003"/>
<path d="M151.736 297.268H53.2852V312.284H151.736V297.268Z" fill="#CC470D"/>
<path d="M151.731 297.268H128.092V312.284H151.731V297.268Z" fill="#BD3D0D"/>
<path d="M58.0074 312.285H53.0039V355.665H58.0074V312.285Z" fill="#982003"/>
<path d="M151.453 312.285H146.449V355.665H151.453V312.285Z" fill="#8A1B03"/>
<path d="M133.095 312.285H128.092V355.665H133.095V312.285Z" fill="#8A1B03"/>
<path d="M271.281 318.962L277.952 267.79H240.687L236.033 318.962H271.281Z" fill="#982003"/>
<path d="M266.827 318.962L273.505 267.79H236.24L231.586 318.962H266.827Z" fill="#CC470D"/>
<path d="M271.188 318.962H251.812V325.795H271.188V318.962Z" fill="#982003"/>
<path d="M271.191 325.795H265.037V355.671H271.191V325.795Z" fill="#982003"/>
<path d="M256.727 318.962H219.709V325.795H256.727V318.962Z" fill="#CC470D"/>
<path d="M225.863 325.795H219.709V355.671H225.863V325.795Z" fill="#982003"/>
<path d="M256.73 325.795H250.576V355.671H256.73V325.795Z" fill="#982003"/>
<path d="M228.583 320.75L224.146 322.785L224.2 331.497L220.196 335.796L214.735 334.363C214.735 334.363 209.888 318.269 214.012 314.862C218.143 311.454 224.417 308.203 224.417 308.203L228.583 320.75Z" fill="#F6A47F"/>
<path d="M228.584 320.75L224.146 322.785V322.942C223.43 322.201 222.683 321.485 222.213 320.696C219.504 321.954 220.913 325.717 221.467 327.939C222.009 330.1 222.827 331.028 224.194 331.118V331.497L220.19 335.796L214.729 334.363C214.729 334.363 209.882 318.269 214.007 314.862C218.137 311.454 224.417 308.203 224.417 308.203L228.584 320.75Z" fill="#FDCA9F"/>
<path d="M248.174 306.336L246.217 297.389C241.647 298.503 237.125 299.755 232.766 301.489L221.783 307.998C222.024 319.775 228.376 323.863 228.376 323.863L241.273 319.01C246.409 317.083 249.342 311.689 248.174 306.336Z" fill="#B8222D"/>
<path d="M226.175 339.21L224.194 331.491C224.194 331.491 220.635 335.2 217.251 333.629C213.861 332.057 213.837 330.974 213.837 330.974C213.837 330.974 208.948 329.252 211.357 335.519C211.357 335.519 203.029 335.597 204.541 341.823L226.175 339.21Z" fill="#EF4E68"/>
<path d="M204.51 341.829L204.684 343.148L226.33 341.173L226.095 339.415L204.51 341.829Z" fill="#E2D1A1"/>
<path d="M245.681 321.611L241.244 323.646L241.298 332.358L237.294 336.657L231.833 335.224C231.833 335.224 226.986 319.13 231.11 315.723C235.241 312.315 241.515 309.063 241.515 309.063L245.681 321.611Z" fill="#F6A47F"/>
<path d="M245.681 321.611L241.244 323.646V323.803C240.527 323.062 239.781 322.346 239.311 321.557C236.602 322.815 238.01 326.578 238.564 328.8C239.106 330.961 239.925 331.889 241.292 331.979V332.358L237.288 336.657L231.827 335.224C231.827 335.224 226.98 319.13 231.104 315.723C235.235 312.315 241.515 309.063 241.515 309.063L245.681 321.611Z" fill="#FDCA9F"/>
<path d="M265.276 307.197L263.319 298.25C258.749 299.364 254.227 300.616 249.868 302.35L234.34 310.611C238.434 321.244 245.479 324.73 245.479 324.73L258.376 319.877C263.512 317.951 266.444 312.55 265.276 307.197Z" fill="#B8222D"/>
<path d="M243.272 340.071L241.291 332.352C241.291 332.352 237.733 336.061 234.349 334.49C230.959 332.918 230.935 331.834 230.935 331.834C230.935 331.834 226.046 330.112 228.454 336.38C228.454 336.38 220.127 336.458 221.638 342.684L243.272 340.071Z" fill="#FF7393"/>
<path d="M221.613 342.69L221.788 344.009L243.434 342.034L243.199 340.276L221.613 342.69Z" fill="#E2D1A1"/>
<path d="M260.251 265.888C260.251 265.888 248.853 265.508 246.505 265.725C244.157 265.942 236.613 285.63 232.277 302.507C232.277 302.507 244.946 312.748 270.288 306.065L260.251 265.888Z" fill="#FF7393"/>
<path d="M258.484 257.922L257.25 268.013C257.25 268.013 253.487 269.801 250.44 267.519L249.393 257.007L258.484 257.922Z" fill="#F6A47F"/>
<path d="M229.392 264.395L209.962 255.369C209.962 255.369 212.575 251.654 211.413 250.601C210.257 249.547 207.957 253.015 207.957 253.015C207.957 253.015 205.121 246.759 203.465 247.777C201.809 248.794 204.965 251.973 204.965 251.973C204.965 251.973 201.791 248.674 200.521 250.203C199.257 251.733 203.688 253.846 203.688 253.846C203.688 253.846 199.804 252.407 199.533 254.189C199.257 255.971 204.79 257.446 204.79 257.446C204.79 257.446 213.111 269.374 221.276 271.909C229.44 274.443 233.167 269.952 233.167 269.952L229.392 264.395Z" fill="#FDCA9F"/>
<path d="M204.798 257.447C204.798 257.447 200.71 256.351 199.74 254.912C201.553 255.875 203.521 256.459 205.545 256.182C207.423 260.204 211.06 262.667 214.943 264.798C216.955 265.906 219.76 267.405 222.175 267.116C224.848 266.797 224.794 264.617 224.794 262.251L229.4 264.389L233.175 269.94C233.175 269.94 229.448 274.431 221.284 271.897C213.119 269.368 204.798 257.447 204.798 257.447Z" fill="#F6A47F"/>
<path d="M246.501 265.725C240.185 264.545 227.463 261.264 227.463 261.264C227.463 261.264 225.921 270.945 226.337 275.353C226.337 275.353 237.566 278.158 246.291 271.415L246.501 265.725Z" fill="#EF4E68"/>
<path d="M232.277 302.507C232.879 300.158 233.548 297.762 234.252 295.366C236.817 297.034 239.689 298.28 242.483 299.063C246.312 300.14 253.201 300.628 255.693 297.112C258.391 293.313 257.825 292.416 257.728 286.497C252.948 289.977 245.241 290.892 239.442 291.049C241.484 288.821 250.28 277.942 252.574 274.07C249.751 274.702 243.422 276.328 240.779 276.238C243.242 270.054 245.427 265.821 246.505 265.725C248.853 265.508 260.251 265.888 260.251 265.888L270.288 306.065C244.94 312.748 232.277 302.507 232.277 302.507Z" fill="#EF4E68"/>
<path d="M239.628 266.333C236.677 265.406 232.619 264.226 229.711 263.949C230.897 268.368 236.527 269.886 239.628 266.333Z" fill="#FF7393"/>
<path d="M257.096 286.419L230.17 287.816C230.17 287.816 227.569 283.246 225.666 282.74C223.824 282.247 226.672 285.245 226.557 286.377C224.095 284.27 220.289 284.089 218.11 286.901C213.178 293.271 221.698 294.072 225.642 293.168C225.642 293.168 241.917 301.537 252.49 299.551C263.063 297.564 264.563 290.375 264.563 290.375L257.096 286.419Z" fill="#FDCA9F"/>
<path d="M256.802 287.768L252.659 287.985C253.069 289.556 252.334 291.248 250.684 291.91C244.88 294.24 238.293 294.607 232.121 294.15C231.664 294.114 231.2 294.072 230.736 294.023C235.812 296.137 244.236 299.057 250.799 298.449C251.298 298.401 251.786 298.334 252.25 298.25C259.632 296.865 262.166 292.855 262.949 291.025L256.802 287.768Z" fill="#F6A47F"/>
<path d="M251.35 286.148L265.21 296.438C265.21 296.438 273.501 265.852 259.701 265.797L251.35 286.148Z" fill="#EF4E68"/>
<path d="M261.478 276.743C263.019 273.607 262.038 270.614 260.219 268.037L254.162 282.806C257.245 281.795 259.924 279.904 261.478 276.743Z" fill="#FF7393"/>
<path d="M223.365 187.893C216.633 195.245 206.686 211.64 221.179 216.125C235.672 220.611 230.18 188.544 230.18 188.544L223.365 187.893Z" fill="#982003"/>
<path d="M227.948 193.836C227.713 194.36 214.557 221.243 217.905 238.662C221.252 256.08 255.271 268.224 274.033 256.616C292.795 245.008 296.462 214.945 296.462 214.945L283.269 189.272C283.269 189.272 244.686 180.337 244.102 180.747C243.524 181.156 227.948 193.836 227.948 193.836Z" fill="#FDCA9F"/>
<path d="M254.19 237.18C249.349 242.081 242.388 244.17 237.24 242.701C237.24 242.701 239.739 251.721 248.108 249.589C256.158 247.542 254.19 237.18 254.19 237.18Z" fill="white"/>
<path d="M227.953 193.836C227.953 193.836 243.523 181.15 244.114 180.747C244.698 180.337 283.281 189.272 283.281 189.272L296.262 214.536C295.744 215.626 295.166 216.74 294.522 217.908C292.324 221.881 288.224 223.784 286.038 227.397L282.986 233.646C277.458 234.543 272.924 227.294 271.66 222.742C270.576 218.847 269.787 213.314 271.353 209.46C268.427 212.537 265.109 213.711 260.936 214.115C263.604 212.856 266.801 211.429 268.674 209.153C266.265 209.322 264.037 211.062 261.647 211.64C259.076 212.26 256.403 212.11 253.801 212.308C247.353 212.802 240.284 212.501 234.203 209.96C229.819 208.13 226.496 205.92 224.033 203.012C226.098 197.647 227.869 194.029 227.953 193.836Z" fill="#F6A47F"/>
<path d="M276.056 245.129C277.084 240.875 274.469 236.594 270.215 235.566C265.962 234.538 261.68 237.153 260.652 241.406C259.624 245.66 262.239 249.941 266.493 250.969C270.747 251.997 275.028 249.382 276.056 245.129Z" fill="#F6A47F"/>
<path d="M217.911 238.661C217.285 235.422 217.237 231.858 217.568 228.191C218.17 228.119 218.784 228.113 219.416 228.173C224.227 228.636 227.756 232.911 227.298 237.722C226.937 241.473 224.257 244.435 220.819 245.344C219.362 243.243 218.357 240.997 217.911 238.661Z" fill="#F6A47F"/>
<path d="M234.691 240.648C234.775 240.582 234.655 240.269 234.408 239.733C234.167 239.197 233.782 238.439 233.445 237.493C233.282 237.018 233.131 236.494 233.077 235.958C233.023 235.422 233.083 234.886 233.354 234.525C233.426 234.435 233.505 234.344 233.571 234.296C233.583 234.272 233.691 234.206 233.758 234.158L233.812 234.122L233.842 234.104L233.848 234.098H233.854C233.866 234.092 233.782 234.146 233.818 234.122L233.83 234.116L233.932 234.067C234.197 233.917 234.474 233.809 234.763 233.748C235.341 233.628 235.967 233.706 236.594 233.977C237.256 234.272 237.918 234.778 238.37 235.266L239.225 236.193L239.646 235.055C241.459 230.136 242.585 226.367 242.241 226.234C241.898 226.102 240.206 229.648 238.243 234.513L239.52 234.302C239.189 233.917 238.863 233.628 238.478 233.327C238.099 233.038 237.677 232.779 237.214 232.568C236.359 232.189 235.341 232.05 234.432 232.279C233.98 232.394 233.559 232.574 233.192 232.803L233.053 232.881L233.035 232.893L232.981 232.93L232.951 232.948L232.897 232.99C232.818 233.056 232.77 233.08 232.656 233.182C232.451 233.369 232.3 233.556 232.174 233.748C231.915 234.152 231.789 234.597 231.753 235.007C231.716 235.422 231.753 235.801 231.819 236.151C231.957 236.849 232.198 237.421 232.451 237.927C232.963 238.926 233.505 239.619 233.914 240.07C234.318 240.516 234.607 240.715 234.691 240.648Z" fill="#CE6A3F"/>
<path d="M249.82 224.29C249.627 226.283 251.09 228.053 253.077 228.239C255.07 228.432 256.84 226.969 257.027 224.982C257.22 222.989 255.757 221.219 253.77 221.032C251.783 220.84 250.012 222.297 249.82 224.29Z" fill="#982003"/>
<path d="M255.815 225.175C255.815 225.175 259.543 224.844 260.512 225.626C261.728 226.608 255.34 226.433 255.34 226.433L255.815 225.175Z" fill="#982003"/>
<path d="M235.997 223.886C235.076 225.662 232.896 226.361 231.114 225.44C229.338 224.519 228.639 222.339 229.561 220.557C230.482 218.781 232.662 218.082 234.444 219.003C236.22 219.925 236.912 222.11 235.997 223.886Z" fill="#982003"/>
<path d="M230.477 221.382C230.477 221.382 227.526 219.082 226.286 219.214C224.732 219.383 230.194 222.694 230.194 222.694L230.477 221.382Z" fill="#982003"/>
<path d="M262.437 217.859C264.773 215.74 259.583 212.958 258.108 212.531C255.471 211.772 251.942 211.742 249.69 213.434C247.968 214.728 247.619 217.691 250.467 217.618C252.767 217.558 254.682 217.462 256.916 218.148C258.632 218.678 261.546 219.051 262.437 217.859Z" fill="#982003"/>
<path d="M240.168 215.042C242.649 213.308 238.5 209.797 237.254 209.159C235.026 208.015 231.865 207.461 229.535 208.786C227.752 209.797 226.903 212.657 229.468 213.012C231.546 213.295 233.28 213.488 235.158 214.494C236.597 215.27 239.144 216.077 240.168 215.042Z" fill="#982003"/>
<path d="M304.604 222.814C310.204 222.357 312.179 222.369 312.39 226.836C312.39 226.836 315.509 224.813 314.72 230.076C313.937 235.338 302.112 245.772 299.324 243.629C296.536 241.485 296.301 232.665 296.59 232.412C296.885 232.159 301.419 226.084 301.72 226.006C302.021 225.927 304.604 222.814 304.604 222.814Z" fill="#4A77A1"/>
<path d="M277.494 199.321C271.509 206.739 270.088 216.83 270.088 216.83C270.088 216.83 274.417 204.547 278.812 201.976C283.214 199.405 277.494 199.321 277.494 199.321Z" fill="#CC470D"/>
<path d="M279.731 197.202C271.271 211.76 260.247 210.381 252.732 210.116C252.732 210.116 270.555 209.647 276.6 199.869L279.731 197.202Z" fill="#CC470D"/>
<path d="M277.192 201.82C257.612 211.128 233.654 208.069 222.972 191.964C212.291 175.858 203.344 174.69 203.344 174.69C203.344 174.69 223.737 148.673 253.102 155.152C282.467 161.63 288.681 184.696 288.681 184.696C288.681 184.696 312.151 177.538 320.171 195.582C328.191 213.627 303.836 224.567 303.836 224.567C303.836 224.567 305.895 231.834 298.784 234.067C291.667 236.295 282.726 245.796 283.135 236.024C283.135 236.024 272.996 230.527 273.056 218.154C273.104 207.6 277.192 201.82 277.192 201.82Z" fill="#CC470D"/>
<path d="M283.903 195.648C283.704 199.044 284.192 203.162 284.047 205.462C284.035 205.589 284.023 205.721 284.017 205.854C284.029 205.733 284.041 205.601 284.047 205.462C284.354 202.036 285.932 199.363 287.034 196.431C287.708 198.641 288.298 201.193 288.707 203.578C288.737 203.969 288.804 204.366 288.9 204.764C288.84 204.379 288.774 203.981 288.707 203.578C288.485 200.862 289.701 198.297 289.954 195.624C294.409 199.676 296.752 204.848 299.714 210.092C298.943 203.909 296.92 196.154 291.393 192.246C294.56 192.349 298.311 192.56 301.177 193.914C298.823 191.771 294.542 190.813 291.983 190.627C296.679 188.532 301.376 189.645 306.524 189.766C302.947 187.448 298.209 187.105 293.705 187.875C293.922 187.791 294.132 187.707 294.349 187.628C301.785 185.046 310.215 186.858 314.809 194.601C318.307 200.495 317.452 208.292 313.171 213.849C310.979 216.697 308.306 218.341 305.338 219.949C306.181 218.51 306.945 216.703 306.819 214.981C303.447 214.831 300.695 217.781 297.727 219.178C294.427 220.731 290.815 221.544 287.184 221.231C275.612 220.238 279.074 203.433 283.903 195.648Z" fill="#E3590D"/>
<path d="M283.134 236.018C288.655 232.737 300.156 230.353 301.83 236.982C303.503 243.605 292.738 259.999 282.773 259.783C272.808 259.566 274.138 250.221 275.758 245.296C277.372 240.377 281.015 237.283 283.134 236.018Z" fill="#FDCA9F"/>
<path d="M297.453 238.92C292.082 237.379 283.267 241.642 281.527 245.941C279.793 250.239 278.932 256.357 284.387 254.46C289.836 252.563 294.81 245.218 290.721 244.285C286.639 243.358 283.839 245.591 283.839 245.591C283.839 245.591 287.819 241.154 291.372 240.1C294.93 239.047 297.453 238.92 297.453 238.92Z" fill="#F6A47F"/>
<path d="M314.483 203.674C314.904 200.507 314.387 194.33 310.587 193.137C307.583 192.198 305.259 195.702 304.656 198.37C303.055 205.462 314.272 207.503 314.483 203.674Z" fill="#FF7B01"/>
<path d="M223.408 164.069C233.144 159.631 244.717 159.505 255.079 161.444C260.853 162.521 266.043 163.804 271.047 167.007C275.966 170.162 282.824 175.882 283.505 181.487C283.541 181.77 283.553 182.047 283.553 182.33C277.068 175.346 269.108 170.114 260.065 166.435C254.615 164.219 247.95 161.781 242.049 162.353C251.364 164.406 259.535 168.037 267.266 173.582C271.866 176.881 275.093 180.572 279.007 184.461C276.695 182.258 274.274 181.457 271.432 180.205C268.958 179.121 266.579 177.357 263.954 176.592C263.864 176.562 263.774 176.538 263.683 176.514C263.485 176.46 263.28 176.412 263.075 176.375C263.274 176.406 263.478 176.46 263.683 176.514C263.774 176.538 263.864 176.562 263.954 176.592C267.765 177.778 272.751 182.463 275.521 184.889C260.932 185.654 247.649 178.23 236.552 169.789C240.117 172.661 242.688 176.171 246.728 178.621C250.401 180.849 253.965 182.583 257.987 184.046C264.424 186.388 270.12 189.278 276.839 190.531C272.04 192.469 264.683 191.951 260.101 190.844C253.592 189.278 247.565 185.166 241.953 181.734C234.698 177.303 221.066 168.952 211.992 172.558C214.202 168.392 219.302 165.935 223.408 164.069Z" fill="#E3590D"/>
<path d="M227.228 178.14C239.306 182.541 248.976 194.956 262.487 194.775C260.94 195.281 259.404 195.907 257.827 196.052C250.349 196.738 243.78 193.463 237.758 189.128C234.549 186.816 231.641 184.046 228.317 181.843C224.602 179.38 219.978 178.055 216.281 176.056C220.062 176.117 223.723 176.863 227.228 178.14Z" fill="#E3590D"/>
<path d="M238.411 163.948C234.082 161.323 221.239 167.194 231.951 168.783C233.92 169.078 239.778 169.253 241.115 167.224C243.036 164.298 238.49 163.629 238.411 163.948Z" fill="#FF7B01"/>
<path d="M220.389 195.498C219.654 196.919 212.441 211.05 218.221 208.858C222.526 207.227 223.255 198.665 220.389 195.498Z" fill="#CC470D"/>
<path d="M311.96 216.806C327.278 212.717 345.239 225.379 343.776 241.997C342.307 258.615 332.492 267.712 320.27 271.162C308.047 274.612 305.909 282.933 312.52 284.673C312.52 284.673 303.784 285.167 297.07 276.232C290.363 267.297 290.519 260.403 294.999 250.709C294.999 250.709 289.749 243.472 295.8 232.893C302.628 220.96 306.198 218.347 311.96 216.806Z" fill="#982003"/>
<path d="M342.138 240.287C342.066 234.399 338.803 228.974 334.215 224.964C339.272 230.076 341.41 237.806 340.043 244.791C339.375 248.21 338.213 250.601 336.418 253.593C339.405 243.213 337.267 233.959 329.572 225.963C328.019 224.35 326.152 222.989 324.581 221.412C328.844 226.403 331.084 235.296 328.748 241.479C325.954 248.873 320.318 253.057 314.134 257.332C312.117 258.729 309.167 261.161 308.824 263.811C309.414 257.049 317.53 253.629 321.269 248.855C326.911 241.648 326.947 231.183 321.781 223.639C320.276 221.436 318.235 220.25 316.513 218.413C318.771 224.235 321.92 231.677 319.017 237.885C317.217 241.738 312.569 244.616 311.545 248.584C312.569 244.803 315.254 241.618 316.446 237.842C317.554 234.344 317.536 229.702 316.23 226.27C316.073 225.861 315.899 225.506 315.7 225.181C316.446 234.615 311.961 243.406 305.898 251.028C304.272 253.075 302.941 255.357 302.056 257.82L302.038 257.862C301.755 259.271 301.55 260.698 301.442 262.101C301.436 262.143 301.436 262.185 301.43 262.227C301.014 267.586 306.138 271.662 311.262 270.042C314.749 268.94 318.668 268.2 321.98 266.839C333.233 262.221 342.301 252.949 342.138 240.287Z" fill="#CC470D"/>
<path d="M311.164 228.799C311.88 228.432 312.88 228.155 313.223 229.046C313.608 230.046 312.452 231.454 311.928 232.165C310.604 233.971 309.038 236 306.78 236.675C307.509 236 308.129 234.784 308.328 233.73C308.454 233.068 308.34 231.569 307.31 231.99C307.148 232.057 306.828 232.665 306.708 232.821C306.275 233.387 305.799 233.929 305.179 234.314C304.342 234.826 303.3 235.145 302.379 235.416C304.697 234.357 305.552 230.973 305.63 228.655C305.654 227.932 305.371 227.216 305.401 226.523C305.438 225.717 305.751 225.632 306.485 225.247C307.605 224.657 308.99 224.302 310.026 225.265C310.814 226 311.224 227.655 311.164 228.799Z" fill="#4ACDDB"/>
<path d="M291.586 292.819H184.236V297.269H291.586V292.819Z" fill="#982003"/>
<path d="M287.134 297.269H188.684V312.285H287.134V297.269Z" fill="#CC470D"/>
<path d="M287.129 297.269H263.49V312.285H287.129V297.269Z" fill="#BD3D0D"/>
<path d="M193.406 312.285H188.402V355.665H193.406V312.285Z" fill="#982003"/>
<path d="M286.851 312.285H281.848V355.665H286.851V312.285Z" fill="#8A1B03"/>
<path d="M268.494 312.285H263.49V355.665H268.494V312.285Z" fill="#8A1B03"/>
<path d="M142.575 41.5383C140.823 41.5383 139.286 41.1507 137.962 40.3753C136.639 39.6 135.617 38.5084 134.897 37.1005C134.196 35.6722 133.846 33.9991 133.846 32.0811C133.846 30.0407 134.284 28.2043 135.159 26.572C136.035 24.9193 137.242 23.6338 138.78 22.7157C140.337 21.7771 142.088 21.3078 144.034 21.3078C144.755 21.3078 145.484 21.369 146.224 21.4914C146.983 21.5934 147.616 21.7057 148.122 21.8281C148.647 21.9301 148.978 22.0015 149.114 22.0423L149.231 22.226C149.192 22.3484 149.124 22.6442 149.027 23.1135C148.949 23.5828 148.851 24.1949 148.735 24.9499C148.637 25.7048 148.56 26.5006 148.501 27.3372L147.1 27.4596C147.119 27.3576 147.139 27.1739 147.158 26.9087C147.178 26.623 147.187 26.3068 147.187 25.9599C147.187 24.0623 145.757 23.1135 142.896 23.1135C141.611 23.1135 140.482 23.44 139.509 24.0929C138.536 24.7459 137.787 25.6742 137.261 26.8781C136.736 28.0615 136.473 29.4592 136.473 31.0711C136.473 32.8462 136.746 34.4072 137.291 35.7538C137.855 37.1005 138.643 38.1513 139.655 38.9062C140.667 39.6408 141.835 40.008 143.159 40.008C144.482 40.008 145.543 39.6204 146.341 38.845C147.158 38.0493 147.752 36.825 148.122 35.1723L149.523 35.0499C149.465 35.3559 149.338 36.0395 149.143 37.1005C148.949 38.1411 148.813 39.1205 148.735 40.0387L148.56 40.3141C148.56 40.3345 148.258 40.4569 147.654 40.6814C147.071 40.8854 146.331 41.0793 145.436 41.2629C144.56 41.4465 143.606 41.5383 142.575 41.5383Z" fill="white"/>
<path d="M151.943 40.2835C152.488 40.1203 152.868 39.9162 153.082 39.6714C153.315 39.4265 153.452 39.1307 153.491 38.7838C153.549 38.4369 153.578 37.8554 153.578 37.0393V22.0117C153.578 20.9099 153.218 20.359 152.498 20.359C152.362 20.359 152.216 20.3794 152.06 20.4202C151.904 20.4406 151.807 20.461 151.768 20.4814C151.768 20.359 151.788 20.1754 151.827 19.9305L151.885 19.349C152.722 19.2266 153.588 19.0633 154.483 18.8593C155.378 18.6553 155.953 18.5226 156.206 18.4614L156.381 18.8593C156.167 19.2062 155.972 21.3792 155.797 25.3784C155.641 29.3776 155.563 33.642 155.563 38.1717C155.563 38.7838 155.641 39.2225 155.797 39.4877C155.953 39.753 156.215 39.8856 156.585 39.8856C156.799 39.8856 157.004 39.8754 157.198 39.855C157.393 39.8346 157.529 39.8244 157.607 39.8244L157.665 39.9468L157.432 41.2629C157.257 41.2425 156.926 41.2221 156.439 41.2017C155.953 41.1813 155.417 41.1711 154.834 41.1711C154.327 41.1711 153.744 41.2221 153.082 41.3241C152.44 41.4261 152.021 41.4975 151.827 41.5383L151.943 40.2835Z" fill="white"/>
<path d="M166.486 32.2341C166.486 31.2139 166.262 30.4182 165.815 29.8469C165.367 29.2755 164.734 28.9899 163.917 28.9899C163.372 28.9899 162.769 29.1327 162.107 29.4184C161.445 29.704 160.881 30.0713 160.414 30.5202L160.268 30.4284L159.917 29.1123C160.91 28.5002 161.854 27.9901 162.749 27.582C163.664 27.1739 164.306 26.9699 164.676 26.9699C165.941 26.9699 166.934 27.3168 167.654 28.0105C168.374 28.7042 168.734 29.6734 168.734 30.9181C168.734 31.367 168.666 32.2851 168.53 33.6726C168.316 35.917 168.208 37.3453 168.208 37.9574C168.208 38.4063 168.316 38.7532 168.53 38.9981C168.744 39.2429 169.036 39.3653 169.405 39.3653C169.678 39.3653 169.97 39.2939 170.281 39.1511C170.612 39.0083 170.904 38.8246 171.157 38.6002L171.566 39.0899C171.254 39.6612 170.855 40.1815 170.369 40.6508C169.902 41.0997 169.454 41.3955 169.026 41.5383C167.449 41.5383 166.583 40.712 166.428 39.0593L166.311 39.0287C165.61 39.7632 164.968 40.3447 164.384 40.7732C163.82 41.2017 163.391 41.4159 163.1 41.4159C162.01 41.4159 161.114 41.0589 160.414 40.3447C159.713 39.6306 159.363 38.7226 159.363 37.6208C159.363 37.0291 159.499 36.5088 159.771 36.0599C160.063 35.611 160.443 35.3151 160.91 35.1723L166.428 33.5808L166.486 32.2341ZM162.428 35.9987C161.864 36.1823 161.581 36.6108 161.581 37.2841C161.581 37.8758 161.766 38.3655 162.136 38.7532C162.525 39.1409 163.012 39.3347 163.596 39.3347C163.966 39.3347 164.394 39.2021 164.88 38.9368C165.386 38.6512 165.844 38.2941 166.252 37.8656L166.369 34.7438L162.428 35.9987Z" fill="white"/>
<path d="M176.757 41.5383C176.134 41.5383 175.56 41.4873 175.035 41.3853C174.529 41.3037 174.13 41.2119 173.838 41.1099C173.546 41.0078 173.361 40.9364 173.283 40.8956L173.195 40.6814C173.254 40.3753 173.322 39.7428 173.4 38.7838C173.478 37.8248 173.526 37.0903 173.546 36.5802L174.568 36.4271C174.568 37.7738 174.782 38.7226 175.21 39.2735C175.638 39.8244 176.368 40.0999 177.399 40.0999C178.139 40.0999 178.762 39.9264 179.268 39.5796C179.774 39.2327 180.027 38.8042 180.027 38.2941C180.027 37.784 179.793 37.3249 179.326 36.9168C178.879 36.4884 177.983 35.8966 176.64 35.1417C175.531 34.55 174.723 33.9583 174.217 33.3665C173.711 32.7544 173.458 32.0811 173.458 31.3466C173.458 30.5304 173.692 29.7856 174.159 29.1123C174.626 28.439 175.268 27.9187 176.086 27.5514C176.903 27.1637 177.818 26.9699 178.83 26.9699C179.297 26.9699 179.745 27.0107 180.173 27.0923C180.601 27.1535 180.951 27.2249 181.224 27.3066C181.496 27.3882 181.671 27.4392 181.749 27.4596L181.808 27.6126C181.769 27.8167 181.681 28.286 181.545 29.0205C181.409 29.7346 181.311 30.51 181.253 31.3466L180.173 31.4384C180.173 31.3772 180.183 31.2547 180.202 31.0711C180.221 30.8875 180.231 30.714 180.231 30.5508C180.231 29.8163 180.037 29.2857 179.647 28.9593C179.278 28.6124 178.674 28.439 177.837 28.439C177.176 28.439 176.611 28.6022 176.144 28.9287C175.696 29.2551 175.473 29.653 175.473 30.1223C175.473 30.612 175.667 31.0711 176.056 31.4996C176.465 31.9281 177.117 32.3872 178.012 32.8769C179.589 33.7542 180.659 34.4888 181.224 35.0805C181.808 35.6722 182.1 36.3557 182.1 37.1311C182.1 37.9064 181.847 38.6308 181.341 39.3041C180.854 39.9774 180.202 40.5181 179.385 40.9262C178.567 41.3343 177.691 41.5383 176.757 41.5383Z" fill="white"/>
<path d="M188.503 41.5383C187.88 41.5383 187.306 41.4873 186.781 41.3853C186.275 41.3037 185.876 41.2119 185.584 41.1099C185.292 41.0078 185.107 40.9364 185.029 40.8956L184.941 40.6814C185 40.3753 185.068 39.7428 185.146 38.7838C185.224 37.8248 185.272 37.0903 185.292 36.5802L186.314 36.4271C186.314 37.7738 186.528 38.7226 186.956 39.2735C187.384 39.8244 188.114 40.0999 189.145 40.0999C189.885 40.0999 190.508 39.9264 191.014 39.5796C191.52 39.2327 191.773 38.8042 191.773 38.2941C191.773 37.784 191.539 37.3249 191.072 36.9168C190.625 36.4884 189.729 35.8966 188.386 35.1417C187.277 34.55 186.469 33.9583 185.963 33.3665C185.457 32.7544 185.204 32.0811 185.204 31.3466C185.204 30.5304 185.438 29.7856 185.905 29.1123C186.372 28.439 187.014 27.9187 187.832 27.5514C188.649 27.1637 189.564 26.9699 190.576 26.9699C191.043 26.9699 191.491 27.0107 191.919 27.0923C192.347 27.1535 192.697 27.2249 192.97 27.3066C193.242 27.3882 193.417 27.4392 193.495 27.4596L193.554 27.6126C193.515 27.8167 193.427 28.286 193.291 29.0205C193.155 29.7346 193.057 30.51 192.999 31.3466L191.919 31.4384C191.919 31.3772 191.929 31.2547 191.948 31.0711C191.968 30.8875 191.977 30.714 191.977 30.5508C191.977 29.8163 191.783 29.2857 191.393 28.9593C191.024 28.6124 190.42 28.439 189.583 28.439C188.922 28.439 188.357 28.6022 187.89 28.9287C187.442 29.2551 187.219 29.653 187.219 30.1223C187.219 30.612 187.413 31.0711 187.803 31.4996C188.211 31.9281 188.863 32.3872 189.759 32.8769C191.335 33.7542 192.405 34.4888 192.97 35.0805C193.554 35.6722 193.846 36.3557 193.846 37.1311C193.846 37.9064 193.593 38.6308 193.087 39.3041C192.6 39.9774 191.948 40.5181 191.131 40.9262C190.313 41.3343 189.437 41.5383 188.503 41.5383Z" fill="white"/>
</g>
<defs>
<clipPath id="clip0">
<rect width="343.846" height="360" fill="white"/>
</clipPath>
</defs>
</svg>
