<svg width="51" height="60" viewBox="0 0 51 60" fill="none" xmlns="http://www.w3.org/2000/svg">
<path d="M50.0935 52.9587C50.5837 52.9587 50.9811 52.5613 50.9811 52.0711V51.5158C50.9811 46.881 47.8623 42.778 43.3973 41.5388L33.6785 38.8385L31.0995 36.2595V32.4486C34.3784 30.8867 36.8426 27.8819 37.6656 24.2601H38.8508C40.6452 24.2601 42.1055 22.8003 42.1055 21.0059V19.3488C42.1055 18.3966 41.6944 17.5388 41.0403 16.9432V1.77521H45.064V10.4292C43.8317 10.8092 42.9336 11.9586 42.9336 13.3136C42.9336 14.6686 43.8317 15.818 45.064 16.198V18.4021C45.064 18.8924 45.4614 19.2897 45.9516 19.2897C46.4414 19.2897 46.8388 18.8924 46.8388 18.4021V16.198C48.0711 15.818 48.9692 14.6686 48.9692 13.3136C48.9692 11.9586 48.0711 10.8092 46.8388 10.4292V1.77521H47.7264C48.2166 1.77521 48.614 1.37787 48.614 0.887604C48.614 0.397339 48.2171 0 47.7268 0H4.17612C3.68631 0 3.28851 0.397339 3.28851 0.887604C3.28851 1.37787 3.68631 1.77521 4.17612 1.77521H10.8627V3.55545C10.8627 4.04526 11.26 4.4426 11.7503 4.4426C12.2405 4.4426 12.6379 4.04526 12.6379 3.55545V1.77521H39.2651V12.1893H12.6379V7.69958C12.6379 7.20932 12.2405 6.81198 11.7503 6.81198C11.26 6.81198 10.8627 7.20932 10.8627 7.69958V16.9432C10.2085 17.5388 9.79745 18.3971 9.79745 19.3492V21.0059C9.79745 22.8003 11.2577 24.2606 13.0522 24.2606H14.2378C15.0604 27.8824 17.5245 30.8871 20.8035 32.449V36.2595L18.2244 38.839L8.50565 41.5388C4.04062 42.778 0.921875 46.881 0.921875 51.5163V52.0711C0.921875 52.5613 1.31921 52.9587 1.80948 52.9587C2.29974 52.9587 2.69708 52.5613 2.69708 52.0711V51.5163C2.69708 47.6756 5.2807 44.2763 8.9808 43.2495L14.8338 41.6235L18.1228 52.0427C18.1635 52.1713 18.2331 52.2894 18.326 52.3874L23.8815 58.2253H11.6912V55.4439C11.6912 54.9536 11.2939 54.5563 10.8036 54.5563C10.3134 54.5563 9.91602 54.9536 9.91602 55.4439V58.2248H2.69708V56.2056C2.69708 55.7153 2.29974 55.318 1.80948 55.318C1.31921 55.318 0.921875 55.7153 0.921875 56.2056V59.1124C0.921875 59.6027 1.31921 60 1.80948 60H50.0935C50.5837 60 50.9811 59.6027 50.9811 59.1124V56.2056C50.9811 55.7153 50.5837 55.318 50.0935 55.318C49.6032 55.318 49.2059 55.7153 49.2059 56.2056V58.2248H41.9869V55.4439C41.9869 54.9536 41.5896 54.5563 41.0993 54.5563C40.6091 54.5563 40.2117 54.9536 40.2117 55.4439V58.2248H28.0215L33.5769 52.3869C33.6698 52.289 33.7394 52.1713 33.7802 52.0422L37.0692 41.6231L42.9226 43.2495C46.6223 44.2758 49.2059 47.6752 49.2059 51.5158V52.0711C49.2059 52.5613 49.6032 52.9587 50.0935 52.9587ZM45.9516 14.5564C45.2664 14.5564 44.7088 13.9989 44.7088 13.3136C44.7088 12.6283 45.2664 12.0708 45.9516 12.0708C46.6369 12.0708 47.194 12.6283 47.194 13.3136C47.194 13.9989 46.6364 14.5564 45.9516 14.5564ZM24.4308 48.994H27.4722L28.6678 54.9706L25.9515 57.8247L23.2351 54.9706L24.4308 48.994ZM27.7949 47.2188H24.1081L22.6071 45.4871L25.9515 42.1426L29.2954 45.4871L27.7949 47.2188ZM30.2178 43.8986L27.2067 40.8875L30.2119 37.8827L32.0544 39.7247L30.2178 43.8986ZM40.3303 21.0059C40.3303 21.8216 39.6665 22.4849 38.8508 22.4849H37.9632V17.8697H38.8508C39.6665 17.8697 40.3303 18.5335 40.3303 19.3492V21.0059ZM39.2651 16.122C39.1291 16.1046 38.9913 16.0945 38.8508 16.0945H37.9632V13.9645H39.2651V16.122ZM12.6379 13.9645H13.9398V16.095H13.0522C12.9116 16.095 12.7738 16.1046 12.6379 16.122V13.9645ZM13.9398 22.4854H13.0522C12.2364 22.4854 11.5727 21.8216 11.5727 21.0059V19.3492C11.5727 18.5335 12.2364 17.8697 13.0522 17.8697H13.9398V22.4854ZM15.715 21.5977V13.9645H36.188V21.5977C36.188 27.2424 31.5962 31.8343 25.9515 31.8343C20.3068 31.8343 15.715 27.242 15.715 21.5977ZM25.9515 33.6095C27.122 33.6095 28.2536 33.4406 29.3243 33.127V36.2595L25.9515 39.6323L22.5787 36.2595V33.1265C23.6494 33.4406 24.781 33.6095 25.9515 33.6095ZM21.6911 37.8822L24.6963 40.8875L21.6851 43.8986L19.8486 39.7247L21.6911 37.8822ZM16.5453 41.1475L18.3183 40.6549L20.5801 45.7951C20.5943 45.8276 20.6107 45.8597 20.6291 45.8908C20.6336 45.899 20.6391 45.9068 20.6442 45.9151C20.6565 45.9348 20.6698 45.954 20.684 45.9732C20.6913 45.9833 20.6991 45.9929 20.7069 46.0025C20.7128 46.0098 20.7183 46.0176 20.7247 46.0249L22.7471 48.3591L21.7396 53.3986L19.7538 51.3121L16.5453 41.1475ZM32.1491 51.3121L30.1634 53.3986L29.1558 48.3591L31.1782 46.0249C31.1846 46.0176 31.1901 46.0098 31.1961 46.0025C31.2039 45.9929 31.2116 45.9828 31.2194 45.9727C31.2332 45.954 31.2464 45.9348 31.2588 45.9151C31.2638 45.9068 31.2693 45.899 31.2744 45.8904C31.2922 45.8592 31.3087 45.8276 31.3229 45.7951L33.5847 40.6549L35.3576 41.1475L32.1491 51.3121Z" fill="#6574FB"/>
</svg>
