<svg width="20" height="20" viewBox="0 0 20 20" fill="none" xmlns="http://www.w3.org/2000/svg">
<path fill-rule="evenodd" clip-rule="evenodd" d="M2.21676 0C0.992477 0 0 0.9918 0 2.21676V17.7832C0 19.0075 0.9918 20 2.21676 20H17.7832C19.0075 20 20 19.0082 20 17.7832V2.21676C20 0.992477 19.0082 0 17.7832 0H2.21676ZM5.55044 4.44444C4.93961 4.44444 4.44444 4.93763 4.44444 5.55556C4.44444 6.16921 4.94345 6.66667 5.55044 6.66667H14.4496C15.0604 6.66667 15.5556 6.17348 15.5556 5.55556C15.5556 4.94191 15.0566 4.44444 14.4496 4.44444H5.55044ZM5.55044 8.88889C4.93961 8.88889 4.44444 9.38207 4.44444 10C4.44444 10.6136 4.94345 11.1111 5.55044 11.1111H14.4496C15.0604 11.1111 15.5556 10.6179 15.5556 10C15.5556 9.38635 15.0566 8.88889 14.4496 8.88889H5.55044ZM5.55881 13.3333C4.94336 13.3333 4.44444 13.8265 4.44444 14.4444C4.44444 15.0581 4.94281 15.5556 5.55881 15.5556H11.1079C11.7233 15.5556 12.2222 15.0624 12.2222 14.4444C12.2222 13.8308 11.7239 13.3333 11.1079 13.3333H5.55881Z" fill="#767676"/>
</svg>
