<svg width="29" height="29" viewBox="0 0 29 29" fill="none" xmlns="http://www.w3.org/2000/svg">
<path d="M13.0025 28.0001C19.6313 28.0001 25.0051 22.6263 25.0051 15.9975C25.0051 9.36871 19.6313 3.995 13.0025 3.995C6.37371 3.995 1 9.36871 1 15.9975C1 22.6263 6.37371 28.0001 13.0025 28.0001Z" stroke="#C4C4C4" stroke-width="1.3" stroke-miterlimit="10" stroke-linecap="round" stroke-linejoin="round"/>
<path d="M13.0023 23.1991C16.9796 23.1991 20.2038 19.9748 20.2038 15.9975C20.2038 12.0202 16.9796 8.79602 13.0023 8.79602C9.02501 8.79602 5.80078 12.0202 5.80078 15.9975C5.80078 19.9748 9.02501 23.1991 13.0023 23.1991Z" stroke="#C4C4C4" stroke-width="1.3" stroke-miterlimit="10" stroke-linecap="round" stroke-linejoin="round"/>
<path d="M13.0026 18.3979C14.3283 18.3979 15.4031 17.3232 15.4031 15.9974C15.4031 14.6717 14.3283 13.5969 13.0026 13.5969C11.6768 13.5969 10.6021 14.6717 10.6021 15.9974C10.6021 17.3232 11.6768 18.3979 13.0026 18.3979Z" stroke="#C4C4C4" stroke-width="1.3" stroke-miterlimit="10" stroke-linecap="round" stroke-linejoin="round"/>
<path d="M24.084 4.91589L14.8881 14.1171H14.8828" stroke="#C4C4C4" stroke-width="1.3" stroke-miterlimit="10" stroke-linecap="round" stroke-linejoin="round"/>
<path d="M28.0002 3.03949L25.9373 5.10239C25.4765 5.56315 24.7295 5.56315 24.2687 5.10239L23.8978 4.73148C23.4371 4.27072 23.4371 3.52366 23.8978 3.06289L25.9607 1L25.8588 3.21771L28.0002 3.03949Z" stroke="#C4C4C4" stroke-width="1.3" stroke-miterlimit="10" stroke-linecap="round" stroke-linejoin="round"/>
</svg>
