<svg width="60" height="60" viewBox="0 0 60 60" fill="none" xmlns="http://www.w3.org/2000/svg">
<path d="M40.2022 31.1517C41.1575 29.6947 41.7245 28.0177 41.8494 26.28C42.8988 26.1166 43.8703 25.6273 44.6262 24.8813C45.3822 24.1353 45.8844 23.1705 46.0618 22.1234C46.2392 21.0762 46.0828 19.9998 45.6147 19.0465C45.1466 18.0932 44.3905 17.3112 43.4535 16.8113C43.8919 16.3824 44.2387 15.8692 44.4732 15.3026C44.7076 14.7359 44.8247 14.1276 44.8173 13.5144C44.81 12.9013 44.6785 12.2959 44.4306 11.735C44.1827 11.1741 43.8237 10.6693 43.3752 10.2511C43.5059 9.52718 43.476 8.78339 43.2876 8.07229C43.0992 7.3612 42.757 6.70017 42.285 6.13594C41.813 5.5717 41.2228 5.11803 40.5562 4.80699C39.8895 4.49596 39.1627 4.33515 38.4271 4.33594C37.6791 4.33881 36.9411 4.50755 36.2663 4.82999C35.5914 5.15243 34.9964 5.62055 34.5243 6.20063C33.2193 5.69897 31.833 5.44203 30.4349 5.44266H29.5649C28.167 5.44209 26.7809 5.69904 25.476 6.20063C24.8224 5.39273 23.9343 4.80735 22.9342 4.52511C21.9341 4.24287 20.871 4.27765 19.8915 4.62466C18.9119 4.97167 18.0641 5.61384 17.4646 6.46274C16.8652 7.31163 16.5437 8.32549 16.5444 9.36469C16.5446 9.66227 16.5714 9.95924 16.6246 10.252C16.1763 10.6703 15.8174 11.1751 15.5697 11.736C15.3219 12.2969 15.1904 12.9021 15.1831 13.5152C15.1759 14.1283 15.293 14.7366 15.5273 15.3031C15.7617 15.8697 16.1085 16.3829 16.5468 16.8117C15.6097 17.3117 14.8537 18.0937 14.3856 19.0471C13.9175 20.0004 13.7611 21.0769 13.9386 22.124C14.116 23.1712 14.6183 24.136 15.3743 24.8819C16.1304 25.6279 17.1019 26.1171 18.1513 26.2805C18.2763 28.0182 18.8433 29.6952 19.7985 31.1522C16.3903 32.1367 13.3934 34.2003 11.2578 37.033C9.12221 39.8657 7.96313 43.3148 7.95459 46.8623V54.8438C7.95459 55.0613 8.04102 55.27 8.19485 55.4238C8.34869 55.5776 8.55734 55.6641 8.7749 55.6641C8.99246 55.6641 9.20111 55.5776 9.35495 55.4238C9.50879 55.27 9.59521 55.0613 9.59521 54.8438V46.8623C9.60196 44.1176 10.3739 41.4292 11.8243 39.099C13.2747 36.7688 15.3461 34.8891 17.8058 33.6713L25.2454 40.0931C25.4053 40.2313 25.6124 40.3023 25.8235 40.2915C26.0346 40.2807 26.2333 40.1888 26.3783 40.035L27.9097 38.4113L29.1426 40.8759L26.4707 54.6863C26.4502 54.792 26.4507 54.9008 26.4723 55.0064C26.4939 55.112 26.536 55.2123 26.5964 55.3015C26.6567 55.3908 26.734 55.4673 26.8239 55.5267C26.9138 55.5861 27.0146 55.6272 27.1204 55.6477C27.172 55.6576 27.2244 55.6626 27.2769 55.6627C27.4673 55.6624 27.6517 55.596 27.7984 55.4747C27.9452 55.3534 28.0452 55.1849 28.0813 54.998L29.9999 45.0792L31.9185 54.9994C31.9375 55.1065 31.9776 55.2088 32.0364 55.3003C32.0953 55.3918 32.1718 55.4707 32.2615 55.5323C32.3511 55.594 32.4522 55.6372 32.5587 55.6594C32.6652 55.6816 32.7751 55.6824 32.8819 55.6618C32.9887 55.6411 33.0904 55.5994 33.1809 55.5391C33.2715 55.4788 33.3492 55.4011 33.4094 55.3105C33.4696 55.2199 33.5112 55.1182 33.5318 55.0113C33.5523 54.9045 33.5514 54.7946 33.5291 54.6881L30.8572 40.8773L32.0887 38.4136L33.6196 40.0364C33.7646 40.1902 33.9633 40.2821 34.1744 40.2929C34.3855 40.3037 34.5926 40.2327 34.7526 40.0945L42.1926 33.6727C44.6523 34.8903 46.7238 36.7696 48.1745 39.0996C49.6251 41.4295 50.3974 44.1177 50.4046 46.8623V54.8438C50.4046 55.0613 50.491 55.27 50.6449 55.4238C50.7987 55.5776 51.0073 55.6641 51.2249 55.6641C51.4425 55.6641 51.6511 55.5776 51.8049 55.4238C51.9588 55.27 52.0452 55.0613 52.0452 54.8438V46.8623C52.0366 43.3149 50.8776 39.8659 48.7422 37.0332C46.6068 34.2004 43.6102 32.1367 40.2022 31.1517ZM44.4885 21.2784C44.4872 22.0444 44.2297 22.7879 43.757 23.3906C43.2843 23.9933 42.6235 24.4205 41.8799 24.6042V17.9531C42.6234 18.1368 43.2841 18.564 43.7568 19.1666C44.2295 19.7692 44.4871 20.5126 44.4885 21.2784ZM38.4271 5.97657C38.9542 5.97579 39.4743 6.09821 39.9457 6.33407C40.4171 6.56993 40.827 6.9127 41.1424 7.33504C41.4579 7.75737 41.6703 8.24759 41.7627 8.76657C41.8551 9.28556 41.8249 9.81896 41.6746 10.3242C41.6267 10.4863 41.6301 10.6593 41.6843 10.8194C41.7385 10.9795 41.8409 11.1189 41.9774 11.2186C42.3501 11.4874 42.6534 11.8411 42.8622 12.2505C43.071 12.6599 43.1792 13.1131 43.1779 13.5727C43.1754 14.0588 43.0523 14.5366 42.8195 14.9634C42.5867 15.3901 42.2516 15.7524 41.8443 16.0177C41.6998 14.1456 41.0973 12.3377 40.09 10.7531C39.0826 9.16849 37.7012 7.85579 36.0674 6.93047C36.6984 6.31528 37.5458 5.97269 38.4271 5.97657ZM18.0229 11.2186C18.1594 11.1189 18.2618 10.9795 18.316 10.8194C18.3702 10.6593 18.3736 10.4863 18.3257 10.3242C18.1136 9.60621 18.1452 8.83816 18.4157 8.14003C18.6861 7.4419 19.1802 6.85299 19.8207 6.46528C20.4611 6.07758 21.212 5.9129 21.9559 5.99698C22.6999 6.08105 23.3951 6.40914 23.9329 6.93C22.299 7.85542 20.9177 9.16822 19.9105 10.7529C18.9032 12.3376 18.3009 14.1455 18.1565 16.0177C17.7491 15.7524 17.4139 15.3902 17.1812 14.9634C16.9484 14.5367 16.8253 14.0588 16.8229 13.5727C16.8215 13.1132 16.9296 12.66 17.1383 12.2506C17.347 11.8412 17.6502 11.4874 18.0229 11.2186ZM15.5113 21.278C15.5128 20.5122 15.7704 19.7689 16.2431 19.1664C16.7158 18.5639 17.3765 18.1368 18.1199 17.9531V24.6038C17.3764 24.42 16.7157 23.9929 16.243 23.3903C15.7702 22.7877 15.5127 22.0443 15.5113 21.2784V21.278ZM19.7605 17.2528C19.7605 17.2392 19.7605 17.2256 19.7605 17.2125V16.8877C19.7634 14.2882 20.7972 11.796 22.6353 9.9579C24.4733 8.11977 26.9655 7.08579 29.5649 7.08282H30.4344C33.034 7.08567 35.5262 8.11959 37.3644 9.95774C39.2025 11.7959 40.2364 14.2881 40.2393 16.8877V25.53C40.2365 27.8235 39.3243 30.0223 37.7025 31.644C36.0808 33.2658 33.882 34.1781 31.5885 34.1808H28.4113C26.1178 34.1781 23.919 33.2658 22.2973 31.644C20.6756 30.0223 19.7633 27.8235 19.7605 25.53V17.2528ZM25.723 38.34L19.4962 32.9634C19.9578 32.805 20.4272 32.6698 20.9024 32.5584C21.8283 33.5501 22.9417 34.3483 24.1782 34.9068C25.4146 35.4654 26.7495 35.7732 28.1057 35.8125L25.723 38.34ZM29.9999 38.9255L29.1093 37.1442L29.9999 36.1973L30.8905 37.1428L29.9999 38.9255ZM34.2754 38.34L31.8932 35.8125C33.2494 35.773 34.5843 35.4649 35.8206 34.9061C37.057 34.3473 38.1702 33.5489 39.096 32.557C39.5712 32.6684 40.0406 32.8035 40.5022 32.962L34.2754 38.34Z" fill="#6574FB"/>
<path d="M25.288 24.0403C25.8732 24.0414 26.4511 23.911 26.9791 23.6588C27.5072 23.4067 27.9719 23.0392 28.3389 22.5835C28.706 22.1278 28.9661 21.5955 29.1 21.0259C29.2339 20.4563 29.2382 19.8639 29.1126 19.2924C29.6847 19.0759 30.3154 19.0714 30.8905 19.2797C30.6774 20.2278 30.8228 21.2212 31.2986 22.0684C31.7744 22.9157 32.5471 23.5568 33.4675 23.8682C34.388 24.1796 35.3912 24.1393 36.2837 23.755C37.1762 23.3707 37.8948 22.6696 38.3011 21.7868C38.7073 20.9041 38.7724 19.9022 38.4839 18.9743C38.1953 18.0464 37.5735 17.2582 36.7382 16.7616C35.903 16.265 34.9135 16.0951 33.9604 16.2847C33.0074 16.4744 32.1583 17.0101 31.5768 17.7886C30.5674 17.3797 29.4379 17.3837 28.4315 17.7999C28.0341 17.2627 27.5057 16.8362 26.8968 16.5611C26.2878 16.286 25.6186 16.1714 24.9528 16.2283C24.287 16.2851 23.6469 16.5115 23.0934 16.8859C22.5399 17.2602 22.0915 17.7701 21.7909 18.3668C21.4903 18.9636 21.3475 19.6274 21.3762 20.295C21.4048 20.9626 21.6039 21.6117 21.9545 22.1805C22.3052 22.7494 22.7956 23.2189 23.3791 23.5445C23.9627 23.87 24.6198 24.0407 25.288 24.0403ZM34.7099 17.8496C35.1599 17.8491 35.6 17.9821 35.9744 18.2318C36.3488 18.4815 36.6407 18.8366 36.8133 19.2522C36.9858 19.6679 37.0312 20.1253 36.9437 20.5668C36.8562 21.0082 36.6397 21.4138 36.3216 21.7321C36.0036 22.0505 35.5983 22.2674 35.1569 22.3554C34.7156 22.4433 34.2581 22.3984 33.8422 22.2263C33.4264 22.0542 33.071 21.7626 32.821 21.3885C32.5709 21.0143 32.4374 20.5744 32.4374 20.1244C32.438 19.5214 32.6778 18.9432 33.1042 18.5167C33.5306 18.0902 34.1087 17.8503 34.7118 17.8496H34.7099ZM25.288 17.8496C25.7381 17.8491 26.1781 17.9821 26.5525 18.2318C26.9269 18.4815 27.2189 18.8366 27.3914 19.2522C27.5639 19.6679 27.6093 20.1253 27.5218 20.5668C27.4343 21.0082 27.2178 21.4138 26.8998 21.7321C26.5817 22.0505 26.1764 22.2674 25.735 22.3554C25.2937 22.4433 24.8362 22.3984 24.4204 22.2263C24.0046 22.0542 23.6491 21.7626 23.3991 21.3885C23.149 21.0143 23.0155 20.5744 23.0155 20.1244C23.0163 19.5217 23.2559 18.9439 23.6818 18.5175C24.1078 18.0911 24.6853 17.8509 25.288 17.8496Z" fill="#6574FB"/>
<path d="M16.8159 45.8221C16.5984 45.8221 16.3897 45.9086 16.2359 46.0624C16.082 46.2162 15.9956 46.4249 15.9956 46.6425V54.8437C15.9956 55.0613 16.082 55.2699 16.2359 55.4238C16.3897 55.5776 16.5984 55.664 16.8159 55.664C17.0335 55.664 17.2421 55.5776 17.396 55.4238C17.5498 55.2699 17.6362 55.0613 17.6362 54.8437V46.6406C17.6357 46.4233 17.5491 46.2152 17.3953 46.0617C17.2415 45.9083 17.0332 45.8221 16.8159 45.8221Z" fill="#6574FB"/>
<path d="M43.1841 45.8221C42.9665 45.8221 42.7579 45.9086 42.604 46.0624C42.4502 46.2162 42.3638 46.4249 42.3638 46.6425V54.8437C42.3638 55.0613 42.4502 55.2699 42.604 55.4238C42.7579 55.5776 42.9665 55.664 43.1841 55.664C43.4016 55.664 43.6103 55.5776 43.7641 55.4238C43.918 55.2699 44.0044 55.0613 44.0044 54.8437V46.6406C44.0039 46.4233 43.9173 46.2152 43.7635 46.0617C43.6097 45.9083 43.4013 45.8221 43.1841 45.8221Z" fill="#6574FB"/>
<path d="M33.1543 28.5393C32.1697 29.0046 31.0884 29.2283 30 29.1918C28.9117 29.2283 27.8303 29.0046 26.8458 28.5393C26.6564 28.4322 26.4322 28.4047 26.2226 28.4629C26.0129 28.5211 25.835 28.6602 25.7279 28.8496C25.6208 29.039 25.5933 29.2632 25.6515 29.4729C25.7097 29.6825 25.8488 29.8605 26.0382 29.9676C27.2681 30.5756 28.6285 30.8726 30 30.8324C31.3716 30.8728 32.7321 30.5756 33.9619 29.9671C34.0575 29.915 34.1418 29.8445 34.2098 29.7595C34.2778 29.6746 34.3283 29.577 34.3582 29.4723C34.3882 29.3677 34.397 29.2581 34.3841 29.1501C34.3713 29.042 34.3371 28.9376 34.2835 28.8428C34.23 28.7481 34.1581 28.665 34.072 28.5983C33.986 28.5316 33.8876 28.4828 33.7825 28.4545C33.6774 28.4263 33.5677 28.4192 33.4599 28.4338C33.352 28.4483 33.2481 28.4842 33.1543 28.5393Z" fill="#6574FB"/>
</svg>
