<svg width="268" height="259" viewBox="0 0 268 259" fill="none" xmlns="http://www.w3.org/2000/svg">
<path d="M229.923 151.473L307.005 181.666V256.252C307.005 259.379 304.462 261.925 301.339 261.925H73.6595C73.6595 261.925 95.9 228.365 107.951 213.517C107.951 213.517 113.515 188.809 140.074 173.635C166.65 158.462 181.636 154.754 181.636 154.754L229.923 151.473Z" fill="#1D7DEA"/>
<path d="M103.786 261.925C103.786 261.925 113.788 253.347 116.195 246.854C118.601 240.361 116.297 220.488 130.652 220.335C145.024 220.181 150.349 249.878 172.59 250.34C194.83 250.801 237.007 251.262 267.594 261.942H103.786V261.925Z" fill="url(#paint0_linear)"/>
<path d="M221.269 113.472C221.269 113.472 250.935 109.063 259.042 95.3764C267.15 81.6897 257.421 69.6262 257.421 69.6262C257.421 69.6262 268.072 49.6855 258.582 34.5975C249.091 19.5096 234.31 21.3721 223.966 16.9636C213.623 12.5552 196.947 -7.38552 177.471 4.67799C158.013 16.7415 168.903 31.8978 167.503 42.4064C166.121 52.9149 151.288 61.5098 175.85 76.1193C200.411 90.7288 221.269 113.472 221.269 113.472Z" fill="#1E2D45"/>
<path d="M187.439 42.9533C201.828 39.758 204.815 51.531 221.03 55.4781C221.03 55.4781 215.927 81.4506 217.326 82.3903C218.709 83.3131 221.03 75.658 226.834 76.5978C232.62 77.5205 230.077 91.9079 220.808 97.4783L229.923 151.491C229.923 151.491 209.68 172.166 198.79 173.55C187.9 174.934 181.636 154.771 181.636 154.771L179.775 118.342C179.775 118.342 173.289 118.342 167.725 115.095C162.161 111.849 164.243 103.271 166.564 96.0771C168.886 88.8835 172.129 79.383 172.129 79.383L166.564 73.112C166.564 73.112 176.259 68.1397 179.775 59.6645C182.421 53.3081 184.503 43.6026 187.439 42.9533Z" fill="#FF6D6D"/>
<path d="M196.469 63.6628C196.469 65.6278 194.881 67.2169 192.918 67.2169C190.956 67.2169 189.368 65.6278 189.368 63.6628C189.368 61.6977 190.956 60.1086 192.918 60.1086C194.881 60.1086 196.469 61.6977 196.469 63.6628Z" fill="#1E2D45"/>
<path d="M191.997 54.4357C191.997 54.4357 199.251 52.4194 204.047 58.9125" stroke="#1E2D45" stroke-width="1.0722" stroke-miterlimit="10" stroke-linecap="round" stroke-linejoin="round"/>
<path d="M174.689 92.4374C174.689 92.4374 188.907 93.5139 197.39 85.9443" stroke="#A34646" stroke-width="0.8145" stroke-miterlimit="10" stroke-linecap="round" stroke-linejoin="round"/>
<path d="M194.847 82.6807L199.951 89.1909" stroke="#A34646" stroke-width="0.8145" stroke-miterlimit="10" stroke-linecap="round" stroke-linejoin="round"/>
<path d="M179.793 118.342C197.476 118.735 212.24 109.268 220.809 97.4611L223.966 116.616C223.966 116.616 198.653 158.103 181.209 146.33L179.793 118.342Z" fill="url(#paint1_linear)"/>
<path d="M128.348 211.347L135.773 261.925" stroke="#2B4F36" stroke-width="0.8145" stroke-miterlimit="10"/>
<path d="M116.297 220.318C116.297 220.318 113.771 240.788 134.646 254.372" stroke="#2B4F36" stroke-width="0.8145" stroke-miterlimit="10"/>
<path d="M166.069 160.495L183.121 189.697C183.599 190.518 184.742 190.586 185.323 189.851L196.469 175.447H197.629L209.697 190.859C210.226 191.474 211.165 191.491 211.711 190.893L242.656 156.48" stroke="#2B4F36" stroke-width="0.8145" stroke-miterlimit="10"/>
<path d="M63.4695 261.925L53.2795 138.06C58.2295 125.843 57.4443 100.332 55.6009 99.7166C53.7404 99.1015 50.651 117.043 50.651 117.043C50.651 117.043 45.2402 114.104 43.3968 110.088C41.5363 106.073 31.1927 79.6222 27.796 79.7759C24.3994 79.9297 35.2038 110.43 35.2038 110.43C35.2038 110.43 11.5637 82.6978 8.01343 83.1592C4.46314 83.6205 27.0109 114.548 27.0109 114.548C27.0109 114.548 4.924 97.6832 2.29542 98.9306C-0.333155 100.161 20.5248 119.196 20.5248 119.196C20.5248 119.196 2.51731 110.396 0.127699 112.993C-1.57917 114.856 14.3459 121.964 16.8038 125.057C19.2788 128.15 18.34 141.443 30.3905 147.321L14.3459 261.925H63.4695Z" fill="#FF6D6D"/>
<path d="M50.6509 117.026C50.6509 117.026 33.9748 123.058 39.8293 140.059" stroke="#F04F4F" stroke-width="0.781" stroke-miterlimit="10"/>
<path d="M57.3419 187.544C49.5928 199.095 35.2209 218.763 18.3742 233.133L14.3459 261.925H63.4696L57.3419 187.544Z" fill="url(#paint2_linear)"/>
<path d="M170.951 99.597C170.951 99.597 175.013 99.016 179.793 100.451" stroke="#F04F4F" stroke-width="0.781" stroke-miterlimit="10"/>
<defs>
<linearGradient id="paint0_linear" x1="185.699" y1="218.214" x2="185.699" y2="278.589" gradientUnits="userSpaceOnUse">
<stop stop-color="#266FC6"/>
<stop offset="1" stop-color="#187D38" stop-opacity="0"/>
</linearGradient>
<linearGradient id="paint1_linear" x1="203.25" y1="83.9631" x2="200.928" y2="140.562" gradientUnits="userSpaceOnUse">
<stop stop-color="#F04F4F"/>
<stop offset="0.9465" stop-color="#F04F4F" stop-opacity="0.0535"/>
<stop offset="1" stop-color="#F04F4F" stop-opacity="0"/>
</linearGradient>
<linearGradient id="paint2_linear" x1="14.3468" y1="224.729" x2="63.4701" y2="224.729" gradientUnits="userSpaceOnUse">
<stop stop-color="#F04F4F"/>
<stop offset="0.9465" stop-color="#F04F4F" stop-opacity="0.0535"/>
<stop offset="1" stop-color="#F04F4F" stop-opacity="0"/>
</linearGradient>
</defs>
</svg>
