<svg width="21" height="19" viewBox="0 0 21 19" fill="none" xmlns="http://www.w3.org/2000/svg">
<path d="M20 11H17C16.7348 11 16.4804 10.8946 16.2929 10.7071C16.1054 10.5196 16 10.2652 16 10V1C16 0.734784 16.1054 0.48043 16.2929 0.292893C16.4804 0.105357 16.7348 3.48995e-08 17 3.48995e-08H20C20.2652 3.48995e-08 20.5196 0.105357 20.7071 0.292893C20.8946 0.48043 21 0.734784 21 1V10C21 10.2652 20.8946 10.5196 20.7071 10.7071C20.5196 10.8946 20.2652 11 20 11ZM20 10V1H17V10H20ZM4.284 1.975L1.283 6.975C1.103 7.275 1 7.625 1 8V9C1 9.53043 1.21071 10.0391 1.58579 10.4142C1.96086 10.7893 2.46957 11 3 11H8.61L7.152 16.44L7.148 16.458C7.10235 16.6275 7.10216 16.806 7.14745 16.9756C7.19274 17.1452 7.28192 17.2998 7.406 17.424L13.415 11.415C13.776 11.052 14 10.552 14 10V3C14 2.46957 13.7893 1.96086 13.4142 1.58579C13.0391 1.21071 12.5304 1 12 1H6C5.27 1 4.632 1.39 4.284 1.975ZM0 8C0 7.406 0.172 6.853 0.47 6.388L3.376 1.545C3.6357 1.07674 4.01599 0.68651 4.47741 0.414831C4.93882 0.143151 5.46454 -8.16274e-05 6 3.48995e-08H12C12.7956 3.48995e-08 13.5587 0.316071 14.1213 0.87868C14.6839 1.44129 15 2.20435 15 3V10C15.0006 10.3937 14.9234 10.7837 14.7729 11.1475C14.6224 11.5113 14.4016 11.8418 14.123 12.12L7.406 18.838L6.699 18.131C6.44601 17.878 6.26551 17.5618 6.17634 17.2153C6.08716 16.8688 6.09257 16.5047 6.192 16.161L7.307 12H3C2.20435 12 1.44129 11.6839 0.87868 11.1213C0.31607 10.5587 0 9.79565 0 9V8Z" fill="#333333"/>
</svg>
