<svg width="22" height="22" viewBox="0 0 22 22" fill="none" xmlns="http://www.w3.org/2000/svg">
<path d="M11.3 21C16.9708 21 21.6 16.3708 21.6 10.7C21.6 5.02924 16.9708 0.400024 11.3 0.400024C5.62921 0.400024 1 5.02924 1 10.7C1 16.3708 5.62921 21 11.3 21ZM11.3 1.17156C16.5464 1.17156 20.8285 5.45358 20.8285 10.7C20.8285 15.9465 16.5464 20.2285 11.3 20.2285C6.05356 20.2285 1.77154 15.9465 1.77154 10.7C1.77154 5.45358 6.05356 1.17156 11.3 1.17156Z" fill="#C4C4C4" stroke="#C4C4C4" stroke-width="0.6"/>
<path d="M11.9172 11.0857V5.45349H11.1457V10.7771L8.52246 13.3617L9.06254 13.9018L11.9172 11.0857Z" fill="#C4C4C4" stroke="#C4C4C4" stroke-width="0.6"/>
</svg>
