<svg width="308" height="158" viewBox="0 0 308 158" fill="none" xmlns="http://www.w3.org/2000/svg">
<g filter="url(#filter0_d)">
<rect x="4" width="300" height="150" rx="4" fill="url(#paint0_linear)"/>
<mask id="mask0" mask-type="alpha" maskUnits="userSpaceOnUse" x="4" y="0" width="300" height="150">
<rect x="4" width="300" height="150" rx="4" fill="white"/>
</mask>
<g mask="url(#mask0)">
<g filter="url(#filter1_d)">
<path fill-rule="evenodd" clip-rule="evenodd" d="M348.238 264.074C392.421 229.712 402.153 163.387 369.975 115.934C337.797 68.4803 275.894 57.8675 231.711 92.2295C187.528 126.591 177.796 192.916 209.975 240.369C242.153 287.823 304.056 298.436 348.238 264.074Z" fill="url(#paint1_linear)"/>
</g>
<g filter="url(#filter2_d)">
<path fill-rule="evenodd" clip-rule="evenodd" d="M266.528 120.062C310.71 85.6999 320.442 19.3754 288.264 -28.078C256.086 -75.5314 194.183 -86.1442 150 -51.7823C105.817 -17.4203 96.0855 48.9042 128.264 96.3576C160.442 143.811 222.345 154.424 266.528 120.062Z" fill="url(#paint2_linear)"/>
</g>
</g>
</g>
<defs>
<filter id="filter0_d" x="0" y="0" width="308" height="158" filterUnits="userSpaceOnUse" color-interpolation-filters="sRGB">
<feFlood flood-opacity="0" result="BackgroundImageFix"/>
<feColorMatrix in="SourceAlpha" type="matrix" values="0 0 0 0 0 0 0 0 0 0 0 0 0 0 0 0 0 0 127 0"/>
<feOffset dy="4"/>
<feGaussianBlur stdDeviation="2"/>
<feColorMatrix type="matrix" values="0 0 0 0 0.141176 0 0 0 0 0.529412 0 0 0 0 0.843137 0 0 0 0.29 0"/>
<feBlend mode="normal" in2="BackgroundImageFix" result="effect1_dropShadow"/>
<feBlend mode="normal" in="SourceGraphic" in2="effect1_dropShadow" result="shape"/>
</filter>
<filter id="filter1_d" x="161" y="50.0605" width="257.95" height="272.182" filterUnits="userSpaceOnUse" color-interpolation-filters="sRGB">
<feFlood flood-opacity="0" result="BackgroundImageFix"/>
<feColorMatrix in="SourceAlpha" type="matrix" values="0 0 0 0 0 0 0 0 0 0 0 0 0 0 0 0 0 0 127 0"/>
<feOffset dy="8"/>
<feGaussianBlur stdDeviation="15"/>
<feColorMatrix type="matrix" values="0 0 0 0 0.117647 0 0 0 0 0.529412 0 0 0 0 0.941176 0 0 0 0.2 0"/>
<feBlend mode="normal" in2="BackgroundImageFix" result="effect1_dropShadow"/>
<feBlend mode="normal" in="SourceGraphic" in2="effect1_dropShadow" result="shape"/>
</filter>
<filter id="filter2_d" x="79.2891" y="-93.9512" width="257.95" height="272.182" filterUnits="userSpaceOnUse" color-interpolation-filters="sRGB">
<feFlood flood-opacity="0" result="BackgroundImageFix"/>
<feColorMatrix in="SourceAlpha" type="matrix" values="0 0 0 0 0 0 0 0 0 0 0 0 0 0 0 0 0 0 127 0"/>
<feOffset dy="8"/>
<feGaussianBlur stdDeviation="15"/>
<feColorMatrix type="matrix" values="0 0 0 0 0.117647 0 0 0 0 0.529412 0 0 0 0 0.941176 0 0 0 0.2 0"/>
<feBlend mode="normal" in2="BackgroundImageFix" result="effect1_dropShadow"/>
<feBlend mode="normal" in="SourceGraphic" in2="effect1_dropShadow" result="shape"/>
</filter>
<linearGradient id="paint0_linear" x1="4" y1="0" x2="4" y2="150" gradientUnits="userSpaceOnUse">
<stop stop-color="#40BCF9"/>
<stop offset="1" stop-color="#1870C8"/>
</linearGradient>
<linearGradient id="paint1_linear" x1="219.993" y1="96.8602" x2="290.009" y2="150.676" gradientUnits="userSpaceOnUse">
<stop stop-color="#2795F2" stop-opacity="0.53"/>
<stop offset="1" stop-color="white" stop-opacity="0.27"/>
</linearGradient>
<linearGradient id="paint2_linear" x1="70" y1="10.4355" x2="197.195" y2="173.983" gradientUnits="userSpaceOnUse">
<stop stop-color="#40BCF9"/>
<stop offset="1" stop-color="#1E87F0" stop-opacity="0.01"/>
</linearGradient>
</defs>
</svg>
