<svg width="88" height="79" viewBox="0 0 88 79" fill="none" xmlns="http://www.w3.org/2000/svg">
<mask id="mask0" mask-type="alpha" maskUnits="userSpaceOnUse" x="0" y="0" width="88" height="79">
<rect width="88" height="79" fill="#C4C4C4"/>
</mask>
<g mask="url(#mask0)">
<g opacity="0.89">
<path d="M9.21289 46.9577C9.21289 41.7235 13.0629 37.5361 17.8754 37.5361C22.6879 37.5361 26.6754 41.7235 26.6754 46.9577C26.6754 52.1919 22.6879 56.3793 17.8754 56.3793C13.0629 56.3793 9.21289 52.1919 9.21289 46.9577Z" fill="#1D7DEA"/>
<path d="M28.325 58.324C19.6625 62.3618 14.7125 71.1852 14.575 80.0086V80.1581H1.1C0.55 80.1581 0 79.7095 0 79.1113V71.6338C0 63.5582 6.05 56.978 13.475 56.978C13.8875 56.978 14.3 57.2771 14.4375 57.5762L17.875 64.9041L21.3125 57.5762C22.1375 55.9312 26.675 57.5762 28.325 58.324Z" fill="#1D7DEA"/>
<path d="M61.3252 46.9577C61.3252 41.7235 65.1752 37.5361 69.9877 37.5361C74.8002 37.5361 78.7877 41.7235 78.7877 46.9577C78.7877 52.1919 74.8002 56.3793 69.9877 56.3793C65.1752 56.3793 61.3252 52.1919 61.3252 46.9577Z" fill="#1D7DEA"/>
<path d="M87.9996 71.6333V79.1108C87.9996 79.709 87.5871 80.3072 86.8996 80.3072H73.2871C73.2871 80.1576 73.5621 65.6514 60.4996 58.9217C60.2246 58.7721 59.8121 58.6226 59.5371 58.473C61.3246 57.4262 63.3871 56.9775 65.4496 56.9775C65.8621 56.9775 66.2746 57.2766 66.4121 57.5757L69.8496 64.9036L73.2871 57.5757C73.4246 57.1271 73.8371 56.9775 74.2496 56.9775C81.9496 56.9775 87.9996 63.5577 87.9996 71.6333Z" fill="#1D7DEA"/>
<path d="M71.3627 79.5705C71.3627 80.1687 70.9502 80.6174 70.2627 80.6174H17.7377C17.1877 80.6174 16.6377 80.1687 16.6377 79.5705V79.9057C16.6377 79.6066 16.6377 79.4571 16.6377 79.158C16.9127 67.7922 25.7127 58.7725 37.1252 58.7725C37.5377 58.7725 37.9502 59.0716 38.2252 59.3707L44.1377 71.9328L50.0502 59.3707C50.1877 58.922 50.6002 58.7725 51.0127 58.7725H51.1502C62.4252 58.7725 71.3627 67.7922 71.5002 79.3075C71.3627 79.6066 71.3627 68.3544 71.3627 79.5705Z" fill="#1D7DEA"/>
<path d="M30.9375 42.6212C30.9375 34.8447 36.7125 28.4141 44 28.4141C51.15 28.4141 57.0625 34.6951 57.0625 42.6212C57.0625 50.3978 51.2875 56.8284 44 56.8284C36.85 56.6788 30.9375 50.3978 30.9375 42.6212Z" fill="#1D7DEA"/>
<g opacity="0.3">
<path d="M84.4254 0H55.2754C53.3504 0 51.8379 1.64504 51.8379 3.73872V18.9927C51.8379 21.0864 53.3504 22.7314 55.2754 22.7314H58.4379V29.4612C58.4379 30.508 59.5379 30.9566 60.2254 30.2089L67.1004 22.7314H84.5629C86.4879 22.7314 88.0004 21.0864 88.0004 18.9927V3.58918C87.8629 1.64504 86.3504 0 84.4254 0ZM81.6754 16.3008H58.0254C57.4754 16.3008 56.9254 15.8522 56.9254 15.1045C56.9254 14.5063 57.3379 13.9081 58.0254 13.9081H81.6754C82.2254 13.9081 82.7754 14.3567 82.7754 15.1045C82.6379 15.7026 82.2254 16.3008 81.6754 16.3008ZM81.6754 8.97294H58.0254C57.4754 8.97294 56.9254 8.52429 56.9254 7.77655C56.9254 7.17835 57.3379 6.58016 58.0254 6.58016H81.6754C82.2254 6.58016 82.7754 7.0288 82.7754 7.77655C82.6379 8.52429 82.2254 8.97294 81.6754 8.97294Z" fill="#368BEC"/>
</g>
<g opacity="0.3">
<path d="M28.325 10.6172H3.025C1.375 10.6172 0 12.1127 0 13.9073V27.0676C0 28.8622 1.375 30.3577 3.025 30.3577H18.0125L23.925 36.7883C24.6125 37.536 25.7125 36.9378 25.7125 36.0405V30.3577H28.325C29.975 30.3577 31.35 28.8622 31.35 27.0676V13.9073C31.35 12.1127 29.975 10.6172 28.325 10.6172ZM26.5375 24.6748H4.8125C4.2625 24.6748 3.7125 24.2261 3.7125 23.4784C3.7125 22.8802 4.125 22.282 4.8125 22.282H26.4C26.95 22.282 27.5 22.7307 27.5 23.4784C27.5 24.2261 27.0875 24.6748 26.5375 24.6748ZM26.5375 18.0946H4.8125C4.2625 18.0946 3.7125 17.646 3.7125 16.8982C3.7125 16.3 4.125 15.7019 4.8125 15.7019H26.4C26.95 15.7019 27.5 16.1505 27.5 16.8982C27.5 17.4964 27.0875 18.0946 26.5375 18.0946Z" fill="#368BEC"/>
</g>
</g>
</g>
</svg>
