<svg width="25" height="25" viewBox="0 0 25 25" fill="none" xmlns="http://www.w3.org/2000/svg">
<path d="M19.1439 5.1485L19.8509 5.856L12.3559 13.351L11.6489 12.644L19.1439 5.1485Z" fill="#1D7DEA" stroke="#1D7DEA" stroke-width="0.5"/>
<path d="M20 10H19V6H15V5H20V10Z" fill="#1D7DEA" stroke="#1D7DEA" stroke-width="0.5"/>
<path d="M17.5 19H7.5C6.65 19 6 18.35 6 17.5V7.5C6 6.65 6.65 6 7.5 6H13V7H7.5C7.2 7 7 7.2 7 7.5V17.5C7 17.8 7.2 18 7.5 18H17.5C17.8 18 18 17.8 18 17.5V12H19V17.5C19 18.35 18.35 19 17.5 19Z" fill="#1D7DEA" stroke="#1D7DEA" stroke-width="0.5"/>
</svg>
