<svg width="21" height="19" viewBox="0 0 21 19" fill="none" xmlns="http://www.w3.org/2000/svg">
<path d="M1 8H4C4.26522 8 4.51957 8.10536 4.70711 8.2929C4.89464 8.48043 5 8.73479 5 9V18C5 18.2652 4.89464 18.5196 4.70711 18.7071C4.51957 18.8946 4.26522 19 4 19H1C0.734784 19 0.48043 18.8946 0.292893 18.7071C0.105357 18.5196 0 18.2652 0 18V9C0 8.73479 0.105357 8.48043 0.292893 8.2929C0.48043 8.10536 0.734784 8 1 8ZM1 9V18H4V9H1ZM16.716 17.025L19.717 12.025C19.897 11.725 20 11.375 20 11V10C20 9.46957 19.7893 8.96086 19.4142 8.58579C19.0391 8.21072 18.5304 8 18 8H12.39L13.847 2.56L13.852 2.542C13.8975 2.37251 13.8977 2.19401 13.8524 2.02444C13.8071 1.85488 13.718 1.70022 13.594 1.576L7.585 7.585C7.39907 7.77068 7.25166 7.99128 7.15127 8.23411C7.05087 8.47695 6.99947 8.73723 7 9V16C7 16.5304 7.21071 17.0391 7.58579 17.4142C7.96086 17.7893 8.46957 18 9 18H15C15.73 18 16.368 17.61 16.716 17.025ZM21 11C21 11.594 20.828 12.147 20.53 12.612L17.624 17.455C17.3643 17.9233 16.984 18.3135 16.5226 18.5852C16.0612 18.8568 15.5355 19.0001 15 19H9C8.20435 19 7.44129 18.6839 6.87868 18.1213C6.31607 17.5587 6 16.7957 6 16V9C6 8.172 6.335 7.423 6.877 6.88L13.594 0.162003L14.301 0.869003C14.554 1.122 14.7345 1.43823 14.8237 1.78473C14.9128 2.13123 14.9074 2.49531 14.808 2.839L13.693 7H18C18.7956 7 19.5587 7.31607 20.1213 7.87868C20.6839 8.44129 21 9.20435 21 10V11Z" fill="#333333"/>
</svg>
